%TF.GenerationSoftware,KiCad,Pcbnew,(7.0.0)*%
%TF.CreationDate,2023-03-17T13:32:38-05:00*%
%TF.ProjectId,adbuino,61646275-696e-46f2-9e6b-696361645f70,rev?*%
%TF.SameCoordinates,Original*%
%TF.FileFunction,Legend,Bot*%
%TF.FilePolarity,Positive*%
%FSLAX46Y46*%
G04 Gerber Fmt 4.6, Leading zero omitted, Abs format (unit mm)*
G04 Created by KiCad (PCBNEW (7.0.0)) date 2023-03-17 13:32:38*
%MOMM*%
%LPD*%
G01*
G04 APERTURE LIST*
G04 Aperture macros list*
%AMRoundRect*
0 Rectangle with rounded corners*
0 $1 Rounding radius*
0 $2 $3 $4 $5 $6 $7 $8 $9 X,Y pos of 4 corners*
0 Add a 4 corners polygon primitive as box body*
4,1,4,$2,$3,$4,$5,$6,$7,$8,$9,$2,$3,0*
0 Add four circle primitives for the rounded corners*
1,1,$1+$1,$2,$3*
1,1,$1+$1,$4,$5*
1,1,$1+$1,$6,$7*
1,1,$1+$1,$8,$9*
0 Add four rect primitives between the rounded corners*
20,1,$1+$1,$2,$3,$4,$5,0*
20,1,$1+$1,$4,$5,$6,$7,0*
20,1,$1+$1,$6,$7,$8,$9,0*
20,1,$1+$1,$8,$9,$2,$3,0*%
%AMFreePoly0*
4,1,19,0.500000,-0.750000,0.000000,-0.750000,0.000000,-0.744911,-0.071157,-0.744911,-0.207708,-0.704816,-0.327430,-0.627875,-0.420627,-0.520320,-0.479746,-0.390866,-0.500000,-0.250000,-0.500000,0.250000,-0.479746,0.390866,-0.420627,0.520320,-0.327430,0.627875,-0.207708,0.704816,-0.071157,0.744911,0.000000,0.744911,0.000000,0.750000,0.500000,0.750000,0.500000,-0.750000,0.500000,-0.750000,
$1*%
%AMFreePoly1*
4,1,19,0.000000,0.744911,0.071157,0.744911,0.207708,0.704816,0.327430,0.627875,0.420627,0.520320,0.479746,0.390866,0.500000,0.250000,0.500000,-0.250000,0.479746,-0.390866,0.420627,-0.520320,0.327430,-0.627875,0.207708,-0.704816,0.071157,-0.744911,0.000000,-0.744911,0.000000,-0.750000,-0.500000,-0.750000,-0.500000,0.750000,0.000000,0.750000,0.000000,0.744911,0.000000,0.744911,
$1*%
G04 Aperture macros list end*
%ADD10C,0.100000*%
%ADD11C,0.120000*%
%ADD12C,0.150000*%
%ADD13C,0.254000*%
%ADD14C,0.200000*%
%ADD15C,0.127000*%
%ADD16R,1.400000X0.400000*%
%ADD17C,2.000000*%
%ADD18C,0.001000*%
%ADD19FreePoly0,90.000000*%
%ADD20FreePoly1,90.000000*%
%ADD21O,1.800000X1.800000*%
%ADD22O,1.500000X1.500000*%
%ADD23O,1.700000X1.700000*%
%ADD24R,1.700000X1.700000*%
%ADD25RoundRect,0.135000X-0.185000X0.135000X-0.185000X-0.135000X0.185000X-0.135000X0.185000X0.135000X0*%
%ADD26RoundRect,0.243750X0.243750X0.456250X-0.243750X0.456250X-0.243750X-0.456250X0.243750X-0.456250X0*%
%ADD27R,0.900000X3.500000*%
%ADD28C,3.316000*%
%ADD29O,1.800000X3.600000*%
%ADD30RoundRect,0.150000X-0.150000X0.587500X-0.150000X-0.587500X0.150000X-0.587500X0.150000X0.587500X0*%
%ADD31RoundRect,0.243750X-0.456250X0.243750X-0.456250X-0.243750X0.456250X-0.243750X0.456250X0.243750X0*%
%ADD32RoundRect,0.225000X-0.225000X-0.375000X0.225000X-0.375000X0.225000X0.375000X-0.225000X0.375000X0*%
%ADD33RoundRect,0.225000X0.375000X-0.225000X0.375000X0.225000X-0.375000X0.225000X-0.375000X-0.225000X0*%
G04 APERTURE END LIST*
D10*
X20473332Y85289143D02*
X20206666Y85289143D01*
X20092380Y84870096D02*
X20473332Y84870096D01*
X20473332Y84870096D02*
X20473332Y85670096D01*
X20473332Y85670096D02*
X20092380Y85670096D01*
X19749522Y84870096D02*
X19749522Y85670096D01*
X19749522Y85670096D02*
X19292379Y84870096D01*
X19292379Y84870096D02*
X19292379Y85670096D01*
X18469523Y85098667D02*
X18088570Y85098667D01*
X18545713Y84870096D02*
X18279046Y85670096D01*
X18279046Y85670096D02*
X18012380Y84870096D01*
X17745713Y84870096D02*
X17745713Y85670096D01*
X17745713Y85670096D02*
X17555237Y85670096D01*
X17555237Y85670096D02*
X17440951Y85632000D01*
X17440951Y85632000D02*
X17364761Y85555810D01*
X17364761Y85555810D02*
X17326666Y85479620D01*
X17326666Y85479620D02*
X17288570Y85327239D01*
X17288570Y85327239D02*
X17288570Y85212953D01*
X17288570Y85212953D02*
X17326666Y85060572D01*
X17326666Y85060572D02*
X17364761Y84984381D01*
X17364761Y84984381D02*
X17440951Y84908191D01*
X17440951Y84908191D02*
X17555237Y84870096D01*
X17555237Y84870096D02*
X17745713Y84870096D01*
X16679047Y85289143D02*
X16564761Y85251048D01*
X16564761Y85251048D02*
X16526666Y85212953D01*
X16526666Y85212953D02*
X16488570Y85136762D01*
X16488570Y85136762D02*
X16488570Y85022477D01*
X16488570Y85022477D02*
X16526666Y84946286D01*
X16526666Y84946286D02*
X16564761Y84908191D01*
X16564761Y84908191D02*
X16640951Y84870096D01*
X16640951Y84870096D02*
X16945713Y84870096D01*
X16945713Y84870096D02*
X16945713Y85670096D01*
X16945713Y85670096D02*
X16679047Y85670096D01*
X16679047Y85670096D02*
X16602856Y85632000D01*
X16602856Y85632000D02*
X16564761Y85593905D01*
X16564761Y85593905D02*
X16526666Y85517715D01*
X16526666Y85517715D02*
X16526666Y85441524D01*
X16526666Y85441524D02*
X16564761Y85365334D01*
X16564761Y85365334D02*
X16602856Y85327239D01*
X16602856Y85327239D02*
X16679047Y85289143D01*
X16679047Y85289143D02*
X16945713Y85289143D01*
X19376189Y83574096D02*
X19376189Y84374096D01*
X19376189Y84374096D02*
X19071427Y84374096D01*
X19071427Y84374096D02*
X18995237Y84336000D01*
X18995237Y84336000D02*
X18957142Y84297905D01*
X18957142Y84297905D02*
X18919046Y84221715D01*
X18919046Y84221715D02*
X18919046Y84107429D01*
X18919046Y84107429D02*
X18957142Y84031239D01*
X18957142Y84031239D02*
X18995237Y83993143D01*
X18995237Y83993143D02*
X19071427Y83955048D01*
X19071427Y83955048D02*
X19376189Y83955048D01*
X18652380Y84107429D02*
X18499999Y83574096D01*
X18499999Y83574096D02*
X18347618Y83955048D01*
X18347618Y83955048D02*
X18195237Y83574096D01*
X18195237Y83574096D02*
X18042856Y84107429D01*
X17738094Y83574096D02*
X17738094Y84107429D01*
X17738094Y83955048D02*
X17699999Y84031239D01*
X17699999Y84031239D02*
X17661904Y84069334D01*
X17661904Y84069334D02*
X17585713Y84107429D01*
X17585713Y84107429D02*
X17509523Y84107429D01*
D11*
X19700000Y82450000D02*
X22800000Y82450000D01*
X22800000Y82450000D02*
X22800000Y71450000D01*
X22800000Y71450000D02*
X19700000Y71450000D01*
X19700000Y71450000D02*
X19700000Y82450000D01*
X20100000Y82100000D02*
X22400000Y82100000D01*
X22400000Y82100000D02*
X22400000Y71800000D01*
X22400000Y71800000D02*
X20100000Y71800000D01*
X20100000Y71800000D02*
X20100000Y82100000D01*
D10*
X29506404Y75219167D02*
X30306404Y74952500D01*
X30306404Y74952500D02*
X29506404Y74685834D01*
X29887357Y74152501D02*
X29925452Y74038215D01*
X29925452Y74038215D02*
X29963547Y74000120D01*
X29963547Y74000120D02*
X30039738Y73962024D01*
X30039738Y73962024D02*
X30154023Y73962024D01*
X30154023Y73962024D02*
X30230214Y74000120D01*
X30230214Y74000120D02*
X30268309Y74038215D01*
X30268309Y74038215D02*
X30306404Y74114405D01*
X30306404Y74114405D02*
X30306404Y74419167D01*
X30306404Y74419167D02*
X29506404Y74419167D01*
X29506404Y74419167D02*
X29506404Y74152501D01*
X29506404Y74152501D02*
X29544500Y74076310D01*
X29544500Y74076310D02*
X29582595Y74038215D01*
X29582595Y74038215D02*
X29658785Y74000120D01*
X29658785Y74000120D02*
X29734976Y74000120D01*
X29734976Y74000120D02*
X29811166Y74038215D01*
X29811166Y74038215D02*
X29849261Y74076310D01*
X29849261Y74076310D02*
X29887357Y74152501D01*
X29887357Y74152501D02*
X29887357Y74419167D01*
X29506404Y73619167D02*
X30154023Y73619167D01*
X30154023Y73619167D02*
X30230214Y73581072D01*
X30230214Y73581072D02*
X30268309Y73542977D01*
X30268309Y73542977D02*
X30306404Y73466786D01*
X30306404Y73466786D02*
X30306404Y73314405D01*
X30306404Y73314405D02*
X30268309Y73238215D01*
X30268309Y73238215D02*
X30230214Y73200120D01*
X30230214Y73200120D02*
X30154023Y73162024D01*
X30154023Y73162024D02*
X29506404Y73162024D01*
X30268309Y72819168D02*
X30306404Y72704882D01*
X30306404Y72704882D02*
X30306404Y72514406D01*
X30306404Y72514406D02*
X30268309Y72438215D01*
X30268309Y72438215D02*
X30230214Y72400120D01*
X30230214Y72400120D02*
X30154023Y72362025D01*
X30154023Y72362025D02*
X30077833Y72362025D01*
X30077833Y72362025D02*
X30001642Y72400120D01*
X30001642Y72400120D02*
X29963547Y72438215D01*
X29963547Y72438215D02*
X29925452Y72514406D01*
X29925452Y72514406D02*
X29887357Y72666787D01*
X29887357Y72666787D02*
X29849261Y72742977D01*
X29849261Y72742977D02*
X29811166Y72781072D01*
X29811166Y72781072D02*
X29734976Y72819168D01*
X29734976Y72819168D02*
X29658785Y72819168D01*
X29658785Y72819168D02*
X29582595Y72781072D01*
X29582595Y72781072D02*
X29544500Y72742977D01*
X29544500Y72742977D02*
X29506404Y72666787D01*
X29506404Y72666787D02*
X29506404Y72476310D01*
X29506404Y72476310D02*
X29544500Y72362025D01*
X30268309Y81730952D02*
X30306404Y81616666D01*
X30306404Y81616666D02*
X30306404Y81426190D01*
X30306404Y81426190D02*
X30268309Y81349999D01*
X30268309Y81349999D02*
X30230214Y81311904D01*
X30230214Y81311904D02*
X30154023Y81273809D01*
X30154023Y81273809D02*
X30077833Y81273809D01*
X30077833Y81273809D02*
X30001642Y81311904D01*
X30001642Y81311904D02*
X29963547Y81349999D01*
X29963547Y81349999D02*
X29925452Y81426190D01*
X29925452Y81426190D02*
X29887357Y81578571D01*
X29887357Y81578571D02*
X29849261Y81654761D01*
X29849261Y81654761D02*
X29811166Y81692856D01*
X29811166Y81692856D02*
X29734976Y81730952D01*
X29734976Y81730952D02*
X29658785Y81730952D01*
X29658785Y81730952D02*
X29582595Y81692856D01*
X29582595Y81692856D02*
X29544500Y81654761D01*
X29544500Y81654761D02*
X29506404Y81578571D01*
X29506404Y81578571D02*
X29506404Y81388094D01*
X29506404Y81388094D02*
X29544500Y81273809D01*
X29506404Y81045237D02*
X29506404Y80588094D01*
X30306404Y80816666D02*
X29506404Y80816666D01*
X30077833Y80359523D02*
X30077833Y79978570D01*
X30306404Y80435713D02*
X29506404Y80169046D01*
X29506404Y80169046D02*
X30306404Y79902380D01*
X29506404Y79749999D02*
X29506404Y79292856D01*
X30306404Y79521428D02*
X29506404Y79521428D01*
D12*
X21558666Y81656762D02*
X21558666Y81180572D01*
X21844380Y81752000D02*
X20844380Y81418667D01*
X20844380Y81418667D02*
X21844380Y81085334D01*
X21844380Y80752000D02*
X20844380Y80752000D01*
X20844380Y80752000D02*
X20844380Y80513905D01*
X20844380Y80513905D02*
X20892000Y80371048D01*
X20892000Y80371048D02*
X20987238Y80275810D01*
X20987238Y80275810D02*
X21082476Y80228191D01*
X21082476Y80228191D02*
X21272952Y80180572D01*
X21272952Y80180572D02*
X21415809Y80180572D01*
X21415809Y80180572D02*
X21606285Y80228191D01*
X21606285Y80228191D02*
X21701523Y80275810D01*
X21701523Y80275810D02*
X21796761Y80371048D01*
X21796761Y80371048D02*
X21844380Y80513905D01*
X21844380Y80513905D02*
X21844380Y80752000D01*
X21320571Y79418667D02*
X21368190Y79275810D01*
X21368190Y79275810D02*
X21415809Y79228191D01*
X21415809Y79228191D02*
X21511047Y79180572D01*
X21511047Y79180572D02*
X21653904Y79180572D01*
X21653904Y79180572D02*
X21749142Y79228191D01*
X21749142Y79228191D02*
X21796761Y79275810D01*
X21796761Y79275810D02*
X21844380Y79371048D01*
X21844380Y79371048D02*
X21844380Y79752000D01*
X21844380Y79752000D02*
X20844380Y79752000D01*
X20844380Y79752000D02*
X20844380Y79418667D01*
X20844380Y79418667D02*
X20892000Y79323429D01*
X20892000Y79323429D02*
X20939619Y79275810D01*
X20939619Y79275810D02*
X21034857Y79228191D01*
X21034857Y79228191D02*
X21130095Y79228191D01*
X21130095Y79228191D02*
X21225333Y79275810D01*
X21225333Y79275810D02*
X21272952Y79323429D01*
X21272952Y79323429D02*
X21320571Y79418667D01*
X21320571Y79418667D02*
X21320571Y79752000D01*
X21177714Y78323429D02*
X21844380Y78323429D01*
X21177714Y78752000D02*
X21701523Y78752000D01*
X21701523Y78752000D02*
X21796761Y78704381D01*
X21796761Y78704381D02*
X21844380Y78609143D01*
X21844380Y78609143D02*
X21844380Y78466286D01*
X21844380Y78466286D02*
X21796761Y78371048D01*
X21796761Y78371048D02*
X21749142Y78323429D01*
X21844380Y77847238D02*
X21177714Y77847238D01*
X20844380Y77847238D02*
X20892000Y77894857D01*
X20892000Y77894857D02*
X20939619Y77847238D01*
X20939619Y77847238D02*
X20892000Y77799619D01*
X20892000Y77799619D02*
X20844380Y77847238D01*
X20844380Y77847238D02*
X20939619Y77847238D01*
X21177714Y77371048D02*
X21844380Y77371048D01*
X21272952Y77371048D02*
X21225333Y77323429D01*
X21225333Y77323429D02*
X21177714Y77228191D01*
X21177714Y77228191D02*
X21177714Y77085334D01*
X21177714Y77085334D02*
X21225333Y76990096D01*
X21225333Y76990096D02*
X21320571Y76942477D01*
X21320571Y76942477D02*
X21844380Y76942477D01*
X21844380Y76323429D02*
X21796761Y76418667D01*
X21796761Y76418667D02*
X21749142Y76466286D01*
X21749142Y76466286D02*
X21653904Y76513905D01*
X21653904Y76513905D02*
X21368190Y76513905D01*
X21368190Y76513905D02*
X21272952Y76466286D01*
X21272952Y76466286D02*
X21225333Y76418667D01*
X21225333Y76418667D02*
X21177714Y76323429D01*
X21177714Y76323429D02*
X21177714Y76180572D01*
X21177714Y76180572D02*
X21225333Y76085334D01*
X21225333Y76085334D02*
X21272952Y76037715D01*
X21272952Y76037715D02*
X21368190Y75990096D01*
X21368190Y75990096D02*
X21653904Y75990096D01*
X21653904Y75990096D02*
X21749142Y76037715D01*
X21749142Y76037715D02*
X21796761Y76085334D01*
X21796761Y76085334D02*
X21844380Y76180572D01*
X21844380Y76180572D02*
X21844380Y76323429D01*
X21177714Y75056762D02*
X21844380Y74818667D01*
X21844380Y74818667D02*
X21177714Y74580572D01*
X20939619Y74247238D02*
X20892000Y74199619D01*
X20892000Y74199619D02*
X20844380Y74104381D01*
X20844380Y74104381D02*
X20844380Y73866286D01*
X20844380Y73866286D02*
X20892000Y73771048D01*
X20892000Y73771048D02*
X20939619Y73723429D01*
X20939619Y73723429D02*
X21034857Y73675810D01*
X21034857Y73675810D02*
X21130095Y73675810D01*
X21130095Y73675810D02*
X21272952Y73723429D01*
X21272952Y73723429D02*
X21844380Y74294857D01*
X21844380Y74294857D02*
X21844380Y73675810D01*
X21749142Y73247238D02*
X21796761Y73199619D01*
X21796761Y73199619D02*
X21844380Y73247238D01*
X21844380Y73247238D02*
X21796761Y73294857D01*
X21796761Y73294857D02*
X21749142Y73247238D01*
X21749142Y73247238D02*
X21844380Y73247238D01*
X20844380Y72580572D02*
X20844380Y72485334D01*
X20844380Y72485334D02*
X20892000Y72390096D01*
X20892000Y72390096D02*
X20939619Y72342477D01*
X20939619Y72342477D02*
X21034857Y72294858D01*
X21034857Y72294858D02*
X21225333Y72247239D01*
X21225333Y72247239D02*
X21463428Y72247239D01*
X21463428Y72247239D02*
X21653904Y72294858D01*
X21653904Y72294858D02*
X21749142Y72342477D01*
X21749142Y72342477D02*
X21796761Y72390096D01*
X21796761Y72390096D02*
X21844380Y72485334D01*
X21844380Y72485334D02*
X21844380Y72580572D01*
X21844380Y72580572D02*
X21796761Y72675810D01*
X21796761Y72675810D02*
X21749142Y72723429D01*
X21749142Y72723429D02*
X21653904Y72771048D01*
X21653904Y72771048D02*
X21463428Y72818667D01*
X21463428Y72818667D02*
X21225333Y72818667D01*
X21225333Y72818667D02*
X21034857Y72771048D01*
X21034857Y72771048D02*
X20939619Y72723429D01*
X20939619Y72723429D02*
X20892000Y72675810D01*
X20892000Y72675810D02*
X20844380Y72580572D01*
D10*
X29506404Y78294108D02*
X29506404Y77798870D01*
X29506404Y77798870D02*
X29811166Y78065536D01*
X29811166Y78065536D02*
X29811166Y77951251D01*
X29811166Y77951251D02*
X29849261Y77875060D01*
X29849261Y77875060D02*
X29887357Y77836965D01*
X29887357Y77836965D02*
X29963547Y77798870D01*
X29963547Y77798870D02*
X30154023Y77798870D01*
X30154023Y77798870D02*
X30230214Y77836965D01*
X30230214Y77836965D02*
X30268309Y77875060D01*
X30268309Y77875060D02*
X30306404Y77951251D01*
X30306404Y77951251D02*
X30306404Y78179822D01*
X30306404Y78179822D02*
X30268309Y78256013D01*
X30268309Y78256013D02*
X30230214Y78294108D01*
X30230214Y77456012D02*
X30268309Y77417917D01*
X30268309Y77417917D02*
X30306404Y77456012D01*
X30306404Y77456012D02*
X30268309Y77494108D01*
X30268309Y77494108D02*
X30230214Y77456012D01*
X30230214Y77456012D02*
X30306404Y77456012D01*
X29506404Y77151251D02*
X29506404Y76656013D01*
X29506404Y76656013D02*
X29811166Y76922679D01*
X29811166Y76922679D02*
X29811166Y76808394D01*
X29811166Y76808394D02*
X29849261Y76732203D01*
X29849261Y76732203D02*
X29887357Y76694108D01*
X29887357Y76694108D02*
X29963547Y76656013D01*
X29963547Y76656013D02*
X30154023Y76656013D01*
X30154023Y76656013D02*
X30230214Y76694108D01*
X30230214Y76694108D02*
X30268309Y76732203D01*
X30268309Y76732203D02*
X30306404Y76808394D01*
X30306404Y76808394D02*
X30306404Y77036965D01*
X30306404Y77036965D02*
X30268309Y77113156D01*
X30268309Y77113156D02*
X30230214Y77151251D01*
X29773071Y76389346D02*
X30306404Y76198870D01*
X30306404Y76198870D02*
X29773071Y76008393D01*
D12*
X24057380Y91300001D02*
X23057380Y91300001D01*
X24057380Y90871430D02*
X23533571Y90871430D01*
X23533571Y90871430D02*
X23438333Y90919049D01*
X23438333Y90919049D02*
X23390714Y91014287D01*
X23390714Y91014287D02*
X23390714Y91157144D01*
X23390714Y91157144D02*
X23438333Y91252382D01*
X23438333Y91252382D02*
X23485952Y91300001D01*
X23390714Y90538096D02*
X23390714Y90157144D01*
X23057380Y90395239D02*
X23914523Y90395239D01*
X23914523Y90395239D02*
X24009761Y90347620D01*
X24009761Y90347620D02*
X24057380Y90252382D01*
X24057380Y90252382D02*
X24057380Y90157144D01*
X23390714Y89966667D02*
X23390714Y89585715D01*
X23057380Y89823810D02*
X23914523Y89823810D01*
X23914523Y89823810D02*
X24009761Y89776191D01*
X24009761Y89776191D02*
X24057380Y89680953D01*
X24057380Y89680953D02*
X24057380Y89585715D01*
X23390714Y89252381D02*
X24390714Y89252381D01*
X23438333Y89252381D02*
X23390714Y89157143D01*
X23390714Y89157143D02*
X23390714Y88966667D01*
X23390714Y88966667D02*
X23438333Y88871429D01*
X23438333Y88871429D02*
X23485952Y88823810D01*
X23485952Y88823810D02*
X23581190Y88776191D01*
X23581190Y88776191D02*
X23866904Y88776191D01*
X23866904Y88776191D02*
X23962142Y88823810D01*
X23962142Y88823810D02*
X24009761Y88871429D01*
X24009761Y88871429D02*
X24057380Y88966667D01*
X24057380Y88966667D02*
X24057380Y89157143D01*
X24057380Y89157143D02*
X24009761Y89252381D01*
X24009761Y88395238D02*
X24057380Y88300000D01*
X24057380Y88300000D02*
X24057380Y88109524D01*
X24057380Y88109524D02*
X24009761Y88014286D01*
X24009761Y88014286D02*
X23914523Y87966667D01*
X23914523Y87966667D02*
X23866904Y87966667D01*
X23866904Y87966667D02*
X23771666Y88014286D01*
X23771666Y88014286D02*
X23724047Y88109524D01*
X23724047Y88109524D02*
X23724047Y88252381D01*
X23724047Y88252381D02*
X23676428Y88347619D01*
X23676428Y88347619D02*
X23581190Y88395238D01*
X23581190Y88395238D02*
X23533571Y88395238D01*
X23533571Y88395238D02*
X23438333Y88347619D01*
X23438333Y88347619D02*
X23390714Y88252381D01*
X23390714Y88252381D02*
X23390714Y88109524D01*
X23390714Y88109524D02*
X23438333Y88014286D01*
X23962142Y87538095D02*
X24009761Y87490476D01*
X24009761Y87490476D02*
X24057380Y87538095D01*
X24057380Y87538095D02*
X24009761Y87585714D01*
X24009761Y87585714D02*
X23962142Y87538095D01*
X23962142Y87538095D02*
X24057380Y87538095D01*
X23438333Y87538095D02*
X23485952Y87490476D01*
X23485952Y87490476D02*
X23533571Y87538095D01*
X23533571Y87538095D02*
X23485952Y87585714D01*
X23485952Y87585714D02*
X23438333Y87538095D01*
X23438333Y87538095D02*
X23533571Y87538095D01*
X23009761Y86347620D02*
X24295476Y87204762D01*
X23009761Y85300001D02*
X24295476Y86157143D01*
X23390714Y84538096D02*
X24200238Y84538096D01*
X24200238Y84538096D02*
X24295476Y84585715D01*
X24295476Y84585715D02*
X24343095Y84633334D01*
X24343095Y84633334D02*
X24390714Y84728572D01*
X24390714Y84728572D02*
X24390714Y84871429D01*
X24390714Y84871429D02*
X24343095Y84966667D01*
X24009761Y84538096D02*
X24057380Y84633334D01*
X24057380Y84633334D02*
X24057380Y84823810D01*
X24057380Y84823810D02*
X24009761Y84919048D01*
X24009761Y84919048D02*
X23962142Y84966667D01*
X23962142Y84966667D02*
X23866904Y85014286D01*
X23866904Y85014286D02*
X23581190Y85014286D01*
X23581190Y85014286D02*
X23485952Y84966667D01*
X23485952Y84966667D02*
X23438333Y84919048D01*
X23438333Y84919048D02*
X23390714Y84823810D01*
X23390714Y84823810D02*
X23390714Y84633334D01*
X23390714Y84633334D02*
X23438333Y84538096D01*
X24057380Y84061905D02*
X23390714Y84061905D01*
X23057380Y84061905D02*
X23105000Y84109524D01*
X23105000Y84109524D02*
X23152619Y84061905D01*
X23152619Y84061905D02*
X23105000Y84014286D01*
X23105000Y84014286D02*
X23057380Y84061905D01*
X23057380Y84061905D02*
X23152619Y84061905D01*
X23390714Y83728572D02*
X23390714Y83347620D01*
X23057380Y83585715D02*
X23914523Y83585715D01*
X23914523Y83585715D02*
X24009761Y83538096D01*
X24009761Y83538096D02*
X24057380Y83442858D01*
X24057380Y83442858D02*
X24057380Y83347620D01*
X24057380Y83014286D02*
X23057380Y83014286D01*
X24057380Y82585715D02*
X23533571Y82585715D01*
X23533571Y82585715D02*
X23438333Y82633334D01*
X23438333Y82633334D02*
X23390714Y82728572D01*
X23390714Y82728572D02*
X23390714Y82871429D01*
X23390714Y82871429D02*
X23438333Y82966667D01*
X23438333Y82966667D02*
X23485952Y83014286D01*
X23390714Y81680953D02*
X24057380Y81680953D01*
X23390714Y82109524D02*
X23914523Y82109524D01*
X23914523Y82109524D02*
X24009761Y82061905D01*
X24009761Y82061905D02*
X24057380Y81966667D01*
X24057380Y81966667D02*
X24057380Y81823810D01*
X24057380Y81823810D02*
X24009761Y81728572D01*
X24009761Y81728572D02*
X23962142Y81680953D01*
X24057380Y81204762D02*
X23057380Y81204762D01*
X23438333Y81204762D02*
X23390714Y81109524D01*
X23390714Y81109524D02*
X23390714Y80919048D01*
X23390714Y80919048D02*
X23438333Y80823810D01*
X23438333Y80823810D02*
X23485952Y80776191D01*
X23485952Y80776191D02*
X23581190Y80728572D01*
X23581190Y80728572D02*
X23866904Y80728572D01*
X23866904Y80728572D02*
X23962142Y80776191D01*
X23962142Y80776191D02*
X24009761Y80823810D01*
X24009761Y80823810D02*
X24057380Y80919048D01*
X24057380Y80919048D02*
X24057380Y81109524D01*
X24057380Y81109524D02*
X24009761Y81204762D01*
X23962142Y80300000D02*
X24009761Y80252381D01*
X24009761Y80252381D02*
X24057380Y80300000D01*
X24057380Y80300000D02*
X24009761Y80347619D01*
X24009761Y80347619D02*
X23962142Y80300000D01*
X23962142Y80300000D02*
X24057380Y80300000D01*
X24009761Y79395239D02*
X24057380Y79490477D01*
X24057380Y79490477D02*
X24057380Y79680953D01*
X24057380Y79680953D02*
X24009761Y79776191D01*
X24009761Y79776191D02*
X23962142Y79823810D01*
X23962142Y79823810D02*
X23866904Y79871429D01*
X23866904Y79871429D02*
X23581190Y79871429D01*
X23581190Y79871429D02*
X23485952Y79823810D01*
X23485952Y79823810D02*
X23438333Y79776191D01*
X23438333Y79776191D02*
X23390714Y79680953D01*
X23390714Y79680953D02*
X23390714Y79490477D01*
X23390714Y79490477D02*
X23438333Y79395239D01*
X24057380Y78823810D02*
X24009761Y78919048D01*
X24009761Y78919048D02*
X23962142Y78966667D01*
X23962142Y78966667D02*
X23866904Y79014286D01*
X23866904Y79014286D02*
X23581190Y79014286D01*
X23581190Y79014286D02*
X23485952Y78966667D01*
X23485952Y78966667D02*
X23438333Y78919048D01*
X23438333Y78919048D02*
X23390714Y78823810D01*
X23390714Y78823810D02*
X23390714Y78680953D01*
X23390714Y78680953D02*
X23438333Y78585715D01*
X23438333Y78585715D02*
X23485952Y78538096D01*
X23485952Y78538096D02*
X23581190Y78490477D01*
X23581190Y78490477D02*
X23866904Y78490477D01*
X23866904Y78490477D02*
X23962142Y78538096D01*
X23962142Y78538096D02*
X24009761Y78585715D01*
X24009761Y78585715D02*
X24057380Y78680953D01*
X24057380Y78680953D02*
X24057380Y78823810D01*
X24057380Y78061905D02*
X23390714Y78061905D01*
X23485952Y78061905D02*
X23438333Y78014286D01*
X23438333Y78014286D02*
X23390714Y77919048D01*
X23390714Y77919048D02*
X23390714Y77776191D01*
X23390714Y77776191D02*
X23438333Y77680953D01*
X23438333Y77680953D02*
X23533571Y77633334D01*
X23533571Y77633334D02*
X24057380Y77633334D01*
X23533571Y77633334D02*
X23438333Y77585715D01*
X23438333Y77585715D02*
X23390714Y77490477D01*
X23390714Y77490477D02*
X23390714Y77347620D01*
X23390714Y77347620D02*
X23438333Y77252381D01*
X23438333Y77252381D02*
X23533571Y77204762D01*
X23533571Y77204762D02*
X24057380Y77204762D01*
X23009761Y76014287D02*
X24295476Y76871429D01*
X24057380Y75252382D02*
X23533571Y75252382D01*
X23533571Y75252382D02*
X23438333Y75300001D01*
X23438333Y75300001D02*
X23390714Y75395239D01*
X23390714Y75395239D02*
X23390714Y75585715D01*
X23390714Y75585715D02*
X23438333Y75680953D01*
X24009761Y75252382D02*
X24057380Y75347620D01*
X24057380Y75347620D02*
X24057380Y75585715D01*
X24057380Y75585715D02*
X24009761Y75680953D01*
X24009761Y75680953D02*
X23914523Y75728572D01*
X23914523Y75728572D02*
X23819285Y75728572D01*
X23819285Y75728572D02*
X23724047Y75680953D01*
X23724047Y75680953D02*
X23676428Y75585715D01*
X23676428Y75585715D02*
X23676428Y75347620D01*
X23676428Y75347620D02*
X23628809Y75252382D01*
X24057380Y74776191D02*
X23057380Y74776191D01*
X23676428Y74680953D02*
X24057380Y74395239D01*
X23390714Y74395239D02*
X23771666Y74776191D01*
X23390714Y73538096D02*
X24057380Y73538096D01*
X23390714Y73966667D02*
X23914523Y73966667D01*
X23914523Y73966667D02*
X24009761Y73919048D01*
X24009761Y73919048D02*
X24057380Y73823810D01*
X24057380Y73823810D02*
X24057380Y73680953D01*
X24057380Y73680953D02*
X24009761Y73585715D01*
X24009761Y73585715D02*
X23962142Y73538096D01*
X24057380Y73061905D02*
X23057380Y73061905D01*
X23676428Y72966667D02*
X24057380Y72680953D01*
X23390714Y72680953D02*
X23771666Y73061905D01*
X24009761Y71871429D02*
X24057380Y71966667D01*
X24057380Y71966667D02*
X24057380Y72157143D01*
X24057380Y72157143D02*
X24009761Y72252381D01*
X24009761Y72252381D02*
X23914523Y72300000D01*
X23914523Y72300000D02*
X23533571Y72300000D01*
X23533571Y72300000D02*
X23438333Y72252381D01*
X23438333Y72252381D02*
X23390714Y72157143D01*
X23390714Y72157143D02*
X23390714Y71966667D01*
X23390714Y71966667D02*
X23438333Y71871429D01*
X23438333Y71871429D02*
X23533571Y71823810D01*
X23533571Y71823810D02*
X23628809Y71823810D01*
X23628809Y71823810D02*
X23724047Y72300000D01*
X24057380Y71395238D02*
X23390714Y71395238D01*
X23581190Y71395238D02*
X23485952Y71347619D01*
X23485952Y71347619D02*
X23438333Y71300000D01*
X23438333Y71300000D02*
X23390714Y71204762D01*
X23390714Y71204762D02*
X23390714Y71109524D01*
X23009761Y70061905D02*
X24295476Y70919047D01*
X24057380Y69300000D02*
X23533571Y69300000D01*
X23533571Y69300000D02*
X23438333Y69347619D01*
X23438333Y69347619D02*
X23390714Y69442857D01*
X23390714Y69442857D02*
X23390714Y69633333D01*
X23390714Y69633333D02*
X23438333Y69728571D01*
X24009761Y69300000D02*
X24057380Y69395238D01*
X24057380Y69395238D02*
X24057380Y69633333D01*
X24057380Y69633333D02*
X24009761Y69728571D01*
X24009761Y69728571D02*
X23914523Y69776190D01*
X23914523Y69776190D02*
X23819285Y69776190D01*
X23819285Y69776190D02*
X23724047Y69728571D01*
X23724047Y69728571D02*
X23676428Y69633333D01*
X23676428Y69633333D02*
X23676428Y69395238D01*
X23676428Y69395238D02*
X23628809Y69300000D01*
X24057380Y68395238D02*
X23057380Y68395238D01*
X24009761Y68395238D02*
X24057380Y68490476D01*
X24057380Y68490476D02*
X24057380Y68680952D01*
X24057380Y68680952D02*
X24009761Y68776190D01*
X24009761Y68776190D02*
X23962142Y68823809D01*
X23962142Y68823809D02*
X23866904Y68871428D01*
X23866904Y68871428D02*
X23581190Y68871428D01*
X23581190Y68871428D02*
X23485952Y68823809D01*
X23485952Y68823809D02*
X23438333Y68776190D01*
X23438333Y68776190D02*
X23390714Y68680952D01*
X23390714Y68680952D02*
X23390714Y68490476D01*
X23390714Y68490476D02*
X23438333Y68395238D01*
X24057380Y67919047D02*
X23057380Y67919047D01*
X23438333Y67919047D02*
X23390714Y67823809D01*
X23390714Y67823809D02*
X23390714Y67633333D01*
X23390714Y67633333D02*
X23438333Y67538095D01*
X23438333Y67538095D02*
X23485952Y67490476D01*
X23485952Y67490476D02*
X23581190Y67442857D01*
X23581190Y67442857D02*
X23866904Y67442857D01*
X23866904Y67442857D02*
X23962142Y67490476D01*
X23962142Y67490476D02*
X24009761Y67538095D01*
X24009761Y67538095D02*
X24057380Y67633333D01*
X24057380Y67633333D02*
X24057380Y67823809D01*
X24057380Y67823809D02*
X24009761Y67919047D01*
X23390714Y66585714D02*
X24057380Y66585714D01*
X23390714Y67014285D02*
X23914523Y67014285D01*
X23914523Y67014285D02*
X24009761Y66966666D01*
X24009761Y66966666D02*
X24057380Y66871428D01*
X24057380Y66871428D02*
X24057380Y66728571D01*
X24057380Y66728571D02*
X24009761Y66633333D01*
X24009761Y66633333D02*
X23962142Y66585714D01*
X24057380Y66109523D02*
X23390714Y66109523D01*
X23057380Y66109523D02*
X23105000Y66157142D01*
X23105000Y66157142D02*
X23152619Y66109523D01*
X23152619Y66109523D02*
X23105000Y66061904D01*
X23105000Y66061904D02*
X23057380Y66109523D01*
X23057380Y66109523D02*
X23152619Y66109523D01*
X23390714Y65633333D02*
X24057380Y65633333D01*
X23485952Y65633333D02*
X23438333Y65585714D01*
X23438333Y65585714D02*
X23390714Y65490476D01*
X23390714Y65490476D02*
X23390714Y65347619D01*
X23390714Y65347619D02*
X23438333Y65252381D01*
X23438333Y65252381D02*
X23533571Y65204762D01*
X23533571Y65204762D02*
X24057380Y65204762D01*
X24057380Y64585714D02*
X24009761Y64680952D01*
X24009761Y64680952D02*
X23962142Y64728571D01*
X23962142Y64728571D02*
X23866904Y64776190D01*
X23866904Y64776190D02*
X23581190Y64776190D01*
X23581190Y64776190D02*
X23485952Y64728571D01*
X23485952Y64728571D02*
X23438333Y64680952D01*
X23438333Y64680952D02*
X23390714Y64585714D01*
X23390714Y64585714D02*
X23390714Y64442857D01*
X23390714Y64442857D02*
X23438333Y64347619D01*
X23438333Y64347619D02*
X23485952Y64300000D01*
X23485952Y64300000D02*
X23581190Y64252381D01*
X23581190Y64252381D02*
X23866904Y64252381D01*
X23866904Y64252381D02*
X23962142Y64300000D01*
X23962142Y64300000D02*
X24009761Y64347619D01*
X24009761Y64347619D02*
X24057380Y64442857D01*
X24057380Y64442857D02*
X24057380Y64585714D01*
X25582142Y86938097D02*
X25629761Y86985716D01*
X25629761Y86985716D02*
X25677380Y87128573D01*
X25677380Y87128573D02*
X25677380Y87223811D01*
X25677380Y87223811D02*
X25629761Y87366668D01*
X25629761Y87366668D02*
X25534523Y87461906D01*
X25534523Y87461906D02*
X25439285Y87509525D01*
X25439285Y87509525D02*
X25248809Y87557144D01*
X25248809Y87557144D02*
X25105952Y87557144D01*
X25105952Y87557144D02*
X24915476Y87509525D01*
X24915476Y87509525D02*
X24820238Y87461906D01*
X24820238Y87461906D02*
X24725000Y87366668D01*
X24725000Y87366668D02*
X24677380Y87223811D01*
X24677380Y87223811D02*
X24677380Y87128573D01*
X24677380Y87128573D02*
X24725000Y86985716D01*
X24725000Y86985716D02*
X24772619Y86938097D01*
X25677380Y86366668D02*
X25629761Y86461906D01*
X25629761Y86461906D02*
X25582142Y86509525D01*
X25582142Y86509525D02*
X25486904Y86557144D01*
X25486904Y86557144D02*
X25201190Y86557144D01*
X25201190Y86557144D02*
X25105952Y86509525D01*
X25105952Y86509525D02*
X25058333Y86461906D01*
X25058333Y86461906D02*
X25010714Y86366668D01*
X25010714Y86366668D02*
X25010714Y86223811D01*
X25010714Y86223811D02*
X25058333Y86128573D01*
X25058333Y86128573D02*
X25105952Y86080954D01*
X25105952Y86080954D02*
X25201190Y86033335D01*
X25201190Y86033335D02*
X25486904Y86033335D01*
X25486904Y86033335D02*
X25582142Y86080954D01*
X25582142Y86080954D02*
X25629761Y86128573D01*
X25629761Y86128573D02*
X25677380Y86223811D01*
X25677380Y86223811D02*
X25677380Y86366668D01*
X25010714Y85604763D02*
X26010714Y85604763D01*
X25058333Y85604763D02*
X25010714Y85509525D01*
X25010714Y85509525D02*
X25010714Y85319049D01*
X25010714Y85319049D02*
X25058333Y85223811D01*
X25058333Y85223811D02*
X25105952Y85176192D01*
X25105952Y85176192D02*
X25201190Y85128573D01*
X25201190Y85128573D02*
X25486904Y85128573D01*
X25486904Y85128573D02*
X25582142Y85176192D01*
X25582142Y85176192D02*
X25629761Y85223811D01*
X25629761Y85223811D02*
X25677380Y85319049D01*
X25677380Y85319049D02*
X25677380Y85509525D01*
X25677380Y85509525D02*
X25629761Y85604763D01*
X25010714Y84795239D02*
X25677380Y84557144D01*
X25010714Y84319049D02*
X25677380Y84557144D01*
X25677380Y84557144D02*
X25915476Y84652382D01*
X25915476Y84652382D02*
X25963095Y84700001D01*
X25963095Y84700001D02*
X26010714Y84795239D01*
X25677380Y83938096D02*
X25010714Y83938096D01*
X25201190Y83938096D02*
X25105952Y83890477D01*
X25105952Y83890477D02*
X25058333Y83842858D01*
X25058333Y83842858D02*
X25010714Y83747620D01*
X25010714Y83747620D02*
X25010714Y83652382D01*
X25677380Y83319048D02*
X25010714Y83319048D01*
X24677380Y83319048D02*
X24725000Y83366667D01*
X24725000Y83366667D02*
X24772619Y83319048D01*
X24772619Y83319048D02*
X24725000Y83271429D01*
X24725000Y83271429D02*
X24677380Y83319048D01*
X24677380Y83319048D02*
X24772619Y83319048D01*
X25010714Y82414287D02*
X25820238Y82414287D01*
X25820238Y82414287D02*
X25915476Y82461906D01*
X25915476Y82461906D02*
X25963095Y82509525D01*
X25963095Y82509525D02*
X26010714Y82604763D01*
X26010714Y82604763D02*
X26010714Y82747620D01*
X26010714Y82747620D02*
X25963095Y82842858D01*
X25629761Y82414287D02*
X25677380Y82509525D01*
X25677380Y82509525D02*
X25677380Y82700001D01*
X25677380Y82700001D02*
X25629761Y82795239D01*
X25629761Y82795239D02*
X25582142Y82842858D01*
X25582142Y82842858D02*
X25486904Y82890477D01*
X25486904Y82890477D02*
X25201190Y82890477D01*
X25201190Y82890477D02*
X25105952Y82842858D01*
X25105952Y82842858D02*
X25058333Y82795239D01*
X25058333Y82795239D02*
X25010714Y82700001D01*
X25010714Y82700001D02*
X25010714Y82509525D01*
X25010714Y82509525D02*
X25058333Y82414287D01*
X25677380Y81938096D02*
X24677380Y81938096D01*
X25677380Y81509525D02*
X25153571Y81509525D01*
X25153571Y81509525D02*
X25058333Y81557144D01*
X25058333Y81557144D02*
X25010714Y81652382D01*
X25010714Y81652382D02*
X25010714Y81795239D01*
X25010714Y81795239D02*
X25058333Y81890477D01*
X25058333Y81890477D02*
X25105952Y81938096D01*
X25010714Y81176191D02*
X25010714Y80795239D01*
X24677380Y81033334D02*
X25534523Y81033334D01*
X25534523Y81033334D02*
X25629761Y80985715D01*
X25629761Y80985715D02*
X25677380Y80890477D01*
X25677380Y80890477D02*
X25677380Y80795239D01*
X26058333Y79576191D02*
X26010714Y79623810D01*
X26010714Y79623810D02*
X25867857Y79719048D01*
X25867857Y79719048D02*
X25772619Y79766667D01*
X25772619Y79766667D02*
X25629761Y79814286D01*
X25629761Y79814286D02*
X25391666Y79861905D01*
X25391666Y79861905D02*
X25201190Y79861905D01*
X25201190Y79861905D02*
X24963095Y79814286D01*
X24963095Y79814286D02*
X24820238Y79766667D01*
X24820238Y79766667D02*
X24725000Y79719048D01*
X24725000Y79719048D02*
X24582142Y79623810D01*
X24582142Y79623810D02*
X24534523Y79576191D01*
X25582142Y78623810D02*
X25629761Y78671429D01*
X25629761Y78671429D02*
X25677380Y78814286D01*
X25677380Y78814286D02*
X25677380Y78909524D01*
X25677380Y78909524D02*
X25629761Y79052381D01*
X25629761Y79052381D02*
X25534523Y79147619D01*
X25534523Y79147619D02*
X25439285Y79195238D01*
X25439285Y79195238D02*
X25248809Y79242857D01*
X25248809Y79242857D02*
X25105952Y79242857D01*
X25105952Y79242857D02*
X24915476Y79195238D01*
X24915476Y79195238D02*
X24820238Y79147619D01*
X24820238Y79147619D02*
X24725000Y79052381D01*
X24725000Y79052381D02*
X24677380Y78909524D01*
X24677380Y78909524D02*
X24677380Y78814286D01*
X24677380Y78814286D02*
X24725000Y78671429D01*
X24725000Y78671429D02*
X24772619Y78623810D01*
X26058333Y78290476D02*
X26010714Y78242857D01*
X26010714Y78242857D02*
X25867857Y78147619D01*
X25867857Y78147619D02*
X25772619Y78100000D01*
X25772619Y78100000D02*
X25629761Y78052381D01*
X25629761Y78052381D02*
X25391666Y78004762D01*
X25391666Y78004762D02*
X25201190Y78004762D01*
X25201190Y78004762D02*
X24963095Y78052381D01*
X24963095Y78052381D02*
X24820238Y78100000D01*
X24820238Y78100000D02*
X24725000Y78147619D01*
X24725000Y78147619D02*
X24582142Y78242857D01*
X24582142Y78242857D02*
X24534523Y78290476D01*
X24772619Y76976190D02*
X24725000Y76928571D01*
X24725000Y76928571D02*
X24677380Y76833333D01*
X24677380Y76833333D02*
X24677380Y76595238D01*
X24677380Y76595238D02*
X24725000Y76500000D01*
X24725000Y76500000D02*
X24772619Y76452381D01*
X24772619Y76452381D02*
X24867857Y76404762D01*
X24867857Y76404762D02*
X24963095Y76404762D01*
X24963095Y76404762D02*
X25105952Y76452381D01*
X25105952Y76452381D02*
X25677380Y77023809D01*
X25677380Y77023809D02*
X25677380Y76404762D01*
X24677380Y75785714D02*
X24677380Y75690476D01*
X24677380Y75690476D02*
X24725000Y75595238D01*
X24725000Y75595238D02*
X24772619Y75547619D01*
X24772619Y75547619D02*
X24867857Y75500000D01*
X24867857Y75500000D02*
X25058333Y75452381D01*
X25058333Y75452381D02*
X25296428Y75452381D01*
X25296428Y75452381D02*
X25486904Y75500000D01*
X25486904Y75500000D02*
X25582142Y75547619D01*
X25582142Y75547619D02*
X25629761Y75595238D01*
X25629761Y75595238D02*
X25677380Y75690476D01*
X25677380Y75690476D02*
X25677380Y75785714D01*
X25677380Y75785714D02*
X25629761Y75880952D01*
X25629761Y75880952D02*
X25582142Y75928571D01*
X25582142Y75928571D02*
X25486904Y75976190D01*
X25486904Y75976190D02*
X25296428Y76023809D01*
X25296428Y76023809D02*
X25058333Y76023809D01*
X25058333Y76023809D02*
X24867857Y75976190D01*
X24867857Y75976190D02*
X24772619Y75928571D01*
X24772619Y75928571D02*
X24725000Y75880952D01*
X24725000Y75880952D02*
X24677380Y75785714D01*
X24772619Y75071428D02*
X24725000Y75023809D01*
X24725000Y75023809D02*
X24677380Y74928571D01*
X24677380Y74928571D02*
X24677380Y74690476D01*
X24677380Y74690476D02*
X24725000Y74595238D01*
X24725000Y74595238D02*
X24772619Y74547619D01*
X24772619Y74547619D02*
X24867857Y74500000D01*
X24867857Y74500000D02*
X24963095Y74500000D01*
X24963095Y74500000D02*
X25105952Y74547619D01*
X25105952Y74547619D02*
X25677380Y75119047D01*
X25677380Y75119047D02*
X25677380Y74500000D01*
X24677380Y74166666D02*
X24677380Y73547619D01*
X24677380Y73547619D02*
X25058333Y73880952D01*
X25058333Y73880952D02*
X25058333Y73738095D01*
X25058333Y73738095D02*
X25105952Y73642857D01*
X25105952Y73642857D02*
X25153571Y73595238D01*
X25153571Y73595238D02*
X25248809Y73547619D01*
X25248809Y73547619D02*
X25486904Y73547619D01*
X25486904Y73547619D02*
X25582142Y73595238D01*
X25582142Y73595238D02*
X25629761Y73642857D01*
X25629761Y73642857D02*
X25677380Y73738095D01*
X25677380Y73738095D02*
X25677380Y74023809D01*
X25677380Y74023809D02*
X25629761Y74119047D01*
X25629761Y74119047D02*
X25582142Y74166666D01*
X25677380Y72090476D02*
X25153571Y72090476D01*
X25153571Y72090476D02*
X25058333Y72138095D01*
X25058333Y72138095D02*
X25010714Y72233333D01*
X25010714Y72233333D02*
X25010714Y72423809D01*
X25010714Y72423809D02*
X25058333Y72519047D01*
X25629761Y72090476D02*
X25677380Y72185714D01*
X25677380Y72185714D02*
X25677380Y72423809D01*
X25677380Y72423809D02*
X25629761Y72519047D01*
X25629761Y72519047D02*
X25534523Y72566666D01*
X25534523Y72566666D02*
X25439285Y72566666D01*
X25439285Y72566666D02*
X25344047Y72519047D01*
X25344047Y72519047D02*
X25296428Y72423809D01*
X25296428Y72423809D02*
X25296428Y72185714D01*
X25296428Y72185714D02*
X25248809Y72090476D01*
X25677380Y71614285D02*
X24677380Y71614285D01*
X25296428Y71519047D02*
X25677380Y71233333D01*
X25010714Y71233333D02*
X25391666Y71614285D01*
X25010714Y70376190D02*
X25677380Y70376190D01*
X25010714Y70804761D02*
X25534523Y70804761D01*
X25534523Y70804761D02*
X25629761Y70757142D01*
X25629761Y70757142D02*
X25677380Y70661904D01*
X25677380Y70661904D02*
X25677380Y70519047D01*
X25677380Y70519047D02*
X25629761Y70423809D01*
X25629761Y70423809D02*
X25582142Y70376190D01*
X25677380Y69899999D02*
X24677380Y69899999D01*
X25296428Y69804761D02*
X25677380Y69519047D01*
X25010714Y69519047D02*
X25391666Y69899999D01*
X25629761Y68709523D02*
X25677380Y68804761D01*
X25677380Y68804761D02*
X25677380Y68995237D01*
X25677380Y68995237D02*
X25629761Y69090475D01*
X25629761Y69090475D02*
X25534523Y69138094D01*
X25534523Y69138094D02*
X25153571Y69138094D01*
X25153571Y69138094D02*
X25058333Y69090475D01*
X25058333Y69090475D02*
X25010714Y68995237D01*
X25010714Y68995237D02*
X25010714Y68804761D01*
X25010714Y68804761D02*
X25058333Y68709523D01*
X25058333Y68709523D02*
X25153571Y68661904D01*
X25153571Y68661904D02*
X25248809Y68661904D01*
X25248809Y68661904D02*
X25344047Y69138094D01*
X25677380Y68233332D02*
X25010714Y68233332D01*
X25201190Y68233332D02*
X25105952Y68185713D01*
X25105952Y68185713D02*
X25058333Y68138094D01*
X25058333Y68138094D02*
X25010714Y68042856D01*
X25010714Y68042856D02*
X25010714Y67947618D01*
D13*
%TO.C,J2*%
X15031573Y77323333D02*
X15938716Y77323333D01*
X15938716Y77323333D02*
X16120145Y77383810D01*
X16120145Y77383810D02*
X16241097Y77504762D01*
X16241097Y77504762D02*
X16301573Y77686191D01*
X16301573Y77686191D02*
X16301573Y77807143D01*
X15152526Y76779048D02*
X15092050Y76718572D01*
X15092050Y76718572D02*
X15031573Y76597619D01*
X15031573Y76597619D02*
X15031573Y76295238D01*
X15031573Y76295238D02*
X15092050Y76174286D01*
X15092050Y76174286D02*
X15152526Y76113810D01*
X15152526Y76113810D02*
X15273478Y76053333D01*
X15273478Y76053333D02*
X15394430Y76053333D01*
X15394430Y76053333D02*
X15575859Y76113810D01*
X15575859Y76113810D02*
X16301573Y76839524D01*
X16301573Y76839524D02*
X16301573Y76053333D01*
D12*
%TO.C,JP5*%
X19617380Y88233334D02*
X20331666Y88233334D01*
X20331666Y88233334D02*
X20474523Y88280953D01*
X20474523Y88280953D02*
X20569761Y88376191D01*
X20569761Y88376191D02*
X20617380Y88519048D01*
X20617380Y88519048D02*
X20617380Y88614286D01*
X20617380Y87757143D02*
X19617380Y87757143D01*
X19617380Y87757143D02*
X19617380Y87376191D01*
X19617380Y87376191D02*
X19665000Y87280953D01*
X19665000Y87280953D02*
X19712619Y87233334D01*
X19712619Y87233334D02*
X19807857Y87185715D01*
X19807857Y87185715D02*
X19950714Y87185715D01*
X19950714Y87185715D02*
X20045952Y87233334D01*
X20045952Y87233334D02*
X20093571Y87280953D01*
X20093571Y87280953D02*
X20141190Y87376191D01*
X20141190Y87376191D02*
X20141190Y87757143D01*
X19617380Y86280953D02*
X19617380Y86757143D01*
X19617380Y86757143D02*
X20093571Y86804762D01*
X20093571Y86804762D02*
X20045952Y86757143D01*
X20045952Y86757143D02*
X19998333Y86661905D01*
X19998333Y86661905D02*
X19998333Y86423810D01*
X19998333Y86423810D02*
X20045952Y86328572D01*
X20045952Y86328572D02*
X20093571Y86280953D01*
X20093571Y86280953D02*
X20188809Y86233334D01*
X20188809Y86233334D02*
X20426904Y86233334D01*
X20426904Y86233334D02*
X20522142Y86280953D01*
X20522142Y86280953D02*
X20569761Y86328572D01*
X20569761Y86328572D02*
X20617380Y86423810D01*
X20617380Y86423810D02*
X20617380Y86661905D01*
X20617380Y86661905D02*
X20569761Y86757143D01*
X20569761Y86757143D02*
X20522142Y86804762D01*
D10*
%TO.C,R4*%
X27906404Y77283333D02*
X27525452Y77550000D01*
X27906404Y77740476D02*
X27106404Y77740476D01*
X27106404Y77740476D02*
X27106404Y77435714D01*
X27106404Y77435714D02*
X27144500Y77359524D01*
X27144500Y77359524D02*
X27182595Y77321429D01*
X27182595Y77321429D02*
X27258785Y77283333D01*
X27258785Y77283333D02*
X27373071Y77283333D01*
X27373071Y77283333D02*
X27449261Y77321429D01*
X27449261Y77321429D02*
X27487357Y77359524D01*
X27487357Y77359524D02*
X27525452Y77435714D01*
X27525452Y77435714D02*
X27525452Y77740476D01*
X27373071Y76597619D02*
X27906404Y76597619D01*
X27068309Y76788095D02*
X27639738Y76978572D01*
X27639738Y76978572D02*
X27639738Y76483333D01*
%TO.C,R5*%
X27756404Y73988333D02*
X27375452Y74255000D01*
X27756404Y74445476D02*
X26956404Y74445476D01*
X26956404Y74445476D02*
X26956404Y74140714D01*
X26956404Y74140714D02*
X26994500Y74064524D01*
X26994500Y74064524D02*
X27032595Y74026429D01*
X27032595Y74026429D02*
X27108785Y73988333D01*
X27108785Y73988333D02*
X27223071Y73988333D01*
X27223071Y73988333D02*
X27299261Y74026429D01*
X27299261Y74026429D02*
X27337357Y74064524D01*
X27337357Y74064524D02*
X27375452Y74140714D01*
X27375452Y74140714D02*
X27375452Y74445476D01*
X26956404Y73264524D02*
X26956404Y73645476D01*
X26956404Y73645476D02*
X27337357Y73683572D01*
X27337357Y73683572D02*
X27299261Y73645476D01*
X27299261Y73645476D02*
X27261166Y73569286D01*
X27261166Y73569286D02*
X27261166Y73378810D01*
X27261166Y73378810D02*
X27299261Y73302619D01*
X27299261Y73302619D02*
X27337357Y73264524D01*
X27337357Y73264524D02*
X27413547Y73226429D01*
X27413547Y73226429D02*
X27604023Y73226429D01*
X27604023Y73226429D02*
X27680214Y73264524D01*
X27680214Y73264524D02*
X27718309Y73302619D01*
X27718309Y73302619D02*
X27756404Y73378810D01*
X27756404Y73378810D02*
X27756404Y73569286D01*
X27756404Y73569286D02*
X27718309Y73645476D01*
X27718309Y73645476D02*
X27680214Y73683572D01*
%TO.C,R12*%
X27856404Y81014286D02*
X27475452Y81280953D01*
X27856404Y81471429D02*
X27056404Y81471429D01*
X27056404Y81471429D02*
X27056404Y81166667D01*
X27056404Y81166667D02*
X27094500Y81090477D01*
X27094500Y81090477D02*
X27132595Y81052382D01*
X27132595Y81052382D02*
X27208785Y81014286D01*
X27208785Y81014286D02*
X27323071Y81014286D01*
X27323071Y81014286D02*
X27399261Y81052382D01*
X27399261Y81052382D02*
X27437357Y81090477D01*
X27437357Y81090477D02*
X27475452Y81166667D01*
X27475452Y81166667D02*
X27475452Y81471429D01*
X27856404Y80252382D02*
X27856404Y80709525D01*
X27856404Y80480953D02*
X27056404Y80480953D01*
X27056404Y80480953D02*
X27170690Y80557144D01*
X27170690Y80557144D02*
X27246880Y80633334D01*
X27246880Y80633334D02*
X27284976Y80709525D01*
X27132595Y79947620D02*
X27094500Y79909524D01*
X27094500Y79909524D02*
X27056404Y79833334D01*
X27056404Y79833334D02*
X27056404Y79642858D01*
X27056404Y79642858D02*
X27094500Y79566667D01*
X27094500Y79566667D02*
X27132595Y79528572D01*
X27132595Y79528572D02*
X27208785Y79490477D01*
X27208785Y79490477D02*
X27284976Y79490477D01*
X27284976Y79490477D02*
X27399261Y79528572D01*
X27399261Y79528572D02*
X27856404Y79985715D01*
X27856404Y79985715D02*
X27856404Y79490477D01*
D12*
%TO.C,J5*%
X30179092Y94003486D02*
X30893704Y94003486D01*
X30893704Y94003486D02*
X31036626Y94051126D01*
X31036626Y94051126D02*
X31131908Y94146408D01*
X31131908Y94146408D02*
X31179549Y94289330D01*
X31179549Y94289330D02*
X31179549Y94384612D01*
X30179092Y93050669D02*
X30179092Y93527077D01*
X30179092Y93527077D02*
X30655500Y93574718D01*
X30655500Y93574718D02*
X30607859Y93527077D01*
X30607859Y93527077D02*
X30560218Y93431796D01*
X30560218Y93431796D02*
X30560218Y93193592D01*
X30560218Y93193592D02*
X30607859Y93098310D01*
X30607859Y93098310D02*
X30655500Y93050669D01*
X30655500Y93050669D02*
X30750781Y93003029D01*
X30750781Y93003029D02*
X30988985Y93003029D01*
X30988985Y93003029D02*
X31084267Y93050669D01*
X31084267Y93050669D02*
X31131908Y93098310D01*
X31131908Y93098310D02*
X31179549Y93193592D01*
X31179549Y93193592D02*
X31179549Y93431796D01*
X31179549Y93431796D02*
X31131908Y93527077D01*
X31131908Y93527077D02*
X31084267Y93574718D01*
D10*
%TO.C,Q2*%
X28146190Y62105905D02*
X28222380Y62144000D01*
X28222380Y62144000D02*
X28298571Y62220191D01*
X28298571Y62220191D02*
X28412857Y62334477D01*
X28412857Y62334477D02*
X28489047Y62372572D01*
X28489047Y62372572D02*
X28565238Y62372572D01*
X28527142Y62182096D02*
X28603333Y62220191D01*
X28603333Y62220191D02*
X28679523Y62296381D01*
X28679523Y62296381D02*
X28717619Y62448762D01*
X28717619Y62448762D02*
X28717619Y62715429D01*
X28717619Y62715429D02*
X28679523Y62867810D01*
X28679523Y62867810D02*
X28603333Y62944000D01*
X28603333Y62944000D02*
X28527142Y62982096D01*
X28527142Y62982096D02*
X28374761Y62982096D01*
X28374761Y62982096D02*
X28298571Y62944000D01*
X28298571Y62944000D02*
X28222380Y62867810D01*
X28222380Y62867810D02*
X28184285Y62715429D01*
X28184285Y62715429D02*
X28184285Y62448762D01*
X28184285Y62448762D02*
X28222380Y62296381D01*
X28222380Y62296381D02*
X28298571Y62220191D01*
X28298571Y62220191D02*
X28374761Y62182096D01*
X28374761Y62182096D02*
X28527142Y62182096D01*
X27879524Y62905905D02*
X27841428Y62944000D01*
X27841428Y62944000D02*
X27765238Y62982096D01*
X27765238Y62982096D02*
X27574762Y62982096D01*
X27574762Y62982096D02*
X27498571Y62944000D01*
X27498571Y62944000D02*
X27460476Y62905905D01*
X27460476Y62905905D02*
X27422381Y62829715D01*
X27422381Y62829715D02*
X27422381Y62753524D01*
X27422381Y62753524D02*
X27460476Y62639239D01*
X27460476Y62639239D02*
X27917619Y62182096D01*
X27917619Y62182096D02*
X27422381Y62182096D01*
%TO.C,Q1*%
X22146190Y61851905D02*
X22222380Y61890000D01*
X22222380Y61890000D02*
X22298571Y61966191D01*
X22298571Y61966191D02*
X22412857Y62080477D01*
X22412857Y62080477D02*
X22489047Y62118572D01*
X22489047Y62118572D02*
X22565238Y62118572D01*
X22527142Y61928096D02*
X22603333Y61966191D01*
X22603333Y61966191D02*
X22679523Y62042381D01*
X22679523Y62042381D02*
X22717619Y62194762D01*
X22717619Y62194762D02*
X22717619Y62461429D01*
X22717619Y62461429D02*
X22679523Y62613810D01*
X22679523Y62613810D02*
X22603333Y62690000D01*
X22603333Y62690000D02*
X22527142Y62728096D01*
X22527142Y62728096D02*
X22374761Y62728096D01*
X22374761Y62728096D02*
X22298571Y62690000D01*
X22298571Y62690000D02*
X22222380Y62613810D01*
X22222380Y62613810D02*
X22184285Y62461429D01*
X22184285Y62461429D02*
X22184285Y62194762D01*
X22184285Y62194762D02*
X22222380Y62042381D01*
X22222380Y62042381D02*
X22298571Y61966191D01*
X22298571Y61966191D02*
X22374761Y61928096D01*
X22374761Y61928096D02*
X22527142Y61928096D01*
X21422381Y61928096D02*
X21879524Y61928096D01*
X21650952Y61928096D02*
X21650952Y62728096D01*
X21650952Y62728096D02*
X21727143Y62613810D01*
X21727143Y62613810D02*
X21803333Y62537620D01*
X21803333Y62537620D02*
X21879524Y62499524D01*
D12*
%TO.C,J4*%
X18749092Y55029486D02*
X19463704Y55029486D01*
X19463704Y55029486D02*
X19606626Y55077126D01*
X19606626Y55077126D02*
X19701908Y55172408D01*
X19701908Y55172408D02*
X19749549Y55315330D01*
X19749549Y55315330D02*
X19749549Y55410612D01*
X19082577Y54124310D02*
X19749549Y54124310D01*
X18701451Y54362514D02*
X19416063Y54600718D01*
X19416063Y54600718D02*
X19416063Y53981388D01*
%TO.C,F2*%
X17643571Y71883334D02*
X17643571Y72216667D01*
X18167380Y72216667D02*
X17167380Y72216667D01*
X17167380Y72216667D02*
X17167380Y71740477D01*
X17262619Y71407143D02*
X17215000Y71359524D01*
X17215000Y71359524D02*
X17167380Y71264286D01*
X17167380Y71264286D02*
X17167380Y71026191D01*
X17167380Y71026191D02*
X17215000Y70930953D01*
X17215000Y70930953D02*
X17262619Y70883334D01*
X17262619Y70883334D02*
X17357857Y70835715D01*
X17357857Y70835715D02*
X17453095Y70835715D01*
X17453095Y70835715D02*
X17595952Y70883334D01*
X17595952Y70883334D02*
X18167380Y71454762D01*
X18167380Y71454762D02*
X18167380Y70835715D01*
%TO.C,D4*%
X20438094Y91582620D02*
X20438094Y92582620D01*
X20438094Y92582620D02*
X20199999Y92582620D01*
X20199999Y92582620D02*
X20057142Y92535000D01*
X20057142Y92535000D02*
X19961904Y92439762D01*
X19961904Y92439762D02*
X19914285Y92344524D01*
X19914285Y92344524D02*
X19866666Y92154048D01*
X19866666Y92154048D02*
X19866666Y92011191D01*
X19866666Y92011191D02*
X19914285Y91820715D01*
X19914285Y91820715D02*
X19961904Y91725477D01*
X19961904Y91725477D02*
X20057142Y91630239D01*
X20057142Y91630239D02*
X20199999Y91582620D01*
X20199999Y91582620D02*
X20438094Y91582620D01*
X19009523Y92249286D02*
X19009523Y91582620D01*
X19247618Y92630239D02*
X19485713Y91915953D01*
X19485713Y91915953D02*
X18866666Y91915953D01*
%TO.C,F1*%
X27733333Y92006429D02*
X28066666Y92006429D01*
X28066666Y91482620D02*
X28066666Y92482620D01*
X28066666Y92482620D02*
X27590476Y92482620D01*
X26685714Y91482620D02*
X27257142Y91482620D01*
X26971428Y91482620D02*
X26971428Y92482620D01*
X26971428Y92482620D02*
X27066666Y92339762D01*
X27066666Y92339762D02*
X27161904Y92244524D01*
X27161904Y92244524D02*
X27257142Y92196905D01*
%TO.C,D5*%
X17717380Y61788095D02*
X16717380Y61788095D01*
X16717380Y61788095D02*
X16717380Y61550000D01*
X16717380Y61550000D02*
X16765000Y61407143D01*
X16765000Y61407143D02*
X16860238Y61311905D01*
X16860238Y61311905D02*
X16955476Y61264286D01*
X16955476Y61264286D02*
X17145952Y61216667D01*
X17145952Y61216667D02*
X17288809Y61216667D01*
X17288809Y61216667D02*
X17479285Y61264286D01*
X17479285Y61264286D02*
X17574523Y61311905D01*
X17574523Y61311905D02*
X17669761Y61407143D01*
X17669761Y61407143D02*
X17717380Y61550000D01*
X17717380Y61550000D02*
X17717380Y61788095D01*
X16717380Y60311905D02*
X16717380Y60788095D01*
X16717380Y60788095D02*
X17193571Y60835714D01*
X17193571Y60835714D02*
X17145952Y60788095D01*
X17145952Y60788095D02*
X17098333Y60692857D01*
X17098333Y60692857D02*
X17098333Y60454762D01*
X17098333Y60454762D02*
X17145952Y60359524D01*
X17145952Y60359524D02*
X17193571Y60311905D01*
X17193571Y60311905D02*
X17288809Y60264286D01*
X17288809Y60264286D02*
X17526904Y60264286D01*
X17526904Y60264286D02*
X17622142Y60311905D01*
X17622142Y60311905D02*
X17669761Y60359524D01*
X17669761Y60359524D02*
X17717380Y60454762D01*
X17717380Y60454762D02*
X17717380Y60692857D01*
X17717380Y60692857D02*
X17669761Y60788095D01*
X17669761Y60788095D02*
X17622142Y60835714D01*
D10*
%TO.C,J2*%
X12100000Y72976000D02*
X12100000Y80975000D01*
D14*
X19370000Y75601000D02*
X19370000Y75601000D01*
X19570000Y75601000D02*
X19570000Y75601000D01*
X19570000Y75601000D02*
G75*
G03*
X19370000Y75601000I-100000J0D01*
G01*
X19370000Y75601000D02*
G75*
G03*
X19570000Y75601000I100000J0D01*
G01*
D11*
%TO.C,JP5*%
X19450000Y86700000D02*
X19450000Y88100000D01*
X17450000Y88100000D02*
X17450000Y86700000D01*
X18750000Y88800000D02*
X18150000Y88800000D01*
X18150000Y86000000D02*
X18750000Y86000000D01*
X19450000Y88100000D02*
G75*
G03*
X18750000Y88800000I-700000J0D01*
G01*
X18750000Y86000000D02*
G75*
G03*
X19450000Y86700000I1J699999D01*
G01*
X17450000Y86700000D02*
G75*
G03*
X18150000Y86000000I699999J-1D01*
G01*
X18150000Y88800000D02*
G75*
G03*
X17450000Y88100000I0J-700000D01*
G01*
%TO.C,R6*%
X25470000Y67363641D02*
X25470000Y67056359D01*
X26230000Y67363641D02*
X26230000Y67056359D01*
%TO.C,R1*%
X21370000Y67363641D02*
X21370000Y67056359D01*
X22130000Y67363641D02*
X22130000Y67056359D01*
%TO.C,R2*%
X19470000Y67363641D02*
X19470000Y67056359D01*
X20230000Y67363641D02*
X20230000Y67056359D01*
%TO.C,D1*%
X33947500Y76191250D02*
X31262500Y76191250D01*
X33947500Y78111250D02*
X33947500Y76191250D01*
X31262500Y78111250D02*
X33947500Y78111250D01*
%TO.C,D3*%
X33947500Y79590000D02*
X31262500Y79590000D01*
X33947500Y81510000D02*
X33947500Y79590000D01*
X31262500Y81510000D02*
X33947500Y81510000D01*
%TO.C,R4*%
X28282500Y77304891D02*
X28282500Y76997609D01*
X29042500Y77304891D02*
X29042500Y76997609D01*
%TO.C,R5*%
X28282500Y73906141D02*
X28282500Y73598859D01*
X29042500Y73906141D02*
X29042500Y73598859D01*
%TO.C,R12*%
X28282500Y80703641D02*
X28282500Y80396359D01*
X29042500Y80703641D02*
X29042500Y80396359D01*
D15*
%TO.C,J5*%
X30250000Y94850000D02*
X28930000Y94850000D01*
X30250000Y94850000D02*
X30250000Y98280000D01*
X21810000Y94850000D02*
X25570000Y94850000D01*
X17150000Y94850000D02*
X18470000Y94850000D01*
X17150000Y94850000D02*
X17150000Y98190000D01*
X30250000Y102650000D02*
X30250000Y102410000D01*
X30250000Y102650000D02*
X17150000Y102650000D01*
X17150000Y102650000D02*
X17150000Y102410000D01*
D14*
X26340000Y91860000D02*
G75*
G03*
X26340000Y91860000I-100000J0D01*
G01*
D11*
%TO.C,Q2*%
X25240000Y64000000D02*
X25240000Y63350000D01*
X28360000Y64000000D02*
X28360000Y63350000D01*
X25240000Y64000000D02*
X25240000Y65675000D01*
X28360000Y64000000D02*
X28360000Y64650000D01*
%TO.C,D2*%
X33947500Y72792500D02*
X31262500Y72792500D01*
X33947500Y74712500D02*
X33947500Y72792500D01*
X31262500Y74712500D02*
X33947500Y74712500D01*
%TO.C,Q1*%
X19240000Y64000000D02*
X19240000Y63350000D01*
X22360000Y64000000D02*
X22360000Y63350000D01*
X19240000Y64000000D02*
X19240000Y65675000D01*
X22360000Y64000000D02*
X22360000Y64650000D01*
%TO.C,R3*%
X27370000Y67363641D02*
X27370000Y67056359D01*
X28130000Y67363641D02*
X28130000Y67056359D01*
D15*
%TO.C,J4*%
X17150000Y58850000D02*
X18470000Y58850000D01*
X17150000Y58850000D02*
X17150000Y55420000D01*
X25590000Y58850000D02*
X21830000Y58850000D01*
X30250000Y58850000D02*
X28930000Y58850000D01*
X30250000Y58850000D02*
X30250000Y55510000D01*
X17150000Y51050000D02*
X17150000Y51290000D01*
X17150000Y51050000D02*
X30250000Y51050000D01*
X30250000Y51050000D02*
X30250000Y51290000D01*
D14*
X21260000Y61840000D02*
G75*
G03*
X21260000Y61840000I-100000J0D01*
G01*
D11*
%TO.C,F2*%
X16990000Y69458578D02*
X16990000Y68941422D01*
X18410000Y69458578D02*
X18410000Y68941422D01*
%TO.C,D4*%
X17590000Y91350000D02*
X21600000Y91350000D01*
X17590000Y89350000D02*
X21600000Y89350000D01*
X17590000Y89350000D02*
X17590000Y91350000D01*
%TO.C,F1*%
X27608578Y91060000D02*
X27091422Y91060000D01*
X27608578Y89640000D02*
X27091422Y89640000D01*
%TO.C,D5*%
X16700000Y62140000D02*
X16700000Y66150000D01*
X18700000Y62140000D02*
X18700000Y66150000D01*
X18700000Y62140000D02*
X16700000Y62140000D01*
%TD*%
%LPC*%
D16*
%TO.C,J2*%
X17819999Y75599999D03*
X17819999Y76249999D03*
X17819999Y76899999D03*
X17819999Y77549999D03*
X17819999Y78199999D03*
D17*
X14870000Y73325000D03*
X14870000Y80475000D03*
X18320000Y80475000D03*
X18320000Y73325000D03*
D18*
X17000000Y74900000D03*
X17000000Y78900000D03*
%TD*%
D19*
%TO.C,JP5*%
X18450000Y86750000D03*
D20*
X18450000Y88050000D03*
%TD*%
D21*
%TO.C,U2*%
X20974999Y100999999D03*
D22*
X21274999Y97969999D03*
X26124999Y97969999D03*
D21*
X26424999Y100999999D03*
D23*
X14809999Y101129999D03*
X14809999Y98589999D03*
D24*
X14809999Y96049999D03*
D23*
X14809999Y93509999D03*
X14809999Y90969999D03*
X14809999Y88429999D03*
X14809999Y85889999D03*
D24*
X14809999Y83349999D03*
X14809999Y70649999D03*
D23*
X14809999Y68109999D03*
X14809999Y65569999D03*
X14809999Y63029999D03*
X14809999Y60489999D03*
D24*
X14809999Y57949999D03*
D23*
X14809999Y55409999D03*
X14809999Y52869999D03*
X32589999Y52869999D03*
X32589999Y55409999D03*
D24*
X32589999Y57949999D03*
D23*
X32589999Y60489999D03*
X32589999Y63029999D03*
X32589999Y65569999D03*
X32589999Y68109999D03*
D24*
X32589999Y70649999D03*
X32589999Y83349999D03*
D23*
X32589999Y85889999D03*
X32589999Y88429999D03*
X32589999Y90969999D03*
X32589999Y93509999D03*
D24*
X32589999Y96049999D03*
D23*
X32589999Y101129999D03*
%TD*%
D25*
%TO.C,R6*%
X25850000Y67720000D03*
X25850000Y66700000D03*
%TD*%
%TO.C,R1*%
X21750000Y67720000D03*
X21750000Y66700000D03*
%TD*%
%TO.C,R2*%
X19850000Y67720000D03*
X19850000Y66700000D03*
%TD*%
D26*
%TO.C,D1*%
X33200000Y77151250D03*
X31325000Y77151250D03*
%TD*%
%TO.C,D3*%
X33200000Y80550000D03*
X31325000Y80550000D03*
%TD*%
D25*
%TO.C,R4*%
X28662500Y77661250D03*
X28662500Y76641250D03*
%TD*%
%TO.C,R5*%
X28662500Y74262500D03*
X28662500Y73242500D03*
%TD*%
%TO.C,R12*%
X28662500Y81060000D03*
X28662500Y80040000D03*
%TD*%
D27*
%TO.C,J5*%
X26399999Y94549999D03*
X20999999Y94549999D03*
X28199999Y94549999D03*
X19199999Y94549999D03*
D28*
X23700000Y99650000D03*
D29*
X30099999Y100349999D03*
X17299999Y100349999D03*
%TD*%
D30*
%TO.C,Q2*%
X25850000Y64937500D03*
X27750000Y64937500D03*
X26800000Y63062500D03*
%TD*%
D26*
%TO.C,D2*%
X33200000Y73752500D03*
X31325000Y73752500D03*
%TD*%
D30*
%TO.C,Q1*%
X19850000Y64937500D03*
X21750000Y64937500D03*
X20800000Y63062500D03*
%TD*%
D25*
%TO.C,R3*%
X27750000Y67720000D03*
X27750000Y66700000D03*
%TD*%
D27*
%TO.C,J4*%
X20999999Y59149999D03*
X26399999Y59149999D03*
X19199999Y59149999D03*
X28199999Y59149999D03*
D28*
X23700000Y54050000D03*
D29*
X17299999Y53349999D03*
X30099999Y53349999D03*
%TD*%
D31*
%TO.C,F2*%
X17700000Y70137500D03*
X17700000Y68262500D03*
%TD*%
D32*
%TO.C,D4*%
X18300000Y90350000D03*
X21600000Y90350000D03*
%TD*%
D26*
%TO.C,F1*%
X28287500Y90350000D03*
X26412500Y90350000D03*
%TD*%
D33*
%TO.C,D5*%
X17700000Y62850000D03*
X17700000Y66150000D03*
%TD*%
M02*
