%TF.GenerationSoftware,KiCad,Pcbnew,(7.0.0)*%
%TF.CreationDate,2023-03-17T13:32:38-05:00*%
%TF.ProjectId,adbuino,61646275-696e-46f2-9e6b-696361645f70,rev?*%
%TF.SameCoordinates,Original*%
%TF.FileFunction,Legend,Top*%
%TF.FilePolarity,Positive*%
%FSLAX46Y46*%
G04 Gerber Fmt 4.6, Leading zero omitted, Abs format (unit mm)*
G04 Created by KiCad (PCBNEW (7.0.0)) date 2023-03-17 13:32:38*
%MOMM*%
%LPD*%
G01*
G04 APERTURE LIST*
%ADD10C,0.120000*%
%ADD11C,0.100000*%
%ADD12C,0.150000*%
%ADD13C,1.000000*%
%ADD14C,2.000000*%
%ADD15C,0.001000*%
%ADD16O,1.800000X1.800000*%
%ADD17O,1.500000X1.500000*%
%ADD18O,1.700000X1.700000*%
%ADD19R,1.700000X1.700000*%
%ADD20C,3.316000*%
%ADD21O,1.800000X3.600000*%
G04 APERTURE END LIST*
D10*
X18800000Y77950000D02*
X29100000Y77950000D01*
X29100000Y77950000D02*
X29100000Y75650000D01*
X29100000Y75650000D02*
X18800000Y75650000D01*
X18800000Y75650000D02*
X18800000Y77950000D01*
X18450000Y78350000D02*
X29450000Y78350000D01*
X29450000Y78350000D02*
X29450000Y75250000D01*
X29450000Y75250000D02*
X18450000Y75250000D01*
X18450000Y75250000D02*
X18450000Y78350000D01*
D11*
X33806095Y75266667D02*
X33006095Y75000000D01*
X33006095Y75000000D02*
X33806095Y74733334D01*
X33425142Y74200001D02*
X33387047Y74085715D01*
X33387047Y74085715D02*
X33348952Y74047620D01*
X33348952Y74047620D02*
X33272761Y74009524D01*
X33272761Y74009524D02*
X33158476Y74009524D01*
X33158476Y74009524D02*
X33082285Y74047620D01*
X33082285Y74047620D02*
X33044190Y74085715D01*
X33044190Y74085715D02*
X33006095Y74161905D01*
X33006095Y74161905D02*
X33006095Y74466667D01*
X33006095Y74466667D02*
X33806095Y74466667D01*
X33806095Y74466667D02*
X33806095Y74200001D01*
X33806095Y74200001D02*
X33768000Y74123810D01*
X33768000Y74123810D02*
X33729904Y74085715D01*
X33729904Y74085715D02*
X33653714Y74047620D01*
X33653714Y74047620D02*
X33577523Y74047620D01*
X33577523Y74047620D02*
X33501333Y74085715D01*
X33501333Y74085715D02*
X33463238Y74123810D01*
X33463238Y74123810D02*
X33425142Y74200001D01*
X33425142Y74200001D02*
X33425142Y74466667D01*
X33806095Y73666667D02*
X33158476Y73666667D01*
X33158476Y73666667D02*
X33082285Y73628572D01*
X33082285Y73628572D02*
X33044190Y73590477D01*
X33044190Y73590477D02*
X33006095Y73514286D01*
X33006095Y73514286D02*
X33006095Y73361905D01*
X33006095Y73361905D02*
X33044190Y73285715D01*
X33044190Y73285715D02*
X33082285Y73247620D01*
X33082285Y73247620D02*
X33158476Y73209524D01*
X33158476Y73209524D02*
X33806095Y73209524D01*
X33044190Y72866668D02*
X33006095Y72752382D01*
X33006095Y72752382D02*
X33006095Y72561906D01*
X33006095Y72561906D02*
X33044190Y72485715D01*
X33044190Y72485715D02*
X33082285Y72447620D01*
X33082285Y72447620D02*
X33158476Y72409525D01*
X33158476Y72409525D02*
X33234666Y72409525D01*
X33234666Y72409525D02*
X33310857Y72447620D01*
X33310857Y72447620D02*
X33348952Y72485715D01*
X33348952Y72485715D02*
X33387047Y72561906D01*
X33387047Y72561906D02*
X33425142Y72714287D01*
X33425142Y72714287D02*
X33463238Y72790477D01*
X33463238Y72790477D02*
X33501333Y72828572D01*
X33501333Y72828572D02*
X33577523Y72866668D01*
X33577523Y72866668D02*
X33653714Y72866668D01*
X33653714Y72866668D02*
X33729904Y72828572D01*
X33729904Y72828572D02*
X33768000Y72790477D01*
X33768000Y72790477D02*
X33806095Y72714287D01*
X33806095Y72714287D02*
X33806095Y72523810D01*
X33806095Y72523810D02*
X33768000Y72409525D01*
X33806095Y78392858D02*
X33806095Y77897620D01*
X33806095Y77897620D02*
X33501333Y78164286D01*
X33501333Y78164286D02*
X33501333Y78050001D01*
X33501333Y78050001D02*
X33463238Y77973810D01*
X33463238Y77973810D02*
X33425142Y77935715D01*
X33425142Y77935715D02*
X33348952Y77897620D01*
X33348952Y77897620D02*
X33158476Y77897620D01*
X33158476Y77897620D02*
X33082285Y77935715D01*
X33082285Y77935715D02*
X33044190Y77973810D01*
X33044190Y77973810D02*
X33006095Y78050001D01*
X33006095Y78050001D02*
X33006095Y78278572D01*
X33006095Y78278572D02*
X33044190Y78354763D01*
X33044190Y78354763D02*
X33082285Y78392858D01*
X33082285Y77554762D02*
X33044190Y77516667D01*
X33044190Y77516667D02*
X33006095Y77554762D01*
X33006095Y77554762D02*
X33044190Y77592858D01*
X33044190Y77592858D02*
X33082285Y77554762D01*
X33082285Y77554762D02*
X33006095Y77554762D01*
X33806095Y77250001D02*
X33806095Y76754763D01*
X33806095Y76754763D02*
X33501333Y77021429D01*
X33501333Y77021429D02*
X33501333Y76907144D01*
X33501333Y76907144D02*
X33463238Y76830953D01*
X33463238Y76830953D02*
X33425142Y76792858D01*
X33425142Y76792858D02*
X33348952Y76754763D01*
X33348952Y76754763D02*
X33158476Y76754763D01*
X33158476Y76754763D02*
X33082285Y76792858D01*
X33082285Y76792858D02*
X33044190Y76830953D01*
X33044190Y76830953D02*
X33006095Y76907144D01*
X33006095Y76907144D02*
X33006095Y77135715D01*
X33006095Y77135715D02*
X33044190Y77211906D01*
X33044190Y77211906D02*
X33082285Y77250001D01*
X33539428Y76488096D02*
X33006095Y76297620D01*
X33006095Y76297620D02*
X33539428Y76107143D01*
X33044190Y81880953D02*
X33006095Y81766667D01*
X33006095Y81766667D02*
X33006095Y81576191D01*
X33006095Y81576191D02*
X33044190Y81500000D01*
X33044190Y81500000D02*
X33082285Y81461905D01*
X33082285Y81461905D02*
X33158476Y81423810D01*
X33158476Y81423810D02*
X33234666Y81423810D01*
X33234666Y81423810D02*
X33310857Y81461905D01*
X33310857Y81461905D02*
X33348952Y81500000D01*
X33348952Y81500000D02*
X33387047Y81576191D01*
X33387047Y81576191D02*
X33425142Y81728572D01*
X33425142Y81728572D02*
X33463238Y81804762D01*
X33463238Y81804762D02*
X33501333Y81842857D01*
X33501333Y81842857D02*
X33577523Y81880953D01*
X33577523Y81880953D02*
X33653714Y81880953D01*
X33653714Y81880953D02*
X33729904Y81842857D01*
X33729904Y81842857D02*
X33768000Y81804762D01*
X33768000Y81804762D02*
X33806095Y81728572D01*
X33806095Y81728572D02*
X33806095Y81538095D01*
X33806095Y81538095D02*
X33768000Y81423810D01*
X33806095Y81195238D02*
X33806095Y80738095D01*
X33006095Y80966667D02*
X33806095Y80966667D01*
X33234666Y80509524D02*
X33234666Y80128571D01*
X33006095Y80585714D02*
X33806095Y80319047D01*
X33806095Y80319047D02*
X33006095Y80052381D01*
X33806095Y79900000D02*
X33806095Y79442857D01*
X33006095Y79671429D02*
X33806095Y79671429D01*
D12*
X18930951Y58132620D02*
X18930951Y57418334D01*
X18930951Y57418334D02*
X18883332Y57275477D01*
X18883332Y57275477D02*
X18788094Y57180239D01*
X18788094Y57180239D02*
X18645237Y57132620D01*
X18645237Y57132620D02*
X18549999Y57132620D01*
X19883332Y57132620D02*
X19407142Y57132620D01*
X19407142Y57132620D02*
X19407142Y58132620D01*
X20788094Y57227858D02*
X20740475Y57180239D01*
X20740475Y57180239D02*
X20597618Y57132620D01*
X20597618Y57132620D02*
X20502380Y57132620D01*
X20502380Y57132620D02*
X20359523Y57180239D01*
X20359523Y57180239D02*
X20264285Y57275477D01*
X20264285Y57275477D02*
X20216666Y57370715D01*
X20216666Y57370715D02*
X20169047Y57561191D01*
X20169047Y57561191D02*
X20169047Y57704048D01*
X20169047Y57704048D02*
X20216666Y57894524D01*
X20216666Y57894524D02*
X20264285Y57989762D01*
X20264285Y57989762D02*
X20359523Y58085000D01*
X20359523Y58085000D02*
X20502380Y58132620D01*
X20502380Y58132620D02*
X20597618Y58132620D01*
X20597618Y58132620D02*
X20740475Y58085000D01*
X20740475Y58085000D02*
X20788094Y58037381D01*
X21502380Y58132620D02*
X21502380Y57418334D01*
X21502380Y57418334D02*
X21454761Y57275477D01*
X21454761Y57275477D02*
X21359523Y57180239D01*
X21359523Y57180239D02*
X21216666Y57132620D01*
X21216666Y57132620D02*
X21121428Y57132620D01*
X22454761Y57132620D02*
X21978571Y57132620D01*
X21978571Y57132620D02*
X21978571Y58132620D01*
X23359523Y57227858D02*
X23311904Y57180239D01*
X23311904Y57180239D02*
X23169047Y57132620D01*
X23169047Y57132620D02*
X23073809Y57132620D01*
X23073809Y57132620D02*
X22930952Y57180239D01*
X22930952Y57180239D02*
X22835714Y57275477D01*
X22835714Y57275477D02*
X22788095Y57370715D01*
X22788095Y57370715D02*
X22740476Y57561191D01*
X22740476Y57561191D02*
X22740476Y57704048D01*
X22740476Y57704048D02*
X22788095Y57894524D01*
X22788095Y57894524D02*
X22835714Y57989762D01*
X22835714Y57989762D02*
X22930952Y58085000D01*
X22930952Y58085000D02*
X23073809Y58132620D01*
X23073809Y58132620D02*
X23169047Y58132620D01*
X23169047Y58132620D02*
X23311904Y58085000D01*
X23311904Y58085000D02*
X23359523Y58037381D01*
X24073809Y58132620D02*
X24073809Y57418334D01*
X24073809Y57418334D02*
X24026190Y57275477D01*
X24026190Y57275477D02*
X23930952Y57180239D01*
X23930952Y57180239D02*
X23788095Y57132620D01*
X23788095Y57132620D02*
X23692857Y57132620D01*
X25026190Y57132620D02*
X24550000Y57132620D01*
X24550000Y57132620D02*
X24550000Y58132620D01*
X25930952Y57227858D02*
X25883333Y57180239D01*
X25883333Y57180239D02*
X25740476Y57132620D01*
X25740476Y57132620D02*
X25645238Y57132620D01*
X25645238Y57132620D02*
X25502381Y57180239D01*
X25502381Y57180239D02*
X25407143Y57275477D01*
X25407143Y57275477D02*
X25359524Y57370715D01*
X25359524Y57370715D02*
X25311905Y57561191D01*
X25311905Y57561191D02*
X25311905Y57704048D01*
X25311905Y57704048D02*
X25359524Y57894524D01*
X25359524Y57894524D02*
X25407143Y57989762D01*
X25407143Y57989762D02*
X25502381Y58085000D01*
X25502381Y58085000D02*
X25645238Y58132620D01*
X25645238Y58132620D02*
X25740476Y58132620D01*
X25740476Y58132620D02*
X25883333Y58085000D01*
X25883333Y58085000D02*
X25930952Y58037381D01*
X26645238Y58132620D02*
X26645238Y57418334D01*
X26645238Y57418334D02*
X26597619Y57275477D01*
X26597619Y57275477D02*
X26502381Y57180239D01*
X26502381Y57180239D02*
X26359524Y57132620D01*
X26359524Y57132620D02*
X26264286Y57132620D01*
X27597619Y57132620D02*
X27121429Y57132620D01*
X27121429Y57132620D02*
X27121429Y58132620D01*
X28502381Y57227858D02*
X28454762Y57180239D01*
X28454762Y57180239D02*
X28311905Y57132620D01*
X28311905Y57132620D02*
X28216667Y57132620D01*
X28216667Y57132620D02*
X28073810Y57180239D01*
X28073810Y57180239D02*
X27978572Y57275477D01*
X27978572Y57275477D02*
X27930953Y57370715D01*
X27930953Y57370715D02*
X27883334Y57561191D01*
X27883334Y57561191D02*
X27883334Y57704048D01*
X27883334Y57704048D02*
X27930953Y57894524D01*
X27930953Y57894524D02*
X27978572Y57989762D01*
X27978572Y57989762D02*
X28073810Y58085000D01*
X28073810Y58085000D02*
X28216667Y58132620D01*
X28216667Y58132620D02*
X28311905Y58132620D01*
X28311905Y58132620D02*
X28454762Y58085000D01*
X28454762Y58085000D02*
X28502381Y58037381D01*
X19243238Y76491334D02*
X19719428Y76491334D01*
X19148000Y76205620D02*
X19481333Y77205620D01*
X19481333Y77205620D02*
X19814666Y76205620D01*
X20148000Y76205620D02*
X20148000Y77205620D01*
X20148000Y77205620D02*
X20386095Y77205620D01*
X20386095Y77205620D02*
X20528952Y77158000D01*
X20528952Y77158000D02*
X20624190Y77062762D01*
X20624190Y77062762D02*
X20671809Y76967524D01*
X20671809Y76967524D02*
X20719428Y76777048D01*
X20719428Y76777048D02*
X20719428Y76634191D01*
X20719428Y76634191D02*
X20671809Y76443715D01*
X20671809Y76443715D02*
X20624190Y76348477D01*
X20624190Y76348477D02*
X20528952Y76253239D01*
X20528952Y76253239D02*
X20386095Y76205620D01*
X20386095Y76205620D02*
X20148000Y76205620D01*
X21481333Y76729429D02*
X21624190Y76681810D01*
X21624190Y76681810D02*
X21671809Y76634191D01*
X21671809Y76634191D02*
X21719428Y76538953D01*
X21719428Y76538953D02*
X21719428Y76396096D01*
X21719428Y76396096D02*
X21671809Y76300858D01*
X21671809Y76300858D02*
X21624190Y76253239D01*
X21624190Y76253239D02*
X21528952Y76205620D01*
X21528952Y76205620D02*
X21148000Y76205620D01*
X21148000Y76205620D02*
X21148000Y77205620D01*
X21148000Y77205620D02*
X21481333Y77205620D01*
X21481333Y77205620D02*
X21576571Y77158000D01*
X21576571Y77158000D02*
X21624190Y77110381D01*
X21624190Y77110381D02*
X21671809Y77015143D01*
X21671809Y77015143D02*
X21671809Y76919905D01*
X21671809Y76919905D02*
X21624190Y76824667D01*
X21624190Y76824667D02*
X21576571Y76777048D01*
X21576571Y76777048D02*
X21481333Y76729429D01*
X21481333Y76729429D02*
X21148000Y76729429D01*
X22576571Y76872286D02*
X22576571Y76205620D01*
X22148000Y76872286D02*
X22148000Y76348477D01*
X22148000Y76348477D02*
X22195619Y76253239D01*
X22195619Y76253239D02*
X22290857Y76205620D01*
X22290857Y76205620D02*
X22433714Y76205620D01*
X22433714Y76205620D02*
X22528952Y76253239D01*
X22528952Y76253239D02*
X22576571Y76300858D01*
X23052762Y76205620D02*
X23052762Y76872286D01*
X23052762Y77205620D02*
X23005143Y77158000D01*
X23005143Y77158000D02*
X23052762Y77110381D01*
X23052762Y77110381D02*
X23100381Y77158000D01*
X23100381Y77158000D02*
X23052762Y77205620D01*
X23052762Y77205620D02*
X23052762Y77110381D01*
X23528952Y76872286D02*
X23528952Y76205620D01*
X23528952Y76777048D02*
X23576571Y76824667D01*
X23576571Y76824667D02*
X23671809Y76872286D01*
X23671809Y76872286D02*
X23814666Y76872286D01*
X23814666Y76872286D02*
X23909904Y76824667D01*
X23909904Y76824667D02*
X23957523Y76729429D01*
X23957523Y76729429D02*
X23957523Y76205620D01*
X24576571Y76205620D02*
X24481333Y76253239D01*
X24481333Y76253239D02*
X24433714Y76300858D01*
X24433714Y76300858D02*
X24386095Y76396096D01*
X24386095Y76396096D02*
X24386095Y76681810D01*
X24386095Y76681810D02*
X24433714Y76777048D01*
X24433714Y76777048D02*
X24481333Y76824667D01*
X24481333Y76824667D02*
X24576571Y76872286D01*
X24576571Y76872286D02*
X24719428Y76872286D01*
X24719428Y76872286D02*
X24814666Y76824667D01*
X24814666Y76824667D02*
X24862285Y76777048D01*
X24862285Y76777048D02*
X24909904Y76681810D01*
X24909904Y76681810D02*
X24909904Y76396096D01*
X24909904Y76396096D02*
X24862285Y76300858D01*
X24862285Y76300858D02*
X24814666Y76253239D01*
X24814666Y76253239D02*
X24719428Y76205620D01*
X24719428Y76205620D02*
X24576571Y76205620D01*
X25843238Y76872286D02*
X26081333Y76205620D01*
X26081333Y76205620D02*
X26319428Y76872286D01*
X26652762Y77110381D02*
X26700381Y77158000D01*
X26700381Y77158000D02*
X26795619Y77205620D01*
X26795619Y77205620D02*
X27033714Y77205620D01*
X27033714Y77205620D02*
X27128952Y77158000D01*
X27128952Y77158000D02*
X27176571Y77110381D01*
X27176571Y77110381D02*
X27224190Y77015143D01*
X27224190Y77015143D02*
X27224190Y76919905D01*
X27224190Y76919905D02*
X27176571Y76777048D01*
X27176571Y76777048D02*
X26605143Y76205620D01*
X26605143Y76205620D02*
X27224190Y76205620D01*
X27652762Y76300858D02*
X27700381Y76253239D01*
X27700381Y76253239D02*
X27652762Y76205620D01*
X27652762Y76205620D02*
X27605143Y76253239D01*
X27605143Y76253239D02*
X27652762Y76300858D01*
X27652762Y76300858D02*
X27652762Y76205620D01*
X28319428Y77205620D02*
X28414666Y77205620D01*
X28414666Y77205620D02*
X28509904Y77158000D01*
X28509904Y77158000D02*
X28557523Y77110381D01*
X28557523Y77110381D02*
X28605142Y77015143D01*
X28605142Y77015143D02*
X28652761Y76824667D01*
X28652761Y76824667D02*
X28652761Y76586572D01*
X28652761Y76586572D02*
X28605142Y76396096D01*
X28605142Y76396096D02*
X28557523Y76300858D01*
X28557523Y76300858D02*
X28509904Y76253239D01*
X28509904Y76253239D02*
X28414666Y76205620D01*
X28414666Y76205620D02*
X28319428Y76205620D01*
X28319428Y76205620D02*
X28224190Y76253239D01*
X28224190Y76253239D02*
X28176571Y76300858D01*
X28176571Y76300858D02*
X28128952Y76396096D01*
X28128952Y76396096D02*
X28081333Y76586572D01*
X28081333Y76586572D02*
X28081333Y76824667D01*
X28081333Y76824667D02*
X28128952Y77015143D01*
X28128952Y77015143D02*
X28176571Y77110381D01*
X28176571Y77110381D02*
X28224190Y77158000D01*
X28224190Y77158000D02*
X28319428Y77205620D01*
%TO.C,U2*%
X15995638Y65277491D02*
X15914826Y65250554D01*
X15914826Y65250554D02*
X15834014Y65169742D01*
X15834014Y65169742D02*
X15780139Y65061992D01*
X15780139Y65061992D02*
X15780139Y64954242D01*
X15780139Y64954242D02*
X15807077Y64873430D01*
X15807077Y64873430D02*
X15887889Y64738743D01*
X15887889Y64738743D02*
X15968701Y64657931D01*
X15968701Y64657931D02*
X16103388Y64577119D01*
X16103388Y64577119D02*
X16184200Y64550181D01*
X16184200Y64550181D02*
X16291950Y64550181D01*
X16291950Y64550181D02*
X16399699Y64604056D01*
X16399699Y64604056D02*
X16453574Y64657931D01*
X16453574Y64657931D02*
X16507449Y64765681D01*
X16507449Y64765681D02*
X16507449Y64819555D01*
X16507449Y64819555D02*
X16318887Y65008117D01*
X16318887Y65008117D02*
X16211138Y64900368D01*
X16803760Y65008117D02*
X16238075Y65573803D01*
X16238075Y65573803D02*
X16453574Y65789302D01*
X16453574Y65789302D02*
X16534386Y65816239D01*
X16534386Y65816239D02*
X16588261Y65816239D01*
X16588261Y65816239D02*
X16669073Y65789302D01*
X16669073Y65789302D02*
X16749886Y65708490D01*
X16749886Y65708490D02*
X16776823Y65627677D01*
X16776823Y65627677D02*
X16776823Y65573803D01*
X16776823Y65573803D02*
X16749886Y65492990D01*
X16749886Y65492990D02*
X16534386Y65277491D01*
X17665757Y65870114D02*
X17342508Y65546865D01*
X17504133Y65708490D02*
X16938447Y66274175D01*
X16938447Y66274175D02*
X16965385Y66139488D01*
X16965385Y66139488D02*
X16965385Y66031739D01*
X16965385Y66031739D02*
X16938447Y65950926D01*
X18204505Y66408862D02*
X17881257Y66085613D01*
X18042881Y66247238D02*
X17477196Y66812923D01*
X17477196Y66812923D02*
X17504133Y66678236D01*
X17504133Y66678236D02*
X17504133Y66570487D01*
X17504133Y66570487D02*
X17477196Y66489674D01*
X29449514Y82337120D02*
X29718888Y82606494D01*
X29557263Y82121620D02*
X29180140Y82875868D01*
X29180140Y82875868D02*
X29934387Y82498744D01*
X29880512Y83522365D02*
X29799700Y83495428D01*
X29799700Y83495428D02*
X29718888Y83414615D01*
X29718888Y83414615D02*
X29665013Y83306866D01*
X29665013Y83306866D02*
X29665013Y83199116D01*
X29665013Y83199116D02*
X29691950Y83118304D01*
X29691950Y83118304D02*
X29772762Y82983617D01*
X29772762Y82983617D02*
X29853575Y82902805D01*
X29853575Y82902805D02*
X29988262Y82821993D01*
X29988262Y82821993D02*
X30069074Y82795055D01*
X30069074Y82795055D02*
X30176823Y82795055D01*
X30176823Y82795055D02*
X30284573Y82848930D01*
X30284573Y82848930D02*
X30338448Y82902805D01*
X30338448Y82902805D02*
X30392323Y83010554D01*
X30392323Y83010554D02*
X30392323Y83064429D01*
X30392323Y83064429D02*
X30203761Y83252991D01*
X30203761Y83252991D02*
X30096011Y83145241D01*
X30688634Y83252991D02*
X30122949Y83818676D01*
X30122949Y83818676D02*
X31011883Y83576240D01*
X31011883Y83576240D02*
X30446197Y84141925D01*
X31281257Y83845614D02*
X30715571Y84411299D01*
X30715571Y84411299D02*
X30850258Y84545986D01*
X30850258Y84545986D02*
X30958008Y84599861D01*
X30958008Y84599861D02*
X31065758Y84599861D01*
X31065758Y84599861D02*
X31146570Y84572923D01*
X31146570Y84572923D02*
X31281257Y84492111D01*
X31281257Y84492111D02*
X31362069Y84411299D01*
X31362069Y84411299D02*
X31442881Y84276612D01*
X31442881Y84276612D02*
X31469819Y84195800D01*
X31469819Y84195800D02*
X31469819Y84088050D01*
X31469819Y84088050D02*
X31415944Y83980301D01*
X31415944Y83980301D02*
X31281257Y83845614D01*
X29384076Y57879928D02*
X29303263Y57852991D01*
X29303263Y57852991D02*
X29222451Y57772179D01*
X29222451Y57772179D02*
X29168576Y57664429D01*
X29168576Y57664429D02*
X29168576Y57556680D01*
X29168576Y57556680D02*
X29195514Y57475867D01*
X29195514Y57475867D02*
X29276326Y57341180D01*
X29276326Y57341180D02*
X29357138Y57260368D01*
X29357138Y57260368D02*
X29491825Y57179556D01*
X29491825Y57179556D02*
X29572637Y57152619D01*
X29572637Y57152619D02*
X29680387Y57152619D01*
X29680387Y57152619D02*
X29788137Y57206493D01*
X29788137Y57206493D02*
X29842011Y57260368D01*
X29842011Y57260368D02*
X29895886Y57368118D01*
X29895886Y57368118D02*
X29895886Y57421993D01*
X29895886Y57421993D02*
X29707324Y57610554D01*
X29707324Y57610554D02*
X29599575Y57502805D01*
X30192198Y57610554D02*
X29626512Y58176240D01*
X29626512Y58176240D02*
X30515446Y57933803D01*
X30515446Y57933803D02*
X29949761Y58499489D01*
X30784820Y58203177D02*
X30219135Y58768863D01*
X30219135Y58768863D02*
X30353822Y58903550D01*
X30353822Y58903550D02*
X30461571Y58957424D01*
X30461571Y58957424D02*
X30569321Y58957424D01*
X30569321Y58957424D02*
X30650133Y58930487D01*
X30650133Y58930487D02*
X30784820Y58849675D01*
X30784820Y58849675D02*
X30865632Y58768863D01*
X30865632Y58768863D02*
X30946445Y58634176D01*
X30946445Y58634176D02*
X30973382Y58553363D01*
X30973382Y58553363D02*
X30973382Y58445614D01*
X30973382Y58445614D02*
X30919507Y58337864D01*
X30919507Y58337864D02*
X30784820Y58203177D01*
X29384076Y95979928D02*
X29303263Y95952991D01*
X29303263Y95952991D02*
X29222451Y95872179D01*
X29222451Y95872179D02*
X29168576Y95764429D01*
X29168576Y95764429D02*
X29168576Y95656680D01*
X29168576Y95656680D02*
X29195514Y95575867D01*
X29195514Y95575867D02*
X29276326Y95441180D01*
X29276326Y95441180D02*
X29357138Y95360368D01*
X29357138Y95360368D02*
X29491825Y95279556D01*
X29491825Y95279556D02*
X29572637Y95252619D01*
X29572637Y95252619D02*
X29680387Y95252619D01*
X29680387Y95252619D02*
X29788137Y95306493D01*
X29788137Y95306493D02*
X29842011Y95360368D01*
X29842011Y95360368D02*
X29895886Y95468118D01*
X29895886Y95468118D02*
X29895886Y95521993D01*
X29895886Y95521993D02*
X29707324Y95710554D01*
X29707324Y95710554D02*
X29599575Y95602805D01*
X30192198Y95710554D02*
X29626512Y96276240D01*
X29626512Y96276240D02*
X30515446Y96033803D01*
X30515446Y96033803D02*
X29949761Y96599489D01*
X30784820Y96303177D02*
X30219135Y96868863D01*
X30219135Y96868863D02*
X30353822Y97003550D01*
X30353822Y97003550D02*
X30461571Y97057424D01*
X30461571Y97057424D02*
X30569321Y97057424D01*
X30569321Y97057424D02*
X30650133Y97030487D01*
X30650133Y97030487D02*
X30784820Y96949675D01*
X30784820Y96949675D02*
X30865632Y96868863D01*
X30865632Y96868863D02*
X30946445Y96734176D01*
X30946445Y96734176D02*
X30973382Y96653363D01*
X30973382Y96653363D02*
X30973382Y96545614D01*
X30973382Y96545614D02*
X30919507Y96437864D01*
X30919507Y96437864D02*
X30784820Y96303177D01*
X16141638Y60197491D02*
X16060826Y60170554D01*
X16060826Y60170554D02*
X15980014Y60089742D01*
X15980014Y60089742D02*
X15926139Y59981992D01*
X15926139Y59981992D02*
X15926139Y59874242D01*
X15926139Y59874242D02*
X15953077Y59793430D01*
X15953077Y59793430D02*
X16033889Y59658743D01*
X16033889Y59658743D02*
X16114701Y59577931D01*
X16114701Y59577931D02*
X16249388Y59497119D01*
X16249388Y59497119D02*
X16330200Y59470181D01*
X16330200Y59470181D02*
X16437950Y59470181D01*
X16437950Y59470181D02*
X16545699Y59524056D01*
X16545699Y59524056D02*
X16599574Y59577931D01*
X16599574Y59577931D02*
X16653449Y59685681D01*
X16653449Y59685681D02*
X16653449Y59739555D01*
X16653449Y59739555D02*
X16464887Y59928117D01*
X16464887Y59928117D02*
X16357138Y59820368D01*
X16949760Y59928117D02*
X16384075Y60493803D01*
X16384075Y60493803D02*
X16599574Y60709302D01*
X16599574Y60709302D02*
X16680386Y60736239D01*
X16680386Y60736239D02*
X16734261Y60736239D01*
X16734261Y60736239D02*
X16815073Y60709302D01*
X16815073Y60709302D02*
X16895886Y60628490D01*
X16895886Y60628490D02*
X16922823Y60547677D01*
X16922823Y60547677D02*
X16922823Y60493803D01*
X16922823Y60493803D02*
X16895886Y60412990D01*
X16895886Y60412990D02*
X16680386Y60197491D01*
X17811757Y60790114D02*
X17488508Y60466865D01*
X17650133Y60628490D02*
X17084447Y61194175D01*
X17084447Y61194175D02*
X17111385Y61059488D01*
X17111385Y61059488D02*
X17111385Y60951739D01*
X17111385Y60951739D02*
X17084447Y60870926D01*
X17434634Y61544362D02*
X17784820Y61894548D01*
X17784820Y61894548D02*
X17811757Y61490487D01*
X17811757Y61490487D02*
X17892570Y61571299D01*
X17892570Y61571299D02*
X17973382Y61598236D01*
X17973382Y61598236D02*
X18027257Y61598236D01*
X18027257Y61598236D02*
X18108069Y61571299D01*
X18108069Y61571299D02*
X18242756Y61436612D01*
X18242756Y61436612D02*
X18269693Y61355800D01*
X18269693Y61355800D02*
X18269693Y61301925D01*
X18269693Y61301925D02*
X18242756Y61221113D01*
X18242756Y61221113D02*
X18081131Y61059488D01*
X18081131Y61059488D02*
X18000319Y61032551D01*
X18000319Y61032551D02*
X17946444Y61032551D01*
X29072390Y87940117D02*
X29826637Y87562994D01*
X29826637Y87562994D02*
X29449513Y88317241D01*
X30527009Y88263366D02*
X30069073Y88344178D01*
X30203760Y87940117D02*
X29638075Y88505803D01*
X29638075Y88505803D02*
X29853574Y88721302D01*
X29853574Y88721302D02*
X29934386Y88748239D01*
X29934386Y88748239D02*
X29988261Y88748239D01*
X29988261Y88748239D02*
X30069073Y88721302D01*
X30069073Y88721302D02*
X30149886Y88640490D01*
X30149886Y88640490D02*
X30176823Y88559677D01*
X30176823Y88559677D02*
X30176823Y88505803D01*
X30176823Y88505803D02*
X30149886Y88424990D01*
X30149886Y88424990D02*
X29934386Y88209491D01*
X30473134Y88802114D02*
X30661696Y88990676D01*
X31038820Y88775177D02*
X30769446Y88505803D01*
X30769446Y88505803D02*
X30203760Y89071488D01*
X30203760Y89071488D02*
X30473134Y89340862D01*
X31173507Y89502487D02*
X30984945Y89313925D01*
X31281257Y89017614D02*
X30715571Y89583299D01*
X30715571Y89583299D02*
X30984945Y89852673D01*
X16665013Y88406866D02*
X16584201Y88379928D01*
X16584201Y88379928D02*
X16503388Y88299116D01*
X16503388Y88299116D02*
X16449514Y88191367D01*
X16449514Y88191367D02*
X16449514Y88083617D01*
X16449514Y88083617D02*
X16476451Y88002805D01*
X16476451Y88002805D02*
X16557263Y87868118D01*
X16557263Y87868118D02*
X16638075Y87787305D01*
X16638075Y87787305D02*
X16772762Y87706493D01*
X16772762Y87706493D02*
X16853575Y87679556D01*
X16853575Y87679556D02*
X16961324Y87679556D01*
X16961324Y87679556D02*
X17069074Y87733431D01*
X17069074Y87733431D02*
X17122949Y87787305D01*
X17122949Y87787305D02*
X17176823Y87895055D01*
X17176823Y87895055D02*
X17176823Y87948930D01*
X17176823Y87948930D02*
X16988262Y88137492D01*
X16988262Y88137492D02*
X16880512Y88029742D01*
X17473135Y88137492D02*
X16907449Y88703177D01*
X16907449Y88703177D02*
X17122949Y88918676D01*
X17122949Y88918676D02*
X17203761Y88945614D01*
X17203761Y88945614D02*
X17257636Y88945614D01*
X17257636Y88945614D02*
X17338448Y88918676D01*
X17338448Y88918676D02*
X17419260Y88837864D01*
X17419260Y88837864D02*
X17446197Y88757052D01*
X17446197Y88757052D02*
X17446197Y88703177D01*
X17446197Y88703177D02*
X17419260Y88622365D01*
X17419260Y88622365D02*
X17203761Y88406866D01*
X17904133Y89322737D02*
X18281257Y88945614D01*
X17553947Y89403550D02*
X17823321Y88864802D01*
X17823321Y88864802D02*
X18173507Y89214988D01*
X29220048Y93119776D02*
X29570234Y93469962D01*
X29570234Y93469962D02*
X29597172Y93065901D01*
X29597172Y93065901D02*
X29677984Y93146713D01*
X29677984Y93146713D02*
X29758796Y93173650D01*
X29758796Y93173650D02*
X29812671Y93173650D01*
X29812671Y93173650D02*
X29893483Y93146713D01*
X29893483Y93146713D02*
X30028170Y93012026D01*
X30028170Y93012026D02*
X30055107Y92931214D01*
X30055107Y92931214D02*
X30055107Y92877339D01*
X30055107Y92877339D02*
X30028170Y92796527D01*
X30028170Y92796527D02*
X29866546Y92634902D01*
X29866546Y92634902D02*
X29785733Y92607965D01*
X29785733Y92607965D02*
X29731859Y92607965D01*
X29731859Y93631586D02*
X30486106Y93254463D01*
X30486106Y93254463D02*
X30108982Y94008710D01*
X30243669Y94143397D02*
X30593855Y94493583D01*
X30593855Y94493583D02*
X30620793Y94089522D01*
X30620793Y94089522D02*
X30701605Y94170334D01*
X30701605Y94170334D02*
X30782417Y94197272D01*
X30782417Y94197272D02*
X30836292Y94197272D01*
X30836292Y94197272D02*
X30917104Y94170334D01*
X30917104Y94170334D02*
X31051791Y94035647D01*
X31051791Y94035647D02*
X31078729Y93954835D01*
X31078729Y93954835D02*
X31078729Y93900960D01*
X31078729Y93900960D02*
X31051791Y93820148D01*
X31051791Y93820148D02*
X30890167Y93658524D01*
X30890167Y93658524D02*
X30809355Y93631586D01*
X30809355Y93631586D02*
X30755480Y93631586D01*
X31321165Y93981773D02*
X31752164Y94412771D01*
X31536665Y94897644D02*
X31725226Y95086206D01*
X32102350Y94870707D02*
X31832976Y94601333D01*
X31832976Y94601333D02*
X31267291Y95167018D01*
X31267291Y95167018D02*
X31536665Y95436392D01*
X32344787Y95113144D02*
X31779102Y95678829D01*
X31779102Y95678829D02*
X32668036Y95436393D01*
X32668036Y95436393D02*
X32102350Y96002078D01*
X29187764Y90587491D02*
X29537950Y90937678D01*
X29537950Y90937678D02*
X29564887Y90533617D01*
X29564887Y90533617D02*
X29645699Y90614429D01*
X29645699Y90614429D02*
X29726512Y90641366D01*
X29726512Y90641366D02*
X29780386Y90641366D01*
X29780386Y90641366D02*
X29861199Y90614429D01*
X29861199Y90614429D02*
X29995886Y90479742D01*
X29995886Y90479742D02*
X30022823Y90398930D01*
X30022823Y90398930D02*
X30022823Y90345055D01*
X30022823Y90345055D02*
X29995886Y90264243D01*
X29995886Y90264243D02*
X29834261Y90102618D01*
X29834261Y90102618D02*
X29753449Y90075681D01*
X29753449Y90075681D02*
X29699574Y90075681D01*
X29699574Y91099302D02*
X30453822Y90722179D01*
X30453822Y90722179D02*
X30076698Y91476426D01*
X30211385Y91611113D02*
X30561571Y91961299D01*
X30561571Y91961299D02*
X30588508Y91557238D01*
X30588508Y91557238D02*
X30669321Y91638050D01*
X30669321Y91638050D02*
X30750133Y91664987D01*
X30750133Y91664987D02*
X30804008Y91664987D01*
X30804008Y91664987D02*
X30884820Y91638050D01*
X30884820Y91638050D02*
X31019507Y91503363D01*
X31019507Y91503363D02*
X31046444Y91422551D01*
X31046444Y91422551D02*
X31046444Y91368676D01*
X31046444Y91368676D02*
X31019507Y91287864D01*
X31019507Y91287864D02*
X30857882Y91126239D01*
X30857882Y91126239D02*
X30777070Y91099302D01*
X30777070Y91099302D02*
X30723195Y91099302D01*
X29384076Y70579928D02*
X29303263Y70552991D01*
X29303263Y70552991D02*
X29222451Y70472179D01*
X29222451Y70472179D02*
X29168576Y70364429D01*
X29168576Y70364429D02*
X29168576Y70256680D01*
X29168576Y70256680D02*
X29195514Y70175867D01*
X29195514Y70175867D02*
X29276326Y70041180D01*
X29276326Y70041180D02*
X29357138Y69960368D01*
X29357138Y69960368D02*
X29491825Y69879556D01*
X29491825Y69879556D02*
X29572637Y69852619D01*
X29572637Y69852619D02*
X29680387Y69852619D01*
X29680387Y69852619D02*
X29788137Y69906493D01*
X29788137Y69906493D02*
X29842011Y69960368D01*
X29842011Y69960368D02*
X29895886Y70068118D01*
X29895886Y70068118D02*
X29895886Y70121993D01*
X29895886Y70121993D02*
X29707324Y70310554D01*
X29707324Y70310554D02*
X29599575Y70202805D01*
X30192198Y70310554D02*
X29626512Y70876240D01*
X29626512Y70876240D02*
X30515446Y70633803D01*
X30515446Y70633803D02*
X29949761Y71199489D01*
X30784820Y70903177D02*
X30219135Y71468863D01*
X30219135Y71468863D02*
X30353822Y71603550D01*
X30353822Y71603550D02*
X30461571Y71657424D01*
X30461571Y71657424D02*
X30569321Y71657424D01*
X30569321Y71657424D02*
X30650133Y71630487D01*
X30650133Y71630487D02*
X30784820Y71549675D01*
X30784820Y71549675D02*
X30865632Y71468863D01*
X30865632Y71468863D02*
X30946445Y71334176D01*
X30946445Y71334176D02*
X30973382Y71253363D01*
X30973382Y71253363D02*
X30973382Y71145614D01*
X30973382Y71145614D02*
X30919507Y71037864D01*
X30919507Y71037864D02*
X30784820Y70903177D01*
X16638076Y83299928D02*
X16557263Y83272991D01*
X16557263Y83272991D02*
X16476451Y83192179D01*
X16476451Y83192179D02*
X16422576Y83084429D01*
X16422576Y83084429D02*
X16422576Y82976680D01*
X16422576Y82976680D02*
X16449514Y82895867D01*
X16449514Y82895867D02*
X16530326Y82761180D01*
X16530326Y82761180D02*
X16611138Y82680368D01*
X16611138Y82680368D02*
X16745825Y82599556D01*
X16745825Y82599556D02*
X16826637Y82572619D01*
X16826637Y82572619D02*
X16934387Y82572619D01*
X16934387Y82572619D02*
X17042137Y82626493D01*
X17042137Y82626493D02*
X17096011Y82680368D01*
X17096011Y82680368D02*
X17149886Y82788118D01*
X17149886Y82788118D02*
X17149886Y82841993D01*
X17149886Y82841993D02*
X16961324Y83030554D01*
X16961324Y83030554D02*
X16853575Y82922805D01*
X17446198Y83030554D02*
X16880512Y83596240D01*
X16880512Y83596240D02*
X17769446Y83353803D01*
X17769446Y83353803D02*
X17203761Y83919489D01*
X18038820Y83623177D02*
X17473135Y84188863D01*
X17473135Y84188863D02*
X17607822Y84323550D01*
X17607822Y84323550D02*
X17715571Y84377424D01*
X17715571Y84377424D02*
X17823321Y84377424D01*
X17823321Y84377424D02*
X17904133Y84350487D01*
X17904133Y84350487D02*
X18038820Y84269675D01*
X18038820Y84269675D02*
X18119632Y84188863D01*
X18119632Y84188863D02*
X18200445Y84054176D01*
X18200445Y84054176D02*
X18227382Y83973363D01*
X18227382Y83973363D02*
X18227382Y83865614D01*
X18227382Y83865614D02*
X18173507Y83757864D01*
X18173507Y83757864D02*
X18038820Y83623177D01*
X29395638Y85831491D02*
X29314826Y85804554D01*
X29314826Y85804554D02*
X29234014Y85723742D01*
X29234014Y85723742D02*
X29180139Y85615992D01*
X29180139Y85615992D02*
X29180139Y85508242D01*
X29180139Y85508242D02*
X29207077Y85427430D01*
X29207077Y85427430D02*
X29287889Y85292743D01*
X29287889Y85292743D02*
X29368701Y85211931D01*
X29368701Y85211931D02*
X29503388Y85131119D01*
X29503388Y85131119D02*
X29584200Y85104181D01*
X29584200Y85104181D02*
X29691950Y85104181D01*
X29691950Y85104181D02*
X29799699Y85158056D01*
X29799699Y85158056D02*
X29853574Y85211931D01*
X29853574Y85211931D02*
X29907449Y85319681D01*
X29907449Y85319681D02*
X29907449Y85373555D01*
X29907449Y85373555D02*
X29718887Y85562117D01*
X29718887Y85562117D02*
X29611138Y85454368D01*
X30203760Y85562117D02*
X29638075Y86127803D01*
X29638075Y86127803D02*
X29853574Y86343302D01*
X29853574Y86343302D02*
X29934386Y86370239D01*
X29934386Y86370239D02*
X29988261Y86370239D01*
X29988261Y86370239D02*
X30069073Y86343302D01*
X30069073Y86343302D02*
X30149886Y86262490D01*
X30149886Y86262490D02*
X30176823Y86181677D01*
X30176823Y86181677D02*
X30176823Y86127803D01*
X30176823Y86127803D02*
X30149886Y86046990D01*
X30149886Y86046990D02*
X29934386Y85831491D01*
X30230698Y86612676D02*
X30230698Y86666551D01*
X30230698Y86666551D02*
X30257635Y86747363D01*
X30257635Y86747363D02*
X30392322Y86882050D01*
X30392322Y86882050D02*
X30473134Y86908987D01*
X30473134Y86908987D02*
X30527009Y86908987D01*
X30527009Y86908987D02*
X30607821Y86882050D01*
X30607821Y86882050D02*
X30661696Y86828175D01*
X30661696Y86828175D02*
X30715571Y86720426D01*
X30715571Y86720426D02*
X30715571Y86073928D01*
X30715571Y86073928D02*
X31065757Y86424114D01*
X31065757Y87070612D02*
X30984945Y87043674D01*
X30984945Y87043674D02*
X30931070Y87043674D01*
X30931070Y87043674D02*
X30850258Y87070612D01*
X30850258Y87070612D02*
X30823321Y87097549D01*
X30823321Y87097549D02*
X30796383Y87178362D01*
X30796383Y87178362D02*
X30796383Y87232236D01*
X30796383Y87232236D02*
X30823321Y87313049D01*
X30823321Y87313049D02*
X30931070Y87420798D01*
X30931070Y87420798D02*
X31011883Y87447736D01*
X31011883Y87447736D02*
X31065757Y87447736D01*
X31065757Y87447736D02*
X31146570Y87420798D01*
X31146570Y87420798D02*
X31173507Y87393861D01*
X31173507Y87393861D02*
X31200444Y87313049D01*
X31200444Y87313049D02*
X31200444Y87259174D01*
X31200444Y87259174D02*
X31173507Y87178362D01*
X31173507Y87178362D02*
X31065757Y87070612D01*
X31065757Y87070612D02*
X31038820Y86989800D01*
X31038820Y86989800D02*
X31038820Y86935925D01*
X31038820Y86935925D02*
X31065757Y86855113D01*
X31065757Y86855113D02*
X31173507Y86747363D01*
X31173507Y86747363D02*
X31254319Y86720426D01*
X31254319Y86720426D02*
X31308194Y86720426D01*
X31308194Y86720426D02*
X31389006Y86747363D01*
X31389006Y86747363D02*
X31496756Y86855113D01*
X31496756Y86855113D02*
X31523693Y86935925D01*
X31523693Y86935925D02*
X31523693Y86989800D01*
X31523693Y86989800D02*
X31496756Y87070612D01*
X31496756Y87070612D02*
X31389006Y87178362D01*
X31389006Y87178362D02*
X31308194Y87205299D01*
X31308194Y87205299D02*
X31254319Y87205299D01*
X31254319Y87205299D02*
X31173507Y87178362D01*
X16665013Y85866866D02*
X16584201Y85839928D01*
X16584201Y85839928D02*
X16503388Y85759116D01*
X16503388Y85759116D02*
X16449514Y85651367D01*
X16449514Y85651367D02*
X16449514Y85543617D01*
X16449514Y85543617D02*
X16476451Y85462805D01*
X16476451Y85462805D02*
X16557263Y85328118D01*
X16557263Y85328118D02*
X16638075Y85247305D01*
X16638075Y85247305D02*
X16772762Y85166493D01*
X16772762Y85166493D02*
X16853575Y85139556D01*
X16853575Y85139556D02*
X16961324Y85139556D01*
X16961324Y85139556D02*
X17069074Y85193431D01*
X17069074Y85193431D02*
X17122949Y85247305D01*
X17122949Y85247305D02*
X17176823Y85355055D01*
X17176823Y85355055D02*
X17176823Y85408930D01*
X17176823Y85408930D02*
X16988262Y85597492D01*
X16988262Y85597492D02*
X16880512Y85489742D01*
X17473135Y85597492D02*
X16907449Y86163177D01*
X16907449Y86163177D02*
X17122949Y86378676D01*
X17122949Y86378676D02*
X17203761Y86405614D01*
X17203761Y86405614D02*
X17257636Y86405614D01*
X17257636Y86405614D02*
X17338448Y86378676D01*
X17338448Y86378676D02*
X17419260Y86297864D01*
X17419260Y86297864D02*
X17446197Y86217052D01*
X17446197Y86217052D02*
X17446197Y86163177D01*
X17446197Y86163177D02*
X17419260Y86082365D01*
X17419260Y86082365D02*
X17203761Y85866866D01*
X17742509Y86998237D02*
X17473135Y86728863D01*
X17473135Y86728863D02*
X17715571Y86432551D01*
X17715571Y86432551D02*
X17715571Y86486426D01*
X17715571Y86486426D02*
X17742509Y86567238D01*
X17742509Y86567238D02*
X17877196Y86701925D01*
X17877196Y86701925D02*
X17958008Y86728863D01*
X17958008Y86728863D02*
X18011883Y86728863D01*
X18011883Y86728863D02*
X18092695Y86701925D01*
X18092695Y86701925D02*
X18227382Y86567238D01*
X18227382Y86567238D02*
X18254319Y86486426D01*
X18254319Y86486426D02*
X18254319Y86432551D01*
X18254319Y86432551D02*
X18227382Y86351739D01*
X18227382Y86351739D02*
X18092695Y86217052D01*
X18092695Y86217052D02*
X18011883Y86190115D01*
X18011883Y86190115D02*
X17958008Y86190115D01*
X16665013Y90946866D02*
X16584201Y90919928D01*
X16584201Y90919928D02*
X16503388Y90839116D01*
X16503388Y90839116D02*
X16449514Y90731367D01*
X16449514Y90731367D02*
X16449514Y90623617D01*
X16449514Y90623617D02*
X16476451Y90542805D01*
X16476451Y90542805D02*
X16557263Y90408118D01*
X16557263Y90408118D02*
X16638075Y90327305D01*
X16638075Y90327305D02*
X16772762Y90246493D01*
X16772762Y90246493D02*
X16853575Y90219556D01*
X16853575Y90219556D02*
X16961324Y90219556D01*
X16961324Y90219556D02*
X17069074Y90273431D01*
X17069074Y90273431D02*
X17122949Y90327305D01*
X17122949Y90327305D02*
X17176823Y90435055D01*
X17176823Y90435055D02*
X17176823Y90488930D01*
X17176823Y90488930D02*
X16988262Y90677492D01*
X16988262Y90677492D02*
X16880512Y90569742D01*
X17473135Y90677492D02*
X16907449Y91243177D01*
X16907449Y91243177D02*
X17122949Y91458676D01*
X17122949Y91458676D02*
X17203761Y91485614D01*
X17203761Y91485614D02*
X17257636Y91485614D01*
X17257636Y91485614D02*
X17338448Y91458676D01*
X17338448Y91458676D02*
X17419260Y91377864D01*
X17419260Y91377864D02*
X17446197Y91297052D01*
X17446197Y91297052D02*
X17446197Y91243177D01*
X17446197Y91243177D02*
X17419260Y91162365D01*
X17419260Y91162365D02*
X17203761Y90946866D01*
X17419260Y91754988D02*
X17769446Y92105174D01*
X17769446Y92105174D02*
X17796384Y91701113D01*
X17796384Y91701113D02*
X17877196Y91781925D01*
X17877196Y91781925D02*
X17958008Y91808863D01*
X17958008Y91808863D02*
X18011883Y91808863D01*
X18011883Y91808863D02*
X18092695Y91781925D01*
X18092695Y91781925D02*
X18227382Y91647238D01*
X18227382Y91647238D02*
X18254319Y91566426D01*
X18254319Y91566426D02*
X18254319Y91512551D01*
X18254319Y91512551D02*
X18227382Y91431739D01*
X18227382Y91431739D02*
X18065758Y91270115D01*
X18065758Y91270115D02*
X17984945Y91243177D01*
X17984945Y91243177D02*
X17931071Y91243177D01*
X16638076Y57899928D02*
X16557263Y57872991D01*
X16557263Y57872991D02*
X16476451Y57792179D01*
X16476451Y57792179D02*
X16422576Y57684429D01*
X16422576Y57684429D02*
X16422576Y57576680D01*
X16422576Y57576680D02*
X16449514Y57495867D01*
X16449514Y57495867D02*
X16530326Y57361180D01*
X16530326Y57361180D02*
X16611138Y57280368D01*
X16611138Y57280368D02*
X16745825Y57199556D01*
X16745825Y57199556D02*
X16826637Y57172619D01*
X16826637Y57172619D02*
X16934387Y57172619D01*
X16934387Y57172619D02*
X17042137Y57226493D01*
X17042137Y57226493D02*
X17096011Y57280368D01*
X17096011Y57280368D02*
X17149886Y57388118D01*
X17149886Y57388118D02*
X17149886Y57441993D01*
X17149886Y57441993D02*
X16961324Y57630554D01*
X16961324Y57630554D02*
X16853575Y57522805D01*
X17446198Y57630554D02*
X16880512Y58196240D01*
X16880512Y58196240D02*
X17769446Y57953803D01*
X17769446Y57953803D02*
X17203761Y58519489D01*
X18038820Y58223177D02*
X17473135Y58788863D01*
X17473135Y58788863D02*
X17607822Y58923550D01*
X17607822Y58923550D02*
X17715571Y58977424D01*
X17715571Y58977424D02*
X17823321Y58977424D01*
X17823321Y58977424D02*
X17904133Y58950487D01*
X17904133Y58950487D02*
X18038820Y58869675D01*
X18038820Y58869675D02*
X18119632Y58788863D01*
X18119632Y58788863D02*
X18200445Y58654176D01*
X18200445Y58654176D02*
X18227382Y58573363D01*
X18227382Y58573363D02*
X18227382Y58465614D01*
X18227382Y58465614D02*
X18173507Y58357864D01*
X18173507Y58357864D02*
X18038820Y58223177D01*
X16638076Y95999928D02*
X16557263Y95972991D01*
X16557263Y95972991D02*
X16476451Y95892179D01*
X16476451Y95892179D02*
X16422576Y95784429D01*
X16422576Y95784429D02*
X16422576Y95676680D01*
X16422576Y95676680D02*
X16449514Y95595867D01*
X16449514Y95595867D02*
X16530326Y95461180D01*
X16530326Y95461180D02*
X16611138Y95380368D01*
X16611138Y95380368D02*
X16745825Y95299556D01*
X16745825Y95299556D02*
X16826637Y95272619D01*
X16826637Y95272619D02*
X16934387Y95272619D01*
X16934387Y95272619D02*
X17042137Y95326493D01*
X17042137Y95326493D02*
X17096011Y95380368D01*
X17096011Y95380368D02*
X17149886Y95488118D01*
X17149886Y95488118D02*
X17149886Y95541993D01*
X17149886Y95541993D02*
X16961324Y95730554D01*
X16961324Y95730554D02*
X16853575Y95622805D01*
X17446198Y95730554D02*
X16880512Y96296240D01*
X16880512Y96296240D02*
X17769446Y96053803D01*
X17769446Y96053803D02*
X17203761Y96619489D01*
X18038820Y96323177D02*
X17473135Y96888863D01*
X17473135Y96888863D02*
X17607822Y97023550D01*
X17607822Y97023550D02*
X17715571Y97077424D01*
X17715571Y97077424D02*
X17823321Y97077424D01*
X17823321Y97077424D02*
X17904133Y97050487D01*
X17904133Y97050487D02*
X18038820Y96969675D01*
X18038820Y96969675D02*
X18119632Y96888863D01*
X18119632Y96888863D02*
X18200445Y96754176D01*
X18200445Y96754176D02*
X18227382Y96673363D01*
X18227382Y96673363D02*
X18227382Y96565614D01*
X18227382Y96565614D02*
X18173507Y96457864D01*
X18173507Y96457864D02*
X18038820Y96323177D01*
X29395638Y65257491D02*
X29314826Y65230554D01*
X29314826Y65230554D02*
X29234014Y65149742D01*
X29234014Y65149742D02*
X29180139Y65041992D01*
X29180139Y65041992D02*
X29180139Y64934242D01*
X29180139Y64934242D02*
X29207077Y64853430D01*
X29207077Y64853430D02*
X29287889Y64718743D01*
X29287889Y64718743D02*
X29368701Y64637931D01*
X29368701Y64637931D02*
X29503388Y64557119D01*
X29503388Y64557119D02*
X29584200Y64530181D01*
X29584200Y64530181D02*
X29691950Y64530181D01*
X29691950Y64530181D02*
X29799699Y64584056D01*
X29799699Y64584056D02*
X29853574Y64637931D01*
X29853574Y64637931D02*
X29907449Y64745681D01*
X29907449Y64745681D02*
X29907449Y64799555D01*
X29907449Y64799555D02*
X29718887Y64988117D01*
X29718887Y64988117D02*
X29611138Y64880368D01*
X30203760Y64988117D02*
X29638075Y65553803D01*
X29638075Y65553803D02*
X29853574Y65769302D01*
X29853574Y65769302D02*
X29934386Y65796239D01*
X29934386Y65796239D02*
X29988261Y65796239D01*
X29988261Y65796239D02*
X30069073Y65769302D01*
X30069073Y65769302D02*
X30149886Y65688490D01*
X30149886Y65688490D02*
X30176823Y65607677D01*
X30176823Y65607677D02*
X30176823Y65553803D01*
X30176823Y65553803D02*
X30149886Y65472990D01*
X30149886Y65472990D02*
X29934386Y65257491D01*
X30230698Y66038676D02*
X30230698Y66092551D01*
X30230698Y66092551D02*
X30257635Y66173363D01*
X30257635Y66173363D02*
X30392322Y66308050D01*
X30392322Y66308050D02*
X30473134Y66334987D01*
X30473134Y66334987D02*
X30527009Y66334987D01*
X30527009Y66334987D02*
X30607821Y66308050D01*
X30607821Y66308050D02*
X30661696Y66254175D01*
X30661696Y66254175D02*
X30715571Y66146426D01*
X30715571Y66146426D02*
X30715571Y65499928D01*
X30715571Y65499928D02*
X31065757Y65850114D01*
X30850258Y66765986D02*
X30904133Y66819861D01*
X30904133Y66819861D02*
X30984945Y66846798D01*
X30984945Y66846798D02*
X31038820Y66846798D01*
X31038820Y66846798D02*
X31119632Y66819861D01*
X31119632Y66819861D02*
X31254319Y66739049D01*
X31254319Y66739049D02*
X31389006Y66604362D01*
X31389006Y66604362D02*
X31469818Y66469674D01*
X31469818Y66469674D02*
X31496756Y66388862D01*
X31496756Y66388862D02*
X31496756Y66334987D01*
X31496756Y66334987D02*
X31469818Y66254175D01*
X31469818Y66254175D02*
X31415944Y66200300D01*
X31415944Y66200300D02*
X31335131Y66173363D01*
X31335131Y66173363D02*
X31281257Y66173363D01*
X31281257Y66173363D02*
X31200444Y66200300D01*
X31200444Y66200300D02*
X31065757Y66281113D01*
X31065757Y66281113D02*
X30931070Y66415800D01*
X30931070Y66415800D02*
X30850258Y66550487D01*
X30850258Y66550487D02*
X30823321Y66631299D01*
X30823321Y66631299D02*
X30823321Y66685174D01*
X30823321Y66685174D02*
X30850258Y66765986D01*
X29395638Y62717491D02*
X29314826Y62690554D01*
X29314826Y62690554D02*
X29234014Y62609742D01*
X29234014Y62609742D02*
X29180139Y62501992D01*
X29180139Y62501992D02*
X29180139Y62394242D01*
X29180139Y62394242D02*
X29207077Y62313430D01*
X29207077Y62313430D02*
X29287889Y62178743D01*
X29287889Y62178743D02*
X29368701Y62097931D01*
X29368701Y62097931D02*
X29503388Y62017119D01*
X29503388Y62017119D02*
X29584200Y61990181D01*
X29584200Y61990181D02*
X29691950Y61990181D01*
X29691950Y61990181D02*
X29799699Y62044056D01*
X29799699Y62044056D02*
X29853574Y62097931D01*
X29853574Y62097931D02*
X29907449Y62205681D01*
X29907449Y62205681D02*
X29907449Y62259555D01*
X29907449Y62259555D02*
X29718887Y62448117D01*
X29718887Y62448117D02*
X29611138Y62340368D01*
X30203760Y62448117D02*
X29638075Y63013803D01*
X29638075Y63013803D02*
X29853574Y63229302D01*
X29853574Y63229302D02*
X29934386Y63256239D01*
X29934386Y63256239D02*
X29988261Y63256239D01*
X29988261Y63256239D02*
X30069073Y63229302D01*
X30069073Y63229302D02*
X30149886Y63148490D01*
X30149886Y63148490D02*
X30176823Y63067677D01*
X30176823Y63067677D02*
X30176823Y63013803D01*
X30176823Y63013803D02*
X30149886Y62932990D01*
X30149886Y62932990D02*
X29934386Y62717491D01*
X31065757Y63310114D02*
X30742508Y62986865D01*
X30904133Y63148490D02*
X30338447Y63714175D01*
X30338447Y63714175D02*
X30365385Y63579488D01*
X30365385Y63579488D02*
X30365385Y63471739D01*
X30365385Y63471739D02*
X30338447Y63390926D01*
X31335131Y63579488D02*
X31442881Y63687238D01*
X31442881Y63687238D02*
X31469818Y63768050D01*
X31469818Y63768050D02*
X31469818Y63821925D01*
X31469818Y63821925D02*
X31442881Y63956612D01*
X31442881Y63956612D02*
X31362069Y64091299D01*
X31362069Y64091299D02*
X31146570Y64306798D01*
X31146570Y64306798D02*
X31065757Y64333736D01*
X31065757Y64333736D02*
X31011883Y64333736D01*
X31011883Y64333736D02*
X30931070Y64306798D01*
X30931070Y64306798D02*
X30823321Y64199049D01*
X30823321Y64199049D02*
X30796383Y64118236D01*
X30796383Y64118236D02*
X30796383Y64064362D01*
X30796383Y64064362D02*
X30823321Y63983549D01*
X30823321Y63983549D02*
X30958008Y63848862D01*
X30958008Y63848862D02*
X31038820Y63821925D01*
X31038820Y63821925D02*
X31092695Y63821925D01*
X31092695Y63821925D02*
X31173507Y63848862D01*
X31173507Y63848862D02*
X31281257Y63956612D01*
X31281257Y63956612D02*
X31308194Y64037424D01*
X31308194Y64037424D02*
X31308194Y64091299D01*
X31308194Y64091299D02*
X31281257Y64172111D01*
X16565013Y93486866D02*
X16484201Y93459928D01*
X16484201Y93459928D02*
X16403388Y93379116D01*
X16403388Y93379116D02*
X16349514Y93271367D01*
X16349514Y93271367D02*
X16349514Y93163617D01*
X16349514Y93163617D02*
X16376451Y93082805D01*
X16376451Y93082805D02*
X16457263Y92948118D01*
X16457263Y92948118D02*
X16538075Y92867305D01*
X16538075Y92867305D02*
X16672762Y92786493D01*
X16672762Y92786493D02*
X16753575Y92759556D01*
X16753575Y92759556D02*
X16861324Y92759556D01*
X16861324Y92759556D02*
X16969074Y92813431D01*
X16969074Y92813431D02*
X17022949Y92867305D01*
X17022949Y92867305D02*
X17076823Y92975055D01*
X17076823Y92975055D02*
X17076823Y93028930D01*
X17076823Y93028930D02*
X16888262Y93217492D01*
X16888262Y93217492D02*
X16780512Y93109742D01*
X17373135Y93217492D02*
X16807449Y93783177D01*
X16807449Y93783177D02*
X17022949Y93998676D01*
X17022949Y93998676D02*
X17103761Y94025614D01*
X17103761Y94025614D02*
X17157636Y94025614D01*
X17157636Y94025614D02*
X17238448Y93998676D01*
X17238448Y93998676D02*
X17319260Y93917864D01*
X17319260Y93917864D02*
X17346197Y93837052D01*
X17346197Y93837052D02*
X17346197Y93783177D01*
X17346197Y93783177D02*
X17319260Y93702365D01*
X17319260Y93702365D02*
X17103761Y93486866D01*
X17400072Y94268050D02*
X17400072Y94321925D01*
X17400072Y94321925D02*
X17427010Y94402737D01*
X17427010Y94402737D02*
X17561697Y94537424D01*
X17561697Y94537424D02*
X17642509Y94564362D01*
X17642509Y94564362D02*
X17696384Y94564362D01*
X17696384Y94564362D02*
X17777196Y94537424D01*
X17777196Y94537424D02*
X17831071Y94483550D01*
X17831071Y94483550D02*
X17884945Y94375800D01*
X17884945Y94375800D02*
X17884945Y93729302D01*
X17884945Y93729302D02*
X18235132Y94079489D01*
X29395638Y60177491D02*
X29314826Y60150554D01*
X29314826Y60150554D02*
X29234014Y60069742D01*
X29234014Y60069742D02*
X29180139Y59961992D01*
X29180139Y59961992D02*
X29180139Y59854242D01*
X29180139Y59854242D02*
X29207077Y59773430D01*
X29207077Y59773430D02*
X29287889Y59638743D01*
X29287889Y59638743D02*
X29368701Y59557931D01*
X29368701Y59557931D02*
X29503388Y59477119D01*
X29503388Y59477119D02*
X29584200Y59450181D01*
X29584200Y59450181D02*
X29691950Y59450181D01*
X29691950Y59450181D02*
X29799699Y59504056D01*
X29799699Y59504056D02*
X29853574Y59557931D01*
X29853574Y59557931D02*
X29907449Y59665681D01*
X29907449Y59665681D02*
X29907449Y59719555D01*
X29907449Y59719555D02*
X29718887Y59908117D01*
X29718887Y59908117D02*
X29611138Y59800368D01*
X30203760Y59908117D02*
X29638075Y60473803D01*
X29638075Y60473803D02*
X29853574Y60689302D01*
X29853574Y60689302D02*
X29934386Y60716239D01*
X29934386Y60716239D02*
X29988261Y60716239D01*
X29988261Y60716239D02*
X30069073Y60689302D01*
X30069073Y60689302D02*
X30149886Y60608490D01*
X30149886Y60608490D02*
X30176823Y60527677D01*
X30176823Y60527677D02*
X30176823Y60473803D01*
X30176823Y60473803D02*
X30149886Y60392990D01*
X30149886Y60392990D02*
X29934386Y60177491D01*
X31065757Y60770114D02*
X30742508Y60446865D01*
X30904133Y60608490D02*
X30338447Y61174175D01*
X30338447Y61174175D02*
X30365385Y61039488D01*
X30365385Y61039488D02*
X30365385Y60931739D01*
X30365385Y60931739D02*
X30338447Y60850926D01*
X31065757Y61416612D02*
X30984945Y61389674D01*
X30984945Y61389674D02*
X30931070Y61389674D01*
X30931070Y61389674D02*
X30850258Y61416612D01*
X30850258Y61416612D02*
X30823321Y61443549D01*
X30823321Y61443549D02*
X30796383Y61524362D01*
X30796383Y61524362D02*
X30796383Y61578236D01*
X30796383Y61578236D02*
X30823321Y61659049D01*
X30823321Y61659049D02*
X30931070Y61766798D01*
X30931070Y61766798D02*
X31011883Y61793736D01*
X31011883Y61793736D02*
X31065757Y61793736D01*
X31065757Y61793736D02*
X31146570Y61766798D01*
X31146570Y61766798D02*
X31173507Y61739861D01*
X31173507Y61739861D02*
X31200444Y61659049D01*
X31200444Y61659049D02*
X31200444Y61605174D01*
X31200444Y61605174D02*
X31173507Y61524362D01*
X31173507Y61524362D02*
X31065757Y61416612D01*
X31065757Y61416612D02*
X31038820Y61335800D01*
X31038820Y61335800D02*
X31038820Y61281925D01*
X31038820Y61281925D02*
X31065757Y61201113D01*
X31065757Y61201113D02*
X31173507Y61093363D01*
X31173507Y61093363D02*
X31254319Y61066426D01*
X31254319Y61066426D02*
X31308194Y61066426D01*
X31308194Y61066426D02*
X31389006Y61093363D01*
X31389006Y61093363D02*
X31496756Y61201113D01*
X31496756Y61201113D02*
X31523693Y61281925D01*
X31523693Y61281925D02*
X31523693Y61335800D01*
X31523693Y61335800D02*
X31496756Y61416612D01*
X31496756Y61416612D02*
X31389006Y61524362D01*
X31389006Y61524362D02*
X31308194Y61551299D01*
X31308194Y61551299D02*
X31254319Y61551299D01*
X31254319Y61551299D02*
X31173507Y61524362D01*
X29395638Y67787491D02*
X29314826Y67760554D01*
X29314826Y67760554D02*
X29234014Y67679742D01*
X29234014Y67679742D02*
X29180139Y67571992D01*
X29180139Y67571992D02*
X29180139Y67464242D01*
X29180139Y67464242D02*
X29207077Y67383430D01*
X29207077Y67383430D02*
X29287889Y67248743D01*
X29287889Y67248743D02*
X29368701Y67167931D01*
X29368701Y67167931D02*
X29503388Y67087119D01*
X29503388Y67087119D02*
X29584200Y67060181D01*
X29584200Y67060181D02*
X29691950Y67060181D01*
X29691950Y67060181D02*
X29799699Y67114056D01*
X29799699Y67114056D02*
X29853574Y67167931D01*
X29853574Y67167931D02*
X29907449Y67275681D01*
X29907449Y67275681D02*
X29907449Y67329555D01*
X29907449Y67329555D02*
X29718887Y67518117D01*
X29718887Y67518117D02*
X29611138Y67410368D01*
X30203760Y67518117D02*
X29638075Y68083803D01*
X29638075Y68083803D02*
X29853574Y68299302D01*
X29853574Y68299302D02*
X29934386Y68326239D01*
X29934386Y68326239D02*
X29988261Y68326239D01*
X29988261Y68326239D02*
X30069073Y68299302D01*
X30069073Y68299302D02*
X30149886Y68218490D01*
X30149886Y68218490D02*
X30176823Y68137677D01*
X30176823Y68137677D02*
X30176823Y68083803D01*
X30176823Y68083803D02*
X30149886Y68002990D01*
X30149886Y68002990D02*
X29934386Y67787491D01*
X30230698Y68568676D02*
X30230698Y68622551D01*
X30230698Y68622551D02*
X30257635Y68703363D01*
X30257635Y68703363D02*
X30392322Y68838050D01*
X30392322Y68838050D02*
X30473134Y68864987D01*
X30473134Y68864987D02*
X30527009Y68864987D01*
X30527009Y68864987D02*
X30607821Y68838050D01*
X30607821Y68838050D02*
X30661696Y68784175D01*
X30661696Y68784175D02*
X30715571Y68676426D01*
X30715571Y68676426D02*
X30715571Y68029928D01*
X30715571Y68029928D02*
X31065757Y68380114D01*
X31604505Y68918862D02*
X31281257Y68595613D01*
X31442881Y68757238D02*
X30877196Y69322923D01*
X30877196Y69322923D02*
X30904133Y69188236D01*
X30904133Y69188236D02*
X30904133Y69080487D01*
X30904133Y69080487D02*
X30877196Y68999674D01*
X16638076Y70599928D02*
X16557263Y70572991D01*
X16557263Y70572991D02*
X16476451Y70492179D01*
X16476451Y70492179D02*
X16422576Y70384429D01*
X16422576Y70384429D02*
X16422576Y70276680D01*
X16422576Y70276680D02*
X16449514Y70195867D01*
X16449514Y70195867D02*
X16530326Y70061180D01*
X16530326Y70061180D02*
X16611138Y69980368D01*
X16611138Y69980368D02*
X16745825Y69899556D01*
X16745825Y69899556D02*
X16826637Y69872619D01*
X16826637Y69872619D02*
X16934387Y69872619D01*
X16934387Y69872619D02*
X17042137Y69926493D01*
X17042137Y69926493D02*
X17096011Y69980368D01*
X17096011Y69980368D02*
X17149886Y70088118D01*
X17149886Y70088118D02*
X17149886Y70141993D01*
X17149886Y70141993D02*
X16961324Y70330554D01*
X16961324Y70330554D02*
X16853575Y70222805D01*
X17446198Y70330554D02*
X16880512Y70896240D01*
X16880512Y70896240D02*
X17769446Y70653803D01*
X17769446Y70653803D02*
X17203761Y71219489D01*
X18038820Y70923177D02*
X17473135Y71488863D01*
X17473135Y71488863D02*
X17607822Y71623550D01*
X17607822Y71623550D02*
X17715571Y71677424D01*
X17715571Y71677424D02*
X17823321Y71677424D01*
X17823321Y71677424D02*
X17904133Y71650487D01*
X17904133Y71650487D02*
X18038820Y71569675D01*
X18038820Y71569675D02*
X18119632Y71488863D01*
X18119632Y71488863D02*
X18200445Y71354176D01*
X18200445Y71354176D02*
X18227382Y71273363D01*
X18227382Y71273363D02*
X18227382Y71165614D01*
X18227382Y71165614D02*
X18173507Y71057864D01*
X18173507Y71057864D02*
X18038820Y70923177D01*
X15995638Y62737491D02*
X15914826Y62710554D01*
X15914826Y62710554D02*
X15834014Y62629742D01*
X15834014Y62629742D02*
X15780139Y62521992D01*
X15780139Y62521992D02*
X15780139Y62414242D01*
X15780139Y62414242D02*
X15807077Y62333430D01*
X15807077Y62333430D02*
X15887889Y62198743D01*
X15887889Y62198743D02*
X15968701Y62117931D01*
X15968701Y62117931D02*
X16103388Y62037119D01*
X16103388Y62037119D02*
X16184200Y62010181D01*
X16184200Y62010181D02*
X16291950Y62010181D01*
X16291950Y62010181D02*
X16399699Y62064056D01*
X16399699Y62064056D02*
X16453574Y62117931D01*
X16453574Y62117931D02*
X16507449Y62225681D01*
X16507449Y62225681D02*
X16507449Y62279555D01*
X16507449Y62279555D02*
X16318887Y62468117D01*
X16318887Y62468117D02*
X16211138Y62360368D01*
X16803760Y62468117D02*
X16238075Y63033803D01*
X16238075Y63033803D02*
X16453574Y63249302D01*
X16453574Y63249302D02*
X16534386Y63276239D01*
X16534386Y63276239D02*
X16588261Y63276239D01*
X16588261Y63276239D02*
X16669073Y63249302D01*
X16669073Y63249302D02*
X16749886Y63168490D01*
X16749886Y63168490D02*
X16776823Y63087677D01*
X16776823Y63087677D02*
X16776823Y63033803D01*
X16776823Y63033803D02*
X16749886Y62952990D01*
X16749886Y62952990D02*
X16534386Y62737491D01*
X17665757Y63330114D02*
X17342508Y63006865D01*
X17504133Y63168490D02*
X16938447Y63734175D01*
X16938447Y63734175D02*
X16965385Y63599488D01*
X16965385Y63599488D02*
X16965385Y63491739D01*
X16965385Y63491739D02*
X16938447Y63410926D01*
X17369446Y64057424D02*
X17369446Y64111299D01*
X17369446Y64111299D02*
X17396383Y64192111D01*
X17396383Y64192111D02*
X17531070Y64326798D01*
X17531070Y64326798D02*
X17611883Y64353736D01*
X17611883Y64353736D02*
X17665757Y64353736D01*
X17665757Y64353736D02*
X17746570Y64326798D01*
X17746570Y64326798D02*
X17800444Y64272923D01*
X17800444Y64272923D02*
X17854319Y64165174D01*
X17854319Y64165174D02*
X17854319Y63518676D01*
X17854319Y63518676D02*
X18204505Y63868862D01*
X16141638Y67817491D02*
X16060826Y67790554D01*
X16060826Y67790554D02*
X15980014Y67709742D01*
X15980014Y67709742D02*
X15926139Y67601992D01*
X15926139Y67601992D02*
X15926139Y67494242D01*
X15926139Y67494242D02*
X15953077Y67413430D01*
X15953077Y67413430D02*
X16033889Y67278743D01*
X16033889Y67278743D02*
X16114701Y67197931D01*
X16114701Y67197931D02*
X16249388Y67117119D01*
X16249388Y67117119D02*
X16330200Y67090181D01*
X16330200Y67090181D02*
X16437950Y67090181D01*
X16437950Y67090181D02*
X16545699Y67144056D01*
X16545699Y67144056D02*
X16599574Y67197931D01*
X16599574Y67197931D02*
X16653449Y67305681D01*
X16653449Y67305681D02*
X16653449Y67359555D01*
X16653449Y67359555D02*
X16464887Y67548117D01*
X16464887Y67548117D02*
X16357138Y67440368D01*
X16949760Y67548117D02*
X16384075Y68113803D01*
X16384075Y68113803D02*
X16599574Y68329302D01*
X16599574Y68329302D02*
X16680386Y68356239D01*
X16680386Y68356239D02*
X16734261Y68356239D01*
X16734261Y68356239D02*
X16815073Y68329302D01*
X16815073Y68329302D02*
X16895886Y68248490D01*
X16895886Y68248490D02*
X16922823Y68167677D01*
X16922823Y68167677D02*
X16922823Y68113803D01*
X16922823Y68113803D02*
X16895886Y68032990D01*
X16895886Y68032990D02*
X16680386Y67817491D01*
X17811757Y68410114D02*
X17488508Y68086865D01*
X17650133Y68248490D02*
X17084447Y68814175D01*
X17084447Y68814175D02*
X17111385Y68679488D01*
X17111385Y68679488D02*
X17111385Y68571739D01*
X17111385Y68571739D02*
X17084447Y68490926D01*
X17596258Y69325986D02*
X17650133Y69379861D01*
X17650133Y69379861D02*
X17730945Y69406798D01*
X17730945Y69406798D02*
X17784820Y69406798D01*
X17784820Y69406798D02*
X17865632Y69379861D01*
X17865632Y69379861D02*
X18000319Y69299049D01*
X18000319Y69299049D02*
X18135006Y69164362D01*
X18135006Y69164362D02*
X18215818Y69029674D01*
X18215818Y69029674D02*
X18242756Y68948862D01*
X18242756Y68948862D02*
X18242756Y68894987D01*
X18242756Y68894987D02*
X18215818Y68814175D01*
X18215818Y68814175D02*
X18161944Y68760300D01*
X18161944Y68760300D02*
X18081131Y68733363D01*
X18081131Y68733363D02*
X18027257Y68733363D01*
X18027257Y68733363D02*
X17946444Y68760300D01*
X17946444Y68760300D02*
X17811757Y68841113D01*
X17811757Y68841113D02*
X17677070Y68975800D01*
X17677070Y68975800D02*
X17596258Y69110487D01*
X17596258Y69110487D02*
X17569321Y69191299D01*
X17569321Y69191299D02*
X17569321Y69245174D01*
X17569321Y69245174D02*
X17596258Y69325986D01*
D10*
%TO.C,TP3*%
X15300000Y78300000D02*
G75*
G03*
X15300000Y78300000I-700000J0D01*
G01*
%TO.C,TP2*%
X16800000Y76900000D02*
G75*
G03*
X16800000Y76900000I-700000J0D01*
G01*
%TO.C,TP1*%
X15300000Y75550000D02*
G75*
G03*
X15300000Y75550000I-700000J0D01*
G01*
%TO.C,U2*%
X14200000Y99833000D02*
X16207000Y99833000D01*
X16207000Y99833000D02*
X16207000Y101600000D01*
%TD*%
%LPC*%
D13*
%TO.C,TP3*%
X14600000Y78300000D03*
%TD*%
%TO.C,TP2*%
X16100000Y76900000D03*
%TD*%
%TO.C,TP1*%
X14600000Y75550000D03*
%TD*%
D14*
%TO.C,J2*%
X14870000Y73325000D03*
X14870000Y80475000D03*
X18320000Y80475000D03*
X18320000Y73325000D03*
D15*
X17000000Y74900000D03*
X17000000Y78900000D03*
%TD*%
D16*
%TO.C,U2*%
X20974999Y100999999D03*
D17*
X21274999Y97969999D03*
X26124999Y97969999D03*
D16*
X26424999Y100999999D03*
D18*
X14809999Y101129999D03*
X14809999Y98589999D03*
D19*
X14809999Y96049999D03*
D18*
X14809999Y93509999D03*
X14809999Y90969999D03*
X14809999Y88429999D03*
X14809999Y85889999D03*
D19*
X14809999Y83349999D03*
X14809999Y70649999D03*
D18*
X14809999Y68109999D03*
X14809999Y65569999D03*
X14809999Y63029999D03*
X14809999Y60489999D03*
D19*
X14809999Y57949999D03*
D18*
X14809999Y55409999D03*
X14809999Y52869999D03*
X32589999Y52869999D03*
X32589999Y55409999D03*
D19*
X32589999Y57949999D03*
D18*
X32589999Y60489999D03*
X32589999Y63029999D03*
X32589999Y65569999D03*
X32589999Y68109999D03*
D19*
X32589999Y70649999D03*
X32589999Y83349999D03*
D18*
X32589999Y85889999D03*
X32589999Y88429999D03*
X32589999Y90969999D03*
X32589999Y93509999D03*
D19*
X32589999Y96049999D03*
D18*
X32589999Y101129999D03*
%TD*%
D20*
%TO.C,J5*%
X23700000Y99650000D03*
D21*
X30099999Y100349999D03*
X17299999Y100349999D03*
%TD*%
D20*
%TO.C,J4*%
X23700000Y54050000D03*
D21*
X17299999Y53349999D03*
X30099999Y53349999D03*
%TD*%
M02*
