%TF.GenerationSoftware,KiCad,Pcbnew,(7.0.0)*%
%TF.CreationDate,2023-03-17T13:32:38-05:00*%
%TF.ProjectId,adbuino,61646275-696e-46f2-9e6b-696361645f70,rev?*%
%TF.SameCoordinates,Original*%
%TF.FileFunction,Soldermask,Top*%
%TF.FilePolarity,Negative*%
%FSLAX46Y46*%
G04 Gerber Fmt 4.6, Leading zero omitted, Abs format (unit mm)*
G04 Created by KiCad (PCBNEW (7.0.0)) date 2023-03-17 13:32:38*
%MOMM*%
%LPD*%
G01*
G04 APERTURE LIST*
%ADD10C,1.000000*%
%ADD11C,2.000000*%
%ADD12C,0.001000*%
%ADD13O,1.800000X1.800000*%
%ADD14O,1.500000X1.500000*%
%ADD15O,1.700000X1.700000*%
%ADD16R,1.700000X1.700000*%
%ADD17C,3.316000*%
%ADD18O,1.800000X3.600000*%
G04 APERTURE END LIST*
D10*
%TO.C,TP3*%
X14600000Y78300000D03*
%TD*%
%TO.C,TP2*%
X16100000Y76900000D03*
%TD*%
%TO.C,TP1*%
X14600000Y75550000D03*
%TD*%
D11*
%TO.C,J2*%
X14870000Y73325000D03*
X14870000Y80475000D03*
X18320000Y80475000D03*
X18320000Y73325000D03*
D12*
X17000000Y74900000D03*
X17000000Y78900000D03*
%TD*%
D13*
%TO.C,U2*%
X20974999Y100999999D03*
D14*
X21274999Y97969999D03*
X26124999Y97969999D03*
D13*
X26424999Y100999999D03*
D15*
X14809999Y101129999D03*
X14809999Y98589999D03*
D16*
X14809999Y96049999D03*
D15*
X14809999Y93509999D03*
X14809999Y90969999D03*
X14809999Y88429999D03*
X14809999Y85889999D03*
D16*
X14809999Y83349999D03*
X14809999Y70649999D03*
D15*
X14809999Y68109999D03*
X14809999Y65569999D03*
X14809999Y63029999D03*
X14809999Y60489999D03*
D16*
X14809999Y57949999D03*
D15*
X14809999Y55409999D03*
X14809999Y52869999D03*
X32589999Y52869999D03*
X32589999Y55409999D03*
D16*
X32589999Y57949999D03*
D15*
X32589999Y60489999D03*
X32589999Y63029999D03*
X32589999Y65569999D03*
X32589999Y68109999D03*
D16*
X32589999Y70649999D03*
X32589999Y83349999D03*
D15*
X32589999Y85889999D03*
X32589999Y88429999D03*
X32589999Y90969999D03*
X32589999Y93509999D03*
D16*
X32589999Y96049999D03*
D15*
X32589999Y101129999D03*
%TD*%
D17*
%TO.C,J5*%
X23700000Y99650000D03*
D18*
X30099999Y100349999D03*
X17299999Y100349999D03*
%TD*%
D17*
%TO.C,J4*%
X23700000Y54050000D03*
D18*
X17299999Y53349999D03*
X30099999Y53349999D03*
%TD*%
M02*
