%TF.GenerationSoftware,KiCad,Pcbnew,(7.0.0)*%
%TF.CreationDate,2023-03-17T13:32:38-05:00*%
%TF.ProjectId,adbuino,61646275-696e-46f2-9e6b-696361645f70,rev?*%
%TF.SameCoordinates,Original*%
%TF.FileFunction,Paste,Bot*%
%TF.FilePolarity,Positive*%
%FSLAX46Y46*%
G04 Gerber Fmt 4.6, Leading zero omitted, Abs format (unit mm)*
G04 Created by KiCad (PCBNEW (7.0.0)) date 2023-03-17 13:32:38*
%MOMM*%
%LPD*%
G01*
G04 APERTURE LIST*
G04 Aperture macros list*
%AMRoundRect*
0 Rectangle with rounded corners*
0 $1 Rounding radius*
0 $2 $3 $4 $5 $6 $7 $8 $9 X,Y pos of 4 corners*
0 Add a 4 corners polygon primitive as box body*
4,1,4,$2,$3,$4,$5,$6,$7,$8,$9,$2,$3,0*
0 Add four circle primitives for the rounded corners*
1,1,$1+$1,$2,$3*
1,1,$1+$1,$4,$5*
1,1,$1+$1,$6,$7*
1,1,$1+$1,$8,$9*
0 Add four rect primitives between the rounded corners*
20,1,$1+$1,$2,$3,$4,$5,0*
20,1,$1+$1,$4,$5,$6,$7,0*
20,1,$1+$1,$6,$7,$8,$9,0*
20,1,$1+$1,$8,$9,$2,$3,0*%
G04 Aperture macros list end*
%ADD10R,1.400000X0.400000*%
%ADD11RoundRect,0.135000X-0.185000X0.135000X-0.185000X-0.135000X0.185000X-0.135000X0.185000X0.135000X0*%
%ADD12RoundRect,0.243750X0.243750X0.456250X-0.243750X0.456250X-0.243750X-0.456250X0.243750X-0.456250X0*%
%ADD13R,0.900000X3.500000*%
%ADD14RoundRect,0.150000X-0.150000X0.587500X-0.150000X-0.587500X0.150000X-0.587500X0.150000X0.587500X0*%
%ADD15RoundRect,0.243750X-0.456250X0.243750X-0.456250X-0.243750X0.456250X-0.243750X0.456250X0.243750X0*%
%ADD16RoundRect,0.225000X-0.225000X-0.375000X0.225000X-0.375000X0.225000X0.375000X-0.225000X0.375000X0*%
%ADD17RoundRect,0.225000X0.375000X-0.225000X0.375000X0.225000X-0.375000X0.225000X-0.375000X-0.225000X0*%
G04 APERTURE END LIST*
D10*
%TO.C,J2*%
X17819999Y75599999D03*
X17819999Y76249999D03*
X17819999Y76899999D03*
X17819999Y77549999D03*
X17819999Y78199999D03*
%TD*%
D11*
%TO.C,R6*%
X25850000Y67720000D03*
X25850000Y66700000D03*
%TD*%
%TO.C,R1*%
X21750000Y67720000D03*
X21750000Y66700000D03*
%TD*%
%TO.C,R2*%
X19850000Y67720000D03*
X19850000Y66700000D03*
%TD*%
D12*
%TO.C,D1*%
X33200000Y77151250D03*
X31325000Y77151250D03*
%TD*%
%TO.C,D3*%
X33200000Y80550000D03*
X31325000Y80550000D03*
%TD*%
D11*
%TO.C,R4*%
X28662500Y77661250D03*
X28662500Y76641250D03*
%TD*%
%TO.C,R5*%
X28662500Y74262500D03*
X28662500Y73242500D03*
%TD*%
%TO.C,R12*%
X28662500Y81060000D03*
X28662500Y80040000D03*
%TD*%
D13*
%TO.C,J5*%
X26399999Y94549999D03*
X20999999Y94549999D03*
X28199999Y94549999D03*
X19199999Y94549999D03*
%TD*%
D14*
%TO.C,Q2*%
X25850000Y64937500D03*
X27750000Y64937500D03*
X26800000Y63062500D03*
%TD*%
D12*
%TO.C,D2*%
X33200000Y73752500D03*
X31325000Y73752500D03*
%TD*%
D14*
%TO.C,Q1*%
X19850000Y64937500D03*
X21750000Y64937500D03*
X20800000Y63062500D03*
%TD*%
D11*
%TO.C,R3*%
X27750000Y67720000D03*
X27750000Y66700000D03*
%TD*%
D13*
%TO.C,J4*%
X20999999Y59149999D03*
X26399999Y59149999D03*
X19199999Y59149999D03*
X28199999Y59149999D03*
%TD*%
D15*
%TO.C,F2*%
X17700000Y70137500D03*
X17700000Y68262500D03*
%TD*%
D16*
%TO.C,D4*%
X18300000Y90350000D03*
X21600000Y90350000D03*
%TD*%
D12*
%TO.C,F1*%
X28287500Y90350000D03*
X26412500Y90350000D03*
%TD*%
D17*
%TO.C,D5*%
X17700000Y62850000D03*
X17700000Y66150000D03*
%TD*%
M02*
