M48
; DRILL file {KiCad (7.0.0)} date Fri Mar 17 13:32:38 2023
; FORMAT={-:-/ absolute / inch / decimal}
; #@! TF.CreationDate,2023-03-17T13:32:38-05:00
; #@! TF.GenerationSoftware,Kicad,Pcbnew,(7.0.0)
; #@! TF.FileFunction,Plated,1,2,PTH
FMAT,2
INCH
; #@! TA.AperFunction,Plated,PTH,ViaDrill
T1C0.0079
; #@! TA.AperFunction,Plated,PTH,ViaDrill
T2C0.0157
; #@! TA.AperFunction,Plated,PTH,ViaDrill
T3C0.0197
; #@! TA.AperFunction,Plated,PTH,ComponentDrill
T4C0.0394
; #@! TA.AperFunction,Plated,PTH,ComponentDrill
T5C0.0402
; #@! TA.AperFunction,Plated,PTH,ComponentDrill
T6C0.0523
; #@! TA.AperFunction,Plated,PTH,ComponentDrill
T7C0.0906
%
G90
G05
T1
X0.7598Y3.0531
X0.7598Y3.0276
X0.7598Y3.002
T2
X0.7638Y2.435
X0.7992Y3.3976
X0.7992Y2.9213
X0.9035Y3.0551
X0.9035Y2.7421
X0.9114Y2.4429
X0.9154Y3.75
X0.9587Y3.1909
X0.9646Y3.7205
X0.9852Y2.4872
X1.0157Y3.2402
T3
X0.6909Y2.5354
X0.876Y2.3563
X0.9016Y3.5098
X0.9055Y2.2751
X0.9626Y2.3425
X0.997Y3.6339
X1.1713Y2.2303
X1.187Y3.6102
T5
X0.5831Y3.9815
X0.5831Y3.8815
X0.5831Y3.7815
X0.5831Y3.6815
X0.5831Y3.5815
X0.5831Y3.4815
X0.5831Y3.3815
X0.5831Y3.2815
X0.5831Y2.7815
X0.5831Y2.6815
X0.5831Y2.5815
X0.5831Y2.4815
X0.5831Y2.3815
X0.5831Y2.2815
X0.5831Y2.1815
X0.5831Y2.0815
X1.2831Y3.9815
X1.2831Y3.7815
X1.2831Y3.6815
X1.2831Y3.5815
X1.2831Y3.4815
X1.2831Y3.3815
X1.2831Y3.2815
X1.2831Y2.7815
X1.2831Y2.6815
X1.2831Y2.5815
X1.2831Y2.4815
X1.2831Y2.3815
X1.2831Y2.2815
X1.2831Y2.1815
X1.2831Y2.0815
T6
X0.5854Y3.1683
X0.5854Y2.8868
X0.7213Y3.1683
X0.7213Y2.8868
T7
X0.9331Y3.9232
X0.9331Y2.128
T4
G00X0.6811Y3.9272
M15
G01X0.6811Y3.9744
M16
G05
G00X0.6811Y2.124
M15
G01X0.6811Y2.0768
M16
G05
G00X1.185Y3.9272
M15
G01X1.185Y3.9744
M16
G05
G00X1.185Y2.124
M15
G01X1.185Y2.0768
M16
G05
T0
M30
