<?xml version="1.0" encoding="UTF-8" standalone="no"?>
<!-- Created with Inkscape (http://www.inkscape.org/) -->

<svg
   xmlns:dc="http://purl.org/dc/elements/1.1/"
   xmlns:cc="http://creativecommons.org/ns#"
   xmlns:rdf="http://www.w3.org/1999/02/22-rdf-syntax-ns#"
   xmlns:svg="http://www.w3.org/2000/svg"
   xmlns="http://www.w3.org/2000/svg"
   xmlns:sodipodi="http://sodipodi.sourceforge.net/DTD/sodipodi-0.dtd"
   xmlns:inkscape="http://www.inkscape.org/namespaces/inkscape"
   width="50mm"
   height="50mm"
   viewBox="0 0 50 50.000009"
   version="1.1"
   id="svg67"
   inkscape:version="0.92.3 (2405546, 2018-03-11)"
   sodipodi:docname="cart2.svg">
  <defs
     id="defs61" />
  <sodipodi:namedview
     id="base"
     pagecolor="#ffffff"
     bordercolor="#666666"
     borderopacity="1.0"
     inkscape:pageopacity="0.0"
     inkscape:pageshadow="2"
     inkscape:zoom="1.979899"
     inkscape:cx="-31.381977"
     inkscape:cy="81.12223"
     inkscape:document-units="mm"
     inkscape:current-layer="layer1"
     showgrid="false"
     inkscape:window-width="1920"
     inkscape:window-height="1057"
     inkscape:window-x="-8"
     inkscape:window-y="-8"
     inkscape:window-maximized="1" />
  <metadata
     id="metadata64">
    <rdf:RDF>
      <cc:Work
         rdf:about="">
        <dc:format>image/svg+xml</dc:format>
        <dc:type
           rdf:resource="http://purl.org/dc/dcmitype/StillImage" />
        <dc:title />
      </cc:Work>
    </rdf:RDF>
  </metadata>
  <g
     inkscape:label="Calque 1"
     inkscape:groupmode="layer"
     id="layer1"
     transform="translate(-52.48174,-33.376992)">
    <path
       style="fill:#32cd32;fill-opacity:1;stroke-width:0.14320874"
       d="m 91.049345,67.559071 c -0.899493,-2.960864 -1.644237,-5.397768 -1.654988,-5.415346 -0.01076,-0.01758 -3.103834,0.90353 -6.873513,2.0469 -3.769679,1.143372 -6.925387,2.051449 -7.012684,2.017951 -0.08729,-0.03349 -0.540492,-1.318996 -1.007101,-2.856663 l -0.848383,-2.795754 -7.454181,-3.968242 c -4.099798,-2.182531 -7.483862,-3.995949 -7.520139,-4.029818 -0.09887,-0.09231 1.62086,-3.337691 1.770106,-3.340437 0.07087,-0.0013 3.812487,1.963182 8.314702,4.365524 l 8.185848,4.367895 0.47232,1.627676 c 0.259778,0.895224 0.513685,1.691575 0.564242,1.76967 0.05562,0.08592 2.665531,-0.640574 6.607919,-1.839345 3.583796,-1.089735 6.712594,-2.019749 6.952883,-2.066699 l 0.436885,-0.08535 1.656679,5.345108 1.65667,5.345111 -1.00923,1.927856 c -0.55508,1.060324 -1.14274,2.161747 -1.30591,2.447613 l -0.29669,0.519749 z"
       id="path13"
       inkscape:connector-curvature="0" />
    <path
       style="fill:#000000;stroke-width:0.14320874"
       d="m 91.216084,62.954733 c -0.899493,-2.960862 -1.644237,-5.397766 -1.654988,-5.415344 -0.01076,-0.01758 -3.103834,0.90353 -6.873513,2.0469 -3.76968,1.143371 -6.925387,2.051449 -7.012685,2.017951 -0.08729,-0.03349 -0.540491,-1.318998 -1.007101,-2.856663 l -0.848382,-2.795754 -7.454182,-3.968242 c -4.099797,-2.182532 -7.483861,-3.995951 -7.520138,-4.02982 -0.09887,-0.09231 1.620859,-3.337691 1.770106,-3.340437 0.07087,-0.0013 3.812487,1.963182 8.314702,4.365526 l 8.185848,4.367893 0.47232,1.627678 c 0.259777,0.895224 0.513685,1.691573 0.564242,1.769669 0.05562,0.08591 2.665531,-0.640573 6.607919,-1.839344 3.583796,-1.089737 6.712593,-2.01975 6.952882,-2.0667 l 0.436886,-0.08535 1.65668,5.34511 1.65667,5.345111 -1.00923,1.927856 c -0.55508,1.060324 -1.14274,2.161746 -1.30592,2.447613 l -0.296677,0.519747 z"
       id="path13-4"
       inkscape:connector-curvature="0" />
  </g>
</svg>
