%TF.GenerationSoftware,KiCad,Pcbnew,(5.1.9-16-g1737927814)-1*%
%TF.CreationDate,2021-10-14T17:25:43-05:00*%
%TF.ProjectId,adbuino,61646275-696e-46f2-9e6b-696361645f70,rev?*%
%TF.SameCoordinates,Original*%
%TF.FileFunction,Copper,L2,Bot*%
%TF.FilePolarity,Positive*%
%FSLAX46Y46*%
G04 Gerber Fmt 4.6, Leading zero omitted, Abs format (unit mm)*
G04 Created by KiCad (PCBNEW (5.1.9-16-g1737927814)-1) date 2021-10-14 17:25:43*
%MOMM*%
%LPD*%
G01*
G04 APERTURE LIST*
%TA.AperFunction,SMDPad,CuDef*%
%ADD10R,3.500000X0.900000*%
%TD*%
%TA.AperFunction,ComponentPad*%
%ADD11O,3.600000X1.800000*%
%TD*%
%TA.AperFunction,ComponentPad*%
%ADD12C,3.316000*%
%TD*%
%TA.AperFunction,ComponentPad*%
%ADD13O,1.700000X1.700000*%
%TD*%
%TA.AperFunction,ComponentPad*%
%ADD14R,1.700000X1.700000*%
%TD*%
%TA.AperFunction,ComponentPad*%
%ADD15C,2.000000*%
%TD*%
%TA.AperFunction,SMDPad,CuDef*%
%ADD16R,1.400000X0.400000*%
%TD*%
%TA.AperFunction,ComponentPad*%
%ADD17C,1.000000*%
%TD*%
%TA.AperFunction,ComponentPad*%
%ADD18C,1.600000*%
%TD*%
%TA.AperFunction,ComponentPad*%
%ADD19R,1.500000X1.600000*%
%TD*%
%TA.AperFunction,ComponentPad*%
%ADD20C,3.000000*%
%TD*%
%TA.AperFunction,ViaPad*%
%ADD21C,0.800000*%
%TD*%
%TA.AperFunction,Conductor*%
%ADD22C,0.250000*%
%TD*%
%TA.AperFunction,Conductor*%
%ADD23C,0.150000*%
%TD*%
%TA.AperFunction,Conductor*%
%ADD24C,0.400000*%
%TD*%
%TA.AperFunction,Conductor*%
%ADD25C,0.254000*%
%TD*%
%TA.AperFunction,Conductor*%
%ADD26C,0.100000*%
%TD*%
G04 APERTURE END LIST*
D10*
%TO.P,J5,3*%
%TO.N,ADB_1_5v*%
X33156000Y-62810000D03*
%TO.P,J5,1*%
%TO.N,ADB_1_DATA*%
X33156000Y-64610000D03*
%TO.P,J5,2*%
%TO.N,ADB_1_PWR_ON*%
X33156000Y-70010000D03*
%TO.P,J5,4*%
%TO.N,GND*%
X33156000Y-71810000D03*
D11*
%TO.P,J5,S3*%
X27356000Y-73710000D03*
%TO.P,J5,S2*%
X27356000Y-60910000D03*
D12*
%TO.P,J5,S1*%
X28056000Y-67310000D03*
%TD*%
D10*
%TO.P,J4,3*%
%TO.N,ADB_1_5v*%
X41774000Y-71810000D03*
%TO.P,J4,1*%
%TO.N,ADB_1_DATA*%
X41774000Y-70010000D03*
%TO.P,J4,2*%
%TO.N,ADB_1_PWR_ON*%
X41774000Y-64610000D03*
%TO.P,J4,4*%
%TO.N,GND*%
X41774000Y-62810000D03*
D11*
%TO.P,J4,S3*%
X47574000Y-60910000D03*
%TO.P,J4,S2*%
X47574000Y-73710000D03*
D12*
%TO.P,J4,S1*%
X46874000Y-67310000D03*
%TD*%
D13*
%TO.P,J6,6*%
%TO.N,GND*%
X33020000Y-56134000D03*
%TO.P,J6,5*%
%TO.N,/RESET*%
X30480000Y-56134000D03*
%TO.P,J6,4*%
%TO.N,ATMEGA_SPI_MOSI*%
X33020000Y-53594000D03*
%TO.P,J6,3*%
%TO.N,ATMEGA_SPI_SCLK*%
X30480000Y-53594000D03*
%TO.P,J6,2*%
%TO.N,+3V3*%
X33020000Y-51054000D03*
D14*
%TO.P,J6,1*%
%TO.N,ATMEGA_SPI_MISO*%
X30480000Y-51054000D03*
%TD*%
D15*
%TO.P,J2,MH4*%
%TO.N,GND*%
X43743000Y-28683000D03*
%TO.P,J2,MH3*%
X43743000Y-35833000D03*
%TO.P,J2,MH2*%
X47193000Y-35833000D03*
%TO.P,J2,MH1*%
X47193000Y-28683000D03*
D16*
%TO.P,J2,5*%
X44243000Y-33558000D03*
%TO.P,J2,4*%
%TO.N,Net-(J2-Pad4)*%
X44243000Y-32908000D03*
%TO.P,J2,3*%
%TO.N,Net-(J2-Pad3)*%
X44243000Y-32258000D03*
%TO.P,J2,2*%
%TO.N,Net-(J2-Pad2)*%
X44243000Y-31608000D03*
%TO.P,J2,1*%
%TO.N,VBUS*%
X44243000Y-30958000D03*
%TD*%
D17*
%TO.P,TP3,1*%
%TO.N,Net-(J2-Pad4)*%
X48768000Y-33782000D03*
%TD*%
D13*
%TO.P,J7,2*%
%TO.N,OPTION_SELECT*%
X45212000Y-39116000D03*
D14*
%TO.P,J7,1*%
%TO.N,GND*%
X47752000Y-39116000D03*
%TD*%
D17*
%TO.P,TP2,1*%
%TO.N,Net-(J2-Pad3)*%
X47244000Y-32258000D03*
%TD*%
%TO.P,TP1,1*%
%TO.N,Net-(J2-Pad2)*%
X48768000Y-30734000D03*
%TD*%
D13*
%TO.P,J1,6*%
%TO.N,FTDI_DTR*%
X48000000Y-57700000D03*
%TO.P,J1,5*%
%TO.N,FTDI_TXO*%
X48000000Y-55160000D03*
%TO.P,J1,4*%
%TO.N,FTDI_RXI*%
X48000000Y-52620000D03*
%TO.P,J1,3*%
%TO.N,+3V3*%
X48000000Y-50080000D03*
%TO.P,J1,2*%
%TO.N,N/C*%
X48000000Y-47540000D03*
D14*
%TO.P,J1,1*%
%TO.N,GND*%
X48000000Y-45000000D03*
%TD*%
D18*
%TO.P,J3,4*%
%TO.N,GND*%
X37338000Y-30084000D03*
%TO.P,J3,3*%
%TO.N,Net-(J3-Pad3)*%
X37338000Y-32584000D03*
%TO.P,J3,2*%
%TO.N,Net-(J3-Pad2)*%
X37338000Y-34584000D03*
D19*
%TO.P,J3,1*%
%TO.N,Net-(F1-Pad1)*%
X37338000Y-37084000D03*
D20*
%TO.P,J3,5*%
%TO.N,GND*%
X34628000Y-27014000D03*
X34628000Y-40154000D03*
%TD*%
D21*
%TO.N,ADB_1_5v*%
X38998961Y-71118403D03*
X37336000Y-71372000D03*
%TO.N,ADB_1_DATA*%
X41656000Y-70612000D03*
X37338000Y-72898000D03*
%TO.N,ADB_1_PWR_ON*%
X40640000Y-63860002D03*
X35650371Y-64284307D03*
X30525904Y-70845670D03*
%TO.N,GND*%
X32258000Y-38862000D03*
X45837203Y-52399406D03*
X39878000Y-51562000D03*
X39370000Y-56388000D03*
X41025313Y-68959998D03*
X44196000Y-69088000D03*
X28702000Y-40132000D03*
X27432000Y-53086000D03*
X34000709Y-68824979D03*
X34544000Y-45212000D03*
X27432000Y-45212000D03*
X39782252Y-46434126D03*
X39818200Y-48681010D03*
X30947587Y-69129313D03*
X39370000Y-66040000D03*
X31750000Y-66548000D03*
%TO.N,+3V3*%
X30347920Y-32420560D03*
X31790640Y-34925000D03*
X36576000Y-61976000D03*
X31787188Y-42073980D03*
X36097419Y-43910029D03*
X38354000Y-40640000D03*
X36561474Y-52471001D03*
X44958000Y-74375000D03*
X37592000Y-74375000D03*
X29718000Y-74375000D03*
X36576000Y-57658000D03*
X37450393Y-65242238D03*
X38234587Y-69931824D03*
%TO.N,VBUS*%
X33401000Y-34066480D03*
%TO.N,Host_USB_D-*%
X40519218Y-33425727D03*
X39458683Y-45480769D03*
%TO.N,Host_USB_D+*%
X39654480Y-32923480D03*
X38800490Y-46243950D03*
%TO.N,FTDI_DTR*%
X45899763Y-64466459D03*
%TO.N,Net-(C10-Pad1)*%
X41656000Y-47498000D03*
X40640000Y-35814000D03*
%TO.N,Net-(C11-Pad1)*%
X41315010Y-40894000D03*
X41315010Y-46043804D03*
%TO.N,MAX3421_INT*%
X35579305Y-61894624D03*
X37592000Y-54864000D03*
X37149609Y-42799000D03*
X35569021Y-54864025D03*
%TO.N,MAX3421_GPX*%
X38519658Y-41821195D03*
X37376010Y-60187503D03*
%TO.N,ADB_DATA_LV*%
X44958000Y-70612000D03*
X45024022Y-62017753D03*
%TO.N,ADB_PWR_ON_LV*%
X35327096Y-73774980D03*
X35555525Y-66084330D03*
%TO.N,FTDI_TXO*%
X44574011Y-64969804D03*
%TO.N,FTDI_RXI*%
X42819184Y-66851295D03*
%TO.N,/RESET*%
X49375000Y-51816000D03*
X47244000Y-65024000D03*
X33782000Y-54864000D03*
%TO.N,DEBUG_LED*%
X29718000Y-59690000D03*
X31014052Y-67310000D03*
%TO.N,ATMEGA_SS*%
X39073998Y-62235017D03*
X44882152Y-41763006D03*
%TO.N,ATMEGA_SPI_MOSI*%
X37743876Y-62721639D03*
X31418031Y-61423083D03*
X43433413Y-40385408D03*
%TO.N,ATMEGA_SPI_MISO*%
X44137485Y-41095553D03*
X30455989Y-62864202D03*
X38607953Y-63244069D03*
%TO.N,ATMEGA_SPI_SCLK*%
X45298990Y-42672000D03*
X38973782Y-64693862D03*
X30820202Y-65763793D03*
%TO.N,MAX3421_RESET*%
X34544000Y-47752000D03*
X33770361Y-58431639D03*
%TO.N,Net-(JP1-Pad2)*%
X41575998Y-72898000D03*
X48006000Y-71882000D03*
%TO.N,Net-(JP4-Pad2)*%
X33354002Y-72898000D03*
X27940000Y-69850000D03*
%TO.N,OPTION_SELECT*%
X43584065Y-59332969D03*
%TO.N,Net-(D4-Pad2)*%
X27686000Y-55372000D03*
X28732695Y-62961305D03*
%TD*%
D22*
%TO.N,ADB_1_5v*%
X33156000Y-62810000D02*
X35957591Y-62810000D01*
X35957591Y-62810000D02*
X36725383Y-63577792D01*
X36725383Y-63577792D02*
X36725383Y-64892013D01*
X36725383Y-64892013D02*
X36723160Y-64894236D01*
X41774000Y-71810000D02*
X39690558Y-71810000D01*
X39690558Y-71810000D02*
X38998961Y-71118403D01*
X36725383Y-70761383D02*
X37336000Y-71372000D01*
X36725383Y-64892013D02*
X36725383Y-70761383D01*
%TO.N,ADB_1_DATA*%
X41818560Y-69965440D02*
X41774000Y-70010000D01*
D23*
X41656000Y-70128000D02*
X41774000Y-70010000D01*
X41656000Y-70612000D02*
X41656000Y-70128000D01*
X41774000Y-70010000D02*
X39874000Y-70010000D01*
X36323149Y-65590849D02*
X36323149Y-69848851D01*
X35974372Y-63609306D02*
X36325372Y-63960306D01*
X33156000Y-64610000D02*
X34156694Y-63609306D01*
X36325372Y-64708928D02*
X36175991Y-64858309D01*
X36175991Y-65443691D02*
X36323149Y-65590849D01*
X36325372Y-63960306D02*
X36325372Y-64708928D01*
X34156694Y-63609306D02*
X35974372Y-63609306D01*
X36175991Y-64858309D02*
X36175991Y-65443691D01*
X36323149Y-71883149D02*
X37338000Y-72898000D01*
X36323149Y-69848851D02*
X36323149Y-71883149D01*
D22*
%TO.N,ADB_1_PWR_ON*%
X41774000Y-64610000D02*
X41712130Y-64671870D01*
X41389998Y-64610000D02*
X40640000Y-63860002D01*
X41774000Y-64610000D02*
X41389998Y-64610000D01*
X33156000Y-70010000D02*
X32376075Y-70010000D01*
X35650371Y-64841412D02*
X35650371Y-64284307D01*
X33156000Y-67335783D02*
X35650371Y-64841412D01*
X33156000Y-70010000D02*
X33156000Y-67335783D01*
X33156000Y-70010000D02*
X33156000Y-67855612D01*
D23*
X31361574Y-70010000D02*
X30525904Y-70845670D01*
X33156000Y-70010000D02*
X31361574Y-70010000D01*
D22*
%TO.N,GND*%
X33336000Y-38862000D02*
X34628000Y-40154000D01*
X32258000Y-38862000D02*
X33336000Y-38862000D01*
X44243000Y-33558000D02*
X42642000Y-33558000D01*
X42642000Y-33558000D02*
X42672000Y-33588000D01*
X42672000Y-34762000D02*
X43743000Y-35833000D01*
X42672000Y-33588000D02*
X42672000Y-34762000D01*
X44243000Y-33558000D02*
X45750000Y-33558000D01*
X45750000Y-33558000D02*
X46228000Y-34036000D01*
X46228000Y-34868000D02*
X47193000Y-35833000D01*
X46228000Y-34036000D02*
X46228000Y-34868000D01*
X41774000Y-62810000D02*
X41774000Y-63128000D01*
D23*
X33156000Y-71810000D02*
X34282363Y-71810000D01*
X33156000Y-71810000D02*
X31856000Y-71810000D01*
D24*
X33156000Y-71810000D02*
X32035998Y-71810000D01*
X28056000Y-67310000D02*
X28056000Y-68304026D01*
D23*
X44196000Y-69088000D02*
X43434000Y-68326000D01*
X41659311Y-68326000D02*
X41025313Y-68959998D01*
X43434000Y-68326000D02*
X41659311Y-68326000D01*
D24*
X29310999Y-70776423D02*
X29310999Y-68564999D01*
X33156000Y-71810000D02*
X30344576Y-71810000D01*
X30344576Y-71810000D02*
X29310999Y-70776423D01*
X29310999Y-68564999D02*
X28056000Y-67310000D01*
D22*
X39782252Y-48645062D02*
X39818200Y-48681010D01*
X39782252Y-46434126D02*
X39782252Y-48645062D01*
X48000000Y-45783700D02*
X48000000Y-45000000D01*
X41774000Y-62810000D02*
X41774000Y-62168343D01*
X44667002Y-59275341D02*
X44667002Y-49116698D01*
X44667002Y-49116698D02*
X48000000Y-45783700D01*
X41774000Y-62168343D02*
X44667002Y-59275341D01*
X39878000Y-63720998D02*
X39878000Y-63246000D01*
X39878000Y-63246000D02*
X40314000Y-62810000D01*
X40314000Y-62810000D02*
X41774000Y-62810000D01*
X41025313Y-68959998D02*
X41025313Y-67123063D01*
X39698999Y-63899999D02*
X39878000Y-63720998D01*
X39698999Y-65796749D02*
X39698999Y-63899999D01*
D23*
X39402125Y-66007875D02*
X39910125Y-66007875D01*
X39370000Y-66040000D02*
X39402125Y-66007875D01*
D22*
X39910125Y-66007875D02*
X39698999Y-65796749D01*
X41025313Y-67123063D02*
X39910125Y-66007875D01*
D23*
X35056000Y-71810000D02*
X33156000Y-71810000D01*
X35306000Y-69464998D02*
X35306000Y-71560000D01*
X34000709Y-68824979D02*
X34665981Y-68824979D01*
X35306000Y-71560000D02*
X35056000Y-71810000D01*
X34665981Y-68824979D02*
X35306000Y-69464998D01*
D24*
X29310999Y-70776423D02*
X31814053Y-68273369D01*
X31814053Y-66358053D02*
X31814023Y-66358023D01*
X31814053Y-68273369D02*
X31814053Y-66358053D01*
%TO.N,+3V3*%
X31790640Y-33863280D02*
X30347920Y-32420560D01*
X31790640Y-34925000D02*
X31790640Y-33863280D01*
X31790640Y-34925000D02*
X31203999Y-35511641D01*
X31203999Y-35511641D02*
X31203999Y-41490791D01*
X31203999Y-41490791D02*
X31787188Y-42073980D01*
X33623237Y-43910029D02*
X36097419Y-43910029D01*
X31787188Y-42073980D02*
X33623237Y-43910029D01*
D23*
X36097419Y-43910029D02*
X36097419Y-42896581D01*
X36097419Y-42896581D02*
X38354000Y-40640000D01*
D24*
X36097419Y-43910029D02*
X36097419Y-52006946D01*
X36576000Y-52485527D02*
X36561474Y-52471001D01*
X36097419Y-52006946D02*
X36561474Y-52471001D01*
X44958000Y-74375000D02*
X37592000Y-74375000D01*
X29917990Y-74574990D02*
X37392010Y-74574990D01*
X29718000Y-74375000D02*
X29917990Y-74574990D01*
X37392010Y-74574990D02*
X37592000Y-74375000D01*
X36576000Y-57658000D02*
X36576000Y-52485527D01*
X36576000Y-61976000D02*
X36576000Y-57658000D01*
X37450393Y-63560326D02*
X37450393Y-65242238D01*
X36576000Y-61976000D02*
X36576000Y-62685933D01*
X36576000Y-62685933D02*
X37450393Y-63560326D01*
X38138002Y-65929847D02*
X37450393Y-65242238D01*
X37592000Y-74375000D02*
X38138002Y-73828998D01*
X38138002Y-73828998D02*
X38138002Y-65929847D01*
%TO.N,VBUS*%
X38240002Y-30958000D02*
X37910282Y-31287720D01*
X36858278Y-31287720D02*
X34358918Y-33787080D01*
X37910282Y-31287720D02*
X36858278Y-31287720D01*
X33680400Y-33787080D02*
X33401000Y-34066480D01*
X34358918Y-33787080D02*
X33680400Y-33787080D01*
X44243000Y-30958000D02*
X38240002Y-30958000D01*
D22*
%TO.N,Host_USB_D-*%
X39751367Y-34193578D02*
X39751367Y-45188085D01*
X40519218Y-33425727D02*
X39751367Y-34193578D01*
X39751367Y-45188085D02*
X39458683Y-45480769D01*
%TO.N,Host_USB_D+*%
X38733681Y-45132767D02*
X38733681Y-46177141D01*
X38733681Y-46177141D02*
X38800490Y-46243950D01*
X39654480Y-32923480D02*
X39244660Y-33333300D01*
X39244660Y-33333300D02*
X39244660Y-44621788D01*
X39244660Y-44621788D02*
X38733681Y-45132767D01*
%TO.N,FTDI_DTR*%
X48000000Y-57700000D02*
X48000000Y-57851575D01*
X45899763Y-61868188D02*
X45899763Y-64466459D01*
X45448990Y-60402585D02*
X45448990Y-61417415D01*
X45448990Y-61417415D02*
X45899763Y-61868188D01*
X48000000Y-57851575D02*
X45448990Y-60402585D01*
D23*
%TO.N,Net-(C10-Pad1)*%
X41656000Y-47498000D02*
X40640000Y-46482000D01*
X40640000Y-46482000D02*
X40640000Y-35814000D01*
%TO.N,Net-(C11-Pad1)*%
X41315010Y-46043804D02*
X41315010Y-40894000D01*
%TO.N,MAX3421_INT*%
X37592000Y-54864000D02*
X37592000Y-43241391D01*
X37592000Y-43241391D02*
X37149609Y-42799000D01*
X35579305Y-61894624D02*
X35579305Y-54874309D01*
X35579305Y-54874309D02*
X35569021Y-54864025D01*
%TO.N,MAX3421_GPX*%
X38119659Y-59415472D02*
X38120528Y-59415472D01*
X37376010Y-60159121D02*
X37376010Y-60187503D01*
X38119659Y-59415472D02*
X37376010Y-60159121D01*
X38267001Y-59268130D02*
X38119659Y-59415472D01*
X38119659Y-42221194D02*
X38119659Y-46549569D01*
X38119659Y-46549569D02*
X38267001Y-46696911D01*
X38519658Y-41821195D02*
X38119659Y-42221194D01*
X38267001Y-46696911D02*
X38267001Y-59268130D01*
%TO.N,ADB_DATA_LV*%
X45249013Y-64645802D02*
X45024022Y-64420811D01*
X44558001Y-65984818D02*
X45249013Y-65293806D01*
X44958000Y-70612000D02*
X44958000Y-68850998D01*
X45024022Y-64420811D02*
X45024022Y-62017753D01*
X45249013Y-65293806D02*
X45249013Y-64645802D01*
X44558001Y-68450999D02*
X44558001Y-65984818D01*
X44958000Y-68850998D02*
X44558001Y-68450999D01*
%TO.N,ADB_PWR_ON_LV*%
X35656011Y-66184816D02*
X35656011Y-73446065D01*
X35656011Y-73446065D02*
X35327096Y-73774980D01*
X35555525Y-66084330D02*
X35656011Y-66184816D01*
D22*
%TO.N,FTDI_TXO*%
X48000000Y-55160000D02*
X45567024Y-57592976D01*
X45567024Y-59648141D02*
X44299012Y-60916153D01*
X45567024Y-57592976D02*
X45567024Y-59648141D01*
X44299012Y-64694805D02*
X44574011Y-64969804D01*
X44299012Y-60916153D02*
X44299012Y-64694805D01*
%TO.N,FTDI_RXI*%
X43849001Y-60729753D02*
X43849001Y-65821478D01*
X45117013Y-55502987D02*
X45117013Y-59461741D01*
X45117013Y-59461741D02*
X43849001Y-60729753D01*
X48000000Y-52620000D02*
X45117013Y-55502987D01*
X43849001Y-65821478D02*
X42819184Y-66851295D01*
D23*
%TO.N,/RESET*%
X49649010Y-52090010D02*
X49649010Y-62618990D01*
X49375000Y-51816000D02*
X49649010Y-52090010D01*
X49649010Y-62618990D02*
X47244000Y-65024000D01*
X31750000Y-54864000D02*
X33782000Y-54864000D01*
X30480000Y-56134000D02*
X31750000Y-54864000D01*
%TO.N,DEBUG_LED*%
X29781021Y-59753021D02*
X29718000Y-59690000D01*
X29781021Y-61541684D02*
X29781021Y-59753021D01*
X29780987Y-61541718D02*
X29781021Y-61541684D01*
X29780987Y-66076935D02*
X29780987Y-61541718D01*
X31014052Y-67310000D02*
X29780987Y-66076935D01*
%TO.N,ATMEGA_SS*%
X42269022Y-59039993D02*
X42269022Y-48873960D01*
X44623988Y-46518994D02*
X44623988Y-42021170D01*
X42269022Y-48873960D02*
X44623988Y-46518994D01*
X44623988Y-42021170D02*
X44882152Y-41763006D01*
X39073998Y-62235017D02*
X42269022Y-59039993D01*
%TO.N,ATMEGA_SPI_MOSI*%
X34544000Y-56642000D02*
X31418031Y-59767969D01*
X34222081Y-53594000D02*
X34544000Y-53915919D01*
X33020000Y-53594000D02*
X34222081Y-53594000D01*
X34544000Y-53915919D02*
X34544000Y-56642000D01*
X31418031Y-59767969D02*
X31418031Y-61423083D01*
X41480059Y-48672943D02*
X43433413Y-46719589D01*
X37743876Y-61747192D02*
X41480059Y-58011009D01*
X41480059Y-58011009D02*
X41480059Y-48672943D01*
X43433413Y-46719589D02*
X43433413Y-40385408D01*
X37743876Y-62721639D02*
X37743876Y-61747192D01*
%TO.N,ATMEGA_SPI_MISO*%
X30480000Y-51054000D02*
X29004989Y-52529011D01*
X29004989Y-52529011D02*
X29004989Y-57977987D01*
X29004989Y-57977987D02*
X30393010Y-59366008D01*
X30393010Y-62801223D02*
X30455989Y-62864202D01*
X30393010Y-59366008D02*
X30393010Y-62801223D01*
X38607953Y-62765555D02*
X38607953Y-63244069D01*
X38607953Y-63233334D02*
X38607953Y-63244069D01*
X41919011Y-48728981D02*
X41919011Y-58410989D01*
X44137485Y-41095553D02*
X44137485Y-46510507D01*
X38398987Y-62556589D02*
X38607953Y-62765555D01*
X44137485Y-46510507D02*
X41919011Y-48728981D01*
X38398987Y-61931013D02*
X38398987Y-62556589D01*
X41919011Y-58410989D02*
X38398987Y-61931013D01*
X38419986Y-63045367D02*
X38607953Y-63233334D01*
%TO.N,ATMEGA_SPI_SCLK*%
X45298990Y-46409589D02*
X43083989Y-48624590D01*
X39748999Y-62809301D02*
X39477989Y-63080311D01*
X39477989Y-63080311D02*
X39477989Y-63555309D01*
X45298990Y-42672000D02*
X45298990Y-46409589D01*
X43083989Y-58805009D02*
X39748999Y-62139999D01*
X38973782Y-64059516D02*
X38973782Y-64693862D01*
X39477989Y-63555309D02*
X38973782Y-64059516D01*
X39748999Y-62139999D02*
X39748999Y-62809301D01*
X43083989Y-48624590D02*
X43083989Y-58805009D01*
X30480000Y-53594000D02*
X29355000Y-54719000D01*
X31130999Y-65452996D02*
X30820202Y-65763793D01*
X29355000Y-57833008D02*
X30743021Y-59221029D01*
X30743021Y-62152221D02*
X31130999Y-62540199D01*
X29355000Y-54719000D02*
X29355000Y-57833008D01*
X30743021Y-59221029D02*
X30743021Y-62152221D01*
X31130999Y-62540199D02*
X31130999Y-65452996D01*
%TO.N,MAX3421_RESET*%
X34894011Y-57307989D02*
X33770361Y-58431639D01*
X34544000Y-47752000D02*
X34894011Y-48102011D01*
X34894011Y-48102011D02*
X34894011Y-57307989D01*
D22*
%TO.N,Net-(J2-Pad4)*%
X47546998Y-33782000D02*
X48768000Y-33782000D01*
X46672998Y-32908000D02*
X47546998Y-33782000D01*
X44243000Y-32908000D02*
X46672998Y-32908000D01*
%TO.N,Net-(J2-Pad3)*%
X47244000Y-32258000D02*
X44243000Y-32258000D01*
%TO.N,Net-(J2-Pad2)*%
X44243000Y-31608000D02*
X45608000Y-31608000D01*
X46482000Y-30734000D02*
X48768000Y-30734000D01*
X45608000Y-31608000D02*
X46482000Y-30734000D01*
D23*
%TO.N,Net-(JP1-Pad2)*%
X44397002Y-71882000D02*
X48006000Y-71882000D01*
X43381002Y-72898000D02*
X44397002Y-71882000D01*
X41575998Y-72898000D02*
X43381002Y-72898000D01*
%TO.N,Net-(JP4-Pad2)*%
X27940000Y-70415685D02*
X27940000Y-69850000D01*
X30422315Y-72898000D02*
X27940000Y-70415685D01*
X33354002Y-72898000D02*
X30422315Y-72898000D01*
%TO.N,OPTION_SELECT*%
X45212000Y-39116000D02*
X45212000Y-40386000D01*
X45212000Y-40386000D02*
X45974000Y-41148000D01*
X45974000Y-41148000D02*
X45974000Y-46482000D01*
X45974000Y-46482000D02*
X43434000Y-49022000D01*
X43434000Y-59182904D02*
X43584065Y-59332969D01*
X43434000Y-49022000D02*
X43434000Y-59182904D01*
%TO.N,Net-(D4-Pad2)*%
X27686000Y-58678285D02*
X29431010Y-60423295D01*
X29431010Y-60423295D02*
X29431010Y-61396705D01*
X27686000Y-55372000D02*
X27686000Y-58678285D01*
X29431010Y-61396705D02*
X28732695Y-62095020D01*
X28732695Y-62095020D02*
X28732695Y-62961305D01*
%TD*%
D25*
%TO.N,GND*%
X33136345Y-25701953D02*
X32820786Y-25857962D01*
X32629980Y-26232745D01*
X32515956Y-26637551D01*
X32483098Y-27056824D01*
X32532666Y-27474451D01*
X32662757Y-27874383D01*
X32820786Y-28170038D01*
X33136347Y-28326048D01*
X34448395Y-27014000D01*
X34434253Y-26999858D01*
X34613858Y-26820253D01*
X34628000Y-26834395D01*
X34642143Y-26820253D01*
X34821748Y-26999858D01*
X34807605Y-27014000D01*
X36119653Y-28326048D01*
X36435214Y-28170038D01*
X36626020Y-27795255D01*
X36695782Y-27547587D01*
X42787192Y-27547587D01*
X43743000Y-28503395D01*
X44698808Y-27547587D01*
X46237192Y-27547587D01*
X47193000Y-28503395D01*
X48148808Y-27547587D01*
X48053044Y-27283186D01*
X47763429Y-27142296D01*
X47451892Y-27060616D01*
X47130405Y-27041282D01*
X46811325Y-27085039D01*
X46506912Y-27190205D01*
X46332956Y-27283186D01*
X46237192Y-27547587D01*
X44698808Y-27547587D01*
X44603044Y-27283186D01*
X44313429Y-27142296D01*
X44001892Y-27060616D01*
X43680405Y-27041282D01*
X43361325Y-27085039D01*
X43056912Y-27190205D01*
X42882956Y-27283186D01*
X42787192Y-27547587D01*
X36695782Y-27547587D01*
X36740044Y-27390449D01*
X36772902Y-26971176D01*
X36723334Y-26553549D01*
X36593243Y-26153617D01*
X36435214Y-25857962D01*
X36119655Y-25701953D01*
X36161608Y-25660000D01*
X49340000Y-25660000D01*
X49340000Y-29751145D01*
X49305624Y-29728176D01*
X49099067Y-29642617D01*
X48879788Y-29599000D01*
X48656212Y-29599000D01*
X48436933Y-29642617D01*
X48362893Y-29673285D01*
X48328415Y-29638807D01*
X48592814Y-29543044D01*
X48733704Y-29253429D01*
X48815384Y-28941892D01*
X48834718Y-28620405D01*
X48790961Y-28301325D01*
X48685795Y-27996912D01*
X48592814Y-27822956D01*
X48328413Y-27727192D01*
X47372605Y-28683000D01*
X47386748Y-28697143D01*
X47207143Y-28876748D01*
X47193000Y-28862605D01*
X46237192Y-29818413D01*
X46301040Y-29994696D01*
X46189753Y-30028454D01*
X46057724Y-30099026D01*
X46016857Y-30132565D01*
X45986108Y-29977978D01*
X45913741Y-29803269D01*
X45808681Y-29646036D01*
X45674964Y-29512319D01*
X45517731Y-29407259D01*
X45343022Y-29334892D01*
X45252804Y-29316947D01*
X45283704Y-29253429D01*
X45365384Y-28941892D01*
X45377189Y-28745595D01*
X45551282Y-28745595D01*
X45595039Y-29064675D01*
X45700205Y-29369088D01*
X45793186Y-29543044D01*
X46057587Y-29638808D01*
X47013395Y-28683000D01*
X46057587Y-27727192D01*
X45793186Y-27822956D01*
X45652296Y-28112571D01*
X45570616Y-28424108D01*
X45551282Y-28745595D01*
X45377189Y-28745595D01*
X45384718Y-28620405D01*
X45340961Y-28301325D01*
X45235795Y-27996912D01*
X45142814Y-27822956D01*
X44878413Y-27727192D01*
X43922605Y-28683000D01*
X43936748Y-28697143D01*
X43757143Y-28876748D01*
X43743000Y-28862605D01*
X42787192Y-29818413D01*
X42882956Y-30082814D01*
X42965563Y-30123000D01*
X38772819Y-30123000D01*
X38778217Y-30013488D01*
X38736787Y-29733870D01*
X38641603Y-29467708D01*
X38574671Y-29342486D01*
X38330702Y-29270903D01*
X37517605Y-30084000D01*
X37531748Y-30098143D01*
X37352143Y-30277748D01*
X37338000Y-30263605D01*
X37323858Y-30277748D01*
X37144253Y-30098143D01*
X37158395Y-30084000D01*
X36345298Y-29270903D01*
X36101329Y-29342486D01*
X35980429Y-29597996D01*
X35911700Y-29872184D01*
X35897783Y-30154512D01*
X35939213Y-30434130D01*
X36034397Y-30700292D01*
X36101329Y-30825514D01*
X36130930Y-30834199D01*
X34013051Y-32952080D01*
X33721407Y-32952080D01*
X33680399Y-32948041D01*
X33639391Y-32952080D01*
X33639381Y-32952080D01*
X33516711Y-32964162D01*
X33359313Y-33011908D01*
X33322697Y-33031480D01*
X33299061Y-33031480D01*
X33099102Y-33071254D01*
X32910744Y-33149275D01*
X32741226Y-33262543D01*
X32597063Y-33406706D01*
X32539467Y-33492905D01*
X32488276Y-33397134D01*
X32449088Y-33349383D01*
X32383931Y-33269989D01*
X32352066Y-33243839D01*
X31372013Y-32263785D01*
X31343146Y-32118662D01*
X31265125Y-31930304D01*
X31151857Y-31760786D01*
X31007694Y-31616623D01*
X30838176Y-31503355D01*
X30649818Y-31425334D01*
X30449859Y-31385560D01*
X30245981Y-31385560D01*
X30046022Y-31425334D01*
X29857664Y-31503355D01*
X29688146Y-31616623D01*
X29543983Y-31760786D01*
X29430715Y-31930304D01*
X29352694Y-32118662D01*
X29312920Y-32318621D01*
X29312920Y-32522499D01*
X29352694Y-32722458D01*
X29430715Y-32910816D01*
X29543983Y-33080334D01*
X29688146Y-33224497D01*
X29857664Y-33337765D01*
X30046022Y-33415786D01*
X30191145Y-33444653D01*
X30955641Y-34209148D01*
X30955641Y-34311714D01*
X30873435Y-34434744D01*
X30795414Y-34623102D01*
X30766547Y-34768225D01*
X30642577Y-34892196D01*
X30610708Y-34918350D01*
X30535442Y-35010063D01*
X30506363Y-35045496D01*
X30428827Y-35190555D01*
X30381081Y-35347953D01*
X30364959Y-35511641D01*
X30368999Y-35552660D01*
X30369000Y-41449763D01*
X30364959Y-41490791D01*
X30381081Y-41654479D01*
X30428827Y-41811877D01*
X30506363Y-41956936D01*
X30518950Y-41972273D01*
X30610709Y-42084082D01*
X30642572Y-42110231D01*
X30763095Y-42230755D01*
X30791962Y-42375878D01*
X30869983Y-42564236D01*
X30983251Y-42733754D01*
X31127414Y-42877917D01*
X31296932Y-42991185D01*
X31485290Y-43069206D01*
X31630413Y-43098073D01*
X33003796Y-44471456D01*
X33029946Y-44503320D01*
X33157091Y-44607665D01*
X33302150Y-44685201D01*
X33459548Y-44732947D01*
X33582218Y-44745029D01*
X33582228Y-44745029D01*
X33623236Y-44749068D01*
X33664244Y-44745029D01*
X35262419Y-44745029D01*
X35262419Y-47006708D01*
X35203774Y-46948063D01*
X35034256Y-46834795D01*
X34845898Y-46756774D01*
X34645939Y-46717000D01*
X34442061Y-46717000D01*
X34242102Y-46756774D01*
X34053744Y-46834795D01*
X33884226Y-46948063D01*
X33740063Y-47092226D01*
X33626795Y-47261744D01*
X33548774Y-47450102D01*
X33509000Y-47650061D01*
X33509000Y-47853939D01*
X33548774Y-48053898D01*
X33626795Y-48242256D01*
X33740063Y-48411774D01*
X33884226Y-48555937D01*
X34053744Y-48669205D01*
X34184011Y-48723164D01*
X34184011Y-50123137D01*
X34173475Y-50107368D01*
X33966632Y-49900525D01*
X33723411Y-49738010D01*
X33453158Y-49626068D01*
X33166260Y-49569000D01*
X32873740Y-49569000D01*
X32586842Y-49626068D01*
X32316589Y-49738010D01*
X32073368Y-49900525D01*
X31941513Y-50032380D01*
X31919502Y-49959820D01*
X31860537Y-49849506D01*
X31781185Y-49752815D01*
X31684494Y-49673463D01*
X31574180Y-49614498D01*
X31454482Y-49578188D01*
X31330000Y-49565928D01*
X29630000Y-49565928D01*
X29505518Y-49578188D01*
X29385820Y-49614498D01*
X29275506Y-49673463D01*
X29178815Y-49752815D01*
X29099463Y-49849506D01*
X29040498Y-49959820D01*
X29004188Y-50079518D01*
X28991928Y-50204000D01*
X28991928Y-51537981D01*
X28527606Y-52002303D01*
X28500514Y-52024537D01*
X28411789Y-52132649D01*
X28345861Y-52255992D01*
X28305262Y-52389828D01*
X28295051Y-52493502D01*
X28291554Y-52529011D01*
X28294989Y-52563886D01*
X28294989Y-54534130D01*
X28176256Y-54454795D01*
X27987898Y-54376774D01*
X27787939Y-54337000D01*
X27584061Y-54337000D01*
X27384102Y-54376774D01*
X27195744Y-54454795D01*
X27026226Y-54568063D01*
X26882063Y-54712226D01*
X26768795Y-54881744D01*
X26690774Y-55070102D01*
X26651000Y-55270061D01*
X26651000Y-55473939D01*
X26690774Y-55673898D01*
X26768795Y-55862256D01*
X26882063Y-56031774D01*
X26976000Y-56125711D01*
X26976001Y-58643400D01*
X26972565Y-58678285D01*
X26986274Y-58817469D01*
X27026872Y-58951304D01*
X27055140Y-59004189D01*
X27092801Y-59074648D01*
X27181526Y-59182760D01*
X27208617Y-59204993D01*
X27483000Y-59479376D01*
X27483000Y-60783000D01*
X27503000Y-60783000D01*
X27503000Y-61037000D01*
X27483000Y-61037000D01*
X27483000Y-62445000D01*
X27832895Y-62445000D01*
X27815490Y-62471049D01*
X27737469Y-62659407D01*
X27697695Y-62859366D01*
X27697695Y-63063244D01*
X27737469Y-63263203D01*
X27815490Y-63451561D01*
X27928758Y-63621079D01*
X28072921Y-63765242D01*
X28242439Y-63878510D01*
X28430797Y-63956531D01*
X28630756Y-63996305D01*
X28834634Y-63996305D01*
X29034593Y-63956531D01*
X29070987Y-63941456D01*
X29070987Y-65253526D01*
X28903832Y-65167563D01*
X28469572Y-65043326D01*
X28019419Y-65006196D01*
X27570672Y-65057600D01*
X27140576Y-65195562D01*
X26806491Y-65374133D01*
X26631475Y-65705870D01*
X28056000Y-67130395D01*
X28070143Y-67116253D01*
X28249748Y-67295858D01*
X28235605Y-67310000D01*
X29660130Y-68734525D01*
X29991867Y-68559509D01*
X30198437Y-68157832D01*
X30242868Y-68002527D01*
X30354278Y-68113937D01*
X30523796Y-68227205D01*
X30712154Y-68305226D01*
X30912113Y-68345000D01*
X31115991Y-68345000D01*
X31315950Y-68305226D01*
X31504308Y-68227205D01*
X31673826Y-68113937D01*
X31817989Y-67969774D01*
X31931257Y-67800256D01*
X32009278Y-67611898D01*
X32049052Y-67411939D01*
X32049052Y-67208061D01*
X32009278Y-67008102D01*
X31931257Y-66819744D01*
X31817989Y-66650226D01*
X31673826Y-66506063D01*
X31594588Y-66453118D01*
X31624139Y-66423567D01*
X31737407Y-66254049D01*
X31815428Y-66065691D01*
X31855202Y-65865732D01*
X31855202Y-65698072D01*
X33718910Y-65698072D01*
X32644998Y-66771984D01*
X32616000Y-66795782D01*
X32592202Y-66824780D01*
X32592201Y-66824781D01*
X32521026Y-66911507D01*
X32450454Y-67043537D01*
X32424107Y-67130395D01*
X32417192Y-67153193D01*
X32406998Y-67186798D01*
X32392324Y-67335783D01*
X32396001Y-67373115D01*
X32396000Y-68921928D01*
X31406000Y-68921928D01*
X31281518Y-68934188D01*
X31161820Y-68970498D01*
X31051506Y-69029463D01*
X30954815Y-69108815D01*
X30875463Y-69205506D01*
X30816498Y-69315820D01*
X30780188Y-69435518D01*
X30767928Y-69560000D01*
X30767928Y-69599555D01*
X30556813Y-69810670D01*
X30423965Y-69810670D01*
X30224006Y-69850444D01*
X30035648Y-69928465D01*
X29866130Y-70041733D01*
X29721967Y-70185896D01*
X29608699Y-70355414D01*
X29530678Y-70543772D01*
X29490904Y-70743731D01*
X29490904Y-70947609D01*
X29494601Y-70966195D01*
X28860561Y-70332155D01*
X28935226Y-70151898D01*
X28975000Y-69951939D01*
X28975000Y-69748061D01*
X28935226Y-69548102D01*
X28894256Y-69449191D01*
X28971424Y-69424438D01*
X29305509Y-69245867D01*
X29480525Y-68914130D01*
X28056000Y-67489605D01*
X26631475Y-68914130D01*
X26806491Y-69245867D01*
X27024107Y-69357780D01*
X27022795Y-69359744D01*
X26944774Y-69548102D01*
X26905000Y-69748061D01*
X26905000Y-69951939D01*
X26944774Y-70151898D01*
X27022795Y-70340256D01*
X27136063Y-70509774D01*
X27266014Y-70639725D01*
X27280872Y-70688704D01*
X27346800Y-70812047D01*
X27435525Y-70920159D01*
X27462617Y-70942393D01*
X28795047Y-72274823D01*
X28680023Y-72229271D01*
X28383000Y-72175000D01*
X27483000Y-72175000D01*
X27483000Y-73583000D01*
X27503000Y-73583000D01*
X27503000Y-73837000D01*
X27483000Y-73837000D01*
X27483000Y-73857000D01*
X27229000Y-73857000D01*
X27229000Y-73837000D01*
X27209000Y-73837000D01*
X27209000Y-73583000D01*
X27229000Y-73583000D01*
X27229000Y-72175000D01*
X26329000Y-72175000D01*
X26031977Y-72229271D01*
X25751249Y-72340446D01*
X25660000Y-72399375D01*
X25660000Y-67346581D01*
X25752196Y-67346581D01*
X25803600Y-67795328D01*
X25941562Y-68225424D01*
X26120133Y-68559509D01*
X26451870Y-68734525D01*
X27876395Y-67310000D01*
X26451870Y-65885475D01*
X26120133Y-66060491D01*
X25913563Y-66462168D01*
X25789326Y-66896428D01*
X25752196Y-67346581D01*
X25660000Y-67346581D01*
X25660000Y-62220625D01*
X25751249Y-62279554D01*
X26031977Y-62390729D01*
X26329000Y-62445000D01*
X27229000Y-62445000D01*
X27229000Y-61037000D01*
X27209000Y-61037000D01*
X27209000Y-60783000D01*
X27229000Y-60783000D01*
X27229000Y-59375000D01*
X26329000Y-59375000D01*
X26031977Y-59429271D01*
X25751249Y-59540446D01*
X25660000Y-59599375D01*
X25660000Y-45779872D01*
X28265000Y-45779872D01*
X28265000Y-46220128D01*
X28350890Y-46651925D01*
X28519369Y-47058669D01*
X28763962Y-47424729D01*
X29075271Y-47736038D01*
X29441331Y-47980631D01*
X29848075Y-48149110D01*
X30279872Y-48235000D01*
X30720128Y-48235000D01*
X31151925Y-48149110D01*
X31558669Y-47980631D01*
X31924729Y-47736038D01*
X32236038Y-47424729D01*
X32480631Y-47058669D01*
X32649110Y-46651925D01*
X32735000Y-46220128D01*
X32735000Y-45779872D01*
X32649110Y-45348075D01*
X32480631Y-44941331D01*
X32236038Y-44575271D01*
X31924729Y-44263962D01*
X31558669Y-44019369D01*
X31151925Y-43850890D01*
X30720128Y-43765000D01*
X30279872Y-43765000D01*
X29848075Y-43850890D01*
X29441331Y-44019369D01*
X29075271Y-44263962D01*
X28763962Y-44575271D01*
X28519369Y-44941331D01*
X28350890Y-45348075D01*
X28265000Y-45779872D01*
X25660000Y-45779872D01*
X25660000Y-28505653D01*
X33315952Y-28505653D01*
X33471962Y-28821214D01*
X33846745Y-29012020D01*
X34251551Y-29126044D01*
X34670824Y-29158902D01*
X35088451Y-29109334D01*
X35143898Y-29091298D01*
X36524903Y-29091298D01*
X37338000Y-29904395D01*
X38151097Y-29091298D01*
X38079514Y-28847329D01*
X37864510Y-28745595D01*
X42101282Y-28745595D01*
X42145039Y-29064675D01*
X42250205Y-29369088D01*
X42343186Y-29543044D01*
X42607587Y-29638808D01*
X43563395Y-28683000D01*
X42607587Y-27727192D01*
X42343186Y-27822956D01*
X42202296Y-28112571D01*
X42120616Y-28424108D01*
X42101282Y-28745595D01*
X37864510Y-28745595D01*
X37824004Y-28726429D01*
X37549816Y-28657700D01*
X37267488Y-28643783D01*
X36987870Y-28685213D01*
X36721708Y-28780397D01*
X36596486Y-28847329D01*
X36524903Y-29091298D01*
X35143898Y-29091298D01*
X35488383Y-28979243D01*
X35784038Y-28821214D01*
X35940048Y-28505653D01*
X34628000Y-27193605D01*
X33315952Y-28505653D01*
X25660000Y-28505653D01*
X25660000Y-25660000D01*
X33094392Y-25660000D01*
X33136345Y-25701953D01*
%TA.AperFunction,Conductor*%
D26*
G36*
X33136345Y-25701953D02*
G01*
X32820786Y-25857962D01*
X32629980Y-26232745D01*
X32515956Y-26637551D01*
X32483098Y-27056824D01*
X32532666Y-27474451D01*
X32662757Y-27874383D01*
X32820786Y-28170038D01*
X33136347Y-28326048D01*
X34448395Y-27014000D01*
X34434253Y-26999858D01*
X34613858Y-26820253D01*
X34628000Y-26834395D01*
X34642143Y-26820253D01*
X34821748Y-26999858D01*
X34807605Y-27014000D01*
X36119653Y-28326048D01*
X36435214Y-28170038D01*
X36626020Y-27795255D01*
X36695782Y-27547587D01*
X42787192Y-27547587D01*
X43743000Y-28503395D01*
X44698808Y-27547587D01*
X46237192Y-27547587D01*
X47193000Y-28503395D01*
X48148808Y-27547587D01*
X48053044Y-27283186D01*
X47763429Y-27142296D01*
X47451892Y-27060616D01*
X47130405Y-27041282D01*
X46811325Y-27085039D01*
X46506912Y-27190205D01*
X46332956Y-27283186D01*
X46237192Y-27547587D01*
X44698808Y-27547587D01*
X44603044Y-27283186D01*
X44313429Y-27142296D01*
X44001892Y-27060616D01*
X43680405Y-27041282D01*
X43361325Y-27085039D01*
X43056912Y-27190205D01*
X42882956Y-27283186D01*
X42787192Y-27547587D01*
X36695782Y-27547587D01*
X36740044Y-27390449D01*
X36772902Y-26971176D01*
X36723334Y-26553549D01*
X36593243Y-26153617D01*
X36435214Y-25857962D01*
X36119655Y-25701953D01*
X36161608Y-25660000D01*
X49340000Y-25660000D01*
X49340000Y-29751145D01*
X49305624Y-29728176D01*
X49099067Y-29642617D01*
X48879788Y-29599000D01*
X48656212Y-29599000D01*
X48436933Y-29642617D01*
X48362893Y-29673285D01*
X48328415Y-29638807D01*
X48592814Y-29543044D01*
X48733704Y-29253429D01*
X48815384Y-28941892D01*
X48834718Y-28620405D01*
X48790961Y-28301325D01*
X48685795Y-27996912D01*
X48592814Y-27822956D01*
X48328413Y-27727192D01*
X47372605Y-28683000D01*
X47386748Y-28697143D01*
X47207143Y-28876748D01*
X47193000Y-28862605D01*
X46237192Y-29818413D01*
X46301040Y-29994696D01*
X46189753Y-30028454D01*
X46057724Y-30099026D01*
X46016857Y-30132565D01*
X45986108Y-29977978D01*
X45913741Y-29803269D01*
X45808681Y-29646036D01*
X45674964Y-29512319D01*
X45517731Y-29407259D01*
X45343022Y-29334892D01*
X45252804Y-29316947D01*
X45283704Y-29253429D01*
X45365384Y-28941892D01*
X45377189Y-28745595D01*
X45551282Y-28745595D01*
X45595039Y-29064675D01*
X45700205Y-29369088D01*
X45793186Y-29543044D01*
X46057587Y-29638808D01*
X47013395Y-28683000D01*
X46057587Y-27727192D01*
X45793186Y-27822956D01*
X45652296Y-28112571D01*
X45570616Y-28424108D01*
X45551282Y-28745595D01*
X45377189Y-28745595D01*
X45384718Y-28620405D01*
X45340961Y-28301325D01*
X45235795Y-27996912D01*
X45142814Y-27822956D01*
X44878413Y-27727192D01*
X43922605Y-28683000D01*
X43936748Y-28697143D01*
X43757143Y-28876748D01*
X43743000Y-28862605D01*
X42787192Y-29818413D01*
X42882956Y-30082814D01*
X42965563Y-30123000D01*
X38772819Y-30123000D01*
X38778217Y-30013488D01*
X38736787Y-29733870D01*
X38641603Y-29467708D01*
X38574671Y-29342486D01*
X38330702Y-29270903D01*
X37517605Y-30084000D01*
X37531748Y-30098143D01*
X37352143Y-30277748D01*
X37338000Y-30263605D01*
X37323858Y-30277748D01*
X37144253Y-30098143D01*
X37158395Y-30084000D01*
X36345298Y-29270903D01*
X36101329Y-29342486D01*
X35980429Y-29597996D01*
X35911700Y-29872184D01*
X35897783Y-30154512D01*
X35939213Y-30434130D01*
X36034397Y-30700292D01*
X36101329Y-30825514D01*
X36130930Y-30834199D01*
X34013051Y-32952080D01*
X33721407Y-32952080D01*
X33680399Y-32948041D01*
X33639391Y-32952080D01*
X33639381Y-32952080D01*
X33516711Y-32964162D01*
X33359313Y-33011908D01*
X33322697Y-33031480D01*
X33299061Y-33031480D01*
X33099102Y-33071254D01*
X32910744Y-33149275D01*
X32741226Y-33262543D01*
X32597063Y-33406706D01*
X32539467Y-33492905D01*
X32488276Y-33397134D01*
X32449088Y-33349383D01*
X32383931Y-33269989D01*
X32352066Y-33243839D01*
X31372013Y-32263785D01*
X31343146Y-32118662D01*
X31265125Y-31930304D01*
X31151857Y-31760786D01*
X31007694Y-31616623D01*
X30838176Y-31503355D01*
X30649818Y-31425334D01*
X30449859Y-31385560D01*
X30245981Y-31385560D01*
X30046022Y-31425334D01*
X29857664Y-31503355D01*
X29688146Y-31616623D01*
X29543983Y-31760786D01*
X29430715Y-31930304D01*
X29352694Y-32118662D01*
X29312920Y-32318621D01*
X29312920Y-32522499D01*
X29352694Y-32722458D01*
X29430715Y-32910816D01*
X29543983Y-33080334D01*
X29688146Y-33224497D01*
X29857664Y-33337765D01*
X30046022Y-33415786D01*
X30191145Y-33444653D01*
X30955641Y-34209148D01*
X30955641Y-34311714D01*
X30873435Y-34434744D01*
X30795414Y-34623102D01*
X30766547Y-34768225D01*
X30642577Y-34892196D01*
X30610708Y-34918350D01*
X30535442Y-35010063D01*
X30506363Y-35045496D01*
X30428827Y-35190555D01*
X30381081Y-35347953D01*
X30364959Y-35511641D01*
X30368999Y-35552660D01*
X30369000Y-41449763D01*
X30364959Y-41490791D01*
X30381081Y-41654479D01*
X30428827Y-41811877D01*
X30506363Y-41956936D01*
X30518950Y-41972273D01*
X30610709Y-42084082D01*
X30642572Y-42110231D01*
X30763095Y-42230755D01*
X30791962Y-42375878D01*
X30869983Y-42564236D01*
X30983251Y-42733754D01*
X31127414Y-42877917D01*
X31296932Y-42991185D01*
X31485290Y-43069206D01*
X31630413Y-43098073D01*
X33003796Y-44471456D01*
X33029946Y-44503320D01*
X33157091Y-44607665D01*
X33302150Y-44685201D01*
X33459548Y-44732947D01*
X33582218Y-44745029D01*
X33582228Y-44745029D01*
X33623236Y-44749068D01*
X33664244Y-44745029D01*
X35262419Y-44745029D01*
X35262419Y-47006708D01*
X35203774Y-46948063D01*
X35034256Y-46834795D01*
X34845898Y-46756774D01*
X34645939Y-46717000D01*
X34442061Y-46717000D01*
X34242102Y-46756774D01*
X34053744Y-46834795D01*
X33884226Y-46948063D01*
X33740063Y-47092226D01*
X33626795Y-47261744D01*
X33548774Y-47450102D01*
X33509000Y-47650061D01*
X33509000Y-47853939D01*
X33548774Y-48053898D01*
X33626795Y-48242256D01*
X33740063Y-48411774D01*
X33884226Y-48555937D01*
X34053744Y-48669205D01*
X34184011Y-48723164D01*
X34184011Y-50123137D01*
X34173475Y-50107368D01*
X33966632Y-49900525D01*
X33723411Y-49738010D01*
X33453158Y-49626068D01*
X33166260Y-49569000D01*
X32873740Y-49569000D01*
X32586842Y-49626068D01*
X32316589Y-49738010D01*
X32073368Y-49900525D01*
X31941513Y-50032380D01*
X31919502Y-49959820D01*
X31860537Y-49849506D01*
X31781185Y-49752815D01*
X31684494Y-49673463D01*
X31574180Y-49614498D01*
X31454482Y-49578188D01*
X31330000Y-49565928D01*
X29630000Y-49565928D01*
X29505518Y-49578188D01*
X29385820Y-49614498D01*
X29275506Y-49673463D01*
X29178815Y-49752815D01*
X29099463Y-49849506D01*
X29040498Y-49959820D01*
X29004188Y-50079518D01*
X28991928Y-50204000D01*
X28991928Y-51537981D01*
X28527606Y-52002303D01*
X28500514Y-52024537D01*
X28411789Y-52132649D01*
X28345861Y-52255992D01*
X28305262Y-52389828D01*
X28295051Y-52493502D01*
X28291554Y-52529011D01*
X28294989Y-52563886D01*
X28294989Y-54534130D01*
X28176256Y-54454795D01*
X27987898Y-54376774D01*
X27787939Y-54337000D01*
X27584061Y-54337000D01*
X27384102Y-54376774D01*
X27195744Y-54454795D01*
X27026226Y-54568063D01*
X26882063Y-54712226D01*
X26768795Y-54881744D01*
X26690774Y-55070102D01*
X26651000Y-55270061D01*
X26651000Y-55473939D01*
X26690774Y-55673898D01*
X26768795Y-55862256D01*
X26882063Y-56031774D01*
X26976000Y-56125711D01*
X26976001Y-58643400D01*
X26972565Y-58678285D01*
X26986274Y-58817469D01*
X27026872Y-58951304D01*
X27055140Y-59004189D01*
X27092801Y-59074648D01*
X27181526Y-59182760D01*
X27208617Y-59204993D01*
X27483000Y-59479376D01*
X27483000Y-60783000D01*
X27503000Y-60783000D01*
X27503000Y-61037000D01*
X27483000Y-61037000D01*
X27483000Y-62445000D01*
X27832895Y-62445000D01*
X27815490Y-62471049D01*
X27737469Y-62659407D01*
X27697695Y-62859366D01*
X27697695Y-63063244D01*
X27737469Y-63263203D01*
X27815490Y-63451561D01*
X27928758Y-63621079D01*
X28072921Y-63765242D01*
X28242439Y-63878510D01*
X28430797Y-63956531D01*
X28630756Y-63996305D01*
X28834634Y-63996305D01*
X29034593Y-63956531D01*
X29070987Y-63941456D01*
X29070987Y-65253526D01*
X28903832Y-65167563D01*
X28469572Y-65043326D01*
X28019419Y-65006196D01*
X27570672Y-65057600D01*
X27140576Y-65195562D01*
X26806491Y-65374133D01*
X26631475Y-65705870D01*
X28056000Y-67130395D01*
X28070143Y-67116253D01*
X28249748Y-67295858D01*
X28235605Y-67310000D01*
X29660130Y-68734525D01*
X29991867Y-68559509D01*
X30198437Y-68157832D01*
X30242868Y-68002527D01*
X30354278Y-68113937D01*
X30523796Y-68227205D01*
X30712154Y-68305226D01*
X30912113Y-68345000D01*
X31115991Y-68345000D01*
X31315950Y-68305226D01*
X31504308Y-68227205D01*
X31673826Y-68113937D01*
X31817989Y-67969774D01*
X31931257Y-67800256D01*
X32009278Y-67611898D01*
X32049052Y-67411939D01*
X32049052Y-67208061D01*
X32009278Y-67008102D01*
X31931257Y-66819744D01*
X31817989Y-66650226D01*
X31673826Y-66506063D01*
X31594588Y-66453118D01*
X31624139Y-66423567D01*
X31737407Y-66254049D01*
X31815428Y-66065691D01*
X31855202Y-65865732D01*
X31855202Y-65698072D01*
X33718910Y-65698072D01*
X32644998Y-66771984D01*
X32616000Y-66795782D01*
X32592202Y-66824780D01*
X32592201Y-66824781D01*
X32521026Y-66911507D01*
X32450454Y-67043537D01*
X32424107Y-67130395D01*
X32417192Y-67153193D01*
X32406998Y-67186798D01*
X32392324Y-67335783D01*
X32396001Y-67373115D01*
X32396000Y-68921928D01*
X31406000Y-68921928D01*
X31281518Y-68934188D01*
X31161820Y-68970498D01*
X31051506Y-69029463D01*
X30954815Y-69108815D01*
X30875463Y-69205506D01*
X30816498Y-69315820D01*
X30780188Y-69435518D01*
X30767928Y-69560000D01*
X30767928Y-69599555D01*
X30556813Y-69810670D01*
X30423965Y-69810670D01*
X30224006Y-69850444D01*
X30035648Y-69928465D01*
X29866130Y-70041733D01*
X29721967Y-70185896D01*
X29608699Y-70355414D01*
X29530678Y-70543772D01*
X29490904Y-70743731D01*
X29490904Y-70947609D01*
X29494601Y-70966195D01*
X28860561Y-70332155D01*
X28935226Y-70151898D01*
X28975000Y-69951939D01*
X28975000Y-69748061D01*
X28935226Y-69548102D01*
X28894256Y-69449191D01*
X28971424Y-69424438D01*
X29305509Y-69245867D01*
X29480525Y-68914130D01*
X28056000Y-67489605D01*
X26631475Y-68914130D01*
X26806491Y-69245867D01*
X27024107Y-69357780D01*
X27022795Y-69359744D01*
X26944774Y-69548102D01*
X26905000Y-69748061D01*
X26905000Y-69951939D01*
X26944774Y-70151898D01*
X27022795Y-70340256D01*
X27136063Y-70509774D01*
X27266014Y-70639725D01*
X27280872Y-70688704D01*
X27346800Y-70812047D01*
X27435525Y-70920159D01*
X27462617Y-70942393D01*
X28795047Y-72274823D01*
X28680023Y-72229271D01*
X28383000Y-72175000D01*
X27483000Y-72175000D01*
X27483000Y-73583000D01*
X27503000Y-73583000D01*
X27503000Y-73837000D01*
X27483000Y-73837000D01*
X27483000Y-73857000D01*
X27229000Y-73857000D01*
X27229000Y-73837000D01*
X27209000Y-73837000D01*
X27209000Y-73583000D01*
X27229000Y-73583000D01*
X27229000Y-72175000D01*
X26329000Y-72175000D01*
X26031977Y-72229271D01*
X25751249Y-72340446D01*
X25660000Y-72399375D01*
X25660000Y-67346581D01*
X25752196Y-67346581D01*
X25803600Y-67795328D01*
X25941562Y-68225424D01*
X26120133Y-68559509D01*
X26451870Y-68734525D01*
X27876395Y-67310000D01*
X26451870Y-65885475D01*
X26120133Y-66060491D01*
X25913563Y-66462168D01*
X25789326Y-66896428D01*
X25752196Y-67346581D01*
X25660000Y-67346581D01*
X25660000Y-62220625D01*
X25751249Y-62279554D01*
X26031977Y-62390729D01*
X26329000Y-62445000D01*
X27229000Y-62445000D01*
X27229000Y-61037000D01*
X27209000Y-61037000D01*
X27209000Y-60783000D01*
X27229000Y-60783000D01*
X27229000Y-59375000D01*
X26329000Y-59375000D01*
X26031977Y-59429271D01*
X25751249Y-59540446D01*
X25660000Y-59599375D01*
X25660000Y-45779872D01*
X28265000Y-45779872D01*
X28265000Y-46220128D01*
X28350890Y-46651925D01*
X28519369Y-47058669D01*
X28763962Y-47424729D01*
X29075271Y-47736038D01*
X29441331Y-47980631D01*
X29848075Y-48149110D01*
X30279872Y-48235000D01*
X30720128Y-48235000D01*
X31151925Y-48149110D01*
X31558669Y-47980631D01*
X31924729Y-47736038D01*
X32236038Y-47424729D01*
X32480631Y-47058669D01*
X32649110Y-46651925D01*
X32735000Y-46220128D01*
X32735000Y-45779872D01*
X32649110Y-45348075D01*
X32480631Y-44941331D01*
X32236038Y-44575271D01*
X31924729Y-44263962D01*
X31558669Y-44019369D01*
X31151925Y-43850890D01*
X30720128Y-43765000D01*
X30279872Y-43765000D01*
X29848075Y-43850890D01*
X29441331Y-44019369D01*
X29075271Y-44263962D01*
X28763962Y-44575271D01*
X28519369Y-44941331D01*
X28350890Y-45348075D01*
X28265000Y-45779872D01*
X25660000Y-45779872D01*
X25660000Y-28505653D01*
X33315952Y-28505653D01*
X33471962Y-28821214D01*
X33846745Y-29012020D01*
X34251551Y-29126044D01*
X34670824Y-29158902D01*
X35088451Y-29109334D01*
X35143898Y-29091298D01*
X36524903Y-29091298D01*
X37338000Y-29904395D01*
X38151097Y-29091298D01*
X38079514Y-28847329D01*
X37864510Y-28745595D01*
X42101282Y-28745595D01*
X42145039Y-29064675D01*
X42250205Y-29369088D01*
X42343186Y-29543044D01*
X42607587Y-29638808D01*
X43563395Y-28683000D01*
X42607587Y-27727192D01*
X42343186Y-27822956D01*
X42202296Y-28112571D01*
X42120616Y-28424108D01*
X42101282Y-28745595D01*
X37864510Y-28745595D01*
X37824004Y-28726429D01*
X37549816Y-28657700D01*
X37267488Y-28643783D01*
X36987870Y-28685213D01*
X36721708Y-28780397D01*
X36596486Y-28847329D01*
X36524903Y-29091298D01*
X35143898Y-29091298D01*
X35488383Y-28979243D01*
X35784038Y-28821214D01*
X35940048Y-28505653D01*
X34628000Y-27193605D01*
X33315952Y-28505653D01*
X25660000Y-28505653D01*
X25660000Y-25660000D01*
X33094392Y-25660000D01*
X33136345Y-25701953D01*
G37*
%TD.AperFunction*%
D25*
X47701000Y-73583000D02*
X47721000Y-73583000D01*
X47721000Y-73837000D01*
X47701000Y-73837000D01*
X47701000Y-73857000D01*
X47447000Y-73857000D01*
X47447000Y-73837000D01*
X47427000Y-73837000D01*
X47427000Y-73583000D01*
X47447000Y-73583000D01*
X47447000Y-73563000D01*
X47701000Y-73563000D01*
X47701000Y-73583000D01*
%TA.AperFunction,Conductor*%
D26*
G36*
X47701000Y-73583000D02*
G01*
X47721000Y-73583000D01*
X47721000Y-73837000D01*
X47701000Y-73837000D01*
X47701000Y-73857000D01*
X47447000Y-73857000D01*
X47447000Y-73837000D01*
X47427000Y-73837000D01*
X47427000Y-73583000D01*
X47447000Y-73583000D01*
X47447000Y-73563000D01*
X47701000Y-73563000D01*
X47701000Y-73583000D01*
G37*
%TD.AperFunction*%
D25*
X49340001Y-72444583D02*
X49178751Y-72340446D01*
X48970537Y-72257988D01*
X49001226Y-72183898D01*
X49041000Y-71983939D01*
X49041000Y-71780061D01*
X49001226Y-71580102D01*
X48923205Y-71391744D01*
X48809937Y-71222226D01*
X48665774Y-71078063D01*
X48496256Y-70964795D01*
X48307898Y-70886774D01*
X48107939Y-70847000D01*
X47904061Y-70847000D01*
X47704102Y-70886774D01*
X47515744Y-70964795D01*
X47346226Y-71078063D01*
X47252289Y-71172000D01*
X45828604Y-71172000D01*
X45875205Y-71102256D01*
X45953226Y-70913898D01*
X45993000Y-70713939D01*
X45993000Y-70510061D01*
X45953226Y-70310102D01*
X45875205Y-70121744D01*
X45761937Y-69952226D01*
X45668000Y-69858289D01*
X45668000Y-69268242D01*
X46026168Y-69452437D01*
X46460428Y-69576674D01*
X46910581Y-69613804D01*
X47359328Y-69562400D01*
X47789424Y-69424438D01*
X48123509Y-69245867D01*
X48298525Y-68914130D01*
X46874000Y-67489605D01*
X46859858Y-67503748D01*
X46680253Y-67324143D01*
X46694395Y-67310000D01*
X47053605Y-67310000D01*
X48478130Y-68734525D01*
X48809867Y-68559509D01*
X49016437Y-68157832D01*
X49140674Y-67723572D01*
X49177804Y-67273419D01*
X49126400Y-66824672D01*
X48988438Y-66394576D01*
X48809867Y-66060491D01*
X48478130Y-65885475D01*
X47053605Y-67310000D01*
X46694395Y-67310000D01*
X46680253Y-67295858D01*
X46859858Y-67116253D01*
X46874000Y-67130395D01*
X48298525Y-65705870D01*
X48177139Y-65475787D01*
X48239226Y-65325898D01*
X48279000Y-65125939D01*
X48279000Y-64993091D01*
X49340001Y-63932090D01*
X49340001Y-72444583D01*
%TA.AperFunction,Conductor*%
D26*
G36*
X49340001Y-72444583D02*
G01*
X49178751Y-72340446D01*
X48970537Y-72257988D01*
X49001226Y-72183898D01*
X49041000Y-71983939D01*
X49041000Y-71780061D01*
X49001226Y-71580102D01*
X48923205Y-71391744D01*
X48809937Y-71222226D01*
X48665774Y-71078063D01*
X48496256Y-70964795D01*
X48307898Y-70886774D01*
X48107939Y-70847000D01*
X47904061Y-70847000D01*
X47704102Y-70886774D01*
X47515744Y-70964795D01*
X47346226Y-71078063D01*
X47252289Y-71172000D01*
X45828604Y-71172000D01*
X45875205Y-71102256D01*
X45953226Y-70913898D01*
X45993000Y-70713939D01*
X45993000Y-70510061D01*
X45953226Y-70310102D01*
X45875205Y-70121744D01*
X45761937Y-69952226D01*
X45668000Y-69858289D01*
X45668000Y-69268242D01*
X46026168Y-69452437D01*
X46460428Y-69576674D01*
X46910581Y-69613804D01*
X47359328Y-69562400D01*
X47789424Y-69424438D01*
X48123509Y-69245867D01*
X48298525Y-68914130D01*
X46874000Y-67489605D01*
X46859858Y-67503748D01*
X46680253Y-67324143D01*
X46694395Y-67310000D01*
X47053605Y-67310000D01*
X48478130Y-68734525D01*
X48809867Y-68559509D01*
X49016437Y-68157832D01*
X49140674Y-67723572D01*
X49177804Y-67273419D01*
X49126400Y-66824672D01*
X48988438Y-66394576D01*
X48809867Y-66060491D01*
X48478130Y-65885475D01*
X47053605Y-67310000D01*
X46694395Y-67310000D01*
X46680253Y-67295858D01*
X46859858Y-67116253D01*
X46874000Y-67130395D01*
X48298525Y-65705870D01*
X48177139Y-65475787D01*
X48239226Y-65325898D01*
X48279000Y-65125939D01*
X48279000Y-64993091D01*
X49340001Y-63932090D01*
X49340001Y-72444583D01*
G37*
%TD.AperFunction*%
D25*
X30771000Y-71937002D02*
X30929748Y-71937002D01*
X30771000Y-72095750D01*
X30769275Y-72188000D01*
X30716406Y-72188000D01*
X30405379Y-71876973D01*
X30423965Y-71880670D01*
X30627843Y-71880670D01*
X30771000Y-71852195D01*
X30771000Y-71937002D01*
%TA.AperFunction,Conductor*%
D26*
G36*
X30771000Y-71937002D02*
G01*
X30929748Y-71937002D01*
X30771000Y-72095750D01*
X30769275Y-72188000D01*
X30716406Y-72188000D01*
X30405379Y-71876973D01*
X30423965Y-71880670D01*
X30627843Y-71880670D01*
X30771000Y-71852195D01*
X30771000Y-71937002D01*
G37*
%TD.AperFunction*%
D25*
X33283000Y-71683000D02*
X33303000Y-71683000D01*
X33303000Y-71863000D01*
X33252063Y-71863000D01*
X33052104Y-71902774D01*
X33009000Y-71920628D01*
X33009000Y-71683000D01*
X33029000Y-71683000D01*
X33029000Y-71663000D01*
X33283000Y-71663000D01*
X33283000Y-71683000D01*
%TA.AperFunction,Conductor*%
D26*
G36*
X33283000Y-71683000D02*
G01*
X33303000Y-71683000D01*
X33303000Y-71863000D01*
X33252063Y-71863000D01*
X33052104Y-71902774D01*
X33009000Y-71920628D01*
X33009000Y-71683000D01*
X33029000Y-71683000D01*
X33029000Y-71663000D01*
X33283000Y-71663000D01*
X33283000Y-71683000D01*
G37*
%TD.AperFunction*%
D25*
X39669506Y-65590537D02*
X39779820Y-65649502D01*
X39899518Y-65685812D01*
X40024000Y-65698072D01*
X42897605Y-65698072D01*
X42779383Y-65816295D01*
X42717245Y-65816295D01*
X42517286Y-65856069D01*
X42328928Y-65934090D01*
X42159410Y-66047358D01*
X42015247Y-66191521D01*
X41901979Y-66361039D01*
X41823958Y-66549397D01*
X41784184Y-66749356D01*
X41784184Y-66953234D01*
X41823958Y-67153193D01*
X41901979Y-67341551D01*
X42015247Y-67511069D01*
X42159410Y-67655232D01*
X42328928Y-67768500D01*
X42517286Y-67846521D01*
X42717245Y-67886295D01*
X42921123Y-67886295D01*
X43121082Y-67846521D01*
X43309440Y-67768500D01*
X43478958Y-67655232D01*
X43623121Y-67511069D01*
X43736389Y-67341551D01*
X43814410Y-67153193D01*
X43848002Y-66984315D01*
X43848001Y-68416124D01*
X43844566Y-68450999D01*
X43848001Y-68485874D01*
X43848001Y-68485875D01*
X43858274Y-68590182D01*
X43898873Y-68724018D01*
X43964801Y-68847361D01*
X44053526Y-68955473D01*
X44080618Y-68977707D01*
X44248001Y-69145090D01*
X44248000Y-69858289D01*
X44162072Y-69944217D01*
X44162072Y-69560000D01*
X44149812Y-69435518D01*
X44113502Y-69315820D01*
X44054537Y-69205506D01*
X43975185Y-69108815D01*
X43878494Y-69029463D01*
X43768180Y-68970498D01*
X43648482Y-68934188D01*
X43524000Y-68921928D01*
X40024000Y-68921928D01*
X39899518Y-68934188D01*
X39779820Y-68970498D01*
X39669506Y-69029463D01*
X39572815Y-69108815D01*
X39493463Y-69205506D01*
X39434498Y-69315820D01*
X39398188Y-69435518D01*
X39393207Y-69486089D01*
X39369525Y-69505525D01*
X39280800Y-69613637D01*
X39241280Y-69687574D01*
X39229813Y-69629926D01*
X39151792Y-69441568D01*
X39038524Y-69272050D01*
X38973002Y-69206528D01*
X38973002Y-65970865D01*
X38977042Y-65929847D01*
X38969776Y-65856069D01*
X38960920Y-65766158D01*
X38949606Y-65728862D01*
X39075721Y-65728862D01*
X39275680Y-65689088D01*
X39464038Y-65611067D01*
X39591084Y-65526178D01*
X39669506Y-65590537D01*
%TA.AperFunction,Conductor*%
D26*
G36*
X39669506Y-65590537D02*
G01*
X39779820Y-65649502D01*
X39899518Y-65685812D01*
X40024000Y-65698072D01*
X42897605Y-65698072D01*
X42779383Y-65816295D01*
X42717245Y-65816295D01*
X42517286Y-65856069D01*
X42328928Y-65934090D01*
X42159410Y-66047358D01*
X42015247Y-66191521D01*
X41901979Y-66361039D01*
X41823958Y-66549397D01*
X41784184Y-66749356D01*
X41784184Y-66953234D01*
X41823958Y-67153193D01*
X41901979Y-67341551D01*
X42015247Y-67511069D01*
X42159410Y-67655232D01*
X42328928Y-67768500D01*
X42517286Y-67846521D01*
X42717245Y-67886295D01*
X42921123Y-67886295D01*
X43121082Y-67846521D01*
X43309440Y-67768500D01*
X43478958Y-67655232D01*
X43623121Y-67511069D01*
X43736389Y-67341551D01*
X43814410Y-67153193D01*
X43848002Y-66984315D01*
X43848001Y-68416124D01*
X43844566Y-68450999D01*
X43848001Y-68485874D01*
X43848001Y-68485875D01*
X43858274Y-68590182D01*
X43898873Y-68724018D01*
X43964801Y-68847361D01*
X44053526Y-68955473D01*
X44080618Y-68977707D01*
X44248001Y-69145090D01*
X44248000Y-69858289D01*
X44162072Y-69944217D01*
X44162072Y-69560000D01*
X44149812Y-69435518D01*
X44113502Y-69315820D01*
X44054537Y-69205506D01*
X43975185Y-69108815D01*
X43878494Y-69029463D01*
X43768180Y-68970498D01*
X43648482Y-68934188D01*
X43524000Y-68921928D01*
X40024000Y-68921928D01*
X39899518Y-68934188D01*
X39779820Y-68970498D01*
X39669506Y-69029463D01*
X39572815Y-69108815D01*
X39493463Y-69205506D01*
X39434498Y-69315820D01*
X39398188Y-69435518D01*
X39393207Y-69486089D01*
X39369525Y-69505525D01*
X39280800Y-69613637D01*
X39241280Y-69687574D01*
X39229813Y-69629926D01*
X39151792Y-69441568D01*
X39038524Y-69272050D01*
X38973002Y-69206528D01*
X38973002Y-65970865D01*
X38977042Y-65929847D01*
X38969776Y-65856069D01*
X38960920Y-65766158D01*
X38949606Y-65728862D01*
X39075721Y-65728862D01*
X39275680Y-65689088D01*
X39464038Y-65611067D01*
X39591084Y-65526178D01*
X39669506Y-65590537D01*
G37*
%TD.AperFunction*%
D25*
X34895751Y-66888267D02*
X34946011Y-66921850D01*
X34946011Y-68925869D01*
X34906000Y-68921928D01*
X33916000Y-68921928D01*
X33916000Y-67650584D01*
X34787034Y-66779550D01*
X34895751Y-66888267D01*
%TA.AperFunction,Conductor*%
D26*
G36*
X34895751Y-66888267D02*
G01*
X34946011Y-66921850D01*
X34946011Y-68925869D01*
X34906000Y-68921928D01*
X33916000Y-68921928D01*
X33916000Y-67650584D01*
X34787034Y-66779550D01*
X34895751Y-66888267D01*
G37*
%TD.AperFunction*%
D25*
X48939011Y-59445503D02*
X48898023Y-59429271D01*
X48601000Y-59375000D01*
X47701000Y-59375000D01*
X47701000Y-60783000D01*
X47721000Y-60783000D01*
X47721000Y-61037000D01*
X47701000Y-61037000D01*
X47701000Y-62445000D01*
X48601000Y-62445000D01*
X48867626Y-62396283D01*
X47274909Y-63989000D01*
X47142061Y-63989000D01*
X46942102Y-64028774D01*
X46853880Y-64065317D01*
X46816968Y-63976203D01*
X46703700Y-63806685D01*
X46659763Y-63762748D01*
X46659763Y-62445000D01*
X47447000Y-62445000D01*
X47447000Y-61037000D01*
X47427000Y-61037000D01*
X47427000Y-60783000D01*
X47447000Y-60783000D01*
X47447000Y-59479377D01*
X47760019Y-59166358D01*
X47853740Y-59185000D01*
X48146260Y-59185000D01*
X48433158Y-59127932D01*
X48703411Y-59015990D01*
X48939011Y-58858567D01*
X48939011Y-59445503D01*
%TA.AperFunction,Conductor*%
D26*
G36*
X48939011Y-59445503D02*
G01*
X48898023Y-59429271D01*
X48601000Y-59375000D01*
X47701000Y-59375000D01*
X47701000Y-60783000D01*
X47721000Y-60783000D01*
X47721000Y-61037000D01*
X47701000Y-61037000D01*
X47701000Y-62445000D01*
X48601000Y-62445000D01*
X48867626Y-62396283D01*
X47274909Y-63989000D01*
X47142061Y-63989000D01*
X46942102Y-64028774D01*
X46853880Y-64065317D01*
X46816968Y-63976203D01*
X46703700Y-63806685D01*
X46659763Y-63762748D01*
X46659763Y-62445000D01*
X47447000Y-62445000D01*
X47447000Y-61037000D01*
X47427000Y-61037000D01*
X47427000Y-60783000D01*
X47447000Y-60783000D01*
X47447000Y-59479377D01*
X47760019Y-59166358D01*
X47853740Y-59185000D01*
X48146260Y-59185000D01*
X48433158Y-59127932D01*
X48703411Y-59015990D01*
X48939011Y-58858567D01*
X48939011Y-59445503D01*
G37*
%TD.AperFunction*%
D25*
X42924291Y-60136906D02*
X43093809Y-60250174D01*
X43217400Y-60301367D01*
X43214027Y-60305477D01*
X43182076Y-60365253D01*
X43143455Y-60437507D01*
X43099998Y-60580768D01*
X43089001Y-60692421D01*
X43089001Y-60692431D01*
X43085325Y-60729753D01*
X43089001Y-60767076D01*
X43089001Y-61722841D01*
X42059750Y-61725000D01*
X41901000Y-61883750D01*
X41901000Y-62683000D01*
X41921000Y-62683000D01*
X41921000Y-62937000D01*
X41901000Y-62937000D01*
X41901000Y-62957000D01*
X41647000Y-62957000D01*
X41647000Y-62937000D01*
X41627000Y-62937000D01*
X41627000Y-62683000D01*
X41647000Y-62683000D01*
X41647000Y-61883750D01*
X41488250Y-61725000D01*
X41168760Y-61724330D01*
X42840237Y-60052852D01*
X42924291Y-60136906D01*
%TA.AperFunction,Conductor*%
D26*
G36*
X42924291Y-60136906D02*
G01*
X43093809Y-60250174D01*
X43217400Y-60301367D01*
X43214027Y-60305477D01*
X43182076Y-60365253D01*
X43143455Y-60437507D01*
X43099998Y-60580768D01*
X43089001Y-60692421D01*
X43089001Y-60692431D01*
X43085325Y-60729753D01*
X43089001Y-60767076D01*
X43089001Y-61722841D01*
X42059750Y-61725000D01*
X41901000Y-61883750D01*
X41901000Y-62683000D01*
X41921000Y-62683000D01*
X41921000Y-62937000D01*
X41901000Y-62937000D01*
X41901000Y-62957000D01*
X41647000Y-62957000D01*
X41647000Y-62937000D01*
X41627000Y-62937000D01*
X41627000Y-62683000D01*
X41647000Y-62683000D01*
X41647000Y-61883750D01*
X41488250Y-61725000D01*
X41168760Y-61724330D01*
X42840237Y-60052852D01*
X42924291Y-60136906D01*
G37*
%TD.AperFunction*%
D25*
X39930000Y-46447125D02*
X39926565Y-46482000D01*
X39930000Y-46516875D01*
X39930000Y-46516876D01*
X39940273Y-46621183D01*
X39980872Y-46755019D01*
X40046800Y-46878362D01*
X40135525Y-46986474D01*
X40162617Y-47008708D01*
X40621000Y-47467091D01*
X40621000Y-47599939D01*
X40660774Y-47799898D01*
X40738795Y-47988256D01*
X40852063Y-48157774D01*
X40924727Y-48230438D01*
X40886860Y-48276580D01*
X40820931Y-48399924D01*
X40780333Y-48533759D01*
X40766624Y-48672943D01*
X40770060Y-48707828D01*
X40770059Y-57716918D01*
X38903510Y-59583467D01*
X38926129Y-59541150D01*
X38966728Y-59407314D01*
X38977001Y-59303007D01*
X38977001Y-59303006D01*
X38980436Y-59268131D01*
X38977001Y-59233256D01*
X38977001Y-47264117D01*
X39102388Y-47239176D01*
X39290746Y-47161155D01*
X39460264Y-47047887D01*
X39604427Y-46903724D01*
X39717695Y-46734206D01*
X39795716Y-46545848D01*
X39814013Y-46453863D01*
X39930000Y-46405819D01*
X39930000Y-46447125D01*
%TA.AperFunction,Conductor*%
D26*
G36*
X39930000Y-46447125D02*
G01*
X39926565Y-46482000D01*
X39930000Y-46516875D01*
X39930000Y-46516876D01*
X39940273Y-46621183D01*
X39980872Y-46755019D01*
X40046800Y-46878362D01*
X40135525Y-46986474D01*
X40162617Y-47008708D01*
X40621000Y-47467091D01*
X40621000Y-47599939D01*
X40660774Y-47799898D01*
X40738795Y-47988256D01*
X40852063Y-48157774D01*
X40924727Y-48230438D01*
X40886860Y-48276580D01*
X40820931Y-48399924D01*
X40780333Y-48533759D01*
X40766624Y-48672943D01*
X40770060Y-48707828D01*
X40770059Y-57716918D01*
X38903510Y-59583467D01*
X38926129Y-59541150D01*
X38966728Y-59407314D01*
X38977001Y-59303007D01*
X38977001Y-59303006D01*
X38980436Y-59268131D01*
X38977001Y-59233256D01*
X38977001Y-47264117D01*
X39102388Y-47239176D01*
X39290746Y-47161155D01*
X39460264Y-47047887D01*
X39604427Y-46903724D01*
X39717695Y-46734206D01*
X39795716Y-46545848D01*
X39814013Y-46453863D01*
X39930000Y-46405819D01*
X39930000Y-46447125D01*
G37*
%TD.AperFunction*%
D25*
X46698815Y-46301185D02*
X46795506Y-46380537D01*
X46905820Y-46439502D01*
X46978380Y-46461513D01*
X46846525Y-46593368D01*
X46684010Y-46836589D01*
X46572068Y-47106842D01*
X46515000Y-47393740D01*
X46515000Y-47686260D01*
X46572068Y-47973158D01*
X46684010Y-48243411D01*
X46846525Y-48486632D01*
X47053368Y-48693475D01*
X47227760Y-48810000D01*
X47053368Y-48926525D01*
X46846525Y-49133368D01*
X46684010Y-49376589D01*
X46572068Y-49646842D01*
X46515000Y-49933740D01*
X46515000Y-50226260D01*
X46572068Y-50513158D01*
X46684010Y-50783411D01*
X46846525Y-51026632D01*
X47053368Y-51233475D01*
X47227760Y-51350000D01*
X47053368Y-51466525D01*
X46846525Y-51673368D01*
X46684010Y-51916589D01*
X46572068Y-52186842D01*
X46515000Y-52473740D01*
X46515000Y-52766260D01*
X46558790Y-52986408D01*
X44606016Y-54939183D01*
X44577012Y-54962986D01*
X44535360Y-55013740D01*
X44482039Y-55078711D01*
X44462448Y-55115363D01*
X44411467Y-55210741D01*
X44368010Y-55354002D01*
X44357013Y-55465655D01*
X44357013Y-55465665D01*
X44353337Y-55502987D01*
X44357013Y-55540310D01*
X44357014Y-58642207D01*
X44243839Y-58529032D01*
X44144000Y-58462322D01*
X44144000Y-49316091D01*
X46451384Y-47008708D01*
X46478475Y-46986475D01*
X46537901Y-46914064D01*
X46567199Y-46878365D01*
X46571456Y-46870401D01*
X46633128Y-46755020D01*
X46673727Y-46621184D01*
X46684000Y-46516877D01*
X46684000Y-46516876D01*
X46687435Y-46482001D01*
X46684000Y-46447126D01*
X46684000Y-46283133D01*
X46698815Y-46301185D01*
%TA.AperFunction,Conductor*%
D26*
G36*
X46698815Y-46301185D02*
G01*
X46795506Y-46380537D01*
X46905820Y-46439502D01*
X46978380Y-46461513D01*
X46846525Y-46593368D01*
X46684010Y-46836589D01*
X46572068Y-47106842D01*
X46515000Y-47393740D01*
X46515000Y-47686260D01*
X46572068Y-47973158D01*
X46684010Y-48243411D01*
X46846525Y-48486632D01*
X47053368Y-48693475D01*
X47227760Y-48810000D01*
X47053368Y-48926525D01*
X46846525Y-49133368D01*
X46684010Y-49376589D01*
X46572068Y-49646842D01*
X46515000Y-49933740D01*
X46515000Y-50226260D01*
X46572068Y-50513158D01*
X46684010Y-50783411D01*
X46846525Y-51026632D01*
X47053368Y-51233475D01*
X47227760Y-51350000D01*
X47053368Y-51466525D01*
X46846525Y-51673368D01*
X46684010Y-51916589D01*
X46572068Y-52186842D01*
X46515000Y-52473740D01*
X46515000Y-52766260D01*
X46558790Y-52986408D01*
X44606016Y-54939183D01*
X44577012Y-54962986D01*
X44535360Y-55013740D01*
X44482039Y-55078711D01*
X44462448Y-55115363D01*
X44411467Y-55210741D01*
X44368010Y-55354002D01*
X44357013Y-55465655D01*
X44357013Y-55465665D01*
X44353337Y-55502987D01*
X44357013Y-55540310D01*
X44357014Y-58642207D01*
X44243839Y-58529032D01*
X44144000Y-58462322D01*
X44144000Y-49316091D01*
X46451384Y-47008708D01*
X46478475Y-46986475D01*
X46537901Y-46914064D01*
X46567199Y-46878365D01*
X46571456Y-46870401D01*
X46633128Y-46755020D01*
X46673727Y-46621184D01*
X46684000Y-46516877D01*
X46684000Y-46516876D01*
X46687435Y-46482001D01*
X46684000Y-46447126D01*
X46684000Y-46283133D01*
X46698815Y-46301185D01*
G37*
%TD.AperFunction*%
D25*
X33147000Y-56007000D02*
X33167000Y-56007000D01*
X33167000Y-56261000D01*
X33147000Y-56261000D01*
X33147000Y-56281000D01*
X32893000Y-56281000D01*
X32893000Y-56261000D01*
X32873000Y-56261000D01*
X32873000Y-56007000D01*
X32893000Y-56007000D01*
X32893000Y-55987000D01*
X33147000Y-55987000D01*
X33147000Y-56007000D01*
%TA.AperFunction,Conductor*%
D26*
G36*
X33147000Y-56007000D02*
G01*
X33167000Y-56007000D01*
X33167000Y-56261000D01*
X33147000Y-56261000D01*
X33147000Y-56281000D01*
X32893000Y-56281000D01*
X32893000Y-56261000D01*
X32873000Y-56261000D01*
X32873000Y-56007000D01*
X32893000Y-56007000D01*
X32893000Y-55987000D01*
X33147000Y-55987000D01*
X33147000Y-56007000D01*
G37*
%TD.AperFunction*%
D25*
X42904928Y-31808000D02*
X42917188Y-31932482D01*
X42917345Y-31933000D01*
X42917188Y-31933518D01*
X42904928Y-32058000D01*
X42904928Y-32458000D01*
X42917188Y-32582482D01*
X42917345Y-32583000D01*
X42917188Y-32583518D01*
X42904928Y-32708000D01*
X42904928Y-33108000D01*
X42917188Y-33232482D01*
X42917971Y-33235064D01*
X42908000Y-33326250D01*
X42975968Y-33394218D01*
X43012463Y-33462494D01*
X43091815Y-33559185D01*
X43179322Y-33631000D01*
X43066750Y-33631000D01*
X42908000Y-33789750D01*
X42919206Y-33892229D01*
X42957379Y-34011346D01*
X43018057Y-34120727D01*
X43098908Y-34216169D01*
X43194954Y-34292515D01*
X43056912Y-34340205D01*
X42882956Y-34433186D01*
X42787192Y-34697587D01*
X43743000Y-35653395D01*
X43757143Y-35639253D01*
X43936748Y-35818858D01*
X43922605Y-35833000D01*
X44878413Y-36788808D01*
X45142814Y-36693044D01*
X45283704Y-36403429D01*
X45365384Y-36091892D01*
X45377189Y-35895595D01*
X45551282Y-35895595D01*
X45595039Y-36214675D01*
X45700205Y-36519088D01*
X45793186Y-36693044D01*
X46057587Y-36788808D01*
X47013395Y-35833000D01*
X46057587Y-34877192D01*
X45793186Y-34972956D01*
X45652296Y-35262571D01*
X45570616Y-35574108D01*
X45551282Y-35895595D01*
X45377189Y-35895595D01*
X45384718Y-35770405D01*
X45340961Y-35451325D01*
X45253744Y-35198866D01*
X45343022Y-35181108D01*
X45517731Y-35108741D01*
X45674964Y-35003681D01*
X45808681Y-34869964D01*
X45913741Y-34712731D01*
X45986108Y-34538022D01*
X46023000Y-34352552D01*
X46023000Y-34163448D01*
X45986108Y-33977978D01*
X45913741Y-33803269D01*
X45823357Y-33668000D01*
X46358197Y-33668000D01*
X46911498Y-34221302D01*
X46811325Y-34235039D01*
X46506912Y-34340205D01*
X46332956Y-34433186D01*
X46237192Y-34697587D01*
X47193000Y-35653395D01*
X47207143Y-35639253D01*
X47386748Y-35818858D01*
X47372605Y-35833000D01*
X48328413Y-36788808D01*
X48592814Y-36693044D01*
X48733704Y-36403429D01*
X48815384Y-36091892D01*
X48834718Y-35770405D01*
X48790961Y-35451325D01*
X48685795Y-35146912D01*
X48592814Y-34972956D01*
X48328415Y-34877193D01*
X48362893Y-34842715D01*
X48436933Y-34873383D01*
X48656212Y-34917000D01*
X48879788Y-34917000D01*
X49099067Y-34873383D01*
X49305624Y-34787824D01*
X49340000Y-34764855D01*
X49340000Y-43746112D01*
X49301185Y-43698815D01*
X49204494Y-43619463D01*
X49094180Y-43560498D01*
X48974482Y-43524188D01*
X48850000Y-43511928D01*
X48285750Y-43515000D01*
X48127000Y-43673750D01*
X48127000Y-44873000D01*
X48147000Y-44873000D01*
X48147000Y-45127000D01*
X48127000Y-45127000D01*
X48127000Y-45147000D01*
X47873000Y-45147000D01*
X47873000Y-45127000D01*
X47853000Y-45127000D01*
X47853000Y-44873000D01*
X47873000Y-44873000D01*
X47873000Y-43673750D01*
X47714250Y-43515000D01*
X47150000Y-43511928D01*
X47025518Y-43524188D01*
X46905820Y-43560498D01*
X46795506Y-43619463D01*
X46698815Y-43698815D01*
X46684000Y-43716867D01*
X46684000Y-41182875D01*
X46687435Y-41148000D01*
X46682652Y-41099435D01*
X46673727Y-41008816D01*
X46633128Y-40874980D01*
X46567200Y-40751637D01*
X46478474Y-40643525D01*
X46451383Y-40621292D01*
X46123225Y-40293134D01*
X46158632Y-40269475D01*
X46290487Y-40137620D01*
X46312498Y-40210180D01*
X46371463Y-40320494D01*
X46450815Y-40417185D01*
X46547506Y-40496537D01*
X46657820Y-40555502D01*
X46777518Y-40591812D01*
X46902000Y-40604072D01*
X47466250Y-40601000D01*
X47625000Y-40442250D01*
X47625000Y-39243000D01*
X47879000Y-39243000D01*
X47879000Y-40442250D01*
X48037750Y-40601000D01*
X48602000Y-40604072D01*
X48726482Y-40591812D01*
X48846180Y-40555502D01*
X48956494Y-40496537D01*
X49053185Y-40417185D01*
X49132537Y-40320494D01*
X49191502Y-40210180D01*
X49227812Y-40090482D01*
X49240072Y-39966000D01*
X49237000Y-39401750D01*
X49078250Y-39243000D01*
X47879000Y-39243000D01*
X47625000Y-39243000D01*
X47605000Y-39243000D01*
X47605000Y-38989000D01*
X47625000Y-38989000D01*
X47625000Y-37789750D01*
X47879000Y-37789750D01*
X47879000Y-38989000D01*
X49078250Y-38989000D01*
X49237000Y-38830250D01*
X49240072Y-38266000D01*
X49227812Y-38141518D01*
X49191502Y-38021820D01*
X49132537Y-37911506D01*
X49053185Y-37814815D01*
X48956494Y-37735463D01*
X48846180Y-37676498D01*
X48726482Y-37640188D01*
X48602000Y-37627928D01*
X48037750Y-37631000D01*
X47879000Y-37789750D01*
X47625000Y-37789750D01*
X47466250Y-37631000D01*
X46902000Y-37627928D01*
X46777518Y-37640188D01*
X46657820Y-37676498D01*
X46547506Y-37735463D01*
X46450815Y-37814815D01*
X46371463Y-37911506D01*
X46312498Y-38021820D01*
X46290487Y-38094380D01*
X46158632Y-37962525D01*
X45915411Y-37800010D01*
X45645158Y-37688068D01*
X45358260Y-37631000D01*
X45065740Y-37631000D01*
X44778842Y-37688068D01*
X44508589Y-37800010D01*
X44265368Y-37962525D01*
X44058525Y-38169368D01*
X43896010Y-38412589D01*
X43784068Y-38682842D01*
X43727000Y-38969740D01*
X43727000Y-39262260D01*
X43753984Y-39397917D01*
X43735311Y-39390182D01*
X43535352Y-39350408D01*
X43331474Y-39350408D01*
X43131515Y-39390182D01*
X42943157Y-39468203D01*
X42773639Y-39581471D01*
X42629476Y-39725634D01*
X42516208Y-39895152D01*
X42438187Y-40083510D01*
X42398413Y-40283469D01*
X42398413Y-40487347D01*
X42438187Y-40687306D01*
X42516208Y-40875664D01*
X42629476Y-41045182D01*
X42723414Y-41139120D01*
X42723413Y-46425498D01*
X42385311Y-46763600D01*
X42315774Y-46694063D01*
X42184094Y-46606078D01*
X42232215Y-46534060D01*
X42310236Y-46345702D01*
X42350010Y-46145743D01*
X42350010Y-45941865D01*
X42310236Y-45741906D01*
X42232215Y-45553548D01*
X42118947Y-45384030D01*
X42025010Y-45290093D01*
X42025010Y-41647711D01*
X42118947Y-41553774D01*
X42232215Y-41384256D01*
X42310236Y-41195898D01*
X42350010Y-40995939D01*
X42350010Y-40792061D01*
X42310236Y-40592102D01*
X42232215Y-40403744D01*
X42118947Y-40234226D01*
X41974784Y-40090063D01*
X41805266Y-39976795D01*
X41616908Y-39898774D01*
X41416949Y-39859000D01*
X41350000Y-39859000D01*
X41350000Y-36968413D01*
X42787192Y-36968413D01*
X42882956Y-37232814D01*
X43172571Y-37373704D01*
X43484108Y-37455384D01*
X43805595Y-37474718D01*
X44124675Y-37430961D01*
X44429088Y-37325795D01*
X44603044Y-37232814D01*
X44698808Y-36968413D01*
X46237192Y-36968413D01*
X46332956Y-37232814D01*
X46622571Y-37373704D01*
X46934108Y-37455384D01*
X47255595Y-37474718D01*
X47574675Y-37430961D01*
X47879088Y-37325795D01*
X48053044Y-37232814D01*
X48148808Y-36968413D01*
X47193000Y-36012605D01*
X46237192Y-36968413D01*
X44698808Y-36968413D01*
X43743000Y-36012605D01*
X42787192Y-36968413D01*
X41350000Y-36968413D01*
X41350000Y-36567711D01*
X41443937Y-36473774D01*
X41557205Y-36304256D01*
X41635226Y-36115898D01*
X41675000Y-35915939D01*
X41675000Y-35895595D01*
X42101282Y-35895595D01*
X42145039Y-36214675D01*
X42250205Y-36519088D01*
X42343186Y-36693044D01*
X42607587Y-36788808D01*
X43563395Y-35833000D01*
X42607587Y-34877192D01*
X42343186Y-34972956D01*
X42202296Y-35262571D01*
X42120616Y-35574108D01*
X42101282Y-35895595D01*
X41675000Y-35895595D01*
X41675000Y-35712061D01*
X41635226Y-35512102D01*
X41557205Y-35323744D01*
X41443937Y-35154226D01*
X41299774Y-35010063D01*
X41130256Y-34896795D01*
X40941898Y-34818774D01*
X40741939Y-34779000D01*
X40538061Y-34779000D01*
X40511367Y-34784310D01*
X40511367Y-34508379D01*
X40559019Y-34460727D01*
X40621157Y-34460727D01*
X40821116Y-34420953D01*
X41009474Y-34342932D01*
X41178992Y-34229664D01*
X41323155Y-34085501D01*
X41436423Y-33915983D01*
X41514444Y-33727625D01*
X41554218Y-33527666D01*
X41554218Y-33323788D01*
X41514444Y-33123829D01*
X41436423Y-32935471D01*
X41323155Y-32765953D01*
X41178992Y-32621790D01*
X41009474Y-32508522D01*
X40821116Y-32430501D01*
X40621157Y-32390727D01*
X40543289Y-32390727D01*
X40458417Y-32263706D01*
X40314254Y-32119543D01*
X40144736Y-32006275D01*
X39956378Y-31928254D01*
X39756419Y-31888480D01*
X39552541Y-31888480D01*
X39352582Y-31928254D01*
X39164224Y-32006275D01*
X38994706Y-32119543D01*
X38850543Y-32263706D01*
X38763357Y-32394189D01*
X38717853Y-32165426D01*
X38609680Y-31904273D01*
X38555573Y-31823296D01*
X38585869Y-31793000D01*
X42904928Y-31793000D01*
X42904928Y-31808000D01*
%TA.AperFunction,Conductor*%
D26*
G36*
X42904928Y-31808000D02*
G01*
X42917188Y-31932482D01*
X42917345Y-31933000D01*
X42917188Y-31933518D01*
X42904928Y-32058000D01*
X42904928Y-32458000D01*
X42917188Y-32582482D01*
X42917345Y-32583000D01*
X42917188Y-32583518D01*
X42904928Y-32708000D01*
X42904928Y-33108000D01*
X42917188Y-33232482D01*
X42917971Y-33235064D01*
X42908000Y-33326250D01*
X42975968Y-33394218D01*
X43012463Y-33462494D01*
X43091815Y-33559185D01*
X43179322Y-33631000D01*
X43066750Y-33631000D01*
X42908000Y-33789750D01*
X42919206Y-33892229D01*
X42957379Y-34011346D01*
X43018057Y-34120727D01*
X43098908Y-34216169D01*
X43194954Y-34292515D01*
X43056912Y-34340205D01*
X42882956Y-34433186D01*
X42787192Y-34697587D01*
X43743000Y-35653395D01*
X43757143Y-35639253D01*
X43936748Y-35818858D01*
X43922605Y-35833000D01*
X44878413Y-36788808D01*
X45142814Y-36693044D01*
X45283704Y-36403429D01*
X45365384Y-36091892D01*
X45377189Y-35895595D01*
X45551282Y-35895595D01*
X45595039Y-36214675D01*
X45700205Y-36519088D01*
X45793186Y-36693044D01*
X46057587Y-36788808D01*
X47013395Y-35833000D01*
X46057587Y-34877192D01*
X45793186Y-34972956D01*
X45652296Y-35262571D01*
X45570616Y-35574108D01*
X45551282Y-35895595D01*
X45377189Y-35895595D01*
X45384718Y-35770405D01*
X45340961Y-35451325D01*
X45253744Y-35198866D01*
X45343022Y-35181108D01*
X45517731Y-35108741D01*
X45674964Y-35003681D01*
X45808681Y-34869964D01*
X45913741Y-34712731D01*
X45986108Y-34538022D01*
X46023000Y-34352552D01*
X46023000Y-34163448D01*
X45986108Y-33977978D01*
X45913741Y-33803269D01*
X45823357Y-33668000D01*
X46358197Y-33668000D01*
X46911498Y-34221302D01*
X46811325Y-34235039D01*
X46506912Y-34340205D01*
X46332956Y-34433186D01*
X46237192Y-34697587D01*
X47193000Y-35653395D01*
X47207143Y-35639253D01*
X47386748Y-35818858D01*
X47372605Y-35833000D01*
X48328413Y-36788808D01*
X48592814Y-36693044D01*
X48733704Y-36403429D01*
X48815384Y-36091892D01*
X48834718Y-35770405D01*
X48790961Y-35451325D01*
X48685795Y-35146912D01*
X48592814Y-34972956D01*
X48328415Y-34877193D01*
X48362893Y-34842715D01*
X48436933Y-34873383D01*
X48656212Y-34917000D01*
X48879788Y-34917000D01*
X49099067Y-34873383D01*
X49305624Y-34787824D01*
X49340000Y-34764855D01*
X49340000Y-43746112D01*
X49301185Y-43698815D01*
X49204494Y-43619463D01*
X49094180Y-43560498D01*
X48974482Y-43524188D01*
X48850000Y-43511928D01*
X48285750Y-43515000D01*
X48127000Y-43673750D01*
X48127000Y-44873000D01*
X48147000Y-44873000D01*
X48147000Y-45127000D01*
X48127000Y-45127000D01*
X48127000Y-45147000D01*
X47873000Y-45147000D01*
X47873000Y-45127000D01*
X47853000Y-45127000D01*
X47853000Y-44873000D01*
X47873000Y-44873000D01*
X47873000Y-43673750D01*
X47714250Y-43515000D01*
X47150000Y-43511928D01*
X47025518Y-43524188D01*
X46905820Y-43560498D01*
X46795506Y-43619463D01*
X46698815Y-43698815D01*
X46684000Y-43716867D01*
X46684000Y-41182875D01*
X46687435Y-41148000D01*
X46682652Y-41099435D01*
X46673727Y-41008816D01*
X46633128Y-40874980D01*
X46567200Y-40751637D01*
X46478474Y-40643525D01*
X46451383Y-40621292D01*
X46123225Y-40293134D01*
X46158632Y-40269475D01*
X46290487Y-40137620D01*
X46312498Y-40210180D01*
X46371463Y-40320494D01*
X46450815Y-40417185D01*
X46547506Y-40496537D01*
X46657820Y-40555502D01*
X46777518Y-40591812D01*
X46902000Y-40604072D01*
X47466250Y-40601000D01*
X47625000Y-40442250D01*
X47625000Y-39243000D01*
X47879000Y-39243000D01*
X47879000Y-40442250D01*
X48037750Y-40601000D01*
X48602000Y-40604072D01*
X48726482Y-40591812D01*
X48846180Y-40555502D01*
X48956494Y-40496537D01*
X49053185Y-40417185D01*
X49132537Y-40320494D01*
X49191502Y-40210180D01*
X49227812Y-40090482D01*
X49240072Y-39966000D01*
X49237000Y-39401750D01*
X49078250Y-39243000D01*
X47879000Y-39243000D01*
X47625000Y-39243000D01*
X47605000Y-39243000D01*
X47605000Y-38989000D01*
X47625000Y-38989000D01*
X47625000Y-37789750D01*
X47879000Y-37789750D01*
X47879000Y-38989000D01*
X49078250Y-38989000D01*
X49237000Y-38830250D01*
X49240072Y-38266000D01*
X49227812Y-38141518D01*
X49191502Y-38021820D01*
X49132537Y-37911506D01*
X49053185Y-37814815D01*
X48956494Y-37735463D01*
X48846180Y-37676498D01*
X48726482Y-37640188D01*
X48602000Y-37627928D01*
X48037750Y-37631000D01*
X47879000Y-37789750D01*
X47625000Y-37789750D01*
X47466250Y-37631000D01*
X46902000Y-37627928D01*
X46777518Y-37640188D01*
X46657820Y-37676498D01*
X46547506Y-37735463D01*
X46450815Y-37814815D01*
X46371463Y-37911506D01*
X46312498Y-38021820D01*
X46290487Y-38094380D01*
X46158632Y-37962525D01*
X45915411Y-37800010D01*
X45645158Y-37688068D01*
X45358260Y-37631000D01*
X45065740Y-37631000D01*
X44778842Y-37688068D01*
X44508589Y-37800010D01*
X44265368Y-37962525D01*
X44058525Y-38169368D01*
X43896010Y-38412589D01*
X43784068Y-38682842D01*
X43727000Y-38969740D01*
X43727000Y-39262260D01*
X43753984Y-39397917D01*
X43735311Y-39390182D01*
X43535352Y-39350408D01*
X43331474Y-39350408D01*
X43131515Y-39390182D01*
X42943157Y-39468203D01*
X42773639Y-39581471D01*
X42629476Y-39725634D01*
X42516208Y-39895152D01*
X42438187Y-40083510D01*
X42398413Y-40283469D01*
X42398413Y-40487347D01*
X42438187Y-40687306D01*
X42516208Y-40875664D01*
X42629476Y-41045182D01*
X42723414Y-41139120D01*
X42723413Y-46425498D01*
X42385311Y-46763600D01*
X42315774Y-46694063D01*
X42184094Y-46606078D01*
X42232215Y-46534060D01*
X42310236Y-46345702D01*
X42350010Y-46145743D01*
X42350010Y-45941865D01*
X42310236Y-45741906D01*
X42232215Y-45553548D01*
X42118947Y-45384030D01*
X42025010Y-45290093D01*
X42025010Y-41647711D01*
X42118947Y-41553774D01*
X42232215Y-41384256D01*
X42310236Y-41195898D01*
X42350010Y-40995939D01*
X42350010Y-40792061D01*
X42310236Y-40592102D01*
X42232215Y-40403744D01*
X42118947Y-40234226D01*
X41974784Y-40090063D01*
X41805266Y-39976795D01*
X41616908Y-39898774D01*
X41416949Y-39859000D01*
X41350000Y-39859000D01*
X41350000Y-36968413D01*
X42787192Y-36968413D01*
X42882956Y-37232814D01*
X43172571Y-37373704D01*
X43484108Y-37455384D01*
X43805595Y-37474718D01*
X44124675Y-37430961D01*
X44429088Y-37325795D01*
X44603044Y-37232814D01*
X44698808Y-36968413D01*
X46237192Y-36968413D01*
X46332956Y-37232814D01*
X46622571Y-37373704D01*
X46934108Y-37455384D01*
X47255595Y-37474718D01*
X47574675Y-37430961D01*
X47879088Y-37325795D01*
X48053044Y-37232814D01*
X48148808Y-36968413D01*
X47193000Y-36012605D01*
X46237192Y-36968413D01*
X44698808Y-36968413D01*
X43743000Y-36012605D01*
X42787192Y-36968413D01*
X41350000Y-36968413D01*
X41350000Y-36567711D01*
X41443937Y-36473774D01*
X41557205Y-36304256D01*
X41635226Y-36115898D01*
X41675000Y-35915939D01*
X41675000Y-35895595D01*
X42101282Y-35895595D01*
X42145039Y-36214675D01*
X42250205Y-36519088D01*
X42343186Y-36693044D01*
X42607587Y-36788808D01*
X43563395Y-35833000D01*
X42607587Y-34877192D01*
X42343186Y-34972956D01*
X42202296Y-35262571D01*
X42120616Y-35574108D01*
X42101282Y-35895595D01*
X41675000Y-35895595D01*
X41675000Y-35712061D01*
X41635226Y-35512102D01*
X41557205Y-35323744D01*
X41443937Y-35154226D01*
X41299774Y-35010063D01*
X41130256Y-34896795D01*
X40941898Y-34818774D01*
X40741939Y-34779000D01*
X40538061Y-34779000D01*
X40511367Y-34784310D01*
X40511367Y-34508379D01*
X40559019Y-34460727D01*
X40621157Y-34460727D01*
X40821116Y-34420953D01*
X41009474Y-34342932D01*
X41178992Y-34229664D01*
X41323155Y-34085501D01*
X41436423Y-33915983D01*
X41514444Y-33727625D01*
X41554218Y-33527666D01*
X41554218Y-33323788D01*
X41514444Y-33123829D01*
X41436423Y-32935471D01*
X41323155Y-32765953D01*
X41178992Y-32621790D01*
X41009474Y-32508522D01*
X40821116Y-32430501D01*
X40621157Y-32390727D01*
X40543289Y-32390727D01*
X40458417Y-32263706D01*
X40314254Y-32119543D01*
X40144736Y-32006275D01*
X39956378Y-31928254D01*
X39756419Y-31888480D01*
X39552541Y-31888480D01*
X39352582Y-31928254D01*
X39164224Y-32006275D01*
X38994706Y-32119543D01*
X38850543Y-32263706D01*
X38763357Y-32394189D01*
X38717853Y-32165426D01*
X38609680Y-31904273D01*
X38555573Y-31823296D01*
X38585869Y-31793000D01*
X42904928Y-31793000D01*
X42904928Y-31808000D01*
G37*
%TD.AperFunction*%
D25*
X36066320Y-33263727D02*
X36223363Y-33498759D01*
X36308604Y-33584000D01*
X36223363Y-33669241D01*
X36066320Y-33904273D01*
X35958147Y-34165426D01*
X35903000Y-34442665D01*
X35903000Y-34725335D01*
X35958147Y-35002574D01*
X36066320Y-35263727D01*
X36223363Y-35498759D01*
X36401581Y-35676977D01*
X36343820Y-35694498D01*
X36233506Y-35753463D01*
X36136815Y-35832815D01*
X36057463Y-35929506D01*
X35998498Y-36039820D01*
X35962188Y-36159518D01*
X35949928Y-36284000D01*
X35949928Y-37884000D01*
X35962188Y-38008482D01*
X35998498Y-38128180D01*
X36057463Y-38238494D01*
X36136815Y-38335185D01*
X36233506Y-38414537D01*
X36343820Y-38473502D01*
X36463518Y-38509812D01*
X36588000Y-38522072D01*
X38088000Y-38522072D01*
X38212482Y-38509812D01*
X38332180Y-38473502D01*
X38442494Y-38414537D01*
X38484660Y-38379932D01*
X38484661Y-39610713D01*
X38455939Y-39605000D01*
X38252061Y-39605000D01*
X38052102Y-39644774D01*
X37863744Y-39722795D01*
X37694226Y-39836063D01*
X37550063Y-39980226D01*
X37436795Y-40149744D01*
X37358774Y-40338102D01*
X37319000Y-40538061D01*
X37319000Y-40670908D01*
X35620036Y-42369873D01*
X35592945Y-42392106D01*
X35570712Y-42419197D01*
X35504220Y-42500218D01*
X35438291Y-42623562D01*
X35397693Y-42757397D01*
X35383984Y-42896581D01*
X35387420Y-42931465D01*
X35387420Y-43075029D01*
X33969105Y-43075029D01*
X32811281Y-41917205D01*
X32782414Y-41772082D01*
X32730046Y-41645653D01*
X33315952Y-41645653D01*
X33471962Y-41961214D01*
X33846745Y-42152020D01*
X34251551Y-42266044D01*
X34670824Y-42298902D01*
X35088451Y-42249334D01*
X35488383Y-42119243D01*
X35784038Y-41961214D01*
X35940048Y-41645653D01*
X34628000Y-40333605D01*
X33315952Y-41645653D01*
X32730046Y-41645653D01*
X32704393Y-41583724D01*
X32591125Y-41414206D01*
X32446962Y-41270043D01*
X32277444Y-41156775D01*
X32089086Y-41078754D01*
X32038999Y-41068791D01*
X32038999Y-40196824D01*
X32483098Y-40196824D01*
X32532666Y-40614451D01*
X32662757Y-41014383D01*
X32820786Y-41310038D01*
X33136347Y-41466048D01*
X34448395Y-40154000D01*
X34807605Y-40154000D01*
X36119653Y-41466048D01*
X36435214Y-41310038D01*
X36626020Y-40935255D01*
X36740044Y-40530449D01*
X36772902Y-40111176D01*
X36723334Y-39693549D01*
X36593243Y-39293617D01*
X36435214Y-38997962D01*
X36119653Y-38841952D01*
X34807605Y-40154000D01*
X34448395Y-40154000D01*
X33136347Y-38841952D01*
X32820786Y-38997962D01*
X32629980Y-39372745D01*
X32515956Y-39777551D01*
X32483098Y-40196824D01*
X32038999Y-40196824D01*
X32038999Y-38662347D01*
X33315952Y-38662347D01*
X34628000Y-39974395D01*
X35940048Y-38662347D01*
X35784038Y-38346786D01*
X35409255Y-38155980D01*
X35004449Y-38041956D01*
X34585176Y-38009098D01*
X34167549Y-38058666D01*
X33767617Y-38188757D01*
X33471962Y-38346786D01*
X33315952Y-38662347D01*
X32038999Y-38662347D01*
X32038999Y-35930875D01*
X32092538Y-35920226D01*
X32280896Y-35842205D01*
X32450414Y-35728937D01*
X32594577Y-35584774D01*
X32707845Y-35415256D01*
X32785866Y-35226898D01*
X32825640Y-35026939D01*
X32825640Y-34926820D01*
X32910744Y-34983685D01*
X33099102Y-35061706D01*
X33299061Y-35101480D01*
X33502939Y-35101480D01*
X33702898Y-35061706D01*
X33891256Y-34983685D01*
X34060774Y-34870417D01*
X34204937Y-34726254D01*
X34274544Y-34622080D01*
X34317900Y-34622080D01*
X34358918Y-34626120D01*
X34399936Y-34622080D01*
X34399937Y-34622080D01*
X34522607Y-34609998D01*
X34680005Y-34562252D01*
X34825064Y-34484716D01*
X34952209Y-34380371D01*
X34978364Y-34348501D01*
X36065388Y-33261478D01*
X36066320Y-33263727D01*
%TA.AperFunction,Conductor*%
D26*
G36*
X36066320Y-33263727D02*
G01*
X36223363Y-33498759D01*
X36308604Y-33584000D01*
X36223363Y-33669241D01*
X36066320Y-33904273D01*
X35958147Y-34165426D01*
X35903000Y-34442665D01*
X35903000Y-34725335D01*
X35958147Y-35002574D01*
X36066320Y-35263727D01*
X36223363Y-35498759D01*
X36401581Y-35676977D01*
X36343820Y-35694498D01*
X36233506Y-35753463D01*
X36136815Y-35832815D01*
X36057463Y-35929506D01*
X35998498Y-36039820D01*
X35962188Y-36159518D01*
X35949928Y-36284000D01*
X35949928Y-37884000D01*
X35962188Y-38008482D01*
X35998498Y-38128180D01*
X36057463Y-38238494D01*
X36136815Y-38335185D01*
X36233506Y-38414537D01*
X36343820Y-38473502D01*
X36463518Y-38509812D01*
X36588000Y-38522072D01*
X38088000Y-38522072D01*
X38212482Y-38509812D01*
X38332180Y-38473502D01*
X38442494Y-38414537D01*
X38484660Y-38379932D01*
X38484661Y-39610713D01*
X38455939Y-39605000D01*
X38252061Y-39605000D01*
X38052102Y-39644774D01*
X37863744Y-39722795D01*
X37694226Y-39836063D01*
X37550063Y-39980226D01*
X37436795Y-40149744D01*
X37358774Y-40338102D01*
X37319000Y-40538061D01*
X37319000Y-40670908D01*
X35620036Y-42369873D01*
X35592945Y-42392106D01*
X35570712Y-42419197D01*
X35504220Y-42500218D01*
X35438291Y-42623562D01*
X35397693Y-42757397D01*
X35383984Y-42896581D01*
X35387420Y-42931465D01*
X35387420Y-43075029D01*
X33969105Y-43075029D01*
X32811281Y-41917205D01*
X32782414Y-41772082D01*
X32730046Y-41645653D01*
X33315952Y-41645653D01*
X33471962Y-41961214D01*
X33846745Y-42152020D01*
X34251551Y-42266044D01*
X34670824Y-42298902D01*
X35088451Y-42249334D01*
X35488383Y-42119243D01*
X35784038Y-41961214D01*
X35940048Y-41645653D01*
X34628000Y-40333605D01*
X33315952Y-41645653D01*
X32730046Y-41645653D01*
X32704393Y-41583724D01*
X32591125Y-41414206D01*
X32446962Y-41270043D01*
X32277444Y-41156775D01*
X32089086Y-41078754D01*
X32038999Y-41068791D01*
X32038999Y-40196824D01*
X32483098Y-40196824D01*
X32532666Y-40614451D01*
X32662757Y-41014383D01*
X32820786Y-41310038D01*
X33136347Y-41466048D01*
X34448395Y-40154000D01*
X34807605Y-40154000D01*
X36119653Y-41466048D01*
X36435214Y-41310038D01*
X36626020Y-40935255D01*
X36740044Y-40530449D01*
X36772902Y-40111176D01*
X36723334Y-39693549D01*
X36593243Y-39293617D01*
X36435214Y-38997962D01*
X36119653Y-38841952D01*
X34807605Y-40154000D01*
X34448395Y-40154000D01*
X33136347Y-38841952D01*
X32820786Y-38997962D01*
X32629980Y-39372745D01*
X32515956Y-39777551D01*
X32483098Y-40196824D01*
X32038999Y-40196824D01*
X32038999Y-38662347D01*
X33315952Y-38662347D01*
X34628000Y-39974395D01*
X35940048Y-38662347D01*
X35784038Y-38346786D01*
X35409255Y-38155980D01*
X35004449Y-38041956D01*
X34585176Y-38009098D01*
X34167549Y-38058666D01*
X33767617Y-38188757D01*
X33471962Y-38346786D01*
X33315952Y-38662347D01*
X32038999Y-38662347D01*
X32038999Y-35930875D01*
X32092538Y-35920226D01*
X32280896Y-35842205D01*
X32450414Y-35728937D01*
X32594577Y-35584774D01*
X32707845Y-35415256D01*
X32785866Y-35226898D01*
X32825640Y-35026939D01*
X32825640Y-34926820D01*
X32910744Y-34983685D01*
X33099102Y-35061706D01*
X33299061Y-35101480D01*
X33502939Y-35101480D01*
X33702898Y-35061706D01*
X33891256Y-34983685D01*
X34060774Y-34870417D01*
X34204937Y-34726254D01*
X34274544Y-34622080D01*
X34317900Y-34622080D01*
X34358918Y-34626120D01*
X34399936Y-34622080D01*
X34399937Y-34622080D01*
X34522607Y-34609998D01*
X34680005Y-34562252D01*
X34825064Y-34484716D01*
X34952209Y-34380371D01*
X34978364Y-34348501D01*
X36065388Y-33261478D01*
X36066320Y-33263727D01*
G37*
%TD.AperFunction*%
%TD*%
M02*
