%TF.GenerationSoftware,KiCad,Pcbnew,(5.1.9-16-g1737927814)-1*%
%TF.CreationDate,2021-10-14T17:25:43-05:00*%
%TF.ProjectId,adbuino,61646275-696e-46f2-9e6b-696361645f70,rev?*%
%TF.SameCoordinates,Original*%
%TF.FileFunction,Legend,Top*%
%TF.FilePolarity,Positive*%
%FSLAX46Y46*%
G04 Gerber Fmt 4.6, Leading zero omitted, Abs format (unit mm)*
G04 Created by KiCad (PCBNEW (5.1.9-16-g1737927814)-1) date 2021-10-14 17:25:43*
%MOMM*%
%LPD*%
G01*
G04 APERTURE LIST*
%ADD10C,0.120000*%
%ADD11C,0.100000*%
%ADD12C,0.150000*%
%ADD13C,0.250000*%
%ADD14C,0.200000*%
%ADD15C,0.254000*%
G04 APERTURE END LIST*
D10*
X28448000Y-56642000D02*
X28448000Y-52578000D01*
D11*
X27501904Y-55873523D02*
X28149523Y-55873523D01*
X28225714Y-55835428D01*
X28263809Y-55797333D01*
X28301904Y-55721142D01*
X28301904Y-55568761D01*
X28263809Y-55492571D01*
X28225714Y-55454476D01*
X28149523Y-55416380D01*
X27501904Y-55416380D01*
X28263809Y-55073523D02*
X28301904Y-54959238D01*
X28301904Y-54768761D01*
X28263809Y-54692571D01*
X28225714Y-54654476D01*
X28149523Y-54616380D01*
X28073333Y-54616380D01*
X27997142Y-54654476D01*
X27959047Y-54692571D01*
X27920952Y-54768761D01*
X27882857Y-54921142D01*
X27844761Y-54997333D01*
X27806666Y-55035428D01*
X27730476Y-55073523D01*
X27654285Y-55073523D01*
X27578095Y-55035428D01*
X27540000Y-54997333D01*
X27501904Y-54921142D01*
X27501904Y-54730666D01*
X27540000Y-54616380D01*
X27882857Y-54006857D02*
X27920952Y-53892571D01*
X27959047Y-53854476D01*
X28035238Y-53816380D01*
X28149523Y-53816380D01*
X28225714Y-53854476D01*
X28263809Y-53892571D01*
X28301904Y-53968761D01*
X28301904Y-54273523D01*
X27501904Y-54273523D01*
X27501904Y-54006857D01*
X27540000Y-53930666D01*
X27578095Y-53892571D01*
X27654285Y-53854476D01*
X27730476Y-53854476D01*
X27806666Y-53892571D01*
X27844761Y-53930666D01*
X27882857Y-54006857D01*
X27882857Y-54273523D01*
X45360666Y-40510666D02*
X45494000Y-40510666D01*
X45560666Y-40544000D01*
X45627333Y-40610666D01*
X45660666Y-40744000D01*
X45660666Y-40977333D01*
X45627333Y-41110666D01*
X45560666Y-41177333D01*
X45494000Y-41210666D01*
X45360666Y-41210666D01*
X45294000Y-41177333D01*
X45227333Y-41110666D01*
X45194000Y-40977333D01*
X45194000Y-40744000D01*
X45227333Y-40610666D01*
X45294000Y-40544000D01*
X45360666Y-40510666D01*
X45960666Y-41210666D02*
X45960666Y-40510666D01*
X46227333Y-40510666D01*
X46294000Y-40544000D01*
X46327333Y-40577333D01*
X46360666Y-40644000D01*
X46360666Y-40744000D01*
X46327333Y-40810666D01*
X46294000Y-40844000D01*
X46227333Y-40877333D01*
X45960666Y-40877333D01*
X46560666Y-40510666D02*
X46960666Y-40510666D01*
X46760666Y-41210666D02*
X46760666Y-40510666D01*
X47694000Y-41177333D02*
X47794000Y-41210666D01*
X47960666Y-41210666D01*
X48027333Y-41177333D01*
X48060666Y-41144000D01*
X48094000Y-41077333D01*
X48094000Y-41010666D01*
X48060666Y-40944000D01*
X48027333Y-40910666D01*
X47960666Y-40877333D01*
X47827333Y-40844000D01*
X47760666Y-40810666D01*
X47727333Y-40777333D01*
X47694000Y-40710666D01*
X47694000Y-40644000D01*
X47727333Y-40577333D01*
X47760666Y-40544000D01*
X47827333Y-40510666D01*
X47994000Y-40510666D01*
X48094000Y-40544000D01*
X48394000Y-40844000D02*
X48627333Y-40844000D01*
X48727333Y-41210666D02*
X48394000Y-41210666D01*
X48394000Y-40510666D01*
X48727333Y-40510666D01*
X49360666Y-41210666D02*
X49027333Y-41210666D01*
X49027333Y-40510666D01*
D10*
X28448000Y-56642000D02*
X25146000Y-56642000D01*
X28448000Y-41148000D02*
X28448000Y-52578000D01*
X25146000Y-41148000D02*
X28448000Y-41148000D01*
D11*
X34194000Y-56921333D02*
X34160666Y-56988000D01*
X34160666Y-57088000D01*
X34194000Y-57188000D01*
X34260666Y-57254666D01*
X34327333Y-57288000D01*
X34460666Y-57321333D01*
X34560666Y-57321333D01*
X34694000Y-57288000D01*
X34760666Y-57254666D01*
X34827333Y-57188000D01*
X34860666Y-57088000D01*
X34860666Y-57021333D01*
X34827333Y-56921333D01*
X34794000Y-56888000D01*
X34560666Y-56888000D01*
X34560666Y-57021333D01*
X34860666Y-56588000D02*
X34160666Y-56588000D01*
X34860666Y-56188000D01*
X34160666Y-56188000D01*
X34860666Y-55854666D02*
X34160666Y-55854666D01*
X34160666Y-55688000D01*
X34194000Y-55588000D01*
X34260666Y-55521333D01*
X34327333Y-55488000D01*
X34460666Y-55454666D01*
X34560666Y-55454666D01*
X34694000Y-55488000D01*
X34760666Y-55521333D01*
X34827333Y-55588000D01*
X34860666Y-55688000D01*
X34860666Y-55854666D01*
X34860666Y-54694000D02*
X34160666Y-54694000D01*
X34660666Y-54460666D01*
X34160666Y-54227333D01*
X34860666Y-54227333D01*
X34160666Y-53760666D02*
X34160666Y-53627333D01*
X34194000Y-53560666D01*
X34260666Y-53494000D01*
X34394000Y-53460666D01*
X34627333Y-53460666D01*
X34760666Y-53494000D01*
X34827333Y-53560666D01*
X34860666Y-53627333D01*
X34860666Y-53760666D01*
X34827333Y-53827333D01*
X34760666Y-53894000D01*
X34627333Y-53927333D01*
X34394000Y-53927333D01*
X34260666Y-53894000D01*
X34194000Y-53827333D01*
X34160666Y-53760666D01*
X34827333Y-53194000D02*
X34860666Y-53094000D01*
X34860666Y-52927333D01*
X34827333Y-52860666D01*
X34794000Y-52827333D01*
X34727333Y-52794000D01*
X34660666Y-52794000D01*
X34594000Y-52827333D01*
X34560666Y-52860666D01*
X34527333Y-52927333D01*
X34494000Y-53060666D01*
X34460666Y-53127333D01*
X34427333Y-53160666D01*
X34360666Y-53194000D01*
X34294000Y-53194000D01*
X34227333Y-53160666D01*
X34194000Y-53127333D01*
X34160666Y-53060666D01*
X34160666Y-52894000D01*
X34194000Y-52794000D01*
X34860666Y-52494000D02*
X34160666Y-52494000D01*
X29380000Y-49592666D02*
X29380000Y-48892666D01*
X29613333Y-49392666D01*
X29846666Y-48892666D01*
X29846666Y-49592666D01*
X30180000Y-49592666D02*
X30180000Y-48892666D01*
X30480000Y-49559333D02*
X30580000Y-49592666D01*
X30746666Y-49592666D01*
X30813333Y-49559333D01*
X30846666Y-49526000D01*
X30880000Y-49459333D01*
X30880000Y-49392666D01*
X30846666Y-49326000D01*
X30813333Y-49292666D01*
X30746666Y-49259333D01*
X30613333Y-49226000D01*
X30546666Y-49192666D01*
X30513333Y-49159333D01*
X30480000Y-49092666D01*
X30480000Y-49026000D01*
X30513333Y-48959333D01*
X30546666Y-48926000D01*
X30613333Y-48892666D01*
X30780000Y-48892666D01*
X30880000Y-48926000D01*
X31313333Y-48892666D02*
X31446666Y-48892666D01*
X31513333Y-48926000D01*
X31580000Y-48992666D01*
X31613333Y-49126000D01*
X31613333Y-49359333D01*
X31580000Y-49492666D01*
X31513333Y-49559333D01*
X31446666Y-49592666D01*
X31313333Y-49592666D01*
X31246666Y-49559333D01*
X31180000Y-49492666D01*
X31146666Y-49359333D01*
X31146666Y-49126000D01*
X31180000Y-48992666D01*
X31246666Y-48926000D01*
X31313333Y-48892666D01*
X34160666Y-51633333D02*
X34160666Y-51200000D01*
X34427333Y-51433333D01*
X34427333Y-51333333D01*
X34460666Y-51266666D01*
X34494000Y-51233333D01*
X34560666Y-51200000D01*
X34727333Y-51200000D01*
X34794000Y-51233333D01*
X34827333Y-51266666D01*
X34860666Y-51333333D01*
X34860666Y-51533333D01*
X34827333Y-51600000D01*
X34794000Y-51633333D01*
X34394000Y-50966666D02*
X34860666Y-50800000D01*
X34394000Y-50633333D01*
X34160666Y-50433333D02*
X34160666Y-50000000D01*
X34427333Y-50233333D01*
X34427333Y-50133333D01*
X34460666Y-50066666D01*
X34494000Y-50033333D01*
X34560666Y-50000000D01*
X34727333Y-50000000D01*
X34794000Y-50033333D01*
X34827333Y-50066666D01*
X34860666Y-50133333D01*
X34860666Y-50333333D01*
X34827333Y-50400000D01*
X34794000Y-50433333D01*
X29272666Y-56517333D02*
X28939333Y-56750666D01*
X29272666Y-56917333D02*
X28572666Y-56917333D01*
X28572666Y-56650666D01*
X28606000Y-56584000D01*
X28639333Y-56550666D01*
X28706000Y-56517333D01*
X28806000Y-56517333D01*
X28872666Y-56550666D01*
X28906000Y-56584000D01*
X28939333Y-56650666D01*
X28939333Y-56917333D01*
X29239333Y-56250666D02*
X29272666Y-56150666D01*
X29272666Y-55984000D01*
X29239333Y-55917333D01*
X29206000Y-55884000D01*
X29139333Y-55850666D01*
X29072666Y-55850666D01*
X29006000Y-55884000D01*
X28972666Y-55917333D01*
X28939333Y-55984000D01*
X28906000Y-56117333D01*
X28872666Y-56184000D01*
X28839333Y-56217333D01*
X28772666Y-56250666D01*
X28706000Y-56250666D01*
X28639333Y-56217333D01*
X28606000Y-56184000D01*
X28572666Y-56117333D01*
X28572666Y-55950666D01*
X28606000Y-55850666D01*
X28572666Y-55650666D02*
X28572666Y-55250666D01*
X29272666Y-55450666D02*
X28572666Y-55450666D01*
X29206000Y-54010666D02*
X29239333Y-54044000D01*
X29272666Y-54144000D01*
X29272666Y-54210666D01*
X29239333Y-54310666D01*
X29172666Y-54377333D01*
X29106000Y-54410666D01*
X28972666Y-54444000D01*
X28872666Y-54444000D01*
X28739333Y-54410666D01*
X28672666Y-54377333D01*
X28606000Y-54310666D01*
X28572666Y-54210666D01*
X28572666Y-54144000D01*
X28606000Y-54044000D01*
X28639333Y-54010666D01*
X29272666Y-53377333D02*
X29272666Y-53710666D01*
X28572666Y-53710666D01*
X29272666Y-53144000D02*
X28572666Y-53144000D01*
X29272666Y-52744000D02*
X28872666Y-53044000D01*
X28572666Y-52744000D02*
X28972666Y-53144000D01*
X37208666Y-74160000D02*
X37208666Y-73726666D01*
X37475333Y-73960000D01*
X37475333Y-73860000D01*
X37508666Y-73793333D01*
X37542000Y-73760000D01*
X37608666Y-73726666D01*
X37775333Y-73726666D01*
X37842000Y-73760000D01*
X37875333Y-73793333D01*
X37908666Y-73860000D01*
X37908666Y-74060000D01*
X37875333Y-74126666D01*
X37842000Y-74160000D01*
X37442000Y-73493333D02*
X37908666Y-73326666D01*
X37442000Y-73160000D01*
X37208666Y-71728000D02*
X37208666Y-72061333D01*
X37542000Y-72094666D01*
X37508666Y-72061333D01*
X37475333Y-71994666D01*
X37475333Y-71828000D01*
X37508666Y-71761333D01*
X37542000Y-71728000D01*
X37608666Y-71694666D01*
X37775333Y-71694666D01*
X37842000Y-71728000D01*
X37875333Y-71761333D01*
X37908666Y-71828000D01*
X37908666Y-71994666D01*
X37875333Y-72061333D01*
X37842000Y-72094666D01*
X37442000Y-71461333D02*
X37908666Y-71294666D01*
X37442000Y-71128000D01*
X28073333Y-51790476D02*
X28073333Y-51409523D01*
X28301904Y-51866666D02*
X27501904Y-51600000D01*
X28301904Y-51333333D01*
X28301904Y-51066666D02*
X27501904Y-51066666D01*
X27501904Y-50876190D01*
X27540000Y-50761904D01*
X27616190Y-50685714D01*
X27692380Y-50647619D01*
X27844761Y-50609523D01*
X27959047Y-50609523D01*
X28111428Y-50647619D01*
X28187619Y-50685714D01*
X28263809Y-50761904D01*
X28301904Y-50876190D01*
X28301904Y-51066666D01*
X27882857Y-50000000D02*
X27920952Y-49885714D01*
X27959047Y-49847619D01*
X28035238Y-49809523D01*
X28149523Y-49809523D01*
X28225714Y-49847619D01*
X28263809Y-49885714D01*
X28301904Y-49961904D01*
X28301904Y-50266666D01*
X27501904Y-50266666D01*
X27501904Y-50000000D01*
X27540000Y-49923809D01*
X27578095Y-49885714D01*
X27654285Y-49847619D01*
X27730476Y-49847619D01*
X27806666Y-49885714D01*
X27844761Y-49923809D01*
X27882857Y-50000000D01*
X27882857Y-50266666D01*
X27501904Y-48132857D02*
X27501904Y-47637619D01*
X27806666Y-47904285D01*
X27806666Y-47790000D01*
X27844761Y-47713809D01*
X27882857Y-47675714D01*
X27959047Y-47637619D01*
X28149523Y-47637619D01*
X28225714Y-47675714D01*
X28263809Y-47713809D01*
X28301904Y-47790000D01*
X28301904Y-48018571D01*
X28263809Y-48094761D01*
X28225714Y-48132857D01*
X28225714Y-47294761D02*
X28263809Y-47256666D01*
X28301904Y-47294761D01*
X28263809Y-47332857D01*
X28225714Y-47294761D01*
X28301904Y-47294761D01*
X27501904Y-46990000D02*
X27501904Y-46494761D01*
X27806666Y-46761428D01*
X27806666Y-46647142D01*
X27844761Y-46570952D01*
X27882857Y-46532857D01*
X27959047Y-46494761D01*
X28149523Y-46494761D01*
X28225714Y-46532857D01*
X28263809Y-46570952D01*
X28301904Y-46647142D01*
X28301904Y-46875714D01*
X28263809Y-46951904D01*
X28225714Y-46990000D01*
X27768571Y-46228095D02*
X28301904Y-46037619D01*
X27768571Y-45847142D01*
X27501904Y-44646666D02*
X28301904Y-44380000D01*
X27501904Y-44113333D01*
X27882857Y-43580000D02*
X27920952Y-43465714D01*
X27959047Y-43427619D01*
X28035238Y-43389523D01*
X28149523Y-43389523D01*
X28225714Y-43427619D01*
X28263809Y-43465714D01*
X28301904Y-43541904D01*
X28301904Y-43846666D01*
X27501904Y-43846666D01*
X27501904Y-43580000D01*
X27540000Y-43503809D01*
X27578095Y-43465714D01*
X27654285Y-43427619D01*
X27730476Y-43427619D01*
X27806666Y-43465714D01*
X27844761Y-43503809D01*
X27882857Y-43580000D01*
X27882857Y-43846666D01*
X27501904Y-43046666D02*
X28149523Y-43046666D01*
X28225714Y-43008571D01*
X28263809Y-42970476D01*
X28301904Y-42894285D01*
X28301904Y-42741904D01*
X28263809Y-42665714D01*
X28225714Y-42627619D01*
X28149523Y-42589523D01*
X27501904Y-42589523D01*
X28263809Y-42246666D02*
X28301904Y-42132380D01*
X28301904Y-41941904D01*
X28263809Y-41865714D01*
X28225714Y-41827619D01*
X28149523Y-41789523D01*
X28073333Y-41789523D01*
X27997142Y-41827619D01*
X27959047Y-41865714D01*
X27920952Y-41941904D01*
X27882857Y-42094285D01*
X27844761Y-42170476D01*
X27806666Y-42208571D01*
X27730476Y-42246666D01*
X27654285Y-42246666D01*
X27578095Y-42208571D01*
X27540000Y-42170476D01*
X27501904Y-42094285D01*
X27501904Y-41903809D01*
X27540000Y-41789523D01*
D12*
X33390666Y-49324000D02*
X33390666Y-48990666D01*
X33590666Y-49390666D02*
X32890666Y-49157333D01*
X33590666Y-48924000D01*
X33590666Y-48690666D02*
X32890666Y-48690666D01*
X32890666Y-48524000D01*
X32924000Y-48424000D01*
X32990666Y-48357333D01*
X33057333Y-48324000D01*
X33190666Y-48290666D01*
X33290666Y-48290666D01*
X33424000Y-48324000D01*
X33490666Y-48357333D01*
X33557333Y-48424000D01*
X33590666Y-48524000D01*
X33590666Y-48690666D01*
X33224000Y-47757333D02*
X33257333Y-47657333D01*
X33290666Y-47624000D01*
X33357333Y-47590666D01*
X33457333Y-47590666D01*
X33524000Y-47624000D01*
X33557333Y-47657333D01*
X33590666Y-47724000D01*
X33590666Y-47990666D01*
X32890666Y-47990666D01*
X32890666Y-47757333D01*
X32924000Y-47690666D01*
X32957333Y-47657333D01*
X33024000Y-47624000D01*
X33090666Y-47624000D01*
X33157333Y-47657333D01*
X33190666Y-47690666D01*
X33224000Y-47757333D01*
X33224000Y-47990666D01*
X33124000Y-46990666D02*
X33590666Y-46990666D01*
X33124000Y-47290666D02*
X33490666Y-47290666D01*
X33557333Y-47257333D01*
X33590666Y-47190666D01*
X33590666Y-47090666D01*
X33557333Y-47024000D01*
X33524000Y-46990666D01*
X33590666Y-46657333D02*
X33124000Y-46657333D01*
X32890666Y-46657333D02*
X32924000Y-46690666D01*
X32957333Y-46657333D01*
X32924000Y-46624000D01*
X32890666Y-46657333D01*
X32957333Y-46657333D01*
X33124000Y-46324000D02*
X33590666Y-46324000D01*
X33190666Y-46324000D02*
X33157333Y-46290666D01*
X33124000Y-46224000D01*
X33124000Y-46124000D01*
X33157333Y-46057333D01*
X33224000Y-46024000D01*
X33590666Y-46024000D01*
X33590666Y-45590666D02*
X33557333Y-45657333D01*
X33524000Y-45690666D01*
X33457333Y-45724000D01*
X33257333Y-45724000D01*
X33190666Y-45690666D01*
X33157333Y-45657333D01*
X33124000Y-45590666D01*
X33124000Y-45490666D01*
X33157333Y-45424000D01*
X33190666Y-45390666D01*
X33257333Y-45357333D01*
X33457333Y-45357333D01*
X33524000Y-45390666D01*
X33557333Y-45424000D01*
X33590666Y-45490666D01*
X33590666Y-45590666D01*
X33124000Y-44590666D02*
X33590666Y-44424000D01*
X33124000Y-44257333D01*
X33590666Y-43624000D02*
X33590666Y-44024000D01*
X33590666Y-43824000D02*
X32890666Y-43824000D01*
X32990666Y-43890666D01*
X33057333Y-43957333D01*
X33090666Y-44024000D01*
X33524000Y-43324000D02*
X33557333Y-43290666D01*
X33590666Y-43324000D01*
X33557333Y-43357333D01*
X33524000Y-43324000D01*
X33590666Y-43324000D01*
X33590666Y-42624000D02*
X33590666Y-43024000D01*
X33590666Y-42824000D02*
X32890666Y-42824000D01*
X32990666Y-42890666D01*
X33057333Y-42957333D01*
X33090666Y-43024000D01*
D11*
X45911333Y-49104666D02*
X46611333Y-49104666D01*
X46611333Y-49371333D01*
X46578000Y-49438000D01*
X46544666Y-49471333D01*
X46478000Y-49504666D01*
X46378000Y-49504666D01*
X46311333Y-49471333D01*
X46278000Y-49438000D01*
X46244666Y-49371333D01*
X46244666Y-49104666D01*
X46611333Y-49738000D02*
X45911333Y-49904666D01*
X46411333Y-50038000D01*
X45911333Y-50171333D01*
X46611333Y-50338000D01*
X45911333Y-51004666D02*
X46244666Y-50771333D01*
X45911333Y-50604666D02*
X46611333Y-50604666D01*
X46611333Y-50871333D01*
X46578000Y-50938000D01*
X46544666Y-50971333D01*
X46478000Y-51004666D01*
X46378000Y-51004666D01*
X46311333Y-50971333D01*
X46278000Y-50938000D01*
X46244666Y-50871333D01*
X46244666Y-50604666D01*
X45911333Y-56858000D02*
X46611333Y-56858000D01*
X46611333Y-57024666D01*
X46578000Y-57124666D01*
X46511333Y-57191333D01*
X46444666Y-57224666D01*
X46311333Y-57258000D01*
X46211333Y-57258000D01*
X46078000Y-57224666D01*
X46011333Y-57191333D01*
X45944666Y-57124666D01*
X45911333Y-57024666D01*
X45911333Y-56858000D01*
X46611333Y-57458000D02*
X46611333Y-57858000D01*
X45911333Y-57658000D02*
X46611333Y-57658000D01*
X45911333Y-58491333D02*
X46244666Y-58258000D01*
X45911333Y-58091333D02*
X46611333Y-58091333D01*
X46611333Y-58358000D01*
X46578000Y-58424666D01*
X46544666Y-58458000D01*
X46478000Y-58491333D01*
X46378000Y-58491333D01*
X46311333Y-58458000D01*
X46278000Y-58424666D01*
X46244666Y-58358000D01*
X46244666Y-58091333D01*
X46611333Y-54218000D02*
X46611333Y-54618000D01*
X45911333Y-54418000D02*
X46611333Y-54418000D01*
X46611333Y-54784666D02*
X45911333Y-55251333D01*
X46611333Y-55251333D02*
X45911333Y-54784666D01*
X46611333Y-55651333D02*
X46611333Y-55784666D01*
X46578000Y-55851333D01*
X46511333Y-55918000D01*
X46378000Y-55951333D01*
X46144666Y-55951333D01*
X46011333Y-55918000D01*
X45944666Y-55851333D01*
X45911333Y-55784666D01*
X45911333Y-55651333D01*
X45944666Y-55584666D01*
X46011333Y-55518000D01*
X46144666Y-55484666D01*
X46378000Y-55484666D01*
X46511333Y-55518000D01*
X46578000Y-55584666D01*
X46611333Y-55651333D01*
X45911333Y-52294666D02*
X46244666Y-52061333D01*
X45911333Y-51894666D02*
X46611333Y-51894666D01*
X46611333Y-52161333D01*
X46578000Y-52228000D01*
X46544666Y-52261333D01*
X46478000Y-52294666D01*
X46378000Y-52294666D01*
X46311333Y-52261333D01*
X46278000Y-52228000D01*
X46244666Y-52161333D01*
X46244666Y-51894666D01*
X46611333Y-52528000D02*
X45911333Y-52994666D01*
X46611333Y-52994666D02*
X45911333Y-52528000D01*
X45911333Y-53261333D02*
X46611333Y-53261333D01*
X45911333Y-46948000D02*
X46611333Y-46948000D01*
X45911333Y-47348000D01*
X46611333Y-47348000D01*
X45978000Y-48081333D02*
X45944666Y-48048000D01*
X45911333Y-47948000D01*
X45911333Y-47881333D01*
X45944666Y-47781333D01*
X46011333Y-47714666D01*
X46078000Y-47681333D01*
X46211333Y-47648000D01*
X46311333Y-47648000D01*
X46444666Y-47681333D01*
X46511333Y-47714666D01*
X46578000Y-47781333D01*
X46611333Y-47881333D01*
X46611333Y-47948000D01*
X46578000Y-48048000D01*
X46544666Y-48081333D01*
X46578000Y-44424666D02*
X46611333Y-44358000D01*
X46611333Y-44258000D01*
X46578000Y-44158000D01*
X46511333Y-44091333D01*
X46444666Y-44058000D01*
X46311333Y-44024666D01*
X46211333Y-44024666D01*
X46078000Y-44058000D01*
X46011333Y-44091333D01*
X45944666Y-44158000D01*
X45911333Y-44258000D01*
X45911333Y-44324666D01*
X45944666Y-44424666D01*
X45978000Y-44458000D01*
X46211333Y-44458000D01*
X46211333Y-44324666D01*
X45911333Y-44758000D02*
X46611333Y-44758000D01*
X45911333Y-45158000D01*
X46611333Y-45158000D01*
X45911333Y-45491333D02*
X46611333Y-45491333D01*
X46611333Y-45658000D01*
X46578000Y-45758000D01*
X46511333Y-45824666D01*
X46444666Y-45858000D01*
X46311333Y-45891333D01*
X46211333Y-45891333D01*
X46078000Y-45858000D01*
X46011333Y-45824666D01*
X45944666Y-45758000D01*
X45911333Y-45658000D01*
X45911333Y-45491333D01*
D12*
X49474380Y-33980190D02*
X48474380Y-33980190D01*
X48474380Y-33599238D01*
X48522000Y-33504000D01*
X48569619Y-33456380D01*
X48664857Y-33408761D01*
X48807714Y-33408761D01*
X48902952Y-33456380D01*
X48950571Y-33504000D01*
X48998190Y-33599238D01*
X48998190Y-33980190D01*
X49474380Y-32837333D02*
X49426761Y-32932571D01*
X49379142Y-32980190D01*
X49283904Y-33027809D01*
X48998190Y-33027809D01*
X48902952Y-32980190D01*
X48855333Y-32932571D01*
X48807714Y-32837333D01*
X48807714Y-32694476D01*
X48855333Y-32599238D01*
X48902952Y-32551619D01*
X48998190Y-32504000D01*
X49283904Y-32504000D01*
X49379142Y-32551619D01*
X49426761Y-32599238D01*
X49474380Y-32694476D01*
X49474380Y-32837333D01*
X48807714Y-32170666D02*
X49474380Y-31980190D01*
X48998190Y-31789714D01*
X49474380Y-31599238D01*
X48807714Y-31408761D01*
X49426761Y-30646857D02*
X49474380Y-30742095D01*
X49474380Y-30932571D01*
X49426761Y-31027809D01*
X49331523Y-31075428D01*
X48950571Y-31075428D01*
X48855333Y-31027809D01*
X48807714Y-30932571D01*
X48807714Y-30742095D01*
X48855333Y-30646857D01*
X48950571Y-30599238D01*
X49045809Y-30599238D01*
X49141047Y-31075428D01*
X49474380Y-30170666D02*
X48807714Y-30170666D01*
X48998190Y-30170666D02*
X48902952Y-30123047D01*
X48855333Y-30075428D01*
X48807714Y-29980190D01*
X48807714Y-29884952D01*
D11*
X26352857Y-26889904D02*
X26352857Y-26089904D01*
X26810000Y-26889904D02*
X26467142Y-26432761D01*
X26810000Y-26089904D02*
X26352857Y-26547047D01*
X27457619Y-26851809D02*
X27381428Y-26889904D01*
X27229047Y-26889904D01*
X27152857Y-26851809D01*
X27114761Y-26775619D01*
X27114761Y-26470857D01*
X27152857Y-26394666D01*
X27229047Y-26356571D01*
X27381428Y-26356571D01*
X27457619Y-26394666D01*
X27495714Y-26470857D01*
X27495714Y-26547047D01*
X27114761Y-26623238D01*
X27762380Y-26356571D02*
X27952857Y-26889904D01*
X28143333Y-26356571D02*
X27952857Y-26889904D01*
X27876666Y-27080380D01*
X27838571Y-27118476D01*
X27762380Y-27156571D01*
X28448095Y-26889904D02*
X28448095Y-26089904D01*
X28448095Y-26394666D02*
X28524285Y-26356571D01*
X28676666Y-26356571D01*
X28752857Y-26394666D01*
X28790952Y-26432761D01*
X28829047Y-26508952D01*
X28829047Y-26737523D01*
X28790952Y-26813714D01*
X28752857Y-26851809D01*
X28676666Y-26889904D01*
X28524285Y-26889904D01*
X28448095Y-26851809D01*
X29286190Y-26889904D02*
X29210000Y-26851809D01*
X29171904Y-26813714D01*
X29133809Y-26737523D01*
X29133809Y-26508952D01*
X29171904Y-26432761D01*
X29210000Y-26394666D01*
X29286190Y-26356571D01*
X29400476Y-26356571D01*
X29476666Y-26394666D01*
X29514761Y-26432761D01*
X29552857Y-26508952D01*
X29552857Y-26737523D01*
X29514761Y-26813714D01*
X29476666Y-26851809D01*
X29400476Y-26889904D01*
X29286190Y-26889904D01*
X30238571Y-26889904D02*
X30238571Y-26470857D01*
X30200476Y-26394666D01*
X30124285Y-26356571D01*
X29971904Y-26356571D01*
X29895714Y-26394666D01*
X30238571Y-26851809D02*
X30162380Y-26889904D01*
X29971904Y-26889904D01*
X29895714Y-26851809D01*
X29857619Y-26775619D01*
X29857619Y-26699428D01*
X29895714Y-26623238D01*
X29971904Y-26585142D01*
X30162380Y-26585142D01*
X30238571Y-26547047D01*
X30619523Y-26889904D02*
X30619523Y-26356571D01*
X30619523Y-26508952D02*
X30657619Y-26432761D01*
X30695714Y-26394666D01*
X30771904Y-26356571D01*
X30848095Y-26356571D01*
X31457619Y-26889904D02*
X31457619Y-26089904D01*
X31457619Y-26851809D02*
X31381428Y-26889904D01*
X31229047Y-26889904D01*
X31152857Y-26851809D01*
X31114761Y-26813714D01*
X31076666Y-26737523D01*
X31076666Y-26508952D01*
X31114761Y-26432761D01*
X31152857Y-26394666D01*
X31229047Y-26356571D01*
X31381428Y-26356571D01*
X31457619Y-26394666D01*
X27400476Y-27351809D02*
X26714761Y-28380380D01*
X28276666Y-28189904D02*
X28276666Y-27389904D01*
X28543333Y-27961333D01*
X28810000Y-27389904D01*
X28810000Y-28189904D01*
X29305238Y-28189904D02*
X29229047Y-28151809D01*
X29190952Y-28113714D01*
X29152857Y-28037523D01*
X29152857Y-27808952D01*
X29190952Y-27732761D01*
X29229047Y-27694666D01*
X29305238Y-27656571D01*
X29419523Y-27656571D01*
X29495714Y-27694666D01*
X29533809Y-27732761D01*
X29571904Y-27808952D01*
X29571904Y-28037523D01*
X29533809Y-28113714D01*
X29495714Y-28151809D01*
X29419523Y-28189904D01*
X29305238Y-28189904D01*
X30257619Y-27656571D02*
X30257619Y-28189904D01*
X29914761Y-27656571D02*
X29914761Y-28075619D01*
X29952857Y-28151809D01*
X30029047Y-28189904D01*
X30143333Y-28189904D01*
X30219523Y-28151809D01*
X30257619Y-28113714D01*
X30600476Y-28151809D02*
X30676666Y-28189904D01*
X30829047Y-28189904D01*
X30905238Y-28151809D01*
X30943333Y-28075619D01*
X30943333Y-28037523D01*
X30905238Y-27961333D01*
X30829047Y-27923238D01*
X30714761Y-27923238D01*
X30638571Y-27885142D01*
X30600476Y-27808952D01*
X30600476Y-27770857D01*
X30638571Y-27694666D01*
X30714761Y-27656571D01*
X30829047Y-27656571D01*
X30905238Y-27694666D01*
X31590952Y-28151809D02*
X31514761Y-28189904D01*
X31362380Y-28189904D01*
X31286190Y-28151809D01*
X31248095Y-28075619D01*
X31248095Y-27770857D01*
X31286190Y-27694666D01*
X31362380Y-27656571D01*
X31514761Y-27656571D01*
X31590952Y-27694666D01*
X31629047Y-27770857D01*
X31629047Y-27847047D01*
X31248095Y-27923238D01*
D12*
X49442666Y-71333809D02*
X49442666Y-70857619D01*
X49728380Y-71429047D02*
X48728380Y-71095714D01*
X49728380Y-70762380D01*
X49728380Y-70429047D02*
X48728380Y-70429047D01*
X48728380Y-70190952D01*
X48776000Y-70048095D01*
X48871238Y-69952857D01*
X48966476Y-69905238D01*
X49156952Y-69857619D01*
X49299809Y-69857619D01*
X49490285Y-69905238D01*
X49585523Y-69952857D01*
X49680761Y-70048095D01*
X49728380Y-70190952D01*
X49728380Y-70429047D01*
X49204571Y-69095714D02*
X49252190Y-68952857D01*
X49299809Y-68905238D01*
X49395047Y-68857619D01*
X49537904Y-68857619D01*
X49633142Y-68905238D01*
X49680761Y-68952857D01*
X49728380Y-69048095D01*
X49728380Y-69429047D01*
X48728380Y-69429047D01*
X48728380Y-69095714D01*
X48776000Y-69000476D01*
X48823619Y-68952857D01*
X48918857Y-68905238D01*
X49014095Y-68905238D01*
X49109333Y-68952857D01*
X49156952Y-69000476D01*
X49204571Y-69095714D01*
X49204571Y-69429047D01*
X49728380Y-67667142D02*
X48728380Y-67667142D01*
X48728380Y-67286190D01*
X48776000Y-67190952D01*
X48823619Y-67143333D01*
X48918857Y-67095714D01*
X49061714Y-67095714D01*
X49156952Y-67143333D01*
X49204571Y-67190952D01*
X49252190Y-67286190D01*
X49252190Y-67667142D01*
X49728380Y-66524285D02*
X49680761Y-66619523D01*
X49633142Y-66667142D01*
X49537904Y-66714761D01*
X49252190Y-66714761D01*
X49156952Y-66667142D01*
X49109333Y-66619523D01*
X49061714Y-66524285D01*
X49061714Y-66381428D01*
X49109333Y-66286190D01*
X49156952Y-66238571D01*
X49252190Y-66190952D01*
X49537904Y-66190952D01*
X49633142Y-66238571D01*
X49680761Y-66286190D01*
X49728380Y-66381428D01*
X49728380Y-66524285D01*
X49728380Y-65762380D02*
X49061714Y-65762380D01*
X49252190Y-65762380D02*
X49156952Y-65714761D01*
X49109333Y-65667142D01*
X49061714Y-65571904D01*
X49061714Y-65476666D01*
X49061714Y-65286190D02*
X49061714Y-64905238D01*
X48728380Y-65143333D02*
X49585523Y-65143333D01*
X49680761Y-65095714D01*
X49728380Y-65000476D01*
X49728380Y-64905238D01*
X48823619Y-63857619D02*
X48776000Y-63810000D01*
X48728380Y-63714761D01*
X48728380Y-63476666D01*
X48776000Y-63381428D01*
X48823619Y-63333809D01*
X48918857Y-63286190D01*
X49014095Y-63286190D01*
X49156952Y-63333809D01*
X49728380Y-63905238D01*
X49728380Y-63286190D01*
X26074666Y-71333809D02*
X26074666Y-70857619D01*
X26360380Y-71429047D02*
X25360380Y-71095714D01*
X26360380Y-70762380D01*
X26360380Y-70429047D02*
X25360380Y-70429047D01*
X25360380Y-70190952D01*
X25408000Y-70048095D01*
X25503238Y-69952857D01*
X25598476Y-69905238D01*
X25788952Y-69857619D01*
X25931809Y-69857619D01*
X26122285Y-69905238D01*
X26217523Y-69952857D01*
X26312761Y-70048095D01*
X26360380Y-70190952D01*
X26360380Y-70429047D01*
X25836571Y-69095714D02*
X25884190Y-68952857D01*
X25931809Y-68905238D01*
X26027047Y-68857619D01*
X26169904Y-68857619D01*
X26265142Y-68905238D01*
X26312761Y-68952857D01*
X26360380Y-69048095D01*
X26360380Y-69429047D01*
X25360380Y-69429047D01*
X25360380Y-69095714D01*
X25408000Y-69000476D01*
X25455619Y-68952857D01*
X25550857Y-68905238D01*
X25646095Y-68905238D01*
X25741333Y-68952857D01*
X25788952Y-69000476D01*
X25836571Y-69095714D01*
X25836571Y-69429047D01*
X26360380Y-67667142D02*
X25360380Y-67667142D01*
X25360380Y-67286190D01*
X25408000Y-67190952D01*
X25455619Y-67143333D01*
X25550857Y-67095714D01*
X25693714Y-67095714D01*
X25788952Y-67143333D01*
X25836571Y-67190952D01*
X25884190Y-67286190D01*
X25884190Y-67667142D01*
X26360380Y-66524285D02*
X26312761Y-66619523D01*
X26265142Y-66667142D01*
X26169904Y-66714761D01*
X25884190Y-66714761D01*
X25788952Y-66667142D01*
X25741333Y-66619523D01*
X25693714Y-66524285D01*
X25693714Y-66381428D01*
X25741333Y-66286190D01*
X25788952Y-66238571D01*
X25884190Y-66190952D01*
X26169904Y-66190952D01*
X26265142Y-66238571D01*
X26312761Y-66286190D01*
X26360380Y-66381428D01*
X26360380Y-66524285D01*
X26360380Y-65762380D02*
X25693714Y-65762380D01*
X25884190Y-65762380D02*
X25788952Y-65714761D01*
X25741333Y-65667142D01*
X25693714Y-65571904D01*
X25693714Y-65476666D01*
X25693714Y-65286190D02*
X25693714Y-64905238D01*
X25360380Y-65143333D02*
X26217523Y-65143333D01*
X26312761Y-65095714D01*
X26360380Y-65000476D01*
X26360380Y-64905238D01*
X26360380Y-63286190D02*
X26360380Y-63857619D01*
X26360380Y-63571904D02*
X25360380Y-63571904D01*
X25503238Y-63667142D01*
X25598476Y-63762380D01*
X25646095Y-63857619D01*
D10*
%TO.C,J6*%
X29150000Y-51054000D02*
X29150000Y-49724000D01*
X29150000Y-49724000D02*
X30480000Y-49724000D01*
%TO.C,R18*%
X29844000Y-64415641D02*
X29844000Y-64108359D01*
X29084000Y-64415641D02*
X29084000Y-64108359D01*
D13*
%TO.C,IC1*%
X41123206Y-51401740D02*
G75*
G03*
X41123206Y-51401740I-125000J0D01*
G01*
D14*
X43172559Y-47000000D02*
X40132000Y-50040559D01*
X40132000Y-43959441D02*
X43172559Y-47000000D01*
X37091441Y-47000000D02*
X40132000Y-43959441D01*
X40132000Y-50040559D02*
X37091441Y-47000000D01*
D10*
%TO.C,D4*%
X25151200Y-52961200D02*
X25151200Y-55646200D01*
X27071200Y-52961200D02*
X25151200Y-52961200D01*
X27071200Y-55646200D02*
X27071200Y-52961200D01*
%TO.C,J7*%
X43882000Y-37786000D02*
X43882000Y-40446000D01*
X46482000Y-37786000D02*
X43882000Y-37786000D01*
X46482000Y-40446000D02*
X43882000Y-40446000D01*
X46482000Y-37786000D02*
X46482000Y-40446000D01*
X47752000Y-37786000D02*
X49082000Y-37786000D01*
X49082000Y-37786000D02*
X49082000Y-39116000D01*
%TO.C,R17*%
X47907641Y-42290000D02*
X47600359Y-42290000D01*
X47907641Y-41530000D02*
X47600359Y-41530000D01*
%TO.C,JP4*%
X33544000Y-74014000D02*
X33544000Y-71214000D01*
X34244000Y-70564000D02*
X34844000Y-70564000D01*
X35544000Y-71214000D02*
X35544000Y-74014000D01*
X34844000Y-74664000D02*
X34244000Y-74664000D01*
X35744000Y-73814000D02*
X36044000Y-74114000D01*
X36044000Y-74114000D02*
X36044000Y-73514000D01*
X35744000Y-73814000D02*
X36044000Y-73514000D01*
X34244000Y-74664000D02*
G75*
G02*
X33544000Y-73964000I0J700000D01*
G01*
X35544000Y-73964000D02*
G75*
G02*
X34844000Y-74664000I-700000J0D01*
G01*
X34844000Y-70564000D02*
G75*
G02*
X35544000Y-71264000I0J-700000D01*
G01*
X33544000Y-71264000D02*
G75*
G02*
X34244000Y-70564000I700000J0D01*
G01*
%TO.C,JP3*%
X33004000Y-71214000D02*
X33004000Y-74014000D01*
X32304000Y-74664000D02*
X31704000Y-74664000D01*
X31004000Y-74014000D02*
X31004000Y-71214000D01*
X31704000Y-70564000D02*
X32304000Y-70564000D01*
X30804000Y-71414000D02*
X30504000Y-71114000D01*
X30504000Y-71114000D02*
X30504000Y-71714000D01*
X30804000Y-71414000D02*
X30504000Y-71714000D01*
X32304000Y-70564000D02*
G75*
G02*
X33004000Y-71264000I0J-700000D01*
G01*
X31004000Y-71264000D02*
G75*
G02*
X31704000Y-70564000I700000J0D01*
G01*
X31704000Y-74664000D02*
G75*
G02*
X31004000Y-73964000I0J700000D01*
G01*
X33004000Y-73964000D02*
G75*
G02*
X32304000Y-74664000I-700000J0D01*
G01*
%TO.C,JP2*%
X41926000Y-74014000D02*
X41926000Y-71214000D01*
X42626000Y-70564000D02*
X43226000Y-70564000D01*
X43926000Y-71214000D02*
X43926000Y-74014000D01*
X43226000Y-74664000D02*
X42626000Y-74664000D01*
X44126000Y-73814000D02*
X44426000Y-74114000D01*
X44426000Y-74114000D02*
X44426000Y-73514000D01*
X44126000Y-73814000D02*
X44426000Y-73514000D01*
X42626000Y-74664000D02*
G75*
G02*
X41926000Y-73964000I0J700000D01*
G01*
X43926000Y-73964000D02*
G75*
G02*
X43226000Y-74664000I-700000J0D01*
G01*
X43226000Y-70564000D02*
G75*
G02*
X43926000Y-71264000I0J-700000D01*
G01*
X41926000Y-71264000D02*
G75*
G02*
X42626000Y-70564000I700000J0D01*
G01*
%TO.C,JP1*%
X41386000Y-71214000D02*
X41386000Y-74014000D01*
X40686000Y-74664000D02*
X40086000Y-74664000D01*
X39386000Y-74014000D02*
X39386000Y-71214000D01*
X40086000Y-70564000D02*
X40686000Y-70564000D01*
X39186000Y-71414000D02*
X38886000Y-71114000D01*
X38886000Y-71114000D02*
X38886000Y-71714000D01*
X39186000Y-71414000D02*
X38886000Y-71714000D01*
X40686000Y-70564000D02*
G75*
G02*
X41386000Y-71264000I0J-700000D01*
G01*
X39386000Y-71264000D02*
G75*
G02*
X40086000Y-70564000I700000J0D01*
G01*
X40086000Y-74664000D02*
G75*
G02*
X39386000Y-73964000I0J700000D01*
G01*
X41386000Y-73964000D02*
G75*
G02*
X40686000Y-74664000I-700000J0D01*
G01*
%TO.C,R16*%
X44864060Y-44065341D02*
X45081341Y-43848060D01*
X44326659Y-43527940D02*
X44543940Y-43310659D01*
%TO.C,R14*%
X42578060Y-41779341D02*
X42795341Y-41562060D01*
X42040659Y-41241940D02*
X42257940Y-41024659D01*
%TO.C,R13*%
X44102060Y-43303341D02*
X44319341Y-43086060D01*
X43564659Y-42765940D02*
X43781940Y-42548659D01*
%TO.C,R15*%
X43340060Y-42541341D02*
X43557341Y-42324060D01*
X42802659Y-42003940D02*
X43019940Y-41786659D01*
%TO.C,Q1*%
X47554000Y-70106000D02*
X47554000Y-71566000D01*
X44394000Y-70106000D02*
X44394000Y-72266000D01*
X44394000Y-70106000D02*
X45324000Y-70106000D01*
X47554000Y-70106000D02*
X46624000Y-70106000D01*
%TO.C,C12*%
X35413836Y-43286000D02*
X35198164Y-43286000D01*
X35413836Y-42566000D02*
X35198164Y-42566000D01*
%TO.C,Y2*%
X38990000Y-40354000D02*
X42290000Y-40354000D01*
X42290000Y-40354000D02*
X42290000Y-36354000D01*
%TO.C,C13*%
X46080000Y-50145836D02*
X46080000Y-49930164D01*
X45360000Y-50145836D02*
X45360000Y-49930164D01*
%TO.C,R12*%
X30862000Y-59589641D02*
X30862000Y-59282359D01*
X31622000Y-59589641D02*
X31622000Y-59282359D01*
%TO.C,R11*%
X36702000Y-71728359D02*
X36702000Y-72035641D01*
X35942000Y-71728359D02*
X35942000Y-72035641D01*
%TO.C,R10*%
X35942000Y-74067641D02*
X35942000Y-73760359D01*
X36702000Y-74067641D02*
X36702000Y-73760359D01*
%TO.C,R9*%
X38988000Y-71728359D02*
X38988000Y-72035641D01*
X38228000Y-71728359D02*
X38228000Y-72035641D01*
%TO.C,R8*%
X38228000Y-74067641D02*
X38228000Y-73760359D01*
X38988000Y-74067641D02*
X38988000Y-73760359D01*
%TO.C,R7*%
X40031641Y-32384000D02*
X39724359Y-32384000D01*
X40031641Y-31624000D02*
X39724359Y-31624000D01*
%TO.C,R6*%
X39722359Y-34164000D02*
X40029641Y-34164000D01*
X39722359Y-34924000D02*
X40029641Y-34924000D01*
%TO.C,R5*%
X30379641Y-40766000D02*
X30072359Y-40766000D01*
X30379641Y-40006000D02*
X30072359Y-40006000D01*
%TO.C,R4*%
X30379641Y-41782000D02*
X30072359Y-41782000D01*
X30379641Y-41022000D02*
X30072359Y-41022000D01*
%TO.C,R3*%
X37972000Y-41502359D02*
X37972000Y-41809641D01*
X37212000Y-41502359D02*
X37212000Y-41809641D01*
%TO.C,R2*%
X42827641Y-68579000D02*
X42520359Y-68579000D01*
X42827641Y-67819000D02*
X42520359Y-67819000D01*
%TO.C,R1*%
X43839641Y-53466000D02*
X43532359Y-53466000D01*
X43839641Y-52706000D02*
X43532359Y-52706000D01*
%TO.C,C16*%
X32366239Y-67860096D02*
X32213736Y-68012599D01*
X31857122Y-67350979D02*
X31704619Y-67503482D01*
%TO.C,C15*%
X42596307Y-60121190D02*
X42748810Y-60273693D01*
X42087190Y-60630307D02*
X42239693Y-60782810D01*
%TO.C,C14*%
X41072307Y-58597190D02*
X41224810Y-58749693D01*
X40563190Y-59106307D02*
X40715693Y-59258810D01*
%TO.C,C11*%
X42566000Y-38687836D02*
X42566000Y-38472164D01*
X43286000Y-38687836D02*
X43286000Y-38472164D01*
%TO.C,C10*%
X38460000Y-39008164D02*
X38460000Y-39223836D01*
X37740000Y-39008164D02*
X37740000Y-39223836D01*
%TO.C,C9*%
X35413836Y-44810000D02*
X35198164Y-44810000D01*
X35413836Y-44090000D02*
X35198164Y-44090000D01*
%TO.C,C8*%
X42595190Y-50875693D02*
X42747693Y-50723190D01*
X43104307Y-51384810D02*
X43256810Y-51232307D01*
%TO.C,C7*%
X39772000Y-54717836D02*
X39772000Y-54502164D01*
X40492000Y-54717836D02*
X40492000Y-54502164D01*
%TO.C,C6*%
X45826000Y-54502164D02*
X45826000Y-54717836D01*
X45106000Y-54502164D02*
X45106000Y-54717836D01*
%TO.C,C5*%
X43769960Y-66683836D02*
X43769960Y-66468164D01*
X44489960Y-66683836D02*
X44489960Y-66468164D01*
%TO.C,C4*%
X30880164Y-38502000D02*
X31095836Y-38502000D01*
X30880164Y-39222000D02*
X31095836Y-39222000D01*
%TO.C,C3*%
X29063836Y-39222000D02*
X28848164Y-39222000D01*
X29063836Y-38502000D02*
X28848164Y-38502000D01*
%TO.C,C2*%
X33056170Y-68555107D02*
X32903667Y-68707610D01*
X32547053Y-68045990D02*
X32394550Y-68198493D01*
%TO.C,C1*%
X34650000Y-36976164D02*
X34650000Y-37191836D01*
X33930000Y-36976164D02*
X33930000Y-37191836D01*
%TO.C,D3*%
X27071200Y-51823100D02*
X27071200Y-49138100D01*
X27071200Y-49138100D02*
X25151200Y-49138100D01*
X25151200Y-49138100D02*
X25151200Y-51823100D01*
%TO.C,D2*%
X27071200Y-44180000D02*
X27071200Y-41495000D01*
X27071200Y-41495000D02*
X25151200Y-41495000D01*
X25151200Y-41495000D02*
X25151200Y-44180000D01*
%TO.C,D1*%
X27071200Y-48001550D02*
X27071200Y-45316550D01*
X27071200Y-45316550D02*
X25151200Y-45316550D01*
X25151200Y-45316550D02*
X25151200Y-48001550D01*
%TO.C,J1*%
X46670000Y-43670000D02*
X48000000Y-43670000D01*
X46670000Y-45000000D02*
X46670000Y-43670000D01*
X46670000Y-46270000D02*
X49330000Y-46270000D01*
X49330000Y-46270000D02*
X49330000Y-59030000D01*
X46670000Y-46270000D02*
X46670000Y-59030000D01*
X46670000Y-59030000D02*
X49330000Y-59030000D01*
%TO.C,F1*%
X34088000Y-33636969D02*
X34088000Y-33927031D01*
X35508000Y-33636969D02*
X35508000Y-33927031D01*
%TO.C,Y1*%
X40842000Y-56934000D02*
X44842000Y-56934000D01*
X40842000Y-53634000D02*
X40842000Y-56934000D01*
%TO.C,Q2*%
X30536000Y-70106000D02*
X30536000Y-71566000D01*
X27376000Y-70106000D02*
X27376000Y-72266000D01*
X27376000Y-70106000D02*
X28306000Y-70106000D01*
X30536000Y-70106000D02*
X29606000Y-70106000D01*
%TO.C,U1*%
X33382000Y-31824000D02*
X32122000Y-31824000D01*
X26562000Y-31824000D02*
X27822000Y-31824000D01*
X33382000Y-35584000D02*
X33382000Y-31824000D01*
X26562000Y-37834000D02*
X26562000Y-31824000D01*
D12*
%TO.C,U2*%
X42626524Y-64000000D02*
X42467425Y-63840901D01*
X37500000Y-69126524D02*
X37270190Y-68896714D01*
X32373476Y-64000000D02*
X32603286Y-64229810D01*
X37500000Y-58873476D02*
X37729810Y-59103286D01*
X42626524Y-64000000D02*
X42396714Y-64229810D01*
X37500000Y-58873476D02*
X37270190Y-59103286D01*
X32373476Y-64000000D02*
X32603286Y-63770190D01*
X37500000Y-69126524D02*
X37729810Y-68896714D01*
X42467425Y-63840901D02*
X43475052Y-62833274D01*
%TO.C,J6*%
X31516666Y-57782666D02*
X31516666Y-58282666D01*
X31483333Y-58382666D01*
X31416666Y-58449333D01*
X31316666Y-58482666D01*
X31250000Y-58482666D01*
X32150000Y-57782666D02*
X32016666Y-57782666D01*
X31950000Y-57816000D01*
X31916666Y-57849333D01*
X31850000Y-57949333D01*
X31816666Y-58082666D01*
X31816666Y-58349333D01*
X31850000Y-58416000D01*
X31883333Y-58449333D01*
X31950000Y-58482666D01*
X32083333Y-58482666D01*
X32150000Y-58449333D01*
X32183333Y-58416000D01*
X32216666Y-58349333D01*
X32216666Y-58182666D01*
X32183333Y-58116000D01*
X32150000Y-58082666D01*
X32083333Y-58049333D01*
X31950000Y-58049333D01*
X31883333Y-58082666D01*
X31850000Y-58116000D01*
X31816666Y-58182666D01*
%TO.C,R18*%
X28746380Y-64904857D02*
X28270190Y-65238190D01*
X28746380Y-65476285D02*
X27746380Y-65476285D01*
X27746380Y-65095333D01*
X27794000Y-65000095D01*
X27841619Y-64952476D01*
X27936857Y-64904857D01*
X28079714Y-64904857D01*
X28174952Y-64952476D01*
X28222571Y-65000095D01*
X28270190Y-65095333D01*
X28270190Y-65476285D01*
X28746380Y-63952476D02*
X28746380Y-64523904D01*
X28746380Y-64238190D02*
X27746380Y-64238190D01*
X27889238Y-64333428D01*
X27984476Y-64428666D01*
X28032095Y-64523904D01*
X28174952Y-63381047D02*
X28127333Y-63476285D01*
X28079714Y-63523904D01*
X27984476Y-63571523D01*
X27936857Y-63571523D01*
X27841619Y-63523904D01*
X27794000Y-63476285D01*
X27746380Y-63381047D01*
X27746380Y-63190571D01*
X27794000Y-63095333D01*
X27841619Y-63047714D01*
X27936857Y-63000095D01*
X27984476Y-63000095D01*
X28079714Y-63047714D01*
X28127333Y-63095333D01*
X28174952Y-63190571D01*
X28174952Y-63381047D01*
X28222571Y-63476285D01*
X28270190Y-63523904D01*
X28365428Y-63571523D01*
X28555904Y-63571523D01*
X28651142Y-63523904D01*
X28698761Y-63476285D01*
X28746380Y-63381047D01*
X28746380Y-63190571D01*
X28698761Y-63095333D01*
X28651142Y-63047714D01*
X28555904Y-63000095D01*
X28365428Y-63000095D01*
X28270190Y-63047714D01*
X28222571Y-63095333D01*
X28174952Y-63190571D01*
%TO.C,IC1*%
D15*
X38849106Y-46529605D02*
X39747131Y-45631580D01*
X39875421Y-47384868D02*
X39789895Y-47384868D01*
X39618842Y-47299341D01*
X39533316Y-47213815D01*
X39447790Y-47042763D01*
X39447790Y-46871710D01*
X39490553Y-46743421D01*
X39618842Y-46529605D01*
X39747131Y-46401316D01*
X39960947Y-46273026D01*
X40089236Y-46230263D01*
X40260289Y-46230263D01*
X40431341Y-46315790D01*
X40516868Y-46401316D01*
X40602394Y-46572368D01*
X40602394Y-46657895D01*
X40645157Y-48325656D02*
X40132000Y-47812499D01*
X40388578Y-48069078D02*
X41286604Y-47171052D01*
X41072788Y-47213815D01*
X40901736Y-47213815D01*
X40773446Y-47171052D01*
%TO.C,J7*%
D12*
X48534666Y-36954666D02*
X48534666Y-37454666D01*
X48501333Y-37554666D01*
X48434666Y-37621333D01*
X48334666Y-37654666D01*
X48268000Y-37654666D01*
X48801333Y-36954666D02*
X49268000Y-36954666D01*
X48968000Y-37654666D01*
%TO.C,R17*%
X46589904Y-42932285D02*
X46208952Y-43198952D01*
X46589904Y-43389428D02*
X45789904Y-43389428D01*
X45789904Y-43084666D01*
X45828000Y-43008476D01*
X45866095Y-42970380D01*
X45942285Y-42932285D01*
X46056571Y-42932285D01*
X46132761Y-42970380D01*
X46170857Y-43008476D01*
X46208952Y-43084666D01*
X46208952Y-43389428D01*
X46589904Y-42170380D02*
X46589904Y-42627523D01*
X46589904Y-42398952D02*
X45789904Y-42398952D01*
X45904190Y-42475142D01*
X45980380Y-42551333D01*
X46018476Y-42627523D01*
X45789904Y-41903714D02*
X45789904Y-41370380D01*
X46589904Y-41713238D01*
%TO.C,JP4*%
D11*
X33960666Y-69720666D02*
X33960666Y-70220666D01*
X33927333Y-70320666D01*
X33860666Y-70387333D01*
X33760666Y-70420666D01*
X33694000Y-70420666D01*
X34294000Y-70420666D02*
X34294000Y-69720666D01*
X34560666Y-69720666D01*
X34627333Y-69754000D01*
X34660666Y-69787333D01*
X34694000Y-69854000D01*
X34694000Y-69954000D01*
X34660666Y-70020666D01*
X34627333Y-70054000D01*
X34560666Y-70087333D01*
X34294000Y-70087333D01*
X35294000Y-69954000D02*
X35294000Y-70420666D01*
X35127333Y-69687333D02*
X34960666Y-70187333D01*
X35394000Y-70187333D01*
%TO.C,JP3*%
X31420666Y-69720666D02*
X31420666Y-70220666D01*
X31387333Y-70320666D01*
X31320666Y-70387333D01*
X31220666Y-70420666D01*
X31154000Y-70420666D01*
X31754000Y-70420666D02*
X31754000Y-69720666D01*
X32020666Y-69720666D01*
X32087333Y-69754000D01*
X32120666Y-69787333D01*
X32154000Y-69854000D01*
X32154000Y-69954000D01*
X32120666Y-70020666D01*
X32087333Y-70054000D01*
X32020666Y-70087333D01*
X31754000Y-70087333D01*
X32387333Y-69720666D02*
X32820666Y-69720666D01*
X32587333Y-69987333D01*
X32687333Y-69987333D01*
X32754000Y-70020666D01*
X32787333Y-70054000D01*
X32820666Y-70120666D01*
X32820666Y-70287333D01*
X32787333Y-70354000D01*
X32754000Y-70387333D01*
X32687333Y-70420666D01*
X32487333Y-70420666D01*
X32420666Y-70387333D01*
X32387333Y-70354000D01*
%TO.C,JP2*%
X42342666Y-69720666D02*
X42342666Y-70220666D01*
X42309333Y-70320666D01*
X42242666Y-70387333D01*
X42142666Y-70420666D01*
X42076000Y-70420666D01*
X42676000Y-70420666D02*
X42676000Y-69720666D01*
X42942666Y-69720666D01*
X43009333Y-69754000D01*
X43042666Y-69787333D01*
X43076000Y-69854000D01*
X43076000Y-69954000D01*
X43042666Y-70020666D01*
X43009333Y-70054000D01*
X42942666Y-70087333D01*
X42676000Y-70087333D01*
X43342666Y-69787333D02*
X43376000Y-69754000D01*
X43442666Y-69720666D01*
X43609333Y-69720666D01*
X43676000Y-69754000D01*
X43709333Y-69787333D01*
X43742666Y-69854000D01*
X43742666Y-69920666D01*
X43709333Y-70020666D01*
X43309333Y-70420666D01*
X43742666Y-70420666D01*
%TO.C,JP1*%
X39802666Y-69720666D02*
X39802666Y-70220666D01*
X39769333Y-70320666D01*
X39702666Y-70387333D01*
X39602666Y-70420666D01*
X39536000Y-70420666D01*
X40136000Y-70420666D02*
X40136000Y-69720666D01*
X40402666Y-69720666D01*
X40469333Y-69754000D01*
X40502666Y-69787333D01*
X40536000Y-69854000D01*
X40536000Y-69954000D01*
X40502666Y-70020666D01*
X40469333Y-70054000D01*
X40402666Y-70087333D01*
X40136000Y-70087333D01*
X41202666Y-70420666D02*
X40802666Y-70420666D01*
X41002666Y-70420666D02*
X41002666Y-69720666D01*
X40936000Y-69820666D01*
X40869333Y-69887333D01*
X40802666Y-69920666D01*
%TO.C,Q1*%
X47167809Y-69780095D02*
X47091619Y-69742000D01*
X47015428Y-69665809D01*
X46901142Y-69551523D01*
X46824952Y-69513428D01*
X46748761Y-69513428D01*
X46786857Y-69703904D02*
X46710666Y-69665809D01*
X46634476Y-69589619D01*
X46596380Y-69437238D01*
X46596380Y-69170571D01*
X46634476Y-69018190D01*
X46710666Y-68942000D01*
X46786857Y-68903904D01*
X46939238Y-68903904D01*
X47015428Y-68942000D01*
X47091619Y-69018190D01*
X47129714Y-69170571D01*
X47129714Y-69437238D01*
X47091619Y-69589619D01*
X47015428Y-69665809D01*
X46939238Y-69703904D01*
X46786857Y-69703904D01*
X47891619Y-69703904D02*
X47434476Y-69703904D01*
X47663047Y-69703904D02*
X47663047Y-68903904D01*
X47586857Y-69018190D01*
X47510666Y-69094380D01*
X47434476Y-69132476D01*
%TO.C,C12*%
X35553714Y-42449714D02*
X35515619Y-42487809D01*
X35401333Y-42525904D01*
X35325142Y-42525904D01*
X35210857Y-42487809D01*
X35134666Y-42411619D01*
X35096571Y-42335428D01*
X35058476Y-42183047D01*
X35058476Y-42068761D01*
X35096571Y-41916380D01*
X35134666Y-41840190D01*
X35210857Y-41764000D01*
X35325142Y-41725904D01*
X35401333Y-41725904D01*
X35515619Y-41764000D01*
X35553714Y-41802095D01*
X36315619Y-42525904D02*
X35858476Y-42525904D01*
X36087047Y-42525904D02*
X36087047Y-41725904D01*
X36010857Y-41840190D01*
X35934666Y-41916380D01*
X35858476Y-41954476D01*
X36620380Y-41802095D02*
X36658476Y-41764000D01*
X36734666Y-41725904D01*
X36925142Y-41725904D01*
X37001333Y-41764000D01*
X37039428Y-41802095D01*
X37077523Y-41878285D01*
X37077523Y-41954476D01*
X37039428Y-42068761D01*
X36582285Y-42525904D01*
X37077523Y-42525904D01*
%TO.C,Y2*%
D12*
X38893809Y-35790190D02*
X38893809Y-36266380D01*
X38560476Y-35266380D02*
X38893809Y-35790190D01*
X39227142Y-35266380D01*
X39512857Y-35361619D02*
X39560476Y-35314000D01*
X39655714Y-35266380D01*
X39893809Y-35266380D01*
X39989047Y-35314000D01*
X40036666Y-35361619D01*
X40084285Y-35456857D01*
X40084285Y-35552095D01*
X40036666Y-35694952D01*
X39465238Y-36266380D01*
X40084285Y-36266380D01*
%TO.C,C13*%
D11*
X44989714Y-50552285D02*
X45027809Y-50590380D01*
X45065904Y-50704666D01*
X45065904Y-50780857D01*
X45027809Y-50895142D01*
X44951619Y-50971333D01*
X44875428Y-51009428D01*
X44723047Y-51047523D01*
X44608761Y-51047523D01*
X44456380Y-51009428D01*
X44380190Y-50971333D01*
X44304000Y-50895142D01*
X44265904Y-50780857D01*
X44265904Y-50704666D01*
X44304000Y-50590380D01*
X44342095Y-50552285D01*
X45065904Y-49790380D02*
X45065904Y-50247523D01*
X45065904Y-50018952D02*
X44265904Y-50018952D01*
X44380190Y-50095142D01*
X44456380Y-50171333D01*
X44494476Y-50247523D01*
X44265904Y-49523714D02*
X44265904Y-49028476D01*
X44570666Y-49295142D01*
X44570666Y-49180857D01*
X44608761Y-49104666D01*
X44646857Y-49066571D01*
X44723047Y-49028476D01*
X44913523Y-49028476D01*
X44989714Y-49066571D01*
X45027809Y-49104666D01*
X45065904Y-49180857D01*
X45065904Y-49409428D01*
X45027809Y-49485619D01*
X44989714Y-49523714D01*
%TO.C,R12*%
X31654704Y-62353125D02*
X31273752Y-62619792D01*
X31654704Y-62810268D02*
X30854704Y-62810268D01*
X30854704Y-62505506D01*
X30892800Y-62429316D01*
X30930895Y-62391220D01*
X31007085Y-62353125D01*
X31121371Y-62353125D01*
X31197561Y-62391220D01*
X31235657Y-62429316D01*
X31273752Y-62505506D01*
X31273752Y-62810268D01*
X31654704Y-61591220D02*
X31654704Y-62048363D01*
X31654704Y-61819792D02*
X30854704Y-61819792D01*
X30968990Y-61895982D01*
X31045180Y-61972173D01*
X31083276Y-62048363D01*
X30930895Y-61286459D02*
X30892800Y-61248363D01*
X30854704Y-61172173D01*
X30854704Y-60981697D01*
X30892800Y-60905506D01*
X30930895Y-60867411D01*
X31007085Y-60829316D01*
X31083276Y-60829316D01*
X31197561Y-60867411D01*
X31654704Y-61324554D01*
X31654704Y-60829316D01*
%TO.C,R7*%
X39744666Y-31095904D02*
X39478000Y-30714952D01*
X39287523Y-31095904D02*
X39287523Y-30295904D01*
X39592285Y-30295904D01*
X39668476Y-30334000D01*
X39706571Y-30372095D01*
X39744666Y-30448285D01*
X39744666Y-30562571D01*
X39706571Y-30638761D01*
X39668476Y-30676857D01*
X39592285Y-30714952D01*
X39287523Y-30714952D01*
X40011333Y-30295904D02*
X40544666Y-30295904D01*
X40201809Y-31095904D01*
%TO.C,R6*%
X39742666Y-33735904D02*
X39476000Y-33354952D01*
X39285523Y-33735904D02*
X39285523Y-32935904D01*
X39590285Y-32935904D01*
X39666476Y-32974000D01*
X39704571Y-33012095D01*
X39742666Y-33088285D01*
X39742666Y-33202571D01*
X39704571Y-33278761D01*
X39666476Y-33316857D01*
X39590285Y-33354952D01*
X39285523Y-33354952D01*
X40428380Y-32935904D02*
X40276000Y-32935904D01*
X40199809Y-32974000D01*
X40161714Y-33012095D01*
X40085523Y-33126380D01*
X40047428Y-33278761D01*
X40047428Y-33583523D01*
X40085523Y-33659714D01*
X40123619Y-33697809D01*
X40199809Y-33735904D01*
X40352190Y-33735904D01*
X40428380Y-33697809D01*
X40466476Y-33659714D01*
X40504571Y-33583523D01*
X40504571Y-33393047D01*
X40466476Y-33316857D01*
X40428380Y-33278761D01*
X40352190Y-33240666D01*
X40199809Y-33240666D01*
X40123619Y-33278761D01*
X40085523Y-33316857D01*
X40047428Y-33393047D01*
%TO.C,R5*%
X31832026Y-40727584D02*
X31565360Y-40346632D01*
X31374883Y-40727584D02*
X31374883Y-39927584D01*
X31679645Y-39927584D01*
X31755836Y-39965680D01*
X31793931Y-40003775D01*
X31832026Y-40079965D01*
X31832026Y-40194251D01*
X31793931Y-40270441D01*
X31755836Y-40308537D01*
X31679645Y-40346632D01*
X31374883Y-40346632D01*
X32555836Y-39927584D02*
X32174883Y-39927584D01*
X32136788Y-40308537D01*
X32174883Y-40270441D01*
X32251074Y-40232346D01*
X32441550Y-40232346D01*
X32517740Y-40270441D01*
X32555836Y-40308537D01*
X32593931Y-40384727D01*
X32593931Y-40575203D01*
X32555836Y-40651394D01*
X32517740Y-40689489D01*
X32441550Y-40727584D01*
X32251074Y-40727584D01*
X32174883Y-40689489D01*
X32136788Y-40651394D01*
%TO.C,R4*%
X31837106Y-41748664D02*
X31570440Y-41367712D01*
X31379963Y-41748664D02*
X31379963Y-40948664D01*
X31684725Y-40948664D01*
X31760916Y-40986760D01*
X31799011Y-41024855D01*
X31837106Y-41101045D01*
X31837106Y-41215331D01*
X31799011Y-41291521D01*
X31760916Y-41329617D01*
X31684725Y-41367712D01*
X31379963Y-41367712D01*
X32522820Y-41215331D02*
X32522820Y-41748664D01*
X32332344Y-40910569D02*
X32141868Y-41481998D01*
X32637106Y-41481998D01*
%TO.C,R3*%
X38982666Y-41763904D02*
X38716000Y-41382952D01*
X38525523Y-41763904D02*
X38525523Y-40963904D01*
X38830285Y-40963904D01*
X38906476Y-41002000D01*
X38944571Y-41040095D01*
X38982666Y-41116285D01*
X38982666Y-41230571D01*
X38944571Y-41306761D01*
X38906476Y-41344857D01*
X38830285Y-41382952D01*
X38525523Y-41382952D01*
X39249333Y-40963904D02*
X39744571Y-40963904D01*
X39477904Y-41268666D01*
X39592190Y-41268666D01*
X39668380Y-41306761D01*
X39706476Y-41344857D01*
X39744571Y-41421047D01*
X39744571Y-41611523D01*
X39706476Y-41687714D01*
X39668380Y-41725809D01*
X39592190Y-41763904D01*
X39363619Y-41763904D01*
X39287428Y-41725809D01*
X39249333Y-41687714D01*
%TO.C,R2*%
X44079333Y-68642666D02*
X43846000Y-68309333D01*
X43679333Y-68642666D02*
X43679333Y-67942666D01*
X43946000Y-67942666D01*
X44012666Y-67976000D01*
X44046000Y-68009333D01*
X44079333Y-68076000D01*
X44079333Y-68176000D01*
X44046000Y-68242666D01*
X44012666Y-68276000D01*
X43946000Y-68309333D01*
X43679333Y-68309333D01*
X44346000Y-68009333D02*
X44379333Y-67976000D01*
X44446000Y-67942666D01*
X44612666Y-67942666D01*
X44679333Y-67976000D01*
X44712666Y-68009333D01*
X44746000Y-68076000D01*
X44746000Y-68142666D01*
X44712666Y-68242666D01*
X44312666Y-68642666D01*
X44746000Y-68642666D01*
%TO.C,R1*%
X41776666Y-53447904D02*
X41510000Y-53066952D01*
X41319523Y-53447904D02*
X41319523Y-52647904D01*
X41624285Y-52647904D01*
X41700476Y-52686000D01*
X41738571Y-52724095D01*
X41776666Y-52800285D01*
X41776666Y-52914571D01*
X41738571Y-52990761D01*
X41700476Y-53028857D01*
X41624285Y-53066952D01*
X41319523Y-53066952D01*
X42538571Y-53447904D02*
X42081428Y-53447904D01*
X42310000Y-53447904D02*
X42310000Y-52647904D01*
X42233809Y-52762190D01*
X42157619Y-52838380D01*
X42081428Y-52876476D01*
%TO.C,C16*%
X30846578Y-67550974D02*
X30846578Y-67598115D01*
X30799438Y-67692396D01*
X30752297Y-67739536D01*
X30658016Y-67786677D01*
X30563735Y-67786677D01*
X30493025Y-67763106D01*
X30375174Y-67692396D01*
X30304463Y-67621685D01*
X30233752Y-67503834D01*
X30210182Y-67433123D01*
X30210182Y-67338842D01*
X30257322Y-67244561D01*
X30304463Y-67197421D01*
X30398744Y-67150280D01*
X30445884Y-67150280D01*
X31365123Y-67126710D02*
X31082280Y-67409553D01*
X31223702Y-67268132D02*
X30728727Y-66773157D01*
X30752297Y-66891008D01*
X30752297Y-66985289D01*
X30728727Y-67056000D01*
X31294412Y-66207471D02*
X31200132Y-66301752D01*
X31176561Y-66372463D01*
X31176561Y-66419603D01*
X31200132Y-66537455D01*
X31270842Y-66655306D01*
X31459404Y-66843867D01*
X31530115Y-66867438D01*
X31577255Y-66867438D01*
X31647966Y-66843867D01*
X31742247Y-66749587D01*
X31765817Y-66678876D01*
X31765817Y-66631735D01*
X31742247Y-66561025D01*
X31624396Y-66443174D01*
X31553685Y-66419603D01*
X31506544Y-66419603D01*
X31435834Y-66443174D01*
X31341553Y-66537455D01*
X31317983Y-66608165D01*
X31317983Y-66655306D01*
X31341553Y-66726016D01*
%TO.C,C15*%
X42614314Y-59782375D02*
X42560439Y-59782375D01*
X42452690Y-59728500D01*
X42398815Y-59674625D01*
X42344940Y-59566876D01*
X42344940Y-59459126D01*
X42371877Y-59378314D01*
X42452690Y-59243627D01*
X42533502Y-59162815D01*
X42668189Y-59082003D01*
X42749001Y-59055065D01*
X42856751Y-59055065D01*
X42964500Y-59108940D01*
X43018375Y-59162815D01*
X43072250Y-59270564D01*
X43072250Y-59324439D01*
X43099187Y-60374998D02*
X42775938Y-60051749D01*
X42937563Y-60213374D02*
X43503248Y-59647688D01*
X43368561Y-59674625D01*
X43260812Y-59674625D01*
X43180000Y-59647688D01*
X44176683Y-60321123D02*
X43907309Y-60051749D01*
X43610998Y-60294186D01*
X43664873Y-60294186D01*
X43745685Y-60321123D01*
X43880372Y-60455810D01*
X43907309Y-60536622D01*
X43907309Y-60590497D01*
X43880372Y-60671309D01*
X43745685Y-60805996D01*
X43664873Y-60832934D01*
X43610998Y-60832934D01*
X43530186Y-60805996D01*
X43395499Y-60671309D01*
X43368561Y-60590497D01*
X43368561Y-60536622D01*
%TO.C,C14*%
X40836314Y-58004375D02*
X40782439Y-58004375D01*
X40674690Y-57950500D01*
X40620815Y-57896625D01*
X40566940Y-57788876D01*
X40566940Y-57681126D01*
X40593877Y-57600314D01*
X40674690Y-57465627D01*
X40755502Y-57384815D01*
X40890189Y-57304003D01*
X40971001Y-57277065D01*
X41078751Y-57277065D01*
X41186500Y-57330940D01*
X41240375Y-57384815D01*
X41294250Y-57492564D01*
X41294250Y-57546439D01*
X41321187Y-58596998D02*
X40997938Y-58273749D01*
X41159563Y-58435374D02*
X41725248Y-57869688D01*
X41590561Y-57896625D01*
X41482812Y-57896625D01*
X41402000Y-57869688D01*
X42183184Y-58704748D02*
X41806061Y-59081871D01*
X42263996Y-58354561D02*
X41725248Y-58623935D01*
X42075435Y-58974122D01*
%TO.C,C11*%
X43211714Y-41126285D02*
X43249809Y-41164380D01*
X43287904Y-41278666D01*
X43287904Y-41354857D01*
X43249809Y-41469142D01*
X43173619Y-41545333D01*
X43097428Y-41583428D01*
X42945047Y-41621523D01*
X42830761Y-41621523D01*
X42678380Y-41583428D01*
X42602190Y-41545333D01*
X42526000Y-41469142D01*
X42487904Y-41354857D01*
X42487904Y-41278666D01*
X42526000Y-41164380D01*
X42564095Y-41126285D01*
X43287904Y-40364380D02*
X43287904Y-40821523D01*
X43287904Y-40592952D02*
X42487904Y-40592952D01*
X42602190Y-40669142D01*
X42678380Y-40745333D01*
X42716476Y-40821523D01*
X43287904Y-39602476D02*
X43287904Y-40059619D01*
X43287904Y-39831047D02*
X42487904Y-39831047D01*
X42602190Y-39907238D01*
X42678380Y-39983428D01*
X42716476Y-40059619D01*
%TO.C,C10*%
X37115714Y-39912285D02*
X37153809Y-39950380D01*
X37191904Y-40064666D01*
X37191904Y-40140857D01*
X37153809Y-40255142D01*
X37077619Y-40331333D01*
X37001428Y-40369428D01*
X36849047Y-40407523D01*
X36734761Y-40407523D01*
X36582380Y-40369428D01*
X36506190Y-40331333D01*
X36430000Y-40255142D01*
X36391904Y-40140857D01*
X36391904Y-40064666D01*
X36430000Y-39950380D01*
X36468095Y-39912285D01*
X37191904Y-39150380D02*
X37191904Y-39607523D01*
X37191904Y-39378952D02*
X36391904Y-39378952D01*
X36506190Y-39455142D01*
X36582380Y-39531333D01*
X36620476Y-39607523D01*
X36391904Y-38655142D02*
X36391904Y-38578952D01*
X36430000Y-38502761D01*
X36468095Y-38464666D01*
X36544285Y-38426571D01*
X36696666Y-38388476D01*
X36887142Y-38388476D01*
X37039523Y-38426571D01*
X37115714Y-38464666D01*
X37153809Y-38502761D01*
X37191904Y-38578952D01*
X37191904Y-38655142D01*
X37153809Y-38731333D01*
X37115714Y-38769428D01*
X37039523Y-38807523D01*
X36887142Y-38845619D01*
X36696666Y-38845619D01*
X36544285Y-38807523D01*
X36468095Y-38769428D01*
X36430000Y-38731333D01*
X36391904Y-38655142D01*
%TO.C,C9*%
X35591714Y-45853333D02*
X35629809Y-45891428D01*
X35667904Y-46005714D01*
X35667904Y-46081904D01*
X35629809Y-46196190D01*
X35553619Y-46272380D01*
X35477428Y-46310476D01*
X35325047Y-46348571D01*
X35210761Y-46348571D01*
X35058380Y-46310476D01*
X34982190Y-46272380D01*
X34906000Y-46196190D01*
X34867904Y-46081904D01*
X34867904Y-46005714D01*
X34906000Y-45891428D01*
X34944095Y-45853333D01*
X35667904Y-45472380D02*
X35667904Y-45320000D01*
X35629809Y-45243809D01*
X35591714Y-45205714D01*
X35477428Y-45129523D01*
X35325047Y-45091428D01*
X35020285Y-45091428D01*
X34944095Y-45129523D01*
X34906000Y-45167619D01*
X34867904Y-45243809D01*
X34867904Y-45396190D01*
X34906000Y-45472380D01*
X34944095Y-45510476D01*
X35020285Y-45548571D01*
X35210761Y-45548571D01*
X35286952Y-45510476D01*
X35325047Y-45472380D01*
X35363142Y-45396190D01*
X35363142Y-45243809D01*
X35325047Y-45167619D01*
X35286952Y-45129523D01*
X35210761Y-45091428D01*
%TO.C,C8*%
X43795749Y-52112311D02*
X43795749Y-52166186D01*
X43741874Y-52273935D01*
X43688000Y-52327810D01*
X43580250Y-52381685D01*
X43472500Y-52381685D01*
X43391688Y-52354748D01*
X43257001Y-52273935D01*
X43176189Y-52193123D01*
X43095377Y-52058436D01*
X43068439Y-51977624D01*
X43068439Y-51869874D01*
X43122314Y-51762125D01*
X43176189Y-51708250D01*
X43283938Y-51654375D01*
X43337813Y-51654375D01*
X43849624Y-51519688D02*
X43768812Y-51546625D01*
X43714937Y-51546625D01*
X43634125Y-51519688D01*
X43607187Y-51492751D01*
X43580250Y-51411938D01*
X43580250Y-51358064D01*
X43607187Y-51277251D01*
X43714937Y-51169502D01*
X43795749Y-51142564D01*
X43849624Y-51142564D01*
X43930436Y-51169502D01*
X43957374Y-51196439D01*
X43984311Y-51277251D01*
X43984311Y-51331126D01*
X43957374Y-51411938D01*
X43849624Y-51519688D01*
X43822687Y-51600500D01*
X43822687Y-51654375D01*
X43849624Y-51735187D01*
X43957374Y-51842937D01*
X44038186Y-51869874D01*
X44092061Y-51869874D01*
X44172873Y-51842937D01*
X44280622Y-51735187D01*
X44307560Y-51654375D01*
X44307560Y-51600500D01*
X44280622Y-51519688D01*
X44172873Y-51411938D01*
X44092061Y-51385001D01*
X44038186Y-51385001D01*
X43957374Y-51411938D01*
%TO.C,C7*%
X39257714Y-54743333D02*
X39295809Y-54781428D01*
X39333904Y-54895714D01*
X39333904Y-54971904D01*
X39295809Y-55086190D01*
X39219619Y-55162380D01*
X39143428Y-55200476D01*
X38991047Y-55238571D01*
X38876761Y-55238571D01*
X38724380Y-55200476D01*
X38648190Y-55162380D01*
X38572000Y-55086190D01*
X38533904Y-54971904D01*
X38533904Y-54895714D01*
X38572000Y-54781428D01*
X38610095Y-54743333D01*
X38533904Y-54476666D02*
X38533904Y-53943333D01*
X39333904Y-54286190D01*
%TO.C,C6*%
X45497714Y-53219333D02*
X45535809Y-53257428D01*
X45573904Y-53371714D01*
X45573904Y-53447904D01*
X45535809Y-53562190D01*
X45459619Y-53638380D01*
X45383428Y-53676476D01*
X45231047Y-53714571D01*
X45116761Y-53714571D01*
X44964380Y-53676476D01*
X44888190Y-53638380D01*
X44812000Y-53562190D01*
X44773904Y-53447904D01*
X44773904Y-53371714D01*
X44812000Y-53257428D01*
X44850095Y-53219333D01*
X44773904Y-52533619D02*
X44773904Y-52686000D01*
X44812000Y-52762190D01*
X44850095Y-52800285D01*
X44964380Y-52876476D01*
X45116761Y-52914571D01*
X45421523Y-52914571D01*
X45497714Y-52876476D01*
X45535809Y-52838380D01*
X45573904Y-52762190D01*
X45573904Y-52609809D01*
X45535809Y-52533619D01*
X45497714Y-52495523D01*
X45421523Y-52457428D01*
X45231047Y-52457428D01*
X45154857Y-52495523D01*
X45116761Y-52533619D01*
X45078666Y-52609809D01*
X45078666Y-52762190D01*
X45116761Y-52838380D01*
X45154857Y-52876476D01*
X45231047Y-52914571D01*
%TO.C,C5*%
X43465714Y-67189333D02*
X43503809Y-67227428D01*
X43541904Y-67341714D01*
X43541904Y-67417904D01*
X43503809Y-67532190D01*
X43427619Y-67608380D01*
X43351428Y-67646476D01*
X43199047Y-67684571D01*
X43084761Y-67684571D01*
X42932380Y-67646476D01*
X42856190Y-67608380D01*
X42780000Y-67532190D01*
X42741904Y-67417904D01*
X42741904Y-67341714D01*
X42780000Y-67227428D01*
X42818095Y-67189333D01*
X42741904Y-66465523D02*
X42741904Y-66846476D01*
X43122857Y-66884571D01*
X43084761Y-66846476D01*
X43046666Y-66770285D01*
X43046666Y-66579809D01*
X43084761Y-66503619D01*
X43122857Y-66465523D01*
X43199047Y-66427428D01*
X43389523Y-66427428D01*
X43465714Y-66465523D01*
X43503809Y-66503619D01*
X43541904Y-66579809D01*
X43541904Y-66770285D01*
X43503809Y-66846476D01*
X43465714Y-66884571D01*
%TO.C,C4*%
X30854666Y-40163714D02*
X30816571Y-40201809D01*
X30702285Y-40239904D01*
X30626095Y-40239904D01*
X30511809Y-40201809D01*
X30435619Y-40125619D01*
X30397523Y-40049428D01*
X30359428Y-39897047D01*
X30359428Y-39782761D01*
X30397523Y-39630380D01*
X30435619Y-39554190D01*
X30511809Y-39478000D01*
X30626095Y-39439904D01*
X30702285Y-39439904D01*
X30816571Y-39478000D01*
X30854666Y-39516095D01*
X31540380Y-39706571D02*
X31540380Y-40239904D01*
X31349904Y-39401809D02*
X31159428Y-39973238D01*
X31654666Y-39973238D01*
%TO.C,C3*%
X28822666Y-40163714D02*
X28784571Y-40201809D01*
X28670285Y-40239904D01*
X28594095Y-40239904D01*
X28479809Y-40201809D01*
X28403619Y-40125619D01*
X28365523Y-40049428D01*
X28327428Y-39897047D01*
X28327428Y-39782761D01*
X28365523Y-39630380D01*
X28403619Y-39554190D01*
X28479809Y-39478000D01*
X28594095Y-39439904D01*
X28670285Y-39439904D01*
X28784571Y-39478000D01*
X28822666Y-39516095D01*
X29089333Y-39439904D02*
X29584571Y-39439904D01*
X29317904Y-39744666D01*
X29432190Y-39744666D01*
X29508380Y-39782761D01*
X29546476Y-39820857D01*
X29584571Y-39897047D01*
X29584571Y-40087523D01*
X29546476Y-40163714D01*
X29508380Y-40201809D01*
X29432190Y-40239904D01*
X29203619Y-40239904D01*
X29127428Y-40201809D01*
X29089333Y-40163714D01*
%TO.C,C2*%
X33876280Y-69347272D02*
X33876280Y-69394412D01*
X33829140Y-69488693D01*
X33782000Y-69535834D01*
X33687719Y-69582974D01*
X33593438Y-69582974D01*
X33522727Y-69559404D01*
X33404876Y-69488693D01*
X33334165Y-69417983D01*
X33263455Y-69300132D01*
X33239884Y-69229421D01*
X33239884Y-69135140D01*
X33287025Y-69040859D01*
X33334165Y-68993719D01*
X33428446Y-68946578D01*
X33475587Y-68946578D01*
X33664148Y-68758016D02*
X33664148Y-68710876D01*
X33687719Y-68640165D01*
X33805570Y-68522314D01*
X33876280Y-68498744D01*
X33923421Y-68498744D01*
X33994132Y-68522314D01*
X34041272Y-68569455D01*
X34088412Y-68663735D01*
X34088412Y-69229421D01*
X34394825Y-68923008D01*
%TO.C,C1*%
D12*
X35807142Y-37250666D02*
X35854761Y-37298285D01*
X35902380Y-37441142D01*
X35902380Y-37536380D01*
X35854761Y-37679238D01*
X35759523Y-37774476D01*
X35664285Y-37822095D01*
X35473809Y-37869714D01*
X35330952Y-37869714D01*
X35140476Y-37822095D01*
X35045238Y-37774476D01*
X34950000Y-37679238D01*
X34902380Y-37536380D01*
X34902380Y-37441142D01*
X34950000Y-37298285D01*
X34997619Y-37250666D01*
X35902380Y-36298285D02*
X35902380Y-36869714D01*
X35902380Y-36584000D02*
X34902380Y-36584000D01*
X35045238Y-36679238D01*
X35140476Y-36774476D01*
X35188095Y-36869714D01*
%TO.C,J1*%
X47666666Y-42122380D02*
X47666666Y-42836666D01*
X47619047Y-42979523D01*
X47523809Y-43074761D01*
X47380952Y-43122380D01*
X47285714Y-43122380D01*
X48666666Y-43122380D02*
X48095238Y-43122380D01*
X48380952Y-43122380D02*
X48380952Y-42122380D01*
X48285714Y-42265238D01*
X48190476Y-42360476D01*
X48095238Y-42408095D01*
%TO.C,F1*%
D11*
X34994857Y-31508666D02*
X34994857Y-31775333D01*
X35413904Y-31775333D02*
X34613904Y-31775333D01*
X34613904Y-31394380D01*
X35413904Y-30670571D02*
X35413904Y-31127714D01*
X35413904Y-30899142D02*
X34613904Y-30899142D01*
X34728190Y-30975333D01*
X34804380Y-31051523D01*
X34842476Y-31127714D01*
%TO.C,Y1*%
X40112952Y-56768952D02*
X40493904Y-56768952D01*
X39693904Y-57035619D02*
X40112952Y-56768952D01*
X39693904Y-56502285D01*
X40493904Y-55816571D02*
X40493904Y-56273714D01*
X40493904Y-56045142D02*
X39693904Y-56045142D01*
X39808190Y-56121333D01*
X39884380Y-56197523D01*
X39922476Y-56273714D01*
%TO.C,Q2*%
X30149809Y-69526095D02*
X30073619Y-69488000D01*
X29997428Y-69411809D01*
X29883142Y-69297523D01*
X29806952Y-69259428D01*
X29730761Y-69259428D01*
X29768857Y-69449904D02*
X29692666Y-69411809D01*
X29616476Y-69335619D01*
X29578380Y-69183238D01*
X29578380Y-68916571D01*
X29616476Y-68764190D01*
X29692666Y-68688000D01*
X29768857Y-68649904D01*
X29921238Y-68649904D01*
X29997428Y-68688000D01*
X30073619Y-68764190D01*
X30111714Y-68916571D01*
X30111714Y-69183238D01*
X30073619Y-69335619D01*
X29997428Y-69411809D01*
X29921238Y-69449904D01*
X29768857Y-69449904D01*
X30416476Y-68726095D02*
X30454571Y-68688000D01*
X30530761Y-68649904D01*
X30721238Y-68649904D01*
X30797428Y-68688000D01*
X30835523Y-68726095D01*
X30873619Y-68802285D01*
X30873619Y-68878476D01*
X30835523Y-68992761D01*
X30378380Y-69449904D01*
X30873619Y-69449904D01*
%TO.C,U1*%
D12*
X26630380Y-31495904D02*
X27439904Y-31495904D01*
X27535142Y-31448285D01*
X27582761Y-31400666D01*
X27630380Y-31305428D01*
X27630380Y-31114952D01*
X27582761Y-31019714D01*
X27535142Y-30972095D01*
X27439904Y-30924476D01*
X26630380Y-30924476D01*
X27630380Y-29924476D02*
X27630380Y-30495904D01*
X27630380Y-30210190D02*
X26630380Y-30210190D01*
X26773238Y-30305428D01*
X26868476Y-30400666D01*
X26916095Y-30495904D01*
%TO.C,U2*%
X36830095Y-69810380D02*
X36830095Y-70619904D01*
X36877714Y-70715142D01*
X36925333Y-70762761D01*
X37020571Y-70810380D01*
X37211047Y-70810380D01*
X37306285Y-70762761D01*
X37353904Y-70715142D01*
X37401523Y-70619904D01*
X37401523Y-69810380D01*
X37830095Y-69905619D02*
X37877714Y-69858000D01*
X37972952Y-69810380D01*
X38211047Y-69810380D01*
X38306285Y-69858000D01*
X38353904Y-69905619D01*
X38401523Y-70000857D01*
X38401523Y-70096095D01*
X38353904Y-70238952D01*
X37782476Y-70810380D01*
X38401523Y-70810380D01*
%TD*%
M02*
