%TF.GenerationSoftware,KiCad,Pcbnew,(5.1.9-16-g1737927814)-1*%
%TF.CreationDate,2021-10-14T17:25:43-05:00*%
%TF.ProjectId,adbuino,61646275-696e-46f2-9e6b-696361645f70,rev?*%
%TF.SameCoordinates,Original*%
%TF.FileFunction,Legend,Bot*%
%TF.FilePolarity,Positive*%
%FSLAX46Y46*%
G04 Gerber Fmt 4.6, Leading zero omitted, Abs format (unit mm)*
G04 Created by KiCad (PCBNEW (5.1.9-16-g1737927814)-1) date 2021-10-14 17:25:43*
%MOMM*%
%LPD*%
G01*
G04 APERTURE LIST*
%ADD10C,0.100000*%
%ADD11C,0.120000*%
%ADD12C,0.150000*%
%ADD13C,0.127000*%
%ADD14C,0.200000*%
%ADD15C,0.254000*%
G04 APERTURE END LIST*
D10*
X35876666Y-68662666D02*
X35176666Y-68662666D01*
X35176666Y-68929333D01*
X35210000Y-68996000D01*
X35243333Y-69029333D01*
X35310000Y-69062666D01*
X35410000Y-69062666D01*
X35476666Y-69029333D01*
X35510000Y-68996000D01*
X35543333Y-68929333D01*
X35543333Y-68662666D01*
X35176666Y-69296000D02*
X35876666Y-69462666D01*
X35376666Y-69596000D01*
X35876666Y-69729333D01*
X35176666Y-69896000D01*
X35876666Y-70562666D02*
X35543333Y-70329333D01*
X35876666Y-70162666D02*
X35176666Y-70162666D01*
X35176666Y-70429333D01*
X35210000Y-70496000D01*
X35243333Y-70529333D01*
X35310000Y-70562666D01*
X35410000Y-70562666D01*
X35476666Y-70529333D01*
X35510000Y-70496000D01*
X35543333Y-70429333D01*
X35543333Y-70162666D01*
X39686666Y-64598666D02*
X38986666Y-64598666D01*
X38986666Y-64865333D01*
X39020000Y-64932000D01*
X39053333Y-64965333D01*
X39120000Y-64998666D01*
X39220000Y-64998666D01*
X39286666Y-64965333D01*
X39320000Y-64932000D01*
X39353333Y-64865333D01*
X39353333Y-64598666D01*
X38986666Y-65232000D02*
X39686666Y-65398666D01*
X39186666Y-65532000D01*
X39686666Y-65665333D01*
X38986666Y-65832000D01*
X39686666Y-66498666D02*
X39353333Y-66265333D01*
X39686666Y-66098666D02*
X38986666Y-66098666D01*
X38986666Y-66365333D01*
X39020000Y-66432000D01*
X39053333Y-66465333D01*
X39120000Y-66498666D01*
X39220000Y-66498666D01*
X39286666Y-66465333D01*
X39320000Y-66432000D01*
X39353333Y-66365333D01*
X39353333Y-66098666D01*
X39020000Y-61696666D02*
X38986666Y-61630000D01*
X38986666Y-61530000D01*
X39020000Y-61430000D01*
X39086666Y-61363333D01*
X39153333Y-61330000D01*
X39286666Y-61296666D01*
X39386666Y-61296666D01*
X39520000Y-61330000D01*
X39586666Y-61363333D01*
X39653333Y-61430000D01*
X39686666Y-61530000D01*
X39686666Y-61596666D01*
X39653333Y-61696666D01*
X39620000Y-61730000D01*
X39386666Y-61730000D01*
X39386666Y-61596666D01*
X39686666Y-62030000D02*
X38986666Y-62030000D01*
X39686666Y-62430000D01*
X38986666Y-62430000D01*
X39686666Y-62763333D02*
X38986666Y-62763333D01*
X38986666Y-62930000D01*
X39020000Y-63030000D01*
X39086666Y-63096666D01*
X39153333Y-63130000D01*
X39286666Y-63163333D01*
X39386666Y-63163333D01*
X39520000Y-63130000D01*
X39586666Y-63096666D01*
X39653333Y-63030000D01*
X39686666Y-62930000D01*
X39686666Y-62763333D01*
X35210000Y-72110666D02*
X35176666Y-72044000D01*
X35176666Y-71944000D01*
X35210000Y-71844000D01*
X35276666Y-71777333D01*
X35343333Y-71744000D01*
X35476666Y-71710666D01*
X35576666Y-71710666D01*
X35710000Y-71744000D01*
X35776666Y-71777333D01*
X35843333Y-71844000D01*
X35876666Y-71944000D01*
X35876666Y-72010666D01*
X35843333Y-72110666D01*
X35810000Y-72144000D01*
X35576666Y-72144000D01*
X35576666Y-72010666D01*
X35876666Y-72444000D02*
X35176666Y-72444000D01*
X35876666Y-72844000D01*
X35176666Y-72844000D01*
X35876666Y-73177333D02*
X35176666Y-73177333D01*
X35176666Y-73344000D01*
X35210000Y-73444000D01*
X35276666Y-73510666D01*
X35343333Y-73544000D01*
X35476666Y-73577333D01*
X35576666Y-73577333D01*
X35710000Y-73544000D01*
X35776666Y-73510666D01*
X35843333Y-73444000D01*
X35876666Y-73344000D01*
X35876666Y-73177333D01*
X39686666Y-68325333D02*
X38986666Y-68325333D01*
X38986666Y-68492000D01*
X39020000Y-68592000D01*
X39086666Y-68658666D01*
X39153333Y-68692000D01*
X39286666Y-68725333D01*
X39386666Y-68725333D01*
X39520000Y-68692000D01*
X39586666Y-68658666D01*
X39653333Y-68592000D01*
X39686666Y-68492000D01*
X39686666Y-68325333D01*
X39686666Y-69325333D02*
X39320000Y-69325333D01*
X39253333Y-69292000D01*
X39220000Y-69225333D01*
X39220000Y-69092000D01*
X39253333Y-69025333D01*
X39653333Y-69325333D02*
X39686666Y-69258666D01*
X39686666Y-69092000D01*
X39653333Y-69025333D01*
X39586666Y-68992000D01*
X39520000Y-68992000D01*
X39453333Y-69025333D01*
X39420000Y-69092000D01*
X39420000Y-69258666D01*
X39386666Y-69325333D01*
X39220000Y-69558666D02*
X39220000Y-69825333D01*
X38986666Y-69658666D02*
X39586666Y-69658666D01*
X39653333Y-69692000D01*
X39686666Y-69758666D01*
X39686666Y-69825333D01*
X39686666Y-70358666D02*
X39320000Y-70358666D01*
X39253333Y-70325333D01*
X39220000Y-70258666D01*
X39220000Y-70125333D01*
X39253333Y-70058666D01*
X39653333Y-70358666D02*
X39686666Y-70292000D01*
X39686666Y-70125333D01*
X39653333Y-70058666D01*
X39586666Y-70025333D01*
X39520000Y-70025333D01*
X39453333Y-70058666D01*
X39420000Y-70125333D01*
X39420000Y-70292000D01*
X39386666Y-70358666D01*
X35876666Y-64261333D02*
X35176666Y-64261333D01*
X35176666Y-64428000D01*
X35210000Y-64528000D01*
X35276666Y-64594666D01*
X35343333Y-64628000D01*
X35476666Y-64661333D01*
X35576666Y-64661333D01*
X35710000Y-64628000D01*
X35776666Y-64594666D01*
X35843333Y-64528000D01*
X35876666Y-64428000D01*
X35876666Y-64261333D01*
X35876666Y-65261333D02*
X35510000Y-65261333D01*
X35443333Y-65228000D01*
X35410000Y-65161333D01*
X35410000Y-65028000D01*
X35443333Y-64961333D01*
X35843333Y-65261333D02*
X35876666Y-65194666D01*
X35876666Y-65028000D01*
X35843333Y-64961333D01*
X35776666Y-64928000D01*
X35710000Y-64928000D01*
X35643333Y-64961333D01*
X35610000Y-65028000D01*
X35610000Y-65194666D01*
X35576666Y-65261333D01*
X35410000Y-65494666D02*
X35410000Y-65761333D01*
X35176666Y-65594666D02*
X35776666Y-65594666D01*
X35843333Y-65628000D01*
X35876666Y-65694666D01*
X35876666Y-65761333D01*
X35876666Y-66294666D02*
X35510000Y-66294666D01*
X35443333Y-66261333D01*
X35410000Y-66194666D01*
X35410000Y-66061333D01*
X35443333Y-65994666D01*
X35843333Y-66294666D02*
X35876666Y-66228000D01*
X35876666Y-66061333D01*
X35843333Y-65994666D01*
X35776666Y-65961333D01*
X35710000Y-65961333D01*
X35643333Y-65994666D01*
X35610000Y-66061333D01*
X35610000Y-66228000D01*
X35576666Y-66294666D01*
X38986666Y-72290000D02*
X38986666Y-71956666D01*
X39320000Y-71923333D01*
X39286666Y-71956666D01*
X39253333Y-72023333D01*
X39253333Y-72190000D01*
X39286666Y-72256666D01*
X39320000Y-72290000D01*
X39386666Y-72323333D01*
X39553333Y-72323333D01*
X39620000Y-72290000D01*
X39653333Y-72256666D01*
X39686666Y-72190000D01*
X39686666Y-72023333D01*
X39653333Y-71956666D01*
X39620000Y-71923333D01*
X39220000Y-72556666D02*
X39686666Y-72723333D01*
X39220000Y-72890000D01*
X35176666Y-62892000D02*
X35176666Y-62558666D01*
X35510000Y-62525333D01*
X35476666Y-62558666D01*
X35443333Y-62625333D01*
X35443333Y-62792000D01*
X35476666Y-62858666D01*
X35510000Y-62892000D01*
X35576666Y-62925333D01*
X35743333Y-62925333D01*
X35810000Y-62892000D01*
X35843333Y-62858666D01*
X35876666Y-62792000D01*
X35876666Y-62625333D01*
X35843333Y-62558666D01*
X35810000Y-62525333D01*
X35410000Y-63158666D02*
X35876666Y-63325333D01*
X35410000Y-63492000D01*
D11*
X27178000Y-56642000D02*
X27178000Y-52578000D01*
D10*
X26600095Y-55619523D02*
X25952476Y-55619523D01*
X25876285Y-55581428D01*
X25838190Y-55543333D01*
X25800095Y-55467142D01*
X25800095Y-55314761D01*
X25838190Y-55238571D01*
X25876285Y-55200476D01*
X25952476Y-55162380D01*
X26600095Y-55162380D01*
X25838190Y-54819523D02*
X25800095Y-54705238D01*
X25800095Y-54514761D01*
X25838190Y-54438571D01*
X25876285Y-54400476D01*
X25952476Y-54362380D01*
X26028666Y-54362380D01*
X26104857Y-54400476D01*
X26142952Y-54438571D01*
X26181047Y-54514761D01*
X26219142Y-54667142D01*
X26257238Y-54743333D01*
X26295333Y-54781428D01*
X26371523Y-54819523D01*
X26447714Y-54819523D01*
X26523904Y-54781428D01*
X26562000Y-54743333D01*
X26600095Y-54667142D01*
X26600095Y-54476666D01*
X26562000Y-54362380D01*
X26219142Y-53752857D02*
X26181047Y-53638571D01*
X26142952Y-53600476D01*
X26066761Y-53562380D01*
X25952476Y-53562380D01*
X25876285Y-53600476D01*
X25838190Y-53638571D01*
X25800095Y-53714761D01*
X25800095Y-54019523D01*
X26600095Y-54019523D01*
X26600095Y-53752857D01*
X26562000Y-53676666D01*
X26523904Y-53638571D01*
X26447714Y-53600476D01*
X26371523Y-53600476D01*
X26295333Y-53638571D01*
X26257238Y-53676666D01*
X26219142Y-53752857D01*
X26219142Y-54019523D01*
D12*
X25868380Y-28654952D02*
X26582666Y-28654952D01*
X26725523Y-28607333D01*
X26820761Y-28512095D01*
X26868380Y-28369238D01*
X26868380Y-28274000D01*
X26868380Y-29607333D02*
X26868380Y-29131142D01*
X25868380Y-29131142D01*
X26773142Y-30512095D02*
X26820761Y-30464476D01*
X26868380Y-30321619D01*
X26868380Y-30226380D01*
X26820761Y-30083523D01*
X26725523Y-29988285D01*
X26630285Y-29940666D01*
X26439809Y-29893047D01*
X26296952Y-29893047D01*
X26106476Y-29940666D01*
X26011238Y-29988285D01*
X25916000Y-30083523D01*
X25868380Y-30226380D01*
X25868380Y-30321619D01*
X25916000Y-30464476D01*
X25963619Y-30512095D01*
X25868380Y-31226380D02*
X26582666Y-31226380D01*
X26725523Y-31178761D01*
X26820761Y-31083523D01*
X26868380Y-30940666D01*
X26868380Y-30845428D01*
X26868380Y-32178761D02*
X26868380Y-31702571D01*
X25868380Y-31702571D01*
X26773142Y-33083523D02*
X26820761Y-33035904D01*
X26868380Y-32893047D01*
X26868380Y-32797809D01*
X26820761Y-32654952D01*
X26725523Y-32559714D01*
X26630285Y-32512095D01*
X26439809Y-32464476D01*
X26296952Y-32464476D01*
X26106476Y-32512095D01*
X26011238Y-32559714D01*
X25916000Y-32654952D01*
X25868380Y-32797809D01*
X25868380Y-32893047D01*
X25916000Y-33035904D01*
X25963619Y-33083523D01*
X25868380Y-33797809D02*
X26582666Y-33797809D01*
X26725523Y-33750190D01*
X26820761Y-33654952D01*
X26868380Y-33512095D01*
X26868380Y-33416857D01*
X26868380Y-34750190D02*
X26868380Y-34274000D01*
X25868380Y-34274000D01*
X26773142Y-35654952D02*
X26820761Y-35607333D01*
X26868380Y-35464476D01*
X26868380Y-35369238D01*
X26820761Y-35226380D01*
X26725523Y-35131142D01*
X26630285Y-35083523D01*
X26439809Y-35035904D01*
X26296952Y-35035904D01*
X26106476Y-35083523D01*
X26011238Y-35131142D01*
X25916000Y-35226380D01*
X25868380Y-35369238D01*
X25868380Y-35464476D01*
X25916000Y-35607333D01*
X25963619Y-35654952D01*
X25868380Y-36369238D02*
X26582666Y-36369238D01*
X26725523Y-36321619D01*
X26820761Y-36226380D01*
X26868380Y-36083523D01*
X26868380Y-35988285D01*
X26868380Y-37321619D02*
X26868380Y-36845428D01*
X25868380Y-36845428D01*
X26773142Y-38226380D02*
X26820761Y-38178761D01*
X26868380Y-38035904D01*
X26868380Y-37940666D01*
X26820761Y-37797809D01*
X26725523Y-37702571D01*
X26630285Y-37654952D01*
X26439809Y-37607333D01*
X26296952Y-37607333D01*
X26106476Y-37654952D01*
X26011238Y-37702571D01*
X25916000Y-37797809D01*
X25868380Y-37940666D01*
X25868380Y-38035904D01*
X25916000Y-38178761D01*
X25963619Y-38226380D01*
D11*
X27178000Y-41148000D02*
X25146000Y-41148000D01*
X27178000Y-52578000D02*
X27178000Y-41148000D01*
X25146000Y-56642000D02*
X27178000Y-56642000D01*
D10*
X29018666Y-49954000D02*
X28318666Y-49954000D01*
X28818666Y-50187333D01*
X28318666Y-50420666D01*
X29018666Y-50420666D01*
X29018666Y-50754000D02*
X28318666Y-50754000D01*
X28985333Y-51054000D02*
X29018666Y-51154000D01*
X29018666Y-51320666D01*
X28985333Y-51387333D01*
X28952000Y-51420666D01*
X28885333Y-51454000D01*
X28818666Y-51454000D01*
X28752000Y-51420666D01*
X28718666Y-51387333D01*
X28685333Y-51320666D01*
X28652000Y-51187333D01*
X28618666Y-51120666D01*
X28585333Y-51087333D01*
X28518666Y-51054000D01*
X28452000Y-51054000D01*
X28385333Y-51087333D01*
X28352000Y-51120666D01*
X28318666Y-51187333D01*
X28318666Y-51354000D01*
X28352000Y-51454000D01*
X28318666Y-51887333D02*
X28318666Y-52020666D01*
X28352000Y-52087333D01*
X28418666Y-52154000D01*
X28552000Y-52187333D01*
X28785333Y-52187333D01*
X28918666Y-52154000D01*
X28985333Y-52087333D01*
X29018666Y-52020666D01*
X29018666Y-51887333D01*
X28985333Y-51820666D01*
X28918666Y-51754000D01*
X28785333Y-51720666D01*
X28552000Y-51720666D01*
X28418666Y-51754000D01*
X28352000Y-51820666D01*
X28318666Y-51887333D01*
X29018666Y-55750666D02*
X28685333Y-55517333D01*
X29018666Y-55350666D02*
X28318666Y-55350666D01*
X28318666Y-55617333D01*
X28352000Y-55684000D01*
X28385333Y-55717333D01*
X28452000Y-55750666D01*
X28552000Y-55750666D01*
X28618666Y-55717333D01*
X28652000Y-55684000D01*
X28685333Y-55617333D01*
X28685333Y-55350666D01*
X28985333Y-56017333D02*
X29018666Y-56117333D01*
X29018666Y-56284000D01*
X28985333Y-56350666D01*
X28952000Y-56384000D01*
X28885333Y-56417333D01*
X28818666Y-56417333D01*
X28752000Y-56384000D01*
X28718666Y-56350666D01*
X28685333Y-56284000D01*
X28652000Y-56150666D01*
X28618666Y-56084000D01*
X28585333Y-56050666D01*
X28518666Y-56017333D01*
X28452000Y-56017333D01*
X28385333Y-56050666D01*
X28352000Y-56084000D01*
X28318666Y-56150666D01*
X28318666Y-56317333D01*
X28352000Y-56417333D01*
X28318666Y-56617333D02*
X28318666Y-57017333D01*
X29018666Y-56817333D02*
X28318666Y-56817333D01*
X35114666Y-52494000D02*
X34414666Y-52494000D01*
X34914666Y-52727333D01*
X34414666Y-52960666D01*
X35114666Y-52960666D01*
X34414666Y-53427333D02*
X34414666Y-53560666D01*
X34448000Y-53627333D01*
X34514666Y-53694000D01*
X34648000Y-53727333D01*
X34881333Y-53727333D01*
X35014666Y-53694000D01*
X35081333Y-53627333D01*
X35114666Y-53560666D01*
X35114666Y-53427333D01*
X35081333Y-53360666D01*
X35014666Y-53294000D01*
X34881333Y-53260666D01*
X34648000Y-53260666D01*
X34514666Y-53294000D01*
X34448000Y-53360666D01*
X34414666Y-53427333D01*
X35081333Y-53994000D02*
X35114666Y-54094000D01*
X35114666Y-54260666D01*
X35081333Y-54327333D01*
X35048000Y-54360666D01*
X34981333Y-54394000D01*
X34914666Y-54394000D01*
X34848000Y-54360666D01*
X34814666Y-54327333D01*
X34781333Y-54260666D01*
X34748000Y-54127333D01*
X34714666Y-54060666D01*
X34681333Y-54027333D01*
X34614666Y-53994000D01*
X34548000Y-53994000D01*
X34481333Y-54027333D01*
X34448000Y-54060666D01*
X34414666Y-54127333D01*
X34414666Y-54294000D01*
X34448000Y-54394000D01*
X35114666Y-54694000D02*
X34414666Y-54694000D01*
X34414666Y-50220666D02*
X34414666Y-50654000D01*
X34681333Y-50420666D01*
X34681333Y-50520666D01*
X34714666Y-50587333D01*
X34748000Y-50620666D01*
X34814666Y-50654000D01*
X34981333Y-50654000D01*
X35048000Y-50620666D01*
X35081333Y-50587333D01*
X35114666Y-50520666D01*
X35114666Y-50320666D01*
X35081333Y-50254000D01*
X35048000Y-50220666D01*
X34648000Y-50887333D02*
X35114666Y-51054000D01*
X34648000Y-51220666D01*
X34414666Y-51420666D02*
X34414666Y-51854000D01*
X34681333Y-51620666D01*
X34681333Y-51720666D01*
X34714666Y-51787333D01*
X34748000Y-51820666D01*
X34814666Y-51854000D01*
X34981333Y-51854000D01*
X35048000Y-51820666D01*
X35081333Y-51787333D01*
X35114666Y-51720666D01*
X35114666Y-51520666D01*
X35081333Y-51454000D01*
X35048000Y-51420666D01*
X34448000Y-55600666D02*
X34414666Y-55534000D01*
X34414666Y-55434000D01*
X34448000Y-55334000D01*
X34514666Y-55267333D01*
X34581333Y-55234000D01*
X34714666Y-55200666D01*
X34814666Y-55200666D01*
X34948000Y-55234000D01*
X35014666Y-55267333D01*
X35081333Y-55334000D01*
X35114666Y-55434000D01*
X35114666Y-55500666D01*
X35081333Y-55600666D01*
X35048000Y-55634000D01*
X34814666Y-55634000D01*
X34814666Y-55500666D01*
X35114666Y-55934000D02*
X34414666Y-55934000D01*
X35114666Y-56334000D01*
X34414666Y-56334000D01*
X35114666Y-56667333D02*
X34414666Y-56667333D01*
X34414666Y-56834000D01*
X34448000Y-56934000D01*
X34514666Y-57000666D01*
X34581333Y-57034000D01*
X34714666Y-57067333D01*
X34814666Y-57067333D01*
X34948000Y-57034000D01*
X35014666Y-57000666D01*
X35081333Y-56934000D01*
X35114666Y-56834000D01*
X35114666Y-56667333D01*
X28952000Y-53177333D02*
X28985333Y-53144000D01*
X29018666Y-53044000D01*
X29018666Y-52977333D01*
X28985333Y-52877333D01*
X28918666Y-52810666D01*
X28852000Y-52777333D01*
X28718666Y-52744000D01*
X28618666Y-52744000D01*
X28485333Y-52777333D01*
X28418666Y-52810666D01*
X28352000Y-52877333D01*
X28318666Y-52977333D01*
X28318666Y-53044000D01*
X28352000Y-53144000D01*
X28385333Y-53177333D01*
X29018666Y-53810666D02*
X29018666Y-53477333D01*
X28318666Y-53477333D01*
X29018666Y-54044000D02*
X28318666Y-54044000D01*
X29018666Y-54444000D02*
X28618666Y-54144000D01*
X28318666Y-54444000D02*
X28718666Y-54044000D01*
D12*
X37441666Y-50760666D02*
X37441666Y-51236857D01*
X37727380Y-50665428D02*
X36727380Y-50998761D01*
X37727380Y-51332095D01*
X37727380Y-51665428D02*
X36727380Y-51665428D01*
X36727380Y-51903523D01*
X36775000Y-52046380D01*
X36870238Y-52141619D01*
X36965476Y-52189238D01*
X37155952Y-52236857D01*
X37298809Y-52236857D01*
X37489285Y-52189238D01*
X37584523Y-52141619D01*
X37679761Y-52046380D01*
X37727380Y-51903523D01*
X37727380Y-51665428D01*
X37203571Y-52998761D02*
X37251190Y-53141619D01*
X37298809Y-53189238D01*
X37394047Y-53236857D01*
X37536904Y-53236857D01*
X37632142Y-53189238D01*
X37679761Y-53141619D01*
X37727380Y-53046380D01*
X37727380Y-52665428D01*
X36727380Y-52665428D01*
X36727380Y-52998761D01*
X36775000Y-53094000D01*
X36822619Y-53141619D01*
X36917857Y-53189238D01*
X37013095Y-53189238D01*
X37108333Y-53141619D01*
X37155952Y-53094000D01*
X37203571Y-52998761D01*
X37203571Y-52665428D01*
X37060714Y-54094000D02*
X37727380Y-54094000D01*
X37060714Y-53665428D02*
X37584523Y-53665428D01*
X37679761Y-53713047D01*
X37727380Y-53808285D01*
X37727380Y-53951142D01*
X37679761Y-54046380D01*
X37632142Y-54094000D01*
X37727380Y-54570190D02*
X37060714Y-54570190D01*
X36727380Y-54570190D02*
X36775000Y-54522571D01*
X36822619Y-54570190D01*
X36775000Y-54617809D01*
X36727380Y-54570190D01*
X36822619Y-54570190D01*
X37060714Y-55046380D02*
X37727380Y-55046380D01*
X37155952Y-55046380D02*
X37108333Y-55094000D01*
X37060714Y-55189238D01*
X37060714Y-55332095D01*
X37108333Y-55427333D01*
X37203571Y-55474952D01*
X37727380Y-55474952D01*
X37727380Y-56094000D02*
X37679761Y-55998761D01*
X37632142Y-55951142D01*
X37536904Y-55903523D01*
X37251190Y-55903523D01*
X37155952Y-55951142D01*
X37108333Y-55998761D01*
X37060714Y-56094000D01*
X37060714Y-56236857D01*
X37108333Y-56332095D01*
X37155952Y-56379714D01*
X37251190Y-56427333D01*
X37536904Y-56427333D01*
X37632142Y-56379714D01*
X37679761Y-56332095D01*
X37727380Y-56236857D01*
X37727380Y-56094000D01*
X38710714Y-52165428D02*
X39377380Y-52403523D01*
X38710714Y-52641619D01*
X39377380Y-53546380D02*
X39377380Y-52974952D01*
X39377380Y-53260666D02*
X38377380Y-53260666D01*
X38520238Y-53165428D01*
X38615476Y-53070190D01*
X38663095Y-52974952D01*
X39282142Y-53974952D02*
X39329761Y-54022571D01*
X39377380Y-53974952D01*
X39329761Y-53927333D01*
X39282142Y-53974952D01*
X39377380Y-53974952D01*
X39377380Y-54974952D02*
X39377380Y-54403523D01*
X39377380Y-54689238D02*
X38377380Y-54689238D01*
X38520238Y-54594000D01*
X38615476Y-54498761D01*
X38663095Y-54403523D01*
D11*
X39878000Y-56896000D02*
X39878000Y-50038000D01*
X35814000Y-50038000D02*
X35814000Y-56896000D01*
X35814000Y-56896000D02*
X36068000Y-56896000D01*
X40132000Y-57150000D02*
X35560000Y-57150000D01*
X35560000Y-57150000D02*
X35560000Y-49784000D01*
X39878000Y-50038000D02*
X35814000Y-50038000D01*
X40132000Y-49784000D02*
X40132000Y-57150000D01*
X36068000Y-56896000D02*
X39878000Y-56896000D01*
X35560000Y-49784000D02*
X40132000Y-49784000D01*
D10*
X46798666Y-56858000D02*
X46098666Y-56858000D01*
X46098666Y-57024666D01*
X46132000Y-57124666D01*
X46198666Y-57191333D01*
X46265333Y-57224666D01*
X46398666Y-57258000D01*
X46498666Y-57258000D01*
X46632000Y-57224666D01*
X46698666Y-57191333D01*
X46765333Y-57124666D01*
X46798666Y-57024666D01*
X46798666Y-56858000D01*
X46098666Y-57458000D02*
X46098666Y-57858000D01*
X46798666Y-57658000D02*
X46098666Y-57658000D01*
X46798666Y-58491333D02*
X46465333Y-58258000D01*
X46798666Y-58091333D02*
X46098666Y-58091333D01*
X46098666Y-58358000D01*
X46132000Y-58424666D01*
X46165333Y-58458000D01*
X46232000Y-58491333D01*
X46332000Y-58491333D01*
X46398666Y-58458000D01*
X46432000Y-58424666D01*
X46465333Y-58358000D01*
X46465333Y-58091333D01*
X46798666Y-49104666D02*
X46098666Y-49104666D01*
X46098666Y-49371333D01*
X46132000Y-49438000D01*
X46165333Y-49471333D01*
X46232000Y-49504666D01*
X46332000Y-49504666D01*
X46398666Y-49471333D01*
X46432000Y-49438000D01*
X46465333Y-49371333D01*
X46465333Y-49104666D01*
X46098666Y-49738000D02*
X46798666Y-49904666D01*
X46298666Y-50038000D01*
X46798666Y-50171333D01*
X46098666Y-50338000D01*
X46798666Y-51004666D02*
X46465333Y-50771333D01*
X46798666Y-50604666D02*
X46098666Y-50604666D01*
X46098666Y-50871333D01*
X46132000Y-50938000D01*
X46165333Y-50971333D01*
X46232000Y-51004666D01*
X46332000Y-51004666D01*
X46398666Y-50971333D01*
X46432000Y-50938000D01*
X46465333Y-50871333D01*
X46465333Y-50604666D01*
X46132000Y-44424666D02*
X46098666Y-44358000D01*
X46098666Y-44258000D01*
X46132000Y-44158000D01*
X46198666Y-44091333D01*
X46265333Y-44058000D01*
X46398666Y-44024666D01*
X46498666Y-44024666D01*
X46632000Y-44058000D01*
X46698666Y-44091333D01*
X46765333Y-44158000D01*
X46798666Y-44258000D01*
X46798666Y-44324666D01*
X46765333Y-44424666D01*
X46732000Y-44458000D01*
X46498666Y-44458000D01*
X46498666Y-44324666D01*
X46798666Y-44758000D02*
X46098666Y-44758000D01*
X46798666Y-45158000D01*
X46098666Y-45158000D01*
X46798666Y-45491333D02*
X46098666Y-45491333D01*
X46098666Y-45658000D01*
X46132000Y-45758000D01*
X46198666Y-45824666D01*
X46265333Y-45858000D01*
X46398666Y-45891333D01*
X46498666Y-45891333D01*
X46632000Y-45858000D01*
X46698666Y-45824666D01*
X46765333Y-45758000D01*
X46798666Y-45658000D01*
X46798666Y-45491333D01*
X46798666Y-46948000D02*
X46098666Y-46948000D01*
X46798666Y-47348000D01*
X46098666Y-47348000D01*
X46732000Y-48081333D02*
X46765333Y-48048000D01*
X46798666Y-47948000D01*
X46798666Y-47881333D01*
X46765333Y-47781333D01*
X46698666Y-47714666D01*
X46632000Y-47681333D01*
X46498666Y-47648000D01*
X46398666Y-47648000D01*
X46265333Y-47681333D01*
X46198666Y-47714666D01*
X46132000Y-47781333D01*
X46098666Y-47881333D01*
X46098666Y-47948000D01*
X46132000Y-48048000D01*
X46165333Y-48081333D01*
X46798666Y-52294666D02*
X46465333Y-52061333D01*
X46798666Y-51894666D02*
X46098666Y-51894666D01*
X46098666Y-52161333D01*
X46132000Y-52228000D01*
X46165333Y-52261333D01*
X46232000Y-52294666D01*
X46332000Y-52294666D01*
X46398666Y-52261333D01*
X46432000Y-52228000D01*
X46465333Y-52161333D01*
X46465333Y-51894666D01*
X46098666Y-52528000D02*
X46798666Y-52994666D01*
X46098666Y-52994666D02*
X46798666Y-52528000D01*
X46798666Y-53261333D02*
X46098666Y-53261333D01*
X46098666Y-54218000D02*
X46098666Y-54618000D01*
X46798666Y-54418000D02*
X46098666Y-54418000D01*
X46098666Y-54784666D02*
X46798666Y-55251333D01*
X46098666Y-55251333D02*
X46798666Y-54784666D01*
X46098666Y-55651333D02*
X46098666Y-55784666D01*
X46132000Y-55851333D01*
X46198666Y-55918000D01*
X46332000Y-55951333D01*
X46565333Y-55951333D01*
X46698666Y-55918000D01*
X46765333Y-55851333D01*
X46798666Y-55784666D01*
X46798666Y-55651333D01*
X46765333Y-55584666D01*
X46698666Y-55518000D01*
X46565333Y-55484666D01*
X46332000Y-55484666D01*
X46198666Y-55518000D01*
X46132000Y-55584666D01*
X46098666Y-55651333D01*
D12*
X46799238Y-59348666D02*
X46323047Y-59348666D01*
X46894476Y-59634380D02*
X46561142Y-58634380D01*
X46227809Y-59634380D01*
X45894476Y-59634380D02*
X45894476Y-58634380D01*
X45656380Y-58634380D01*
X45513523Y-58682000D01*
X45418285Y-58777238D01*
X45370666Y-58872476D01*
X45323047Y-59062952D01*
X45323047Y-59205809D01*
X45370666Y-59396285D01*
X45418285Y-59491523D01*
X45513523Y-59586761D01*
X45656380Y-59634380D01*
X45894476Y-59634380D01*
X44561142Y-59110571D02*
X44418285Y-59158190D01*
X44370666Y-59205809D01*
X44323047Y-59301047D01*
X44323047Y-59443904D01*
X44370666Y-59539142D01*
X44418285Y-59586761D01*
X44513523Y-59634380D01*
X44894476Y-59634380D01*
X44894476Y-58634380D01*
X44561142Y-58634380D01*
X44465904Y-58682000D01*
X44418285Y-58729619D01*
X44370666Y-58824857D01*
X44370666Y-58920095D01*
X44418285Y-59015333D01*
X44465904Y-59062952D01*
X44561142Y-59110571D01*
X44894476Y-59110571D01*
X43180190Y-58729619D02*
X43132571Y-58682000D01*
X43037333Y-58634380D01*
X42799238Y-58634380D01*
X42704000Y-58682000D01*
X42656380Y-58729619D01*
X42608761Y-58824857D01*
X42608761Y-58920095D01*
X42656380Y-59062952D01*
X43227809Y-59634380D01*
X42608761Y-59634380D01*
X32829238Y-59094666D02*
X32353047Y-59094666D01*
X32924476Y-59380380D02*
X32591142Y-58380380D01*
X32257809Y-59380380D01*
X31924476Y-59380380D02*
X31924476Y-58380380D01*
X31686380Y-58380380D01*
X31543523Y-58428000D01*
X31448285Y-58523238D01*
X31400666Y-58618476D01*
X31353047Y-58808952D01*
X31353047Y-58951809D01*
X31400666Y-59142285D01*
X31448285Y-59237523D01*
X31543523Y-59332761D01*
X31686380Y-59380380D01*
X31924476Y-59380380D01*
X30591142Y-58856571D02*
X30448285Y-58904190D01*
X30400666Y-58951809D01*
X30353047Y-59047047D01*
X30353047Y-59189904D01*
X30400666Y-59285142D01*
X30448285Y-59332761D01*
X30543523Y-59380380D01*
X30924476Y-59380380D01*
X30924476Y-58380380D01*
X30591142Y-58380380D01*
X30495904Y-58428000D01*
X30448285Y-58475619D01*
X30400666Y-58570857D01*
X30400666Y-58666095D01*
X30448285Y-58761333D01*
X30495904Y-58808952D01*
X30591142Y-58856571D01*
X30924476Y-58856571D01*
X28638761Y-59380380D02*
X29210190Y-59380380D01*
X28924476Y-59380380D02*
X28924476Y-58380380D01*
X29019714Y-58523238D01*
X29114952Y-58618476D01*
X29210190Y-58666095D01*
X48458190Y-26360380D02*
X48458190Y-25360380D01*
X48077238Y-25360380D01*
X47982000Y-25408000D01*
X47934380Y-25455619D01*
X47886761Y-25550857D01*
X47886761Y-25693714D01*
X47934380Y-25788952D01*
X47982000Y-25836571D01*
X48077238Y-25884190D01*
X48458190Y-25884190D01*
X47315333Y-26360380D02*
X47410571Y-26312761D01*
X47458190Y-26265142D01*
X47505809Y-26169904D01*
X47505809Y-25884190D01*
X47458190Y-25788952D01*
X47410571Y-25741333D01*
X47315333Y-25693714D01*
X47172476Y-25693714D01*
X47077238Y-25741333D01*
X47029619Y-25788952D01*
X46982000Y-25884190D01*
X46982000Y-26169904D01*
X47029619Y-26265142D01*
X47077238Y-26312761D01*
X47172476Y-26360380D01*
X47315333Y-26360380D01*
X46648666Y-25693714D02*
X46458190Y-26360380D01*
X46267714Y-25884190D01*
X46077238Y-26360380D01*
X45886761Y-25693714D01*
X45124857Y-26312761D02*
X45220095Y-26360380D01*
X45410571Y-26360380D01*
X45505809Y-26312761D01*
X45553428Y-26217523D01*
X45553428Y-25836571D01*
X45505809Y-25741333D01*
X45410571Y-25693714D01*
X45220095Y-25693714D01*
X45124857Y-25741333D01*
X45077238Y-25836571D01*
X45077238Y-25931809D01*
X45553428Y-26027047D01*
X44648666Y-26360380D02*
X44648666Y-25693714D01*
X44648666Y-25884190D02*
X44601047Y-25788952D01*
X44553428Y-25741333D01*
X44458190Y-25693714D01*
X44362952Y-25693714D01*
X38526404Y-41807380D02*
X38526404Y-42616904D01*
X38478785Y-42712142D01*
X38431166Y-42759761D01*
X38335928Y-42807380D01*
X38145452Y-42807380D01*
X38050214Y-42759761D01*
X38002595Y-42712142D01*
X37954976Y-42616904D01*
X37954976Y-41807380D01*
X37526404Y-42759761D02*
X37383547Y-42807380D01*
X37145452Y-42807380D01*
X37050214Y-42759761D01*
X37002595Y-42712142D01*
X36954976Y-42616904D01*
X36954976Y-42521666D01*
X37002595Y-42426428D01*
X37050214Y-42378809D01*
X37145452Y-42331190D01*
X37335928Y-42283571D01*
X37431166Y-42235952D01*
X37478785Y-42188333D01*
X37526404Y-42093095D01*
X37526404Y-41997857D01*
X37478785Y-41902619D01*
X37431166Y-41855000D01*
X37335928Y-41807380D01*
X37097833Y-41807380D01*
X36954976Y-41855000D01*
X36193071Y-42283571D02*
X36050214Y-42331190D01*
X36002595Y-42378809D01*
X35954976Y-42474047D01*
X35954976Y-42616904D01*
X36002595Y-42712142D01*
X36050214Y-42759761D01*
X36145452Y-42807380D01*
X36526404Y-42807380D01*
X36526404Y-41807380D01*
X36193071Y-41807380D01*
X36097833Y-41855000D01*
X36050214Y-41902619D01*
X36002595Y-41997857D01*
X36002595Y-42093095D01*
X36050214Y-42188333D01*
X36097833Y-42235952D01*
X36193071Y-42283571D01*
X36526404Y-42283571D01*
X34764500Y-42807380D02*
X34764500Y-41807380D01*
X34193071Y-42807380D02*
X34621642Y-42235952D01*
X34193071Y-41807380D02*
X34764500Y-42378809D01*
X33383547Y-42759761D02*
X33478785Y-42807380D01*
X33669261Y-42807380D01*
X33764500Y-42759761D01*
X33812119Y-42664523D01*
X33812119Y-42283571D01*
X33764500Y-42188333D01*
X33669261Y-42140714D01*
X33478785Y-42140714D01*
X33383547Y-42188333D01*
X33335928Y-42283571D01*
X33335928Y-42378809D01*
X33812119Y-42474047D01*
X33002595Y-42140714D02*
X32764500Y-42807380D01*
X32526404Y-42140714D02*
X32764500Y-42807380D01*
X32859738Y-43045476D01*
X32907357Y-43093095D01*
X33002595Y-43140714D01*
X32145452Y-42807380D02*
X32145452Y-41807380D01*
X32145452Y-42188333D02*
X32050214Y-42140714D01*
X31859738Y-42140714D01*
X31764500Y-42188333D01*
X31716880Y-42235952D01*
X31669261Y-42331190D01*
X31669261Y-42616904D01*
X31716880Y-42712142D01*
X31764500Y-42759761D01*
X31859738Y-42807380D01*
X32050214Y-42807380D01*
X32145452Y-42759761D01*
X31097833Y-42807380D02*
X31193071Y-42759761D01*
X31240690Y-42712142D01*
X31288309Y-42616904D01*
X31288309Y-42331190D01*
X31240690Y-42235952D01*
X31193071Y-42188333D01*
X31097833Y-42140714D01*
X30954976Y-42140714D01*
X30859738Y-42188333D01*
X30812119Y-42235952D01*
X30764500Y-42331190D01*
X30764500Y-42616904D01*
X30812119Y-42712142D01*
X30859738Y-42759761D01*
X30954976Y-42807380D01*
X31097833Y-42807380D01*
X29907357Y-42807380D02*
X29907357Y-42283571D01*
X29954976Y-42188333D01*
X30050214Y-42140714D01*
X30240690Y-42140714D01*
X30335928Y-42188333D01*
X29907357Y-42759761D02*
X30002595Y-42807380D01*
X30240690Y-42807380D01*
X30335928Y-42759761D01*
X30383547Y-42664523D01*
X30383547Y-42569285D01*
X30335928Y-42474047D01*
X30240690Y-42426428D01*
X30002595Y-42426428D01*
X29907357Y-42378809D01*
X29431166Y-42807380D02*
X29431166Y-42140714D01*
X29431166Y-42331190D02*
X29383547Y-42235952D01*
X29335928Y-42188333D01*
X29240690Y-42140714D01*
X29145452Y-42140714D01*
X28383547Y-42807380D02*
X28383547Y-41807380D01*
X28383547Y-42759761D02*
X28478785Y-42807380D01*
X28669261Y-42807380D01*
X28764500Y-42759761D01*
X28812119Y-42712142D01*
X28859738Y-42616904D01*
X28859738Y-42331190D01*
X28812119Y-42235952D01*
X28764500Y-42188333D01*
X28669261Y-42140714D01*
X28478785Y-42140714D01*
X28383547Y-42188333D01*
X37716880Y-44457380D02*
X37764500Y-44457380D01*
X37859738Y-44409761D01*
X38002595Y-44266904D01*
X38240690Y-43981190D01*
X38335928Y-43838333D01*
X38383547Y-43695476D01*
X38383547Y-43600238D01*
X38335928Y-43505000D01*
X38240690Y-43457380D01*
X38193071Y-43457380D01*
X38097833Y-43505000D01*
X38050214Y-43600238D01*
X38050214Y-43647857D01*
X38097833Y-43743095D01*
X38145452Y-43790714D01*
X38431166Y-43981190D01*
X38478785Y-44028809D01*
X38526404Y-44124047D01*
X38526404Y-44266904D01*
X38478785Y-44362142D01*
X38431166Y-44409761D01*
X38335928Y-44457380D01*
X38193071Y-44457380D01*
X38097833Y-44409761D01*
X38050214Y-44362142D01*
X37907357Y-44171666D01*
X37859738Y-44028809D01*
X37859738Y-43933571D01*
X36526404Y-44457380D02*
X36526404Y-43457380D01*
X36193071Y-44171666D01*
X35859738Y-43457380D01*
X35859738Y-44457380D01*
X35240690Y-44457380D02*
X35335928Y-44409761D01*
X35383547Y-44362142D01*
X35431166Y-44266904D01*
X35431166Y-43981190D01*
X35383547Y-43885952D01*
X35335928Y-43838333D01*
X35240690Y-43790714D01*
X35097833Y-43790714D01*
X35002595Y-43838333D01*
X34954976Y-43885952D01*
X34907357Y-43981190D01*
X34907357Y-44266904D01*
X34954976Y-44362142D01*
X35002595Y-44409761D01*
X35097833Y-44457380D01*
X35240690Y-44457380D01*
X34050214Y-43790714D02*
X34050214Y-44457380D01*
X34478785Y-43790714D02*
X34478785Y-44314523D01*
X34431166Y-44409761D01*
X34335928Y-44457380D01*
X34193071Y-44457380D01*
X34097833Y-44409761D01*
X34050214Y-44362142D01*
X33621642Y-44409761D02*
X33526404Y-44457380D01*
X33335928Y-44457380D01*
X33240690Y-44409761D01*
X33193071Y-44314523D01*
X33193071Y-44266904D01*
X33240690Y-44171666D01*
X33335928Y-44124047D01*
X33478785Y-44124047D01*
X33574023Y-44076428D01*
X33621642Y-43981190D01*
X33621642Y-43933571D01*
X33574023Y-43838333D01*
X33478785Y-43790714D01*
X33335928Y-43790714D01*
X33240690Y-43838333D01*
X32383547Y-44409761D02*
X32478785Y-44457380D01*
X32669261Y-44457380D01*
X32764500Y-44409761D01*
X32812119Y-44314523D01*
X32812119Y-43933571D01*
X32764500Y-43838333D01*
X32669261Y-43790714D01*
X32478785Y-43790714D01*
X32383547Y-43838333D01*
X32335928Y-43933571D01*
X32335928Y-44028809D01*
X32812119Y-44124047D01*
D10*
X26028666Y-52044476D02*
X26028666Y-51663523D01*
X25800095Y-52120666D02*
X26600095Y-51854000D01*
X25800095Y-51587333D01*
X25800095Y-51320666D02*
X26600095Y-51320666D01*
X26600095Y-51130190D01*
X26562000Y-51015904D01*
X26485809Y-50939714D01*
X26409619Y-50901619D01*
X26257238Y-50863523D01*
X26142952Y-50863523D01*
X25990571Y-50901619D01*
X25914380Y-50939714D01*
X25838190Y-51015904D01*
X25800095Y-51130190D01*
X25800095Y-51320666D01*
X26219142Y-50254000D02*
X26181047Y-50139714D01*
X26142952Y-50101619D01*
X26066761Y-50063523D01*
X25952476Y-50063523D01*
X25876285Y-50101619D01*
X25838190Y-50139714D01*
X25800095Y-50215904D01*
X25800095Y-50520666D01*
X26600095Y-50520666D01*
X26600095Y-50254000D01*
X26562000Y-50177809D01*
X26523904Y-50139714D01*
X26447714Y-50101619D01*
X26371523Y-50101619D01*
X26295333Y-50139714D01*
X26257238Y-50177809D01*
X26219142Y-50254000D01*
X26219142Y-50520666D01*
X26600095Y-48386857D02*
X26600095Y-47891619D01*
X26295333Y-48158285D01*
X26295333Y-48044000D01*
X26257238Y-47967809D01*
X26219142Y-47929714D01*
X26142952Y-47891619D01*
X25952476Y-47891619D01*
X25876285Y-47929714D01*
X25838190Y-47967809D01*
X25800095Y-48044000D01*
X25800095Y-48272571D01*
X25838190Y-48348761D01*
X25876285Y-48386857D01*
X25876285Y-47548761D02*
X25838190Y-47510666D01*
X25800095Y-47548761D01*
X25838190Y-47586857D01*
X25876285Y-47548761D01*
X25800095Y-47548761D01*
X26600095Y-47244000D02*
X26600095Y-46748761D01*
X26295333Y-47015428D01*
X26295333Y-46901142D01*
X26257238Y-46824952D01*
X26219142Y-46786857D01*
X26142952Y-46748761D01*
X25952476Y-46748761D01*
X25876285Y-46786857D01*
X25838190Y-46824952D01*
X25800095Y-46901142D01*
X25800095Y-47129714D01*
X25838190Y-47205904D01*
X25876285Y-47244000D01*
X26333428Y-46482095D02*
X25800095Y-46291619D01*
X26333428Y-46101142D01*
X26600095Y-44900666D02*
X25800095Y-44634000D01*
X26600095Y-44367333D01*
X26219142Y-43834000D02*
X26181047Y-43719714D01*
X26142952Y-43681619D01*
X26066761Y-43643523D01*
X25952476Y-43643523D01*
X25876285Y-43681619D01*
X25838190Y-43719714D01*
X25800095Y-43795904D01*
X25800095Y-44100666D01*
X26600095Y-44100666D01*
X26600095Y-43834000D01*
X26562000Y-43757809D01*
X26523904Y-43719714D01*
X26447714Y-43681619D01*
X26371523Y-43681619D01*
X26295333Y-43719714D01*
X26257238Y-43757809D01*
X26219142Y-43834000D01*
X26219142Y-44100666D01*
X26600095Y-43300666D02*
X25952476Y-43300666D01*
X25876285Y-43262571D01*
X25838190Y-43224476D01*
X25800095Y-43148285D01*
X25800095Y-42995904D01*
X25838190Y-42919714D01*
X25876285Y-42881619D01*
X25952476Y-42843523D01*
X26600095Y-42843523D01*
X25838190Y-42500666D02*
X25800095Y-42386380D01*
X25800095Y-42195904D01*
X25838190Y-42119714D01*
X25876285Y-42081619D01*
X25952476Y-42043523D01*
X26028666Y-42043523D01*
X26104857Y-42081619D01*
X26142952Y-42119714D01*
X26181047Y-42195904D01*
X26219142Y-42348285D01*
X26257238Y-42424476D01*
X26295333Y-42462571D01*
X26371523Y-42500666D01*
X26447714Y-42500666D01*
X26523904Y-42462571D01*
X26562000Y-42424476D01*
X26600095Y-42348285D01*
X26600095Y-42157809D01*
X26562000Y-42043523D01*
D12*
X41346380Y-32982000D02*
X40346380Y-32982000D01*
X41346380Y-33410571D02*
X40822571Y-33410571D01*
X40727333Y-33362952D01*
X40679714Y-33267714D01*
X40679714Y-33124857D01*
X40727333Y-33029619D01*
X40774952Y-32982000D01*
X40679714Y-33743904D02*
X40679714Y-34124857D01*
X40346380Y-33886761D02*
X41203523Y-33886761D01*
X41298761Y-33934380D01*
X41346380Y-34029619D01*
X41346380Y-34124857D01*
X40679714Y-34315333D02*
X40679714Y-34696285D01*
X40346380Y-34458190D02*
X41203523Y-34458190D01*
X41298761Y-34505809D01*
X41346380Y-34601047D01*
X41346380Y-34696285D01*
X40679714Y-35029619D02*
X41679714Y-35029619D01*
X40727333Y-35029619D02*
X40679714Y-35124857D01*
X40679714Y-35315333D01*
X40727333Y-35410571D01*
X40774952Y-35458190D01*
X40870190Y-35505809D01*
X41155904Y-35505809D01*
X41251142Y-35458190D01*
X41298761Y-35410571D01*
X41346380Y-35315333D01*
X41346380Y-35124857D01*
X41298761Y-35029619D01*
X41298761Y-35886761D02*
X41346380Y-35981999D01*
X41346380Y-36172476D01*
X41298761Y-36267714D01*
X41203523Y-36315333D01*
X41155904Y-36315333D01*
X41060666Y-36267714D01*
X41013047Y-36172476D01*
X41013047Y-36029619D01*
X40965428Y-35934380D01*
X40870190Y-35886761D01*
X40822571Y-35886761D01*
X40727333Y-35934380D01*
X40679714Y-36029619D01*
X40679714Y-36172476D01*
X40727333Y-36267714D01*
X41251142Y-36743904D02*
X41298761Y-36791523D01*
X41346380Y-36743904D01*
X41298761Y-36696285D01*
X41251142Y-36743904D01*
X41346380Y-36743904D01*
X40727333Y-36743904D02*
X40774952Y-36791523D01*
X40822571Y-36743904D01*
X40774952Y-36696285D01*
X40727333Y-36743904D01*
X40822571Y-36743904D01*
X40298761Y-37934380D02*
X41584476Y-37077238D01*
X40298761Y-38981999D02*
X41584476Y-38124857D01*
X40679714Y-39743904D02*
X41489238Y-39743904D01*
X41584476Y-39696285D01*
X41632095Y-39648666D01*
X41679714Y-39553428D01*
X41679714Y-39410571D01*
X41632095Y-39315333D01*
X41298761Y-39743904D02*
X41346380Y-39648666D01*
X41346380Y-39458190D01*
X41298761Y-39362952D01*
X41251142Y-39315333D01*
X41155904Y-39267714D01*
X40870190Y-39267714D01*
X40774952Y-39315333D01*
X40727333Y-39362952D01*
X40679714Y-39458190D01*
X40679714Y-39648666D01*
X40727333Y-39743904D01*
X41346380Y-40220095D02*
X40679714Y-40220095D01*
X40346380Y-40220095D02*
X40394000Y-40172476D01*
X40441619Y-40220095D01*
X40394000Y-40267714D01*
X40346380Y-40220095D01*
X40441619Y-40220095D01*
X40679714Y-40553428D02*
X40679714Y-40934380D01*
X40346380Y-40696285D02*
X41203523Y-40696285D01*
X41298761Y-40743904D01*
X41346380Y-40839142D01*
X41346380Y-40934380D01*
X41346380Y-41267714D02*
X40346380Y-41267714D01*
X41346380Y-41696285D02*
X40822571Y-41696285D01*
X40727333Y-41648666D01*
X40679714Y-41553428D01*
X40679714Y-41410571D01*
X40727333Y-41315333D01*
X40774952Y-41267714D01*
X40679714Y-42601047D02*
X41346380Y-42601047D01*
X40679714Y-42172476D02*
X41203523Y-42172476D01*
X41298761Y-42220095D01*
X41346380Y-42315333D01*
X41346380Y-42458190D01*
X41298761Y-42553428D01*
X41251142Y-42601047D01*
X41346380Y-43077238D02*
X40346380Y-43077238D01*
X40727333Y-43077238D02*
X40679714Y-43172476D01*
X40679714Y-43362952D01*
X40727333Y-43458190D01*
X40774952Y-43505809D01*
X40870190Y-43553428D01*
X41155904Y-43553428D01*
X41251142Y-43505809D01*
X41298761Y-43458190D01*
X41346380Y-43362952D01*
X41346380Y-43172476D01*
X41298761Y-43077238D01*
X41251142Y-43981999D02*
X41298761Y-44029619D01*
X41346380Y-43981999D01*
X41298761Y-43934380D01*
X41251142Y-43981999D01*
X41346380Y-43981999D01*
X41298761Y-44886761D02*
X41346380Y-44791523D01*
X41346380Y-44601047D01*
X41298761Y-44505809D01*
X41251142Y-44458190D01*
X41155904Y-44410571D01*
X40870190Y-44410571D01*
X40774952Y-44458190D01*
X40727333Y-44505809D01*
X40679714Y-44601047D01*
X40679714Y-44791523D01*
X40727333Y-44886761D01*
X41346380Y-45458190D02*
X41298761Y-45362952D01*
X41251142Y-45315333D01*
X41155904Y-45267714D01*
X40870190Y-45267714D01*
X40774952Y-45315333D01*
X40727333Y-45362952D01*
X40679714Y-45458190D01*
X40679714Y-45601047D01*
X40727333Y-45696285D01*
X40774952Y-45743904D01*
X40870190Y-45791523D01*
X41155904Y-45791523D01*
X41251142Y-45743904D01*
X41298761Y-45696285D01*
X41346380Y-45601047D01*
X41346380Y-45458190D01*
X41346380Y-46220095D02*
X40679714Y-46220095D01*
X40774952Y-46220095D02*
X40727333Y-46267714D01*
X40679714Y-46362952D01*
X40679714Y-46505809D01*
X40727333Y-46601047D01*
X40822571Y-46648666D01*
X41346380Y-46648666D01*
X40822571Y-46648666D02*
X40727333Y-46696285D01*
X40679714Y-46791523D01*
X40679714Y-46934380D01*
X40727333Y-47029619D01*
X40822571Y-47077238D01*
X41346380Y-47077238D01*
X40298761Y-48267714D02*
X41584476Y-47410571D01*
X41346380Y-49029619D02*
X40822571Y-49029619D01*
X40727333Y-48981999D01*
X40679714Y-48886761D01*
X40679714Y-48696285D01*
X40727333Y-48601047D01*
X41298761Y-49029619D02*
X41346380Y-48934380D01*
X41346380Y-48696285D01*
X41298761Y-48601047D01*
X41203523Y-48553428D01*
X41108285Y-48553428D01*
X41013047Y-48601047D01*
X40965428Y-48696285D01*
X40965428Y-48934380D01*
X40917809Y-49029619D01*
X41346380Y-49505809D02*
X40346380Y-49505809D01*
X40965428Y-49601047D02*
X41346380Y-49886761D01*
X40679714Y-49886761D02*
X41060666Y-49505809D01*
X40679714Y-50743904D02*
X41346380Y-50743904D01*
X40679714Y-50315333D02*
X41203523Y-50315333D01*
X41298761Y-50362952D01*
X41346380Y-50458190D01*
X41346380Y-50601047D01*
X41298761Y-50696285D01*
X41251142Y-50743904D01*
X41346380Y-51220095D02*
X40346380Y-51220095D01*
X40965428Y-51315333D02*
X41346380Y-51601047D01*
X40679714Y-51601047D02*
X41060666Y-51220095D01*
X41298761Y-52410571D02*
X41346380Y-52315333D01*
X41346380Y-52124857D01*
X41298761Y-52029619D01*
X41203523Y-51981999D01*
X40822571Y-51981999D01*
X40727333Y-52029619D01*
X40679714Y-52124857D01*
X40679714Y-52315333D01*
X40727333Y-52410571D01*
X40822571Y-52458190D01*
X40917809Y-52458190D01*
X41013047Y-51981999D01*
X41346380Y-52886761D02*
X40679714Y-52886761D01*
X40870190Y-52886761D02*
X40774952Y-52934380D01*
X40727333Y-52981999D01*
X40679714Y-53077238D01*
X40679714Y-53172476D01*
X40298761Y-54220095D02*
X41584476Y-53362952D01*
X41346380Y-54981999D02*
X40822571Y-54981999D01*
X40727333Y-54934380D01*
X40679714Y-54839142D01*
X40679714Y-54648666D01*
X40727333Y-54553428D01*
X41298761Y-54981999D02*
X41346380Y-54886761D01*
X41346380Y-54648666D01*
X41298761Y-54553428D01*
X41203523Y-54505809D01*
X41108285Y-54505809D01*
X41013047Y-54553428D01*
X40965428Y-54648666D01*
X40965428Y-54886761D01*
X40917809Y-54981999D01*
X41346380Y-55886761D02*
X40346380Y-55886761D01*
X41298761Y-55886761D02*
X41346380Y-55791523D01*
X41346380Y-55601047D01*
X41298761Y-55505809D01*
X41251142Y-55458190D01*
X41155904Y-55410571D01*
X40870190Y-55410571D01*
X40774952Y-55458190D01*
X40727333Y-55505809D01*
X40679714Y-55601047D01*
X40679714Y-55791523D01*
X40727333Y-55886761D01*
X41346380Y-56362952D02*
X40346380Y-56362952D01*
X40727333Y-56362952D02*
X40679714Y-56458190D01*
X40679714Y-56648666D01*
X40727333Y-56743904D01*
X40774952Y-56791523D01*
X40870190Y-56839142D01*
X41155904Y-56839142D01*
X41251142Y-56791523D01*
X41298761Y-56743904D01*
X41346380Y-56648666D01*
X41346380Y-56458190D01*
X41298761Y-56362952D01*
X40679714Y-57696285D02*
X41346380Y-57696285D01*
X40679714Y-57267714D02*
X41203523Y-57267714D01*
X41298761Y-57315333D01*
X41346380Y-57410571D01*
X41346380Y-57553428D01*
X41298761Y-57648666D01*
X41251142Y-57696285D01*
X41346380Y-58172476D02*
X40679714Y-58172476D01*
X40346380Y-58172476D02*
X40394000Y-58124857D01*
X40441619Y-58172476D01*
X40394000Y-58220095D01*
X40346380Y-58172476D01*
X40441619Y-58172476D01*
X40679714Y-58648666D02*
X41346380Y-58648666D01*
X40774952Y-58648666D02*
X40727333Y-58696285D01*
X40679714Y-58791523D01*
X40679714Y-58934380D01*
X40727333Y-59029619D01*
X40822571Y-59077238D01*
X41346380Y-59077238D01*
X41346380Y-59696285D02*
X41298761Y-59601047D01*
X41251142Y-59553428D01*
X41155904Y-59505809D01*
X40870190Y-59505809D01*
X40774952Y-59553428D01*
X40727333Y-59601047D01*
X40679714Y-59696285D01*
X40679714Y-59839142D01*
X40727333Y-59934380D01*
X40774952Y-59981999D01*
X40870190Y-60029619D01*
X41155904Y-60029619D01*
X41251142Y-59981999D01*
X41298761Y-59934380D01*
X41346380Y-59839142D01*
X41346380Y-59696285D01*
D13*
%TO.C,J5*%
X32856000Y-69200000D02*
X32856000Y-65440000D01*
X32856000Y-60760000D02*
X32856000Y-62080000D01*
X32856000Y-73860000D02*
X32856000Y-72540000D01*
D10*
X33676000Y-65550000D02*
G75*
G03*
X33676000Y-65550000I-200000J0D01*
G01*
D13*
X25056000Y-60760000D02*
X25296000Y-60760000D01*
X32856000Y-60760000D02*
X29426000Y-60760000D01*
X32856000Y-73860000D02*
X29516000Y-73860000D01*
X25056000Y-73860000D02*
X25296000Y-73860000D01*
X25056000Y-60760000D02*
X25056000Y-73860000D01*
%TO.C,J4*%
X42074000Y-65420000D02*
X42074000Y-69180000D01*
X42074000Y-73860000D02*
X42074000Y-72540000D01*
X42074000Y-60760000D02*
X42074000Y-62080000D01*
D10*
X41874000Y-69120000D02*
G75*
G03*
X41874000Y-69120000I-200000J0D01*
G01*
D13*
X49874000Y-73860000D02*
X49634000Y-73860000D01*
X42074000Y-73860000D02*
X45504000Y-73860000D01*
X42074000Y-60760000D02*
X45414000Y-60760000D01*
X49874000Y-60760000D02*
X49634000Y-60760000D01*
X49874000Y-73860000D02*
X49874000Y-60760000D01*
D14*
%TO.C,J2*%
X42493000Y-30959000D02*
X42493000Y-30959000D01*
X42693000Y-30959000D02*
X42693000Y-30959000D01*
D10*
X49963000Y-28334000D02*
X49963000Y-36333000D01*
D14*
X42693000Y-30959000D02*
G75*
G03*
X42493000Y-30959000I-100000J0D01*
G01*
X42493000Y-30959000D02*
G75*
G03*
X42693000Y-30959000I100000J0D01*
G01*
D11*
%TO.C,TP3*%
X49468000Y-33782000D02*
G75*
G03*
X49468000Y-33782000I-700000J0D01*
G01*
%TO.C,TP2*%
X47944000Y-32258000D02*
G75*
G03*
X47944000Y-32258000I-700000J0D01*
G01*
%TO.C,TP1*%
X49468000Y-30734000D02*
G75*
G03*
X49468000Y-30734000I-700000J0D01*
G01*
%TO.C,J3*%
X24758000Y-40244000D02*
X32868000Y-40244000D01*
X24758000Y-40244000D02*
X24758000Y-40894000D01*
X39718000Y-40244000D02*
X39718000Y-26924000D01*
X39718000Y-40244000D02*
X36388000Y-40244000D01*
X39718000Y-26924000D02*
X36388000Y-26924000D01*
X24238000Y-26274000D02*
X24758000Y-26274000D01*
X24238000Y-40894000D02*
X24238000Y-26274000D01*
X32868000Y-26924000D02*
X24758000Y-26924000D01*
X24758000Y-40894000D02*
X24238000Y-40894000D01*
X24758000Y-26274000D02*
X24758000Y-26924000D01*
X39938000Y-37984000D02*
X39938000Y-36184000D01*
%TO.C,J5*%
D12*
X34369485Y-59650130D02*
X34369485Y-60364742D01*
X34417126Y-60507665D01*
X34512408Y-60602946D01*
X34655330Y-60650587D01*
X34750612Y-60650587D01*
X33416669Y-59650130D02*
X33893077Y-59650130D01*
X33940718Y-60126538D01*
X33893077Y-60078897D01*
X33797795Y-60031257D01*
X33559591Y-60031257D01*
X33464310Y-60078897D01*
X33416669Y-60126538D01*
X33369028Y-60221820D01*
X33369028Y-60460024D01*
X33416669Y-60555306D01*
X33464310Y-60602946D01*
X33559591Y-60650587D01*
X33797795Y-60650587D01*
X33893077Y-60602946D01*
X33940718Y-60555306D01*
%TO.C,J4*%
X46561485Y-71080130D02*
X46561485Y-71794742D01*
X46609126Y-71937665D01*
X46704408Y-72032946D01*
X46847330Y-72080587D01*
X46942612Y-72080587D01*
X45656310Y-71413616D02*
X45656310Y-72080587D01*
X45894514Y-71032489D02*
X46132718Y-71747102D01*
X45513387Y-71747102D01*
%TO.C,J2*%
D15*
X45532523Y-31834666D02*
X46439666Y-31834666D01*
X46621095Y-31774190D01*
X46742047Y-31653238D01*
X46802523Y-31471809D01*
X46802523Y-31350857D01*
X45653476Y-32378952D02*
X45593000Y-32439428D01*
X45532523Y-32560380D01*
X45532523Y-32862761D01*
X45593000Y-32983714D01*
X45653476Y-33044190D01*
X45774428Y-33104666D01*
X45895380Y-33104666D01*
X46076809Y-33044190D01*
X46802523Y-32318476D01*
X46802523Y-33104666D01*
%TO.C,J3*%
D12*
X30694380Y-28368666D02*
X31408666Y-28368666D01*
X31551523Y-28321047D01*
X31646761Y-28225809D01*
X31694380Y-28082952D01*
X31694380Y-27987714D01*
X30694380Y-28749619D02*
X30694380Y-29368666D01*
X31075333Y-29035333D01*
X31075333Y-29178190D01*
X31122952Y-29273428D01*
X31170571Y-29321047D01*
X31265809Y-29368666D01*
X31503904Y-29368666D01*
X31599142Y-29321047D01*
X31646761Y-29273428D01*
X31694380Y-29178190D01*
X31694380Y-28892476D01*
X31646761Y-28797238D01*
X31599142Y-28749619D01*
%TD*%
M02*
