%TF.GenerationSoftware,KiCad,Pcbnew,(5.1.9-16-g1737927814)-1*%
%TF.CreationDate,2021-10-10T21:13:45-05:00*%
%TF.ProjectId,adbuino,61646275-696e-46f2-9e6b-696361645f70,rev?*%
%TF.SameCoordinates,Original*%
%TF.FileFunction,Copper,L2,Bot*%
%TF.FilePolarity,Positive*%
%FSLAX46Y46*%
G04 Gerber Fmt 4.6, Leading zero omitted, Abs format (unit mm)*
G04 Created by KiCad (PCBNEW (5.1.9-16-g1737927814)-1) date 2021-10-10 21:13:45*
%MOMM*%
%LPD*%
G01*
G04 APERTURE LIST*
%TA.AperFunction,ComponentPad*%
%ADD10O,1.700000X1.700000*%
%TD*%
%TA.AperFunction,ComponentPad*%
%ADD11R,1.700000X1.700000*%
%TD*%
%TA.AperFunction,ComponentPad*%
%ADD12C,2.000000*%
%TD*%
%TA.AperFunction,SMDPad,CuDef*%
%ADD13R,1.400000X0.400000*%
%TD*%
%TA.AperFunction,ComponentPad*%
%ADD14C,1.000000*%
%TD*%
%TA.AperFunction,SMDPad,CuDef*%
%ADD15R,3.500000X0.900000*%
%TD*%
%TA.AperFunction,ComponentPad*%
%ADD16O,3.600000X1.800000*%
%TD*%
%TA.AperFunction,ComponentPad*%
%ADD17C,3.316000*%
%TD*%
%TA.AperFunction,ComponentPad*%
%ADD18C,1.600000*%
%TD*%
%TA.AperFunction,ComponentPad*%
%ADD19R,1.500000X1.600000*%
%TD*%
%TA.AperFunction,ComponentPad*%
%ADD20C,3.000000*%
%TD*%
%TA.AperFunction,ViaPad*%
%ADD21C,0.800000*%
%TD*%
%TA.AperFunction,Conductor*%
%ADD22C,0.250000*%
%TD*%
%TA.AperFunction,Conductor*%
%ADD23C,0.150000*%
%TD*%
%TA.AperFunction,Conductor*%
%ADD24C,0.400000*%
%TD*%
%TA.AperFunction,Conductor*%
%ADD25C,0.254000*%
%TD*%
%TA.AperFunction,Conductor*%
%ADD26C,0.100000*%
%TD*%
G04 APERTURE END LIST*
D10*
%TO.P,J7,2*%
%TO.N,OPTION_SELECT*%
X26924000Y-57658000D03*
D11*
%TO.P,J7,1*%
%TO.N,GND*%
X26924000Y-55118000D03*
%TD*%
D12*
%TO.P,J2,MH4*%
%TO.N,GND*%
X43743000Y-28683000D03*
%TO.P,J2,MH3*%
X43743000Y-35833000D03*
%TO.P,J2,MH2*%
X47193000Y-35833000D03*
%TO.P,J2,MH1*%
X47193000Y-28683000D03*
D13*
%TO.P,J2,5*%
X44243000Y-33558000D03*
%TO.P,J2,4*%
%TO.N,Net-(J2-Pad4)*%
X44243000Y-32908000D03*
%TO.P,J2,3*%
%TO.N,Net-(J2-Pad3)*%
X44243000Y-32258000D03*
%TO.P,J2,2*%
%TO.N,Net-(J2-Pad2)*%
X44243000Y-31608000D03*
%TO.P,J2,1*%
%TO.N,VBUS*%
X44243000Y-30958000D03*
%TD*%
D14*
%TO.P,TP3,1*%
%TO.N,Net-(J2-Pad4)*%
X46736000Y-41656000D03*
%TD*%
%TO.P,TP2,1*%
%TO.N,Net-(J2-Pad3)*%
X48768000Y-41656000D03*
%TD*%
%TO.P,TP1,1*%
%TO.N,Net-(J2-Pad2)*%
X47752000Y-39878000D03*
%TD*%
D10*
%TO.P,J6,6*%
%TO.N,GND*%
X33020000Y-56134000D03*
%TO.P,J6,5*%
%TO.N,/RESET*%
X30480000Y-56134000D03*
%TO.P,J6,4*%
%TO.N,ATMEGA_SPI_MOSI*%
X33020000Y-53594000D03*
%TO.P,J6,3*%
%TO.N,ATMEGA_SPI_SCLK*%
X30480000Y-53594000D03*
%TO.P,J6,2*%
%TO.N,+3V3*%
X33020000Y-51054000D03*
D11*
%TO.P,J6,1*%
%TO.N,ATMEGA_SPI_MISO*%
X30480000Y-51054000D03*
%TD*%
D15*
%TO.P,J5,3*%
%TO.N,ADB_1_5v*%
X33156000Y-62810000D03*
%TO.P,J5,1*%
%TO.N,ADB_1_DATA*%
X33156000Y-64610000D03*
%TO.P,J5,2*%
%TO.N,ADB_1_PWR_ON*%
X33156000Y-70010000D03*
%TO.P,J5,4*%
%TO.N,GND*%
X33156000Y-71810000D03*
D16*
%TO.P,J5,S3*%
X27356000Y-73710000D03*
%TO.P,J5,S2*%
X27356000Y-60910000D03*
D17*
%TO.P,J5,S1*%
X28056000Y-67310000D03*
%TD*%
D15*
%TO.P,J4,3*%
%TO.N,ADB_1_5v*%
X41774000Y-71810000D03*
%TO.P,J4,1*%
%TO.N,ADB_1_DATA*%
X41774000Y-70010000D03*
%TO.P,J4,2*%
%TO.N,ADB_1_PWR_ON*%
X41774000Y-64610000D03*
%TO.P,J4,4*%
%TO.N,GND*%
X41774000Y-62810000D03*
D16*
%TO.P,J4,S3*%
X47574000Y-60910000D03*
%TO.P,J4,S2*%
X47574000Y-73710000D03*
D17*
%TO.P,J4,S1*%
X46874000Y-67310000D03*
%TD*%
D10*
%TO.P,J1,6*%
%TO.N,FTDI_DTR*%
X48000000Y-57700000D03*
%TO.P,J1,5*%
%TO.N,FTDI_TXO*%
X48000000Y-55160000D03*
%TO.P,J1,4*%
%TO.N,FTDI_RXI*%
X48000000Y-52620000D03*
%TO.P,J1,3*%
%TO.N,+3V3*%
X48000000Y-50080000D03*
%TO.P,J1,2*%
%TO.N,N/C*%
X48000000Y-47540000D03*
D11*
%TO.P,J1,1*%
%TO.N,GND*%
X48000000Y-45000000D03*
%TD*%
D18*
%TO.P,J3,4*%
%TO.N,GND*%
X37338000Y-30084000D03*
%TO.P,J3,3*%
%TO.N,Net-(J3-Pad3)*%
X37338000Y-32584000D03*
%TO.P,J3,2*%
%TO.N,Net-(J3-Pad2)*%
X37338000Y-34584000D03*
D19*
%TO.P,J3,1*%
%TO.N,Net-(F1-Pad1)*%
X37338000Y-37084000D03*
D20*
%TO.P,J3,5*%
%TO.N,GND*%
X34628000Y-27014000D03*
X34628000Y-40154000D03*
%TD*%
D21*
%TO.N,ADB_1_5v*%
X38846202Y-71045274D03*
X36522643Y-71033010D03*
%TO.N,ADB_1_DATA*%
X41656000Y-70612000D03*
X36576000Y-67056000D03*
X38973989Y-66175560D03*
%TO.N,ADB_1_PWR_ON*%
X40640000Y-63860002D03*
X35650371Y-64284307D03*
X30525904Y-70845670D03*
%TO.N,GND*%
X39624000Y-48006000D03*
X39878000Y-46482000D03*
X32258000Y-38862000D03*
X45837203Y-52399406D03*
X28448000Y-44958000D03*
X39878000Y-51562000D03*
X39370000Y-56388000D03*
X41025313Y-68959998D03*
X44196000Y-69088000D03*
X29718000Y-48006000D03*
X31242000Y-43942000D03*
X28702000Y-40132000D03*
X27432000Y-53086000D03*
%TO.N,+3V3*%
X30347920Y-32420560D03*
X31790640Y-34925000D03*
X36576000Y-61976000D03*
X31787188Y-42073980D03*
X36097419Y-43910029D03*
X38354000Y-40640000D03*
X36561474Y-52471001D03*
X44958000Y-74375000D03*
X37592000Y-74375000D03*
X29718000Y-74375000D03*
X37450393Y-65387828D03*
X37723015Y-69526941D03*
%TO.N,VBUS*%
X33401000Y-34066480D03*
%TO.N,Host_USB_D-*%
X39756080Y-45349160D03*
X40519218Y-33425727D03*
%TO.N,Host_USB_D+*%
X39654480Y-32923480D03*
X38969571Y-46063932D03*
%TO.N,FTDI_DTR*%
X45899763Y-64466459D03*
%TO.N,MAX3421_INT*%
X35579305Y-61894624D03*
X37592000Y-54864000D03*
X37149609Y-42799000D03*
X35569021Y-54864025D03*
%TO.N,MAX3421_GPX*%
X38519658Y-41821195D03*
X37376010Y-60187503D03*
%TO.N,ADB_DATA_LV*%
X44615233Y-61204501D03*
X44958000Y-70612000D03*
%TO.N,ADB_PWR_ON_LV*%
X35555525Y-66084330D03*
X35327096Y-73774980D03*
%TO.N,FTDI_TXO*%
X44574011Y-64969804D03*
%TO.N,FTDI_RXI*%
X42819184Y-66851295D03*
%TO.N,/RESET*%
X49375000Y-51816000D03*
X47244000Y-65024000D03*
X33782000Y-54864000D03*
%TO.N,GND*%
X34000709Y-68824979D03*
X31645182Y-68073858D03*
%TO.N,+3V3*%
X36576000Y-57658000D03*
%TO.N,DEBUG_LED*%
X29718000Y-59690000D03*
X30970172Y-67047492D03*
%TO.N,ATMEGA_SS*%
X44958000Y-41910000D03*
X39073998Y-62235017D03*
%TO.N,ATMEGA_SPI_MOSI*%
X37743876Y-62721639D03*
X43434000Y-40386000D03*
X31418031Y-61423083D03*
%TO.N,ATMEGA_SPI_MISO*%
X38608000Y-63246000D03*
X44196000Y-41148000D03*
X30455997Y-62905275D03*
%TO.N,ATMEGA_SPI_SCLK*%
X38973989Y-64695786D03*
X45720000Y-42672000D03*
X30988000Y-65532000D03*
%TO.N,MAX3421_RESET*%
X34544000Y-47752000D03*
X33770361Y-58431639D03*
%TO.N,Net-(J2-Pad4)*%
X48879960Y-33447350D03*
%TO.N,Net-(J2-Pad3)*%
X48347878Y-32448875D03*
%TO.N,Net-(J2-Pad2)*%
X46990000Y-32004000D03*
%TO.N,Net-(JP1-Pad2)*%
X41575998Y-72898000D03*
X48006000Y-71882000D03*
%TO.N,Net-(JP4-Pad2)*%
X33354002Y-72898000D03*
X27940000Y-69850000D03*
%TO.N,OPTION_SELECT*%
X28788990Y-62399238D03*
X30167882Y-68788155D03*
%TD*%
D22*
%TO.N,ADB_1_5v*%
X41774000Y-71810000D02*
X39610928Y-71810000D01*
X39610928Y-71810000D02*
X38846202Y-71045274D01*
X35957591Y-62810000D02*
X36725383Y-63577792D01*
X37301002Y-67600998D02*
X36522643Y-68379357D01*
X33156000Y-62810000D02*
X35957591Y-62810000D01*
X36522643Y-68379357D02*
X36522643Y-71033010D01*
X37301002Y-66707998D02*
X37301002Y-67600998D01*
X36725383Y-63577792D02*
X36725383Y-66132379D01*
X36725383Y-66132379D02*
X37301002Y-66707998D01*
%TO.N,ADB_1_DATA*%
X41818560Y-69965440D02*
X41774000Y-70010000D01*
D23*
X34051002Y-64610000D02*
X35161002Y-63500000D01*
X33156000Y-64610000D02*
X34051002Y-64610000D01*
X35560000Y-63500000D02*
X35669306Y-63609306D01*
X35161002Y-63500000D02*
X35560000Y-63500000D01*
X35974372Y-63609306D02*
X36325372Y-63960306D01*
X35669306Y-63609306D02*
X35974372Y-63609306D01*
X36325372Y-63960306D02*
X36325372Y-66798628D01*
X36576000Y-67049256D02*
X36576000Y-67056000D01*
X36325372Y-66798628D02*
X36576000Y-67049256D01*
X41774000Y-70010000D02*
X39874000Y-70010000D01*
X39874000Y-70010000D02*
X38973989Y-69109989D01*
X38973989Y-69109989D02*
X38973989Y-66175560D01*
X41656000Y-70128000D02*
X41774000Y-70010000D01*
X41656000Y-70612000D02*
X41656000Y-70128000D01*
D22*
%TO.N,ADB_1_PWR_ON*%
X41774000Y-64610000D02*
X41712130Y-64671870D01*
X41389998Y-64610000D02*
X40640000Y-63860002D01*
X41774000Y-64610000D02*
X41389998Y-64610000D01*
X33156000Y-70010000D02*
X32376075Y-70010000D01*
X35650371Y-64841412D02*
X35650371Y-64284307D01*
X33156000Y-67335783D02*
X35650371Y-64841412D01*
X33156000Y-70010000D02*
X33156000Y-67335783D01*
X33156000Y-70010000D02*
X33156000Y-67855612D01*
D23*
X31361574Y-70010000D02*
X30525904Y-70845670D01*
X33156000Y-70010000D02*
X31361574Y-70010000D01*
D22*
%TO.N,GND*%
X41774000Y-62810000D02*
X41774000Y-61096000D01*
X41774000Y-61096000D02*
X44196000Y-58674000D01*
X44196000Y-48804000D02*
X48000000Y-45000000D01*
X44196000Y-58674000D02*
X44196000Y-48804000D01*
X39878000Y-47752000D02*
X39624000Y-48006000D01*
X39878000Y-46482000D02*
X39878000Y-47752000D01*
X33336000Y-38862000D02*
X34628000Y-40154000D01*
X32258000Y-38862000D02*
X33336000Y-38862000D01*
X44243000Y-33558000D02*
X42642000Y-33558000D01*
X42642000Y-33558000D02*
X42672000Y-33588000D01*
X42672000Y-34762000D02*
X43743000Y-35833000D01*
X42672000Y-33588000D02*
X42672000Y-34762000D01*
X44243000Y-33558000D02*
X45750000Y-33558000D01*
X45750000Y-33558000D02*
X46228000Y-34036000D01*
X46228000Y-34868000D02*
X47193000Y-35833000D01*
X46228000Y-34036000D02*
X46228000Y-34868000D01*
X41774000Y-62810000D02*
X41774000Y-63128000D01*
D23*
X33156000Y-71810000D02*
X34282363Y-71810000D01*
X33156000Y-71810000D02*
X31856000Y-71810000D01*
D24*
X33156000Y-71810000D02*
X32035998Y-71810000D01*
X28056000Y-67310000D02*
X28056000Y-68304026D01*
D22*
X40314000Y-62810000D02*
X41774000Y-62810000D01*
X39878000Y-63720998D02*
X39878000Y-63246000D01*
X39698999Y-63899999D02*
X39878000Y-63720998D01*
X39698999Y-67633684D02*
X39698999Y-63899999D01*
X41025313Y-68959998D02*
X39698999Y-67633684D01*
X39878000Y-63246000D02*
X40314000Y-62810000D01*
D23*
X44196000Y-69088000D02*
X43434000Y-68326000D01*
X41659311Y-68326000D02*
X41025313Y-68959998D01*
X43434000Y-68326000D02*
X41659311Y-68326000D01*
D24*
%TO.N,+3V3*%
X31790640Y-33863280D02*
X30347920Y-32420560D01*
X31790640Y-34925000D02*
X31790640Y-33863280D01*
X31790640Y-34925000D02*
X31203999Y-35511641D01*
X31203999Y-35511641D02*
X31203999Y-41490791D01*
X31203999Y-41490791D02*
X31787188Y-42073980D01*
X33623237Y-43910029D02*
X36097419Y-43910029D01*
X31787188Y-42073980D02*
X33623237Y-43910029D01*
D23*
X36097419Y-43910029D02*
X36097419Y-42896581D01*
X36097419Y-42896581D02*
X38354000Y-40640000D01*
D24*
X36097419Y-43910029D02*
X36097419Y-52006946D01*
X36576000Y-52485527D02*
X36561474Y-52471001D01*
X36097419Y-52006946D02*
X36561474Y-52471001D01*
X44958000Y-74375000D02*
X37592000Y-74375000D01*
X37450393Y-63560326D02*
X37450393Y-65387828D01*
X36576000Y-62685933D02*
X37450393Y-63560326D01*
X36576000Y-61976000D02*
X36576000Y-62685933D01*
X37592000Y-74375000D02*
X37592000Y-70443996D01*
X37850392Y-65787827D02*
X37450393Y-65387828D01*
X37592000Y-70443996D02*
X37850392Y-70185604D01*
X37850392Y-70185604D02*
X37850392Y-65787827D01*
X29917990Y-74574990D02*
X37392010Y-74574990D01*
X29718000Y-74375000D02*
X29917990Y-74574990D01*
X37392010Y-74574990D02*
X37592000Y-74375000D01*
%TO.N,VBUS*%
X38240002Y-30958000D02*
X37910282Y-31287720D01*
X36858278Y-31287720D02*
X34358918Y-33787080D01*
X37910282Y-31287720D02*
X36858278Y-31287720D01*
X33680400Y-33787080D02*
X33401000Y-34066480D01*
X34358918Y-33787080D02*
X33680400Y-33787080D01*
X44243000Y-30958000D02*
X38240002Y-30958000D01*
D22*
%TO.N,Host_USB_D-*%
X39751367Y-34193578D02*
X40519218Y-33425727D01*
X39756080Y-45349160D02*
X39751367Y-45344447D01*
X39751367Y-45344447D02*
X39751367Y-34193578D01*
%TO.N,Host_USB_D+*%
X39244660Y-33333300D02*
X39244660Y-42169197D01*
X38969571Y-42444286D02*
X38969571Y-46063932D01*
X39244660Y-42169197D02*
X38969571Y-42444286D01*
X39654480Y-32923480D02*
X39244660Y-33333300D01*
%TO.N,FTDI_DTR*%
X45448990Y-64015686D02*
X45899763Y-64466459D01*
X48000000Y-57700000D02*
X45448990Y-60251010D01*
X45448990Y-60251010D02*
X45448990Y-64015686D01*
D23*
%TO.N,MAX3421_INT*%
X37592000Y-54864000D02*
X37592000Y-43241391D01*
X37592000Y-43241391D02*
X37149609Y-42799000D01*
X35579305Y-61894624D02*
X35579305Y-54874309D01*
X35579305Y-54874309D02*
X35569021Y-54864025D01*
%TO.N,MAX3421_GPX*%
X38119659Y-59415472D02*
X38120528Y-59415472D01*
X38267001Y-42073852D02*
X38267001Y-59268130D01*
X38519658Y-41821195D02*
X38267001Y-42073852D01*
X38267001Y-59268130D02*
X38119659Y-59415472D01*
X37376010Y-60159121D02*
X37376010Y-60187503D01*
X38119659Y-59415472D02*
X37376010Y-60159121D01*
%TO.N,ADB_DATA_LV*%
X45249013Y-64645802D02*
X45015232Y-64412021D01*
X44958000Y-70612000D02*
X44958000Y-68850998D01*
X44958000Y-68850998D02*
X44558001Y-68450999D01*
X45249013Y-65293806D02*
X45249013Y-64645802D01*
X44558001Y-65984818D02*
X45249013Y-65293806D01*
X45015232Y-64412021D02*
X45015232Y-61604500D01*
X44558001Y-68450999D02*
X44558001Y-65984818D01*
X45015232Y-61604500D02*
X44615233Y-61204501D01*
%TO.N,ADB_PWR_ON_LV*%
X35327096Y-70887412D02*
X35327096Y-70633096D01*
X35327096Y-66312759D02*
X35555525Y-66084330D01*
X35327096Y-70633096D02*
X35327096Y-66312759D01*
X35327096Y-70633096D02*
X35327096Y-73774980D01*
D22*
%TO.N,FTDI_TXO*%
X43724998Y-61339585D02*
X44574011Y-62188598D01*
X43724998Y-60865998D02*
X43724998Y-61339585D01*
X44574011Y-62188598D02*
X44574011Y-64969804D01*
X48000000Y-55160000D02*
X45808022Y-57351978D01*
X45808022Y-58782974D02*
X43724998Y-60865998D01*
X45808022Y-57351978D02*
X45808022Y-58782974D01*
%TO.N,FTDI_RXI*%
X48000000Y-52620000D02*
X45358011Y-55261989D01*
X45358011Y-55261989D02*
X45358011Y-58596574D01*
X45358011Y-58596574D02*
X43274987Y-60679598D01*
X43274987Y-60679598D02*
X43274987Y-61525985D01*
X43849001Y-62099999D02*
X43849001Y-65821478D01*
X43849001Y-65821478D02*
X42819184Y-66851295D01*
X43274987Y-61525985D02*
X43849001Y-62099999D01*
D23*
%TO.N,/RESET*%
X49649010Y-52090010D02*
X49649010Y-62618990D01*
X49375000Y-51816000D02*
X49649010Y-52090010D01*
X49649010Y-62618990D02*
X47244000Y-65024000D01*
X31750000Y-54864000D02*
X33782000Y-54864000D01*
X30480000Y-56134000D02*
X31750000Y-54864000D01*
%TO.N,OPTION_SELECT*%
X27178000Y-58170285D02*
X27178000Y-58166000D01*
D24*
%TO.N,GND*%
X29310999Y-70776423D02*
X29310999Y-68564999D01*
X33156000Y-71810000D02*
X30344576Y-71810000D01*
X30344576Y-71810000D02*
X29310999Y-70776423D01*
X29310999Y-68564999D02*
X28056000Y-67310000D01*
X31645182Y-68442240D02*
X29310999Y-70776423D01*
X31645182Y-68073858D02*
X31645182Y-68442240D01*
%TO.N,+3V3*%
X36576000Y-57658000D02*
X36576000Y-52485527D01*
X36576000Y-61976000D02*
X36576000Y-57658000D01*
D23*
%TO.N,DEBUG_LED*%
X30966482Y-67047492D02*
X30970172Y-67047492D01*
X30116980Y-66197990D02*
X30966482Y-67047492D01*
X30116980Y-66197990D02*
X30116980Y-65930980D01*
X29780987Y-59752987D02*
X29718000Y-59690000D01*
X29780987Y-65594987D02*
X29780987Y-59752987D01*
X30116980Y-65930980D02*
X29780987Y-65594987D01*
%TO.N,ATMEGA_SS*%
X42164000Y-59145015D02*
X39073998Y-62235017D01*
X44958000Y-41910000D02*
X42164000Y-44704000D01*
X42164000Y-44704000D02*
X42164000Y-59145015D01*
%TO.N,ATMEGA_SPI_MOSI*%
X37743876Y-61747192D02*
X37743876Y-62721639D01*
X40876368Y-58614700D02*
X37743876Y-61747192D01*
X40876368Y-42943632D02*
X40876368Y-58614700D01*
X43434000Y-40386000D02*
X40876368Y-42943632D01*
X34544000Y-56642000D02*
X31418031Y-59767969D01*
X34222081Y-53594000D02*
X34544000Y-53915919D01*
X33020000Y-53594000D02*
X34222081Y-53594000D01*
X34544000Y-53915919D02*
X34544000Y-56642000D01*
X31418031Y-59767969D02*
X31418031Y-61423083D01*
%TO.N,ATMEGA_SPI_MISO*%
X38413677Y-63051676D02*
X38419986Y-63045367D01*
X38608000Y-63246000D02*
X38413677Y-63051676D01*
X38398987Y-62556589D02*
X38398987Y-61931013D01*
X38608000Y-62765602D02*
X38398987Y-62556589D01*
X38608000Y-63246000D02*
X38608000Y-62765602D01*
X38398987Y-61931013D02*
X41315001Y-59014999D01*
X41315001Y-44028999D02*
X41315001Y-59014999D01*
X44196000Y-41148000D02*
X41315001Y-44028999D01*
X30480000Y-51054000D02*
X29004989Y-52529011D01*
X30393010Y-62842288D02*
X30455997Y-62905275D01*
X29004989Y-52529011D02*
X29004989Y-57977987D01*
X30393010Y-59366008D02*
X30393010Y-62842288D01*
X29004989Y-57977987D02*
X30393010Y-59366008D01*
%TO.N,ATMEGA_SPI_SCLK*%
X39477989Y-63080311D02*
X39477989Y-63555309D01*
X39477989Y-63555309D02*
X38973989Y-64059309D01*
X43180000Y-58708998D02*
X39748999Y-62139999D01*
X39748999Y-62809301D02*
X39477989Y-63080311D01*
X38973989Y-64059309D02*
X38973989Y-64695786D01*
X39748999Y-62139999D02*
X39748999Y-62809301D01*
X43180000Y-45212000D02*
X43180000Y-58708998D01*
X45720000Y-42672000D02*
X43180000Y-45212000D01*
X31130999Y-62581273D02*
X31130999Y-65124699D01*
X30743021Y-59221029D02*
X30743021Y-62193295D01*
X29355000Y-57833008D02*
X30743021Y-59221029D01*
X30743021Y-62193295D02*
X31130999Y-62581273D01*
X29355000Y-54719000D02*
X29355000Y-57833008D01*
X30480000Y-53594000D02*
X29355000Y-54719000D01*
X31130999Y-65389001D02*
X30988000Y-65532000D01*
X31130999Y-65124699D02*
X31130999Y-65389001D01*
%TO.N,MAX3421_RESET*%
X34894011Y-57307989D02*
X33770361Y-58431639D01*
X34544000Y-47752000D02*
X34894011Y-48102011D01*
X34894011Y-48102011D02*
X34894011Y-57307989D01*
%TO.N,Net-(J2-Pad4)*%
X46939356Y-33447350D02*
X48879960Y-33447350D01*
X46400006Y-32908000D02*
X46939356Y-33447350D01*
X44243000Y-32908000D02*
X46400006Y-32908000D01*
%TO.N,Net-(J2-Pad3)*%
X44243000Y-32258000D02*
X46244996Y-32258000D01*
X46835870Y-32848874D02*
X47947879Y-32848874D01*
X47947879Y-32848874D02*
X48347878Y-32448875D01*
X46244996Y-32258000D02*
X46835870Y-32848874D01*
%TO.N,Net-(J2-Pad2)*%
X46594000Y-31608000D02*
X46990000Y-32004000D01*
X44243000Y-31608000D02*
X46594000Y-31608000D01*
%TO.N,Net-(JP1-Pad2)*%
X44397002Y-71882000D02*
X48006000Y-71882000D01*
X43381002Y-72898000D02*
X44397002Y-71882000D01*
X41575998Y-72898000D02*
X43381002Y-72898000D01*
%TO.N,Net-(JP4-Pad2)*%
X27940000Y-70415685D02*
X27940000Y-69850000D01*
X30422315Y-72898000D02*
X27940000Y-70415685D01*
X33354002Y-72898000D02*
X30422315Y-72898000D01*
%TO.N,OPTION_SELECT*%
X29766972Y-66342970D02*
X30167882Y-66743880D01*
X28788990Y-62399238D02*
X28788990Y-65110990D01*
X30167882Y-66743880D02*
X30167882Y-68788155D01*
X29766972Y-66088972D02*
X29766972Y-66342970D01*
X28788990Y-65110990D02*
X29766972Y-66088972D01*
%TD*%
D25*
%TO.N,GND*%
X28345861Y-58251006D02*
X28387924Y-58329700D01*
X28411790Y-58374350D01*
X28500515Y-58482462D01*
X28527606Y-58504695D01*
X28983600Y-58960689D01*
X28914063Y-59030226D01*
X28800795Y-59199744D01*
X28722774Y-59388102D01*
X28712061Y-59441959D01*
X28680023Y-59429271D01*
X28383000Y-59375000D01*
X27483000Y-59375000D01*
X27483000Y-60783000D01*
X27503000Y-60783000D01*
X27503000Y-61037000D01*
X27483000Y-61037000D01*
X27483000Y-62445000D01*
X27753990Y-62445000D01*
X27753990Y-62501177D01*
X27793764Y-62701136D01*
X27871785Y-62889494D01*
X27985053Y-63059012D01*
X28078990Y-63152949D01*
X28078991Y-65011110D01*
X28019419Y-65006196D01*
X27570672Y-65057600D01*
X27140576Y-65195562D01*
X26806491Y-65374133D01*
X26631475Y-65705870D01*
X28056000Y-67130395D01*
X28070143Y-67116253D01*
X28249748Y-67295858D01*
X28235605Y-67310000D01*
X28249748Y-67324143D01*
X28070143Y-67503748D01*
X28056000Y-67489605D01*
X26631475Y-68914130D01*
X26806491Y-69245867D01*
X27024107Y-69357780D01*
X27022795Y-69359744D01*
X26944774Y-69548102D01*
X26905000Y-69748061D01*
X26905000Y-69951939D01*
X26944774Y-70151898D01*
X27022795Y-70340256D01*
X27136063Y-70509774D01*
X27266014Y-70639725D01*
X27280872Y-70688704D01*
X27346800Y-70812047D01*
X27435525Y-70920159D01*
X27462617Y-70942393D01*
X28795047Y-72274823D01*
X28680023Y-72229271D01*
X28383000Y-72175000D01*
X27483000Y-72175000D01*
X27483000Y-73583000D01*
X27503000Y-73583000D01*
X27503000Y-73837000D01*
X27483000Y-73837000D01*
X27483000Y-73857000D01*
X27229000Y-73857000D01*
X27229000Y-73837000D01*
X27209000Y-73837000D01*
X27209000Y-73583000D01*
X27229000Y-73583000D01*
X27229000Y-72175000D01*
X26329000Y-72175000D01*
X26031977Y-72229271D01*
X25751249Y-72340446D01*
X25660000Y-72399375D01*
X25660000Y-67346581D01*
X25752196Y-67346581D01*
X25803600Y-67795328D01*
X25941562Y-68225424D01*
X26120133Y-68559509D01*
X26451870Y-68734525D01*
X27876395Y-67310000D01*
X26451870Y-65885475D01*
X26120133Y-66060491D01*
X25913563Y-66462168D01*
X25789326Y-66896428D01*
X25752196Y-67346581D01*
X25660000Y-67346581D01*
X25660000Y-62220625D01*
X25751249Y-62279554D01*
X26031977Y-62390729D01*
X26329000Y-62445000D01*
X27229000Y-62445000D01*
X27229000Y-61037000D01*
X27209000Y-61037000D01*
X27209000Y-60783000D01*
X27229000Y-60783000D01*
X27229000Y-59375000D01*
X26329000Y-59375000D01*
X26031977Y-59429271D01*
X25751249Y-59540446D01*
X25660000Y-59599375D01*
X25660000Y-58439220D01*
X25770525Y-58604632D01*
X25977368Y-58811475D01*
X26220589Y-58973990D01*
X26490842Y-59085932D01*
X26777740Y-59143000D01*
X27070260Y-59143000D01*
X27357158Y-59085932D01*
X27627411Y-58973990D01*
X27870632Y-58811475D01*
X28077475Y-58604632D01*
X28239990Y-58361411D01*
X28320437Y-58167194D01*
X28345861Y-58251006D01*
%TA.AperFunction,Conductor*%
D26*
G36*
X28345861Y-58251006D02*
G01*
X28387924Y-58329700D01*
X28411790Y-58374350D01*
X28500515Y-58482462D01*
X28527606Y-58504695D01*
X28983600Y-58960689D01*
X28914063Y-59030226D01*
X28800795Y-59199744D01*
X28722774Y-59388102D01*
X28712061Y-59441959D01*
X28680023Y-59429271D01*
X28383000Y-59375000D01*
X27483000Y-59375000D01*
X27483000Y-60783000D01*
X27503000Y-60783000D01*
X27503000Y-61037000D01*
X27483000Y-61037000D01*
X27483000Y-62445000D01*
X27753990Y-62445000D01*
X27753990Y-62501177D01*
X27793764Y-62701136D01*
X27871785Y-62889494D01*
X27985053Y-63059012D01*
X28078990Y-63152949D01*
X28078991Y-65011110D01*
X28019419Y-65006196D01*
X27570672Y-65057600D01*
X27140576Y-65195562D01*
X26806491Y-65374133D01*
X26631475Y-65705870D01*
X28056000Y-67130395D01*
X28070143Y-67116253D01*
X28249748Y-67295858D01*
X28235605Y-67310000D01*
X28249748Y-67324143D01*
X28070143Y-67503748D01*
X28056000Y-67489605D01*
X26631475Y-68914130D01*
X26806491Y-69245867D01*
X27024107Y-69357780D01*
X27022795Y-69359744D01*
X26944774Y-69548102D01*
X26905000Y-69748061D01*
X26905000Y-69951939D01*
X26944774Y-70151898D01*
X27022795Y-70340256D01*
X27136063Y-70509774D01*
X27266014Y-70639725D01*
X27280872Y-70688704D01*
X27346800Y-70812047D01*
X27435525Y-70920159D01*
X27462617Y-70942393D01*
X28795047Y-72274823D01*
X28680023Y-72229271D01*
X28383000Y-72175000D01*
X27483000Y-72175000D01*
X27483000Y-73583000D01*
X27503000Y-73583000D01*
X27503000Y-73837000D01*
X27483000Y-73837000D01*
X27483000Y-73857000D01*
X27229000Y-73857000D01*
X27229000Y-73837000D01*
X27209000Y-73837000D01*
X27209000Y-73583000D01*
X27229000Y-73583000D01*
X27229000Y-72175000D01*
X26329000Y-72175000D01*
X26031977Y-72229271D01*
X25751249Y-72340446D01*
X25660000Y-72399375D01*
X25660000Y-67346581D01*
X25752196Y-67346581D01*
X25803600Y-67795328D01*
X25941562Y-68225424D01*
X26120133Y-68559509D01*
X26451870Y-68734525D01*
X27876395Y-67310000D01*
X26451870Y-65885475D01*
X26120133Y-66060491D01*
X25913563Y-66462168D01*
X25789326Y-66896428D01*
X25752196Y-67346581D01*
X25660000Y-67346581D01*
X25660000Y-62220625D01*
X25751249Y-62279554D01*
X26031977Y-62390729D01*
X26329000Y-62445000D01*
X27229000Y-62445000D01*
X27229000Y-61037000D01*
X27209000Y-61037000D01*
X27209000Y-60783000D01*
X27229000Y-60783000D01*
X27229000Y-59375000D01*
X26329000Y-59375000D01*
X26031977Y-59429271D01*
X25751249Y-59540446D01*
X25660000Y-59599375D01*
X25660000Y-58439220D01*
X25770525Y-58604632D01*
X25977368Y-58811475D01*
X26220589Y-58973990D01*
X26490842Y-59085932D01*
X26777740Y-59143000D01*
X27070260Y-59143000D01*
X27357158Y-59085932D01*
X27627411Y-58973990D01*
X27870632Y-58811475D01*
X28077475Y-58604632D01*
X28239990Y-58361411D01*
X28320437Y-58167194D01*
X28345861Y-58251006D01*
G37*
%TD.AperFunction*%
D25*
X47701000Y-73583000D02*
X47721000Y-73583000D01*
X47721000Y-73837000D01*
X47701000Y-73837000D01*
X47701000Y-73857000D01*
X47447000Y-73857000D01*
X47447000Y-73837000D01*
X47427000Y-73837000D01*
X47427000Y-73583000D01*
X47447000Y-73583000D01*
X47447000Y-73563000D01*
X47701000Y-73563000D01*
X47701000Y-73583000D01*
%TA.AperFunction,Conductor*%
D26*
G36*
X47701000Y-73583000D02*
G01*
X47721000Y-73583000D01*
X47721000Y-73837000D01*
X47701000Y-73837000D01*
X47701000Y-73857000D01*
X47447000Y-73857000D01*
X47447000Y-73837000D01*
X47427000Y-73837000D01*
X47427000Y-73583000D01*
X47447000Y-73583000D01*
X47447000Y-73563000D01*
X47701000Y-73563000D01*
X47701000Y-73583000D01*
G37*
%TD.AperFunction*%
D25*
X49340001Y-72444583D02*
X49178751Y-72340446D01*
X48970537Y-72257988D01*
X49001226Y-72183898D01*
X49041000Y-71983939D01*
X49041000Y-71780061D01*
X49001226Y-71580102D01*
X48923205Y-71391744D01*
X48809937Y-71222226D01*
X48665774Y-71078063D01*
X48496256Y-70964795D01*
X48307898Y-70886774D01*
X48107939Y-70847000D01*
X47904061Y-70847000D01*
X47704102Y-70886774D01*
X47515744Y-70964795D01*
X47346226Y-71078063D01*
X47252289Y-71172000D01*
X45828604Y-71172000D01*
X45875205Y-71102256D01*
X45953226Y-70913898D01*
X45993000Y-70713939D01*
X45993000Y-70510061D01*
X45953226Y-70310102D01*
X45875205Y-70121744D01*
X45761937Y-69952226D01*
X45668000Y-69858289D01*
X45668000Y-69268242D01*
X46026168Y-69452437D01*
X46460428Y-69576674D01*
X46910581Y-69613804D01*
X47359328Y-69562400D01*
X47789424Y-69424438D01*
X48123509Y-69245867D01*
X48298525Y-68914130D01*
X46874000Y-67489605D01*
X46859858Y-67503748D01*
X46680253Y-67324143D01*
X46694395Y-67310000D01*
X47053605Y-67310000D01*
X48478130Y-68734525D01*
X48809867Y-68559509D01*
X49016437Y-68157832D01*
X49140674Y-67723572D01*
X49177804Y-67273419D01*
X49126400Y-66824672D01*
X48988438Y-66394576D01*
X48809867Y-66060491D01*
X48478130Y-65885475D01*
X47053605Y-67310000D01*
X46694395Y-67310000D01*
X46680253Y-67295858D01*
X46859858Y-67116253D01*
X46874000Y-67130395D01*
X48298525Y-65705870D01*
X48177139Y-65475787D01*
X48239226Y-65325898D01*
X48279000Y-65125939D01*
X48279000Y-64993091D01*
X49340001Y-63932090D01*
X49340001Y-72444583D01*
%TA.AperFunction,Conductor*%
D26*
G36*
X49340001Y-72444583D02*
G01*
X49178751Y-72340446D01*
X48970537Y-72257988D01*
X49001226Y-72183898D01*
X49041000Y-71983939D01*
X49041000Y-71780061D01*
X49001226Y-71580102D01*
X48923205Y-71391744D01*
X48809937Y-71222226D01*
X48665774Y-71078063D01*
X48496256Y-70964795D01*
X48307898Y-70886774D01*
X48107939Y-70847000D01*
X47904061Y-70847000D01*
X47704102Y-70886774D01*
X47515744Y-70964795D01*
X47346226Y-71078063D01*
X47252289Y-71172000D01*
X45828604Y-71172000D01*
X45875205Y-71102256D01*
X45953226Y-70913898D01*
X45993000Y-70713939D01*
X45993000Y-70510061D01*
X45953226Y-70310102D01*
X45875205Y-70121744D01*
X45761937Y-69952226D01*
X45668000Y-69858289D01*
X45668000Y-69268242D01*
X46026168Y-69452437D01*
X46460428Y-69576674D01*
X46910581Y-69613804D01*
X47359328Y-69562400D01*
X47789424Y-69424438D01*
X48123509Y-69245867D01*
X48298525Y-68914130D01*
X46874000Y-67489605D01*
X46859858Y-67503748D01*
X46680253Y-67324143D01*
X46694395Y-67310000D01*
X47053605Y-67310000D01*
X48478130Y-68734525D01*
X48809867Y-68559509D01*
X49016437Y-68157832D01*
X49140674Y-67723572D01*
X49177804Y-67273419D01*
X49126400Y-66824672D01*
X48988438Y-66394576D01*
X48809867Y-66060491D01*
X48478130Y-65885475D01*
X47053605Y-67310000D01*
X46694395Y-67310000D01*
X46680253Y-67295858D01*
X46859858Y-67116253D01*
X46874000Y-67130395D01*
X48298525Y-65705870D01*
X48177139Y-65475787D01*
X48239226Y-65325898D01*
X48279000Y-65125939D01*
X48279000Y-64993091D01*
X49340001Y-63932090D01*
X49340001Y-72444583D01*
G37*
%TD.AperFunction*%
D25*
X30771000Y-71937002D02*
X30929748Y-71937002D01*
X30771000Y-72095750D01*
X30769275Y-72188000D01*
X30716406Y-72188000D01*
X30405379Y-71876973D01*
X30423965Y-71880670D01*
X30627843Y-71880670D01*
X30771000Y-71852195D01*
X30771000Y-71937002D01*
%TA.AperFunction,Conductor*%
D26*
G36*
X30771000Y-71937002D02*
G01*
X30929748Y-71937002D01*
X30771000Y-72095750D01*
X30769275Y-72188000D01*
X30716406Y-72188000D01*
X30405379Y-71876973D01*
X30423965Y-71880670D01*
X30627843Y-71880670D01*
X30771000Y-71852195D01*
X30771000Y-71937002D01*
G37*
%TD.AperFunction*%
D25*
X33283000Y-71683000D02*
X33303000Y-71683000D01*
X33303000Y-71863000D01*
X33252063Y-71863000D01*
X33052104Y-71902774D01*
X33009000Y-71920628D01*
X33009000Y-71683000D01*
X33029000Y-71683000D01*
X33029000Y-71663000D01*
X33283000Y-71663000D01*
X33283000Y-71683000D01*
%TA.AperFunction,Conductor*%
D26*
G36*
X33283000Y-71683000D02*
G01*
X33303000Y-71683000D01*
X33303000Y-71863000D01*
X33252063Y-71863000D01*
X33052104Y-71902774D01*
X33009000Y-71920628D01*
X33009000Y-71683000D01*
X33029000Y-71683000D01*
X33029000Y-71663000D01*
X33283000Y-71663000D01*
X33283000Y-71683000D01*
G37*
%TD.AperFunction*%
D25*
X29250677Y-69278411D02*
X29363945Y-69447929D01*
X29508108Y-69592092D01*
X29677626Y-69705360D01*
X29865984Y-69783381D01*
X30065943Y-69823155D01*
X30269821Y-69823155D01*
X30469780Y-69783381D01*
X30658138Y-69705360D01*
X30670147Y-69697336D01*
X30556813Y-69810670D01*
X30423965Y-69810670D01*
X30224006Y-69850444D01*
X30035648Y-69928465D01*
X29866130Y-70041733D01*
X29721967Y-70185896D01*
X29608699Y-70355414D01*
X29530678Y-70543772D01*
X29490904Y-70743731D01*
X29490904Y-70947609D01*
X29494601Y-70966195D01*
X28860561Y-70332155D01*
X28935226Y-70151898D01*
X28975000Y-69951939D01*
X28975000Y-69748061D01*
X28935226Y-69548102D01*
X28894256Y-69449191D01*
X28971424Y-69424438D01*
X29249580Y-69275762D01*
X29250677Y-69278411D01*
%TA.AperFunction,Conductor*%
D26*
G36*
X29250677Y-69278411D02*
G01*
X29363945Y-69447929D01*
X29508108Y-69592092D01*
X29677626Y-69705360D01*
X29865984Y-69783381D01*
X30065943Y-69823155D01*
X30269821Y-69823155D01*
X30469780Y-69783381D01*
X30658138Y-69705360D01*
X30670147Y-69697336D01*
X30556813Y-69810670D01*
X30423965Y-69810670D01*
X30224006Y-69850444D01*
X30035648Y-69928465D01*
X29866130Y-70041733D01*
X29721967Y-70185896D01*
X29608699Y-70355414D01*
X29530678Y-70543772D01*
X29490904Y-70743731D01*
X29490904Y-70947609D01*
X29494601Y-70966195D01*
X28860561Y-70332155D01*
X28935226Y-70151898D01*
X28975000Y-69951939D01*
X28975000Y-69748061D01*
X28935226Y-69548102D01*
X28894256Y-69449191D01*
X28971424Y-69424438D01*
X29249580Y-69275762D01*
X29250677Y-69278411D01*
G37*
%TD.AperFunction*%
D25*
X39899518Y-65685812D02*
X40024000Y-65698072D01*
X42897605Y-65698072D01*
X42779383Y-65816295D01*
X42717245Y-65816295D01*
X42517286Y-65856069D01*
X42328928Y-65934090D01*
X42159410Y-66047358D01*
X42015247Y-66191521D01*
X41901979Y-66361039D01*
X41823958Y-66549397D01*
X41784184Y-66749356D01*
X41784184Y-66953234D01*
X41823958Y-67153193D01*
X41901979Y-67341551D01*
X42015247Y-67511069D01*
X42159410Y-67655232D01*
X42328928Y-67768500D01*
X42517286Y-67846521D01*
X42717245Y-67886295D01*
X42921123Y-67886295D01*
X43121082Y-67846521D01*
X43309440Y-67768500D01*
X43478958Y-67655232D01*
X43623121Y-67511069D01*
X43736389Y-67341551D01*
X43814410Y-67153193D01*
X43848002Y-66984315D01*
X43848001Y-68416124D01*
X43844566Y-68450999D01*
X43848001Y-68485874D01*
X43848001Y-68485875D01*
X43858274Y-68590182D01*
X43898873Y-68724018D01*
X43964801Y-68847361D01*
X44053526Y-68955473D01*
X44080618Y-68977707D01*
X44248001Y-69145090D01*
X44248000Y-69858289D01*
X44162072Y-69944217D01*
X44162072Y-69560000D01*
X44149812Y-69435518D01*
X44113502Y-69315820D01*
X44054537Y-69205506D01*
X43975185Y-69108815D01*
X43878494Y-69029463D01*
X43768180Y-68970498D01*
X43648482Y-68934188D01*
X43524000Y-68921928D01*
X40024000Y-68921928D01*
X39899518Y-68934188D01*
X39824911Y-68956820D01*
X39683989Y-68815898D01*
X39683989Y-66929271D01*
X39777926Y-66835334D01*
X39891194Y-66665816D01*
X39969215Y-66477458D01*
X40008989Y-66277499D01*
X40008989Y-66073621D01*
X39969215Y-65873662D01*
X39891194Y-65685304D01*
X39889504Y-65682774D01*
X39899518Y-65685812D01*
%TA.AperFunction,Conductor*%
D26*
G36*
X39899518Y-65685812D02*
G01*
X40024000Y-65698072D01*
X42897605Y-65698072D01*
X42779383Y-65816295D01*
X42717245Y-65816295D01*
X42517286Y-65856069D01*
X42328928Y-65934090D01*
X42159410Y-66047358D01*
X42015247Y-66191521D01*
X41901979Y-66361039D01*
X41823958Y-66549397D01*
X41784184Y-66749356D01*
X41784184Y-66953234D01*
X41823958Y-67153193D01*
X41901979Y-67341551D01*
X42015247Y-67511069D01*
X42159410Y-67655232D01*
X42328928Y-67768500D01*
X42517286Y-67846521D01*
X42717245Y-67886295D01*
X42921123Y-67886295D01*
X43121082Y-67846521D01*
X43309440Y-67768500D01*
X43478958Y-67655232D01*
X43623121Y-67511069D01*
X43736389Y-67341551D01*
X43814410Y-67153193D01*
X43848002Y-66984315D01*
X43848001Y-68416124D01*
X43844566Y-68450999D01*
X43848001Y-68485874D01*
X43848001Y-68485875D01*
X43858274Y-68590182D01*
X43898873Y-68724018D01*
X43964801Y-68847361D01*
X44053526Y-68955473D01*
X44080618Y-68977707D01*
X44248001Y-69145090D01*
X44248000Y-69858289D01*
X44162072Y-69944217D01*
X44162072Y-69560000D01*
X44149812Y-69435518D01*
X44113502Y-69315820D01*
X44054537Y-69205506D01*
X43975185Y-69108815D01*
X43878494Y-69029463D01*
X43768180Y-68970498D01*
X43648482Y-68934188D01*
X43524000Y-68921928D01*
X40024000Y-68921928D01*
X39899518Y-68934188D01*
X39824911Y-68956820D01*
X39683989Y-68815898D01*
X39683989Y-66929271D01*
X39777926Y-66835334D01*
X39891194Y-66665816D01*
X39969215Y-66477458D01*
X40008989Y-66277499D01*
X40008989Y-66073621D01*
X39969215Y-65873662D01*
X39891194Y-65685304D01*
X39889504Y-65682774D01*
X39899518Y-65685812D01*
G37*
%TD.AperFunction*%
D25*
X32644998Y-66771984D02*
X32616000Y-66795782D01*
X32592202Y-66824780D01*
X32592201Y-66824781D01*
X32521026Y-66911507D01*
X32450454Y-67043537D01*
X32424107Y-67130395D01*
X32417192Y-67153193D01*
X32406998Y-67186798D01*
X32392324Y-67335783D01*
X32396001Y-67373115D01*
X32396000Y-68921928D01*
X31406000Y-68921928D01*
X31281518Y-68934188D01*
X31188499Y-68962405D01*
X31202882Y-68890094D01*
X31202882Y-68686216D01*
X31163108Y-68486257D01*
X31085087Y-68297899D01*
X30971819Y-68128381D01*
X30925930Y-68082492D01*
X31072111Y-68082492D01*
X31272070Y-68042718D01*
X31460428Y-67964697D01*
X31629946Y-67851429D01*
X31774109Y-67707266D01*
X31887377Y-67537748D01*
X31965398Y-67349390D01*
X32005172Y-67149431D01*
X32005172Y-66945553D01*
X31965398Y-66745594D01*
X31887377Y-66557236D01*
X31774109Y-66387718D01*
X31685051Y-66298660D01*
X31791937Y-66191774D01*
X31905205Y-66022256D01*
X31983226Y-65833898D01*
X32010243Y-65698072D01*
X33718910Y-65698072D01*
X32644998Y-66771984D01*
%TA.AperFunction,Conductor*%
D26*
G36*
X32644998Y-66771984D02*
G01*
X32616000Y-66795782D01*
X32592202Y-66824780D01*
X32592201Y-66824781D01*
X32521026Y-66911507D01*
X32450454Y-67043537D01*
X32424107Y-67130395D01*
X32417192Y-67153193D01*
X32406998Y-67186798D01*
X32392324Y-67335783D01*
X32396001Y-67373115D01*
X32396000Y-68921928D01*
X31406000Y-68921928D01*
X31281518Y-68934188D01*
X31188499Y-68962405D01*
X31202882Y-68890094D01*
X31202882Y-68686216D01*
X31163108Y-68486257D01*
X31085087Y-68297899D01*
X30971819Y-68128381D01*
X30925930Y-68082492D01*
X31072111Y-68082492D01*
X31272070Y-68042718D01*
X31460428Y-67964697D01*
X31629946Y-67851429D01*
X31774109Y-67707266D01*
X31887377Y-67537748D01*
X31965398Y-67349390D01*
X32005172Y-67149431D01*
X32005172Y-66945553D01*
X31965398Y-66745594D01*
X31887377Y-66557236D01*
X31774109Y-66387718D01*
X31685051Y-66298660D01*
X31791937Y-66191774D01*
X31905205Y-66022256D01*
X31983226Y-65833898D01*
X32010243Y-65698072D01*
X33718910Y-65698072D01*
X32644998Y-66771984D01*
G37*
%TD.AperFunction*%
D25*
X34617096Y-68921928D02*
X33916000Y-68921928D01*
X33916000Y-67650584D01*
X34617097Y-66949488D01*
X34617096Y-68921928D01*
%TA.AperFunction,Conductor*%
D26*
G36*
X34617096Y-68921928D02*
G01*
X33916000Y-68921928D01*
X33916000Y-67650584D01*
X34617097Y-66949488D01*
X34617096Y-68921928D01*
G37*
%TD.AperFunction*%
D25*
X48939011Y-59445503D02*
X48898023Y-59429271D01*
X48601000Y-59375000D01*
X47701000Y-59375000D01*
X47701000Y-60783000D01*
X47721000Y-60783000D01*
X47721000Y-61037000D01*
X47701000Y-61037000D01*
X47701000Y-62445000D01*
X48601000Y-62445000D01*
X48867626Y-62396283D01*
X47274909Y-63989000D01*
X47142061Y-63989000D01*
X46942102Y-64028774D01*
X46853880Y-64065317D01*
X46816968Y-63976203D01*
X46703700Y-63806685D01*
X46559537Y-63662522D01*
X46390019Y-63549254D01*
X46208990Y-63474269D01*
X46208990Y-62374497D01*
X46249977Y-62390729D01*
X46547000Y-62445000D01*
X47447000Y-62445000D01*
X47447000Y-61037000D01*
X47427000Y-61037000D01*
X47427000Y-60783000D01*
X47447000Y-60783000D01*
X47447000Y-59375000D01*
X47399802Y-59375000D01*
X47633592Y-59141210D01*
X47853740Y-59185000D01*
X48146260Y-59185000D01*
X48433158Y-59127932D01*
X48703411Y-59015990D01*
X48939011Y-58858567D01*
X48939011Y-59445503D01*
%TA.AperFunction,Conductor*%
D26*
G36*
X48939011Y-59445503D02*
G01*
X48898023Y-59429271D01*
X48601000Y-59375000D01*
X47701000Y-59375000D01*
X47701000Y-60783000D01*
X47721000Y-60783000D01*
X47721000Y-61037000D01*
X47701000Y-61037000D01*
X47701000Y-62445000D01*
X48601000Y-62445000D01*
X48867626Y-62396283D01*
X47274909Y-63989000D01*
X47142061Y-63989000D01*
X46942102Y-64028774D01*
X46853880Y-64065317D01*
X46816968Y-63976203D01*
X46703700Y-63806685D01*
X46559537Y-63662522D01*
X46390019Y-63549254D01*
X46208990Y-63474269D01*
X46208990Y-62374497D01*
X46249977Y-62390729D01*
X46547000Y-62445000D01*
X47447000Y-62445000D01*
X47447000Y-61037000D01*
X47427000Y-61037000D01*
X47427000Y-60783000D01*
X47447000Y-60783000D01*
X47447000Y-59375000D01*
X47399802Y-59375000D01*
X47633592Y-59141210D01*
X47853740Y-59185000D01*
X48146260Y-59185000D01*
X48433158Y-59127932D01*
X48703411Y-59015990D01*
X48939011Y-58858567D01*
X48939011Y-59445503D01*
G37*
%TD.AperFunction*%
D25*
X42640013Y-60255322D02*
X42591445Y-60346186D01*
X42569441Y-60387352D01*
X42525984Y-60530613D01*
X42514987Y-60642266D01*
X42514987Y-60642276D01*
X42511311Y-60679598D01*
X42514987Y-60716920D01*
X42514987Y-61488663D01*
X42511311Y-61525985D01*
X42514987Y-61563307D01*
X42514987Y-61563318D01*
X42525985Y-61674971D01*
X42530186Y-61688821D01*
X42540855Y-61723991D01*
X42059750Y-61725000D01*
X41901000Y-61883750D01*
X41901000Y-62683000D01*
X41921000Y-62683000D01*
X41921000Y-62937000D01*
X41901000Y-62937000D01*
X41901000Y-62957000D01*
X41647000Y-62957000D01*
X41647000Y-62937000D01*
X41627000Y-62937000D01*
X41627000Y-62683000D01*
X41647000Y-62683000D01*
X41647000Y-61883750D01*
X41488250Y-61725000D01*
X41168760Y-61724330D01*
X42650289Y-60242800D01*
X42640013Y-60255322D01*
%TA.AperFunction,Conductor*%
D26*
G36*
X42640013Y-60255322D02*
G01*
X42591445Y-60346186D01*
X42569441Y-60387352D01*
X42525984Y-60530613D01*
X42514987Y-60642266D01*
X42514987Y-60642276D01*
X42511311Y-60679598D01*
X42514987Y-60716920D01*
X42514987Y-61488663D01*
X42511311Y-61525985D01*
X42514987Y-61563307D01*
X42514987Y-61563318D01*
X42525985Y-61674971D01*
X42530186Y-61688821D01*
X42540855Y-61723991D01*
X42059750Y-61725000D01*
X41901000Y-61883750D01*
X41901000Y-62683000D01*
X41921000Y-62683000D01*
X41921000Y-62937000D01*
X41901000Y-62937000D01*
X41901000Y-62957000D01*
X41647000Y-62957000D01*
X41647000Y-62937000D01*
X41627000Y-62937000D01*
X41627000Y-62683000D01*
X41647000Y-62683000D01*
X41647000Y-61883750D01*
X41488250Y-61725000D01*
X41168760Y-61724330D01*
X42650289Y-60242800D01*
X42640013Y-60255322D01*
G37*
%TD.AperFunction*%
D25*
X40166369Y-58320608D02*
X38903510Y-59583467D01*
X38926129Y-59541150D01*
X38966728Y-59407314D01*
X38977001Y-59303007D01*
X38977001Y-59303006D01*
X38980436Y-59268131D01*
X38977001Y-59233256D01*
X38977001Y-47098932D01*
X39071510Y-47098932D01*
X39271469Y-47059158D01*
X39459827Y-46981137D01*
X39629345Y-46867869D01*
X39773508Y-46723706D01*
X39886776Y-46554188D01*
X39964797Y-46365830D01*
X39965400Y-46362801D01*
X40057978Y-46344386D01*
X40166368Y-46299489D01*
X40166369Y-58320608D01*
%TA.AperFunction,Conductor*%
D26*
G36*
X40166369Y-58320608D02*
G01*
X38903510Y-59583467D01*
X38926129Y-59541150D01*
X38966728Y-59407314D01*
X38977001Y-59303007D01*
X38977001Y-59303006D01*
X38980436Y-59268131D01*
X38977001Y-59233256D01*
X38977001Y-47098932D01*
X39071510Y-47098932D01*
X39271469Y-47059158D01*
X39459827Y-46981137D01*
X39629345Y-46867869D01*
X39773508Y-46723706D01*
X39886776Y-46554188D01*
X39964797Y-46365830D01*
X39965400Y-46362801D01*
X40057978Y-46344386D01*
X40166368Y-46299489D01*
X40166369Y-58320608D01*
G37*
%TD.AperFunction*%
D25*
X47762176Y-42193624D02*
X47886388Y-42379520D01*
X48044480Y-42537612D01*
X48230376Y-42661824D01*
X48436933Y-42747383D01*
X48656212Y-42791000D01*
X48879788Y-42791000D01*
X49099067Y-42747383D01*
X49305624Y-42661824D01*
X49340000Y-42638854D01*
X49340000Y-43746112D01*
X49301185Y-43698815D01*
X49204494Y-43619463D01*
X49094180Y-43560498D01*
X48974482Y-43524188D01*
X48850000Y-43511928D01*
X48285750Y-43515000D01*
X48127000Y-43673750D01*
X48127000Y-44873000D01*
X48147000Y-44873000D01*
X48147000Y-45127000D01*
X48127000Y-45127000D01*
X48127000Y-45147000D01*
X47873000Y-45147000D01*
X47873000Y-45127000D01*
X46673750Y-45127000D01*
X46515000Y-45285750D01*
X46511928Y-45850000D01*
X46524188Y-45974482D01*
X46560498Y-46094180D01*
X46619463Y-46204494D01*
X46698815Y-46301185D01*
X46795506Y-46380537D01*
X46905820Y-46439502D01*
X46978380Y-46461513D01*
X46846525Y-46593368D01*
X46684010Y-46836589D01*
X46572068Y-47106842D01*
X46515000Y-47393740D01*
X46515000Y-47686260D01*
X46572068Y-47973158D01*
X46684010Y-48243411D01*
X46846525Y-48486632D01*
X47053368Y-48693475D01*
X47227760Y-48810000D01*
X47053368Y-48926525D01*
X46846525Y-49133368D01*
X46684010Y-49376589D01*
X46572068Y-49646842D01*
X46515000Y-49933740D01*
X46515000Y-50226260D01*
X46572068Y-50513158D01*
X46684010Y-50783411D01*
X46846525Y-51026632D01*
X47053368Y-51233475D01*
X47227760Y-51350000D01*
X47053368Y-51466525D01*
X46846525Y-51673368D01*
X46684010Y-51916589D01*
X46572068Y-52186842D01*
X46515000Y-52473740D01*
X46515000Y-52766260D01*
X46558790Y-52986408D01*
X44847014Y-54698185D01*
X44818010Y-54721988D01*
X44785103Y-54762086D01*
X44723037Y-54837713D01*
X44690344Y-54898877D01*
X44652465Y-54969743D01*
X44609008Y-55113004D01*
X44598011Y-55224657D01*
X44598011Y-55224667D01*
X44594335Y-55261989D01*
X44598011Y-55299312D01*
X44598012Y-58281771D01*
X43767605Y-59112178D01*
X43773200Y-59105361D01*
X43839128Y-58982018D01*
X43879727Y-58848182D01*
X43890000Y-58743875D01*
X43890000Y-58743874D01*
X43893435Y-58708999D01*
X43890000Y-58674124D01*
X43890000Y-45506091D01*
X45246091Y-44150000D01*
X46511928Y-44150000D01*
X46515000Y-44714250D01*
X46673750Y-44873000D01*
X47873000Y-44873000D01*
X47873000Y-43673750D01*
X47714250Y-43515000D01*
X47150000Y-43511928D01*
X47025518Y-43524188D01*
X46905820Y-43560498D01*
X46795506Y-43619463D01*
X46698815Y-43698815D01*
X46619463Y-43795506D01*
X46560498Y-43905820D01*
X46524188Y-44025518D01*
X46511928Y-44150000D01*
X45246091Y-44150000D01*
X45689092Y-43707000D01*
X45821939Y-43707000D01*
X46021898Y-43667226D01*
X46210256Y-43589205D01*
X46379774Y-43475937D01*
X46523937Y-43331774D01*
X46637205Y-43162256D01*
X46715226Y-42973898D01*
X46751606Y-42791000D01*
X46847788Y-42791000D01*
X47067067Y-42747383D01*
X47273624Y-42661824D01*
X47459520Y-42537612D01*
X47617612Y-42379520D01*
X47741824Y-42193624D01*
X47752000Y-42169057D01*
X47762176Y-42193624D01*
%TA.AperFunction,Conductor*%
D26*
G36*
X47762176Y-42193624D02*
G01*
X47886388Y-42379520D01*
X48044480Y-42537612D01*
X48230376Y-42661824D01*
X48436933Y-42747383D01*
X48656212Y-42791000D01*
X48879788Y-42791000D01*
X49099067Y-42747383D01*
X49305624Y-42661824D01*
X49340000Y-42638854D01*
X49340000Y-43746112D01*
X49301185Y-43698815D01*
X49204494Y-43619463D01*
X49094180Y-43560498D01*
X48974482Y-43524188D01*
X48850000Y-43511928D01*
X48285750Y-43515000D01*
X48127000Y-43673750D01*
X48127000Y-44873000D01*
X48147000Y-44873000D01*
X48147000Y-45127000D01*
X48127000Y-45127000D01*
X48127000Y-45147000D01*
X47873000Y-45147000D01*
X47873000Y-45127000D01*
X46673750Y-45127000D01*
X46515000Y-45285750D01*
X46511928Y-45850000D01*
X46524188Y-45974482D01*
X46560498Y-46094180D01*
X46619463Y-46204494D01*
X46698815Y-46301185D01*
X46795506Y-46380537D01*
X46905820Y-46439502D01*
X46978380Y-46461513D01*
X46846525Y-46593368D01*
X46684010Y-46836589D01*
X46572068Y-47106842D01*
X46515000Y-47393740D01*
X46515000Y-47686260D01*
X46572068Y-47973158D01*
X46684010Y-48243411D01*
X46846525Y-48486632D01*
X47053368Y-48693475D01*
X47227760Y-48810000D01*
X47053368Y-48926525D01*
X46846525Y-49133368D01*
X46684010Y-49376589D01*
X46572068Y-49646842D01*
X46515000Y-49933740D01*
X46515000Y-50226260D01*
X46572068Y-50513158D01*
X46684010Y-50783411D01*
X46846525Y-51026632D01*
X47053368Y-51233475D01*
X47227760Y-51350000D01*
X47053368Y-51466525D01*
X46846525Y-51673368D01*
X46684010Y-51916589D01*
X46572068Y-52186842D01*
X46515000Y-52473740D01*
X46515000Y-52766260D01*
X46558790Y-52986408D01*
X44847014Y-54698185D01*
X44818010Y-54721988D01*
X44785103Y-54762086D01*
X44723037Y-54837713D01*
X44690344Y-54898877D01*
X44652465Y-54969743D01*
X44609008Y-55113004D01*
X44598011Y-55224657D01*
X44598011Y-55224667D01*
X44594335Y-55261989D01*
X44598011Y-55299312D01*
X44598012Y-58281771D01*
X43767605Y-59112178D01*
X43773200Y-59105361D01*
X43839128Y-58982018D01*
X43879727Y-58848182D01*
X43890000Y-58743875D01*
X43890000Y-58743874D01*
X43893435Y-58708999D01*
X43890000Y-58674124D01*
X43890000Y-45506091D01*
X45246091Y-44150000D01*
X46511928Y-44150000D01*
X46515000Y-44714250D01*
X46673750Y-44873000D01*
X47873000Y-44873000D01*
X47873000Y-43673750D01*
X47714250Y-43515000D01*
X47150000Y-43511928D01*
X47025518Y-43524188D01*
X46905820Y-43560498D01*
X46795506Y-43619463D01*
X46698815Y-43698815D01*
X46619463Y-43795506D01*
X46560498Y-43905820D01*
X46524188Y-44025518D01*
X46511928Y-44150000D01*
X45246091Y-44150000D01*
X45689092Y-43707000D01*
X45821939Y-43707000D01*
X46021898Y-43667226D01*
X46210256Y-43589205D01*
X46379774Y-43475937D01*
X46523937Y-43331774D01*
X46637205Y-43162256D01*
X46715226Y-42973898D01*
X46751606Y-42791000D01*
X46847788Y-42791000D01*
X47067067Y-42747383D01*
X47273624Y-42661824D01*
X47459520Y-42537612D01*
X47617612Y-42379520D01*
X47741824Y-42193624D01*
X47752000Y-42169057D01*
X47762176Y-42193624D01*
G37*
%TD.AperFunction*%
D25*
X33147000Y-56007000D02*
X33167000Y-56007000D01*
X33167000Y-56261000D01*
X33147000Y-56261000D01*
X33147000Y-56281000D01*
X32893000Y-56281000D01*
X32893000Y-56261000D01*
X32873000Y-56261000D01*
X32873000Y-56007000D01*
X32893000Y-56007000D01*
X32893000Y-55987000D01*
X33147000Y-55987000D01*
X33147000Y-56007000D01*
%TA.AperFunction,Conductor*%
D26*
G36*
X33147000Y-56007000D02*
G01*
X33167000Y-56007000D01*
X33167000Y-56261000D01*
X33147000Y-56261000D01*
X33147000Y-56281000D01*
X32893000Y-56281000D01*
X32893000Y-56261000D01*
X32873000Y-56261000D01*
X32873000Y-56007000D01*
X32893000Y-56007000D01*
X32893000Y-55987000D01*
X33147000Y-55987000D01*
X33147000Y-56007000D01*
G37*
%TD.AperFunction*%
D25*
X33136345Y-25701953D02*
X32820786Y-25857962D01*
X32629980Y-26232745D01*
X32515956Y-26637551D01*
X32483098Y-27056824D01*
X32532666Y-27474451D01*
X32662757Y-27874383D01*
X32820786Y-28170038D01*
X33136347Y-28326048D01*
X34448395Y-27014000D01*
X34434253Y-26999858D01*
X34613858Y-26820253D01*
X34628000Y-26834395D01*
X34642143Y-26820253D01*
X34821748Y-26999858D01*
X34807605Y-27014000D01*
X36119653Y-28326048D01*
X36435214Y-28170038D01*
X36626020Y-27795255D01*
X36695782Y-27547587D01*
X42787192Y-27547587D01*
X43743000Y-28503395D01*
X44698808Y-27547587D01*
X46237192Y-27547587D01*
X47193000Y-28503395D01*
X48148808Y-27547587D01*
X48053044Y-27283186D01*
X47763429Y-27142296D01*
X47451892Y-27060616D01*
X47130405Y-27041282D01*
X46811325Y-27085039D01*
X46506912Y-27190205D01*
X46332956Y-27283186D01*
X46237192Y-27547587D01*
X44698808Y-27547587D01*
X44603044Y-27283186D01*
X44313429Y-27142296D01*
X44001892Y-27060616D01*
X43680405Y-27041282D01*
X43361325Y-27085039D01*
X43056912Y-27190205D01*
X42882956Y-27283186D01*
X42787192Y-27547587D01*
X36695782Y-27547587D01*
X36740044Y-27390449D01*
X36772902Y-26971176D01*
X36723334Y-26553549D01*
X36593243Y-26153617D01*
X36435214Y-25857962D01*
X36119655Y-25701953D01*
X36161608Y-25660000D01*
X49340000Y-25660000D01*
X49340000Y-32139484D01*
X49265083Y-31958619D01*
X49151815Y-31789101D01*
X49007652Y-31644938D01*
X48838134Y-31531670D01*
X48649776Y-31453649D01*
X48449817Y-31413875D01*
X48245939Y-31413875D01*
X48045980Y-31453649D01*
X47905838Y-31511698D01*
X47793937Y-31344226D01*
X47649774Y-31200063D01*
X47480256Y-31086795D01*
X47291898Y-31008774D01*
X47091939Y-30969000D01*
X46904677Y-30969000D01*
X46867020Y-30948872D01*
X46733184Y-30908273D01*
X46628877Y-30898000D01*
X46628875Y-30898000D01*
X46594000Y-30894565D01*
X46559125Y-30898000D01*
X45780645Y-30898000D01*
X45808681Y-30869964D01*
X45913741Y-30712731D01*
X45986108Y-30538022D01*
X46023000Y-30352552D01*
X46023000Y-30163448D01*
X45986108Y-29977978D01*
X45920014Y-29818413D01*
X46237192Y-29818413D01*
X46332956Y-30082814D01*
X46622571Y-30223704D01*
X46934108Y-30305384D01*
X47255595Y-30324718D01*
X47574675Y-30280961D01*
X47879088Y-30175795D01*
X48053044Y-30082814D01*
X48148808Y-29818413D01*
X47193000Y-28862605D01*
X46237192Y-29818413D01*
X45920014Y-29818413D01*
X45913741Y-29803269D01*
X45808681Y-29646036D01*
X45674964Y-29512319D01*
X45517731Y-29407259D01*
X45343022Y-29334892D01*
X45252804Y-29316947D01*
X45283704Y-29253429D01*
X45365384Y-28941892D01*
X45377189Y-28745595D01*
X45551282Y-28745595D01*
X45595039Y-29064675D01*
X45700205Y-29369088D01*
X45793186Y-29543044D01*
X46057587Y-29638808D01*
X47013395Y-28683000D01*
X47372605Y-28683000D01*
X48328413Y-29638808D01*
X48592814Y-29543044D01*
X48733704Y-29253429D01*
X48815384Y-28941892D01*
X48834718Y-28620405D01*
X48790961Y-28301325D01*
X48685795Y-27996912D01*
X48592814Y-27822956D01*
X48328413Y-27727192D01*
X47372605Y-28683000D01*
X47013395Y-28683000D01*
X46057587Y-27727192D01*
X45793186Y-27822956D01*
X45652296Y-28112571D01*
X45570616Y-28424108D01*
X45551282Y-28745595D01*
X45377189Y-28745595D01*
X45384718Y-28620405D01*
X45340961Y-28301325D01*
X45235795Y-27996912D01*
X45142814Y-27822956D01*
X44878413Y-27727192D01*
X43922605Y-28683000D01*
X43936748Y-28697143D01*
X43757143Y-28876748D01*
X43743000Y-28862605D01*
X42787192Y-29818413D01*
X42882956Y-30082814D01*
X42965563Y-30123000D01*
X38772819Y-30123000D01*
X38778217Y-30013488D01*
X38736787Y-29733870D01*
X38641603Y-29467708D01*
X38574671Y-29342486D01*
X38330702Y-29270903D01*
X37517605Y-30084000D01*
X37531748Y-30098143D01*
X37352143Y-30277748D01*
X37338000Y-30263605D01*
X37323858Y-30277748D01*
X37144253Y-30098143D01*
X37158395Y-30084000D01*
X36345298Y-29270903D01*
X36101329Y-29342486D01*
X35980429Y-29597996D01*
X35911700Y-29872184D01*
X35897783Y-30154512D01*
X35939213Y-30434130D01*
X36034397Y-30700292D01*
X36101329Y-30825514D01*
X36130930Y-30834199D01*
X34013051Y-32952080D01*
X33721407Y-32952080D01*
X33680399Y-32948041D01*
X33639391Y-32952080D01*
X33639381Y-32952080D01*
X33516711Y-32964162D01*
X33359313Y-33011908D01*
X33322697Y-33031480D01*
X33299061Y-33031480D01*
X33099102Y-33071254D01*
X32910744Y-33149275D01*
X32741226Y-33262543D01*
X32597063Y-33406706D01*
X32539467Y-33492905D01*
X32488276Y-33397134D01*
X32470588Y-33375581D01*
X32383931Y-33269989D01*
X32352066Y-33243839D01*
X31372013Y-32263785D01*
X31343146Y-32118662D01*
X31265125Y-31930304D01*
X31151857Y-31760786D01*
X31007694Y-31616623D01*
X30838176Y-31503355D01*
X30649818Y-31425334D01*
X30449859Y-31385560D01*
X30245981Y-31385560D01*
X30046022Y-31425334D01*
X29857664Y-31503355D01*
X29688146Y-31616623D01*
X29543983Y-31760786D01*
X29430715Y-31930304D01*
X29352694Y-32118662D01*
X29312920Y-32318621D01*
X29312920Y-32522499D01*
X29352694Y-32722458D01*
X29430715Y-32910816D01*
X29543983Y-33080334D01*
X29688146Y-33224497D01*
X29857664Y-33337765D01*
X30046022Y-33415786D01*
X30191145Y-33444653D01*
X30955641Y-34209148D01*
X30955641Y-34311714D01*
X30873435Y-34434744D01*
X30795414Y-34623102D01*
X30766547Y-34768225D01*
X30642577Y-34892196D01*
X30610708Y-34918350D01*
X30521592Y-35026939D01*
X30506363Y-35045496D01*
X30428827Y-35190555D01*
X30381081Y-35347953D01*
X30364959Y-35511641D01*
X30368999Y-35552660D01*
X30369000Y-41449763D01*
X30364959Y-41490791D01*
X30381081Y-41654479D01*
X30428827Y-41811877D01*
X30506363Y-41956936D01*
X30518951Y-41972274D01*
X30610709Y-42084082D01*
X30642572Y-42110231D01*
X30763095Y-42230755D01*
X30791962Y-42375878D01*
X30869983Y-42564236D01*
X30983251Y-42733754D01*
X31127414Y-42877917D01*
X31296932Y-42991185D01*
X31485290Y-43069206D01*
X31630413Y-43098073D01*
X33003796Y-44471456D01*
X33029946Y-44503320D01*
X33157091Y-44607665D01*
X33302150Y-44685201D01*
X33459548Y-44732947D01*
X33582218Y-44745029D01*
X33582228Y-44745029D01*
X33623236Y-44749068D01*
X33664244Y-44745029D01*
X35262419Y-44745029D01*
X35262419Y-47006708D01*
X35203774Y-46948063D01*
X35034256Y-46834795D01*
X34845898Y-46756774D01*
X34645939Y-46717000D01*
X34442061Y-46717000D01*
X34242102Y-46756774D01*
X34053744Y-46834795D01*
X33884226Y-46948063D01*
X33740063Y-47092226D01*
X33626795Y-47261744D01*
X33548774Y-47450102D01*
X33509000Y-47650061D01*
X33509000Y-47853939D01*
X33548774Y-48053898D01*
X33626795Y-48242256D01*
X33740063Y-48411774D01*
X33884226Y-48555937D01*
X34053744Y-48669205D01*
X34184011Y-48723164D01*
X34184011Y-50123137D01*
X34173475Y-50107368D01*
X33966632Y-49900525D01*
X33723411Y-49738010D01*
X33453158Y-49626068D01*
X33166260Y-49569000D01*
X32873740Y-49569000D01*
X32586842Y-49626068D01*
X32316589Y-49738010D01*
X32073368Y-49900525D01*
X31941513Y-50032380D01*
X31919502Y-49959820D01*
X31860537Y-49849506D01*
X31781185Y-49752815D01*
X31684494Y-49673463D01*
X31574180Y-49614498D01*
X31454482Y-49578188D01*
X31330000Y-49565928D01*
X29630000Y-49565928D01*
X29505518Y-49578188D01*
X29385820Y-49614498D01*
X29275506Y-49673463D01*
X29178815Y-49752815D01*
X29099463Y-49849506D01*
X29040498Y-49959820D01*
X29004188Y-50079518D01*
X28991928Y-50204000D01*
X28991928Y-51537981D01*
X28527606Y-52002303D01*
X28500514Y-52024537D01*
X28411789Y-52132649D01*
X28345861Y-52255992D01*
X28305262Y-52389828D01*
X28295051Y-52493502D01*
X28291554Y-52529011D01*
X28294989Y-52563886D01*
X28294989Y-53901872D01*
X28225185Y-53816815D01*
X28128494Y-53737463D01*
X28018180Y-53678498D01*
X27898482Y-53642188D01*
X27774000Y-53629928D01*
X27209750Y-53633000D01*
X27051000Y-53791750D01*
X27051000Y-54991000D01*
X27071000Y-54991000D01*
X27071000Y-55245000D01*
X27051000Y-55245000D01*
X27051000Y-55265000D01*
X26797000Y-55265000D01*
X26797000Y-55245000D01*
X26777000Y-55245000D01*
X26777000Y-54991000D01*
X26797000Y-54991000D01*
X26797000Y-53791750D01*
X26638250Y-53633000D01*
X26074000Y-53629928D01*
X25949518Y-53642188D01*
X25829820Y-53678498D01*
X25719506Y-53737463D01*
X25660000Y-53786298D01*
X25660000Y-28505653D01*
X33315952Y-28505653D01*
X33471962Y-28821214D01*
X33846745Y-29012020D01*
X34251551Y-29126044D01*
X34670824Y-29158902D01*
X35088451Y-29109334D01*
X35143898Y-29091298D01*
X36524903Y-29091298D01*
X37338000Y-29904395D01*
X38151097Y-29091298D01*
X38079514Y-28847329D01*
X37864510Y-28745595D01*
X42101282Y-28745595D01*
X42145039Y-29064675D01*
X42250205Y-29369088D01*
X42343186Y-29543044D01*
X42607587Y-29638808D01*
X43563395Y-28683000D01*
X42607587Y-27727192D01*
X42343186Y-27822956D01*
X42202296Y-28112571D01*
X42120616Y-28424108D01*
X42101282Y-28745595D01*
X37864510Y-28745595D01*
X37824004Y-28726429D01*
X37549816Y-28657700D01*
X37267488Y-28643783D01*
X36987870Y-28685213D01*
X36721708Y-28780397D01*
X36596486Y-28847329D01*
X36524903Y-29091298D01*
X35143898Y-29091298D01*
X35488383Y-28979243D01*
X35784038Y-28821214D01*
X35940048Y-28505653D01*
X34628000Y-27193605D01*
X33315952Y-28505653D01*
X25660000Y-28505653D01*
X25660000Y-25660000D01*
X33094392Y-25660000D01*
X33136345Y-25701953D01*
%TA.AperFunction,Conductor*%
D26*
G36*
X33136345Y-25701953D02*
G01*
X32820786Y-25857962D01*
X32629980Y-26232745D01*
X32515956Y-26637551D01*
X32483098Y-27056824D01*
X32532666Y-27474451D01*
X32662757Y-27874383D01*
X32820786Y-28170038D01*
X33136347Y-28326048D01*
X34448395Y-27014000D01*
X34434253Y-26999858D01*
X34613858Y-26820253D01*
X34628000Y-26834395D01*
X34642143Y-26820253D01*
X34821748Y-26999858D01*
X34807605Y-27014000D01*
X36119653Y-28326048D01*
X36435214Y-28170038D01*
X36626020Y-27795255D01*
X36695782Y-27547587D01*
X42787192Y-27547587D01*
X43743000Y-28503395D01*
X44698808Y-27547587D01*
X46237192Y-27547587D01*
X47193000Y-28503395D01*
X48148808Y-27547587D01*
X48053044Y-27283186D01*
X47763429Y-27142296D01*
X47451892Y-27060616D01*
X47130405Y-27041282D01*
X46811325Y-27085039D01*
X46506912Y-27190205D01*
X46332956Y-27283186D01*
X46237192Y-27547587D01*
X44698808Y-27547587D01*
X44603044Y-27283186D01*
X44313429Y-27142296D01*
X44001892Y-27060616D01*
X43680405Y-27041282D01*
X43361325Y-27085039D01*
X43056912Y-27190205D01*
X42882956Y-27283186D01*
X42787192Y-27547587D01*
X36695782Y-27547587D01*
X36740044Y-27390449D01*
X36772902Y-26971176D01*
X36723334Y-26553549D01*
X36593243Y-26153617D01*
X36435214Y-25857962D01*
X36119655Y-25701953D01*
X36161608Y-25660000D01*
X49340000Y-25660000D01*
X49340000Y-32139484D01*
X49265083Y-31958619D01*
X49151815Y-31789101D01*
X49007652Y-31644938D01*
X48838134Y-31531670D01*
X48649776Y-31453649D01*
X48449817Y-31413875D01*
X48245939Y-31413875D01*
X48045980Y-31453649D01*
X47905838Y-31511698D01*
X47793937Y-31344226D01*
X47649774Y-31200063D01*
X47480256Y-31086795D01*
X47291898Y-31008774D01*
X47091939Y-30969000D01*
X46904677Y-30969000D01*
X46867020Y-30948872D01*
X46733184Y-30908273D01*
X46628877Y-30898000D01*
X46628875Y-30898000D01*
X46594000Y-30894565D01*
X46559125Y-30898000D01*
X45780645Y-30898000D01*
X45808681Y-30869964D01*
X45913741Y-30712731D01*
X45986108Y-30538022D01*
X46023000Y-30352552D01*
X46023000Y-30163448D01*
X45986108Y-29977978D01*
X45920014Y-29818413D01*
X46237192Y-29818413D01*
X46332956Y-30082814D01*
X46622571Y-30223704D01*
X46934108Y-30305384D01*
X47255595Y-30324718D01*
X47574675Y-30280961D01*
X47879088Y-30175795D01*
X48053044Y-30082814D01*
X48148808Y-29818413D01*
X47193000Y-28862605D01*
X46237192Y-29818413D01*
X45920014Y-29818413D01*
X45913741Y-29803269D01*
X45808681Y-29646036D01*
X45674964Y-29512319D01*
X45517731Y-29407259D01*
X45343022Y-29334892D01*
X45252804Y-29316947D01*
X45283704Y-29253429D01*
X45365384Y-28941892D01*
X45377189Y-28745595D01*
X45551282Y-28745595D01*
X45595039Y-29064675D01*
X45700205Y-29369088D01*
X45793186Y-29543044D01*
X46057587Y-29638808D01*
X47013395Y-28683000D01*
X47372605Y-28683000D01*
X48328413Y-29638808D01*
X48592814Y-29543044D01*
X48733704Y-29253429D01*
X48815384Y-28941892D01*
X48834718Y-28620405D01*
X48790961Y-28301325D01*
X48685795Y-27996912D01*
X48592814Y-27822956D01*
X48328413Y-27727192D01*
X47372605Y-28683000D01*
X47013395Y-28683000D01*
X46057587Y-27727192D01*
X45793186Y-27822956D01*
X45652296Y-28112571D01*
X45570616Y-28424108D01*
X45551282Y-28745595D01*
X45377189Y-28745595D01*
X45384718Y-28620405D01*
X45340961Y-28301325D01*
X45235795Y-27996912D01*
X45142814Y-27822956D01*
X44878413Y-27727192D01*
X43922605Y-28683000D01*
X43936748Y-28697143D01*
X43757143Y-28876748D01*
X43743000Y-28862605D01*
X42787192Y-29818413D01*
X42882956Y-30082814D01*
X42965563Y-30123000D01*
X38772819Y-30123000D01*
X38778217Y-30013488D01*
X38736787Y-29733870D01*
X38641603Y-29467708D01*
X38574671Y-29342486D01*
X38330702Y-29270903D01*
X37517605Y-30084000D01*
X37531748Y-30098143D01*
X37352143Y-30277748D01*
X37338000Y-30263605D01*
X37323858Y-30277748D01*
X37144253Y-30098143D01*
X37158395Y-30084000D01*
X36345298Y-29270903D01*
X36101329Y-29342486D01*
X35980429Y-29597996D01*
X35911700Y-29872184D01*
X35897783Y-30154512D01*
X35939213Y-30434130D01*
X36034397Y-30700292D01*
X36101329Y-30825514D01*
X36130930Y-30834199D01*
X34013051Y-32952080D01*
X33721407Y-32952080D01*
X33680399Y-32948041D01*
X33639391Y-32952080D01*
X33639381Y-32952080D01*
X33516711Y-32964162D01*
X33359313Y-33011908D01*
X33322697Y-33031480D01*
X33299061Y-33031480D01*
X33099102Y-33071254D01*
X32910744Y-33149275D01*
X32741226Y-33262543D01*
X32597063Y-33406706D01*
X32539467Y-33492905D01*
X32488276Y-33397134D01*
X32470588Y-33375581D01*
X32383931Y-33269989D01*
X32352066Y-33243839D01*
X31372013Y-32263785D01*
X31343146Y-32118662D01*
X31265125Y-31930304D01*
X31151857Y-31760786D01*
X31007694Y-31616623D01*
X30838176Y-31503355D01*
X30649818Y-31425334D01*
X30449859Y-31385560D01*
X30245981Y-31385560D01*
X30046022Y-31425334D01*
X29857664Y-31503355D01*
X29688146Y-31616623D01*
X29543983Y-31760786D01*
X29430715Y-31930304D01*
X29352694Y-32118662D01*
X29312920Y-32318621D01*
X29312920Y-32522499D01*
X29352694Y-32722458D01*
X29430715Y-32910816D01*
X29543983Y-33080334D01*
X29688146Y-33224497D01*
X29857664Y-33337765D01*
X30046022Y-33415786D01*
X30191145Y-33444653D01*
X30955641Y-34209148D01*
X30955641Y-34311714D01*
X30873435Y-34434744D01*
X30795414Y-34623102D01*
X30766547Y-34768225D01*
X30642577Y-34892196D01*
X30610708Y-34918350D01*
X30521592Y-35026939D01*
X30506363Y-35045496D01*
X30428827Y-35190555D01*
X30381081Y-35347953D01*
X30364959Y-35511641D01*
X30368999Y-35552660D01*
X30369000Y-41449763D01*
X30364959Y-41490791D01*
X30381081Y-41654479D01*
X30428827Y-41811877D01*
X30506363Y-41956936D01*
X30518951Y-41972274D01*
X30610709Y-42084082D01*
X30642572Y-42110231D01*
X30763095Y-42230755D01*
X30791962Y-42375878D01*
X30869983Y-42564236D01*
X30983251Y-42733754D01*
X31127414Y-42877917D01*
X31296932Y-42991185D01*
X31485290Y-43069206D01*
X31630413Y-43098073D01*
X33003796Y-44471456D01*
X33029946Y-44503320D01*
X33157091Y-44607665D01*
X33302150Y-44685201D01*
X33459548Y-44732947D01*
X33582218Y-44745029D01*
X33582228Y-44745029D01*
X33623236Y-44749068D01*
X33664244Y-44745029D01*
X35262419Y-44745029D01*
X35262419Y-47006708D01*
X35203774Y-46948063D01*
X35034256Y-46834795D01*
X34845898Y-46756774D01*
X34645939Y-46717000D01*
X34442061Y-46717000D01*
X34242102Y-46756774D01*
X34053744Y-46834795D01*
X33884226Y-46948063D01*
X33740063Y-47092226D01*
X33626795Y-47261744D01*
X33548774Y-47450102D01*
X33509000Y-47650061D01*
X33509000Y-47853939D01*
X33548774Y-48053898D01*
X33626795Y-48242256D01*
X33740063Y-48411774D01*
X33884226Y-48555937D01*
X34053744Y-48669205D01*
X34184011Y-48723164D01*
X34184011Y-50123137D01*
X34173475Y-50107368D01*
X33966632Y-49900525D01*
X33723411Y-49738010D01*
X33453158Y-49626068D01*
X33166260Y-49569000D01*
X32873740Y-49569000D01*
X32586842Y-49626068D01*
X32316589Y-49738010D01*
X32073368Y-49900525D01*
X31941513Y-50032380D01*
X31919502Y-49959820D01*
X31860537Y-49849506D01*
X31781185Y-49752815D01*
X31684494Y-49673463D01*
X31574180Y-49614498D01*
X31454482Y-49578188D01*
X31330000Y-49565928D01*
X29630000Y-49565928D01*
X29505518Y-49578188D01*
X29385820Y-49614498D01*
X29275506Y-49673463D01*
X29178815Y-49752815D01*
X29099463Y-49849506D01*
X29040498Y-49959820D01*
X29004188Y-50079518D01*
X28991928Y-50204000D01*
X28991928Y-51537981D01*
X28527606Y-52002303D01*
X28500514Y-52024537D01*
X28411789Y-52132649D01*
X28345861Y-52255992D01*
X28305262Y-52389828D01*
X28295051Y-52493502D01*
X28291554Y-52529011D01*
X28294989Y-52563886D01*
X28294989Y-53901872D01*
X28225185Y-53816815D01*
X28128494Y-53737463D01*
X28018180Y-53678498D01*
X27898482Y-53642188D01*
X27774000Y-53629928D01*
X27209750Y-53633000D01*
X27051000Y-53791750D01*
X27051000Y-54991000D01*
X27071000Y-54991000D01*
X27071000Y-55245000D01*
X27051000Y-55245000D01*
X27051000Y-55265000D01*
X26797000Y-55265000D01*
X26797000Y-55245000D01*
X26777000Y-55245000D01*
X26777000Y-54991000D01*
X26797000Y-54991000D01*
X26797000Y-53791750D01*
X26638250Y-53633000D01*
X26074000Y-53629928D01*
X25949518Y-53642188D01*
X25829820Y-53678498D01*
X25719506Y-53737463D01*
X25660000Y-53786298D01*
X25660000Y-28505653D01*
X33315952Y-28505653D01*
X33471962Y-28821214D01*
X33846745Y-29012020D01*
X34251551Y-29126044D01*
X34670824Y-29158902D01*
X35088451Y-29109334D01*
X35143898Y-29091298D01*
X36524903Y-29091298D01*
X37338000Y-29904395D01*
X38151097Y-29091298D01*
X38079514Y-28847329D01*
X37864510Y-28745595D01*
X42101282Y-28745595D01*
X42145039Y-29064675D01*
X42250205Y-29369088D01*
X42343186Y-29543044D01*
X42607587Y-29638808D01*
X43563395Y-28683000D01*
X42607587Y-27727192D01*
X42343186Y-27822956D01*
X42202296Y-28112571D01*
X42120616Y-28424108D01*
X42101282Y-28745595D01*
X37864510Y-28745595D01*
X37824004Y-28726429D01*
X37549816Y-28657700D01*
X37267488Y-28643783D01*
X36987870Y-28685213D01*
X36721708Y-28780397D01*
X36596486Y-28847329D01*
X36524903Y-29091298D01*
X35143898Y-29091298D01*
X35488383Y-28979243D01*
X35784038Y-28821214D01*
X35940048Y-28505653D01*
X34628000Y-27193605D01*
X33315952Y-28505653D01*
X25660000Y-28505653D01*
X25660000Y-25660000D01*
X33094392Y-25660000D01*
X33136345Y-25701953D01*
G37*
%TD.AperFunction*%
D25*
X36066320Y-33263727D02*
X36223363Y-33498759D01*
X36308604Y-33584000D01*
X36223363Y-33669241D01*
X36066320Y-33904273D01*
X35958147Y-34165426D01*
X35903000Y-34442665D01*
X35903000Y-34725335D01*
X35958147Y-35002574D01*
X36066320Y-35263727D01*
X36223363Y-35498759D01*
X36401581Y-35676977D01*
X36343820Y-35694498D01*
X36233506Y-35753463D01*
X36136815Y-35832815D01*
X36057463Y-35929506D01*
X35998498Y-36039820D01*
X35962188Y-36159518D01*
X35949928Y-36284000D01*
X35949928Y-37884000D01*
X35962188Y-38008482D01*
X35998498Y-38128180D01*
X36057463Y-38238494D01*
X36136815Y-38335185D01*
X36233506Y-38414537D01*
X36343820Y-38473502D01*
X36463518Y-38509812D01*
X36588000Y-38522072D01*
X38088000Y-38522072D01*
X38212482Y-38509812D01*
X38332180Y-38473502D01*
X38442494Y-38414537D01*
X38484661Y-38379932D01*
X38484661Y-39610713D01*
X38455939Y-39605000D01*
X38252061Y-39605000D01*
X38052102Y-39644774D01*
X37863744Y-39722795D01*
X37694226Y-39836063D01*
X37550063Y-39980226D01*
X37436795Y-40149744D01*
X37358774Y-40338102D01*
X37319000Y-40538061D01*
X37319000Y-40670908D01*
X35620036Y-42369873D01*
X35592945Y-42392106D01*
X35570712Y-42419197D01*
X35504220Y-42500218D01*
X35438291Y-42623562D01*
X35397693Y-42757397D01*
X35383984Y-42896581D01*
X35387420Y-42931465D01*
X35387420Y-43075029D01*
X33969105Y-43075029D01*
X32811281Y-41917205D01*
X32782414Y-41772082D01*
X32730046Y-41645653D01*
X33315952Y-41645653D01*
X33471962Y-41961214D01*
X33846745Y-42152020D01*
X34251551Y-42266044D01*
X34670824Y-42298902D01*
X35088451Y-42249334D01*
X35488383Y-42119243D01*
X35784038Y-41961214D01*
X35940048Y-41645653D01*
X34628000Y-40333605D01*
X33315952Y-41645653D01*
X32730046Y-41645653D01*
X32704393Y-41583724D01*
X32591125Y-41414206D01*
X32446962Y-41270043D01*
X32277444Y-41156775D01*
X32089086Y-41078754D01*
X32038999Y-41068791D01*
X32038999Y-40196824D01*
X32483098Y-40196824D01*
X32532666Y-40614451D01*
X32662757Y-41014383D01*
X32820786Y-41310038D01*
X33136347Y-41466048D01*
X34448395Y-40154000D01*
X34807605Y-40154000D01*
X36119653Y-41466048D01*
X36435214Y-41310038D01*
X36626020Y-40935255D01*
X36740044Y-40530449D01*
X36772902Y-40111176D01*
X36723334Y-39693549D01*
X36593243Y-39293617D01*
X36435214Y-38997962D01*
X36119653Y-38841952D01*
X34807605Y-40154000D01*
X34448395Y-40154000D01*
X33136347Y-38841952D01*
X32820786Y-38997962D01*
X32629980Y-39372745D01*
X32515956Y-39777551D01*
X32483098Y-40196824D01*
X32038999Y-40196824D01*
X32038999Y-38662347D01*
X33315952Y-38662347D01*
X34628000Y-39974395D01*
X35940048Y-38662347D01*
X35784038Y-38346786D01*
X35409255Y-38155980D01*
X35004449Y-38041956D01*
X34585176Y-38009098D01*
X34167549Y-38058666D01*
X33767617Y-38188757D01*
X33471962Y-38346786D01*
X33315952Y-38662347D01*
X32038999Y-38662347D01*
X32038999Y-35930875D01*
X32092538Y-35920226D01*
X32280896Y-35842205D01*
X32450414Y-35728937D01*
X32594577Y-35584774D01*
X32707845Y-35415256D01*
X32785866Y-35226898D01*
X32825640Y-35026939D01*
X32825640Y-34926820D01*
X32910744Y-34983685D01*
X33099102Y-35061706D01*
X33299061Y-35101480D01*
X33502939Y-35101480D01*
X33702898Y-35061706D01*
X33891256Y-34983685D01*
X34060774Y-34870417D01*
X34204937Y-34726254D01*
X34274544Y-34622080D01*
X34317900Y-34622080D01*
X34358918Y-34626120D01*
X34399936Y-34622080D01*
X34399937Y-34622080D01*
X34522607Y-34609998D01*
X34680005Y-34562252D01*
X34825064Y-34484716D01*
X34952209Y-34380371D01*
X34978364Y-34348501D01*
X36065388Y-33261478D01*
X36066320Y-33263727D01*
%TA.AperFunction,Conductor*%
D26*
G36*
X36066320Y-33263727D02*
G01*
X36223363Y-33498759D01*
X36308604Y-33584000D01*
X36223363Y-33669241D01*
X36066320Y-33904273D01*
X35958147Y-34165426D01*
X35903000Y-34442665D01*
X35903000Y-34725335D01*
X35958147Y-35002574D01*
X36066320Y-35263727D01*
X36223363Y-35498759D01*
X36401581Y-35676977D01*
X36343820Y-35694498D01*
X36233506Y-35753463D01*
X36136815Y-35832815D01*
X36057463Y-35929506D01*
X35998498Y-36039820D01*
X35962188Y-36159518D01*
X35949928Y-36284000D01*
X35949928Y-37884000D01*
X35962188Y-38008482D01*
X35998498Y-38128180D01*
X36057463Y-38238494D01*
X36136815Y-38335185D01*
X36233506Y-38414537D01*
X36343820Y-38473502D01*
X36463518Y-38509812D01*
X36588000Y-38522072D01*
X38088000Y-38522072D01*
X38212482Y-38509812D01*
X38332180Y-38473502D01*
X38442494Y-38414537D01*
X38484661Y-38379932D01*
X38484661Y-39610713D01*
X38455939Y-39605000D01*
X38252061Y-39605000D01*
X38052102Y-39644774D01*
X37863744Y-39722795D01*
X37694226Y-39836063D01*
X37550063Y-39980226D01*
X37436795Y-40149744D01*
X37358774Y-40338102D01*
X37319000Y-40538061D01*
X37319000Y-40670908D01*
X35620036Y-42369873D01*
X35592945Y-42392106D01*
X35570712Y-42419197D01*
X35504220Y-42500218D01*
X35438291Y-42623562D01*
X35397693Y-42757397D01*
X35383984Y-42896581D01*
X35387420Y-42931465D01*
X35387420Y-43075029D01*
X33969105Y-43075029D01*
X32811281Y-41917205D01*
X32782414Y-41772082D01*
X32730046Y-41645653D01*
X33315952Y-41645653D01*
X33471962Y-41961214D01*
X33846745Y-42152020D01*
X34251551Y-42266044D01*
X34670824Y-42298902D01*
X35088451Y-42249334D01*
X35488383Y-42119243D01*
X35784038Y-41961214D01*
X35940048Y-41645653D01*
X34628000Y-40333605D01*
X33315952Y-41645653D01*
X32730046Y-41645653D01*
X32704393Y-41583724D01*
X32591125Y-41414206D01*
X32446962Y-41270043D01*
X32277444Y-41156775D01*
X32089086Y-41078754D01*
X32038999Y-41068791D01*
X32038999Y-40196824D01*
X32483098Y-40196824D01*
X32532666Y-40614451D01*
X32662757Y-41014383D01*
X32820786Y-41310038D01*
X33136347Y-41466048D01*
X34448395Y-40154000D01*
X34807605Y-40154000D01*
X36119653Y-41466048D01*
X36435214Y-41310038D01*
X36626020Y-40935255D01*
X36740044Y-40530449D01*
X36772902Y-40111176D01*
X36723334Y-39693549D01*
X36593243Y-39293617D01*
X36435214Y-38997962D01*
X36119653Y-38841952D01*
X34807605Y-40154000D01*
X34448395Y-40154000D01*
X33136347Y-38841952D01*
X32820786Y-38997962D01*
X32629980Y-39372745D01*
X32515956Y-39777551D01*
X32483098Y-40196824D01*
X32038999Y-40196824D01*
X32038999Y-38662347D01*
X33315952Y-38662347D01*
X34628000Y-39974395D01*
X35940048Y-38662347D01*
X35784038Y-38346786D01*
X35409255Y-38155980D01*
X35004449Y-38041956D01*
X34585176Y-38009098D01*
X34167549Y-38058666D01*
X33767617Y-38188757D01*
X33471962Y-38346786D01*
X33315952Y-38662347D01*
X32038999Y-38662347D01*
X32038999Y-35930875D01*
X32092538Y-35920226D01*
X32280896Y-35842205D01*
X32450414Y-35728937D01*
X32594577Y-35584774D01*
X32707845Y-35415256D01*
X32785866Y-35226898D01*
X32825640Y-35026939D01*
X32825640Y-34926820D01*
X32910744Y-34983685D01*
X33099102Y-35061706D01*
X33299061Y-35101480D01*
X33502939Y-35101480D01*
X33702898Y-35061706D01*
X33891256Y-34983685D01*
X34060774Y-34870417D01*
X34204937Y-34726254D01*
X34274544Y-34622080D01*
X34317900Y-34622080D01*
X34358918Y-34626120D01*
X34399936Y-34622080D01*
X34399937Y-34622080D01*
X34522607Y-34609998D01*
X34680005Y-34562252D01*
X34825064Y-34484716D01*
X34952209Y-34380371D01*
X34978364Y-34348501D01*
X36065388Y-33261478D01*
X36066320Y-33263727D01*
G37*
%TD.AperFunction*%
D25*
X42904928Y-31808000D02*
X42917188Y-31932482D01*
X42917345Y-31933000D01*
X42917188Y-31933518D01*
X42904928Y-32058000D01*
X42904928Y-32458000D01*
X42917188Y-32582482D01*
X42917345Y-32583000D01*
X42917188Y-32583518D01*
X42904928Y-32708000D01*
X42904928Y-33108000D01*
X42917188Y-33232482D01*
X42917971Y-33235064D01*
X42908000Y-33326250D01*
X42975968Y-33394218D01*
X43012463Y-33462494D01*
X43091815Y-33559185D01*
X43179322Y-33631000D01*
X43066750Y-33631000D01*
X42908000Y-33789750D01*
X42919206Y-33892229D01*
X42957379Y-34011346D01*
X43018057Y-34120727D01*
X43098908Y-34216169D01*
X43194954Y-34292515D01*
X43056912Y-34340205D01*
X42882956Y-34433186D01*
X42787192Y-34697587D01*
X43743000Y-35653395D01*
X43757143Y-35639253D01*
X43936748Y-35818858D01*
X43922605Y-35833000D01*
X44878413Y-36788808D01*
X45142814Y-36693044D01*
X45283704Y-36403429D01*
X45365384Y-36091892D01*
X45377189Y-35895595D01*
X45551282Y-35895595D01*
X45595039Y-36214675D01*
X45700205Y-36519088D01*
X45793186Y-36693044D01*
X46057587Y-36788808D01*
X47013395Y-35833000D01*
X47372605Y-35833000D01*
X48328413Y-36788808D01*
X48592814Y-36693044D01*
X48733704Y-36403429D01*
X48815384Y-36091892D01*
X48834718Y-35770405D01*
X48790961Y-35451325D01*
X48685795Y-35146912D01*
X48592814Y-34972956D01*
X48328413Y-34877192D01*
X47372605Y-35833000D01*
X47013395Y-35833000D01*
X46057587Y-34877192D01*
X45793186Y-34972956D01*
X45652296Y-35262571D01*
X45570616Y-35574108D01*
X45551282Y-35895595D01*
X45377189Y-35895595D01*
X45384718Y-35770405D01*
X45340961Y-35451325D01*
X45253744Y-35198866D01*
X45343022Y-35181108D01*
X45517731Y-35108741D01*
X45674964Y-35003681D01*
X45808681Y-34869964D01*
X45913741Y-34712731D01*
X45920013Y-34697587D01*
X46237192Y-34697587D01*
X47193000Y-35653395D01*
X48148808Y-34697587D01*
X48053044Y-34433186D01*
X47763429Y-34292296D01*
X47451892Y-34210616D01*
X47130405Y-34191282D01*
X46811325Y-34235039D01*
X46506912Y-34340205D01*
X46332956Y-34433186D01*
X46237192Y-34697587D01*
X45920013Y-34697587D01*
X45986108Y-34538022D01*
X46023000Y-34352552D01*
X46023000Y-34163448D01*
X45986108Y-33977978D01*
X45913741Y-33803269D01*
X45808681Y-33646036D01*
X45780645Y-33618000D01*
X46105915Y-33618000D01*
X46412648Y-33924734D01*
X46434881Y-33951825D01*
X46542993Y-34040550D01*
X46666336Y-34106478D01*
X46800172Y-34147077D01*
X46904479Y-34157350D01*
X46904480Y-34157350D01*
X46939355Y-34160785D01*
X46974230Y-34157350D01*
X48126249Y-34157350D01*
X48220186Y-34251287D01*
X48389704Y-34364555D01*
X48578062Y-34442576D01*
X48778021Y-34482350D01*
X48981899Y-34482350D01*
X49181858Y-34442576D01*
X49340000Y-34377071D01*
X49340000Y-40673146D01*
X49305624Y-40650176D01*
X49099067Y-40564617D01*
X48879788Y-40521000D01*
X48687414Y-40521000D01*
X48757824Y-40415624D01*
X48843383Y-40209067D01*
X48887000Y-39989788D01*
X48887000Y-39766212D01*
X48843383Y-39546933D01*
X48757824Y-39340376D01*
X48633612Y-39154480D01*
X48475520Y-38996388D01*
X48289624Y-38872176D01*
X48083067Y-38786617D01*
X47863788Y-38743000D01*
X47640212Y-38743000D01*
X47420933Y-38786617D01*
X47214376Y-38872176D01*
X47028480Y-38996388D01*
X46870388Y-39154480D01*
X46746176Y-39340376D01*
X46660617Y-39546933D01*
X46617000Y-39766212D01*
X46617000Y-39989788D01*
X46660617Y-40209067D01*
X46746176Y-40415624D01*
X46816586Y-40521000D01*
X46624212Y-40521000D01*
X46404933Y-40564617D01*
X46198376Y-40650176D01*
X46012480Y-40774388D01*
X45854388Y-40932480D01*
X45730176Y-41118376D01*
X45700861Y-41189150D01*
X45617774Y-41106063D01*
X45448256Y-40992795D01*
X45259898Y-40914774D01*
X45202619Y-40903381D01*
X45191226Y-40846102D01*
X45113205Y-40657744D01*
X44999937Y-40488226D01*
X44855774Y-40344063D01*
X44686256Y-40230795D01*
X44497898Y-40152774D01*
X44440619Y-40141381D01*
X44429226Y-40084102D01*
X44351205Y-39895744D01*
X44237937Y-39726226D01*
X44093774Y-39582063D01*
X43924256Y-39468795D01*
X43735898Y-39390774D01*
X43535939Y-39351000D01*
X43332061Y-39351000D01*
X43132102Y-39390774D01*
X42943744Y-39468795D01*
X42774226Y-39582063D01*
X42630063Y-39726226D01*
X42516795Y-39895744D01*
X42438774Y-40084102D01*
X42399000Y-40284061D01*
X42399000Y-40416909D01*
X40511367Y-42304542D01*
X40511367Y-36968413D01*
X42787192Y-36968413D01*
X42882956Y-37232814D01*
X43172571Y-37373704D01*
X43484108Y-37455384D01*
X43805595Y-37474718D01*
X44124675Y-37430961D01*
X44429088Y-37325795D01*
X44603044Y-37232814D01*
X44698808Y-36968413D01*
X46237192Y-36968413D01*
X46332956Y-37232814D01*
X46622571Y-37373704D01*
X46934108Y-37455384D01*
X47255595Y-37474718D01*
X47574675Y-37430961D01*
X47879088Y-37325795D01*
X48053044Y-37232814D01*
X48148808Y-36968413D01*
X47193000Y-36012605D01*
X46237192Y-36968413D01*
X44698808Y-36968413D01*
X43743000Y-36012605D01*
X42787192Y-36968413D01*
X40511367Y-36968413D01*
X40511367Y-35895595D01*
X42101282Y-35895595D01*
X42145039Y-36214675D01*
X42250205Y-36519088D01*
X42343186Y-36693044D01*
X42607587Y-36788808D01*
X43563395Y-35833000D01*
X42607587Y-34877192D01*
X42343186Y-34972956D01*
X42202296Y-35262571D01*
X42120616Y-35574108D01*
X42101282Y-35895595D01*
X40511367Y-35895595D01*
X40511367Y-34508379D01*
X40559019Y-34460727D01*
X40621157Y-34460727D01*
X40821116Y-34420953D01*
X41009474Y-34342932D01*
X41178992Y-34229664D01*
X41323155Y-34085501D01*
X41436423Y-33915983D01*
X41514444Y-33727625D01*
X41554218Y-33527666D01*
X41554218Y-33323788D01*
X41514444Y-33123829D01*
X41436423Y-32935471D01*
X41323155Y-32765953D01*
X41178992Y-32621790D01*
X41009474Y-32508522D01*
X40821116Y-32430501D01*
X40621157Y-32390727D01*
X40543289Y-32390727D01*
X40458417Y-32263706D01*
X40314254Y-32119543D01*
X40144736Y-32006275D01*
X39956378Y-31928254D01*
X39756419Y-31888480D01*
X39552541Y-31888480D01*
X39352582Y-31928254D01*
X39164224Y-32006275D01*
X38994706Y-32119543D01*
X38850543Y-32263706D01*
X38763357Y-32394189D01*
X38717853Y-32165426D01*
X38609680Y-31904273D01*
X38555573Y-31823296D01*
X38585869Y-31793000D01*
X42904928Y-31793000D01*
X42904928Y-31808000D01*
%TA.AperFunction,Conductor*%
D26*
G36*
X42904928Y-31808000D02*
G01*
X42917188Y-31932482D01*
X42917345Y-31933000D01*
X42917188Y-31933518D01*
X42904928Y-32058000D01*
X42904928Y-32458000D01*
X42917188Y-32582482D01*
X42917345Y-32583000D01*
X42917188Y-32583518D01*
X42904928Y-32708000D01*
X42904928Y-33108000D01*
X42917188Y-33232482D01*
X42917971Y-33235064D01*
X42908000Y-33326250D01*
X42975968Y-33394218D01*
X43012463Y-33462494D01*
X43091815Y-33559185D01*
X43179322Y-33631000D01*
X43066750Y-33631000D01*
X42908000Y-33789750D01*
X42919206Y-33892229D01*
X42957379Y-34011346D01*
X43018057Y-34120727D01*
X43098908Y-34216169D01*
X43194954Y-34292515D01*
X43056912Y-34340205D01*
X42882956Y-34433186D01*
X42787192Y-34697587D01*
X43743000Y-35653395D01*
X43757143Y-35639253D01*
X43936748Y-35818858D01*
X43922605Y-35833000D01*
X44878413Y-36788808D01*
X45142814Y-36693044D01*
X45283704Y-36403429D01*
X45365384Y-36091892D01*
X45377189Y-35895595D01*
X45551282Y-35895595D01*
X45595039Y-36214675D01*
X45700205Y-36519088D01*
X45793186Y-36693044D01*
X46057587Y-36788808D01*
X47013395Y-35833000D01*
X47372605Y-35833000D01*
X48328413Y-36788808D01*
X48592814Y-36693044D01*
X48733704Y-36403429D01*
X48815384Y-36091892D01*
X48834718Y-35770405D01*
X48790961Y-35451325D01*
X48685795Y-35146912D01*
X48592814Y-34972956D01*
X48328413Y-34877192D01*
X47372605Y-35833000D01*
X47013395Y-35833000D01*
X46057587Y-34877192D01*
X45793186Y-34972956D01*
X45652296Y-35262571D01*
X45570616Y-35574108D01*
X45551282Y-35895595D01*
X45377189Y-35895595D01*
X45384718Y-35770405D01*
X45340961Y-35451325D01*
X45253744Y-35198866D01*
X45343022Y-35181108D01*
X45517731Y-35108741D01*
X45674964Y-35003681D01*
X45808681Y-34869964D01*
X45913741Y-34712731D01*
X45920013Y-34697587D01*
X46237192Y-34697587D01*
X47193000Y-35653395D01*
X48148808Y-34697587D01*
X48053044Y-34433186D01*
X47763429Y-34292296D01*
X47451892Y-34210616D01*
X47130405Y-34191282D01*
X46811325Y-34235039D01*
X46506912Y-34340205D01*
X46332956Y-34433186D01*
X46237192Y-34697587D01*
X45920013Y-34697587D01*
X45986108Y-34538022D01*
X46023000Y-34352552D01*
X46023000Y-34163448D01*
X45986108Y-33977978D01*
X45913741Y-33803269D01*
X45808681Y-33646036D01*
X45780645Y-33618000D01*
X46105915Y-33618000D01*
X46412648Y-33924734D01*
X46434881Y-33951825D01*
X46542993Y-34040550D01*
X46666336Y-34106478D01*
X46800172Y-34147077D01*
X46904479Y-34157350D01*
X46904480Y-34157350D01*
X46939355Y-34160785D01*
X46974230Y-34157350D01*
X48126249Y-34157350D01*
X48220186Y-34251287D01*
X48389704Y-34364555D01*
X48578062Y-34442576D01*
X48778021Y-34482350D01*
X48981899Y-34482350D01*
X49181858Y-34442576D01*
X49340000Y-34377071D01*
X49340000Y-40673146D01*
X49305624Y-40650176D01*
X49099067Y-40564617D01*
X48879788Y-40521000D01*
X48687414Y-40521000D01*
X48757824Y-40415624D01*
X48843383Y-40209067D01*
X48887000Y-39989788D01*
X48887000Y-39766212D01*
X48843383Y-39546933D01*
X48757824Y-39340376D01*
X48633612Y-39154480D01*
X48475520Y-38996388D01*
X48289624Y-38872176D01*
X48083067Y-38786617D01*
X47863788Y-38743000D01*
X47640212Y-38743000D01*
X47420933Y-38786617D01*
X47214376Y-38872176D01*
X47028480Y-38996388D01*
X46870388Y-39154480D01*
X46746176Y-39340376D01*
X46660617Y-39546933D01*
X46617000Y-39766212D01*
X46617000Y-39989788D01*
X46660617Y-40209067D01*
X46746176Y-40415624D01*
X46816586Y-40521000D01*
X46624212Y-40521000D01*
X46404933Y-40564617D01*
X46198376Y-40650176D01*
X46012480Y-40774388D01*
X45854388Y-40932480D01*
X45730176Y-41118376D01*
X45700861Y-41189150D01*
X45617774Y-41106063D01*
X45448256Y-40992795D01*
X45259898Y-40914774D01*
X45202619Y-40903381D01*
X45191226Y-40846102D01*
X45113205Y-40657744D01*
X44999937Y-40488226D01*
X44855774Y-40344063D01*
X44686256Y-40230795D01*
X44497898Y-40152774D01*
X44440619Y-40141381D01*
X44429226Y-40084102D01*
X44351205Y-39895744D01*
X44237937Y-39726226D01*
X44093774Y-39582063D01*
X43924256Y-39468795D01*
X43735898Y-39390774D01*
X43535939Y-39351000D01*
X43332061Y-39351000D01*
X43132102Y-39390774D01*
X42943744Y-39468795D01*
X42774226Y-39582063D01*
X42630063Y-39726226D01*
X42516795Y-39895744D01*
X42438774Y-40084102D01*
X42399000Y-40284061D01*
X42399000Y-40416909D01*
X40511367Y-42304542D01*
X40511367Y-36968413D01*
X42787192Y-36968413D01*
X42882956Y-37232814D01*
X43172571Y-37373704D01*
X43484108Y-37455384D01*
X43805595Y-37474718D01*
X44124675Y-37430961D01*
X44429088Y-37325795D01*
X44603044Y-37232814D01*
X44698808Y-36968413D01*
X46237192Y-36968413D01*
X46332956Y-37232814D01*
X46622571Y-37373704D01*
X46934108Y-37455384D01*
X47255595Y-37474718D01*
X47574675Y-37430961D01*
X47879088Y-37325795D01*
X48053044Y-37232814D01*
X48148808Y-36968413D01*
X47193000Y-36012605D01*
X46237192Y-36968413D01*
X44698808Y-36968413D01*
X43743000Y-36012605D01*
X42787192Y-36968413D01*
X40511367Y-36968413D01*
X40511367Y-35895595D01*
X42101282Y-35895595D01*
X42145039Y-36214675D01*
X42250205Y-36519088D01*
X42343186Y-36693044D01*
X42607587Y-36788808D01*
X43563395Y-35833000D01*
X42607587Y-34877192D01*
X42343186Y-34972956D01*
X42202296Y-35262571D01*
X42120616Y-35574108D01*
X42101282Y-35895595D01*
X40511367Y-35895595D01*
X40511367Y-34508379D01*
X40559019Y-34460727D01*
X40621157Y-34460727D01*
X40821116Y-34420953D01*
X41009474Y-34342932D01*
X41178992Y-34229664D01*
X41323155Y-34085501D01*
X41436423Y-33915983D01*
X41514444Y-33727625D01*
X41554218Y-33527666D01*
X41554218Y-33323788D01*
X41514444Y-33123829D01*
X41436423Y-32935471D01*
X41323155Y-32765953D01*
X41178992Y-32621790D01*
X41009474Y-32508522D01*
X40821116Y-32430501D01*
X40621157Y-32390727D01*
X40543289Y-32390727D01*
X40458417Y-32263706D01*
X40314254Y-32119543D01*
X40144736Y-32006275D01*
X39956378Y-31928254D01*
X39756419Y-31888480D01*
X39552541Y-31888480D01*
X39352582Y-31928254D01*
X39164224Y-32006275D01*
X38994706Y-32119543D01*
X38850543Y-32263706D01*
X38763357Y-32394189D01*
X38717853Y-32165426D01*
X38609680Y-31904273D01*
X38555573Y-31823296D01*
X38585869Y-31793000D01*
X42904928Y-31793000D01*
X42904928Y-31808000D01*
G37*
%TD.AperFunction*%
%TD*%
M02*
