%TF.GenerationSoftware,KiCad,Pcbnew,(5.1.9-16-g1737927814)-1*%
%TF.CreationDate,2021-10-10T21:13:45-05:00*%
%TF.ProjectId,adbuino,61646275-696e-46f2-9e6b-696361645f70,rev?*%
%TF.SameCoordinates,Original*%
%TF.FileFunction,Copper,L1,Top*%
%TF.FilePolarity,Positive*%
%FSLAX46Y46*%
G04 Gerber Fmt 4.6, Leading zero omitted, Abs format (unit mm)*
G04 Created by KiCad (PCBNEW (5.1.9-16-g1737927814)-1) date 2021-10-10 21:13:45*
%MOMM*%
%LPD*%
G01*
G04 APERTURE LIST*
%TA.AperFunction,NonConductor*%
%ADD10C,0.300000*%
%TD*%
%TA.AperFunction,EtchedComponent*%
%ADD11C,0.100000*%
%TD*%
%TA.AperFunction,ComponentPad*%
%ADD12O,1.700000X1.700000*%
%TD*%
%TA.AperFunction,ComponentPad*%
%ADD13R,1.700000X1.700000*%
%TD*%
%TA.AperFunction,ComponentPad*%
%ADD14C,2.000000*%
%TD*%
%TA.AperFunction,SMDPad,CuDef*%
%ADD15C,0.100000*%
%TD*%
%TA.AperFunction,ComponentPad*%
%ADD16C,1.000000*%
%TD*%
%TA.AperFunction,SMDPad,CuDef*%
%ADD17R,1.500000X1.000000*%
%TD*%
%TA.AperFunction,SMDPad,CuDef*%
%ADD18R,0.800000X0.900000*%
%TD*%
%TA.AperFunction,SMDPad,CuDef*%
%ADD19R,1.200000X1.400000*%
%TD*%
%TA.AperFunction,ComponentPad*%
%ADD20O,3.600000X1.800000*%
%TD*%
%TA.AperFunction,ComponentPad*%
%ADD21C,3.316000*%
%TD*%
%TA.AperFunction,SMDPad,CuDef*%
%ADD22R,1.400000X1.200000*%
%TD*%
%TA.AperFunction,SMDPad,CuDef*%
%ADD23R,1.500000X2.000000*%
%TD*%
%TA.AperFunction,SMDPad,CuDef*%
%ADD24R,3.800000X2.000000*%
%TD*%
%TA.AperFunction,ComponentPad*%
%ADD25C,1.600000*%
%TD*%
%TA.AperFunction,ComponentPad*%
%ADD26R,1.500000X1.600000*%
%TD*%
%TA.AperFunction,ComponentPad*%
%ADD27C,3.000000*%
%TD*%
%TA.AperFunction,ViaPad*%
%ADD28C,0.800000*%
%TD*%
%TA.AperFunction,Conductor*%
%ADD29C,0.250000*%
%TD*%
%TA.AperFunction,Conductor*%
%ADD30C,0.150000*%
%TD*%
%TA.AperFunction,Conductor*%
%ADD31C,0.400000*%
%TD*%
%TA.AperFunction,Conductor*%
%ADD32C,0.254000*%
%TD*%
%TA.AperFunction,Conductor*%
%ADD33C,0.100000*%
%TD*%
G04 APERTURE END LIST*
D10*
X39192000Y-26562857D02*
X39406285Y-26634285D01*
X39477714Y-26705714D01*
X39549142Y-26848571D01*
X39549142Y-27062857D01*
X39477714Y-27205714D01*
X39406285Y-27277142D01*
X39263428Y-27348571D01*
X38692000Y-27348571D01*
X38692000Y-25848571D01*
X39192000Y-25848571D01*
X39334857Y-25920000D01*
X39406285Y-25991428D01*
X39477714Y-26134285D01*
X39477714Y-26277142D01*
X39406285Y-26420000D01*
X39334857Y-26491428D01*
X39192000Y-26562857D01*
X38692000Y-26562857D01*
X40120571Y-26920000D02*
X40834857Y-26920000D01*
X39977714Y-27348571D02*
X40477714Y-25848571D01*
X40977714Y-27348571D01*
X41477714Y-27348571D02*
X41477714Y-25848571D01*
X41834857Y-25848571D01*
X42049142Y-25920000D01*
X42192000Y-26062857D01*
X42263428Y-26205714D01*
X42334857Y-26491428D01*
X42334857Y-26705714D01*
X42263428Y-26991428D01*
X42192000Y-27134285D01*
X42049142Y-27277142D01*
X41834857Y-27348571D01*
X41477714Y-27348571D01*
X43977714Y-25848571D02*
X44334857Y-27348571D01*
X44620571Y-26277142D01*
X44906285Y-27348571D01*
X45263428Y-25848571D01*
X46120571Y-25848571D02*
X46406285Y-25848571D01*
X46549142Y-25920000D01*
X46692000Y-26062857D01*
X46763428Y-26348571D01*
X46763428Y-26848571D01*
X46692000Y-27134285D01*
X46549142Y-27277142D01*
X46406285Y-27348571D01*
X46120571Y-27348571D01*
X45977714Y-27277142D01*
X45834857Y-27134285D01*
X45763428Y-26848571D01*
X45763428Y-26348571D01*
X45834857Y-26062857D01*
X45977714Y-25920000D01*
X46120571Y-25848571D01*
X48120571Y-27348571D02*
X47406285Y-27348571D01*
X47406285Y-25848571D01*
X49120571Y-26562857D02*
X48620571Y-26562857D01*
X48620571Y-27348571D02*
X48620571Y-25848571D01*
X49334857Y-25848571D01*
D11*
%TO.C,JP4*%
G36*
X34244000Y-73514000D02*
G01*
X34244000Y-73014000D01*
X34844000Y-73014000D01*
X34844000Y-73514000D01*
X34244000Y-73514000D01*
G37*
%TO.C,JP3*%
G36*
X32304000Y-71714000D02*
G01*
X32304000Y-72214000D01*
X31704000Y-72214000D01*
X31704000Y-71714000D01*
X32304000Y-71714000D01*
G37*
%TO.C,JP2*%
G36*
X42626000Y-73514000D02*
G01*
X42626000Y-73014000D01*
X43226000Y-73014000D01*
X43226000Y-73514000D01*
X42626000Y-73514000D01*
G37*
%TO.C,JP1*%
G36*
X40686000Y-71714000D02*
G01*
X40686000Y-72214000D01*
X40086000Y-72214000D01*
X40086000Y-71714000D01*
X40686000Y-71714000D01*
G37*
%TD*%
D12*
%TO.P,J7,2*%
%TO.N,OPTION_SELECT*%
X26924000Y-57658000D03*
D13*
%TO.P,J7,1*%
%TO.N,GND*%
X26924000Y-55118000D03*
%TD*%
D14*
%TO.P,J2,MH4*%
%TO.N,GND*%
X43743000Y-28683000D03*
%TO.P,J2,MH3*%
X43743000Y-35833000D03*
%TO.P,J2,MH2*%
X47193000Y-35833000D03*
%TO.P,J2,MH1*%
X47193000Y-28683000D03*
%TD*%
%TA.AperFunction,SMDPad,CuDef*%
D15*
%TO.P,IC1,32*%
%TO.N,N/C*%
G36*
X39707382Y-50111624D02*
G01*
X38664400Y-51154606D01*
X38452268Y-50942474D01*
X39495250Y-49899492D01*
X39707382Y-50111624D01*
G37*
%TD.AperFunction*%
%TA.AperFunction,SMDPad,CuDef*%
%TO.P,IC1,31*%
G36*
X39353829Y-49758070D02*
G01*
X38310847Y-50801052D01*
X38098715Y-50588920D01*
X39141697Y-49545938D01*
X39353829Y-49758070D01*
G37*
%TD.AperFunction*%
%TA.AperFunction,SMDPad,CuDef*%
%TO.P,IC1,30*%
G36*
X39000275Y-49404517D02*
G01*
X37957293Y-50447499D01*
X37745161Y-50235367D01*
X38788143Y-49192385D01*
X39000275Y-49404517D01*
G37*
%TD.AperFunction*%
%TA.AperFunction,SMDPad,CuDef*%
%TO.P,IC1,29*%
G36*
X38646722Y-49050963D02*
G01*
X37603740Y-50093945D01*
X37391608Y-49881813D01*
X38434590Y-48838831D01*
X38646722Y-49050963D01*
G37*
%TD.AperFunction*%
%TA.AperFunction,SMDPad,CuDef*%
%TO.P,IC1,28*%
G36*
X38293169Y-48697410D02*
G01*
X37250187Y-49740392D01*
X37038055Y-49528260D01*
X38081037Y-48485278D01*
X38293169Y-48697410D01*
G37*
%TD.AperFunction*%
%TA.AperFunction,SMDPad,CuDef*%
%TO.P,IC1,27*%
G36*
X37939615Y-48343857D02*
G01*
X36896633Y-49386839D01*
X36684501Y-49174707D01*
X37727483Y-48131725D01*
X37939615Y-48343857D01*
G37*
%TD.AperFunction*%
%TA.AperFunction,SMDPad,CuDef*%
%TO.P,IC1,26*%
G36*
X37586062Y-47990303D02*
G01*
X36543080Y-49033285D01*
X36330948Y-48821153D01*
X37373930Y-47778171D01*
X37586062Y-47990303D01*
G37*
%TD.AperFunction*%
%TA.AperFunction,SMDPad,CuDef*%
%TO.P,IC1,25*%
%TO.N,Net-(C10-Pad1)*%
G36*
X37232508Y-47636750D02*
G01*
X36189526Y-48679732D01*
X35977394Y-48467600D01*
X37020376Y-47424618D01*
X37232508Y-47636750D01*
G37*
%TD.AperFunction*%
%TA.AperFunction,SMDPad,CuDef*%
%TO.P,IC1,24*%
%TO.N,Net-(C11-Pad1)*%
G36*
X36189526Y-45320268D02*
G01*
X37232508Y-46363250D01*
X37020376Y-46575382D01*
X35977394Y-45532400D01*
X36189526Y-45320268D01*
G37*
%TD.AperFunction*%
%TA.AperFunction,SMDPad,CuDef*%
%TO.P,IC1,23*%
%TO.N,+3V3*%
G36*
X36543080Y-44966715D02*
G01*
X37586062Y-46009697D01*
X37373930Y-46221829D01*
X36330948Y-45178847D01*
X36543080Y-44966715D01*
G37*
%TD.AperFunction*%
%TA.AperFunction,SMDPad,CuDef*%
%TO.P,IC1,22*%
%TO.N,Net-(C12-Pad1)*%
G36*
X36896633Y-44613161D02*
G01*
X37939615Y-45656143D01*
X37727483Y-45868275D01*
X36684501Y-44825293D01*
X36896633Y-44613161D01*
G37*
%TD.AperFunction*%
%TA.AperFunction,SMDPad,CuDef*%
%TO.P,IC1,21*%
%TO.N,Host_USB_D+*%
G36*
X37250187Y-44259608D02*
G01*
X38293169Y-45302590D01*
X38081037Y-45514722D01*
X37038055Y-44471740D01*
X37250187Y-44259608D01*
G37*
%TD.AperFunction*%
%TA.AperFunction,SMDPad,CuDef*%
%TO.P,IC1,20*%
%TO.N,Host_USB_D-*%
G36*
X37603740Y-43906055D02*
G01*
X38646722Y-44949037D01*
X38434590Y-45161169D01*
X37391608Y-44118187D01*
X37603740Y-43906055D01*
G37*
%TD.AperFunction*%
%TA.AperFunction,SMDPad,CuDef*%
%TO.P,IC1,19*%
%TO.N,GND*%
G36*
X37957293Y-43552501D02*
G01*
X39000275Y-44595483D01*
X38788143Y-44807615D01*
X37745161Y-43764633D01*
X37957293Y-43552501D01*
G37*
%TD.AperFunction*%
%TA.AperFunction,SMDPad,CuDef*%
%TO.P,IC1,18*%
%TO.N,MAX3421_INT*%
G36*
X38310847Y-43198948D02*
G01*
X39353829Y-44241930D01*
X39141697Y-44454062D01*
X38098715Y-43411080D01*
X38310847Y-43198948D01*
G37*
%TD.AperFunction*%
%TA.AperFunction,SMDPad,CuDef*%
%TO.P,IC1,17*%
%TO.N,MAX3421_GPX*%
G36*
X38664400Y-42845394D02*
G01*
X39707382Y-43888376D01*
X39495250Y-44100508D01*
X38452268Y-43057526D01*
X38664400Y-42845394D01*
G37*
%TD.AperFunction*%
%TA.AperFunction,SMDPad,CuDef*%
%TO.P,IC1,16*%
%TO.N,MAX3421_SPI_MOSI*%
G36*
X41811732Y-43057526D02*
G01*
X40768750Y-44100508D01*
X40556618Y-43888376D01*
X41599600Y-42845394D01*
X41811732Y-43057526D01*
G37*
%TD.AperFunction*%
%TA.AperFunction,SMDPad,CuDef*%
%TO.P,IC1,15*%
%TO.N,MAX3421_SPI_MISO*%
G36*
X42165285Y-43411080D02*
G01*
X41122303Y-44454062D01*
X40910171Y-44241930D01*
X41953153Y-43198948D01*
X42165285Y-43411080D01*
G37*
%TD.AperFunction*%
%TA.AperFunction,SMDPad,CuDef*%
%TO.P,IC1,14*%
%TO.N,MAX3421_SS*%
G36*
X42518839Y-43764633D02*
G01*
X41475857Y-44807615D01*
X41263725Y-44595483D01*
X42306707Y-43552501D01*
X42518839Y-43764633D01*
G37*
%TD.AperFunction*%
%TA.AperFunction,SMDPad,CuDef*%
%TO.P,IC1,13*%
%TO.N,MAX3421_SPI_SCLK*%
G36*
X42872392Y-44118187D02*
G01*
X41829410Y-45161169D01*
X41617278Y-44949037D01*
X42660260Y-43906055D01*
X42872392Y-44118187D01*
G37*
%TD.AperFunction*%
%TA.AperFunction,SMDPad,CuDef*%
%TO.P,IC1,12*%
%TO.N,MAX3421_RESET*%
G36*
X43225945Y-44471740D02*
G01*
X42182963Y-45514722D01*
X41970831Y-45302590D01*
X43013813Y-44259608D01*
X43225945Y-44471740D01*
G37*
%TD.AperFunction*%
%TA.AperFunction,SMDPad,CuDef*%
%TO.P,IC1,11*%
%TO.N,N/C*%
G36*
X43579499Y-44825293D02*
G01*
X42536517Y-45868275D01*
X42324385Y-45656143D01*
X43367367Y-44613161D01*
X43579499Y-44825293D01*
G37*
%TD.AperFunction*%
%TA.AperFunction,SMDPad,CuDef*%
%TO.P,IC1,10*%
G36*
X43933052Y-45178847D02*
G01*
X42890070Y-46221829D01*
X42677938Y-46009697D01*
X43720920Y-44966715D01*
X43933052Y-45178847D01*
G37*
%TD.AperFunction*%
%TA.AperFunction,SMDPad,CuDef*%
%TO.P,IC1,9*%
G36*
X44286606Y-45532400D02*
G01*
X43243624Y-46575382D01*
X43031492Y-46363250D01*
X44074474Y-45320268D01*
X44286606Y-45532400D01*
G37*
%TD.AperFunction*%
%TA.AperFunction,SMDPad,CuDef*%
%TO.P,IC1,8*%
G36*
X43243624Y-47424618D02*
G01*
X44286606Y-48467600D01*
X44074474Y-48679732D01*
X43031492Y-47636750D01*
X43243624Y-47424618D01*
G37*
%TD.AperFunction*%
%TA.AperFunction,SMDPad,CuDef*%
%TO.P,IC1,7*%
G36*
X42890070Y-47778171D02*
G01*
X43933052Y-48821153D01*
X43720920Y-49033285D01*
X42677938Y-47990303D01*
X42890070Y-47778171D01*
G37*
%TD.AperFunction*%
%TA.AperFunction,SMDPad,CuDef*%
%TO.P,IC1,6*%
G36*
X42536517Y-48131725D02*
G01*
X43579499Y-49174707D01*
X43367367Y-49386839D01*
X42324385Y-48343857D01*
X42536517Y-48131725D01*
G37*
%TD.AperFunction*%
%TA.AperFunction,SMDPad,CuDef*%
%TO.P,IC1,5*%
G36*
X42182963Y-48485278D02*
G01*
X43225945Y-49528260D01*
X43013813Y-49740392D01*
X41970831Y-48697410D01*
X42182963Y-48485278D01*
G37*
%TD.AperFunction*%
%TA.AperFunction,SMDPad,CuDef*%
%TO.P,IC1,4*%
G36*
X41829410Y-48838831D02*
G01*
X42872392Y-49881813D01*
X42660260Y-50093945D01*
X41617278Y-49050963D01*
X41829410Y-48838831D01*
G37*
%TD.AperFunction*%
%TA.AperFunction,SMDPad,CuDef*%
%TO.P,IC1,3*%
%TO.N,GND*%
G36*
X41475857Y-49192385D02*
G01*
X42518839Y-50235367D01*
X42306707Y-50447499D01*
X41263725Y-49404517D01*
X41475857Y-49192385D01*
G37*
%TD.AperFunction*%
%TA.AperFunction,SMDPad,CuDef*%
%TO.P,IC1,2*%
%TO.N,+3V3*%
G36*
X41122303Y-49545938D02*
G01*
X42165285Y-50588920D01*
X41953153Y-50801052D01*
X40910171Y-49758070D01*
X41122303Y-49545938D01*
G37*
%TD.AperFunction*%
%TA.AperFunction,SMDPad,CuDef*%
%TO.P,IC1,1*%
%TO.N,N/C*%
G36*
X40768750Y-49899492D02*
G01*
X41811732Y-50942474D01*
X41599600Y-51154606D01*
X40556618Y-50111624D01*
X40768750Y-49899492D01*
G37*
%TD.AperFunction*%
%TD*%
%TO.P,R17,2*%
%TO.N,OPTION_SELECT*%
%TA.AperFunction,SMDPad,CuDef*%
G36*
G01*
X32073000Y-59676000D02*
X32443000Y-59676000D01*
G75*
G02*
X32578000Y-59811000I0J-135000D01*
G01*
X32578000Y-60081000D01*
G75*
G02*
X32443000Y-60216000I-135000J0D01*
G01*
X32073000Y-60216000D01*
G75*
G02*
X31938000Y-60081000I0J135000D01*
G01*
X31938000Y-59811000D01*
G75*
G02*
X32073000Y-59676000I135000J0D01*
G01*
G37*
%TD.AperFunction*%
%TO.P,R17,1*%
%TO.N,+3V3*%
%TA.AperFunction,SMDPad,CuDef*%
G36*
G01*
X32073000Y-58656000D02*
X32443000Y-58656000D01*
G75*
G02*
X32578000Y-58791000I0J-135000D01*
G01*
X32578000Y-59061000D01*
G75*
G02*
X32443000Y-59196000I-135000J0D01*
G01*
X32073000Y-59196000D01*
G75*
G02*
X31938000Y-59061000I0J135000D01*
G01*
X31938000Y-58791000D01*
G75*
G02*
X32073000Y-58656000I135000J0D01*
G01*
G37*
%TD.AperFunction*%
%TD*%
D16*
%TO.P,TP3,1*%
%TO.N,Net-(J2-Pad4)*%
X46736000Y-41656000D03*
%TD*%
%TO.P,TP2,1*%
%TO.N,Net-(J2-Pad3)*%
X48768000Y-41656000D03*
%TD*%
%TO.P,TP1,1*%
%TO.N,Net-(J2-Pad2)*%
X47752000Y-39878000D03*
%TD*%
%TA.AperFunction,SMDPad,CuDef*%
D15*
%TO.P,JP4,1*%
%TO.N,ADB_PWR_ON_LV*%
G36*
X35294000Y-73364000D02*
G01*
X35294000Y-73914000D01*
X35293398Y-73914000D01*
X35293398Y-73938534D01*
X35288588Y-73987365D01*
X35279016Y-74035490D01*
X35264772Y-74082445D01*
X35245995Y-74127778D01*
X35222864Y-74171051D01*
X35195604Y-74211850D01*
X35164476Y-74249779D01*
X35129779Y-74284476D01*
X35091850Y-74315604D01*
X35051051Y-74342864D01*
X35007778Y-74365995D01*
X34962445Y-74384772D01*
X34915490Y-74399016D01*
X34867365Y-74408588D01*
X34818534Y-74413398D01*
X34794000Y-74413398D01*
X34794000Y-74414000D01*
X34294000Y-74414000D01*
X34294000Y-74413398D01*
X34269466Y-74413398D01*
X34220635Y-74408588D01*
X34172510Y-74399016D01*
X34125555Y-74384772D01*
X34080222Y-74365995D01*
X34036949Y-74342864D01*
X33996150Y-74315604D01*
X33958221Y-74284476D01*
X33923524Y-74249779D01*
X33892396Y-74211850D01*
X33865136Y-74171051D01*
X33842005Y-74127778D01*
X33823228Y-74082445D01*
X33808984Y-74035490D01*
X33799412Y-73987365D01*
X33794602Y-73938534D01*
X33794602Y-73914000D01*
X33794000Y-73914000D01*
X33794000Y-73364000D01*
X35294000Y-73364000D01*
G37*
%TD.AperFunction*%
D17*
%TO.P,JP4,2*%
%TO.N,Net-(JP4-Pad2)*%
X34544000Y-72614000D03*
%TA.AperFunction,SMDPad,CuDef*%
D15*
%TO.P,JP4,3*%
%TO.N,ADB_1_PWR_ON*%
G36*
X33794602Y-71314000D02*
G01*
X33794602Y-71289466D01*
X33799412Y-71240635D01*
X33808984Y-71192510D01*
X33823228Y-71145555D01*
X33842005Y-71100222D01*
X33865136Y-71056949D01*
X33892396Y-71016150D01*
X33923524Y-70978221D01*
X33958221Y-70943524D01*
X33996150Y-70912396D01*
X34036949Y-70885136D01*
X34080222Y-70862005D01*
X34125555Y-70843228D01*
X34172510Y-70828984D01*
X34220635Y-70819412D01*
X34269466Y-70814602D01*
X34294000Y-70814602D01*
X34294000Y-70814000D01*
X34794000Y-70814000D01*
X34794000Y-70814602D01*
X34818534Y-70814602D01*
X34867365Y-70819412D01*
X34915490Y-70828984D01*
X34962445Y-70843228D01*
X35007778Y-70862005D01*
X35051051Y-70885136D01*
X35091850Y-70912396D01*
X35129779Y-70943524D01*
X35164476Y-70978221D01*
X35195604Y-71016150D01*
X35222864Y-71056949D01*
X35245995Y-71100222D01*
X35264772Y-71145555D01*
X35279016Y-71192510D01*
X35288588Y-71240635D01*
X35293398Y-71289466D01*
X35293398Y-71314000D01*
X35294000Y-71314000D01*
X35294000Y-71864000D01*
X33794000Y-71864000D01*
X33794000Y-71314000D01*
X33794602Y-71314000D01*
G37*
%TD.AperFunction*%
%TD*%
%TA.AperFunction,SMDPad,CuDef*%
%TO.P,JP3,1*%
%TO.N,ADB_1_PWR_ON*%
G36*
X31254000Y-71864000D02*
G01*
X31254000Y-71314000D01*
X31254602Y-71314000D01*
X31254602Y-71289466D01*
X31259412Y-71240635D01*
X31268984Y-71192510D01*
X31283228Y-71145555D01*
X31302005Y-71100222D01*
X31325136Y-71056949D01*
X31352396Y-71016150D01*
X31383524Y-70978221D01*
X31418221Y-70943524D01*
X31456150Y-70912396D01*
X31496949Y-70885136D01*
X31540222Y-70862005D01*
X31585555Y-70843228D01*
X31632510Y-70828984D01*
X31680635Y-70819412D01*
X31729466Y-70814602D01*
X31754000Y-70814602D01*
X31754000Y-70814000D01*
X32254000Y-70814000D01*
X32254000Y-70814602D01*
X32278534Y-70814602D01*
X32327365Y-70819412D01*
X32375490Y-70828984D01*
X32422445Y-70843228D01*
X32467778Y-70862005D01*
X32511051Y-70885136D01*
X32551850Y-70912396D01*
X32589779Y-70943524D01*
X32624476Y-70978221D01*
X32655604Y-71016150D01*
X32682864Y-71056949D01*
X32705995Y-71100222D01*
X32724772Y-71145555D01*
X32739016Y-71192510D01*
X32748588Y-71240635D01*
X32753398Y-71289466D01*
X32753398Y-71314000D01*
X32754000Y-71314000D01*
X32754000Y-71864000D01*
X31254000Y-71864000D01*
G37*
%TD.AperFunction*%
D17*
%TO.P,JP3,2*%
%TO.N,Net-(JP3-Pad2)*%
X32004000Y-72614000D03*
%TA.AperFunction,SMDPad,CuDef*%
D15*
%TO.P,JP3,3*%
%TO.N,ADB_PWR_ON_LV*%
G36*
X32753398Y-73914000D02*
G01*
X32753398Y-73938534D01*
X32748588Y-73987365D01*
X32739016Y-74035490D01*
X32724772Y-74082445D01*
X32705995Y-74127778D01*
X32682864Y-74171051D01*
X32655604Y-74211850D01*
X32624476Y-74249779D01*
X32589779Y-74284476D01*
X32551850Y-74315604D01*
X32511051Y-74342864D01*
X32467778Y-74365995D01*
X32422445Y-74384772D01*
X32375490Y-74399016D01*
X32327365Y-74408588D01*
X32278534Y-74413398D01*
X32254000Y-74413398D01*
X32254000Y-74414000D01*
X31754000Y-74414000D01*
X31754000Y-74413398D01*
X31729466Y-74413398D01*
X31680635Y-74408588D01*
X31632510Y-74399016D01*
X31585555Y-74384772D01*
X31540222Y-74365995D01*
X31496949Y-74342864D01*
X31456150Y-74315604D01*
X31418221Y-74284476D01*
X31383524Y-74249779D01*
X31352396Y-74211850D01*
X31325136Y-74171051D01*
X31302005Y-74127778D01*
X31283228Y-74082445D01*
X31268984Y-74035490D01*
X31259412Y-73987365D01*
X31254602Y-73938534D01*
X31254602Y-73914000D01*
X31254000Y-73914000D01*
X31254000Y-73364000D01*
X32754000Y-73364000D01*
X32754000Y-73914000D01*
X32753398Y-73914000D01*
G37*
%TD.AperFunction*%
%TD*%
%TA.AperFunction,SMDPad,CuDef*%
%TO.P,JP2,1*%
%TO.N,ADB_DATA_LV*%
G36*
X43676000Y-73364000D02*
G01*
X43676000Y-73914000D01*
X43675398Y-73914000D01*
X43675398Y-73938534D01*
X43670588Y-73987365D01*
X43661016Y-74035490D01*
X43646772Y-74082445D01*
X43627995Y-74127778D01*
X43604864Y-74171051D01*
X43577604Y-74211850D01*
X43546476Y-74249779D01*
X43511779Y-74284476D01*
X43473850Y-74315604D01*
X43433051Y-74342864D01*
X43389778Y-74365995D01*
X43344445Y-74384772D01*
X43297490Y-74399016D01*
X43249365Y-74408588D01*
X43200534Y-74413398D01*
X43176000Y-74413398D01*
X43176000Y-74414000D01*
X42676000Y-74414000D01*
X42676000Y-74413398D01*
X42651466Y-74413398D01*
X42602635Y-74408588D01*
X42554510Y-74399016D01*
X42507555Y-74384772D01*
X42462222Y-74365995D01*
X42418949Y-74342864D01*
X42378150Y-74315604D01*
X42340221Y-74284476D01*
X42305524Y-74249779D01*
X42274396Y-74211850D01*
X42247136Y-74171051D01*
X42224005Y-74127778D01*
X42205228Y-74082445D01*
X42190984Y-74035490D01*
X42181412Y-73987365D01*
X42176602Y-73938534D01*
X42176602Y-73914000D01*
X42176000Y-73914000D01*
X42176000Y-73364000D01*
X43676000Y-73364000D01*
G37*
%TD.AperFunction*%
D17*
%TO.P,JP2,2*%
%TO.N,Net-(JP2-Pad2)*%
X42926000Y-72614000D03*
%TA.AperFunction,SMDPad,CuDef*%
D15*
%TO.P,JP2,3*%
%TO.N,ADB_1_DATA*%
G36*
X42176602Y-71314000D02*
G01*
X42176602Y-71289466D01*
X42181412Y-71240635D01*
X42190984Y-71192510D01*
X42205228Y-71145555D01*
X42224005Y-71100222D01*
X42247136Y-71056949D01*
X42274396Y-71016150D01*
X42305524Y-70978221D01*
X42340221Y-70943524D01*
X42378150Y-70912396D01*
X42418949Y-70885136D01*
X42462222Y-70862005D01*
X42507555Y-70843228D01*
X42554510Y-70828984D01*
X42602635Y-70819412D01*
X42651466Y-70814602D01*
X42676000Y-70814602D01*
X42676000Y-70814000D01*
X43176000Y-70814000D01*
X43176000Y-70814602D01*
X43200534Y-70814602D01*
X43249365Y-70819412D01*
X43297490Y-70828984D01*
X43344445Y-70843228D01*
X43389778Y-70862005D01*
X43433051Y-70885136D01*
X43473850Y-70912396D01*
X43511779Y-70943524D01*
X43546476Y-70978221D01*
X43577604Y-71016150D01*
X43604864Y-71056949D01*
X43627995Y-71100222D01*
X43646772Y-71145555D01*
X43661016Y-71192510D01*
X43670588Y-71240635D01*
X43675398Y-71289466D01*
X43675398Y-71314000D01*
X43676000Y-71314000D01*
X43676000Y-71864000D01*
X42176000Y-71864000D01*
X42176000Y-71314000D01*
X42176602Y-71314000D01*
G37*
%TD.AperFunction*%
%TD*%
%TA.AperFunction,SMDPad,CuDef*%
%TO.P,JP1,1*%
%TO.N,ADB_1_DATA*%
G36*
X39636000Y-71864000D02*
G01*
X39636000Y-71314000D01*
X39636602Y-71314000D01*
X39636602Y-71289466D01*
X39641412Y-71240635D01*
X39650984Y-71192510D01*
X39665228Y-71145555D01*
X39684005Y-71100222D01*
X39707136Y-71056949D01*
X39734396Y-71016150D01*
X39765524Y-70978221D01*
X39800221Y-70943524D01*
X39838150Y-70912396D01*
X39878949Y-70885136D01*
X39922222Y-70862005D01*
X39967555Y-70843228D01*
X40014510Y-70828984D01*
X40062635Y-70819412D01*
X40111466Y-70814602D01*
X40136000Y-70814602D01*
X40136000Y-70814000D01*
X40636000Y-70814000D01*
X40636000Y-70814602D01*
X40660534Y-70814602D01*
X40709365Y-70819412D01*
X40757490Y-70828984D01*
X40804445Y-70843228D01*
X40849778Y-70862005D01*
X40893051Y-70885136D01*
X40933850Y-70912396D01*
X40971779Y-70943524D01*
X41006476Y-70978221D01*
X41037604Y-71016150D01*
X41064864Y-71056949D01*
X41087995Y-71100222D01*
X41106772Y-71145555D01*
X41121016Y-71192510D01*
X41130588Y-71240635D01*
X41135398Y-71289466D01*
X41135398Y-71314000D01*
X41136000Y-71314000D01*
X41136000Y-71864000D01*
X39636000Y-71864000D01*
G37*
%TD.AperFunction*%
D17*
%TO.P,JP1,2*%
%TO.N,Net-(JP1-Pad2)*%
X40386000Y-72614000D03*
%TA.AperFunction,SMDPad,CuDef*%
D15*
%TO.P,JP1,3*%
%TO.N,ADB_DATA_LV*%
G36*
X41135398Y-73914000D02*
G01*
X41135398Y-73938534D01*
X41130588Y-73987365D01*
X41121016Y-74035490D01*
X41106772Y-74082445D01*
X41087995Y-74127778D01*
X41064864Y-74171051D01*
X41037604Y-74211850D01*
X41006476Y-74249779D01*
X40971779Y-74284476D01*
X40933850Y-74315604D01*
X40893051Y-74342864D01*
X40849778Y-74365995D01*
X40804445Y-74384772D01*
X40757490Y-74399016D01*
X40709365Y-74408588D01*
X40660534Y-74413398D01*
X40636000Y-74413398D01*
X40636000Y-74414000D01*
X40136000Y-74414000D01*
X40136000Y-74413398D01*
X40111466Y-74413398D01*
X40062635Y-74408588D01*
X40014510Y-74399016D01*
X39967555Y-74384772D01*
X39922222Y-74365995D01*
X39878949Y-74342864D01*
X39838150Y-74315604D01*
X39800221Y-74284476D01*
X39765524Y-74249779D01*
X39734396Y-74211850D01*
X39707136Y-74171051D01*
X39684005Y-74127778D01*
X39665228Y-74082445D01*
X39650984Y-74035490D01*
X39641412Y-73987365D01*
X39636602Y-73938534D01*
X39636602Y-73914000D01*
X39636000Y-73914000D01*
X39636000Y-73364000D01*
X41136000Y-73364000D01*
X41136000Y-73914000D01*
X41135398Y-73914000D01*
G37*
%TD.AperFunction*%
%TD*%
D12*
%TO.P,J6,6*%
%TO.N,GND*%
X33020000Y-56134000D03*
%TO.P,J6,5*%
%TO.N,/RESET*%
X30480000Y-56134000D03*
%TO.P,J6,4*%
%TO.N,ATMEGA_SPI_MOSI*%
X33020000Y-53594000D03*
%TO.P,J6,3*%
%TO.N,ATMEGA_SPI_SCLK*%
X30480000Y-53594000D03*
%TO.P,J6,2*%
%TO.N,+3V3*%
X33020000Y-51054000D03*
D13*
%TO.P,J6,1*%
%TO.N,ATMEGA_SPI_MISO*%
X30480000Y-51054000D03*
%TD*%
%TO.P,R16,2*%
%TO.N,ATMEGA_SPI_SCLK*%
%TA.AperFunction,SMDPad,CuDef*%
G36*
G01*
X45004520Y-43649109D02*
X44742891Y-43387480D01*
G75*
G02*
X44742891Y-43196562I95459J95459D01*
G01*
X44933810Y-43005643D01*
G75*
G02*
X45124728Y-43005643I95459J-95459D01*
G01*
X45386357Y-43267272D01*
G75*
G02*
X45386357Y-43458190I-95459J-95459D01*
G01*
X45195438Y-43649109D01*
G75*
G02*
X45004520Y-43649109I-95459J95459D01*
G01*
G37*
%TD.AperFunction*%
%TO.P,R16,1*%
%TO.N,MAX3421_SPI_SCLK*%
%TA.AperFunction,SMDPad,CuDef*%
G36*
G01*
X44283272Y-44370357D02*
X44021643Y-44108728D01*
G75*
G02*
X44021643Y-43917810I95459J95459D01*
G01*
X44212562Y-43726891D01*
G75*
G02*
X44403480Y-43726891I95459J-95459D01*
G01*
X44665109Y-43988520D01*
G75*
G02*
X44665109Y-44179438I-95459J-95459D01*
G01*
X44474190Y-44370357D01*
G75*
G02*
X44283272Y-44370357I-95459J95459D01*
G01*
G37*
%TD.AperFunction*%
%TD*%
%TO.P,R14,2*%
%TO.N,ATMEGA_SPI_MOSI*%
%TA.AperFunction,SMDPad,CuDef*%
G36*
G01*
X42718520Y-41363109D02*
X42456891Y-41101480D01*
G75*
G02*
X42456891Y-40910562I95459J95459D01*
G01*
X42647810Y-40719643D01*
G75*
G02*
X42838728Y-40719643I95459J-95459D01*
G01*
X43100357Y-40981272D01*
G75*
G02*
X43100357Y-41172190I-95459J-95459D01*
G01*
X42909438Y-41363109D01*
G75*
G02*
X42718520Y-41363109I-95459J95459D01*
G01*
G37*
%TD.AperFunction*%
%TO.P,R14,1*%
%TO.N,MAX3421_SPI_MOSI*%
%TA.AperFunction,SMDPad,CuDef*%
G36*
G01*
X41997272Y-42084357D02*
X41735643Y-41822728D01*
G75*
G02*
X41735643Y-41631810I95459J95459D01*
G01*
X41926562Y-41440891D01*
G75*
G02*
X42117480Y-41440891I95459J-95459D01*
G01*
X42379109Y-41702520D01*
G75*
G02*
X42379109Y-41893438I-95459J-95459D01*
G01*
X42188190Y-42084357D01*
G75*
G02*
X41997272Y-42084357I-95459J95459D01*
G01*
G37*
%TD.AperFunction*%
%TD*%
%TO.P,R13,2*%
%TO.N,ATMEGA_SS*%
%TA.AperFunction,SMDPad,CuDef*%
G36*
G01*
X44242520Y-42887109D02*
X43980891Y-42625480D01*
G75*
G02*
X43980891Y-42434562I95459J95459D01*
G01*
X44171810Y-42243643D01*
G75*
G02*
X44362728Y-42243643I95459J-95459D01*
G01*
X44624357Y-42505272D01*
G75*
G02*
X44624357Y-42696190I-95459J-95459D01*
G01*
X44433438Y-42887109D01*
G75*
G02*
X44242520Y-42887109I-95459J95459D01*
G01*
G37*
%TD.AperFunction*%
%TO.P,R13,1*%
%TO.N,MAX3421_SS*%
%TA.AperFunction,SMDPad,CuDef*%
G36*
G01*
X43521272Y-43608357D02*
X43259643Y-43346728D01*
G75*
G02*
X43259643Y-43155810I95459J95459D01*
G01*
X43450562Y-42964891D01*
G75*
G02*
X43641480Y-42964891I95459J-95459D01*
G01*
X43903109Y-43226520D01*
G75*
G02*
X43903109Y-43417438I-95459J-95459D01*
G01*
X43712190Y-43608357D01*
G75*
G02*
X43521272Y-43608357I-95459J95459D01*
G01*
G37*
%TD.AperFunction*%
%TD*%
%TO.P,R15,2*%
%TO.N,ATMEGA_SPI_MISO*%
%TA.AperFunction,SMDPad,CuDef*%
G36*
G01*
X43480520Y-42125109D02*
X43218891Y-41863480D01*
G75*
G02*
X43218891Y-41672562I95459J95459D01*
G01*
X43409810Y-41481643D01*
G75*
G02*
X43600728Y-41481643I95459J-95459D01*
G01*
X43862357Y-41743272D01*
G75*
G02*
X43862357Y-41934190I-95459J-95459D01*
G01*
X43671438Y-42125109D01*
G75*
G02*
X43480520Y-42125109I-95459J95459D01*
G01*
G37*
%TD.AperFunction*%
%TO.P,R15,1*%
%TO.N,MAX3421_SPI_MISO*%
%TA.AperFunction,SMDPad,CuDef*%
G36*
G01*
X42759272Y-42846357D02*
X42497643Y-42584728D01*
G75*
G02*
X42497643Y-42393810I95459J95459D01*
G01*
X42688562Y-42202891D01*
G75*
G02*
X42879480Y-42202891I95459J-95459D01*
G01*
X43141109Y-42464520D01*
G75*
G02*
X43141109Y-42655438I-95459J-95459D01*
G01*
X42950190Y-42846357D01*
G75*
G02*
X42759272Y-42846357I-95459J95459D01*
G01*
G37*
%TD.AperFunction*%
%TD*%
D18*
%TO.P,Q1,3*%
%TO.N,Net-(JP2-Pad2)*%
X45974000Y-69866000D03*
%TO.P,Q1,2*%
%TO.N,Net-(JP1-Pad2)*%
X46924000Y-71866000D03*
%TO.P,Q1,1*%
%TO.N,+3V3*%
X45024000Y-71866000D03*
%TD*%
%TO.P,C12,2*%
%TO.N,GND*%
%TA.AperFunction,SMDPad,CuDef*%
G36*
G01*
X35106000Y-42756000D02*
X35106000Y-43096000D01*
G75*
G02*
X34966000Y-43236000I-140000J0D01*
G01*
X34686000Y-43236000D01*
G75*
G02*
X34546000Y-43096000I0J140000D01*
G01*
X34546000Y-42756000D01*
G75*
G02*
X34686000Y-42616000I140000J0D01*
G01*
X34966000Y-42616000D01*
G75*
G02*
X35106000Y-42756000I0J-140000D01*
G01*
G37*
%TD.AperFunction*%
%TO.P,C12,1*%
%TO.N,Net-(C12-Pad1)*%
%TA.AperFunction,SMDPad,CuDef*%
G36*
G01*
X36066000Y-42756000D02*
X36066000Y-43096000D01*
G75*
G02*
X35926000Y-43236000I-140000J0D01*
G01*
X35646000Y-43236000D01*
G75*
G02*
X35506000Y-43096000I0J140000D01*
G01*
X35506000Y-42756000D01*
G75*
G02*
X35646000Y-42616000I140000J0D01*
G01*
X35926000Y-42616000D01*
G75*
G02*
X36066000Y-42756000I0J-140000D01*
G01*
G37*
%TD.AperFunction*%
%TD*%
D19*
%TO.P,Y2,4*%
%TO.N,GND*%
X32854000Y-45900000D03*
%TO.P,Y2,3*%
%TO.N,Net-(C10-Pad1)*%
X32854000Y-48100000D03*
%TO.P,Y2,2*%
%TO.N,GND*%
X31154000Y-48100000D03*
%TO.P,Y2,1*%
%TO.N,Net-(C11-Pad1)*%
X31154000Y-45900000D03*
%TD*%
%TO.P,C13,2*%
%TO.N,GND*%
%TA.AperFunction,SMDPad,CuDef*%
G36*
G01*
X45890000Y-49838000D02*
X45550000Y-49838000D01*
G75*
G02*
X45410000Y-49698000I0J140000D01*
G01*
X45410000Y-49418000D01*
G75*
G02*
X45550000Y-49278000I140000J0D01*
G01*
X45890000Y-49278000D01*
G75*
G02*
X46030000Y-49418000I0J-140000D01*
G01*
X46030000Y-49698000D01*
G75*
G02*
X45890000Y-49838000I-140000J0D01*
G01*
G37*
%TD.AperFunction*%
%TO.P,C13,1*%
%TO.N,+3V3*%
%TA.AperFunction,SMDPad,CuDef*%
G36*
G01*
X45890000Y-50798000D02*
X45550000Y-50798000D01*
G75*
G02*
X45410000Y-50658000I0J140000D01*
G01*
X45410000Y-50378000D01*
G75*
G02*
X45550000Y-50238000I140000J0D01*
G01*
X45890000Y-50238000D01*
G75*
G02*
X46030000Y-50378000I0J-140000D01*
G01*
X46030000Y-50658000D01*
G75*
G02*
X45890000Y-50798000I-140000J0D01*
G01*
G37*
%TD.AperFunction*%
%TD*%
D20*
%TO.P,J5,S3*%
%TO.N,GND*%
X27356000Y-73710000D03*
%TO.P,J5,S2*%
X27356000Y-60910000D03*
D21*
%TO.P,J5,S1*%
X28056000Y-67310000D03*
%TD*%
D20*
%TO.P,J4,S3*%
%TO.N,GND*%
X47574000Y-60910000D03*
%TO.P,J4,S2*%
X47574000Y-73710000D03*
D21*
%TO.P,J4,S1*%
X46874000Y-67310000D03*
%TD*%
%TO.P,R12,2*%
%TO.N,Net-(D3-Pad2)*%
%TA.AperFunction,SMDPad,CuDef*%
G36*
G01*
X31427000Y-59196000D02*
X31057000Y-59196000D01*
G75*
G02*
X30922000Y-59061000I0J135000D01*
G01*
X30922000Y-58791000D01*
G75*
G02*
X31057000Y-58656000I135000J0D01*
G01*
X31427000Y-58656000D01*
G75*
G02*
X31562000Y-58791000I0J-135000D01*
G01*
X31562000Y-59061000D01*
G75*
G02*
X31427000Y-59196000I-135000J0D01*
G01*
G37*
%TD.AperFunction*%
%TO.P,R12,1*%
%TO.N,DEBUG_LED*%
%TA.AperFunction,SMDPad,CuDef*%
G36*
G01*
X31427000Y-60216000D02*
X31057000Y-60216000D01*
G75*
G02*
X30922000Y-60081000I0J135000D01*
G01*
X30922000Y-59811000D01*
G75*
G02*
X31057000Y-59676000I135000J0D01*
G01*
X31427000Y-59676000D01*
G75*
G02*
X31562000Y-59811000I0J-135000D01*
G01*
X31562000Y-60081000D01*
G75*
G02*
X31427000Y-60216000I-135000J0D01*
G01*
G37*
%TD.AperFunction*%
%TD*%
%TO.P,R11,2*%
%TO.N,ADB_1_PWR_ON*%
%TA.AperFunction,SMDPad,CuDef*%
G36*
G01*
X36137000Y-72122000D02*
X36507000Y-72122000D01*
G75*
G02*
X36642000Y-72257000I0J-135000D01*
G01*
X36642000Y-72527000D01*
G75*
G02*
X36507000Y-72662000I-135000J0D01*
G01*
X36137000Y-72662000D01*
G75*
G02*
X36002000Y-72527000I0J135000D01*
G01*
X36002000Y-72257000D01*
G75*
G02*
X36137000Y-72122000I135000J0D01*
G01*
G37*
%TD.AperFunction*%
%TO.P,R11,1*%
%TO.N,ADB_1_5v*%
%TA.AperFunction,SMDPad,CuDef*%
G36*
G01*
X36137000Y-71102000D02*
X36507000Y-71102000D01*
G75*
G02*
X36642000Y-71237000I0J-135000D01*
G01*
X36642000Y-71507000D01*
G75*
G02*
X36507000Y-71642000I-135000J0D01*
G01*
X36137000Y-71642000D01*
G75*
G02*
X36002000Y-71507000I0J135000D01*
G01*
X36002000Y-71237000D01*
G75*
G02*
X36137000Y-71102000I135000J0D01*
G01*
G37*
%TD.AperFunction*%
%TD*%
%TO.P,R10,2*%
%TO.N,ADB_PWR_ON_LV*%
%TA.AperFunction,SMDPad,CuDef*%
G36*
G01*
X36507000Y-73674000D02*
X36137000Y-73674000D01*
G75*
G02*
X36002000Y-73539000I0J135000D01*
G01*
X36002000Y-73269000D01*
G75*
G02*
X36137000Y-73134000I135000J0D01*
G01*
X36507000Y-73134000D01*
G75*
G02*
X36642000Y-73269000I0J-135000D01*
G01*
X36642000Y-73539000D01*
G75*
G02*
X36507000Y-73674000I-135000J0D01*
G01*
G37*
%TD.AperFunction*%
%TO.P,R10,1*%
%TO.N,+3V3*%
%TA.AperFunction,SMDPad,CuDef*%
G36*
G01*
X36507000Y-74694000D02*
X36137000Y-74694000D01*
G75*
G02*
X36002000Y-74559000I0J135000D01*
G01*
X36002000Y-74289000D01*
G75*
G02*
X36137000Y-74154000I135000J0D01*
G01*
X36507000Y-74154000D01*
G75*
G02*
X36642000Y-74289000I0J-135000D01*
G01*
X36642000Y-74559000D01*
G75*
G02*
X36507000Y-74694000I-135000J0D01*
G01*
G37*
%TD.AperFunction*%
%TD*%
%TO.P,R9,2*%
%TO.N,ADB_1_DATA*%
%TA.AperFunction,SMDPad,CuDef*%
G36*
G01*
X38423000Y-72122000D02*
X38793000Y-72122000D01*
G75*
G02*
X38928000Y-72257000I0J-135000D01*
G01*
X38928000Y-72527000D01*
G75*
G02*
X38793000Y-72662000I-135000J0D01*
G01*
X38423000Y-72662000D01*
G75*
G02*
X38288000Y-72527000I0J135000D01*
G01*
X38288000Y-72257000D01*
G75*
G02*
X38423000Y-72122000I135000J0D01*
G01*
G37*
%TD.AperFunction*%
%TO.P,R9,1*%
%TO.N,ADB_1_5v*%
%TA.AperFunction,SMDPad,CuDef*%
G36*
G01*
X38423000Y-71102000D02*
X38793000Y-71102000D01*
G75*
G02*
X38928000Y-71237000I0J-135000D01*
G01*
X38928000Y-71507000D01*
G75*
G02*
X38793000Y-71642000I-135000J0D01*
G01*
X38423000Y-71642000D01*
G75*
G02*
X38288000Y-71507000I0J135000D01*
G01*
X38288000Y-71237000D01*
G75*
G02*
X38423000Y-71102000I135000J0D01*
G01*
G37*
%TD.AperFunction*%
%TD*%
%TO.P,R8,2*%
%TO.N,ADB_DATA_LV*%
%TA.AperFunction,SMDPad,CuDef*%
G36*
G01*
X38793000Y-73674000D02*
X38423000Y-73674000D01*
G75*
G02*
X38288000Y-73539000I0J135000D01*
G01*
X38288000Y-73269000D01*
G75*
G02*
X38423000Y-73134000I135000J0D01*
G01*
X38793000Y-73134000D01*
G75*
G02*
X38928000Y-73269000I0J-135000D01*
G01*
X38928000Y-73539000D01*
G75*
G02*
X38793000Y-73674000I-135000J0D01*
G01*
G37*
%TD.AperFunction*%
%TO.P,R8,1*%
%TO.N,+3V3*%
%TA.AperFunction,SMDPad,CuDef*%
G36*
G01*
X38793000Y-74694000D02*
X38423000Y-74694000D01*
G75*
G02*
X38288000Y-74559000I0J135000D01*
G01*
X38288000Y-74289000D01*
G75*
G02*
X38423000Y-74154000I135000J0D01*
G01*
X38793000Y-74154000D01*
G75*
G02*
X38928000Y-74289000I0J-135000D01*
G01*
X38928000Y-74559000D01*
G75*
G02*
X38793000Y-74694000I-135000J0D01*
G01*
G37*
%TD.AperFunction*%
%TD*%
%TO.P,R7,2*%
%TO.N,Net-(J3-Pad3)*%
%TA.AperFunction,SMDPad,CuDef*%
G36*
G01*
X39638000Y-31819000D02*
X39638000Y-32189000D01*
G75*
G02*
X39503000Y-32324000I-135000J0D01*
G01*
X39233000Y-32324000D01*
G75*
G02*
X39098000Y-32189000I0J135000D01*
G01*
X39098000Y-31819000D01*
G75*
G02*
X39233000Y-31684000I135000J0D01*
G01*
X39503000Y-31684000D01*
G75*
G02*
X39638000Y-31819000I0J-135000D01*
G01*
G37*
%TD.AperFunction*%
%TO.P,R7,1*%
%TO.N,Host_USB_D+*%
%TA.AperFunction,SMDPad,CuDef*%
G36*
G01*
X40658000Y-31819000D02*
X40658000Y-32189000D01*
G75*
G02*
X40523000Y-32324000I-135000J0D01*
G01*
X40253000Y-32324000D01*
G75*
G02*
X40118000Y-32189000I0J135000D01*
G01*
X40118000Y-31819000D01*
G75*
G02*
X40253000Y-31684000I135000J0D01*
G01*
X40523000Y-31684000D01*
G75*
G02*
X40658000Y-31819000I0J-135000D01*
G01*
G37*
%TD.AperFunction*%
%TD*%
%TO.P,R6,2*%
%TO.N,Host_USB_D-*%
%TA.AperFunction,SMDPad,CuDef*%
G36*
G01*
X40116000Y-34729000D02*
X40116000Y-34359000D01*
G75*
G02*
X40251000Y-34224000I135000J0D01*
G01*
X40521000Y-34224000D01*
G75*
G02*
X40656000Y-34359000I0J-135000D01*
G01*
X40656000Y-34729000D01*
G75*
G02*
X40521000Y-34864000I-135000J0D01*
G01*
X40251000Y-34864000D01*
G75*
G02*
X40116000Y-34729000I0J135000D01*
G01*
G37*
%TD.AperFunction*%
%TO.P,R6,1*%
%TO.N,Net-(J3-Pad2)*%
%TA.AperFunction,SMDPad,CuDef*%
G36*
G01*
X39096000Y-34729000D02*
X39096000Y-34359000D01*
G75*
G02*
X39231000Y-34224000I135000J0D01*
G01*
X39501000Y-34224000D01*
G75*
G02*
X39636000Y-34359000I0J-135000D01*
G01*
X39636000Y-34729000D01*
G75*
G02*
X39501000Y-34864000I-135000J0D01*
G01*
X39231000Y-34864000D01*
G75*
G02*
X39096000Y-34729000I0J135000D01*
G01*
G37*
%TD.AperFunction*%
%TD*%
%TO.P,R5,2*%
%TO.N,Net-(D2-Pad2)*%
%TA.AperFunction,SMDPad,CuDef*%
G36*
G01*
X30024640Y-40983320D02*
X30024640Y-41353320D01*
G75*
G02*
X29889640Y-41488320I-135000J0D01*
G01*
X29619640Y-41488320D01*
G75*
G02*
X29484640Y-41353320I0J135000D01*
G01*
X29484640Y-40983320D01*
G75*
G02*
X29619640Y-40848320I135000J0D01*
G01*
X29889640Y-40848320D01*
G75*
G02*
X30024640Y-40983320I0J-135000D01*
G01*
G37*
%TD.AperFunction*%
%TO.P,R5,1*%
%TO.N,VBUS*%
%TA.AperFunction,SMDPad,CuDef*%
G36*
G01*
X31044640Y-40983320D02*
X31044640Y-41353320D01*
G75*
G02*
X30909640Y-41488320I-135000J0D01*
G01*
X30639640Y-41488320D01*
G75*
G02*
X30504640Y-41353320I0J135000D01*
G01*
X30504640Y-40983320D01*
G75*
G02*
X30639640Y-40848320I135000J0D01*
G01*
X30909640Y-40848320D01*
G75*
G02*
X31044640Y-40983320I0J-135000D01*
G01*
G37*
%TD.AperFunction*%
%TD*%
%TO.P,R4,2*%
%TO.N,Net-(D1-Pad2)*%
%TA.AperFunction,SMDPad,CuDef*%
G36*
G01*
X30019560Y-41994240D02*
X30019560Y-42364240D01*
G75*
G02*
X29884560Y-42499240I-135000J0D01*
G01*
X29614560Y-42499240D01*
G75*
G02*
X29479560Y-42364240I0J135000D01*
G01*
X29479560Y-41994240D01*
G75*
G02*
X29614560Y-41859240I135000J0D01*
G01*
X29884560Y-41859240D01*
G75*
G02*
X30019560Y-41994240I0J-135000D01*
G01*
G37*
%TD.AperFunction*%
%TO.P,R4,1*%
%TO.N,+3V3*%
%TA.AperFunction,SMDPad,CuDef*%
G36*
G01*
X31039560Y-41994240D02*
X31039560Y-42364240D01*
G75*
G02*
X30904560Y-42499240I-135000J0D01*
G01*
X30634560Y-42499240D01*
G75*
G02*
X30499560Y-42364240I0J135000D01*
G01*
X30499560Y-41994240D01*
G75*
G02*
X30634560Y-41859240I135000J0D01*
G01*
X30904560Y-41859240D01*
G75*
G02*
X31039560Y-41994240I0J-135000D01*
G01*
G37*
%TD.AperFunction*%
%TD*%
%TO.P,R3,2*%
%TO.N,MAX3421_INT*%
%TA.AperFunction,SMDPad,CuDef*%
G36*
G01*
X37407000Y-41896000D02*
X37777000Y-41896000D01*
G75*
G02*
X37912000Y-42031000I0J-135000D01*
G01*
X37912000Y-42301000D01*
G75*
G02*
X37777000Y-42436000I-135000J0D01*
G01*
X37407000Y-42436000D01*
G75*
G02*
X37272000Y-42301000I0J135000D01*
G01*
X37272000Y-42031000D01*
G75*
G02*
X37407000Y-41896000I135000J0D01*
G01*
G37*
%TD.AperFunction*%
%TO.P,R3,1*%
%TO.N,+3V3*%
%TA.AperFunction,SMDPad,CuDef*%
G36*
G01*
X37407000Y-40876000D02*
X37777000Y-40876000D01*
G75*
G02*
X37912000Y-41011000I0J-135000D01*
G01*
X37912000Y-41281000D01*
G75*
G02*
X37777000Y-41416000I-135000J0D01*
G01*
X37407000Y-41416000D01*
G75*
G02*
X37272000Y-41281000I0J135000D01*
G01*
X37272000Y-41011000D01*
G75*
G02*
X37407000Y-40876000I135000J0D01*
G01*
G37*
%TD.AperFunction*%
%TD*%
%TO.P,R2,2*%
%TO.N,/RESET*%
%TA.AperFunction,SMDPad,CuDef*%
G36*
G01*
X42434000Y-68014000D02*
X42434000Y-68384000D01*
G75*
G02*
X42299000Y-68519000I-135000J0D01*
G01*
X42029000Y-68519000D01*
G75*
G02*
X41894000Y-68384000I0J135000D01*
G01*
X41894000Y-68014000D01*
G75*
G02*
X42029000Y-67879000I135000J0D01*
G01*
X42299000Y-67879000D01*
G75*
G02*
X42434000Y-68014000I0J-135000D01*
G01*
G37*
%TD.AperFunction*%
%TO.P,R2,1*%
%TO.N,+3V3*%
%TA.AperFunction,SMDPad,CuDef*%
G36*
G01*
X43454000Y-68014000D02*
X43454000Y-68384000D01*
G75*
G02*
X43319000Y-68519000I-135000J0D01*
G01*
X43049000Y-68519000D01*
G75*
G02*
X42914000Y-68384000I0J135000D01*
G01*
X42914000Y-68014000D01*
G75*
G02*
X43049000Y-67879000I135000J0D01*
G01*
X43319000Y-67879000D01*
G75*
G02*
X43454000Y-68014000I0J-135000D01*
G01*
G37*
%TD.AperFunction*%
%TD*%
%TO.P,R1,2*%
%TO.N,Net-(C7-Pad1)*%
%TA.AperFunction,SMDPad,CuDef*%
G36*
G01*
X43446000Y-52901000D02*
X43446000Y-53271000D01*
G75*
G02*
X43311000Y-53406000I-135000J0D01*
G01*
X43041000Y-53406000D01*
G75*
G02*
X42906000Y-53271000I0J135000D01*
G01*
X42906000Y-52901000D01*
G75*
G02*
X43041000Y-52766000I135000J0D01*
G01*
X43311000Y-52766000D01*
G75*
G02*
X43446000Y-52901000I0J-135000D01*
G01*
G37*
%TD.AperFunction*%
%TO.P,R1,1*%
%TO.N,Net-(C6-Pad1)*%
%TA.AperFunction,SMDPad,CuDef*%
G36*
G01*
X44466000Y-52901000D02*
X44466000Y-53271000D01*
G75*
G02*
X44331000Y-53406000I-135000J0D01*
G01*
X44061000Y-53406000D01*
G75*
G02*
X43926000Y-53271000I0J135000D01*
G01*
X43926000Y-52901000D01*
G75*
G02*
X44061000Y-52766000I135000J0D01*
G01*
X44331000Y-52766000D01*
G75*
G02*
X44466000Y-52901000I0J-135000D01*
G01*
G37*
%TD.AperFunction*%
%TD*%
%TO.P,C16,2*%
%TO.N,GND*%
%TA.AperFunction,SMDPad,CuDef*%
G36*
G01*
X31773800Y-67703002D02*
X32014216Y-67943418D01*
G75*
G02*
X32014216Y-68141408I-98995J-98995D01*
G01*
X31816226Y-68339398D01*
G75*
G02*
X31618236Y-68339398I-98995J98995D01*
G01*
X31377820Y-68098982D01*
G75*
G02*
X31377820Y-67900992I98995J98995D01*
G01*
X31575810Y-67703002D01*
G75*
G02*
X31773800Y-67703002I98995J-98995D01*
G01*
G37*
%TD.AperFunction*%
%TO.P,C16,1*%
%TO.N,+3V3*%
%TA.AperFunction,SMDPad,CuDef*%
G36*
G01*
X32452622Y-67024180D02*
X32693038Y-67264596D01*
G75*
G02*
X32693038Y-67462586I-98995J-98995D01*
G01*
X32495048Y-67660576D01*
G75*
G02*
X32297058Y-67660576I-98995J98995D01*
G01*
X32056642Y-67420160D01*
G75*
G02*
X32056642Y-67222170I98995J98995D01*
G01*
X32254632Y-67024180D01*
G75*
G02*
X32452622Y-67024180I98995J-98995D01*
G01*
G37*
%TD.AperFunction*%
%TD*%
%TO.P,C15,2*%
%TO.N,GND*%
%TA.AperFunction,SMDPad,CuDef*%
G36*
G01*
X42439213Y-60713629D02*
X42679629Y-60473213D01*
G75*
G02*
X42877619Y-60473213I98995J-98995D01*
G01*
X43075609Y-60671203D01*
G75*
G02*
X43075609Y-60869193I-98995J-98995D01*
G01*
X42835193Y-61109609D01*
G75*
G02*
X42637203Y-61109609I-98995J98995D01*
G01*
X42439213Y-60911619D01*
G75*
G02*
X42439213Y-60713629I98995J98995D01*
G01*
G37*
%TD.AperFunction*%
%TO.P,C15,1*%
%TO.N,+3V3*%
%TA.AperFunction,SMDPad,CuDef*%
G36*
G01*
X41760391Y-60034807D02*
X42000807Y-59794391D01*
G75*
G02*
X42198797Y-59794391I98995J-98995D01*
G01*
X42396787Y-59992381D01*
G75*
G02*
X42396787Y-60190371I-98995J-98995D01*
G01*
X42156371Y-60430787D01*
G75*
G02*
X41958381Y-60430787I-98995J98995D01*
G01*
X41760391Y-60232797D01*
G75*
G02*
X41760391Y-60034807I98995J98995D01*
G01*
G37*
%TD.AperFunction*%
%TD*%
%TO.P,C14,2*%
%TO.N,GND*%
%TA.AperFunction,SMDPad,CuDef*%
G36*
G01*
X40915213Y-59189629D02*
X41155629Y-58949213D01*
G75*
G02*
X41353619Y-58949213I98995J-98995D01*
G01*
X41551609Y-59147203D01*
G75*
G02*
X41551609Y-59345193I-98995J-98995D01*
G01*
X41311193Y-59585609D01*
G75*
G02*
X41113203Y-59585609I-98995J98995D01*
G01*
X40915213Y-59387619D01*
G75*
G02*
X40915213Y-59189629I98995J98995D01*
G01*
G37*
%TD.AperFunction*%
%TO.P,C14,1*%
%TO.N,+3V3*%
%TA.AperFunction,SMDPad,CuDef*%
G36*
G01*
X40236391Y-58510807D02*
X40476807Y-58270391D01*
G75*
G02*
X40674797Y-58270391I98995J-98995D01*
G01*
X40872787Y-58468381D01*
G75*
G02*
X40872787Y-58666371I-98995J-98995D01*
G01*
X40632371Y-58906787D01*
G75*
G02*
X40434381Y-58906787I-98995J98995D01*
G01*
X40236391Y-58708797D01*
G75*
G02*
X40236391Y-58510807I98995J98995D01*
G01*
G37*
%TD.AperFunction*%
%TD*%
%TO.P,C11,2*%
%TO.N,GND*%
%TA.AperFunction,SMDPad,CuDef*%
G36*
G01*
X29548000Y-46682000D02*
X29888000Y-46682000D01*
G75*
G02*
X30028000Y-46822000I0J-140000D01*
G01*
X30028000Y-47102000D01*
G75*
G02*
X29888000Y-47242000I-140000J0D01*
G01*
X29548000Y-47242000D01*
G75*
G02*
X29408000Y-47102000I0J140000D01*
G01*
X29408000Y-46822000D01*
G75*
G02*
X29548000Y-46682000I140000J0D01*
G01*
G37*
%TD.AperFunction*%
%TO.P,C11,1*%
%TO.N,Net-(C11-Pad1)*%
%TA.AperFunction,SMDPad,CuDef*%
G36*
G01*
X29548000Y-45722000D02*
X29888000Y-45722000D01*
G75*
G02*
X30028000Y-45862000I0J-140000D01*
G01*
X30028000Y-46142000D01*
G75*
G02*
X29888000Y-46282000I-140000J0D01*
G01*
X29548000Y-46282000D01*
G75*
G02*
X29408000Y-46142000I0J140000D01*
G01*
X29408000Y-45862000D01*
G75*
G02*
X29548000Y-45722000I140000J0D01*
G01*
G37*
%TD.AperFunction*%
%TD*%
%TO.P,C10,2*%
%TO.N,GND*%
%TA.AperFunction,SMDPad,CuDef*%
G36*
G01*
X35390000Y-50238000D02*
X35730000Y-50238000D01*
G75*
G02*
X35870000Y-50378000I0J-140000D01*
G01*
X35870000Y-50658000D01*
G75*
G02*
X35730000Y-50798000I-140000J0D01*
G01*
X35390000Y-50798000D01*
G75*
G02*
X35250000Y-50658000I0J140000D01*
G01*
X35250000Y-50378000D01*
G75*
G02*
X35390000Y-50238000I140000J0D01*
G01*
G37*
%TD.AperFunction*%
%TO.P,C10,1*%
%TO.N,Net-(C10-Pad1)*%
%TA.AperFunction,SMDPad,CuDef*%
G36*
G01*
X35390000Y-49278000D02*
X35730000Y-49278000D01*
G75*
G02*
X35870000Y-49418000I0J-140000D01*
G01*
X35870000Y-49698000D01*
G75*
G02*
X35730000Y-49838000I-140000J0D01*
G01*
X35390000Y-49838000D01*
G75*
G02*
X35250000Y-49698000I0J140000D01*
G01*
X35250000Y-49418000D01*
G75*
G02*
X35390000Y-49278000I140000J0D01*
G01*
G37*
%TD.AperFunction*%
%TD*%
%TO.P,C9,2*%
%TO.N,GND*%
%TA.AperFunction,SMDPad,CuDef*%
G36*
G01*
X35106000Y-44280000D02*
X35106000Y-44620000D01*
G75*
G02*
X34966000Y-44760000I-140000J0D01*
G01*
X34686000Y-44760000D01*
G75*
G02*
X34546000Y-44620000I0J140000D01*
G01*
X34546000Y-44280000D01*
G75*
G02*
X34686000Y-44140000I140000J0D01*
G01*
X34966000Y-44140000D01*
G75*
G02*
X35106000Y-44280000I0J-140000D01*
G01*
G37*
%TD.AperFunction*%
%TO.P,C9,1*%
%TO.N,+3V3*%
%TA.AperFunction,SMDPad,CuDef*%
G36*
G01*
X36066000Y-44280000D02*
X36066000Y-44620000D01*
G75*
G02*
X35926000Y-44760000I-140000J0D01*
G01*
X35646000Y-44760000D01*
G75*
G02*
X35506000Y-44620000I0J140000D01*
G01*
X35506000Y-44280000D01*
G75*
G02*
X35646000Y-44140000I140000J0D01*
G01*
X35926000Y-44140000D01*
G75*
G02*
X36066000Y-44280000I0J-140000D01*
G01*
G37*
%TD.AperFunction*%
%TD*%
%TO.P,C8,2*%
%TO.N,GND*%
%TA.AperFunction,SMDPad,CuDef*%
G36*
G01*
X43187629Y-51032787D02*
X42947213Y-50792371D01*
G75*
G02*
X42947213Y-50594381I98995J98995D01*
G01*
X43145203Y-50396391D01*
G75*
G02*
X43343193Y-50396391I98995J-98995D01*
G01*
X43583609Y-50636807D01*
G75*
G02*
X43583609Y-50834797I-98995J-98995D01*
G01*
X43385619Y-51032787D01*
G75*
G02*
X43187629Y-51032787I-98995J98995D01*
G01*
G37*
%TD.AperFunction*%
%TO.P,C8,1*%
%TO.N,+3V3*%
%TA.AperFunction,SMDPad,CuDef*%
G36*
G01*
X42508807Y-51711609D02*
X42268391Y-51471193D01*
G75*
G02*
X42268391Y-51273203I98995J98995D01*
G01*
X42466381Y-51075213D01*
G75*
G02*
X42664371Y-51075213I98995J-98995D01*
G01*
X42904787Y-51315629D01*
G75*
G02*
X42904787Y-51513619I-98995J-98995D01*
G01*
X42706797Y-51711609D01*
G75*
G02*
X42508807Y-51711609I-98995J98995D01*
G01*
G37*
%TD.AperFunction*%
%TD*%
%TO.P,C7,2*%
%TO.N,GND*%
%TA.AperFunction,SMDPad,CuDef*%
G36*
G01*
X40302000Y-54410000D02*
X39962000Y-54410000D01*
G75*
G02*
X39822000Y-54270000I0J140000D01*
G01*
X39822000Y-53990000D01*
G75*
G02*
X39962000Y-53850000I140000J0D01*
G01*
X40302000Y-53850000D01*
G75*
G02*
X40442000Y-53990000I0J-140000D01*
G01*
X40442000Y-54270000D01*
G75*
G02*
X40302000Y-54410000I-140000J0D01*
G01*
G37*
%TD.AperFunction*%
%TO.P,C7,1*%
%TO.N,Net-(C7-Pad1)*%
%TA.AperFunction,SMDPad,CuDef*%
G36*
G01*
X40302000Y-55370000D02*
X39962000Y-55370000D01*
G75*
G02*
X39822000Y-55230000I0J140000D01*
G01*
X39822000Y-54950000D01*
G75*
G02*
X39962000Y-54810000I140000J0D01*
G01*
X40302000Y-54810000D01*
G75*
G02*
X40442000Y-54950000I0J-140000D01*
G01*
X40442000Y-55230000D01*
G75*
G02*
X40302000Y-55370000I-140000J0D01*
G01*
G37*
%TD.AperFunction*%
%TD*%
%TO.P,C6,2*%
%TO.N,GND*%
%TA.AperFunction,SMDPad,CuDef*%
G36*
G01*
X45296000Y-54810000D02*
X45636000Y-54810000D01*
G75*
G02*
X45776000Y-54950000I0J-140000D01*
G01*
X45776000Y-55230000D01*
G75*
G02*
X45636000Y-55370000I-140000J0D01*
G01*
X45296000Y-55370000D01*
G75*
G02*
X45156000Y-55230000I0J140000D01*
G01*
X45156000Y-54950000D01*
G75*
G02*
X45296000Y-54810000I140000J0D01*
G01*
G37*
%TD.AperFunction*%
%TO.P,C6,1*%
%TO.N,Net-(C6-Pad1)*%
%TA.AperFunction,SMDPad,CuDef*%
G36*
G01*
X45296000Y-53850000D02*
X45636000Y-53850000D01*
G75*
G02*
X45776000Y-53990000I0J-140000D01*
G01*
X45776000Y-54270000D01*
G75*
G02*
X45636000Y-54410000I-140000J0D01*
G01*
X45296000Y-54410000D01*
G75*
G02*
X45156000Y-54270000I0J140000D01*
G01*
X45156000Y-53990000D01*
G75*
G02*
X45296000Y-53850000I140000J0D01*
G01*
G37*
%TD.AperFunction*%
%TD*%
%TO.P,C5,2*%
%TO.N,FTDI_DTR*%
%TA.AperFunction,SMDPad,CuDef*%
G36*
G01*
X44299960Y-66376000D02*
X43959960Y-66376000D01*
G75*
G02*
X43819960Y-66236000I0J140000D01*
G01*
X43819960Y-65956000D01*
G75*
G02*
X43959960Y-65816000I140000J0D01*
G01*
X44299960Y-65816000D01*
G75*
G02*
X44439960Y-65956000I0J-140000D01*
G01*
X44439960Y-66236000D01*
G75*
G02*
X44299960Y-66376000I-140000J0D01*
G01*
G37*
%TD.AperFunction*%
%TO.P,C5,1*%
%TO.N,/RESET*%
%TA.AperFunction,SMDPad,CuDef*%
G36*
G01*
X44299960Y-67336000D02*
X43959960Y-67336000D01*
G75*
G02*
X43819960Y-67196000I0J140000D01*
G01*
X43819960Y-66916000D01*
G75*
G02*
X43959960Y-66776000I140000J0D01*
G01*
X44299960Y-66776000D01*
G75*
G02*
X44439960Y-66916000I0J-140000D01*
G01*
X44439960Y-67196000D01*
G75*
G02*
X44299960Y-67336000I-140000J0D01*
G01*
G37*
%TD.AperFunction*%
%TD*%
%TO.P,C4,2*%
%TO.N,GND*%
%TA.AperFunction,SMDPad,CuDef*%
G36*
G01*
X31188000Y-39032000D02*
X31188000Y-38692000D01*
G75*
G02*
X31328000Y-38552000I140000J0D01*
G01*
X31608000Y-38552000D01*
G75*
G02*
X31748000Y-38692000I0J-140000D01*
G01*
X31748000Y-39032000D01*
G75*
G02*
X31608000Y-39172000I-140000J0D01*
G01*
X31328000Y-39172000D01*
G75*
G02*
X31188000Y-39032000I0J140000D01*
G01*
G37*
%TD.AperFunction*%
%TO.P,C4,1*%
%TO.N,+3V3*%
%TA.AperFunction,SMDPad,CuDef*%
G36*
G01*
X30228000Y-39032000D02*
X30228000Y-38692000D01*
G75*
G02*
X30368000Y-38552000I140000J0D01*
G01*
X30648000Y-38552000D01*
G75*
G02*
X30788000Y-38692000I0J-140000D01*
G01*
X30788000Y-39032000D01*
G75*
G02*
X30648000Y-39172000I-140000J0D01*
G01*
X30368000Y-39172000D01*
G75*
G02*
X30228000Y-39032000I0J140000D01*
G01*
G37*
%TD.AperFunction*%
%TD*%
%TO.P,C3,2*%
%TO.N,GND*%
%TA.AperFunction,SMDPad,CuDef*%
G36*
G01*
X28756000Y-38692000D02*
X28756000Y-39032000D01*
G75*
G02*
X28616000Y-39172000I-140000J0D01*
G01*
X28336000Y-39172000D01*
G75*
G02*
X28196000Y-39032000I0J140000D01*
G01*
X28196000Y-38692000D01*
G75*
G02*
X28336000Y-38552000I140000J0D01*
G01*
X28616000Y-38552000D01*
G75*
G02*
X28756000Y-38692000I0J-140000D01*
G01*
G37*
%TD.AperFunction*%
%TO.P,C3,1*%
%TO.N,+3V3*%
%TA.AperFunction,SMDPad,CuDef*%
G36*
G01*
X29716000Y-38692000D02*
X29716000Y-39032000D01*
G75*
G02*
X29576000Y-39172000I-140000J0D01*
G01*
X29296000Y-39172000D01*
G75*
G02*
X29156000Y-39032000I0J140000D01*
G01*
X29156000Y-38692000D01*
G75*
G02*
X29296000Y-38552000I140000J0D01*
G01*
X29576000Y-38552000D01*
G75*
G02*
X29716000Y-38692000I0J-140000D01*
G01*
G37*
%TD.AperFunction*%
%TD*%
%TO.P,C2,2*%
%TO.N,GND*%
%TA.AperFunction,SMDPad,CuDef*%
G36*
G01*
X32463731Y-68398013D02*
X32704147Y-68638429D01*
G75*
G02*
X32704147Y-68836419I-98995J-98995D01*
G01*
X32506157Y-69034409D01*
G75*
G02*
X32308167Y-69034409I-98995J98995D01*
G01*
X32067751Y-68793993D01*
G75*
G02*
X32067751Y-68596003I98995J98995D01*
G01*
X32265741Y-68398013D01*
G75*
G02*
X32463731Y-68398013I98995J-98995D01*
G01*
G37*
%TD.AperFunction*%
%TO.P,C2,1*%
%TO.N,Net-(C2-Pad1)*%
%TA.AperFunction,SMDPad,CuDef*%
G36*
G01*
X33142553Y-67719191D02*
X33382969Y-67959607D01*
G75*
G02*
X33382969Y-68157597I-98995J-98995D01*
G01*
X33184979Y-68355587D01*
G75*
G02*
X32986989Y-68355587I-98995J98995D01*
G01*
X32746573Y-68115171D01*
G75*
G02*
X32746573Y-67917181I98995J98995D01*
G01*
X32944563Y-67719191D01*
G75*
G02*
X33142553Y-67719191I98995J-98995D01*
G01*
G37*
%TD.AperFunction*%
%TD*%
%TO.P,C1,2*%
%TO.N,GND*%
%TA.AperFunction,SMDPad,CuDef*%
G36*
G01*
X34120000Y-37284000D02*
X34460000Y-37284000D01*
G75*
G02*
X34600000Y-37424000I0J-140000D01*
G01*
X34600000Y-37704000D01*
G75*
G02*
X34460000Y-37844000I-140000J0D01*
G01*
X34120000Y-37844000D01*
G75*
G02*
X33980000Y-37704000I0J140000D01*
G01*
X33980000Y-37424000D01*
G75*
G02*
X34120000Y-37284000I140000J0D01*
G01*
G37*
%TD.AperFunction*%
%TO.P,C1,1*%
%TO.N,VBUS*%
%TA.AperFunction,SMDPad,CuDef*%
G36*
G01*
X34120000Y-36324000D02*
X34460000Y-36324000D01*
G75*
G02*
X34600000Y-36464000I0J-140000D01*
G01*
X34600000Y-36744000D01*
G75*
G02*
X34460000Y-36884000I-140000J0D01*
G01*
X34120000Y-36884000D01*
G75*
G02*
X33980000Y-36744000I0J140000D01*
G01*
X33980000Y-36464000D01*
G75*
G02*
X34120000Y-36324000I140000J0D01*
G01*
G37*
%TD.AperFunction*%
%TD*%
%TO.P,D3,2*%
%TO.N,Net-(D3-Pad2)*%
%TA.AperFunction,SMDPad,CuDef*%
G36*
G01*
X25654950Y-51273100D02*
X26567450Y-51273100D01*
G75*
G02*
X26811200Y-51516850I0J-243750D01*
G01*
X26811200Y-52004350D01*
G75*
G02*
X26567450Y-52248100I-243750J0D01*
G01*
X25654950Y-52248100D01*
G75*
G02*
X25411200Y-52004350I0J243750D01*
G01*
X25411200Y-51516850D01*
G75*
G02*
X25654950Y-51273100I243750J0D01*
G01*
G37*
%TD.AperFunction*%
%TO.P,D3,1*%
%TO.N,GND*%
%TA.AperFunction,SMDPad,CuDef*%
G36*
G01*
X25654950Y-49398100D02*
X26567450Y-49398100D01*
G75*
G02*
X26811200Y-49641850I0J-243750D01*
G01*
X26811200Y-50129350D01*
G75*
G02*
X26567450Y-50373100I-243750J0D01*
G01*
X25654950Y-50373100D01*
G75*
G02*
X25411200Y-50129350I0J243750D01*
G01*
X25411200Y-49641850D01*
G75*
G02*
X25654950Y-49398100I243750J0D01*
G01*
G37*
%TD.AperFunction*%
%TD*%
%TO.P,D2,2*%
%TO.N,Net-(D2-Pad2)*%
%TA.AperFunction,SMDPad,CuDef*%
G36*
G01*
X25654950Y-43630000D02*
X26567450Y-43630000D01*
G75*
G02*
X26811200Y-43873750I0J-243750D01*
G01*
X26811200Y-44361250D01*
G75*
G02*
X26567450Y-44605000I-243750J0D01*
G01*
X25654950Y-44605000D01*
G75*
G02*
X25411200Y-44361250I0J243750D01*
G01*
X25411200Y-43873750D01*
G75*
G02*
X25654950Y-43630000I243750J0D01*
G01*
G37*
%TD.AperFunction*%
%TO.P,D2,1*%
%TO.N,GND*%
%TA.AperFunction,SMDPad,CuDef*%
G36*
G01*
X25654950Y-41755000D02*
X26567450Y-41755000D01*
G75*
G02*
X26811200Y-41998750I0J-243750D01*
G01*
X26811200Y-42486250D01*
G75*
G02*
X26567450Y-42730000I-243750J0D01*
G01*
X25654950Y-42730000D01*
G75*
G02*
X25411200Y-42486250I0J243750D01*
G01*
X25411200Y-41998750D01*
G75*
G02*
X25654950Y-41755000I243750J0D01*
G01*
G37*
%TD.AperFunction*%
%TD*%
%TO.P,D1,2*%
%TO.N,Net-(D1-Pad2)*%
%TA.AperFunction,SMDPad,CuDef*%
G36*
G01*
X25654950Y-47451550D02*
X26567450Y-47451550D01*
G75*
G02*
X26811200Y-47695300I0J-243750D01*
G01*
X26811200Y-48182800D01*
G75*
G02*
X26567450Y-48426550I-243750J0D01*
G01*
X25654950Y-48426550D01*
G75*
G02*
X25411200Y-48182800I0J243750D01*
G01*
X25411200Y-47695300D01*
G75*
G02*
X25654950Y-47451550I243750J0D01*
G01*
G37*
%TD.AperFunction*%
%TO.P,D1,1*%
%TO.N,GND*%
%TA.AperFunction,SMDPad,CuDef*%
G36*
G01*
X25654950Y-45576550D02*
X26567450Y-45576550D01*
G75*
G02*
X26811200Y-45820300I0J-243750D01*
G01*
X26811200Y-46307800D01*
G75*
G02*
X26567450Y-46551550I-243750J0D01*
G01*
X25654950Y-46551550D01*
G75*
G02*
X25411200Y-46307800I0J243750D01*
G01*
X25411200Y-45820300D01*
G75*
G02*
X25654950Y-45576550I243750J0D01*
G01*
G37*
%TD.AperFunction*%
%TD*%
D12*
%TO.P,J1,6*%
%TO.N,FTDI_DTR*%
X48000000Y-57700000D03*
%TO.P,J1,5*%
%TO.N,FTDI_TXO*%
X48000000Y-55160000D03*
%TO.P,J1,4*%
%TO.N,FTDI_RXI*%
X48000000Y-52620000D03*
%TO.P,J1,3*%
%TO.N,+3V3*%
X48000000Y-50080000D03*
%TO.P,J1,2*%
%TO.N,N/C*%
X48000000Y-47540000D03*
D13*
%TO.P,J1,1*%
%TO.N,GND*%
X48000000Y-45000000D03*
%TD*%
%TO.P,F1,2*%
%TO.N,VBUS*%
%TA.AperFunction,SMDPad,CuDef*%
G36*
G01*
X34397999Y-34082000D02*
X35198001Y-34082000D01*
G75*
G02*
X35448000Y-34331999I0J-249999D01*
G01*
X35448000Y-35157001D01*
G75*
G02*
X35198001Y-35407000I-249999J0D01*
G01*
X34397999Y-35407000D01*
G75*
G02*
X34148000Y-35157001I0J249999D01*
G01*
X34148000Y-34331999D01*
G75*
G02*
X34397999Y-34082000I249999J0D01*
G01*
G37*
%TD.AperFunction*%
%TO.P,F1,1*%
%TO.N,Net-(F1-Pad1)*%
%TA.AperFunction,SMDPad,CuDef*%
G36*
G01*
X34397999Y-32157000D02*
X35198001Y-32157000D01*
G75*
G02*
X35448000Y-32406999I0J-249999D01*
G01*
X35448000Y-33232001D01*
G75*
G02*
X35198001Y-33482000I-249999J0D01*
G01*
X34397999Y-33482000D01*
G75*
G02*
X34148000Y-33232001I0J249999D01*
G01*
X34148000Y-32406999D01*
G75*
G02*
X34397999Y-32157000I249999J0D01*
G01*
G37*
%TD.AperFunction*%
%TD*%
D22*
%TO.P,Y1,4*%
%TO.N,GND*%
X41742000Y-54434000D03*
%TO.P,Y1,3*%
%TO.N,Net-(C6-Pad1)*%
X43942000Y-54434000D03*
%TO.P,Y1,2*%
%TO.N,GND*%
X43942000Y-56134000D03*
%TO.P,Y1,1*%
%TO.N,Net-(C7-Pad1)*%
X41742000Y-56134000D03*
%TD*%
D18*
%TO.P,Q2,3*%
%TO.N,Net-(JP4-Pad2)*%
X28956000Y-69866000D03*
%TO.P,Q2,2*%
%TO.N,Net-(JP3-Pad2)*%
X29906000Y-71866000D03*
%TO.P,Q2,1*%
%TO.N,+3V3*%
X28006000Y-71866000D03*
%TD*%
D23*
%TO.P,U1,1*%
%TO.N,GND*%
X27672000Y-36884000D03*
%TO.P,U1,3*%
%TO.N,VBUS*%
X32272000Y-36884000D03*
%TO.P,U1,2*%
%TO.N,+3V3*%
X29972000Y-36884000D03*
D24*
X29972000Y-30584000D03*
%TD*%
%TA.AperFunction,SMDPad,CuDef*%
D15*
%TO.P,U2,32*%
%TO.N,ADB_PWR_ON_LV*%
G36*
X41724963Y-64654074D02*
G01*
X42113872Y-64265165D01*
X43245243Y-65396536D01*
X42856334Y-65785445D01*
X41724963Y-64654074D01*
G37*
%TD.AperFunction*%
%TA.AperFunction,SMDPad,CuDef*%
%TO.P,U2,31*%
%TO.N,FTDI_TXO*%
G36*
X41159277Y-65219759D02*
G01*
X41548186Y-64830850D01*
X42679557Y-65962221D01*
X42290648Y-66351130D01*
X41159277Y-65219759D01*
G37*
%TD.AperFunction*%
%TA.AperFunction,SMDPad,CuDef*%
%TO.P,U2,30*%
%TO.N,FTDI_RXI*%
G36*
X40593592Y-65785445D02*
G01*
X40982501Y-65396536D01*
X42113872Y-66527907D01*
X41724963Y-66916816D01*
X40593592Y-65785445D01*
G37*
%TD.AperFunction*%
%TA.AperFunction,SMDPad,CuDef*%
%TO.P,U2,29*%
%TO.N,/RESET*%
G36*
X40027907Y-66351130D02*
G01*
X40416816Y-65962221D01*
X41548187Y-67093592D01*
X41159278Y-67482501D01*
X40027907Y-66351130D01*
G37*
%TD.AperFunction*%
%TA.AperFunction,SMDPad,CuDef*%
%TO.P,U2,28*%
%TO.N,N/C*%
G36*
X39462221Y-66916816D02*
G01*
X39851130Y-66527907D01*
X40982501Y-67659278D01*
X40593592Y-68048187D01*
X39462221Y-66916816D01*
G37*
%TD.AperFunction*%
%TA.AperFunction,SMDPad,CuDef*%
%TO.P,U2,27*%
G36*
X38896536Y-67482501D02*
G01*
X39285445Y-67093592D01*
X40416816Y-68224963D01*
X40027907Y-68613872D01*
X38896536Y-67482501D01*
G37*
%TD.AperFunction*%
%TA.AperFunction,SMDPad,CuDef*%
%TO.P,U2,26*%
G36*
X38330850Y-68048186D02*
G01*
X38719759Y-67659277D01*
X39851130Y-68790648D01*
X39462221Y-69179557D01*
X38330850Y-68048186D01*
G37*
%TD.AperFunction*%
%TA.AperFunction,SMDPad,CuDef*%
%TO.P,U2,25*%
G36*
X37765165Y-68613872D02*
G01*
X38154074Y-68224963D01*
X39285445Y-69356334D01*
X38896536Y-69745243D01*
X37765165Y-68613872D01*
G37*
%TD.AperFunction*%
%TA.AperFunction,SMDPad,CuDef*%
%TO.P,U2,24*%
%TO.N,OPTION_SELECT*%
G36*
X36845926Y-68224963D02*
G01*
X37234835Y-68613872D01*
X36103464Y-69745243D01*
X35714555Y-69356334D01*
X36845926Y-68224963D01*
G37*
%TD.AperFunction*%
%TA.AperFunction,SMDPad,CuDef*%
%TO.P,U2,23*%
%TO.N,DEBUG_LED*%
G36*
X36280241Y-67659277D02*
G01*
X36669150Y-68048186D01*
X35537779Y-69179557D01*
X35148870Y-68790648D01*
X36280241Y-67659277D01*
G37*
%TD.AperFunction*%
%TA.AperFunction,SMDPad,CuDef*%
%TO.P,U2,22*%
%TO.N,N/C*%
G36*
X35714555Y-67093592D02*
G01*
X36103464Y-67482501D01*
X34972093Y-68613872D01*
X34583184Y-68224963D01*
X35714555Y-67093592D01*
G37*
%TD.AperFunction*%
%TA.AperFunction,SMDPad,CuDef*%
%TO.P,U2,21*%
%TO.N,GND*%
G36*
X35148870Y-66527907D02*
G01*
X35537779Y-66916816D01*
X34406408Y-68048187D01*
X34017499Y-67659278D01*
X35148870Y-66527907D01*
G37*
%TD.AperFunction*%
%TA.AperFunction,SMDPad,CuDef*%
%TO.P,U2,20*%
%TO.N,Net-(C2-Pad1)*%
G36*
X34583184Y-65962221D02*
G01*
X34972093Y-66351130D01*
X33840722Y-67482501D01*
X33451813Y-67093592D01*
X34583184Y-65962221D01*
G37*
%TD.AperFunction*%
%TA.AperFunction,SMDPad,CuDef*%
%TO.P,U2,19*%
%TO.N,N/C*%
G36*
X34017499Y-65396536D02*
G01*
X34406408Y-65785445D01*
X33275037Y-66916816D01*
X32886128Y-66527907D01*
X34017499Y-65396536D01*
G37*
%TD.AperFunction*%
%TA.AperFunction,SMDPad,CuDef*%
%TO.P,U2,18*%
%TO.N,+3V3*%
G36*
X33451814Y-64830850D02*
G01*
X33840723Y-65219759D01*
X32709352Y-66351130D01*
X32320443Y-65962221D01*
X33451814Y-64830850D01*
G37*
%TD.AperFunction*%
%TA.AperFunction,SMDPad,CuDef*%
%TO.P,U2,17*%
%TO.N,ATMEGA_SPI_SCLK*%
G36*
X32886128Y-64265165D02*
G01*
X33275037Y-64654074D01*
X32143666Y-65785445D01*
X31754757Y-65396536D01*
X32886128Y-64265165D01*
G37*
%TD.AperFunction*%
%TA.AperFunction,SMDPad,CuDef*%
%TO.P,U2,16*%
%TO.N,ATMEGA_SPI_MISO*%
G36*
X31754757Y-62603464D02*
G01*
X32143666Y-62214555D01*
X33275037Y-63345926D01*
X32886128Y-63734835D01*
X31754757Y-62603464D01*
G37*
%TD.AperFunction*%
%TA.AperFunction,SMDPad,CuDef*%
%TO.P,U2,15*%
%TO.N,ATMEGA_SPI_MOSI*%
G36*
X32320443Y-62037779D02*
G01*
X32709352Y-61648870D01*
X33840723Y-62780241D01*
X33451814Y-63169150D01*
X32320443Y-62037779D01*
G37*
%TD.AperFunction*%
%TA.AperFunction,SMDPad,CuDef*%
%TO.P,U2,14*%
%TO.N,ATMEGA_SS*%
G36*
X32886128Y-61472093D02*
G01*
X33275037Y-61083184D01*
X34406408Y-62214555D01*
X34017499Y-62603464D01*
X32886128Y-61472093D01*
G37*
%TD.AperFunction*%
%TA.AperFunction,SMDPad,CuDef*%
%TO.P,U2,13*%
%TO.N,MAX3421_INT*%
G36*
X33451813Y-60906408D02*
G01*
X33840722Y-60517499D01*
X34972093Y-61648870D01*
X34583184Y-62037779D01*
X33451813Y-60906408D01*
G37*
%TD.AperFunction*%
%TA.AperFunction,SMDPad,CuDef*%
%TO.P,U2,12*%
%TO.N,MAX3421_GPX*%
G36*
X34017499Y-60340722D02*
G01*
X34406408Y-59951813D01*
X35537779Y-61083184D01*
X35148870Y-61472093D01*
X34017499Y-60340722D01*
G37*
%TD.AperFunction*%
%TA.AperFunction,SMDPad,CuDef*%
%TO.P,U2,11*%
%TO.N,MAX3421_RESET*%
G36*
X34583184Y-59775037D02*
G01*
X34972093Y-59386128D01*
X36103464Y-60517499D01*
X35714555Y-60906408D01*
X34583184Y-59775037D01*
G37*
%TD.AperFunction*%
%TA.AperFunction,SMDPad,CuDef*%
%TO.P,U2,10*%
%TO.N,N/C*%
G36*
X35148870Y-59209352D02*
G01*
X35537779Y-58820443D01*
X36669150Y-59951814D01*
X36280241Y-60340723D01*
X35148870Y-59209352D01*
G37*
%TD.AperFunction*%
%TA.AperFunction,SMDPad,CuDef*%
%TO.P,U2,9*%
G36*
X35714555Y-58643666D02*
G01*
X36103464Y-58254757D01*
X37234835Y-59386128D01*
X36845926Y-59775037D01*
X35714555Y-58643666D01*
G37*
%TD.AperFunction*%
%TA.AperFunction,SMDPad,CuDef*%
%TO.P,U2,8*%
%TO.N,Net-(C7-Pad1)*%
G36*
X38896536Y-58254757D02*
G01*
X39285445Y-58643666D01*
X38154074Y-59775037D01*
X37765165Y-59386128D01*
X38896536Y-58254757D01*
G37*
%TD.AperFunction*%
%TA.AperFunction,SMDPad,CuDef*%
%TO.P,U2,7*%
%TO.N,Net-(C6-Pad1)*%
G36*
X39462221Y-58820443D02*
G01*
X39851130Y-59209352D01*
X38719759Y-60340723D01*
X38330850Y-59951814D01*
X39462221Y-58820443D01*
G37*
%TD.AperFunction*%
%TA.AperFunction,SMDPad,CuDef*%
%TO.P,U2,6*%
%TO.N,+3V3*%
G36*
X40027907Y-59386128D02*
G01*
X40416816Y-59775037D01*
X39285445Y-60906408D01*
X38896536Y-60517499D01*
X40027907Y-59386128D01*
G37*
%TD.AperFunction*%
%TA.AperFunction,SMDPad,CuDef*%
%TO.P,U2,5*%
%TO.N,GND*%
G36*
X40593592Y-59951813D02*
G01*
X40982501Y-60340722D01*
X39851130Y-61472093D01*
X39462221Y-61083184D01*
X40593592Y-59951813D01*
G37*
%TD.AperFunction*%
%TA.AperFunction,SMDPad,CuDef*%
%TO.P,U2,4*%
%TO.N,+3V3*%
G36*
X41159278Y-60517499D02*
G01*
X41548187Y-60906408D01*
X40416816Y-62037779D01*
X40027907Y-61648870D01*
X41159278Y-60517499D01*
G37*
%TD.AperFunction*%
%TA.AperFunction,SMDPad,CuDef*%
%TO.P,U2,3*%
%TO.N,GND*%
G36*
X41724963Y-61083184D02*
G01*
X42113872Y-61472093D01*
X40982501Y-62603464D01*
X40593592Y-62214555D01*
X41724963Y-61083184D01*
G37*
%TD.AperFunction*%
%TA.AperFunction,SMDPad,CuDef*%
%TO.P,U2,2*%
%TO.N,N/C*%
G36*
X42290648Y-61648870D02*
G01*
X42679557Y-62037779D01*
X41548186Y-63169150D01*
X41159277Y-62780241D01*
X42290648Y-61648870D01*
G37*
%TD.AperFunction*%
%TA.AperFunction,SMDPad,CuDef*%
%TO.P,U2,1*%
%TO.N,ADB_DATA_LV*%
G36*
X42856334Y-62214555D02*
G01*
X43245243Y-62603464D01*
X42113872Y-63734835D01*
X41724963Y-63345926D01*
X42856334Y-62214555D01*
G37*
%TD.AperFunction*%
%TD*%
D25*
%TO.P,J3,4*%
%TO.N,GND*%
X37338000Y-30084000D03*
%TO.P,J3,3*%
%TO.N,Net-(J3-Pad3)*%
X37338000Y-32584000D03*
%TO.P,J3,2*%
%TO.N,Net-(J3-Pad2)*%
X37338000Y-34584000D03*
D26*
%TO.P,J3,1*%
%TO.N,Net-(F1-Pad1)*%
X37338000Y-37084000D03*
D27*
%TO.P,J3,5*%
%TO.N,GND*%
X34628000Y-27014000D03*
X34628000Y-40154000D03*
%TD*%
D28*
%TO.N,ADB_1_5v*%
X38846202Y-71045274D03*
X36522643Y-71033010D03*
%TO.N,ADB_1_DATA*%
X41656000Y-70612000D03*
X36576000Y-67056000D03*
X38973989Y-66175560D03*
%TO.N,ADB_1_PWR_ON*%
X40640000Y-63860002D03*
X35650371Y-64284307D03*
X30525904Y-70845670D03*
%TO.N,GND*%
X39624000Y-48006000D03*
X39878000Y-46482000D03*
X32258000Y-38862000D03*
X45837203Y-52399406D03*
X28448000Y-44958000D03*
X39878000Y-51562000D03*
X39370000Y-56388000D03*
X41025313Y-68959998D03*
X44196000Y-69088000D03*
X29718000Y-48006000D03*
X31242000Y-43942000D03*
X28702000Y-40132000D03*
X27432000Y-53086000D03*
%TO.N,+3V3*%
X30347920Y-32420560D03*
X31790640Y-34925000D03*
X36576000Y-61976000D03*
X31787188Y-42073980D03*
X36097419Y-43910029D03*
X38354000Y-40640000D03*
X36561474Y-52471001D03*
X44958000Y-74375000D03*
X37592000Y-74375000D03*
X29718000Y-74375000D03*
X37450393Y-65387828D03*
X37723015Y-69526941D03*
%TO.N,VBUS*%
X33401000Y-34066480D03*
%TO.N,Host_USB_D-*%
X39756080Y-45349160D03*
X40519218Y-33425727D03*
%TO.N,Host_USB_D+*%
X39654480Y-32923480D03*
X38969571Y-46063932D03*
%TO.N,FTDI_DTR*%
X45899763Y-64466459D03*
%TO.N,MAX3421_INT*%
X35579305Y-61894624D03*
X37592000Y-54864000D03*
X37149609Y-42799000D03*
X35569021Y-54864025D03*
%TO.N,MAX3421_GPX*%
X38519658Y-41821195D03*
X37376010Y-60187503D03*
%TO.N,ADB_DATA_LV*%
X44615233Y-61204501D03*
X44958000Y-70612000D03*
%TO.N,ADB_PWR_ON_LV*%
X35555525Y-66084330D03*
X35327096Y-73774980D03*
%TO.N,FTDI_TXO*%
X44574011Y-64969804D03*
%TO.N,FTDI_RXI*%
X42819184Y-66851295D03*
%TO.N,/RESET*%
X49375000Y-51816000D03*
X47244000Y-65024000D03*
X33782000Y-54864000D03*
%TO.N,GND*%
X34000709Y-68824979D03*
X31645182Y-68073858D03*
%TO.N,+3V3*%
X36576000Y-57658000D03*
%TO.N,DEBUG_LED*%
X29718000Y-59690000D03*
X30970172Y-67047492D03*
%TO.N,ATMEGA_SS*%
X44958000Y-41910000D03*
X39073998Y-62235017D03*
%TO.N,ATMEGA_SPI_MOSI*%
X37743876Y-62721639D03*
X43434000Y-40386000D03*
X31418031Y-61423083D03*
%TO.N,ATMEGA_SPI_MISO*%
X38608000Y-63246000D03*
X44196000Y-41148000D03*
X30455997Y-62905275D03*
%TO.N,ATMEGA_SPI_SCLK*%
X38973989Y-64695786D03*
X45720000Y-42672000D03*
X30988000Y-65532000D03*
%TO.N,MAX3421_RESET*%
X34544000Y-47752000D03*
X33770361Y-58431639D03*
%TO.N,Net-(J2-Pad4)*%
X48879960Y-33447350D03*
%TO.N,Net-(J2-Pad3)*%
X48347878Y-32448875D03*
%TO.N,Net-(J2-Pad2)*%
X46990000Y-32004000D03*
%TO.N,Net-(JP1-Pad2)*%
X41575998Y-72898000D03*
X48006000Y-71882000D03*
%TO.N,Net-(JP4-Pad2)*%
X33354002Y-72898000D03*
X27940000Y-69850000D03*
%TO.N,OPTION_SELECT*%
X28788990Y-62399238D03*
X30167882Y-68788155D03*
%TD*%
D29*
%TO.N,ADB_1_5v*%
X38608000Y-71372000D02*
X36322000Y-71372000D01*
X38608000Y-71372000D02*
X38846202Y-71133798D01*
X38846202Y-71133798D02*
X38846202Y-71045274D01*
X36322000Y-71233653D02*
X36522643Y-71033010D01*
X36322000Y-71372000D02*
X36322000Y-71233653D01*
D30*
%TO.N,ADB_1_DATA*%
X42224000Y-70612000D02*
X41656000Y-70612000D01*
X42926000Y-71314000D02*
X42224000Y-70612000D01*
X41088000Y-70612000D02*
X41656000Y-70612000D01*
X40386000Y-71314000D02*
X41088000Y-70612000D01*
X39752000Y-71314000D02*
X40386000Y-71314000D01*
X38354000Y-72392000D02*
X38674000Y-72392000D01*
X36576000Y-67056000D02*
X38093549Y-67056000D01*
X38093549Y-67056000D02*
X38973989Y-66175560D01*
X39686000Y-71314000D02*
X40386000Y-71314000D01*
X38608000Y-72392000D02*
X39686000Y-71314000D01*
%TO.N,ADB_1_PWR_ON*%
X32004000Y-71314000D02*
X34544000Y-71314000D01*
D29*
X38956002Y-63971002D02*
X35963676Y-63971002D01*
X39067002Y-63860002D02*
X38956002Y-63971002D01*
X40640000Y-63860002D02*
X39067002Y-63860002D01*
X35963676Y-63971002D02*
X35650371Y-64284307D01*
D30*
X35244000Y-71314000D02*
X34544000Y-71314000D01*
X36322000Y-72392000D02*
X35244000Y-71314000D01*
X32004000Y-71314000D02*
X30994234Y-71314000D01*
X30994234Y-71314000D02*
X30525904Y-70845670D01*
D31*
%TO.N,GND*%
X26111200Y-46064050D02*
X26315790Y-46064050D01*
D29*
X41233411Y-59700903D02*
X40222361Y-60711953D01*
X41233411Y-59267411D02*
X41233411Y-59700903D01*
X42405645Y-60791411D02*
X41353732Y-61843324D01*
X42757411Y-60791411D02*
X42405645Y-60791411D01*
X43942000Y-57658000D02*
X43942000Y-56134000D01*
X41233411Y-59267411D02*
X42332589Y-59267411D01*
X42926000Y-60622822D02*
X42926000Y-58674000D01*
X42757411Y-60791411D02*
X42926000Y-60622822D01*
X42926000Y-58674000D02*
X43942000Y-57658000D01*
X42332589Y-59267411D02*
X42926000Y-58674000D01*
X40436000Y-54434000D02*
X40132000Y-54130000D01*
X41742000Y-54434000D02*
X40436000Y-54434000D01*
X42785929Y-50714589D02*
X43265411Y-50714589D01*
X41891282Y-49819942D02*
X42785929Y-50714589D01*
X41292268Y-49220928D02*
X40838928Y-49220928D01*
X41891282Y-49819942D02*
X41292268Y-49220928D01*
X40838928Y-49220928D02*
X39624000Y-48006000D01*
X41074011Y-45285989D02*
X39878000Y-46482000D01*
X41074011Y-45001159D02*
X41074011Y-45285989D01*
X40032392Y-43959540D02*
X41074011Y-45001159D01*
X31468000Y-38862000D02*
X32258000Y-38862000D01*
X34290000Y-37564000D02*
X34064000Y-37564000D01*
X34064000Y-37564000D02*
X33528000Y-38100000D01*
X33528000Y-39054000D02*
X34628000Y-40154000D01*
X33528000Y-38100000D02*
X33528000Y-39054000D01*
X33056589Y-45297411D02*
X33004000Y-45350000D01*
X32484000Y-44830000D02*
X33004000Y-45350000D01*
X32484000Y-43434000D02*
X32484000Y-44830000D01*
X32451789Y-43401789D02*
X32413466Y-43401789D01*
X32484000Y-43434000D02*
X32451789Y-43401789D01*
X32484000Y-43434000D02*
X32484000Y-43426374D01*
X32385949Y-68711131D02*
X31696018Y-68021200D01*
X32385949Y-68716211D02*
X32385949Y-68711131D01*
X27432000Y-67934000D02*
X28056000Y-67310000D01*
D30*
X34688951Y-67288047D02*
X34777639Y-67288047D01*
X33260787Y-68716211D02*
X34688951Y-67288047D01*
X32385949Y-68716211D02*
X33260787Y-68716211D01*
D29*
X46862001Y-74421999D02*
X47574000Y-73710000D01*
X40032392Y-44023003D02*
X40032392Y-43959540D01*
X39276323Y-44779072D02*
X40032392Y-44023003D01*
X38971732Y-44779072D02*
X39276323Y-44779072D01*
X38372718Y-44180058D02*
X38971732Y-44779072D01*
X34777639Y-67288047D02*
X35060465Y-67288047D01*
D31*
X28476000Y-37688000D02*
X27672000Y-36884000D01*
X28476000Y-38862000D02*
X28476000Y-37688000D01*
D30*
X47574000Y-60910000D02*
X46024000Y-60910000D01*
D31*
X48144001Y-66039999D02*
X46874000Y-67310000D01*
X48144001Y-61480001D02*
X48144001Y-66039999D01*
X47574000Y-60910000D02*
X48144001Y-61480001D01*
D29*
X41742000Y-54434000D02*
X41742000Y-53311700D01*
X41742000Y-53311700D02*
X42583688Y-52470012D01*
X42583688Y-52470012D02*
X42837688Y-52470012D01*
X45795619Y-52440990D02*
X45837203Y-52399406D01*
X42837688Y-52470012D02*
X42866710Y-52440990D01*
X42866710Y-52440990D02*
X45795619Y-52440990D01*
D31*
X28448000Y-44958000D02*
X27432000Y-45974000D01*
X26201250Y-45974000D02*
X26111200Y-46064050D01*
X27432000Y-45974000D02*
X26201250Y-45974000D01*
X32495998Y-49728000D02*
X34290000Y-49728000D01*
X31769999Y-50453999D02*
X32495998Y-49728000D01*
X31769999Y-54883999D02*
X31769999Y-50453999D01*
X33020000Y-56134000D02*
X31769999Y-54883999D01*
X35015999Y-50453999D02*
X34290000Y-49728000D01*
X35495999Y-50453999D02*
X35015999Y-50453999D01*
X35560000Y-50518000D02*
X35495999Y-50453999D01*
X49324012Y-69760012D02*
X46874000Y-67310000D01*
X49324012Y-71959988D02*
X49324012Y-69760012D01*
X47574000Y-73710000D02*
X49324012Y-71959988D01*
D30*
X46874000Y-67310000D02*
X45974000Y-67310000D01*
X41661315Y-69596000D02*
X41025313Y-68959998D01*
X43688000Y-69596000D02*
X41661315Y-69596000D01*
X43942000Y-69342000D02*
X44196000Y-69088000D01*
X45974000Y-67310000D02*
X43942000Y-69342000D01*
X43942000Y-69342000D02*
X43688000Y-69596000D01*
D29*
%TO.N,+3V3*%
X32374840Y-67342378D02*
X32526312Y-67190906D01*
X32526312Y-67190906D02*
X32526312Y-66145261D01*
X32526312Y-66145261D02*
X33080583Y-65590990D01*
D31*
X30347920Y-30959920D02*
X29972000Y-30584000D01*
X30347920Y-32420560D02*
X30347920Y-30959920D01*
X29972000Y-38326000D02*
X30508000Y-38862000D01*
X29972000Y-36884000D02*
X29972000Y-38326000D01*
X29436000Y-38862000D02*
X29972000Y-38326000D01*
X29972000Y-36884000D02*
X29972000Y-36743640D01*
X29972000Y-36743640D02*
X31790640Y-34925000D01*
D29*
X42586589Y-51222356D02*
X41537728Y-50173495D01*
X42586589Y-51393411D02*
X42586589Y-51222356D01*
D31*
X47562000Y-50518000D02*
X45720000Y-50518000D01*
X48000000Y-50080000D02*
X47562000Y-50518000D01*
D29*
X40913539Y-61277639D02*
X42078589Y-60112589D01*
X40788047Y-61277639D02*
X40913539Y-61277639D01*
X40335386Y-58807792D02*
X40554589Y-58588589D01*
X40335386Y-59467558D02*
X40335386Y-58807792D01*
X39656676Y-60146268D02*
X40335386Y-59467558D01*
X38334201Y-61468743D02*
X37083257Y-61468743D01*
X37083257Y-61468743D02*
X36576000Y-61976000D01*
D30*
X30769560Y-42179240D02*
X31681928Y-42179240D01*
D29*
X31826408Y-42113200D02*
X31787188Y-42073980D01*
D30*
X31681928Y-42179240D02*
X31787188Y-42073980D01*
D29*
X38852472Y-60950472D02*
X38334201Y-61468743D01*
X39656676Y-60146268D02*
X38852472Y-60950472D01*
X40788047Y-61277639D02*
X40268583Y-61797103D01*
X39699103Y-61797103D02*
X38852472Y-60950472D01*
X40268583Y-61797103D02*
X39699103Y-61797103D01*
X36930272Y-45594272D02*
X35786000Y-44450000D01*
X36958505Y-45594272D02*
X36930272Y-45594272D01*
X35786000Y-44450000D02*
X35786000Y-44221448D01*
X35786000Y-44221448D02*
X36097419Y-43910029D01*
D30*
X38098000Y-40640000D02*
X37592000Y-41146000D01*
X38354000Y-40640000D02*
X38098000Y-40640000D01*
D31*
X42168823Y-51393411D02*
X40897244Y-52664990D01*
X42586589Y-51393411D02*
X42168823Y-51393411D01*
X42759146Y-51565968D02*
X42586589Y-51393411D01*
X43774266Y-51565968D02*
X42759146Y-51565968D01*
X44822234Y-50518000D02*
X43774266Y-51565968D01*
X45720000Y-50518000D02*
X44822234Y-50518000D01*
X36755463Y-52664990D02*
X36561474Y-52471001D01*
X40897244Y-52664990D02*
X36755463Y-52664990D01*
X45024000Y-74309000D02*
X44958000Y-74375000D01*
X45024000Y-71866000D02*
X45024000Y-74309000D01*
X37543000Y-74424000D02*
X37592000Y-74375000D01*
X37641000Y-74424000D02*
X37592000Y-74375000D01*
X29718000Y-73333509D02*
X29718000Y-74375000D01*
X28250491Y-71866000D02*
X29718000Y-73333509D01*
X28006000Y-71866000D02*
X28250491Y-71866000D01*
D29*
X37421885Y-65359320D02*
X37450393Y-65387828D01*
X35160680Y-65359320D02*
X37421885Y-65359320D01*
X34872886Y-65071526D02*
X35160680Y-65359320D01*
X33600047Y-65071526D02*
X34872886Y-65071526D01*
X33080583Y-65590990D02*
X33600047Y-65071526D01*
D30*
X38216327Y-70020253D02*
X37723015Y-69526941D01*
X39010449Y-70020253D02*
X38216327Y-70020253D01*
X41859168Y-68794010D02*
X41224156Y-68158998D01*
X43184000Y-68199000D02*
X42588990Y-68794010D01*
X42588990Y-68794010D02*
X41859168Y-68794010D01*
X40871704Y-68158998D02*
X39010449Y-70020253D01*
X41224156Y-68158998D02*
X40871704Y-68158998D01*
D31*
X34437001Y-52471001D02*
X33020000Y-51054000D01*
X36561474Y-52471001D02*
X34437001Y-52471001D01*
X38608000Y-74424000D02*
X36322000Y-74424000D01*
%TO.N,VBUS*%
X34010000Y-36884000D02*
X34290000Y-36604000D01*
X32272000Y-36884000D02*
X34010000Y-36884000D01*
X34798000Y-36096000D02*
X34290000Y-36604000D01*
X34798000Y-34744500D02*
X34798000Y-36096000D01*
X34119980Y-34066480D02*
X34798000Y-34744500D01*
X33401000Y-34066480D02*
X34119980Y-34066480D01*
D30*
X31044640Y-41168320D02*
X32933002Y-39279958D01*
X30774640Y-41168320D02*
X31044640Y-41168320D01*
X32933002Y-39279958D02*
X32933002Y-37545002D01*
X32933002Y-37545002D02*
X32272000Y-36884000D01*
D29*
%TO.N,Host_USB_D-*%
X40386000Y-34544000D02*
X40386000Y-33558945D01*
X40386000Y-33558945D02*
X40519218Y-33425727D01*
X39745851Y-45338931D02*
X39756080Y-45349160D01*
X38824484Y-45338931D02*
X39745851Y-45338931D01*
X38019165Y-44533612D02*
X38824484Y-45338931D01*
%TO.N,Host_USB_D+*%
X39654480Y-32737520D02*
X40388000Y-32004000D01*
X39654480Y-32923480D02*
X39654480Y-32737520D01*
X38842379Y-46063932D02*
X38969571Y-46063932D01*
X37665612Y-44887165D02*
X38842379Y-46063932D01*
D30*
%TO.N,Net-(C6-Pad1)*%
X44246000Y-54130000D02*
X43942000Y-54434000D01*
X45466000Y-54130000D02*
X44246000Y-54130000D01*
X39560455Y-59111118D02*
X39560455Y-58500541D01*
X39560455Y-58500541D02*
X41051995Y-57009001D01*
X41051995Y-57009001D02*
X42662001Y-57009001D01*
X39090990Y-59580583D02*
X39560455Y-59111118D01*
X42662001Y-57009001D02*
X42966999Y-56704003D01*
X42966999Y-56704003D02*
X42966999Y-55409001D01*
X42966999Y-55409001D02*
X43942000Y-54434000D01*
X43942000Y-53340000D02*
X44196000Y-53086000D01*
X43942000Y-54434000D02*
X43942000Y-53340000D01*
D29*
%TO.N,FTDI_DTR*%
X44129960Y-66096000D02*
X44661458Y-66096000D01*
X44661458Y-66096000D02*
X45899763Y-64857695D01*
X45899763Y-64857695D02*
X45899763Y-64466459D01*
D30*
%TO.N,Net-(C7-Pad1)*%
X42966999Y-54909001D02*
X41742000Y-56134000D01*
X42966999Y-53295001D02*
X42966999Y-54909001D01*
X43176000Y-53086000D02*
X42966999Y-53295001D01*
X41176000Y-56134000D02*
X40132000Y-55090000D01*
X41742000Y-56134000D02*
X41176000Y-56134000D01*
X41406202Y-56134000D02*
X38525305Y-59014897D01*
X41742000Y-56134000D02*
X41406202Y-56134000D01*
%TO.N,Net-(C10-Pad1)*%
X36007126Y-48650000D02*
X36604951Y-48052175D01*
X33622000Y-48100000D02*
X34290000Y-48768000D01*
X32854000Y-48100000D02*
X33622000Y-48100000D01*
X36007126Y-49110874D02*
X35560000Y-49558000D01*
X36007126Y-48650000D02*
X36007126Y-49110874D01*
X34770000Y-48768000D02*
X35560000Y-49558000D01*
X34290000Y-48768000D02*
X34770000Y-48768000D01*
%TO.N,Net-(C11-Pad1)*%
X29820000Y-45900000D02*
X29718000Y-46002000D01*
X31154000Y-45900000D02*
X29820000Y-45900000D01*
X36604951Y-46453049D02*
X36604951Y-45947825D01*
X36182999Y-46875001D02*
X36604951Y-46453049D01*
X32129001Y-46875001D02*
X36182999Y-46875001D01*
X31154000Y-45900000D02*
X32129001Y-46875001D01*
%TO.N,Net-(C12-Pad1)*%
X36763045Y-44691705D02*
X36763045Y-44262955D01*
X37312058Y-45240718D02*
X36763045Y-44691705D01*
X36763045Y-44262955D02*
X37084000Y-43942000D01*
X37084000Y-43942000D02*
X37084000Y-43688000D01*
X36322000Y-42926000D02*
X35786000Y-42926000D01*
X37084000Y-43688000D02*
X36322000Y-42926000D01*
%TO.N,MAX3421_INT*%
X37592000Y-42692233D02*
X37592000Y-42166000D01*
X38726272Y-43826505D02*
X37592000Y-42692233D01*
X34211953Y-61277639D02*
X34828938Y-61894624D01*
X34828938Y-61894624D02*
X35579305Y-61894624D01*
X37592000Y-42166000D02*
X37149609Y-42608391D01*
X37149609Y-42608391D02*
X37149609Y-42799000D01*
X37592000Y-54864000D02*
X35569046Y-54864000D01*
X35569046Y-54864000D02*
X35569021Y-54864025D01*
%TO.N,MAX3421_GPX*%
X39079825Y-42381362D02*
X39079825Y-43472951D01*
X38519658Y-41821195D02*
X39079825Y-42381362D01*
X36382095Y-61181418D02*
X37376010Y-60187503D01*
X35247104Y-61181418D02*
X36382095Y-61181418D01*
X34777639Y-60711953D02*
X35247104Y-61181418D01*
%TO.N,MAX3421_SS*%
X42784716Y-43286624D02*
X43581376Y-43286624D01*
X41891282Y-44180058D02*
X42784716Y-43286624D01*
%TO.N,ADB_DATA_LV*%
X44205499Y-61204501D02*
X44615233Y-61204501D01*
X42485103Y-62974695D02*
X42485103Y-62924897D01*
X42485103Y-62924897D02*
X44205499Y-61204501D01*
X40386000Y-73914000D02*
X42926000Y-73914000D01*
X44348999Y-73238593D02*
X44348999Y-70967001D01*
X43673592Y-73914000D02*
X44348999Y-73238593D01*
X42926000Y-73914000D02*
X43673592Y-73914000D01*
X44704000Y-70612000D02*
X44958000Y-70612000D01*
X44348999Y-70967001D02*
X44704000Y-70612000D01*
X39118000Y-73914000D02*
X38608000Y-73404000D01*
X40386000Y-73914000D02*
X39118000Y-73914000D01*
%TO.N,ADB_PWR_ON_LV*%
X32004000Y-73914000D02*
X34544000Y-73914000D01*
X38649988Y-65500559D02*
X38066217Y-66084330D01*
X39168362Y-65500559D02*
X38649988Y-65500559D01*
X40113081Y-64555840D02*
X39168362Y-65500559D01*
X42015638Y-64555840D02*
X40113081Y-64555840D01*
X42485103Y-65025305D02*
X42015638Y-64555840D01*
X38066217Y-66084330D02*
X35555525Y-66084330D01*
X35812000Y-73914000D02*
X36322000Y-73404000D01*
X35420980Y-73774980D02*
X35560000Y-73914000D01*
X35327096Y-73774980D02*
X35420980Y-73774980D01*
X35560000Y-73914000D02*
X35812000Y-73914000D01*
X34544000Y-73914000D02*
X35560000Y-73914000D01*
D29*
%TO.N,FTDI_TXO*%
X43108811Y-66126294D02*
X44265301Y-64969804D01*
X42454721Y-66126294D02*
X43108811Y-66126294D01*
X44265301Y-64969804D02*
X44574011Y-64969804D01*
X41919417Y-65590990D02*
X42454721Y-66126294D01*
%TO.N,FTDI_RXI*%
X41353732Y-66156676D02*
X42048351Y-66851295D01*
X42048351Y-66851295D02*
X42819184Y-66851295D01*
D30*
%TO.N,Net-(C2-Pad1)*%
X34211953Y-66890207D02*
X34211953Y-66722361D01*
X33064771Y-68037389D02*
X34211953Y-66890207D01*
D31*
%TO.N,Net-(F1-Pad1)*%
X35848010Y-35594010D02*
X37338000Y-37084000D01*
X35848010Y-33869510D02*
X35848010Y-35594010D01*
X34798000Y-32819500D02*
X35848010Y-33869510D01*
D29*
%TO.N,Net-(J3-Pad3)*%
X37918000Y-32004000D02*
X37338000Y-32584000D01*
X39368000Y-32004000D02*
X37918000Y-32004000D01*
%TO.N,Net-(J3-Pad2)*%
X37378000Y-34544000D02*
X37338000Y-34584000D01*
X39366000Y-34544000D02*
X37378000Y-34544000D01*
D30*
%TO.N,/RESET*%
X44267158Y-67056000D02*
X44129960Y-67056000D01*
X46299158Y-65024000D02*
X44267158Y-67056000D01*
X47244000Y-65024000D02*
X46299158Y-65024000D01*
X41341990Y-53146011D02*
X35245989Y-53146011D01*
X42418000Y-52070001D02*
X41341990Y-53146011D01*
X42655745Y-52070001D02*
X42418000Y-52070001D01*
X42684767Y-52040979D02*
X42655745Y-52070001D01*
X45787001Y-51494999D02*
X45241021Y-52040979D01*
X48954999Y-51494999D02*
X45787001Y-51494999D01*
X45241021Y-52040979D02*
X42684767Y-52040979D01*
X49276000Y-51816000D02*
X48954999Y-51494999D01*
X49375000Y-51816000D02*
X49276000Y-51816000D01*
X33782000Y-54864000D02*
X33782000Y-54610000D01*
X35245989Y-53146011D02*
X34036000Y-54356000D01*
X34036000Y-54610000D02*
X33782000Y-54864000D01*
X34036000Y-54356000D02*
X34036000Y-54610000D01*
X42759010Y-67603990D02*
X42164000Y-68199000D01*
X43861970Y-67603990D02*
X42759010Y-67603990D01*
X44129960Y-67336000D02*
X43861970Y-67603990D01*
X44129960Y-67056000D02*
X44129960Y-67336000D01*
X40788047Y-66823047D02*
X42164000Y-68199000D01*
X40788047Y-66722361D02*
X40788047Y-66823047D01*
%TO.N,Net-(D1-Pad2)*%
X26162000Y-48181500D02*
X26223504Y-48181500D01*
X26223504Y-48181500D02*
X29749560Y-44655444D01*
X29749560Y-44655444D02*
X29749560Y-42179240D01*
%TO.N,Net-(D2-Pad2)*%
X29060380Y-41168320D02*
X29754640Y-41168320D01*
X26111200Y-44117500D02*
X29060380Y-41168320D01*
%TO.N,GND*%
X26111200Y-54241160D02*
X26111200Y-55321200D01*
X34777639Y-67288047D02*
X34000709Y-68064977D01*
X34000709Y-68064977D02*
X34000709Y-68824979D01*
D29*
X31645182Y-68072036D02*
X31645182Y-68073858D01*
X31696018Y-68021200D02*
X31645182Y-68072036D01*
D30*
X30749302Y-70106292D02*
X30495302Y-70106292D01*
X39615047Y-70370264D02*
X37350264Y-70370264D01*
X30843021Y-70200011D02*
X30749302Y-70106292D01*
X37350264Y-70370264D02*
X37180010Y-70200010D01*
X30495302Y-70106292D02*
X28056000Y-67666990D01*
X28056000Y-67666990D02*
X28056000Y-67310000D01*
X41025313Y-68959998D02*
X39615047Y-70370264D01*
X37180010Y-70200010D02*
X30843021Y-70200011D01*
%TO.N,+3V3*%
X32258000Y-58926000D02*
X32258000Y-58420000D01*
X33020000Y-57658000D02*
X36576000Y-57658000D01*
X32258000Y-58420000D02*
X33020000Y-57658000D01*
%TO.N,Net-(D3-Pad2)*%
X27105602Y-51760600D02*
X26111200Y-51760600D01*
X28107001Y-52761999D02*
X27105602Y-51760600D01*
X28107001Y-53253001D02*
X28107001Y-52761999D01*
X29862999Y-55008999D02*
X28107001Y-53253001D01*
X31020001Y-55008999D02*
X29862999Y-55008999D01*
X31605001Y-58562999D02*
X31605001Y-55593999D01*
X31605001Y-55593999D02*
X31020001Y-55008999D01*
X31242000Y-58926000D02*
X31605001Y-58562999D01*
%TO.N,DEBUG_LED*%
X31242000Y-59946000D02*
X29974000Y-59946000D01*
X29974000Y-59946000D02*
X29718000Y-59690000D01*
X30970172Y-68688842D02*
X30970172Y-67047492D01*
X34828438Y-69499989D02*
X31781319Y-69499989D01*
X35909010Y-68419417D02*
X34828438Y-69499989D01*
X31781319Y-69499989D02*
X30970172Y-68688842D01*
%TO.N,ATMEGA_SS*%
X44302624Y-42565376D02*
X44958000Y-41910000D01*
X34453946Y-62651002D02*
X36858684Y-62651002D01*
X33646268Y-61843324D02*
X34453946Y-62651002D01*
X36858684Y-62651002D02*
X37640932Y-61868754D01*
X37640932Y-61868754D02*
X38707735Y-61868754D01*
X38707735Y-61868754D02*
X39073998Y-62235017D01*
%TO.N,ATMEGA_SPI_MOSI*%
X37451335Y-63014180D02*
X37743876Y-62721639D01*
X33685753Y-63014180D02*
X37451335Y-63014180D01*
X33080583Y-62409010D02*
X33685753Y-63014180D01*
X42778624Y-41041376D02*
X43434000Y-40386000D01*
X33080583Y-62409010D02*
X32094656Y-61423083D01*
X32094656Y-61423083D02*
X31418031Y-61423083D01*
%TO.N,ATMEGA_SPI_MISO*%
X32514897Y-62974695D02*
X32984362Y-63444160D01*
X36774160Y-63444160D02*
X36786763Y-63444160D01*
X32984362Y-63444160D02*
X36774160Y-63444160D01*
X38409840Y-63444160D02*
X38608000Y-63246000D01*
X36774160Y-63444160D02*
X38409840Y-63444160D01*
X43540624Y-41803376D02*
X44196000Y-41148000D01*
X32514897Y-62974695D02*
X30525417Y-62974695D01*
X30525417Y-62974695D02*
X30455997Y-62905275D01*
%TO.N,ATMEGA_SPI_SCLK*%
X34922900Y-64555840D02*
X35326369Y-64959309D01*
X35326369Y-64959309D02*
X35974373Y-64959309D01*
X32514897Y-65025305D02*
X32984362Y-64555840D01*
X36237896Y-64695786D02*
X38973989Y-64695786D01*
X35974373Y-64959309D02*
X36237896Y-64695786D01*
X32984362Y-64555840D02*
X34922900Y-64555840D01*
X45064624Y-43327376D02*
X45720000Y-42672000D01*
X31494695Y-65025305D02*
X32514897Y-65025305D01*
X30988000Y-65532000D02*
X31494695Y-65025305D01*
%TO.N,MAX3421_SPI_MOSI*%
X41184175Y-42635825D02*
X42057376Y-41762624D01*
X41184175Y-43472951D02*
X41184175Y-42635825D01*
%TO.N,MAX3421_SPI_MISO*%
X41537728Y-43806272D02*
X42819376Y-42524624D01*
X41537728Y-43826505D02*
X41537728Y-43806272D01*
%TO.N,MAX3421_SPI_SCLK*%
X42793849Y-43984598D02*
X44279350Y-43984598D01*
X44279350Y-43984598D02*
X44343376Y-44048624D01*
X42244835Y-44533612D02*
X42793849Y-43984598D01*
%TO.N,MAX3421_RESET*%
X35343324Y-60146268D02*
X35343324Y-60004602D01*
X35343324Y-60004602D02*
X33770361Y-58431639D01*
X40328551Y-47157002D02*
X39553998Y-47157002D01*
X39247388Y-46850392D02*
X36969608Y-46850392D01*
X42598388Y-44887165D02*
X40328551Y-47157002D01*
X36969608Y-46850392D02*
X36068000Y-47752000D01*
X36068000Y-47752000D02*
X34544000Y-47752000D01*
X39553998Y-47157002D02*
X39247388Y-46850392D01*
%TO.N,Net-(J2-Pad4)*%
X49276001Y-39061105D02*
X49276000Y-33843390D01*
X49276000Y-33843390D02*
X48879960Y-33447350D01*
X48555116Y-39781990D02*
X49276001Y-39061105D01*
X48555116Y-40276978D02*
X48555116Y-39781990D01*
X47684105Y-40653001D02*
X48179093Y-40653001D01*
X47511001Y-40826105D02*
X47684105Y-40653001D01*
X48179093Y-40653001D02*
X48555116Y-40276978D01*
X47511001Y-40880999D02*
X47511001Y-40826105D01*
X46736000Y-41656000D02*
X47511001Y-40880999D01*
%TO.N,Net-(J2-Pad3)*%
X48347878Y-32448875D02*
X48958875Y-32448875D01*
X48958875Y-32448875D02*
X49626010Y-33116010D01*
X49626010Y-33116010D02*
X49626010Y-40797990D01*
X49626010Y-40797990D02*
X48768000Y-41656000D01*
%TO.N,Net-(J2-Pad2)*%
X47498000Y-40132000D02*
X48205106Y-40132000D01*
X46990000Y-32766000D02*
X46990000Y-32004000D01*
X48925990Y-34701990D02*
X46990000Y-32766000D01*
X48925990Y-38704010D02*
X48925990Y-34701990D01*
X47752000Y-39878000D02*
X48925990Y-38704010D01*
%TO.N,Net-(JP1-Pad2)*%
X41291998Y-72614000D02*
X41575998Y-72898000D01*
X40386000Y-72614000D02*
X41291998Y-72614000D01*
X46940000Y-71882000D02*
X46924000Y-71866000D01*
X48006000Y-71882000D02*
X46940000Y-71882000D01*
%TO.N,Net-(JP2-Pad2)*%
X43998989Y-72441011D02*
X43998989Y-70572007D01*
X42926000Y-72614000D02*
X43826000Y-72614000D01*
X43826000Y-72614000D02*
X43998989Y-72441011D01*
X43998989Y-70572007D02*
X44704996Y-69866000D01*
X44704996Y-69866000D02*
X45974000Y-69866000D01*
%TO.N,Net-(JP3-Pad2)*%
X32200000Y-73000000D02*
X32259600Y-73000000D01*
X30654000Y-72614000D02*
X32004000Y-72614000D01*
X29906000Y-71866000D02*
X30654000Y-72614000D01*
%TO.N,Net-(JP4-Pad2)*%
X33638002Y-72614000D02*
X33354002Y-72898000D01*
X34544000Y-72614000D02*
X33638002Y-72614000D01*
X28940000Y-69850000D02*
X28956000Y-69866000D01*
X27940000Y-69850000D02*
X28940000Y-69850000D01*
%TO.N,OPTION_SELECT*%
X29757010Y-60491010D02*
X29718000Y-60452000D01*
X31712990Y-60491010D02*
X29757010Y-60491010D01*
X32258000Y-59946000D02*
X31712990Y-60491010D01*
X26924000Y-57658000D02*
X26924000Y-57916285D01*
X26924000Y-57916285D02*
X29459715Y-60452000D01*
X29459715Y-60452000D02*
X29718000Y-60452000D01*
X29718000Y-60452000D02*
X29718000Y-61470228D01*
X29718000Y-61470228D02*
X28788990Y-62399238D01*
X31229727Y-69850000D02*
X30167882Y-68788155D01*
X36474695Y-68985103D02*
X35609798Y-69850000D01*
X35609798Y-69850000D02*
X31229727Y-69850000D01*
%TD*%
D32*
%TO.N,GND*%
X47701000Y-73583000D02*
X47721000Y-73583000D01*
X47721000Y-73837000D01*
X47701000Y-73837000D01*
X47701000Y-73857000D01*
X47447000Y-73857000D01*
X47447000Y-73837000D01*
X47427000Y-73837000D01*
X47427000Y-73583000D01*
X47447000Y-73583000D01*
X47447000Y-73563000D01*
X47701000Y-73563000D01*
X47701000Y-73583000D01*
%TA.AperFunction,Conductor*%
D33*
G36*
X47701000Y-73583000D02*
G01*
X47721000Y-73583000D01*
X47721000Y-73837000D01*
X47701000Y-73837000D01*
X47701000Y-73857000D01*
X47447000Y-73857000D01*
X47447000Y-73837000D01*
X47427000Y-73837000D01*
X47427000Y-73583000D01*
X47447000Y-73583000D01*
X47447000Y-73563000D01*
X47701000Y-73563000D01*
X47701000Y-73583000D01*
G37*
%TD.AperFunction*%
D32*
X27483000Y-73583000D02*
X27503000Y-73583000D01*
X27503000Y-73837000D01*
X27483000Y-73837000D01*
X27483000Y-73857000D01*
X27229000Y-73857000D01*
X27229000Y-73837000D01*
X27209000Y-73837000D01*
X27209000Y-73583000D01*
X27229000Y-73583000D01*
X27229000Y-73563000D01*
X27483000Y-73563000D01*
X27483000Y-73583000D01*
%TA.AperFunction,Conductor*%
D33*
G36*
X27483000Y-73583000D02*
G01*
X27503000Y-73583000D01*
X27503000Y-73837000D01*
X27483000Y-73837000D01*
X27483000Y-73857000D01*
X27229000Y-73857000D01*
X27229000Y-73837000D01*
X27209000Y-73837000D01*
X27209000Y-73583000D01*
X27229000Y-73583000D01*
X27229000Y-73563000D01*
X27483000Y-73563000D01*
X27483000Y-73583000D01*
G37*
%TD.AperFunction*%
D32*
X46515000Y-52473740D02*
X46515000Y-52766260D01*
X46572068Y-53053158D01*
X46684010Y-53323411D01*
X46846525Y-53566632D01*
X47053368Y-53773475D01*
X47227760Y-53890000D01*
X47053368Y-54006525D01*
X46846525Y-54213368D01*
X46684010Y-54456589D01*
X46572068Y-54726842D01*
X46515000Y-55013740D01*
X46515000Y-55306260D01*
X46572068Y-55593158D01*
X46684010Y-55863411D01*
X46846525Y-56106632D01*
X47053368Y-56313475D01*
X47227760Y-56430000D01*
X47053368Y-56546525D01*
X46846525Y-56753368D01*
X46684010Y-56996589D01*
X46572068Y-57266842D01*
X46515000Y-57553740D01*
X46515000Y-57846260D01*
X46572068Y-58133158D01*
X46684010Y-58403411D01*
X46846525Y-58646632D01*
X47053368Y-58853475D01*
X47296589Y-59015990D01*
X47566842Y-59127932D01*
X47853740Y-59185000D01*
X48146260Y-59185000D01*
X48433158Y-59127932D01*
X48703411Y-59015990D01*
X48946632Y-58853475D01*
X49153475Y-58646632D01*
X49315990Y-58403411D01*
X49340001Y-58345444D01*
X49340001Y-59644582D01*
X49178751Y-59540446D01*
X48898023Y-59429271D01*
X48601000Y-59375000D01*
X47701000Y-59375000D01*
X47701000Y-60783000D01*
X47721000Y-60783000D01*
X47721000Y-61037000D01*
X47701000Y-61037000D01*
X47701000Y-62445000D01*
X48601000Y-62445000D01*
X48898023Y-62390729D01*
X49178751Y-62279554D01*
X49340001Y-62175418D01*
X49340001Y-72444583D01*
X49178751Y-72340446D01*
X48970537Y-72257988D01*
X49001226Y-72183898D01*
X49041000Y-71983939D01*
X49041000Y-71780061D01*
X49001226Y-71580102D01*
X48923205Y-71391744D01*
X48809937Y-71222226D01*
X48665774Y-71078063D01*
X48496256Y-70964795D01*
X48307898Y-70886774D01*
X48107939Y-70847000D01*
X47904061Y-70847000D01*
X47704102Y-70886774D01*
X47688145Y-70893384D01*
X47678494Y-70885463D01*
X47568180Y-70826498D01*
X47448482Y-70790188D01*
X47324000Y-70777928D01*
X46812095Y-70777928D01*
X46825185Y-70767185D01*
X46904537Y-70670494D01*
X46963502Y-70560180D01*
X46999812Y-70440482D01*
X47012072Y-70316000D01*
X47012072Y-69602178D01*
X47359328Y-69562400D01*
X47789424Y-69424438D01*
X48123509Y-69245867D01*
X48298525Y-68914130D01*
X46874000Y-67489605D01*
X46859858Y-67503748D01*
X46680253Y-67324143D01*
X46694395Y-67310000D01*
X47053605Y-67310000D01*
X48478130Y-68734525D01*
X48809867Y-68559509D01*
X49016437Y-68157832D01*
X49140674Y-67723572D01*
X49177804Y-67273419D01*
X49126400Y-66824672D01*
X48988438Y-66394576D01*
X48809867Y-66060491D01*
X48478130Y-65885475D01*
X47053605Y-67310000D01*
X46694395Y-67310000D01*
X46680253Y-67295858D01*
X46859858Y-67116253D01*
X46874000Y-67130395D01*
X48298525Y-65705870D01*
X48177139Y-65475787D01*
X48239226Y-65325898D01*
X48279000Y-65125939D01*
X48279000Y-64922061D01*
X48239226Y-64722102D01*
X48161205Y-64533744D01*
X48047937Y-64364226D01*
X47903774Y-64220063D01*
X47734256Y-64106795D01*
X47545898Y-64028774D01*
X47345939Y-63989000D01*
X47142061Y-63989000D01*
X46942102Y-64028774D01*
X46853880Y-64065317D01*
X46816968Y-63976203D01*
X46703700Y-63806685D01*
X46559537Y-63662522D01*
X46390019Y-63549254D01*
X46201661Y-63471233D01*
X46001702Y-63431459D01*
X45797824Y-63431459D01*
X45597865Y-63471233D01*
X45409507Y-63549254D01*
X45239989Y-63662522D01*
X45095826Y-63806685D01*
X44982558Y-63976203D01*
X44967514Y-64012522D01*
X44875909Y-63974578D01*
X44675950Y-63934804D01*
X44472072Y-63934804D01*
X44272113Y-63974578D01*
X44083755Y-64052599D01*
X43914237Y-64165867D01*
X43770074Y-64310030D01*
X43656806Y-64479548D01*
X43639871Y-64520432D01*
X43455690Y-64704613D01*
X42751077Y-64000000D01*
X43696428Y-63054649D01*
X43775780Y-62957958D01*
X43834745Y-62847644D01*
X43871055Y-62727946D01*
X43883315Y-62603464D01*
X43876798Y-62537294D01*
X44243353Y-62170739D01*
X44313335Y-62199727D01*
X44513294Y-62239501D01*
X44717172Y-62239501D01*
X44917131Y-62199727D01*
X45105489Y-62121706D01*
X45275007Y-62008438D01*
X45419170Y-61864275D01*
X45444270Y-61826709D01*
X45498790Y-61905606D01*
X45715604Y-62115748D01*
X45969249Y-62279554D01*
X46249977Y-62390729D01*
X46547000Y-62445000D01*
X47447000Y-62445000D01*
X47447000Y-61037000D01*
X47427000Y-61037000D01*
X47427000Y-60783000D01*
X47447000Y-60783000D01*
X47447000Y-59375000D01*
X46547000Y-59375000D01*
X46249977Y-59429271D01*
X45969249Y-59540446D01*
X45715604Y-59704252D01*
X45498790Y-59914394D01*
X45327138Y-60162796D01*
X45235647Y-60374265D01*
X45105489Y-60287296D01*
X44917131Y-60209275D01*
X44717172Y-60169501D01*
X44513294Y-60169501D01*
X44313335Y-60209275D01*
X44124977Y-60287296D01*
X43955459Y-60400564D01*
X43811296Y-60544727D01*
X43782743Y-60587460D01*
X43765218Y-60528722D01*
X43706761Y-60418139D01*
X43627683Y-60325251D01*
X43403176Y-60325251D01*
X42937016Y-60791411D01*
X42951159Y-60805554D01*
X42771554Y-60985159D01*
X42757411Y-60971016D01*
X42743269Y-60985159D01*
X42623819Y-60865709D01*
X42847972Y-60641556D01*
X42944735Y-60523650D01*
X43016637Y-60389131D01*
X43032553Y-60336664D01*
X43223571Y-60145646D01*
X43223571Y-59921139D01*
X43130683Y-59842061D01*
X43020100Y-59783604D01*
X43009610Y-59780474D01*
X42944735Y-59659102D01*
X42847972Y-59541196D01*
X42649982Y-59343206D01*
X42532076Y-59246443D01*
X42397557Y-59174541D01*
X42278273Y-59138356D01*
X42276980Y-59124585D01*
X42241218Y-59004722D01*
X42182761Y-58894139D01*
X42103683Y-58801251D01*
X41879176Y-58801251D01*
X41413016Y-59267411D01*
X41427159Y-59281554D01*
X41247554Y-59461159D01*
X41233411Y-59447016D01*
X41219269Y-59461159D01*
X41099819Y-59341709D01*
X41323972Y-59117556D01*
X41420735Y-58999650D01*
X41492637Y-58865131D01*
X41508553Y-58812664D01*
X41699571Y-58621646D01*
X41699571Y-58397139D01*
X41606683Y-58318061D01*
X41496100Y-58259604D01*
X41485610Y-58256474D01*
X41420735Y-58135102D01*
X41323972Y-58017196D01*
X41185932Y-57879156D01*
X41346087Y-57719001D01*
X42627126Y-57719001D01*
X42662001Y-57722436D01*
X42696876Y-57719001D01*
X42696878Y-57719001D01*
X42801185Y-57708728D01*
X42935021Y-57668129D01*
X43058364Y-57602201D01*
X43166476Y-57513476D01*
X43188713Y-57486380D01*
X43303477Y-57371616D01*
X43656250Y-57369000D01*
X43815000Y-57210250D01*
X43815000Y-56261000D01*
X44069000Y-56261000D01*
X44069000Y-57210250D01*
X44227750Y-57369000D01*
X44642000Y-57372072D01*
X44766482Y-57359812D01*
X44886180Y-57323502D01*
X44996494Y-57264537D01*
X45093185Y-57185185D01*
X45172537Y-57088494D01*
X45231502Y-56978180D01*
X45267812Y-56858482D01*
X45280072Y-56734000D01*
X45277000Y-56419750D01*
X45118250Y-56261000D01*
X44069000Y-56261000D01*
X43815000Y-56261000D01*
X43795000Y-56261000D01*
X43795000Y-56007000D01*
X43815000Y-56007000D01*
X43815000Y-55987000D01*
X44069000Y-55987000D01*
X44069000Y-56007000D01*
X45118250Y-56007000D01*
X45120767Y-56004483D01*
X45158923Y-56008065D01*
X45180250Y-56005000D01*
X45339000Y-55846250D01*
X45339000Y-55217000D01*
X45593000Y-55217000D01*
X45593000Y-55846250D01*
X45751750Y-56005000D01*
X45773077Y-56008065D01*
X45897613Y-55996375D01*
X46017476Y-55960614D01*
X46128059Y-55902156D01*
X46225113Y-55823247D01*
X46304908Y-55726921D01*
X46364377Y-55616878D01*
X46401235Y-55497348D01*
X46411000Y-55375750D01*
X46252250Y-55217000D01*
X45593000Y-55217000D01*
X45339000Y-55217000D01*
X45319000Y-55217000D01*
X45319000Y-55048072D01*
X45636000Y-55048072D01*
X45787794Y-55033122D01*
X45933755Y-54988845D01*
X45982108Y-54963000D01*
X46252250Y-54963000D01*
X46411000Y-54804250D01*
X46401235Y-54682652D01*
X46364377Y-54563122D01*
X46359172Y-54553491D01*
X46399122Y-54421794D01*
X46414072Y-54270000D01*
X46414072Y-53990000D01*
X46399122Y-53838206D01*
X46354845Y-53692245D01*
X46282943Y-53557726D01*
X46186180Y-53439820D01*
X46068274Y-53343057D01*
X45933755Y-53271155D01*
X45787794Y-53226878D01*
X45636000Y-53211928D01*
X45296000Y-53211928D01*
X45144206Y-53226878D01*
X45104072Y-53239053D01*
X45104072Y-52901000D01*
X45089297Y-52750979D01*
X45206146Y-52750979D01*
X45241021Y-52754414D01*
X45275896Y-52750979D01*
X45275898Y-52750979D01*
X45380205Y-52740706D01*
X45514041Y-52700107D01*
X45637384Y-52634179D01*
X45745496Y-52545454D01*
X45767733Y-52518358D01*
X46081093Y-52204999D01*
X46568456Y-52204999D01*
X46515000Y-52473740D01*
%TA.AperFunction,Conductor*%
D33*
G36*
X46515000Y-52473740D02*
G01*
X46515000Y-52766260D01*
X46572068Y-53053158D01*
X46684010Y-53323411D01*
X46846525Y-53566632D01*
X47053368Y-53773475D01*
X47227760Y-53890000D01*
X47053368Y-54006525D01*
X46846525Y-54213368D01*
X46684010Y-54456589D01*
X46572068Y-54726842D01*
X46515000Y-55013740D01*
X46515000Y-55306260D01*
X46572068Y-55593158D01*
X46684010Y-55863411D01*
X46846525Y-56106632D01*
X47053368Y-56313475D01*
X47227760Y-56430000D01*
X47053368Y-56546525D01*
X46846525Y-56753368D01*
X46684010Y-56996589D01*
X46572068Y-57266842D01*
X46515000Y-57553740D01*
X46515000Y-57846260D01*
X46572068Y-58133158D01*
X46684010Y-58403411D01*
X46846525Y-58646632D01*
X47053368Y-58853475D01*
X47296589Y-59015990D01*
X47566842Y-59127932D01*
X47853740Y-59185000D01*
X48146260Y-59185000D01*
X48433158Y-59127932D01*
X48703411Y-59015990D01*
X48946632Y-58853475D01*
X49153475Y-58646632D01*
X49315990Y-58403411D01*
X49340001Y-58345444D01*
X49340001Y-59644582D01*
X49178751Y-59540446D01*
X48898023Y-59429271D01*
X48601000Y-59375000D01*
X47701000Y-59375000D01*
X47701000Y-60783000D01*
X47721000Y-60783000D01*
X47721000Y-61037000D01*
X47701000Y-61037000D01*
X47701000Y-62445000D01*
X48601000Y-62445000D01*
X48898023Y-62390729D01*
X49178751Y-62279554D01*
X49340001Y-62175418D01*
X49340001Y-72444583D01*
X49178751Y-72340446D01*
X48970537Y-72257988D01*
X49001226Y-72183898D01*
X49041000Y-71983939D01*
X49041000Y-71780061D01*
X49001226Y-71580102D01*
X48923205Y-71391744D01*
X48809937Y-71222226D01*
X48665774Y-71078063D01*
X48496256Y-70964795D01*
X48307898Y-70886774D01*
X48107939Y-70847000D01*
X47904061Y-70847000D01*
X47704102Y-70886774D01*
X47688145Y-70893384D01*
X47678494Y-70885463D01*
X47568180Y-70826498D01*
X47448482Y-70790188D01*
X47324000Y-70777928D01*
X46812095Y-70777928D01*
X46825185Y-70767185D01*
X46904537Y-70670494D01*
X46963502Y-70560180D01*
X46999812Y-70440482D01*
X47012072Y-70316000D01*
X47012072Y-69602178D01*
X47359328Y-69562400D01*
X47789424Y-69424438D01*
X48123509Y-69245867D01*
X48298525Y-68914130D01*
X46874000Y-67489605D01*
X46859858Y-67503748D01*
X46680253Y-67324143D01*
X46694395Y-67310000D01*
X47053605Y-67310000D01*
X48478130Y-68734525D01*
X48809867Y-68559509D01*
X49016437Y-68157832D01*
X49140674Y-67723572D01*
X49177804Y-67273419D01*
X49126400Y-66824672D01*
X48988438Y-66394576D01*
X48809867Y-66060491D01*
X48478130Y-65885475D01*
X47053605Y-67310000D01*
X46694395Y-67310000D01*
X46680253Y-67295858D01*
X46859858Y-67116253D01*
X46874000Y-67130395D01*
X48298525Y-65705870D01*
X48177139Y-65475787D01*
X48239226Y-65325898D01*
X48279000Y-65125939D01*
X48279000Y-64922061D01*
X48239226Y-64722102D01*
X48161205Y-64533744D01*
X48047937Y-64364226D01*
X47903774Y-64220063D01*
X47734256Y-64106795D01*
X47545898Y-64028774D01*
X47345939Y-63989000D01*
X47142061Y-63989000D01*
X46942102Y-64028774D01*
X46853880Y-64065317D01*
X46816968Y-63976203D01*
X46703700Y-63806685D01*
X46559537Y-63662522D01*
X46390019Y-63549254D01*
X46201661Y-63471233D01*
X46001702Y-63431459D01*
X45797824Y-63431459D01*
X45597865Y-63471233D01*
X45409507Y-63549254D01*
X45239989Y-63662522D01*
X45095826Y-63806685D01*
X44982558Y-63976203D01*
X44967514Y-64012522D01*
X44875909Y-63974578D01*
X44675950Y-63934804D01*
X44472072Y-63934804D01*
X44272113Y-63974578D01*
X44083755Y-64052599D01*
X43914237Y-64165867D01*
X43770074Y-64310030D01*
X43656806Y-64479548D01*
X43639871Y-64520432D01*
X43455690Y-64704613D01*
X42751077Y-64000000D01*
X43696428Y-63054649D01*
X43775780Y-62957958D01*
X43834745Y-62847644D01*
X43871055Y-62727946D01*
X43883315Y-62603464D01*
X43876798Y-62537294D01*
X44243353Y-62170739D01*
X44313335Y-62199727D01*
X44513294Y-62239501D01*
X44717172Y-62239501D01*
X44917131Y-62199727D01*
X45105489Y-62121706D01*
X45275007Y-62008438D01*
X45419170Y-61864275D01*
X45444270Y-61826709D01*
X45498790Y-61905606D01*
X45715604Y-62115748D01*
X45969249Y-62279554D01*
X46249977Y-62390729D01*
X46547000Y-62445000D01*
X47447000Y-62445000D01*
X47447000Y-61037000D01*
X47427000Y-61037000D01*
X47427000Y-60783000D01*
X47447000Y-60783000D01*
X47447000Y-59375000D01*
X46547000Y-59375000D01*
X46249977Y-59429271D01*
X45969249Y-59540446D01*
X45715604Y-59704252D01*
X45498790Y-59914394D01*
X45327138Y-60162796D01*
X45235647Y-60374265D01*
X45105489Y-60287296D01*
X44917131Y-60209275D01*
X44717172Y-60169501D01*
X44513294Y-60169501D01*
X44313335Y-60209275D01*
X44124977Y-60287296D01*
X43955459Y-60400564D01*
X43811296Y-60544727D01*
X43782743Y-60587460D01*
X43765218Y-60528722D01*
X43706761Y-60418139D01*
X43627683Y-60325251D01*
X43403176Y-60325251D01*
X42937016Y-60791411D01*
X42951159Y-60805554D01*
X42771554Y-60985159D01*
X42757411Y-60971016D01*
X42743269Y-60985159D01*
X42623819Y-60865709D01*
X42847972Y-60641556D01*
X42944735Y-60523650D01*
X43016637Y-60389131D01*
X43032553Y-60336664D01*
X43223571Y-60145646D01*
X43223571Y-59921139D01*
X43130683Y-59842061D01*
X43020100Y-59783604D01*
X43009610Y-59780474D01*
X42944735Y-59659102D01*
X42847972Y-59541196D01*
X42649982Y-59343206D01*
X42532076Y-59246443D01*
X42397557Y-59174541D01*
X42278273Y-59138356D01*
X42276980Y-59124585D01*
X42241218Y-59004722D01*
X42182761Y-58894139D01*
X42103683Y-58801251D01*
X41879176Y-58801251D01*
X41413016Y-59267411D01*
X41427159Y-59281554D01*
X41247554Y-59461159D01*
X41233411Y-59447016D01*
X41219269Y-59461159D01*
X41099819Y-59341709D01*
X41323972Y-59117556D01*
X41420735Y-58999650D01*
X41492637Y-58865131D01*
X41508553Y-58812664D01*
X41699571Y-58621646D01*
X41699571Y-58397139D01*
X41606683Y-58318061D01*
X41496100Y-58259604D01*
X41485610Y-58256474D01*
X41420735Y-58135102D01*
X41323972Y-58017196D01*
X41185932Y-57879156D01*
X41346087Y-57719001D01*
X42627126Y-57719001D01*
X42662001Y-57722436D01*
X42696876Y-57719001D01*
X42696878Y-57719001D01*
X42801185Y-57708728D01*
X42935021Y-57668129D01*
X43058364Y-57602201D01*
X43166476Y-57513476D01*
X43188713Y-57486380D01*
X43303477Y-57371616D01*
X43656250Y-57369000D01*
X43815000Y-57210250D01*
X43815000Y-56261000D01*
X44069000Y-56261000D01*
X44069000Y-57210250D01*
X44227750Y-57369000D01*
X44642000Y-57372072D01*
X44766482Y-57359812D01*
X44886180Y-57323502D01*
X44996494Y-57264537D01*
X45093185Y-57185185D01*
X45172537Y-57088494D01*
X45231502Y-56978180D01*
X45267812Y-56858482D01*
X45280072Y-56734000D01*
X45277000Y-56419750D01*
X45118250Y-56261000D01*
X44069000Y-56261000D01*
X43815000Y-56261000D01*
X43795000Y-56261000D01*
X43795000Y-56007000D01*
X43815000Y-56007000D01*
X43815000Y-55987000D01*
X44069000Y-55987000D01*
X44069000Y-56007000D01*
X45118250Y-56007000D01*
X45120767Y-56004483D01*
X45158923Y-56008065D01*
X45180250Y-56005000D01*
X45339000Y-55846250D01*
X45339000Y-55217000D01*
X45593000Y-55217000D01*
X45593000Y-55846250D01*
X45751750Y-56005000D01*
X45773077Y-56008065D01*
X45897613Y-55996375D01*
X46017476Y-55960614D01*
X46128059Y-55902156D01*
X46225113Y-55823247D01*
X46304908Y-55726921D01*
X46364377Y-55616878D01*
X46401235Y-55497348D01*
X46411000Y-55375750D01*
X46252250Y-55217000D01*
X45593000Y-55217000D01*
X45339000Y-55217000D01*
X45319000Y-55217000D01*
X45319000Y-55048072D01*
X45636000Y-55048072D01*
X45787794Y-55033122D01*
X45933755Y-54988845D01*
X45982108Y-54963000D01*
X46252250Y-54963000D01*
X46411000Y-54804250D01*
X46401235Y-54682652D01*
X46364377Y-54563122D01*
X46359172Y-54553491D01*
X46399122Y-54421794D01*
X46414072Y-54270000D01*
X46414072Y-53990000D01*
X46399122Y-53838206D01*
X46354845Y-53692245D01*
X46282943Y-53557726D01*
X46186180Y-53439820D01*
X46068274Y-53343057D01*
X45933755Y-53271155D01*
X45787794Y-53226878D01*
X45636000Y-53211928D01*
X45296000Y-53211928D01*
X45144206Y-53226878D01*
X45104072Y-53239053D01*
X45104072Y-52901000D01*
X45089297Y-52750979D01*
X45206146Y-52750979D01*
X45241021Y-52754414D01*
X45275896Y-52750979D01*
X45275898Y-52750979D01*
X45380205Y-52740706D01*
X45514041Y-52700107D01*
X45637384Y-52634179D01*
X45745496Y-52545454D01*
X45767733Y-52518358D01*
X46081093Y-52204999D01*
X46568456Y-52204999D01*
X46515000Y-52473740D01*
G37*
%TD.AperFunction*%
D32*
X25770525Y-58604632D02*
X25977368Y-58811475D01*
X26220589Y-58973990D01*
X26490842Y-59085932D01*
X26777740Y-59143000D01*
X27070260Y-59143000D01*
X27133954Y-59130330D01*
X27483000Y-59479376D01*
X27483000Y-60783000D01*
X27503000Y-60783000D01*
X27503000Y-61037000D01*
X27483000Y-61037000D01*
X27483000Y-62445000D01*
X27753990Y-62445000D01*
X27753990Y-62501177D01*
X27793764Y-62701136D01*
X27871785Y-62889494D01*
X27985053Y-63059012D01*
X28129216Y-63203175D01*
X28298734Y-63316443D01*
X28487092Y-63394464D01*
X28687051Y-63434238D01*
X28890929Y-63434238D01*
X29090888Y-63394464D01*
X29279246Y-63316443D01*
X29448764Y-63203175D01*
X29458116Y-63193823D01*
X29460771Y-63207173D01*
X29538792Y-63395531D01*
X29652060Y-63565049D01*
X29796223Y-63709212D01*
X29965741Y-63822480D01*
X30154099Y-63900501D01*
X30354058Y-63940275D01*
X30557936Y-63940275D01*
X30757895Y-63900501D01*
X30946253Y-63822480D01*
X31115771Y-63709212D01*
X31140288Y-63684695D01*
X31933618Y-63684695D01*
X32248923Y-64000000D01*
X31933618Y-64315305D01*
X31529570Y-64315305D01*
X31494695Y-64311870D01*
X31459820Y-64315305D01*
X31459818Y-64315305D01*
X31355511Y-64325578D01*
X31221675Y-64366177D01*
X31098332Y-64432105D01*
X31019257Y-64497000D01*
X30886061Y-64497000D01*
X30686102Y-64536774D01*
X30497744Y-64614795D01*
X30328226Y-64728063D01*
X30184063Y-64872226D01*
X30070795Y-65041744D01*
X29992774Y-65230102D01*
X29953000Y-65430061D01*
X29953000Y-65633939D01*
X29992774Y-65833898D01*
X30070795Y-66022256D01*
X30184063Y-66191774D01*
X30273121Y-66280832D01*
X30166585Y-66387368D01*
X29991867Y-66060491D01*
X29660130Y-65885475D01*
X28235605Y-67310000D01*
X28249748Y-67324143D01*
X28070143Y-67503748D01*
X28056000Y-67489605D01*
X26631475Y-68914130D01*
X26806491Y-69245867D01*
X27024107Y-69357780D01*
X27022795Y-69359744D01*
X26944774Y-69548102D01*
X26905000Y-69748061D01*
X26905000Y-69951939D01*
X26944774Y-70151898D01*
X27022795Y-70340256D01*
X27136063Y-70509774D01*
X27280226Y-70653937D01*
X27449744Y-70767205D01*
X27500675Y-70788301D01*
X27481518Y-70790188D01*
X27361820Y-70826498D01*
X27251506Y-70885463D01*
X27154815Y-70964815D01*
X27075463Y-71061506D01*
X27016498Y-71171820D01*
X26980188Y-71291518D01*
X26967928Y-71416000D01*
X26967928Y-72175000D01*
X26329000Y-72175000D01*
X26031977Y-72229271D01*
X25751249Y-72340446D01*
X25660000Y-72399375D01*
X25660000Y-67346581D01*
X25752196Y-67346581D01*
X25803600Y-67795328D01*
X25941562Y-68225424D01*
X26120133Y-68559509D01*
X26451870Y-68734525D01*
X27876395Y-67310000D01*
X26451870Y-65885475D01*
X26120133Y-66060491D01*
X25913563Y-66462168D01*
X25789326Y-66896428D01*
X25752196Y-67346581D01*
X25660000Y-67346581D01*
X25660000Y-65705870D01*
X26631475Y-65705870D01*
X28056000Y-67130395D01*
X29480525Y-65705870D01*
X29305509Y-65374133D01*
X28903832Y-65167563D01*
X28469572Y-65043326D01*
X28019419Y-65006196D01*
X27570672Y-65057600D01*
X27140576Y-65195562D01*
X26806491Y-65374133D01*
X26631475Y-65705870D01*
X25660000Y-65705870D01*
X25660000Y-62220625D01*
X25751249Y-62279554D01*
X26031977Y-62390729D01*
X26329000Y-62445000D01*
X27229000Y-62445000D01*
X27229000Y-61037000D01*
X27209000Y-61037000D01*
X27209000Y-60783000D01*
X27229000Y-60783000D01*
X27229000Y-59375000D01*
X26329000Y-59375000D01*
X26031977Y-59429271D01*
X25751249Y-59540446D01*
X25660000Y-59599375D01*
X25660000Y-58439220D01*
X25770525Y-58604632D01*
%TA.AperFunction,Conductor*%
D33*
G36*
X25770525Y-58604632D02*
G01*
X25977368Y-58811475D01*
X26220589Y-58973990D01*
X26490842Y-59085932D01*
X26777740Y-59143000D01*
X27070260Y-59143000D01*
X27133954Y-59130330D01*
X27483000Y-59479376D01*
X27483000Y-60783000D01*
X27503000Y-60783000D01*
X27503000Y-61037000D01*
X27483000Y-61037000D01*
X27483000Y-62445000D01*
X27753990Y-62445000D01*
X27753990Y-62501177D01*
X27793764Y-62701136D01*
X27871785Y-62889494D01*
X27985053Y-63059012D01*
X28129216Y-63203175D01*
X28298734Y-63316443D01*
X28487092Y-63394464D01*
X28687051Y-63434238D01*
X28890929Y-63434238D01*
X29090888Y-63394464D01*
X29279246Y-63316443D01*
X29448764Y-63203175D01*
X29458116Y-63193823D01*
X29460771Y-63207173D01*
X29538792Y-63395531D01*
X29652060Y-63565049D01*
X29796223Y-63709212D01*
X29965741Y-63822480D01*
X30154099Y-63900501D01*
X30354058Y-63940275D01*
X30557936Y-63940275D01*
X30757895Y-63900501D01*
X30946253Y-63822480D01*
X31115771Y-63709212D01*
X31140288Y-63684695D01*
X31933618Y-63684695D01*
X32248923Y-64000000D01*
X31933618Y-64315305D01*
X31529570Y-64315305D01*
X31494695Y-64311870D01*
X31459820Y-64315305D01*
X31459818Y-64315305D01*
X31355511Y-64325578D01*
X31221675Y-64366177D01*
X31098332Y-64432105D01*
X31019257Y-64497000D01*
X30886061Y-64497000D01*
X30686102Y-64536774D01*
X30497744Y-64614795D01*
X30328226Y-64728063D01*
X30184063Y-64872226D01*
X30070795Y-65041744D01*
X29992774Y-65230102D01*
X29953000Y-65430061D01*
X29953000Y-65633939D01*
X29992774Y-65833898D01*
X30070795Y-66022256D01*
X30184063Y-66191774D01*
X30273121Y-66280832D01*
X30166585Y-66387368D01*
X29991867Y-66060491D01*
X29660130Y-65885475D01*
X28235605Y-67310000D01*
X28249748Y-67324143D01*
X28070143Y-67503748D01*
X28056000Y-67489605D01*
X26631475Y-68914130D01*
X26806491Y-69245867D01*
X27024107Y-69357780D01*
X27022795Y-69359744D01*
X26944774Y-69548102D01*
X26905000Y-69748061D01*
X26905000Y-69951939D01*
X26944774Y-70151898D01*
X27022795Y-70340256D01*
X27136063Y-70509774D01*
X27280226Y-70653937D01*
X27449744Y-70767205D01*
X27500675Y-70788301D01*
X27481518Y-70790188D01*
X27361820Y-70826498D01*
X27251506Y-70885463D01*
X27154815Y-70964815D01*
X27075463Y-71061506D01*
X27016498Y-71171820D01*
X26980188Y-71291518D01*
X26967928Y-71416000D01*
X26967928Y-72175000D01*
X26329000Y-72175000D01*
X26031977Y-72229271D01*
X25751249Y-72340446D01*
X25660000Y-72399375D01*
X25660000Y-67346581D01*
X25752196Y-67346581D01*
X25803600Y-67795328D01*
X25941562Y-68225424D01*
X26120133Y-68559509D01*
X26451870Y-68734525D01*
X27876395Y-67310000D01*
X26451870Y-65885475D01*
X26120133Y-66060491D01*
X25913563Y-66462168D01*
X25789326Y-66896428D01*
X25752196Y-67346581D01*
X25660000Y-67346581D01*
X25660000Y-65705870D01*
X26631475Y-65705870D01*
X28056000Y-67130395D01*
X29480525Y-65705870D01*
X29305509Y-65374133D01*
X28903832Y-65167563D01*
X28469572Y-65043326D01*
X28019419Y-65006196D01*
X27570672Y-65057600D01*
X27140576Y-65195562D01*
X26806491Y-65374133D01*
X26631475Y-65705870D01*
X25660000Y-65705870D01*
X25660000Y-62220625D01*
X25751249Y-62279554D01*
X26031977Y-62390729D01*
X26329000Y-62445000D01*
X27229000Y-62445000D01*
X27229000Y-61037000D01*
X27209000Y-61037000D01*
X27209000Y-60783000D01*
X27229000Y-60783000D01*
X27229000Y-59375000D01*
X26329000Y-59375000D01*
X26031977Y-59429271D01*
X25751249Y-59540446D01*
X25660000Y-59599375D01*
X25660000Y-58439220D01*
X25770525Y-58604632D01*
G37*
%TD.AperFunction*%
D32*
X44759562Y-68225424D02*
X44938133Y-68559509D01*
X45269868Y-68734524D01*
X45155390Y-68849002D01*
X45204317Y-68897929D01*
X45122815Y-68964815D01*
X45043463Y-69061506D01*
X44992954Y-69156000D01*
X44739871Y-69156000D01*
X44704996Y-69152565D01*
X44670121Y-69156000D01*
X44670119Y-69156000D01*
X44565812Y-69166273D01*
X44431976Y-69206872D01*
X44308633Y-69272800D01*
X44200521Y-69361525D01*
X44178284Y-69388621D01*
X43521606Y-70045299D01*
X43494515Y-70067532D01*
X43472282Y-70094623D01*
X43405790Y-70175644D01*
X43393155Y-70199282D01*
X43349490Y-70190596D01*
X43225009Y-70178336D01*
X43200450Y-70178336D01*
X43176000Y-70175928D01*
X42792019Y-70175928D01*
X42750712Y-70134621D01*
X42728475Y-70107525D01*
X42620363Y-70018800D01*
X42497020Y-69952872D01*
X42444717Y-69937006D01*
X42315774Y-69808063D01*
X42146256Y-69694795D01*
X41957898Y-69616774D01*
X41757939Y-69577000D01*
X41554061Y-69577000D01*
X41354102Y-69616774D01*
X41165744Y-69694795D01*
X40996226Y-69808063D01*
X40867283Y-69937006D01*
X40814980Y-69952872D01*
X40691637Y-70018800D01*
X40583525Y-70107525D01*
X40561288Y-70134621D01*
X40519981Y-70175928D01*
X40136000Y-70175928D01*
X40111550Y-70178336D01*
X40086991Y-70178336D01*
X39962510Y-70190596D01*
X39866377Y-70209718D01*
X39807091Y-70227702D01*
X41047930Y-68986863D01*
X41332456Y-69271389D01*
X41354693Y-69298485D01*
X41462805Y-69387210D01*
X41576403Y-69447929D01*
X41586148Y-69453138D01*
X41719983Y-69493737D01*
X41859168Y-69507445D01*
X41894045Y-69504010D01*
X42554115Y-69504010D01*
X42588990Y-69507445D01*
X42623865Y-69504010D01*
X42623867Y-69504010D01*
X42728174Y-69493737D01*
X42862010Y-69453138D01*
X42985353Y-69387210D01*
X43093465Y-69298485D01*
X43115702Y-69271389D01*
X43230019Y-69157072D01*
X43319000Y-69157072D01*
X43469819Y-69142218D01*
X43614842Y-69098225D01*
X43748496Y-69026786D01*
X43865644Y-68930644D01*
X43961786Y-68813496D01*
X44033225Y-68679842D01*
X44077218Y-68534819D01*
X44092072Y-68384000D01*
X44092072Y-68276137D01*
X44134990Y-68263118D01*
X44258333Y-68197190D01*
X44366445Y-68108465D01*
X44388682Y-68081369D01*
X44536696Y-67933355D01*
X44597715Y-67914845D01*
X44650831Y-67886454D01*
X44759562Y-68225424D01*
%TA.AperFunction,Conductor*%
D33*
G36*
X44759562Y-68225424D02*
G01*
X44938133Y-68559509D01*
X45269868Y-68734524D01*
X45155390Y-68849002D01*
X45204317Y-68897929D01*
X45122815Y-68964815D01*
X45043463Y-69061506D01*
X44992954Y-69156000D01*
X44739871Y-69156000D01*
X44704996Y-69152565D01*
X44670121Y-69156000D01*
X44670119Y-69156000D01*
X44565812Y-69166273D01*
X44431976Y-69206872D01*
X44308633Y-69272800D01*
X44200521Y-69361525D01*
X44178284Y-69388621D01*
X43521606Y-70045299D01*
X43494515Y-70067532D01*
X43472282Y-70094623D01*
X43405790Y-70175644D01*
X43393155Y-70199282D01*
X43349490Y-70190596D01*
X43225009Y-70178336D01*
X43200450Y-70178336D01*
X43176000Y-70175928D01*
X42792019Y-70175928D01*
X42750712Y-70134621D01*
X42728475Y-70107525D01*
X42620363Y-70018800D01*
X42497020Y-69952872D01*
X42444717Y-69937006D01*
X42315774Y-69808063D01*
X42146256Y-69694795D01*
X41957898Y-69616774D01*
X41757939Y-69577000D01*
X41554061Y-69577000D01*
X41354102Y-69616774D01*
X41165744Y-69694795D01*
X40996226Y-69808063D01*
X40867283Y-69937006D01*
X40814980Y-69952872D01*
X40691637Y-70018800D01*
X40583525Y-70107525D01*
X40561288Y-70134621D01*
X40519981Y-70175928D01*
X40136000Y-70175928D01*
X40111550Y-70178336D01*
X40086991Y-70178336D01*
X39962510Y-70190596D01*
X39866377Y-70209718D01*
X39807091Y-70227702D01*
X41047930Y-68986863D01*
X41332456Y-69271389D01*
X41354693Y-69298485D01*
X41462805Y-69387210D01*
X41576403Y-69447929D01*
X41586148Y-69453138D01*
X41719983Y-69493737D01*
X41859168Y-69507445D01*
X41894045Y-69504010D01*
X42554115Y-69504010D01*
X42588990Y-69507445D01*
X42623865Y-69504010D01*
X42623867Y-69504010D01*
X42728174Y-69493737D01*
X42862010Y-69453138D01*
X42985353Y-69387210D01*
X43093465Y-69298485D01*
X43115702Y-69271389D01*
X43230019Y-69157072D01*
X43319000Y-69157072D01*
X43469819Y-69142218D01*
X43614842Y-69098225D01*
X43748496Y-69026786D01*
X43865644Y-68930644D01*
X43961786Y-68813496D01*
X44033225Y-68679842D01*
X44077218Y-68534819D01*
X44092072Y-68384000D01*
X44092072Y-68276137D01*
X44134990Y-68263118D01*
X44258333Y-68197190D01*
X44366445Y-68108465D01*
X44388682Y-68081369D01*
X44536696Y-67933355D01*
X44597715Y-67914845D01*
X44650831Y-67886454D01*
X44759562Y-68225424D01*
G37*
%TD.AperFunction*%
D32*
X31845873Y-68111761D02*
X31963779Y-68208524D01*
X32098298Y-68280426D01*
X32118410Y-68286527D01*
X32126723Y-68313931D01*
X32198625Y-68448450D01*
X32295388Y-68566356D01*
X32519021Y-68789989D01*
X32251837Y-68789989D01*
X32192202Y-68730354D01*
X32206344Y-68716211D01*
X32162178Y-68672045D01*
X32162178Y-68666965D01*
X31696018Y-68200805D01*
X31681876Y-68214948D01*
X31680172Y-68213244D01*
X31680172Y-67946060D01*
X31845873Y-68111761D01*
%TA.AperFunction,Conductor*%
D33*
G36*
X31845873Y-68111761D02*
G01*
X31963779Y-68208524D01*
X32098298Y-68280426D01*
X32118410Y-68286527D01*
X32126723Y-68313931D01*
X32198625Y-68448450D01*
X32295388Y-68566356D01*
X32519021Y-68789989D01*
X32251837Y-68789989D01*
X32192202Y-68730354D01*
X32206344Y-68716211D01*
X32162178Y-68672045D01*
X32162178Y-68666965D01*
X31696018Y-68200805D01*
X31681876Y-68214948D01*
X31680172Y-68213244D01*
X31680172Y-67946060D01*
X31845873Y-68111761D01*
G37*
%TD.AperFunction*%
D32*
X27397001Y-53056091D02*
X27397001Y-53218126D01*
X27393566Y-53253001D01*
X27397001Y-53287876D01*
X27397001Y-53287877D01*
X27407274Y-53392184D01*
X27447873Y-53526020D01*
X27504198Y-53631397D01*
X27209750Y-53633000D01*
X27051000Y-53791750D01*
X27051000Y-54991000D01*
X28250250Y-54991000D01*
X28409000Y-54832250D01*
X28410479Y-54560571D01*
X29210668Y-55360760D01*
X29164010Y-55430589D01*
X29052068Y-55700842D01*
X28995000Y-55987740D01*
X28995000Y-56280260D01*
X29052068Y-56567158D01*
X29164010Y-56837411D01*
X29326525Y-57080632D01*
X29533368Y-57287475D01*
X29776589Y-57449990D01*
X30046842Y-57561932D01*
X30333740Y-57619000D01*
X30626260Y-57619000D01*
X30895001Y-57565544D01*
X30895001Y-58036173D01*
X30761158Y-58076775D01*
X30627504Y-58148214D01*
X30510356Y-58244356D01*
X30414214Y-58361504D01*
X30342775Y-58495158D01*
X30298782Y-58640181D01*
X30283928Y-58791000D01*
X30283928Y-58823357D01*
X30208256Y-58772795D01*
X30019898Y-58694774D01*
X29819939Y-58655000D01*
X29616061Y-58655000D01*
X29416102Y-58694774D01*
X29227744Y-58772795D01*
X29058226Y-58886063D01*
X28978048Y-58966242D01*
X28279011Y-58267205D01*
X28351932Y-58091158D01*
X28409000Y-57804260D01*
X28409000Y-57511740D01*
X28351932Y-57224842D01*
X28239990Y-56954589D01*
X28077475Y-56711368D01*
X27945620Y-56579513D01*
X28018180Y-56557502D01*
X28128494Y-56498537D01*
X28225185Y-56419185D01*
X28304537Y-56322494D01*
X28363502Y-56212180D01*
X28399812Y-56092482D01*
X28412072Y-55968000D01*
X28409000Y-55403750D01*
X28250250Y-55245000D01*
X27051000Y-55245000D01*
X27051000Y-55265000D01*
X26797000Y-55265000D01*
X26797000Y-55245000D01*
X26777000Y-55245000D01*
X26777000Y-54991000D01*
X26797000Y-54991000D01*
X26797000Y-53791750D01*
X26638250Y-53633000D01*
X26074000Y-53629928D01*
X25949518Y-53642188D01*
X25829820Y-53678498D01*
X25719506Y-53737463D01*
X25660000Y-53786298D01*
X25660000Y-52886172D01*
X26567450Y-52886172D01*
X26739485Y-52869228D01*
X26904909Y-52819047D01*
X27057364Y-52737558D01*
X27068956Y-52728045D01*
X27397001Y-53056091D01*
%TA.AperFunction,Conductor*%
D33*
G36*
X27397001Y-53056091D02*
G01*
X27397001Y-53218126D01*
X27393566Y-53253001D01*
X27397001Y-53287876D01*
X27397001Y-53287877D01*
X27407274Y-53392184D01*
X27447873Y-53526020D01*
X27504198Y-53631397D01*
X27209750Y-53633000D01*
X27051000Y-53791750D01*
X27051000Y-54991000D01*
X28250250Y-54991000D01*
X28409000Y-54832250D01*
X28410479Y-54560571D01*
X29210668Y-55360760D01*
X29164010Y-55430589D01*
X29052068Y-55700842D01*
X28995000Y-55987740D01*
X28995000Y-56280260D01*
X29052068Y-56567158D01*
X29164010Y-56837411D01*
X29326525Y-57080632D01*
X29533368Y-57287475D01*
X29776589Y-57449990D01*
X30046842Y-57561932D01*
X30333740Y-57619000D01*
X30626260Y-57619000D01*
X30895001Y-57565544D01*
X30895001Y-58036173D01*
X30761158Y-58076775D01*
X30627504Y-58148214D01*
X30510356Y-58244356D01*
X30414214Y-58361504D01*
X30342775Y-58495158D01*
X30298782Y-58640181D01*
X30283928Y-58791000D01*
X30283928Y-58823357D01*
X30208256Y-58772795D01*
X30019898Y-58694774D01*
X29819939Y-58655000D01*
X29616061Y-58655000D01*
X29416102Y-58694774D01*
X29227744Y-58772795D01*
X29058226Y-58886063D01*
X28978048Y-58966242D01*
X28279011Y-58267205D01*
X28351932Y-58091158D01*
X28409000Y-57804260D01*
X28409000Y-57511740D01*
X28351932Y-57224842D01*
X28239990Y-56954589D01*
X28077475Y-56711368D01*
X27945620Y-56579513D01*
X28018180Y-56557502D01*
X28128494Y-56498537D01*
X28225185Y-56419185D01*
X28304537Y-56322494D01*
X28363502Y-56212180D01*
X28399812Y-56092482D01*
X28412072Y-55968000D01*
X28409000Y-55403750D01*
X28250250Y-55245000D01*
X27051000Y-55245000D01*
X27051000Y-55265000D01*
X26797000Y-55265000D01*
X26797000Y-55245000D01*
X26777000Y-55245000D01*
X26777000Y-54991000D01*
X26797000Y-54991000D01*
X26797000Y-53791750D01*
X26638250Y-53633000D01*
X26074000Y-53629928D01*
X25949518Y-53642188D01*
X25829820Y-53678498D01*
X25719506Y-53737463D01*
X25660000Y-53786298D01*
X25660000Y-52886172D01*
X26567450Y-52886172D01*
X26739485Y-52869228D01*
X26904909Y-52819047D01*
X27057364Y-52737558D01*
X27068956Y-52728045D01*
X27397001Y-53056091D01*
G37*
%TD.AperFunction*%
D32*
X39345750Y-54003000D02*
X40005000Y-54003000D01*
X40005000Y-53983000D01*
X40259000Y-53983000D01*
X40259000Y-54003000D01*
X40279000Y-54003000D01*
X40279000Y-54171928D01*
X39962000Y-54171928D01*
X39810206Y-54186878D01*
X39664245Y-54231155D01*
X39615892Y-54257000D01*
X39345750Y-54257000D01*
X39187000Y-54415750D01*
X39196765Y-54537348D01*
X39233623Y-54656878D01*
X39238828Y-54666509D01*
X39198878Y-54798206D01*
X39183928Y-54950000D01*
X39183928Y-55230000D01*
X39198878Y-55381794D01*
X39243155Y-55527755D01*
X39315057Y-55662274D01*
X39411820Y-55780180D01*
X39529726Y-55876943D01*
X39664245Y-55948845D01*
X39810206Y-55993122D01*
X39962000Y-56008072D01*
X40045981Y-56008072D01*
X40287010Y-56249101D01*
X38917374Y-57618737D01*
X38896536Y-57616685D01*
X38772054Y-57628945D01*
X38652356Y-57665255D01*
X38542042Y-57724220D01*
X38445351Y-57803572D01*
X37500000Y-58748923D01*
X37222130Y-58471053D01*
X37235774Y-58461937D01*
X37379937Y-58317774D01*
X37493205Y-58148256D01*
X37571226Y-57959898D01*
X37611000Y-57759939D01*
X37611000Y-57556061D01*
X37571226Y-57356102D01*
X37493205Y-57167744D01*
X37379937Y-56998226D01*
X37235774Y-56854063D01*
X37066256Y-56740795D01*
X36877898Y-56662774D01*
X36677939Y-56623000D01*
X36474061Y-56623000D01*
X36274102Y-56662774D01*
X36085744Y-56740795D01*
X35916226Y-56854063D01*
X35822289Y-56948000D01*
X34256524Y-56948000D01*
X34291641Y-56900920D01*
X34416825Y-56638099D01*
X34461476Y-56490890D01*
X34340155Y-56261000D01*
X33147000Y-56261000D01*
X33147000Y-56281000D01*
X32893000Y-56281000D01*
X32893000Y-56261000D01*
X32873000Y-56261000D01*
X32873000Y-56007000D01*
X32893000Y-56007000D01*
X32893000Y-55987000D01*
X33147000Y-55987000D01*
X33147000Y-56007000D01*
X34340155Y-56007000D01*
X34461476Y-55777110D01*
X34430622Y-55675388D01*
X34441774Y-55667937D01*
X34585937Y-55523774D01*
X34675502Y-55389730D01*
X34765084Y-55523799D01*
X34909247Y-55667962D01*
X35078765Y-55781230D01*
X35267123Y-55859251D01*
X35467082Y-55899025D01*
X35670960Y-55899025D01*
X35870919Y-55859251D01*
X36059277Y-55781230D01*
X36228795Y-55667962D01*
X36322757Y-55574000D01*
X36838289Y-55574000D01*
X36932226Y-55667937D01*
X37101744Y-55781205D01*
X37290102Y-55859226D01*
X37490061Y-55899000D01*
X37693939Y-55899000D01*
X37893898Y-55859226D01*
X38082256Y-55781205D01*
X38251774Y-55667937D01*
X38395937Y-55523774D01*
X38509205Y-55354256D01*
X38587226Y-55165898D01*
X38627000Y-54965939D01*
X38627000Y-54762061D01*
X38587226Y-54562102D01*
X38509205Y-54373744D01*
X38395937Y-54204226D01*
X38251774Y-54060063D01*
X38082256Y-53946795D01*
X37893898Y-53868774D01*
X37829734Y-53856011D01*
X39198761Y-53856011D01*
X39345750Y-54003000D01*
%TA.AperFunction,Conductor*%
D33*
G36*
X39345750Y-54003000D02*
G01*
X40005000Y-54003000D01*
X40005000Y-53983000D01*
X40259000Y-53983000D01*
X40259000Y-54003000D01*
X40279000Y-54003000D01*
X40279000Y-54171928D01*
X39962000Y-54171928D01*
X39810206Y-54186878D01*
X39664245Y-54231155D01*
X39615892Y-54257000D01*
X39345750Y-54257000D01*
X39187000Y-54415750D01*
X39196765Y-54537348D01*
X39233623Y-54656878D01*
X39238828Y-54666509D01*
X39198878Y-54798206D01*
X39183928Y-54950000D01*
X39183928Y-55230000D01*
X39198878Y-55381794D01*
X39243155Y-55527755D01*
X39315057Y-55662274D01*
X39411820Y-55780180D01*
X39529726Y-55876943D01*
X39664245Y-55948845D01*
X39810206Y-55993122D01*
X39962000Y-56008072D01*
X40045981Y-56008072D01*
X40287010Y-56249101D01*
X38917374Y-57618737D01*
X38896536Y-57616685D01*
X38772054Y-57628945D01*
X38652356Y-57665255D01*
X38542042Y-57724220D01*
X38445351Y-57803572D01*
X37500000Y-58748923D01*
X37222130Y-58471053D01*
X37235774Y-58461937D01*
X37379937Y-58317774D01*
X37493205Y-58148256D01*
X37571226Y-57959898D01*
X37611000Y-57759939D01*
X37611000Y-57556061D01*
X37571226Y-57356102D01*
X37493205Y-57167744D01*
X37379937Y-56998226D01*
X37235774Y-56854063D01*
X37066256Y-56740795D01*
X36877898Y-56662774D01*
X36677939Y-56623000D01*
X36474061Y-56623000D01*
X36274102Y-56662774D01*
X36085744Y-56740795D01*
X35916226Y-56854063D01*
X35822289Y-56948000D01*
X34256524Y-56948000D01*
X34291641Y-56900920D01*
X34416825Y-56638099D01*
X34461476Y-56490890D01*
X34340155Y-56261000D01*
X33147000Y-56261000D01*
X33147000Y-56281000D01*
X32893000Y-56281000D01*
X32893000Y-56261000D01*
X32873000Y-56261000D01*
X32873000Y-56007000D01*
X32893000Y-56007000D01*
X32893000Y-55987000D01*
X33147000Y-55987000D01*
X33147000Y-56007000D01*
X34340155Y-56007000D01*
X34461476Y-55777110D01*
X34430622Y-55675388D01*
X34441774Y-55667937D01*
X34585937Y-55523774D01*
X34675502Y-55389730D01*
X34765084Y-55523799D01*
X34909247Y-55667962D01*
X35078765Y-55781230D01*
X35267123Y-55859251D01*
X35467082Y-55899025D01*
X35670960Y-55899025D01*
X35870919Y-55859251D01*
X36059277Y-55781230D01*
X36228795Y-55667962D01*
X36322757Y-55574000D01*
X36838289Y-55574000D01*
X36932226Y-55667937D01*
X37101744Y-55781205D01*
X37290102Y-55859226D01*
X37490061Y-55899000D01*
X37693939Y-55899000D01*
X37893898Y-55859226D01*
X38082256Y-55781205D01*
X38251774Y-55667937D01*
X38395937Y-55523774D01*
X38509205Y-55354256D01*
X38587226Y-55165898D01*
X38627000Y-54965939D01*
X38627000Y-54762061D01*
X38587226Y-54562102D01*
X38509205Y-54373744D01*
X38395937Y-54204226D01*
X38251774Y-54060063D01*
X38082256Y-53946795D01*
X37893898Y-53868774D01*
X37829734Y-53856011D01*
X39198761Y-53856011D01*
X39345750Y-54003000D01*
G37*
%TD.AperFunction*%
D32*
X31866525Y-54540632D02*
X32073368Y-54747475D01*
X32255534Y-54869195D01*
X32138645Y-54938822D01*
X32041490Y-55026396D01*
X31594600Y-54579507D01*
X31633475Y-54540632D01*
X31750000Y-54366240D01*
X31866525Y-54540632D01*
%TA.AperFunction,Conductor*%
D33*
G36*
X31866525Y-54540632D02*
G01*
X32073368Y-54747475D01*
X32255534Y-54869195D01*
X32138645Y-54938822D01*
X32041490Y-55026396D01*
X31594600Y-54579507D01*
X31633475Y-54540632D01*
X31750000Y-54366240D01*
X31866525Y-54540632D01*
G37*
%TD.AperFunction*%
D32*
X41869000Y-54307000D02*
X41889000Y-54307000D01*
X41889000Y-54561000D01*
X41869000Y-54561000D01*
X41869000Y-54581000D01*
X41615000Y-54581000D01*
X41615000Y-54561000D01*
X41595000Y-54561000D01*
X41595000Y-54307000D01*
X41615000Y-54307000D01*
X41615000Y-54287000D01*
X41869000Y-54287000D01*
X41869000Y-54307000D01*
%TA.AperFunction,Conductor*%
D33*
G36*
X41869000Y-54307000D02*
G01*
X41889000Y-54307000D01*
X41889000Y-54561000D01*
X41869000Y-54561000D01*
X41869000Y-54581000D01*
X41615000Y-54581000D01*
X41615000Y-54561000D01*
X41595000Y-54561000D01*
X41595000Y-54307000D01*
X41615000Y-54307000D01*
X41615000Y-54287000D01*
X41869000Y-54287000D01*
X41869000Y-54307000D01*
G37*
%TD.AperFunction*%
D32*
X28773000Y-46676250D02*
X28931750Y-46835000D01*
X29201892Y-46835000D01*
X29250245Y-46860845D01*
X29396206Y-46905122D01*
X29548000Y-46920072D01*
X29865000Y-46920072D01*
X29865000Y-47089000D01*
X29845000Y-47089000D01*
X29845000Y-47718250D01*
X29918836Y-47792086D01*
X29919000Y-47814250D01*
X30077750Y-47973000D01*
X31027000Y-47973000D01*
X31027000Y-47953000D01*
X31281000Y-47953000D01*
X31281000Y-47973000D01*
X31301000Y-47973000D01*
X31301000Y-48227000D01*
X31281000Y-48227000D01*
X31281000Y-49276250D01*
X31439750Y-49435000D01*
X31754000Y-49438072D01*
X31878482Y-49425812D01*
X31998180Y-49389502D01*
X32004000Y-49386391D01*
X32009820Y-49389502D01*
X32129518Y-49425812D01*
X32254000Y-49438072D01*
X33454000Y-49438072D01*
X33578482Y-49425812D01*
X33698180Y-49389502D01*
X33808494Y-49330537D01*
X33832384Y-49310931D01*
X33893637Y-49361200D01*
X34016980Y-49427128D01*
X34150816Y-49467727D01*
X34255123Y-49478000D01*
X34255125Y-49478000D01*
X34290000Y-49481435D01*
X34324875Y-49478000D01*
X34475909Y-49478000D01*
X34611928Y-49614019D01*
X34611928Y-49698000D01*
X34626878Y-49849794D01*
X34666828Y-49981491D01*
X34661623Y-49991122D01*
X34624765Y-50110652D01*
X34615000Y-50232250D01*
X34773750Y-50391000D01*
X35043892Y-50391000D01*
X35092245Y-50416845D01*
X35238206Y-50461122D01*
X35390000Y-50476072D01*
X35730000Y-50476072D01*
X35881794Y-50461122D01*
X36027755Y-50416845D01*
X36076108Y-50391000D01*
X36346250Y-50391000D01*
X36505000Y-50232250D01*
X36495235Y-50110652D01*
X36458377Y-49991122D01*
X36453172Y-49981491D01*
X36486478Y-49871696D01*
X36523126Y-49901773D01*
X36586870Y-49979445D01*
X36799002Y-50191577D01*
X36876677Y-50255323D01*
X36940423Y-50332998D01*
X37152555Y-50545130D01*
X37230227Y-50608874D01*
X37293976Y-50686552D01*
X37506108Y-50898684D01*
X37583786Y-50962433D01*
X37647530Y-51040105D01*
X37859662Y-51252237D01*
X37937334Y-51315981D01*
X38001083Y-51393659D01*
X38213215Y-51605791D01*
X38309906Y-51685143D01*
X38420220Y-51744108D01*
X38539918Y-51780418D01*
X38664400Y-51792678D01*
X38788882Y-51780418D01*
X38908580Y-51744108D01*
X39018894Y-51685143D01*
X39115585Y-51605791D01*
X40132000Y-50589376D01*
X40961995Y-51419371D01*
X40551377Y-51829990D01*
X37377948Y-51829990D01*
X37365411Y-51811227D01*
X37221248Y-51667064D01*
X37051730Y-51553796D01*
X36863372Y-51475775D01*
X36663413Y-51436001D01*
X36459535Y-51436001D01*
X36259576Y-51475775D01*
X36071218Y-51553796D01*
X35948189Y-51636001D01*
X34782869Y-51636001D01*
X34478807Y-51331940D01*
X34505000Y-51200260D01*
X34505000Y-50907740D01*
X34484315Y-50803750D01*
X34615000Y-50803750D01*
X34624765Y-50925348D01*
X34661623Y-51044878D01*
X34721092Y-51154921D01*
X34800887Y-51251247D01*
X34897941Y-51330156D01*
X35008524Y-51388614D01*
X35128387Y-51424375D01*
X35252923Y-51436065D01*
X35274250Y-51433000D01*
X35433000Y-51274250D01*
X35433000Y-50645000D01*
X35687000Y-50645000D01*
X35687000Y-51274250D01*
X35845750Y-51433000D01*
X35867077Y-51436065D01*
X35991613Y-51424375D01*
X36111476Y-51388614D01*
X36222059Y-51330156D01*
X36319113Y-51251247D01*
X36398908Y-51154921D01*
X36458377Y-51044878D01*
X36495235Y-50925348D01*
X36505000Y-50803750D01*
X36346250Y-50645000D01*
X35687000Y-50645000D01*
X35433000Y-50645000D01*
X34773750Y-50645000D01*
X34615000Y-50803750D01*
X34484315Y-50803750D01*
X34447932Y-50620842D01*
X34335990Y-50350589D01*
X34173475Y-50107368D01*
X33966632Y-49900525D01*
X33723411Y-49738010D01*
X33453158Y-49626068D01*
X33166260Y-49569000D01*
X32873740Y-49569000D01*
X32586842Y-49626068D01*
X32316589Y-49738010D01*
X32073368Y-49900525D01*
X31941513Y-50032380D01*
X31919502Y-49959820D01*
X31860537Y-49849506D01*
X31781185Y-49752815D01*
X31684494Y-49673463D01*
X31574180Y-49614498D01*
X31454482Y-49578188D01*
X31330000Y-49565928D01*
X29630000Y-49565928D01*
X29505518Y-49578188D01*
X29385820Y-49614498D01*
X29275506Y-49673463D01*
X29178815Y-49752815D01*
X29099463Y-49849506D01*
X29040498Y-49959820D01*
X29004188Y-50079518D01*
X28991928Y-50204000D01*
X28991928Y-51904000D01*
X29004188Y-52028482D01*
X29040498Y-52148180D01*
X29099463Y-52258494D01*
X29178815Y-52355185D01*
X29275506Y-52434537D01*
X29385820Y-52493502D01*
X29458380Y-52515513D01*
X29326525Y-52647368D01*
X29164010Y-52890589D01*
X29052068Y-53160842D01*
X29046571Y-53188479D01*
X28817001Y-52958910D01*
X28817001Y-52796873D01*
X28820436Y-52761998D01*
X28813309Y-52689637D01*
X28806728Y-52622815D01*
X28766129Y-52488979D01*
X28700201Y-52365636D01*
X28611476Y-52257524D01*
X28584385Y-52235291D01*
X27632314Y-51283221D01*
X27610077Y-51256125D01*
X27501965Y-51167400D01*
X27378622Y-51101472D01*
X27333121Y-51087669D01*
X27300658Y-51026936D01*
X27190992Y-50893308D01*
X27184636Y-50888092D01*
X27262385Y-50824285D01*
X27341737Y-50727594D01*
X27400702Y-50617280D01*
X27437012Y-50497582D01*
X27449272Y-50373100D01*
X27446200Y-50171350D01*
X27287450Y-50012600D01*
X26238200Y-50012600D01*
X26238200Y-50032600D01*
X25984200Y-50032600D01*
X25984200Y-50012600D01*
X25964200Y-50012600D01*
X25964200Y-49758600D01*
X25984200Y-49758600D01*
X25984200Y-49738600D01*
X26238200Y-49738600D01*
X26238200Y-49758600D01*
X27287450Y-49758600D01*
X27446200Y-49599850D01*
X27449272Y-49398100D01*
X27437012Y-49273618D01*
X27400702Y-49153920D01*
X27341737Y-49043606D01*
X27262385Y-48946915D01*
X27165694Y-48867563D01*
X27135839Y-48851605D01*
X27190992Y-48806342D01*
X27196196Y-48800000D01*
X29915928Y-48800000D01*
X29928188Y-48924482D01*
X29964498Y-49044180D01*
X30023463Y-49154494D01*
X30102815Y-49251185D01*
X30199506Y-49330537D01*
X30309820Y-49389502D01*
X30429518Y-49425812D01*
X30554000Y-49438072D01*
X30868250Y-49435000D01*
X31027000Y-49276250D01*
X31027000Y-48227000D01*
X30077750Y-48227000D01*
X29919000Y-48385750D01*
X29915928Y-48800000D01*
X27196196Y-48800000D01*
X27300658Y-48672714D01*
X27382147Y-48520259D01*
X27432328Y-48354835D01*
X27449272Y-48182800D01*
X27449272Y-47959823D01*
X28161345Y-47247750D01*
X28773000Y-47247750D01*
X28782765Y-47369348D01*
X28819623Y-47488878D01*
X28879092Y-47598921D01*
X28958887Y-47695247D01*
X29055941Y-47774156D01*
X29166524Y-47832614D01*
X29286387Y-47868375D01*
X29410923Y-47880065D01*
X29432250Y-47877000D01*
X29591000Y-47718250D01*
X29591000Y-47089000D01*
X28931750Y-47089000D01*
X28773000Y-47247750D01*
X28161345Y-47247750D01*
X28776506Y-46632589D01*
X28773000Y-46676250D01*
%TA.AperFunction,Conductor*%
D33*
G36*
X28773000Y-46676250D02*
G01*
X28931750Y-46835000D01*
X29201892Y-46835000D01*
X29250245Y-46860845D01*
X29396206Y-46905122D01*
X29548000Y-46920072D01*
X29865000Y-46920072D01*
X29865000Y-47089000D01*
X29845000Y-47089000D01*
X29845000Y-47718250D01*
X29918836Y-47792086D01*
X29919000Y-47814250D01*
X30077750Y-47973000D01*
X31027000Y-47973000D01*
X31027000Y-47953000D01*
X31281000Y-47953000D01*
X31281000Y-47973000D01*
X31301000Y-47973000D01*
X31301000Y-48227000D01*
X31281000Y-48227000D01*
X31281000Y-49276250D01*
X31439750Y-49435000D01*
X31754000Y-49438072D01*
X31878482Y-49425812D01*
X31998180Y-49389502D01*
X32004000Y-49386391D01*
X32009820Y-49389502D01*
X32129518Y-49425812D01*
X32254000Y-49438072D01*
X33454000Y-49438072D01*
X33578482Y-49425812D01*
X33698180Y-49389502D01*
X33808494Y-49330537D01*
X33832384Y-49310931D01*
X33893637Y-49361200D01*
X34016980Y-49427128D01*
X34150816Y-49467727D01*
X34255123Y-49478000D01*
X34255125Y-49478000D01*
X34290000Y-49481435D01*
X34324875Y-49478000D01*
X34475909Y-49478000D01*
X34611928Y-49614019D01*
X34611928Y-49698000D01*
X34626878Y-49849794D01*
X34666828Y-49981491D01*
X34661623Y-49991122D01*
X34624765Y-50110652D01*
X34615000Y-50232250D01*
X34773750Y-50391000D01*
X35043892Y-50391000D01*
X35092245Y-50416845D01*
X35238206Y-50461122D01*
X35390000Y-50476072D01*
X35730000Y-50476072D01*
X35881794Y-50461122D01*
X36027755Y-50416845D01*
X36076108Y-50391000D01*
X36346250Y-50391000D01*
X36505000Y-50232250D01*
X36495235Y-50110652D01*
X36458377Y-49991122D01*
X36453172Y-49981491D01*
X36486478Y-49871696D01*
X36523126Y-49901773D01*
X36586870Y-49979445D01*
X36799002Y-50191577D01*
X36876677Y-50255323D01*
X36940423Y-50332998D01*
X37152555Y-50545130D01*
X37230227Y-50608874D01*
X37293976Y-50686552D01*
X37506108Y-50898684D01*
X37583786Y-50962433D01*
X37647530Y-51040105D01*
X37859662Y-51252237D01*
X37937334Y-51315981D01*
X38001083Y-51393659D01*
X38213215Y-51605791D01*
X38309906Y-51685143D01*
X38420220Y-51744108D01*
X38539918Y-51780418D01*
X38664400Y-51792678D01*
X38788882Y-51780418D01*
X38908580Y-51744108D01*
X39018894Y-51685143D01*
X39115585Y-51605791D01*
X40132000Y-50589376D01*
X40961995Y-51419371D01*
X40551377Y-51829990D01*
X37377948Y-51829990D01*
X37365411Y-51811227D01*
X37221248Y-51667064D01*
X37051730Y-51553796D01*
X36863372Y-51475775D01*
X36663413Y-51436001D01*
X36459535Y-51436001D01*
X36259576Y-51475775D01*
X36071218Y-51553796D01*
X35948189Y-51636001D01*
X34782869Y-51636001D01*
X34478807Y-51331940D01*
X34505000Y-51200260D01*
X34505000Y-50907740D01*
X34484315Y-50803750D01*
X34615000Y-50803750D01*
X34624765Y-50925348D01*
X34661623Y-51044878D01*
X34721092Y-51154921D01*
X34800887Y-51251247D01*
X34897941Y-51330156D01*
X35008524Y-51388614D01*
X35128387Y-51424375D01*
X35252923Y-51436065D01*
X35274250Y-51433000D01*
X35433000Y-51274250D01*
X35433000Y-50645000D01*
X35687000Y-50645000D01*
X35687000Y-51274250D01*
X35845750Y-51433000D01*
X35867077Y-51436065D01*
X35991613Y-51424375D01*
X36111476Y-51388614D01*
X36222059Y-51330156D01*
X36319113Y-51251247D01*
X36398908Y-51154921D01*
X36458377Y-51044878D01*
X36495235Y-50925348D01*
X36505000Y-50803750D01*
X36346250Y-50645000D01*
X35687000Y-50645000D01*
X35433000Y-50645000D01*
X34773750Y-50645000D01*
X34615000Y-50803750D01*
X34484315Y-50803750D01*
X34447932Y-50620842D01*
X34335990Y-50350589D01*
X34173475Y-50107368D01*
X33966632Y-49900525D01*
X33723411Y-49738010D01*
X33453158Y-49626068D01*
X33166260Y-49569000D01*
X32873740Y-49569000D01*
X32586842Y-49626068D01*
X32316589Y-49738010D01*
X32073368Y-49900525D01*
X31941513Y-50032380D01*
X31919502Y-49959820D01*
X31860537Y-49849506D01*
X31781185Y-49752815D01*
X31684494Y-49673463D01*
X31574180Y-49614498D01*
X31454482Y-49578188D01*
X31330000Y-49565928D01*
X29630000Y-49565928D01*
X29505518Y-49578188D01*
X29385820Y-49614498D01*
X29275506Y-49673463D01*
X29178815Y-49752815D01*
X29099463Y-49849506D01*
X29040498Y-49959820D01*
X29004188Y-50079518D01*
X28991928Y-50204000D01*
X28991928Y-51904000D01*
X29004188Y-52028482D01*
X29040498Y-52148180D01*
X29099463Y-52258494D01*
X29178815Y-52355185D01*
X29275506Y-52434537D01*
X29385820Y-52493502D01*
X29458380Y-52515513D01*
X29326525Y-52647368D01*
X29164010Y-52890589D01*
X29052068Y-53160842D01*
X29046571Y-53188479D01*
X28817001Y-52958910D01*
X28817001Y-52796873D01*
X28820436Y-52761998D01*
X28813309Y-52689637D01*
X28806728Y-52622815D01*
X28766129Y-52488979D01*
X28700201Y-52365636D01*
X28611476Y-52257524D01*
X28584385Y-52235291D01*
X27632314Y-51283221D01*
X27610077Y-51256125D01*
X27501965Y-51167400D01*
X27378622Y-51101472D01*
X27333121Y-51087669D01*
X27300658Y-51026936D01*
X27190992Y-50893308D01*
X27184636Y-50888092D01*
X27262385Y-50824285D01*
X27341737Y-50727594D01*
X27400702Y-50617280D01*
X27437012Y-50497582D01*
X27449272Y-50373100D01*
X27446200Y-50171350D01*
X27287450Y-50012600D01*
X26238200Y-50012600D01*
X26238200Y-50032600D01*
X25984200Y-50032600D01*
X25984200Y-50012600D01*
X25964200Y-50012600D01*
X25964200Y-49758600D01*
X25984200Y-49758600D01*
X25984200Y-49738600D01*
X26238200Y-49738600D01*
X26238200Y-49758600D01*
X27287450Y-49758600D01*
X27446200Y-49599850D01*
X27449272Y-49398100D01*
X27437012Y-49273618D01*
X27400702Y-49153920D01*
X27341737Y-49043606D01*
X27262385Y-48946915D01*
X27165694Y-48867563D01*
X27135839Y-48851605D01*
X27190992Y-48806342D01*
X27196196Y-48800000D01*
X29915928Y-48800000D01*
X29928188Y-48924482D01*
X29964498Y-49044180D01*
X30023463Y-49154494D01*
X30102815Y-49251185D01*
X30199506Y-49330537D01*
X30309820Y-49389502D01*
X30429518Y-49425812D01*
X30554000Y-49438072D01*
X30868250Y-49435000D01*
X31027000Y-49276250D01*
X31027000Y-48227000D01*
X30077750Y-48227000D01*
X29919000Y-48385750D01*
X29915928Y-48800000D01*
X27196196Y-48800000D01*
X27300658Y-48672714D01*
X27382147Y-48520259D01*
X27432328Y-48354835D01*
X27449272Y-48182800D01*
X27449272Y-47959823D01*
X28161345Y-47247750D01*
X28773000Y-47247750D01*
X28782765Y-47369348D01*
X28819623Y-47488878D01*
X28879092Y-47598921D01*
X28958887Y-47695247D01*
X29055941Y-47774156D01*
X29166524Y-47832614D01*
X29286387Y-47868375D01*
X29410923Y-47880065D01*
X29432250Y-47877000D01*
X29591000Y-47718250D01*
X29591000Y-47089000D01*
X28931750Y-47089000D01*
X28773000Y-47247750D01*
X28161345Y-47247750D01*
X28776506Y-46632589D01*
X28773000Y-46676250D01*
G37*
%TD.AperFunction*%
D32*
X47762176Y-42193624D02*
X47886388Y-42379520D01*
X48044480Y-42537612D01*
X48230376Y-42661824D01*
X48436933Y-42747383D01*
X48656212Y-42791000D01*
X48879788Y-42791000D01*
X49099067Y-42747383D01*
X49305624Y-42661824D01*
X49340000Y-42638854D01*
X49340000Y-43746112D01*
X49301185Y-43698815D01*
X49204494Y-43619463D01*
X49094180Y-43560498D01*
X48974482Y-43524188D01*
X48850000Y-43511928D01*
X48285750Y-43515000D01*
X48127000Y-43673750D01*
X48127000Y-44873000D01*
X48147000Y-44873000D01*
X48147000Y-45127000D01*
X48127000Y-45127000D01*
X48127000Y-45147000D01*
X47873000Y-45147000D01*
X47873000Y-45127000D01*
X46673750Y-45127000D01*
X46515000Y-45285750D01*
X46511928Y-45850000D01*
X46524188Y-45974482D01*
X46560498Y-46094180D01*
X46619463Y-46204494D01*
X46698815Y-46301185D01*
X46795506Y-46380537D01*
X46905820Y-46439502D01*
X46978380Y-46461513D01*
X46846525Y-46593368D01*
X46684010Y-46836589D01*
X46572068Y-47106842D01*
X46515000Y-47393740D01*
X46515000Y-47686260D01*
X46572068Y-47973158D01*
X46684010Y-48243411D01*
X46846525Y-48486632D01*
X47053368Y-48693475D01*
X47227760Y-48810000D01*
X47053368Y-48926525D01*
X46846525Y-49133368D01*
X46684010Y-49376589D01*
X46661473Y-49430998D01*
X46506252Y-49430998D01*
X46665000Y-49272250D01*
X46655235Y-49150652D01*
X46618377Y-49031122D01*
X46558908Y-48921079D01*
X46479113Y-48824753D01*
X46382059Y-48745844D01*
X46271476Y-48687386D01*
X46151613Y-48651625D01*
X46027077Y-48639935D01*
X46005750Y-48643000D01*
X45847000Y-48801750D01*
X45847000Y-49431000D01*
X45867000Y-49431000D01*
X45867000Y-49599928D01*
X45550000Y-49599928D01*
X45398206Y-49614878D01*
X45252245Y-49659155D01*
X45207634Y-49683000D01*
X44863252Y-49683000D01*
X44822234Y-49678960D01*
X44781216Y-49683000D01*
X44781215Y-49683000D01*
X44658545Y-49695082D01*
X44501147Y-49742828D01*
X44356088Y-49820364D01*
X44301052Y-49865531D01*
X44266995Y-49893481D01*
X44228943Y-49924709D01*
X44202797Y-49956568D01*
X43428399Y-50730968D01*
X43222496Y-50730968D01*
X43131819Y-50640291D01*
X43251269Y-50520842D01*
X43265411Y-50534984D01*
X43710358Y-50090037D01*
X43710358Y-49938956D01*
X43740874Y-49901773D01*
X43818552Y-49838024D01*
X44030684Y-49625892D01*
X44094433Y-49548214D01*
X44172105Y-49484470D01*
X44384237Y-49272338D01*
X44384309Y-49272250D01*
X44775000Y-49272250D01*
X44933750Y-49431000D01*
X45593000Y-49431000D01*
X45593000Y-48801750D01*
X45434250Y-48643000D01*
X45412923Y-48639935D01*
X45288387Y-48651625D01*
X45168524Y-48687386D01*
X45057941Y-48745844D01*
X44960887Y-48824753D01*
X44881092Y-48921079D01*
X44821623Y-49031122D01*
X44784765Y-49150652D01*
X44775000Y-49272250D01*
X44384309Y-49272250D01*
X44447981Y-49194666D01*
X44525659Y-49130917D01*
X44737791Y-48918785D01*
X44817143Y-48822094D01*
X44876108Y-48711780D01*
X44912418Y-48592082D01*
X44924678Y-48467600D01*
X44912418Y-48343118D01*
X44876108Y-48223420D01*
X44817143Y-48113106D01*
X44737791Y-48016415D01*
X43721376Y-47000000D01*
X44737791Y-45983585D01*
X44817143Y-45886894D01*
X44876108Y-45776580D01*
X44912418Y-45656882D01*
X44924678Y-45532400D01*
X44912418Y-45407918D01*
X44876108Y-45288220D01*
X44817143Y-45177906D01*
X44737791Y-45081215D01*
X44652419Y-44995843D01*
X44674573Y-44989123D01*
X44808227Y-44917684D01*
X44925375Y-44821542D01*
X45116294Y-44630623D01*
X45212436Y-44513475D01*
X45283875Y-44379821D01*
X45309930Y-44293930D01*
X45395821Y-44267875D01*
X45529475Y-44196436D01*
X45586056Y-44150000D01*
X46511928Y-44150000D01*
X46515000Y-44714250D01*
X46673750Y-44873000D01*
X47873000Y-44873000D01*
X47873000Y-43673750D01*
X47714250Y-43515000D01*
X47150000Y-43511928D01*
X47025518Y-43524188D01*
X46905820Y-43560498D01*
X46795506Y-43619463D01*
X46698815Y-43698815D01*
X46619463Y-43795506D01*
X46560498Y-43905820D01*
X46524188Y-44025518D01*
X46511928Y-44150000D01*
X45586056Y-44150000D01*
X45646623Y-44100294D01*
X45837542Y-43909375D01*
X45933684Y-43792227D01*
X45997952Y-43671989D01*
X46021898Y-43667226D01*
X46210256Y-43589205D01*
X46379774Y-43475937D01*
X46523937Y-43331774D01*
X46637205Y-43162256D01*
X46715226Y-42973898D01*
X46751606Y-42791000D01*
X46847788Y-42791000D01*
X47067067Y-42747383D01*
X47273624Y-42661824D01*
X47459520Y-42537612D01*
X47617612Y-42379520D01*
X47741824Y-42193624D01*
X47752000Y-42169057D01*
X47762176Y-42193624D01*
%TA.AperFunction,Conductor*%
D33*
G36*
X47762176Y-42193624D02*
G01*
X47886388Y-42379520D01*
X48044480Y-42537612D01*
X48230376Y-42661824D01*
X48436933Y-42747383D01*
X48656212Y-42791000D01*
X48879788Y-42791000D01*
X49099067Y-42747383D01*
X49305624Y-42661824D01*
X49340000Y-42638854D01*
X49340000Y-43746112D01*
X49301185Y-43698815D01*
X49204494Y-43619463D01*
X49094180Y-43560498D01*
X48974482Y-43524188D01*
X48850000Y-43511928D01*
X48285750Y-43515000D01*
X48127000Y-43673750D01*
X48127000Y-44873000D01*
X48147000Y-44873000D01*
X48147000Y-45127000D01*
X48127000Y-45127000D01*
X48127000Y-45147000D01*
X47873000Y-45147000D01*
X47873000Y-45127000D01*
X46673750Y-45127000D01*
X46515000Y-45285750D01*
X46511928Y-45850000D01*
X46524188Y-45974482D01*
X46560498Y-46094180D01*
X46619463Y-46204494D01*
X46698815Y-46301185D01*
X46795506Y-46380537D01*
X46905820Y-46439502D01*
X46978380Y-46461513D01*
X46846525Y-46593368D01*
X46684010Y-46836589D01*
X46572068Y-47106842D01*
X46515000Y-47393740D01*
X46515000Y-47686260D01*
X46572068Y-47973158D01*
X46684010Y-48243411D01*
X46846525Y-48486632D01*
X47053368Y-48693475D01*
X47227760Y-48810000D01*
X47053368Y-48926525D01*
X46846525Y-49133368D01*
X46684010Y-49376589D01*
X46661473Y-49430998D01*
X46506252Y-49430998D01*
X46665000Y-49272250D01*
X46655235Y-49150652D01*
X46618377Y-49031122D01*
X46558908Y-48921079D01*
X46479113Y-48824753D01*
X46382059Y-48745844D01*
X46271476Y-48687386D01*
X46151613Y-48651625D01*
X46027077Y-48639935D01*
X46005750Y-48643000D01*
X45847000Y-48801750D01*
X45847000Y-49431000D01*
X45867000Y-49431000D01*
X45867000Y-49599928D01*
X45550000Y-49599928D01*
X45398206Y-49614878D01*
X45252245Y-49659155D01*
X45207634Y-49683000D01*
X44863252Y-49683000D01*
X44822234Y-49678960D01*
X44781216Y-49683000D01*
X44781215Y-49683000D01*
X44658545Y-49695082D01*
X44501147Y-49742828D01*
X44356088Y-49820364D01*
X44301052Y-49865531D01*
X44266995Y-49893481D01*
X44228943Y-49924709D01*
X44202797Y-49956568D01*
X43428399Y-50730968D01*
X43222496Y-50730968D01*
X43131819Y-50640291D01*
X43251269Y-50520842D01*
X43265411Y-50534984D01*
X43710358Y-50090037D01*
X43710358Y-49938956D01*
X43740874Y-49901773D01*
X43818552Y-49838024D01*
X44030684Y-49625892D01*
X44094433Y-49548214D01*
X44172105Y-49484470D01*
X44384237Y-49272338D01*
X44384309Y-49272250D01*
X44775000Y-49272250D01*
X44933750Y-49431000D01*
X45593000Y-49431000D01*
X45593000Y-48801750D01*
X45434250Y-48643000D01*
X45412923Y-48639935D01*
X45288387Y-48651625D01*
X45168524Y-48687386D01*
X45057941Y-48745844D01*
X44960887Y-48824753D01*
X44881092Y-48921079D01*
X44821623Y-49031122D01*
X44784765Y-49150652D01*
X44775000Y-49272250D01*
X44384309Y-49272250D01*
X44447981Y-49194666D01*
X44525659Y-49130917D01*
X44737791Y-48918785D01*
X44817143Y-48822094D01*
X44876108Y-48711780D01*
X44912418Y-48592082D01*
X44924678Y-48467600D01*
X44912418Y-48343118D01*
X44876108Y-48223420D01*
X44817143Y-48113106D01*
X44737791Y-48016415D01*
X43721376Y-47000000D01*
X44737791Y-45983585D01*
X44817143Y-45886894D01*
X44876108Y-45776580D01*
X44912418Y-45656882D01*
X44924678Y-45532400D01*
X44912418Y-45407918D01*
X44876108Y-45288220D01*
X44817143Y-45177906D01*
X44737791Y-45081215D01*
X44652419Y-44995843D01*
X44674573Y-44989123D01*
X44808227Y-44917684D01*
X44925375Y-44821542D01*
X45116294Y-44630623D01*
X45212436Y-44513475D01*
X45283875Y-44379821D01*
X45309930Y-44293930D01*
X45395821Y-44267875D01*
X45529475Y-44196436D01*
X45586056Y-44150000D01*
X46511928Y-44150000D01*
X46515000Y-44714250D01*
X46673750Y-44873000D01*
X47873000Y-44873000D01*
X47873000Y-43673750D01*
X47714250Y-43515000D01*
X47150000Y-43511928D01*
X47025518Y-43524188D01*
X46905820Y-43560498D01*
X46795506Y-43619463D01*
X46698815Y-43698815D01*
X46619463Y-43795506D01*
X46560498Y-43905820D01*
X46524188Y-44025518D01*
X46511928Y-44150000D01*
X45586056Y-44150000D01*
X45646623Y-44100294D01*
X45837542Y-43909375D01*
X45933684Y-43792227D01*
X45997952Y-43671989D01*
X46021898Y-43667226D01*
X46210256Y-43589205D01*
X46379774Y-43475937D01*
X46523937Y-43331774D01*
X46637205Y-43162256D01*
X46715226Y-42973898D01*
X46751606Y-42791000D01*
X46847788Y-42791000D01*
X47067067Y-42747383D01*
X47273624Y-42661824D01*
X47459520Y-42537612D01*
X47617612Y-42379520D01*
X47741824Y-42193624D01*
X47752000Y-42169057D01*
X47762176Y-42193624D01*
G37*
%TD.AperFunction*%
D32*
X42163004Y-46383204D02*
X42226753Y-46460882D01*
X42438885Y-46673014D01*
X42516563Y-46736763D01*
X42580307Y-46814435D01*
X42765872Y-47000000D01*
X42580307Y-47185565D01*
X42516563Y-47263237D01*
X42438885Y-47326986D01*
X42226753Y-47539118D01*
X42163004Y-47616796D01*
X42085332Y-47680540D01*
X41873200Y-47892672D01*
X41809456Y-47970344D01*
X41731778Y-48034093D01*
X41519646Y-48246225D01*
X41455900Y-48323900D01*
X41378225Y-48387646D01*
X41166093Y-48599778D01*
X41100313Y-48679931D01*
X41049295Y-48720921D01*
X41049295Y-48766524D01*
X41027776Y-48806783D01*
X40992945Y-48921605D01*
X40878123Y-48956436D01*
X40837864Y-48977955D01*
X40792261Y-48977955D01*
X40751271Y-49028973D01*
X40671118Y-49094753D01*
X40458986Y-49306885D01*
X40395237Y-49384563D01*
X40317565Y-49448307D01*
X40132000Y-49633872D01*
X39946435Y-49448307D01*
X39868763Y-49384563D01*
X39805014Y-49306885D01*
X39592882Y-49094753D01*
X39515204Y-49031004D01*
X39451460Y-48953332D01*
X39239328Y-48741200D01*
X39161656Y-48677456D01*
X39097907Y-48599778D01*
X38885775Y-48387646D01*
X38808100Y-48323900D01*
X38744354Y-48246225D01*
X38532222Y-48034093D01*
X38454544Y-47970344D01*
X38390800Y-47892672D01*
X38178668Y-47680540D01*
X38100996Y-47616796D01*
X38054706Y-47560392D01*
X38953297Y-47560392D01*
X39027286Y-47634381D01*
X39049523Y-47661477D01*
X39157635Y-47750202D01*
X39280978Y-47816130D01*
X39414814Y-47856729D01*
X39519121Y-47867002D01*
X39519122Y-47867002D01*
X39553997Y-47870437D01*
X39588872Y-47867002D01*
X40293676Y-47867002D01*
X40328551Y-47870437D01*
X40363426Y-47867002D01*
X40363428Y-47867002D01*
X40467735Y-47856729D01*
X40601571Y-47816130D01*
X40724914Y-47750202D01*
X40833026Y-47661477D01*
X40855263Y-47634381D01*
X42131937Y-46357708D01*
X42163004Y-46383204D01*
%TA.AperFunction,Conductor*%
D33*
G36*
X42163004Y-46383204D02*
G01*
X42226753Y-46460882D01*
X42438885Y-46673014D01*
X42516563Y-46736763D01*
X42580307Y-46814435D01*
X42765872Y-47000000D01*
X42580307Y-47185565D01*
X42516563Y-47263237D01*
X42438885Y-47326986D01*
X42226753Y-47539118D01*
X42163004Y-47616796D01*
X42085332Y-47680540D01*
X41873200Y-47892672D01*
X41809456Y-47970344D01*
X41731778Y-48034093D01*
X41519646Y-48246225D01*
X41455900Y-48323900D01*
X41378225Y-48387646D01*
X41166093Y-48599778D01*
X41100313Y-48679931D01*
X41049295Y-48720921D01*
X41049295Y-48766524D01*
X41027776Y-48806783D01*
X40992945Y-48921605D01*
X40878123Y-48956436D01*
X40837864Y-48977955D01*
X40792261Y-48977955D01*
X40751271Y-49028973D01*
X40671118Y-49094753D01*
X40458986Y-49306885D01*
X40395237Y-49384563D01*
X40317565Y-49448307D01*
X40132000Y-49633872D01*
X39946435Y-49448307D01*
X39868763Y-49384563D01*
X39805014Y-49306885D01*
X39592882Y-49094753D01*
X39515204Y-49031004D01*
X39451460Y-48953332D01*
X39239328Y-48741200D01*
X39161656Y-48677456D01*
X39097907Y-48599778D01*
X38885775Y-48387646D01*
X38808100Y-48323900D01*
X38744354Y-48246225D01*
X38532222Y-48034093D01*
X38454544Y-47970344D01*
X38390800Y-47892672D01*
X38178668Y-47680540D01*
X38100996Y-47616796D01*
X38054706Y-47560392D01*
X38953297Y-47560392D01*
X39027286Y-47634381D01*
X39049523Y-47661477D01*
X39157635Y-47750202D01*
X39280978Y-47816130D01*
X39414814Y-47856729D01*
X39519121Y-47867002D01*
X39519122Y-47867002D01*
X39553997Y-47870437D01*
X39588872Y-47867002D01*
X40293676Y-47867002D01*
X40328551Y-47870437D01*
X40363426Y-47867002D01*
X40363428Y-47867002D01*
X40467735Y-47856729D01*
X40601571Y-47816130D01*
X40724914Y-47750202D01*
X40833026Y-47661477D01*
X40855263Y-47634381D01*
X42131937Y-46357708D01*
X42163004Y-46383204D01*
G37*
%TD.AperFunction*%
D32*
X40034460Y-46447002D02*
X39931174Y-46447002D01*
X39964797Y-46365830D01*
X39965400Y-46362801D01*
X40057978Y-46344386D01*
X40193007Y-46288455D01*
X40034460Y-46447002D01*
%TA.AperFunction,Conductor*%
D33*
G36*
X40034460Y-46447002D02*
G01*
X39931174Y-46447002D01*
X39964797Y-46365830D01*
X39965400Y-46362801D01*
X40057978Y-46344386D01*
X40193007Y-46288455D01*
X40034460Y-46447002D01*
G37*
%TD.AperFunction*%
D32*
X26238200Y-45937050D02*
X26258200Y-45937050D01*
X26258200Y-46191050D01*
X26238200Y-46191050D01*
X26238200Y-46211050D01*
X25984200Y-46211050D01*
X25984200Y-46191050D01*
X25964200Y-46191050D01*
X25964200Y-45937050D01*
X25984200Y-45937050D01*
X25984200Y-45917050D01*
X26238200Y-45917050D01*
X26238200Y-45937050D01*
%TA.AperFunction,Conductor*%
D33*
G36*
X26238200Y-45937050D02*
G01*
X26258200Y-45937050D01*
X26258200Y-46191050D01*
X26238200Y-46191050D01*
X26238200Y-46211050D01*
X25984200Y-46211050D01*
X25984200Y-46191050D01*
X25964200Y-46191050D01*
X25964200Y-45937050D01*
X25984200Y-45937050D01*
X25984200Y-45917050D01*
X26238200Y-45917050D01*
X26238200Y-45937050D01*
G37*
%TD.AperFunction*%
D32*
X33136345Y-25701953D02*
X32820786Y-25857962D01*
X32629980Y-26232745D01*
X32515956Y-26637551D01*
X32483098Y-27056824D01*
X32532666Y-27474451D01*
X32662757Y-27874383D01*
X32820786Y-28170038D01*
X33136347Y-28326048D01*
X34448395Y-27014000D01*
X34434253Y-26999858D01*
X34613858Y-26820253D01*
X34628000Y-26834395D01*
X34642143Y-26820253D01*
X34821748Y-26999858D01*
X34807605Y-27014000D01*
X36119653Y-28326048D01*
X36435214Y-28170038D01*
X36626020Y-27795255D01*
X36740044Y-27390449D01*
X36772902Y-26971176D01*
X36723334Y-26553549D01*
X36593243Y-26153617D01*
X36435214Y-25857962D01*
X36119655Y-25701953D01*
X36161608Y-25660000D01*
X37549857Y-25660000D01*
X37549857Y-28657710D01*
X37549816Y-28657700D01*
X37267488Y-28643783D01*
X36987870Y-28685213D01*
X36721708Y-28780397D01*
X36596486Y-28847329D01*
X36524903Y-29091298D01*
X37338000Y-29904395D01*
X38151097Y-29091298D01*
X38079514Y-28847329D01*
X37824004Y-28726429D01*
X37718568Y-28700000D01*
X42104024Y-28700000D01*
X42101282Y-28745595D01*
X42145039Y-29064675D01*
X42250205Y-29369088D01*
X42343186Y-29543044D01*
X42607587Y-29638808D01*
X43546395Y-28700000D01*
X43933890Y-28700000D01*
X43757143Y-28876748D01*
X43743000Y-28862605D01*
X42787192Y-29818413D01*
X42882956Y-30082814D01*
X43172571Y-30223704D01*
X43484108Y-30305384D01*
X43805595Y-30324718D01*
X44103000Y-30283933D01*
X44103000Y-30352552D01*
X44139892Y-30538022D01*
X44212259Y-30712731D01*
X44317319Y-30869964D01*
X44451036Y-31003681D01*
X44608269Y-31108741D01*
X44782978Y-31181108D01*
X44968448Y-31218000D01*
X45157552Y-31218000D01*
X45343022Y-31181108D01*
X45517731Y-31108741D01*
X45674964Y-31003681D01*
X45808681Y-30869964D01*
X45913741Y-30712731D01*
X45986108Y-30538022D01*
X46023000Y-30352552D01*
X46023000Y-30163448D01*
X45986108Y-29977978D01*
X45920014Y-29818413D01*
X46237192Y-29818413D01*
X46332956Y-30082814D01*
X46622571Y-30223704D01*
X46934108Y-30305384D01*
X47255595Y-30324718D01*
X47574675Y-30280961D01*
X47879088Y-30175795D01*
X48053044Y-30082814D01*
X48148808Y-29818413D01*
X47193000Y-28862605D01*
X46237192Y-29818413D01*
X45920014Y-29818413D01*
X45913741Y-29803269D01*
X45808681Y-29646036D01*
X45674964Y-29512319D01*
X45517731Y-29407259D01*
X45343022Y-29334892D01*
X45252804Y-29316947D01*
X45283704Y-29253429D01*
X45365384Y-28941892D01*
X45379931Y-28700000D01*
X45554024Y-28700000D01*
X45551282Y-28745595D01*
X45595039Y-29064675D01*
X45700205Y-29369088D01*
X45793186Y-29543044D01*
X46057587Y-29638808D01*
X46996395Y-28700000D01*
X47389605Y-28700000D01*
X48328413Y-29638808D01*
X48592814Y-29543044D01*
X48733704Y-29253429D01*
X48815384Y-28941892D01*
X48829931Y-28700000D01*
X49340000Y-28700000D01*
X49340000Y-31847530D01*
X49231895Y-31789747D01*
X49117872Y-31755158D01*
X49007652Y-31644938D01*
X48838134Y-31531670D01*
X48649776Y-31453649D01*
X48449817Y-31413875D01*
X48245939Y-31413875D01*
X48045980Y-31453649D01*
X47905838Y-31511698D01*
X47793937Y-31344226D01*
X47649774Y-31200063D01*
X47480256Y-31086795D01*
X47291898Y-31008774D01*
X47091939Y-30969000D01*
X46888061Y-30969000D01*
X46688102Y-31008774D01*
X46499744Y-31086795D01*
X46330226Y-31200063D01*
X46186063Y-31344226D01*
X46072795Y-31513744D01*
X45994774Y-31702102D01*
X45955000Y-31902061D01*
X45955000Y-32105939D01*
X45994774Y-32305898D01*
X46072795Y-32494256D01*
X46186063Y-32663774D01*
X46277616Y-32755327D01*
X46276565Y-32766000D01*
X46280000Y-32800875D01*
X46280000Y-32800876D01*
X46290273Y-32905183D01*
X46330872Y-33039019D01*
X46396800Y-33162362D01*
X46485525Y-33270474D01*
X46512617Y-33292708D01*
X47429157Y-34209249D01*
X47130405Y-34191282D01*
X46811325Y-34235039D01*
X46506912Y-34340205D01*
X46332956Y-34433186D01*
X46237192Y-34697587D01*
X47193000Y-35653395D01*
X47207143Y-35639253D01*
X47386748Y-35818858D01*
X47372605Y-35833000D01*
X47386748Y-35847143D01*
X47207143Y-36026748D01*
X47193000Y-36012605D01*
X46237192Y-36968413D01*
X46332956Y-37232814D01*
X46622571Y-37373704D01*
X46934108Y-37455384D01*
X47255595Y-37474718D01*
X47574675Y-37430961D01*
X47879088Y-37325795D01*
X48053044Y-37232814D01*
X48148807Y-36968415D01*
X48215991Y-37035599D01*
X48215990Y-38409919D01*
X47879737Y-38746172D01*
X47863788Y-38743000D01*
X47640212Y-38743000D01*
X47420933Y-38786617D01*
X47214376Y-38872176D01*
X47028480Y-38996388D01*
X46870388Y-39154480D01*
X46746176Y-39340376D01*
X46660617Y-39546933D01*
X46617000Y-39766212D01*
X46617000Y-39989788D01*
X46660617Y-40209067D01*
X46746176Y-40415624D01*
X46816586Y-40521000D01*
X46624212Y-40521000D01*
X46404933Y-40564617D01*
X46198376Y-40650176D01*
X46012480Y-40774388D01*
X45854388Y-40932480D01*
X45730176Y-41118376D01*
X45700861Y-41189150D01*
X45617774Y-41106063D01*
X45448256Y-40992795D01*
X45259898Y-40914774D01*
X45202619Y-40903381D01*
X45191226Y-40846102D01*
X45113205Y-40657744D01*
X44999937Y-40488226D01*
X44855774Y-40344063D01*
X44686256Y-40230795D01*
X44497898Y-40152774D01*
X44440619Y-40141381D01*
X44429226Y-40084102D01*
X44351205Y-39895744D01*
X44237937Y-39726226D01*
X44093774Y-39582063D01*
X43924256Y-39468795D01*
X43735898Y-39390774D01*
X43535939Y-39351000D01*
X43332061Y-39351000D01*
X43132102Y-39390774D01*
X42943744Y-39468795D01*
X42774226Y-39582063D01*
X42630063Y-39726226D01*
X42516795Y-39895744D01*
X42438774Y-40084102D01*
X42434011Y-40108048D01*
X42313773Y-40172316D01*
X42196625Y-40268458D01*
X42005706Y-40459377D01*
X41909564Y-40576525D01*
X41838125Y-40710179D01*
X41812070Y-40796070D01*
X41726179Y-40822125D01*
X41592525Y-40893564D01*
X41475377Y-40989706D01*
X41284458Y-41180625D01*
X41188316Y-41297773D01*
X41116877Y-41431427D01*
X41072884Y-41576450D01*
X41058030Y-41727269D01*
X41060774Y-41755135D01*
X40706792Y-42109117D01*
X40679701Y-42131350D01*
X40657468Y-42158441D01*
X40590976Y-42239462D01*
X40525047Y-42362806D01*
X40497912Y-42452259D01*
X40484449Y-42496641D01*
X40474197Y-42600731D01*
X40470740Y-42635825D01*
X40474175Y-42670700D01*
X40474175Y-43068449D01*
X40132000Y-43410624D01*
X39789825Y-43068449D01*
X39789825Y-42416237D01*
X39793260Y-42381362D01*
X39789825Y-42346485D01*
X39779552Y-42242178D01*
X39738953Y-42108342D01*
X39673025Y-41984999D01*
X39584299Y-41876887D01*
X39557208Y-41854654D01*
X39554658Y-41852104D01*
X39554658Y-41719256D01*
X39514884Y-41519297D01*
X39436863Y-41330939D01*
X39323595Y-41161421D01*
X39277422Y-41115248D01*
X39349226Y-40941898D01*
X39389000Y-40741939D01*
X39389000Y-40538061D01*
X39349226Y-40338102D01*
X39271205Y-40149744D01*
X39157937Y-39980226D01*
X39013774Y-39836063D01*
X38844256Y-39722795D01*
X38655898Y-39644774D01*
X38455939Y-39605000D01*
X38252061Y-39605000D01*
X38052102Y-39644774D01*
X37863744Y-39722795D01*
X37694226Y-39836063D01*
X37550063Y-39980226D01*
X37436795Y-40149744D01*
X37399981Y-40238619D01*
X37256181Y-40252782D01*
X37111158Y-40296775D01*
X36977504Y-40368214D01*
X36860356Y-40464356D01*
X36764214Y-40581504D01*
X36692775Y-40715158D01*
X36648782Y-40860181D01*
X36633928Y-41011000D01*
X36633928Y-41281000D01*
X36648782Y-41431819D01*
X36692775Y-41576842D01*
X36735086Y-41656000D01*
X36692775Y-41735158D01*
X36648782Y-41880181D01*
X36647867Y-41889470D01*
X36489835Y-41995063D01*
X36367923Y-42116975D01*
X36358274Y-42109057D01*
X36223755Y-42037155D01*
X36077794Y-41992878D01*
X35926000Y-41977928D01*
X35752768Y-41977928D01*
X35784038Y-41961214D01*
X35940048Y-41645653D01*
X34628000Y-40333605D01*
X33315952Y-41645653D01*
X33471962Y-41961214D01*
X33846745Y-42152020D01*
X34056747Y-42211172D01*
X34013844Y-42263941D01*
X33955386Y-42374524D01*
X33919625Y-42494387D01*
X33907935Y-42618923D01*
X33911000Y-42640250D01*
X34069750Y-42799000D01*
X34699000Y-42799000D01*
X34699000Y-42779000D01*
X34867928Y-42779000D01*
X34867928Y-43096000D01*
X34882878Y-43247794D01*
X34927155Y-43393755D01*
X34953000Y-43442108D01*
X34953000Y-43933892D01*
X34927155Y-43982245D01*
X34882878Y-44128206D01*
X34867928Y-44280000D01*
X34867928Y-44620000D01*
X34882878Y-44771794D01*
X34927155Y-44917755D01*
X34953000Y-44966108D01*
X34953000Y-45236250D01*
X35111750Y-45395000D01*
X35233348Y-45385235D01*
X35352878Y-45348377D01*
X35362509Y-45343172D01*
X35370488Y-45345592D01*
X35351582Y-45407918D01*
X35339322Y-45532400D01*
X35351582Y-45656882D01*
X35387892Y-45776580D01*
X35446857Y-45886894D01*
X35526209Y-45983585D01*
X35707625Y-46165001D01*
X34068251Y-46165001D01*
X33930250Y-46027000D01*
X32981000Y-46027000D01*
X32981000Y-46047000D01*
X32727000Y-46047000D01*
X32727000Y-46027000D01*
X32707000Y-46027000D01*
X32707000Y-45773000D01*
X32727000Y-45773000D01*
X32727000Y-44723750D01*
X32981000Y-44723750D01*
X32981000Y-45773000D01*
X33930250Y-45773000D01*
X34089000Y-45614250D01*
X34092011Y-45208201D01*
X34092753Y-45209113D01*
X34189079Y-45288908D01*
X34299122Y-45348377D01*
X34418652Y-45385235D01*
X34540250Y-45395000D01*
X34699000Y-45236250D01*
X34699000Y-44577000D01*
X34069750Y-44577000D01*
X33911000Y-44735750D01*
X33908536Y-44752898D01*
X33905185Y-44748815D01*
X33808494Y-44669463D01*
X33698180Y-44610498D01*
X33578482Y-44574188D01*
X33454000Y-44561928D01*
X33139750Y-44565000D01*
X32981000Y-44723750D01*
X32727000Y-44723750D01*
X32568250Y-44565000D01*
X32254000Y-44561928D01*
X32129518Y-44574188D01*
X32009820Y-44610498D01*
X32004000Y-44613609D01*
X31998180Y-44610498D01*
X31878482Y-44574188D01*
X31754000Y-44561928D01*
X30554000Y-44561928D01*
X30459560Y-44571229D01*
X30459560Y-43233077D01*
X33907935Y-43233077D01*
X33919625Y-43357613D01*
X33955386Y-43477476D01*
X34013844Y-43588059D01*
X34092753Y-43685113D01*
X34096238Y-43688000D01*
X34092753Y-43690887D01*
X34013844Y-43787941D01*
X33955386Y-43898524D01*
X33919625Y-44018387D01*
X33907935Y-44142923D01*
X33911000Y-44164250D01*
X34069750Y-44323000D01*
X34699000Y-44323000D01*
X34699000Y-43053000D01*
X34069750Y-43053000D01*
X33911000Y-43211750D01*
X33907935Y-43233077D01*
X30459560Y-43233077D01*
X30459560Y-43115123D01*
X30483741Y-43122458D01*
X30634560Y-43137312D01*
X30904560Y-43137312D01*
X31055379Y-43122458D01*
X31200402Y-43078465D01*
X31334056Y-43007026D01*
X31334431Y-43006718D01*
X31485290Y-43069206D01*
X31685249Y-43108980D01*
X31889127Y-43108980D01*
X32089086Y-43069206D01*
X32277444Y-42991185D01*
X32446962Y-42877917D01*
X32591125Y-42733754D01*
X32704393Y-42564236D01*
X32782414Y-42375878D01*
X32822188Y-42175919D01*
X32822188Y-41972041D01*
X32782414Y-41772082D01*
X32704393Y-41583724D01*
X32591125Y-41414206D01*
X32446962Y-41270043D01*
X32277444Y-41156775D01*
X32123884Y-41093168D01*
X32549831Y-40667221D01*
X32662757Y-41014383D01*
X32820786Y-41310038D01*
X33136347Y-41466048D01*
X34448395Y-40154000D01*
X34807605Y-40154000D01*
X36119653Y-41466048D01*
X36435214Y-41310038D01*
X36626020Y-40935255D01*
X36740044Y-40530449D01*
X36772902Y-40111176D01*
X36723334Y-39693549D01*
X36593243Y-39293617D01*
X36435214Y-38997962D01*
X36119653Y-38841952D01*
X34807605Y-40154000D01*
X34448395Y-40154000D01*
X34434253Y-40139858D01*
X34613858Y-39960253D01*
X34628000Y-39974395D01*
X35940048Y-38662347D01*
X35784038Y-38346786D01*
X35409255Y-38155980D01*
X35187023Y-38093383D01*
X35188377Y-38090878D01*
X35225235Y-37971348D01*
X35235000Y-37849750D01*
X35076250Y-37691000D01*
X34417000Y-37691000D01*
X34417000Y-37711000D01*
X34163000Y-37711000D01*
X34163000Y-37707971D01*
X34173689Y-37706918D01*
X34331087Y-37659172D01*
X34476146Y-37581636D01*
X34560825Y-37512142D01*
X34611794Y-37507122D01*
X34757755Y-37462845D01*
X34806108Y-37437000D01*
X35076250Y-37437000D01*
X35235000Y-37278250D01*
X35225235Y-37156652D01*
X35188377Y-37037122D01*
X35183172Y-37027491D01*
X35223122Y-36895794D01*
X35227934Y-36846933D01*
X35359421Y-36715446D01*
X35391291Y-36689291D01*
X35495636Y-36562146D01*
X35544277Y-36471145D01*
X35949928Y-36876795D01*
X35949928Y-37884000D01*
X35962188Y-38008482D01*
X35998498Y-38128180D01*
X36057463Y-38238494D01*
X36136815Y-38335185D01*
X36233506Y-38414537D01*
X36343820Y-38473502D01*
X36463518Y-38509812D01*
X36588000Y-38522072D01*
X38088000Y-38522072D01*
X38212482Y-38509812D01*
X38332180Y-38473502D01*
X38442494Y-38414537D01*
X38539185Y-38335185D01*
X38618537Y-38238494D01*
X38677502Y-38128180D01*
X38713812Y-38008482D01*
X38726072Y-37884000D01*
X38726072Y-36968413D01*
X42787192Y-36968413D01*
X42882956Y-37232814D01*
X43172571Y-37373704D01*
X43484108Y-37455384D01*
X43805595Y-37474718D01*
X44124675Y-37430961D01*
X44429088Y-37325795D01*
X44603044Y-37232814D01*
X44698808Y-36968413D01*
X43743000Y-36012605D01*
X42787192Y-36968413D01*
X38726072Y-36968413D01*
X38726072Y-36284000D01*
X38713812Y-36159518D01*
X38677502Y-36039820D01*
X38618537Y-35929506D01*
X38590708Y-35895595D01*
X42101282Y-35895595D01*
X42145039Y-36214675D01*
X42250205Y-36519088D01*
X42343186Y-36693044D01*
X42607587Y-36788808D01*
X43563395Y-35833000D01*
X42607587Y-34877192D01*
X42343186Y-34972956D01*
X42202296Y-35262571D01*
X42120616Y-35574108D01*
X42101282Y-35895595D01*
X38590708Y-35895595D01*
X38539185Y-35832815D01*
X38442494Y-35753463D01*
X38332180Y-35694498D01*
X38274419Y-35676977D01*
X38452637Y-35498759D01*
X38582771Y-35304000D01*
X38718907Y-35304000D01*
X38801504Y-35371786D01*
X38935158Y-35443225D01*
X39080181Y-35487218D01*
X39231000Y-35502072D01*
X39501000Y-35502072D01*
X39651819Y-35487218D01*
X39796842Y-35443225D01*
X39876000Y-35400914D01*
X39955158Y-35443225D01*
X40100181Y-35487218D01*
X40251000Y-35502072D01*
X40521000Y-35502072D01*
X40671819Y-35487218D01*
X40816842Y-35443225D01*
X40950496Y-35371786D01*
X41067644Y-35275644D01*
X41163786Y-35158496D01*
X41235225Y-35024842D01*
X41279218Y-34879819D01*
X41294072Y-34729000D01*
X41294072Y-34697587D01*
X42787192Y-34697587D01*
X43743000Y-35653395D01*
X43757143Y-35639253D01*
X43936748Y-35818858D01*
X43922605Y-35833000D01*
X44878413Y-36788808D01*
X45142814Y-36693044D01*
X45283704Y-36403429D01*
X45365384Y-36091892D01*
X45377189Y-35895595D01*
X45551282Y-35895595D01*
X45595039Y-36214675D01*
X45700205Y-36519088D01*
X45793186Y-36693044D01*
X46057587Y-36788808D01*
X47013395Y-35833000D01*
X46057587Y-34877192D01*
X45793186Y-34972956D01*
X45652296Y-35262571D01*
X45570616Y-35574108D01*
X45551282Y-35895595D01*
X45377189Y-35895595D01*
X45384718Y-35770405D01*
X45340961Y-35451325D01*
X45253744Y-35198866D01*
X45343022Y-35181108D01*
X45517731Y-35108741D01*
X45674964Y-35003681D01*
X45808681Y-34869964D01*
X45913741Y-34712731D01*
X45986108Y-34538022D01*
X46023000Y-34352552D01*
X46023000Y-34163448D01*
X45986108Y-33977978D01*
X45913741Y-33803269D01*
X45808681Y-33646036D01*
X45674964Y-33512319D01*
X45517731Y-33407259D01*
X45343022Y-33334892D01*
X45157552Y-33298000D01*
X44968448Y-33298000D01*
X44782978Y-33334892D01*
X44608269Y-33407259D01*
X44451036Y-33512319D01*
X44317319Y-33646036D01*
X44212259Y-33803269D01*
X44139892Y-33977978D01*
X44103000Y-34163448D01*
X44103000Y-34237125D01*
X44001892Y-34210616D01*
X43680405Y-34191282D01*
X43361325Y-34235039D01*
X43056912Y-34340205D01*
X42882956Y-34433186D01*
X42787192Y-34697587D01*
X41294072Y-34697587D01*
X41294072Y-34359000D01*
X41279218Y-34208181D01*
X41260891Y-34147765D01*
X41323155Y-34085501D01*
X41436423Y-33915983D01*
X41514444Y-33727625D01*
X41554218Y-33527666D01*
X41554218Y-33323788D01*
X41514444Y-33123829D01*
X41436423Y-32935471D01*
X41323155Y-32765953D01*
X41178992Y-32621790D01*
X41167964Y-32614421D01*
X41237225Y-32484842D01*
X41281218Y-32339819D01*
X41296072Y-32189000D01*
X41296072Y-31819000D01*
X41281218Y-31668181D01*
X41237225Y-31523158D01*
X41165786Y-31389504D01*
X41069644Y-31272356D01*
X40952496Y-31176214D01*
X40818842Y-31104775D01*
X40673819Y-31060782D01*
X40523000Y-31045928D01*
X40253000Y-31045928D01*
X40102181Y-31060782D01*
X39957158Y-31104775D01*
X39878000Y-31147086D01*
X39798842Y-31104775D01*
X39653819Y-31060782D01*
X39503000Y-31045928D01*
X39233000Y-31045928D01*
X39082181Y-31060782D01*
X38937158Y-31104775D01*
X38803504Y-31176214D01*
X38720907Y-31244000D01*
X38102010Y-31244000D01*
X38151097Y-31076702D01*
X37338000Y-30263605D01*
X36524903Y-31076702D01*
X36596486Y-31320671D01*
X36625341Y-31334324D01*
X36423241Y-31469363D01*
X36223363Y-31669241D01*
X36066320Y-31904273D01*
X36007420Y-32046471D01*
X35936405Y-31913613D01*
X35825962Y-31779038D01*
X35691387Y-31668595D01*
X35537851Y-31586528D01*
X35371255Y-31535992D01*
X35198001Y-31518928D01*
X34397999Y-31518928D01*
X34224745Y-31535992D01*
X34058149Y-31586528D01*
X33904613Y-31668595D01*
X33770038Y-31779038D01*
X33659595Y-31913613D01*
X33577528Y-32067149D01*
X33526992Y-32233745D01*
X33509928Y-32406999D01*
X33509928Y-33032870D01*
X33502939Y-33031480D01*
X33299061Y-33031480D01*
X33099102Y-33071254D01*
X32910744Y-33149275D01*
X32741226Y-33262543D01*
X32597063Y-33406706D01*
X32483795Y-33576224D01*
X32405774Y-33764582D01*
X32366000Y-33964541D01*
X32366000Y-34064660D01*
X32280896Y-34007795D01*
X32092538Y-33929774D01*
X31892579Y-33890000D01*
X31688701Y-33890000D01*
X31488742Y-33929774D01*
X31300384Y-34007795D01*
X31130866Y-34121063D01*
X30986703Y-34265226D01*
X30873435Y-34434744D01*
X30795414Y-34623102D01*
X30766548Y-34768225D01*
X30288845Y-35245928D01*
X29222000Y-35245928D01*
X29097518Y-35258188D01*
X28977820Y-35294498D01*
X28867506Y-35353463D01*
X28822000Y-35390809D01*
X28776494Y-35353463D01*
X28666180Y-35294498D01*
X28546482Y-35258188D01*
X28422000Y-35245928D01*
X27957750Y-35249000D01*
X27799000Y-35407750D01*
X27799000Y-36757000D01*
X27819000Y-36757000D01*
X27819000Y-37011000D01*
X27799000Y-37011000D01*
X27799000Y-37031000D01*
X27545000Y-37031000D01*
X27545000Y-37011000D01*
X26445750Y-37011000D01*
X26287000Y-37169750D01*
X26283928Y-37884000D01*
X26296188Y-38008482D01*
X26332498Y-38128180D01*
X26391463Y-38238494D01*
X26470815Y-38335185D01*
X26567506Y-38414537D01*
X26677820Y-38473502D01*
X26797518Y-38509812D01*
X26922000Y-38522072D01*
X27386250Y-38519000D01*
X27544998Y-38360252D01*
X27544998Y-38519000D01*
X27561307Y-38519000D01*
X27557935Y-38554923D01*
X27561000Y-38576250D01*
X27719750Y-38735000D01*
X28349000Y-38735000D01*
X28349000Y-38715000D01*
X28517928Y-38715000D01*
X28517928Y-39032000D01*
X28532878Y-39183794D01*
X28577155Y-39329755D01*
X28603000Y-39378108D01*
X28603000Y-39648250D01*
X28761750Y-39807000D01*
X28883348Y-39797235D01*
X29002878Y-39760377D01*
X29012509Y-39755172D01*
X29144206Y-39795122D01*
X29296000Y-39810072D01*
X29576000Y-39810072D01*
X29727794Y-39795122D01*
X29873755Y-39750845D01*
X29972000Y-39698332D01*
X30070245Y-39750845D01*
X30216206Y-39795122D01*
X30368000Y-39810072D01*
X30648000Y-39810072D01*
X30799794Y-39795122D01*
X30931491Y-39755172D01*
X30941122Y-39760377D01*
X31060652Y-39797235D01*
X31182250Y-39807000D01*
X31340998Y-39648252D01*
X31340998Y-39807000D01*
X31401868Y-39807000D01*
X30990643Y-40218226D01*
X30909640Y-40210248D01*
X30639640Y-40210248D01*
X30488821Y-40225102D01*
X30343798Y-40269095D01*
X30264640Y-40311406D01*
X30185482Y-40269095D01*
X30040459Y-40225102D01*
X29889640Y-40210248D01*
X29619640Y-40210248D01*
X29468821Y-40225102D01*
X29323798Y-40269095D01*
X29190144Y-40340534D01*
X29072996Y-40436676D01*
X29057847Y-40455134D01*
X29025504Y-40458320D01*
X29025503Y-40458320D01*
X28921196Y-40468593D01*
X28787360Y-40509192D01*
X28684836Y-40563992D01*
X28664015Y-40575121D01*
X28644137Y-40591435D01*
X28555905Y-40663845D01*
X28533672Y-40690936D01*
X27448958Y-41775651D01*
X27449272Y-41755000D01*
X27437012Y-41630518D01*
X27400702Y-41510820D01*
X27341737Y-41400506D01*
X27262385Y-41303815D01*
X27165694Y-41224463D01*
X27055380Y-41165498D01*
X26935682Y-41129188D01*
X26811200Y-41116928D01*
X26396950Y-41120000D01*
X26238200Y-41278750D01*
X26238200Y-42115500D01*
X26258200Y-42115500D01*
X26258200Y-42369500D01*
X26238200Y-42369500D01*
X26238200Y-42389500D01*
X25984200Y-42389500D01*
X25984200Y-42369500D01*
X25964200Y-42369500D01*
X25964200Y-42115500D01*
X25984200Y-42115500D01*
X25984200Y-41278750D01*
X25825450Y-41120000D01*
X25660000Y-41118773D01*
X25660000Y-39169077D01*
X27557935Y-39169077D01*
X27569625Y-39293613D01*
X27605386Y-39413476D01*
X27663844Y-39524059D01*
X27742753Y-39621113D01*
X27839079Y-39700908D01*
X27949122Y-39760377D01*
X28068652Y-39797235D01*
X28190250Y-39807000D01*
X28349000Y-39648250D01*
X28349000Y-38989000D01*
X27719750Y-38989000D01*
X27561000Y-39147750D01*
X27557935Y-39169077D01*
X25660000Y-39169077D01*
X25660000Y-35884000D01*
X26283928Y-35884000D01*
X26287000Y-36598250D01*
X26445750Y-36757000D01*
X27545000Y-36757000D01*
X27545000Y-35407750D01*
X27386250Y-35249000D01*
X26922000Y-35245928D01*
X26797518Y-35258188D01*
X26677820Y-35294498D01*
X26567506Y-35353463D01*
X26470815Y-35432815D01*
X26391463Y-35529506D01*
X26332498Y-35639820D01*
X26296188Y-35759518D01*
X26283928Y-35884000D01*
X25660000Y-35884000D01*
X25660000Y-29584000D01*
X27433928Y-29584000D01*
X27433928Y-31584000D01*
X27446188Y-31708482D01*
X27482498Y-31828180D01*
X27541463Y-31938494D01*
X27620815Y-32035185D01*
X27717506Y-32114537D01*
X27827820Y-32173502D01*
X27947518Y-32209812D01*
X28072000Y-32222072D01*
X29332125Y-32222072D01*
X29312920Y-32318621D01*
X29312920Y-32522499D01*
X29352694Y-32722458D01*
X29430715Y-32910816D01*
X29543983Y-33080334D01*
X29688146Y-33224497D01*
X29857664Y-33337765D01*
X30046022Y-33415786D01*
X30245981Y-33455560D01*
X30449859Y-33455560D01*
X30649818Y-33415786D01*
X30838176Y-33337765D01*
X31007694Y-33224497D01*
X31151857Y-33080334D01*
X31265125Y-32910816D01*
X31343146Y-32722458D01*
X31382920Y-32522499D01*
X31382920Y-32318621D01*
X31363715Y-32222072D01*
X31872000Y-32222072D01*
X31996482Y-32209812D01*
X32116180Y-32173502D01*
X32226494Y-32114537D01*
X32323185Y-32035185D01*
X32402537Y-31938494D01*
X32461502Y-31828180D01*
X32497812Y-31708482D01*
X32510072Y-31584000D01*
X32510072Y-30154512D01*
X35897783Y-30154512D01*
X35939213Y-30434130D01*
X36034397Y-30700292D01*
X36101329Y-30825514D01*
X36345298Y-30897097D01*
X37158395Y-30084000D01*
X37517605Y-30084000D01*
X38330702Y-30897097D01*
X38574671Y-30825514D01*
X38695571Y-30570004D01*
X38764300Y-30295816D01*
X38778217Y-30013488D01*
X38736787Y-29733870D01*
X38641603Y-29467708D01*
X38574671Y-29342486D01*
X38330702Y-29270903D01*
X37517605Y-30084000D01*
X37158395Y-30084000D01*
X36345298Y-29270903D01*
X36101329Y-29342486D01*
X35980429Y-29597996D01*
X35911700Y-29872184D01*
X35897783Y-30154512D01*
X32510072Y-30154512D01*
X32510072Y-29584000D01*
X32497812Y-29459518D01*
X32461502Y-29339820D01*
X32402537Y-29229506D01*
X32323185Y-29132815D01*
X32226494Y-29053463D01*
X32116180Y-28994498D01*
X31996482Y-28958188D01*
X31872000Y-28945928D01*
X28072000Y-28945928D01*
X27947518Y-28958188D01*
X27827820Y-28994498D01*
X27717506Y-29053463D01*
X27620815Y-29132815D01*
X27541463Y-29229506D01*
X27482498Y-29339820D01*
X27446188Y-29459518D01*
X27433928Y-29584000D01*
X25660000Y-29584000D01*
X25660000Y-28505653D01*
X33315952Y-28505653D01*
X33471962Y-28821214D01*
X33846745Y-29012020D01*
X34251551Y-29126044D01*
X34670824Y-29158902D01*
X35088451Y-29109334D01*
X35488383Y-28979243D01*
X35784038Y-28821214D01*
X35940048Y-28505653D01*
X34628000Y-27193605D01*
X33315952Y-28505653D01*
X25660000Y-28505653D01*
X25660000Y-25660000D01*
X33094392Y-25660000D01*
X33136345Y-25701953D01*
%TA.AperFunction,Conductor*%
D33*
G36*
X33136345Y-25701953D02*
G01*
X32820786Y-25857962D01*
X32629980Y-26232745D01*
X32515956Y-26637551D01*
X32483098Y-27056824D01*
X32532666Y-27474451D01*
X32662757Y-27874383D01*
X32820786Y-28170038D01*
X33136347Y-28326048D01*
X34448395Y-27014000D01*
X34434253Y-26999858D01*
X34613858Y-26820253D01*
X34628000Y-26834395D01*
X34642143Y-26820253D01*
X34821748Y-26999858D01*
X34807605Y-27014000D01*
X36119653Y-28326048D01*
X36435214Y-28170038D01*
X36626020Y-27795255D01*
X36740044Y-27390449D01*
X36772902Y-26971176D01*
X36723334Y-26553549D01*
X36593243Y-26153617D01*
X36435214Y-25857962D01*
X36119655Y-25701953D01*
X36161608Y-25660000D01*
X37549857Y-25660000D01*
X37549857Y-28657710D01*
X37549816Y-28657700D01*
X37267488Y-28643783D01*
X36987870Y-28685213D01*
X36721708Y-28780397D01*
X36596486Y-28847329D01*
X36524903Y-29091298D01*
X37338000Y-29904395D01*
X38151097Y-29091298D01*
X38079514Y-28847329D01*
X37824004Y-28726429D01*
X37718568Y-28700000D01*
X42104024Y-28700000D01*
X42101282Y-28745595D01*
X42145039Y-29064675D01*
X42250205Y-29369088D01*
X42343186Y-29543044D01*
X42607587Y-29638808D01*
X43546395Y-28700000D01*
X43933890Y-28700000D01*
X43757143Y-28876748D01*
X43743000Y-28862605D01*
X42787192Y-29818413D01*
X42882956Y-30082814D01*
X43172571Y-30223704D01*
X43484108Y-30305384D01*
X43805595Y-30324718D01*
X44103000Y-30283933D01*
X44103000Y-30352552D01*
X44139892Y-30538022D01*
X44212259Y-30712731D01*
X44317319Y-30869964D01*
X44451036Y-31003681D01*
X44608269Y-31108741D01*
X44782978Y-31181108D01*
X44968448Y-31218000D01*
X45157552Y-31218000D01*
X45343022Y-31181108D01*
X45517731Y-31108741D01*
X45674964Y-31003681D01*
X45808681Y-30869964D01*
X45913741Y-30712731D01*
X45986108Y-30538022D01*
X46023000Y-30352552D01*
X46023000Y-30163448D01*
X45986108Y-29977978D01*
X45920014Y-29818413D01*
X46237192Y-29818413D01*
X46332956Y-30082814D01*
X46622571Y-30223704D01*
X46934108Y-30305384D01*
X47255595Y-30324718D01*
X47574675Y-30280961D01*
X47879088Y-30175795D01*
X48053044Y-30082814D01*
X48148808Y-29818413D01*
X47193000Y-28862605D01*
X46237192Y-29818413D01*
X45920014Y-29818413D01*
X45913741Y-29803269D01*
X45808681Y-29646036D01*
X45674964Y-29512319D01*
X45517731Y-29407259D01*
X45343022Y-29334892D01*
X45252804Y-29316947D01*
X45283704Y-29253429D01*
X45365384Y-28941892D01*
X45379931Y-28700000D01*
X45554024Y-28700000D01*
X45551282Y-28745595D01*
X45595039Y-29064675D01*
X45700205Y-29369088D01*
X45793186Y-29543044D01*
X46057587Y-29638808D01*
X46996395Y-28700000D01*
X47389605Y-28700000D01*
X48328413Y-29638808D01*
X48592814Y-29543044D01*
X48733704Y-29253429D01*
X48815384Y-28941892D01*
X48829931Y-28700000D01*
X49340000Y-28700000D01*
X49340000Y-31847530D01*
X49231895Y-31789747D01*
X49117872Y-31755158D01*
X49007652Y-31644938D01*
X48838134Y-31531670D01*
X48649776Y-31453649D01*
X48449817Y-31413875D01*
X48245939Y-31413875D01*
X48045980Y-31453649D01*
X47905838Y-31511698D01*
X47793937Y-31344226D01*
X47649774Y-31200063D01*
X47480256Y-31086795D01*
X47291898Y-31008774D01*
X47091939Y-30969000D01*
X46888061Y-30969000D01*
X46688102Y-31008774D01*
X46499744Y-31086795D01*
X46330226Y-31200063D01*
X46186063Y-31344226D01*
X46072795Y-31513744D01*
X45994774Y-31702102D01*
X45955000Y-31902061D01*
X45955000Y-32105939D01*
X45994774Y-32305898D01*
X46072795Y-32494256D01*
X46186063Y-32663774D01*
X46277616Y-32755327D01*
X46276565Y-32766000D01*
X46280000Y-32800875D01*
X46280000Y-32800876D01*
X46290273Y-32905183D01*
X46330872Y-33039019D01*
X46396800Y-33162362D01*
X46485525Y-33270474D01*
X46512617Y-33292708D01*
X47429157Y-34209249D01*
X47130405Y-34191282D01*
X46811325Y-34235039D01*
X46506912Y-34340205D01*
X46332956Y-34433186D01*
X46237192Y-34697587D01*
X47193000Y-35653395D01*
X47207143Y-35639253D01*
X47386748Y-35818858D01*
X47372605Y-35833000D01*
X47386748Y-35847143D01*
X47207143Y-36026748D01*
X47193000Y-36012605D01*
X46237192Y-36968413D01*
X46332956Y-37232814D01*
X46622571Y-37373704D01*
X46934108Y-37455384D01*
X47255595Y-37474718D01*
X47574675Y-37430961D01*
X47879088Y-37325795D01*
X48053044Y-37232814D01*
X48148807Y-36968415D01*
X48215991Y-37035599D01*
X48215990Y-38409919D01*
X47879737Y-38746172D01*
X47863788Y-38743000D01*
X47640212Y-38743000D01*
X47420933Y-38786617D01*
X47214376Y-38872176D01*
X47028480Y-38996388D01*
X46870388Y-39154480D01*
X46746176Y-39340376D01*
X46660617Y-39546933D01*
X46617000Y-39766212D01*
X46617000Y-39989788D01*
X46660617Y-40209067D01*
X46746176Y-40415624D01*
X46816586Y-40521000D01*
X46624212Y-40521000D01*
X46404933Y-40564617D01*
X46198376Y-40650176D01*
X46012480Y-40774388D01*
X45854388Y-40932480D01*
X45730176Y-41118376D01*
X45700861Y-41189150D01*
X45617774Y-41106063D01*
X45448256Y-40992795D01*
X45259898Y-40914774D01*
X45202619Y-40903381D01*
X45191226Y-40846102D01*
X45113205Y-40657744D01*
X44999937Y-40488226D01*
X44855774Y-40344063D01*
X44686256Y-40230795D01*
X44497898Y-40152774D01*
X44440619Y-40141381D01*
X44429226Y-40084102D01*
X44351205Y-39895744D01*
X44237937Y-39726226D01*
X44093774Y-39582063D01*
X43924256Y-39468795D01*
X43735898Y-39390774D01*
X43535939Y-39351000D01*
X43332061Y-39351000D01*
X43132102Y-39390774D01*
X42943744Y-39468795D01*
X42774226Y-39582063D01*
X42630063Y-39726226D01*
X42516795Y-39895744D01*
X42438774Y-40084102D01*
X42434011Y-40108048D01*
X42313773Y-40172316D01*
X42196625Y-40268458D01*
X42005706Y-40459377D01*
X41909564Y-40576525D01*
X41838125Y-40710179D01*
X41812070Y-40796070D01*
X41726179Y-40822125D01*
X41592525Y-40893564D01*
X41475377Y-40989706D01*
X41284458Y-41180625D01*
X41188316Y-41297773D01*
X41116877Y-41431427D01*
X41072884Y-41576450D01*
X41058030Y-41727269D01*
X41060774Y-41755135D01*
X40706792Y-42109117D01*
X40679701Y-42131350D01*
X40657468Y-42158441D01*
X40590976Y-42239462D01*
X40525047Y-42362806D01*
X40497912Y-42452259D01*
X40484449Y-42496641D01*
X40474197Y-42600731D01*
X40470740Y-42635825D01*
X40474175Y-42670700D01*
X40474175Y-43068449D01*
X40132000Y-43410624D01*
X39789825Y-43068449D01*
X39789825Y-42416237D01*
X39793260Y-42381362D01*
X39789825Y-42346485D01*
X39779552Y-42242178D01*
X39738953Y-42108342D01*
X39673025Y-41984999D01*
X39584299Y-41876887D01*
X39557208Y-41854654D01*
X39554658Y-41852104D01*
X39554658Y-41719256D01*
X39514884Y-41519297D01*
X39436863Y-41330939D01*
X39323595Y-41161421D01*
X39277422Y-41115248D01*
X39349226Y-40941898D01*
X39389000Y-40741939D01*
X39389000Y-40538061D01*
X39349226Y-40338102D01*
X39271205Y-40149744D01*
X39157937Y-39980226D01*
X39013774Y-39836063D01*
X38844256Y-39722795D01*
X38655898Y-39644774D01*
X38455939Y-39605000D01*
X38252061Y-39605000D01*
X38052102Y-39644774D01*
X37863744Y-39722795D01*
X37694226Y-39836063D01*
X37550063Y-39980226D01*
X37436795Y-40149744D01*
X37399981Y-40238619D01*
X37256181Y-40252782D01*
X37111158Y-40296775D01*
X36977504Y-40368214D01*
X36860356Y-40464356D01*
X36764214Y-40581504D01*
X36692775Y-40715158D01*
X36648782Y-40860181D01*
X36633928Y-41011000D01*
X36633928Y-41281000D01*
X36648782Y-41431819D01*
X36692775Y-41576842D01*
X36735086Y-41656000D01*
X36692775Y-41735158D01*
X36648782Y-41880181D01*
X36647867Y-41889470D01*
X36489835Y-41995063D01*
X36367923Y-42116975D01*
X36358274Y-42109057D01*
X36223755Y-42037155D01*
X36077794Y-41992878D01*
X35926000Y-41977928D01*
X35752768Y-41977928D01*
X35784038Y-41961214D01*
X35940048Y-41645653D01*
X34628000Y-40333605D01*
X33315952Y-41645653D01*
X33471962Y-41961214D01*
X33846745Y-42152020D01*
X34056747Y-42211172D01*
X34013844Y-42263941D01*
X33955386Y-42374524D01*
X33919625Y-42494387D01*
X33907935Y-42618923D01*
X33911000Y-42640250D01*
X34069750Y-42799000D01*
X34699000Y-42799000D01*
X34699000Y-42779000D01*
X34867928Y-42779000D01*
X34867928Y-43096000D01*
X34882878Y-43247794D01*
X34927155Y-43393755D01*
X34953000Y-43442108D01*
X34953000Y-43933892D01*
X34927155Y-43982245D01*
X34882878Y-44128206D01*
X34867928Y-44280000D01*
X34867928Y-44620000D01*
X34882878Y-44771794D01*
X34927155Y-44917755D01*
X34953000Y-44966108D01*
X34953000Y-45236250D01*
X35111750Y-45395000D01*
X35233348Y-45385235D01*
X35352878Y-45348377D01*
X35362509Y-45343172D01*
X35370488Y-45345592D01*
X35351582Y-45407918D01*
X35339322Y-45532400D01*
X35351582Y-45656882D01*
X35387892Y-45776580D01*
X35446857Y-45886894D01*
X35526209Y-45983585D01*
X35707625Y-46165001D01*
X34068251Y-46165001D01*
X33930250Y-46027000D01*
X32981000Y-46027000D01*
X32981000Y-46047000D01*
X32727000Y-46047000D01*
X32727000Y-46027000D01*
X32707000Y-46027000D01*
X32707000Y-45773000D01*
X32727000Y-45773000D01*
X32727000Y-44723750D01*
X32981000Y-44723750D01*
X32981000Y-45773000D01*
X33930250Y-45773000D01*
X34089000Y-45614250D01*
X34092011Y-45208201D01*
X34092753Y-45209113D01*
X34189079Y-45288908D01*
X34299122Y-45348377D01*
X34418652Y-45385235D01*
X34540250Y-45395000D01*
X34699000Y-45236250D01*
X34699000Y-44577000D01*
X34069750Y-44577000D01*
X33911000Y-44735750D01*
X33908536Y-44752898D01*
X33905185Y-44748815D01*
X33808494Y-44669463D01*
X33698180Y-44610498D01*
X33578482Y-44574188D01*
X33454000Y-44561928D01*
X33139750Y-44565000D01*
X32981000Y-44723750D01*
X32727000Y-44723750D01*
X32568250Y-44565000D01*
X32254000Y-44561928D01*
X32129518Y-44574188D01*
X32009820Y-44610498D01*
X32004000Y-44613609D01*
X31998180Y-44610498D01*
X31878482Y-44574188D01*
X31754000Y-44561928D01*
X30554000Y-44561928D01*
X30459560Y-44571229D01*
X30459560Y-43233077D01*
X33907935Y-43233077D01*
X33919625Y-43357613D01*
X33955386Y-43477476D01*
X34013844Y-43588059D01*
X34092753Y-43685113D01*
X34096238Y-43688000D01*
X34092753Y-43690887D01*
X34013844Y-43787941D01*
X33955386Y-43898524D01*
X33919625Y-44018387D01*
X33907935Y-44142923D01*
X33911000Y-44164250D01*
X34069750Y-44323000D01*
X34699000Y-44323000D01*
X34699000Y-43053000D01*
X34069750Y-43053000D01*
X33911000Y-43211750D01*
X33907935Y-43233077D01*
X30459560Y-43233077D01*
X30459560Y-43115123D01*
X30483741Y-43122458D01*
X30634560Y-43137312D01*
X30904560Y-43137312D01*
X31055379Y-43122458D01*
X31200402Y-43078465D01*
X31334056Y-43007026D01*
X31334431Y-43006718D01*
X31485290Y-43069206D01*
X31685249Y-43108980D01*
X31889127Y-43108980D01*
X32089086Y-43069206D01*
X32277444Y-42991185D01*
X32446962Y-42877917D01*
X32591125Y-42733754D01*
X32704393Y-42564236D01*
X32782414Y-42375878D01*
X32822188Y-42175919D01*
X32822188Y-41972041D01*
X32782414Y-41772082D01*
X32704393Y-41583724D01*
X32591125Y-41414206D01*
X32446962Y-41270043D01*
X32277444Y-41156775D01*
X32123884Y-41093168D01*
X32549831Y-40667221D01*
X32662757Y-41014383D01*
X32820786Y-41310038D01*
X33136347Y-41466048D01*
X34448395Y-40154000D01*
X34807605Y-40154000D01*
X36119653Y-41466048D01*
X36435214Y-41310038D01*
X36626020Y-40935255D01*
X36740044Y-40530449D01*
X36772902Y-40111176D01*
X36723334Y-39693549D01*
X36593243Y-39293617D01*
X36435214Y-38997962D01*
X36119653Y-38841952D01*
X34807605Y-40154000D01*
X34448395Y-40154000D01*
X34434253Y-40139858D01*
X34613858Y-39960253D01*
X34628000Y-39974395D01*
X35940048Y-38662347D01*
X35784038Y-38346786D01*
X35409255Y-38155980D01*
X35187023Y-38093383D01*
X35188377Y-38090878D01*
X35225235Y-37971348D01*
X35235000Y-37849750D01*
X35076250Y-37691000D01*
X34417000Y-37691000D01*
X34417000Y-37711000D01*
X34163000Y-37711000D01*
X34163000Y-37707971D01*
X34173689Y-37706918D01*
X34331087Y-37659172D01*
X34476146Y-37581636D01*
X34560825Y-37512142D01*
X34611794Y-37507122D01*
X34757755Y-37462845D01*
X34806108Y-37437000D01*
X35076250Y-37437000D01*
X35235000Y-37278250D01*
X35225235Y-37156652D01*
X35188377Y-37037122D01*
X35183172Y-37027491D01*
X35223122Y-36895794D01*
X35227934Y-36846933D01*
X35359421Y-36715446D01*
X35391291Y-36689291D01*
X35495636Y-36562146D01*
X35544277Y-36471145D01*
X35949928Y-36876795D01*
X35949928Y-37884000D01*
X35962188Y-38008482D01*
X35998498Y-38128180D01*
X36057463Y-38238494D01*
X36136815Y-38335185D01*
X36233506Y-38414537D01*
X36343820Y-38473502D01*
X36463518Y-38509812D01*
X36588000Y-38522072D01*
X38088000Y-38522072D01*
X38212482Y-38509812D01*
X38332180Y-38473502D01*
X38442494Y-38414537D01*
X38539185Y-38335185D01*
X38618537Y-38238494D01*
X38677502Y-38128180D01*
X38713812Y-38008482D01*
X38726072Y-37884000D01*
X38726072Y-36968413D01*
X42787192Y-36968413D01*
X42882956Y-37232814D01*
X43172571Y-37373704D01*
X43484108Y-37455384D01*
X43805595Y-37474718D01*
X44124675Y-37430961D01*
X44429088Y-37325795D01*
X44603044Y-37232814D01*
X44698808Y-36968413D01*
X43743000Y-36012605D01*
X42787192Y-36968413D01*
X38726072Y-36968413D01*
X38726072Y-36284000D01*
X38713812Y-36159518D01*
X38677502Y-36039820D01*
X38618537Y-35929506D01*
X38590708Y-35895595D01*
X42101282Y-35895595D01*
X42145039Y-36214675D01*
X42250205Y-36519088D01*
X42343186Y-36693044D01*
X42607587Y-36788808D01*
X43563395Y-35833000D01*
X42607587Y-34877192D01*
X42343186Y-34972956D01*
X42202296Y-35262571D01*
X42120616Y-35574108D01*
X42101282Y-35895595D01*
X38590708Y-35895595D01*
X38539185Y-35832815D01*
X38442494Y-35753463D01*
X38332180Y-35694498D01*
X38274419Y-35676977D01*
X38452637Y-35498759D01*
X38582771Y-35304000D01*
X38718907Y-35304000D01*
X38801504Y-35371786D01*
X38935158Y-35443225D01*
X39080181Y-35487218D01*
X39231000Y-35502072D01*
X39501000Y-35502072D01*
X39651819Y-35487218D01*
X39796842Y-35443225D01*
X39876000Y-35400914D01*
X39955158Y-35443225D01*
X40100181Y-35487218D01*
X40251000Y-35502072D01*
X40521000Y-35502072D01*
X40671819Y-35487218D01*
X40816842Y-35443225D01*
X40950496Y-35371786D01*
X41067644Y-35275644D01*
X41163786Y-35158496D01*
X41235225Y-35024842D01*
X41279218Y-34879819D01*
X41294072Y-34729000D01*
X41294072Y-34697587D01*
X42787192Y-34697587D01*
X43743000Y-35653395D01*
X43757143Y-35639253D01*
X43936748Y-35818858D01*
X43922605Y-35833000D01*
X44878413Y-36788808D01*
X45142814Y-36693044D01*
X45283704Y-36403429D01*
X45365384Y-36091892D01*
X45377189Y-35895595D01*
X45551282Y-35895595D01*
X45595039Y-36214675D01*
X45700205Y-36519088D01*
X45793186Y-36693044D01*
X46057587Y-36788808D01*
X47013395Y-35833000D01*
X46057587Y-34877192D01*
X45793186Y-34972956D01*
X45652296Y-35262571D01*
X45570616Y-35574108D01*
X45551282Y-35895595D01*
X45377189Y-35895595D01*
X45384718Y-35770405D01*
X45340961Y-35451325D01*
X45253744Y-35198866D01*
X45343022Y-35181108D01*
X45517731Y-35108741D01*
X45674964Y-35003681D01*
X45808681Y-34869964D01*
X45913741Y-34712731D01*
X45986108Y-34538022D01*
X46023000Y-34352552D01*
X46023000Y-34163448D01*
X45986108Y-33977978D01*
X45913741Y-33803269D01*
X45808681Y-33646036D01*
X45674964Y-33512319D01*
X45517731Y-33407259D01*
X45343022Y-33334892D01*
X45157552Y-33298000D01*
X44968448Y-33298000D01*
X44782978Y-33334892D01*
X44608269Y-33407259D01*
X44451036Y-33512319D01*
X44317319Y-33646036D01*
X44212259Y-33803269D01*
X44139892Y-33977978D01*
X44103000Y-34163448D01*
X44103000Y-34237125D01*
X44001892Y-34210616D01*
X43680405Y-34191282D01*
X43361325Y-34235039D01*
X43056912Y-34340205D01*
X42882956Y-34433186D01*
X42787192Y-34697587D01*
X41294072Y-34697587D01*
X41294072Y-34359000D01*
X41279218Y-34208181D01*
X41260891Y-34147765D01*
X41323155Y-34085501D01*
X41436423Y-33915983D01*
X41514444Y-33727625D01*
X41554218Y-33527666D01*
X41554218Y-33323788D01*
X41514444Y-33123829D01*
X41436423Y-32935471D01*
X41323155Y-32765953D01*
X41178992Y-32621790D01*
X41167964Y-32614421D01*
X41237225Y-32484842D01*
X41281218Y-32339819D01*
X41296072Y-32189000D01*
X41296072Y-31819000D01*
X41281218Y-31668181D01*
X41237225Y-31523158D01*
X41165786Y-31389504D01*
X41069644Y-31272356D01*
X40952496Y-31176214D01*
X40818842Y-31104775D01*
X40673819Y-31060782D01*
X40523000Y-31045928D01*
X40253000Y-31045928D01*
X40102181Y-31060782D01*
X39957158Y-31104775D01*
X39878000Y-31147086D01*
X39798842Y-31104775D01*
X39653819Y-31060782D01*
X39503000Y-31045928D01*
X39233000Y-31045928D01*
X39082181Y-31060782D01*
X38937158Y-31104775D01*
X38803504Y-31176214D01*
X38720907Y-31244000D01*
X38102010Y-31244000D01*
X38151097Y-31076702D01*
X37338000Y-30263605D01*
X36524903Y-31076702D01*
X36596486Y-31320671D01*
X36625341Y-31334324D01*
X36423241Y-31469363D01*
X36223363Y-31669241D01*
X36066320Y-31904273D01*
X36007420Y-32046471D01*
X35936405Y-31913613D01*
X35825962Y-31779038D01*
X35691387Y-31668595D01*
X35537851Y-31586528D01*
X35371255Y-31535992D01*
X35198001Y-31518928D01*
X34397999Y-31518928D01*
X34224745Y-31535992D01*
X34058149Y-31586528D01*
X33904613Y-31668595D01*
X33770038Y-31779038D01*
X33659595Y-31913613D01*
X33577528Y-32067149D01*
X33526992Y-32233745D01*
X33509928Y-32406999D01*
X33509928Y-33032870D01*
X33502939Y-33031480D01*
X33299061Y-33031480D01*
X33099102Y-33071254D01*
X32910744Y-33149275D01*
X32741226Y-33262543D01*
X32597063Y-33406706D01*
X32483795Y-33576224D01*
X32405774Y-33764582D01*
X32366000Y-33964541D01*
X32366000Y-34064660D01*
X32280896Y-34007795D01*
X32092538Y-33929774D01*
X31892579Y-33890000D01*
X31688701Y-33890000D01*
X31488742Y-33929774D01*
X31300384Y-34007795D01*
X31130866Y-34121063D01*
X30986703Y-34265226D01*
X30873435Y-34434744D01*
X30795414Y-34623102D01*
X30766548Y-34768225D01*
X30288845Y-35245928D01*
X29222000Y-35245928D01*
X29097518Y-35258188D01*
X28977820Y-35294498D01*
X28867506Y-35353463D01*
X28822000Y-35390809D01*
X28776494Y-35353463D01*
X28666180Y-35294498D01*
X28546482Y-35258188D01*
X28422000Y-35245928D01*
X27957750Y-35249000D01*
X27799000Y-35407750D01*
X27799000Y-36757000D01*
X27819000Y-36757000D01*
X27819000Y-37011000D01*
X27799000Y-37011000D01*
X27799000Y-37031000D01*
X27545000Y-37031000D01*
X27545000Y-37011000D01*
X26445750Y-37011000D01*
X26287000Y-37169750D01*
X26283928Y-37884000D01*
X26296188Y-38008482D01*
X26332498Y-38128180D01*
X26391463Y-38238494D01*
X26470815Y-38335185D01*
X26567506Y-38414537D01*
X26677820Y-38473502D01*
X26797518Y-38509812D01*
X26922000Y-38522072D01*
X27386250Y-38519000D01*
X27544998Y-38360252D01*
X27544998Y-38519000D01*
X27561307Y-38519000D01*
X27557935Y-38554923D01*
X27561000Y-38576250D01*
X27719750Y-38735000D01*
X28349000Y-38735000D01*
X28349000Y-38715000D01*
X28517928Y-38715000D01*
X28517928Y-39032000D01*
X28532878Y-39183794D01*
X28577155Y-39329755D01*
X28603000Y-39378108D01*
X28603000Y-39648250D01*
X28761750Y-39807000D01*
X28883348Y-39797235D01*
X29002878Y-39760377D01*
X29012509Y-39755172D01*
X29144206Y-39795122D01*
X29296000Y-39810072D01*
X29576000Y-39810072D01*
X29727794Y-39795122D01*
X29873755Y-39750845D01*
X29972000Y-39698332D01*
X30070245Y-39750845D01*
X30216206Y-39795122D01*
X30368000Y-39810072D01*
X30648000Y-39810072D01*
X30799794Y-39795122D01*
X30931491Y-39755172D01*
X30941122Y-39760377D01*
X31060652Y-39797235D01*
X31182250Y-39807000D01*
X31340998Y-39648252D01*
X31340998Y-39807000D01*
X31401868Y-39807000D01*
X30990643Y-40218226D01*
X30909640Y-40210248D01*
X30639640Y-40210248D01*
X30488821Y-40225102D01*
X30343798Y-40269095D01*
X30264640Y-40311406D01*
X30185482Y-40269095D01*
X30040459Y-40225102D01*
X29889640Y-40210248D01*
X29619640Y-40210248D01*
X29468821Y-40225102D01*
X29323798Y-40269095D01*
X29190144Y-40340534D01*
X29072996Y-40436676D01*
X29057847Y-40455134D01*
X29025504Y-40458320D01*
X29025503Y-40458320D01*
X28921196Y-40468593D01*
X28787360Y-40509192D01*
X28684836Y-40563992D01*
X28664015Y-40575121D01*
X28644137Y-40591435D01*
X28555905Y-40663845D01*
X28533672Y-40690936D01*
X27448958Y-41775651D01*
X27449272Y-41755000D01*
X27437012Y-41630518D01*
X27400702Y-41510820D01*
X27341737Y-41400506D01*
X27262385Y-41303815D01*
X27165694Y-41224463D01*
X27055380Y-41165498D01*
X26935682Y-41129188D01*
X26811200Y-41116928D01*
X26396950Y-41120000D01*
X26238200Y-41278750D01*
X26238200Y-42115500D01*
X26258200Y-42115500D01*
X26258200Y-42369500D01*
X26238200Y-42369500D01*
X26238200Y-42389500D01*
X25984200Y-42389500D01*
X25984200Y-42369500D01*
X25964200Y-42369500D01*
X25964200Y-42115500D01*
X25984200Y-42115500D01*
X25984200Y-41278750D01*
X25825450Y-41120000D01*
X25660000Y-41118773D01*
X25660000Y-39169077D01*
X27557935Y-39169077D01*
X27569625Y-39293613D01*
X27605386Y-39413476D01*
X27663844Y-39524059D01*
X27742753Y-39621113D01*
X27839079Y-39700908D01*
X27949122Y-39760377D01*
X28068652Y-39797235D01*
X28190250Y-39807000D01*
X28349000Y-39648250D01*
X28349000Y-38989000D01*
X27719750Y-38989000D01*
X27561000Y-39147750D01*
X27557935Y-39169077D01*
X25660000Y-39169077D01*
X25660000Y-35884000D01*
X26283928Y-35884000D01*
X26287000Y-36598250D01*
X26445750Y-36757000D01*
X27545000Y-36757000D01*
X27545000Y-35407750D01*
X27386250Y-35249000D01*
X26922000Y-35245928D01*
X26797518Y-35258188D01*
X26677820Y-35294498D01*
X26567506Y-35353463D01*
X26470815Y-35432815D01*
X26391463Y-35529506D01*
X26332498Y-35639820D01*
X26296188Y-35759518D01*
X26283928Y-35884000D01*
X25660000Y-35884000D01*
X25660000Y-29584000D01*
X27433928Y-29584000D01*
X27433928Y-31584000D01*
X27446188Y-31708482D01*
X27482498Y-31828180D01*
X27541463Y-31938494D01*
X27620815Y-32035185D01*
X27717506Y-32114537D01*
X27827820Y-32173502D01*
X27947518Y-32209812D01*
X28072000Y-32222072D01*
X29332125Y-32222072D01*
X29312920Y-32318621D01*
X29312920Y-32522499D01*
X29352694Y-32722458D01*
X29430715Y-32910816D01*
X29543983Y-33080334D01*
X29688146Y-33224497D01*
X29857664Y-33337765D01*
X30046022Y-33415786D01*
X30245981Y-33455560D01*
X30449859Y-33455560D01*
X30649818Y-33415786D01*
X30838176Y-33337765D01*
X31007694Y-33224497D01*
X31151857Y-33080334D01*
X31265125Y-32910816D01*
X31343146Y-32722458D01*
X31382920Y-32522499D01*
X31382920Y-32318621D01*
X31363715Y-32222072D01*
X31872000Y-32222072D01*
X31996482Y-32209812D01*
X32116180Y-32173502D01*
X32226494Y-32114537D01*
X32323185Y-32035185D01*
X32402537Y-31938494D01*
X32461502Y-31828180D01*
X32497812Y-31708482D01*
X32510072Y-31584000D01*
X32510072Y-30154512D01*
X35897783Y-30154512D01*
X35939213Y-30434130D01*
X36034397Y-30700292D01*
X36101329Y-30825514D01*
X36345298Y-30897097D01*
X37158395Y-30084000D01*
X37517605Y-30084000D01*
X38330702Y-30897097D01*
X38574671Y-30825514D01*
X38695571Y-30570004D01*
X38764300Y-30295816D01*
X38778217Y-30013488D01*
X38736787Y-29733870D01*
X38641603Y-29467708D01*
X38574671Y-29342486D01*
X38330702Y-29270903D01*
X37517605Y-30084000D01*
X37158395Y-30084000D01*
X36345298Y-29270903D01*
X36101329Y-29342486D01*
X35980429Y-29597996D01*
X35911700Y-29872184D01*
X35897783Y-30154512D01*
X32510072Y-30154512D01*
X32510072Y-29584000D01*
X32497812Y-29459518D01*
X32461502Y-29339820D01*
X32402537Y-29229506D01*
X32323185Y-29132815D01*
X32226494Y-29053463D01*
X32116180Y-28994498D01*
X31996482Y-28958188D01*
X31872000Y-28945928D01*
X28072000Y-28945928D01*
X27947518Y-28958188D01*
X27827820Y-28994498D01*
X27717506Y-29053463D01*
X27620815Y-29132815D01*
X27541463Y-29229506D01*
X27482498Y-29339820D01*
X27446188Y-29459518D01*
X27433928Y-29584000D01*
X25660000Y-29584000D01*
X25660000Y-28505653D01*
X33315952Y-28505653D01*
X33471962Y-28821214D01*
X33846745Y-29012020D01*
X34251551Y-29126044D01*
X34670824Y-29158902D01*
X35088451Y-29109334D01*
X35488383Y-28979243D01*
X35784038Y-28821214D01*
X35940048Y-28505653D01*
X34628000Y-27193605D01*
X33315952Y-28505653D01*
X25660000Y-28505653D01*
X25660000Y-25660000D01*
X33094392Y-25660000D01*
X33136345Y-25701953D01*
G37*
%TD.AperFunction*%
D32*
X28856342Y-42515059D02*
X28900335Y-42660082D01*
X28971774Y-42793736D01*
X29039561Y-42876333D01*
X29039560Y-44361352D01*
X27446200Y-45954713D01*
X27446200Y-45937048D01*
X27287452Y-45937048D01*
X27446200Y-45778300D01*
X27449272Y-45576550D01*
X27437012Y-45452068D01*
X27400702Y-45332370D01*
X27341737Y-45222056D01*
X27262385Y-45125365D01*
X27165694Y-45046013D01*
X27135839Y-45030055D01*
X27190992Y-44984792D01*
X27300658Y-44851164D01*
X27382147Y-44698709D01*
X27432328Y-44533285D01*
X27449272Y-44361250D01*
X27449272Y-43873750D01*
X27441182Y-43791609D01*
X28843914Y-42388877D01*
X28856342Y-42515059D01*
%TA.AperFunction,Conductor*%
D33*
G36*
X28856342Y-42515059D02*
G01*
X28900335Y-42660082D01*
X28971774Y-42793736D01*
X29039561Y-42876333D01*
X29039560Y-44361352D01*
X27446200Y-45954713D01*
X27446200Y-45937048D01*
X27287452Y-45937048D01*
X27446200Y-45778300D01*
X27449272Y-45576550D01*
X27437012Y-45452068D01*
X27400702Y-45332370D01*
X27341737Y-45222056D01*
X27262385Y-45125365D01*
X27165694Y-45046013D01*
X27135839Y-45030055D01*
X27190992Y-44984792D01*
X27300658Y-44851164D01*
X27382147Y-44698709D01*
X27432328Y-44533285D01*
X27449272Y-44361250D01*
X27449272Y-43873750D01*
X27441182Y-43791609D01*
X28843914Y-42388877D01*
X28856342Y-42515059D01*
G37*
%TD.AperFunction*%
D32*
X40748796Y-44968996D02*
X40812540Y-45046668D01*
X41024672Y-45258800D01*
X41102344Y-45322544D01*
X41127845Y-45353616D01*
X40695375Y-45786087D01*
X40751306Y-45651058D01*
X40791080Y-45451099D01*
X40791080Y-45247221D01*
X40751306Y-45047262D01*
X40703483Y-44931808D01*
X40748796Y-44968996D01*
%TA.AperFunction,Conductor*%
D33*
G36*
X40748796Y-44968996D02*
G01*
X40812540Y-45046668D01*
X41024672Y-45258800D01*
X41102344Y-45322544D01*
X41127845Y-45353616D01*
X40695375Y-45786087D01*
X40751306Y-45651058D01*
X40791080Y-45451099D01*
X40791080Y-45247221D01*
X40751306Y-45047262D01*
X40703483Y-44931808D01*
X40748796Y-44968996D01*
G37*
%TD.AperFunction*%
D32*
X31595000Y-38735000D02*
X31615000Y-38735000D01*
X31615000Y-38989000D01*
X31595000Y-38989000D01*
X31595000Y-39009000D01*
X31426072Y-39009000D01*
X31426072Y-38715000D01*
X31595000Y-38715000D01*
X31595000Y-38735000D01*
%TA.AperFunction,Conductor*%
D33*
G36*
X31595000Y-38735000D02*
G01*
X31615000Y-38735000D01*
X31615000Y-38989000D01*
X31595000Y-38989000D01*
X31595000Y-39009000D01*
X31426072Y-39009000D01*
X31426072Y-38715000D01*
X31595000Y-38715000D01*
X31595000Y-38735000D01*
G37*
%TD.AperFunction*%
%TD*%
M02*
