%TF.GenerationSoftware,KiCad,Pcbnew,(5.1.9-16-g1737927814)-1*%
%TF.CreationDate,2021-10-14T17:25:43-05:00*%
%TF.ProjectId,adbuino,61646275-696e-46f2-9e6b-696361645f70,rev?*%
%TF.SameCoordinates,Original*%
%TF.FileFunction,Copper,L1,Top*%
%TF.FilePolarity,Positive*%
%FSLAX46Y46*%
G04 Gerber Fmt 4.6, Leading zero omitted, Abs format (unit mm)*
G04 Created by KiCad (PCBNEW (5.1.9-16-g1737927814)-1) date 2021-10-14 17:25:43*
%MOMM*%
%LPD*%
G01*
G04 APERTURE LIST*
%TA.AperFunction,NonConductor*%
%ADD10C,0.300000*%
%TD*%
%TA.AperFunction,EtchedComponent*%
%ADD11C,0.100000*%
%TD*%
%TA.AperFunction,ComponentPad*%
%ADD12O,3.600000X1.800000*%
%TD*%
%TA.AperFunction,ComponentPad*%
%ADD13C,3.316000*%
%TD*%
%TA.AperFunction,ComponentPad*%
%ADD14O,1.700000X1.700000*%
%TD*%
%TA.AperFunction,ComponentPad*%
%ADD15R,1.700000X1.700000*%
%TD*%
%TA.AperFunction,ComponentPad*%
%ADD16C,2.000000*%
%TD*%
%TA.AperFunction,SMDPad,CuDef*%
%ADD17C,0.100000*%
%TD*%
%TA.AperFunction,ComponentPad*%
%ADD18C,1.000000*%
%TD*%
%TA.AperFunction,SMDPad,CuDef*%
%ADD19R,1.500000X1.000000*%
%TD*%
%TA.AperFunction,SMDPad,CuDef*%
%ADD20R,0.800000X0.900000*%
%TD*%
%TA.AperFunction,SMDPad,CuDef*%
%ADD21R,1.200000X1.400000*%
%TD*%
%TA.AperFunction,SMDPad,CuDef*%
%ADD22R,1.400000X1.200000*%
%TD*%
%TA.AperFunction,SMDPad,CuDef*%
%ADD23R,1.500000X2.000000*%
%TD*%
%TA.AperFunction,SMDPad,CuDef*%
%ADD24R,3.800000X2.000000*%
%TD*%
%TA.AperFunction,ComponentPad*%
%ADD25C,1.600000*%
%TD*%
%TA.AperFunction,ComponentPad*%
%ADD26R,1.500000X1.600000*%
%TD*%
%TA.AperFunction,ComponentPad*%
%ADD27C,3.000000*%
%TD*%
%TA.AperFunction,ViaPad*%
%ADD28C,0.800000*%
%TD*%
%TA.AperFunction,Conductor*%
%ADD29C,0.250000*%
%TD*%
%TA.AperFunction,Conductor*%
%ADD30C,0.150000*%
%TD*%
%TA.AperFunction,Conductor*%
%ADD31C,0.400000*%
%TD*%
%TA.AperFunction,Conductor*%
%ADD32C,0.254000*%
%TD*%
%TA.AperFunction,Conductor*%
%ADD33C,0.100000*%
%TD*%
G04 APERTURE END LIST*
D10*
X39192000Y-26562857D02*
X39406285Y-26634285D01*
X39477714Y-26705714D01*
X39549142Y-26848571D01*
X39549142Y-27062857D01*
X39477714Y-27205714D01*
X39406285Y-27277142D01*
X39263428Y-27348571D01*
X38692000Y-27348571D01*
X38692000Y-25848571D01*
X39192000Y-25848571D01*
X39334857Y-25920000D01*
X39406285Y-25991428D01*
X39477714Y-26134285D01*
X39477714Y-26277142D01*
X39406285Y-26420000D01*
X39334857Y-26491428D01*
X39192000Y-26562857D01*
X38692000Y-26562857D01*
X40120571Y-26920000D02*
X40834857Y-26920000D01*
X39977714Y-27348571D02*
X40477714Y-25848571D01*
X40977714Y-27348571D01*
X41477714Y-27348571D02*
X41477714Y-25848571D01*
X41834857Y-25848571D01*
X42049142Y-25920000D01*
X42192000Y-26062857D01*
X42263428Y-26205714D01*
X42334857Y-26491428D01*
X42334857Y-26705714D01*
X42263428Y-26991428D01*
X42192000Y-27134285D01*
X42049142Y-27277142D01*
X41834857Y-27348571D01*
X41477714Y-27348571D01*
X43977714Y-25848571D02*
X44334857Y-27348571D01*
X44620571Y-26277142D01*
X44906285Y-27348571D01*
X45263428Y-25848571D01*
X46120571Y-25848571D02*
X46406285Y-25848571D01*
X46549142Y-25920000D01*
X46692000Y-26062857D01*
X46763428Y-26348571D01*
X46763428Y-26848571D01*
X46692000Y-27134285D01*
X46549142Y-27277142D01*
X46406285Y-27348571D01*
X46120571Y-27348571D01*
X45977714Y-27277142D01*
X45834857Y-27134285D01*
X45763428Y-26848571D01*
X45763428Y-26348571D01*
X45834857Y-26062857D01*
X45977714Y-25920000D01*
X46120571Y-25848571D01*
X48120571Y-27348571D02*
X47406285Y-27348571D01*
X47406285Y-25848571D01*
X49120571Y-26562857D02*
X48620571Y-26562857D01*
X48620571Y-27348571D02*
X48620571Y-25848571D01*
X49334857Y-25848571D01*
D11*
%TO.C,JP4*%
G36*
X34244000Y-73514000D02*
G01*
X34244000Y-73014000D01*
X34844000Y-73014000D01*
X34844000Y-73514000D01*
X34244000Y-73514000D01*
G37*
%TO.C,JP3*%
G36*
X32304000Y-71714000D02*
G01*
X32304000Y-72214000D01*
X31704000Y-72214000D01*
X31704000Y-71714000D01*
X32304000Y-71714000D01*
G37*
%TO.C,JP2*%
G36*
X42626000Y-73514000D02*
G01*
X42626000Y-73014000D01*
X43226000Y-73014000D01*
X43226000Y-73514000D01*
X42626000Y-73514000D01*
G37*
%TO.C,JP1*%
G36*
X40686000Y-71714000D02*
G01*
X40686000Y-72214000D01*
X40086000Y-72214000D01*
X40086000Y-71714000D01*
X40686000Y-71714000D01*
G37*
%TD*%
D12*
%TO.P,J5,S3*%
%TO.N,GND*%
X27356000Y-73710000D03*
%TO.P,J5,S2*%
X27356000Y-60910000D03*
D13*
%TO.P,J5,S1*%
X28056000Y-67310000D03*
%TD*%
D12*
%TO.P,J4,S3*%
%TO.N,GND*%
X47574000Y-60910000D03*
%TO.P,J4,S2*%
X47574000Y-73710000D03*
D13*
%TO.P,J4,S1*%
X46874000Y-67310000D03*
%TD*%
D14*
%TO.P,J6,6*%
%TO.N,GND*%
X33020000Y-56134000D03*
%TO.P,J6,5*%
%TO.N,/RESET*%
X30480000Y-56134000D03*
%TO.P,J6,4*%
%TO.N,ATMEGA_SPI_MOSI*%
X33020000Y-53594000D03*
%TO.P,J6,3*%
%TO.N,ATMEGA_SPI_SCLK*%
X30480000Y-53594000D03*
%TO.P,J6,2*%
%TO.N,+3V3*%
X33020000Y-51054000D03*
D15*
%TO.P,J6,1*%
%TO.N,ATMEGA_SPI_MISO*%
X30480000Y-51054000D03*
%TD*%
%TO.P,R18,2*%
%TO.N,Net-(D4-Pad2)*%
%TA.AperFunction,SMDPad,CuDef*%
G36*
G01*
X29649000Y-64022000D02*
X29279000Y-64022000D01*
G75*
G02*
X29144000Y-63887000I0J135000D01*
G01*
X29144000Y-63617000D01*
G75*
G02*
X29279000Y-63482000I135000J0D01*
G01*
X29649000Y-63482000D01*
G75*
G02*
X29784000Y-63617000I0J-135000D01*
G01*
X29784000Y-63887000D01*
G75*
G02*
X29649000Y-64022000I-135000J0D01*
G01*
G37*
%TD.AperFunction*%
%TO.P,R18,1*%
%TO.N,USB_STAT_LED*%
%TA.AperFunction,SMDPad,CuDef*%
G36*
G01*
X29649000Y-65042000D02*
X29279000Y-65042000D01*
G75*
G02*
X29144000Y-64907000I0J135000D01*
G01*
X29144000Y-64637000D01*
G75*
G02*
X29279000Y-64502000I135000J0D01*
G01*
X29649000Y-64502000D01*
G75*
G02*
X29784000Y-64637000I0J-135000D01*
G01*
X29784000Y-64907000D01*
G75*
G02*
X29649000Y-65042000I-135000J0D01*
G01*
G37*
%TD.AperFunction*%
%TD*%
D16*
%TO.P,J2,MH4*%
%TO.N,GND*%
X43743000Y-28683000D03*
%TO.P,J2,MH3*%
X43743000Y-35833000D03*
%TO.P,J2,MH2*%
X47193000Y-35833000D03*
%TO.P,J2,MH1*%
X47193000Y-28683000D03*
%TD*%
%TA.AperFunction,SMDPad,CuDef*%
D17*
%TO.P,IC1,32*%
%TO.N,N/C*%
G36*
X39707382Y-50111624D02*
G01*
X38664400Y-51154606D01*
X38452268Y-50942474D01*
X39495250Y-49899492D01*
X39707382Y-50111624D01*
G37*
%TD.AperFunction*%
%TA.AperFunction,SMDPad,CuDef*%
%TO.P,IC1,31*%
G36*
X39353829Y-49758070D02*
G01*
X38310847Y-50801052D01*
X38098715Y-50588920D01*
X39141697Y-49545938D01*
X39353829Y-49758070D01*
G37*
%TD.AperFunction*%
%TA.AperFunction,SMDPad,CuDef*%
%TO.P,IC1,30*%
G36*
X39000275Y-49404517D02*
G01*
X37957293Y-50447499D01*
X37745161Y-50235367D01*
X38788143Y-49192385D01*
X39000275Y-49404517D01*
G37*
%TD.AperFunction*%
%TA.AperFunction,SMDPad,CuDef*%
%TO.P,IC1,29*%
G36*
X38646722Y-49050963D02*
G01*
X37603740Y-50093945D01*
X37391608Y-49881813D01*
X38434590Y-48838831D01*
X38646722Y-49050963D01*
G37*
%TD.AperFunction*%
%TA.AperFunction,SMDPad,CuDef*%
%TO.P,IC1,28*%
G36*
X38293169Y-48697410D02*
G01*
X37250187Y-49740392D01*
X37038055Y-49528260D01*
X38081037Y-48485278D01*
X38293169Y-48697410D01*
G37*
%TD.AperFunction*%
%TA.AperFunction,SMDPad,CuDef*%
%TO.P,IC1,27*%
G36*
X37939615Y-48343857D02*
G01*
X36896633Y-49386839D01*
X36684501Y-49174707D01*
X37727483Y-48131725D01*
X37939615Y-48343857D01*
G37*
%TD.AperFunction*%
%TA.AperFunction,SMDPad,CuDef*%
%TO.P,IC1,26*%
G36*
X37586062Y-47990303D02*
G01*
X36543080Y-49033285D01*
X36330948Y-48821153D01*
X37373930Y-47778171D01*
X37586062Y-47990303D01*
G37*
%TD.AperFunction*%
%TA.AperFunction,SMDPad,CuDef*%
%TO.P,IC1,25*%
%TO.N,Net-(C10-Pad1)*%
G36*
X37232508Y-47636750D02*
G01*
X36189526Y-48679732D01*
X35977394Y-48467600D01*
X37020376Y-47424618D01*
X37232508Y-47636750D01*
G37*
%TD.AperFunction*%
%TA.AperFunction,SMDPad,CuDef*%
%TO.P,IC1,24*%
%TO.N,Net-(C11-Pad1)*%
G36*
X36189526Y-45320268D02*
G01*
X37232508Y-46363250D01*
X37020376Y-46575382D01*
X35977394Y-45532400D01*
X36189526Y-45320268D01*
G37*
%TD.AperFunction*%
%TA.AperFunction,SMDPad,CuDef*%
%TO.P,IC1,23*%
%TO.N,+3V3*%
G36*
X36543080Y-44966715D02*
G01*
X37586062Y-46009697D01*
X37373930Y-46221829D01*
X36330948Y-45178847D01*
X36543080Y-44966715D01*
G37*
%TD.AperFunction*%
%TA.AperFunction,SMDPad,CuDef*%
%TO.P,IC1,22*%
%TO.N,Net-(C12-Pad1)*%
G36*
X36896633Y-44613161D02*
G01*
X37939615Y-45656143D01*
X37727483Y-45868275D01*
X36684501Y-44825293D01*
X36896633Y-44613161D01*
G37*
%TD.AperFunction*%
%TA.AperFunction,SMDPad,CuDef*%
%TO.P,IC1,21*%
%TO.N,Host_USB_D+*%
G36*
X37250187Y-44259608D02*
G01*
X38293169Y-45302590D01*
X38081037Y-45514722D01*
X37038055Y-44471740D01*
X37250187Y-44259608D01*
G37*
%TD.AperFunction*%
%TA.AperFunction,SMDPad,CuDef*%
%TO.P,IC1,20*%
%TO.N,Host_USB_D-*%
G36*
X37603740Y-43906055D02*
G01*
X38646722Y-44949037D01*
X38434590Y-45161169D01*
X37391608Y-44118187D01*
X37603740Y-43906055D01*
G37*
%TD.AperFunction*%
%TA.AperFunction,SMDPad,CuDef*%
%TO.P,IC1,19*%
%TO.N,GND*%
G36*
X37957293Y-43552501D02*
G01*
X39000275Y-44595483D01*
X38788143Y-44807615D01*
X37745161Y-43764633D01*
X37957293Y-43552501D01*
G37*
%TD.AperFunction*%
%TA.AperFunction,SMDPad,CuDef*%
%TO.P,IC1,18*%
%TO.N,MAX3421_INT*%
G36*
X38310847Y-43198948D02*
G01*
X39353829Y-44241930D01*
X39141697Y-44454062D01*
X38098715Y-43411080D01*
X38310847Y-43198948D01*
G37*
%TD.AperFunction*%
%TA.AperFunction,SMDPad,CuDef*%
%TO.P,IC1,17*%
%TO.N,MAX3421_GPX*%
G36*
X38664400Y-42845394D02*
G01*
X39707382Y-43888376D01*
X39495250Y-44100508D01*
X38452268Y-43057526D01*
X38664400Y-42845394D01*
G37*
%TD.AperFunction*%
%TA.AperFunction,SMDPad,CuDef*%
%TO.P,IC1,16*%
%TO.N,MAX3421_SPI_MOSI*%
G36*
X41811732Y-43057526D02*
G01*
X40768750Y-44100508D01*
X40556618Y-43888376D01*
X41599600Y-42845394D01*
X41811732Y-43057526D01*
G37*
%TD.AperFunction*%
%TA.AperFunction,SMDPad,CuDef*%
%TO.P,IC1,15*%
%TO.N,MAX3421_SPI_MISO*%
G36*
X42165285Y-43411080D02*
G01*
X41122303Y-44454062D01*
X40910171Y-44241930D01*
X41953153Y-43198948D01*
X42165285Y-43411080D01*
G37*
%TD.AperFunction*%
%TA.AperFunction,SMDPad,CuDef*%
%TO.P,IC1,14*%
%TO.N,MAX3421_SS*%
G36*
X42518839Y-43764633D02*
G01*
X41475857Y-44807615D01*
X41263725Y-44595483D01*
X42306707Y-43552501D01*
X42518839Y-43764633D01*
G37*
%TD.AperFunction*%
%TA.AperFunction,SMDPad,CuDef*%
%TO.P,IC1,13*%
%TO.N,MAX3421_SPI_SCLK*%
G36*
X42872392Y-44118187D02*
G01*
X41829410Y-45161169D01*
X41617278Y-44949037D01*
X42660260Y-43906055D01*
X42872392Y-44118187D01*
G37*
%TD.AperFunction*%
%TA.AperFunction,SMDPad,CuDef*%
%TO.P,IC1,12*%
%TO.N,MAX3421_RESET*%
G36*
X43225945Y-44471740D02*
G01*
X42182963Y-45514722D01*
X41970831Y-45302590D01*
X43013813Y-44259608D01*
X43225945Y-44471740D01*
G37*
%TD.AperFunction*%
%TA.AperFunction,SMDPad,CuDef*%
%TO.P,IC1,11*%
%TO.N,N/C*%
G36*
X43579499Y-44825293D02*
G01*
X42536517Y-45868275D01*
X42324385Y-45656143D01*
X43367367Y-44613161D01*
X43579499Y-44825293D01*
G37*
%TD.AperFunction*%
%TA.AperFunction,SMDPad,CuDef*%
%TO.P,IC1,10*%
G36*
X43933052Y-45178847D02*
G01*
X42890070Y-46221829D01*
X42677938Y-46009697D01*
X43720920Y-44966715D01*
X43933052Y-45178847D01*
G37*
%TD.AperFunction*%
%TA.AperFunction,SMDPad,CuDef*%
%TO.P,IC1,9*%
G36*
X44286606Y-45532400D02*
G01*
X43243624Y-46575382D01*
X43031492Y-46363250D01*
X44074474Y-45320268D01*
X44286606Y-45532400D01*
G37*
%TD.AperFunction*%
%TA.AperFunction,SMDPad,CuDef*%
%TO.P,IC1,8*%
G36*
X43243624Y-47424618D02*
G01*
X44286606Y-48467600D01*
X44074474Y-48679732D01*
X43031492Y-47636750D01*
X43243624Y-47424618D01*
G37*
%TD.AperFunction*%
%TA.AperFunction,SMDPad,CuDef*%
%TO.P,IC1,7*%
G36*
X42890070Y-47778171D02*
G01*
X43933052Y-48821153D01*
X43720920Y-49033285D01*
X42677938Y-47990303D01*
X42890070Y-47778171D01*
G37*
%TD.AperFunction*%
%TA.AperFunction,SMDPad,CuDef*%
%TO.P,IC1,6*%
G36*
X42536517Y-48131725D02*
G01*
X43579499Y-49174707D01*
X43367367Y-49386839D01*
X42324385Y-48343857D01*
X42536517Y-48131725D01*
G37*
%TD.AperFunction*%
%TA.AperFunction,SMDPad,CuDef*%
%TO.P,IC1,5*%
G36*
X42182963Y-48485278D02*
G01*
X43225945Y-49528260D01*
X43013813Y-49740392D01*
X41970831Y-48697410D01*
X42182963Y-48485278D01*
G37*
%TD.AperFunction*%
%TA.AperFunction,SMDPad,CuDef*%
%TO.P,IC1,4*%
G36*
X41829410Y-48838831D02*
G01*
X42872392Y-49881813D01*
X42660260Y-50093945D01*
X41617278Y-49050963D01*
X41829410Y-48838831D01*
G37*
%TD.AperFunction*%
%TA.AperFunction,SMDPad,CuDef*%
%TO.P,IC1,3*%
%TO.N,GND*%
G36*
X41475857Y-49192385D02*
G01*
X42518839Y-50235367D01*
X42306707Y-50447499D01*
X41263725Y-49404517D01*
X41475857Y-49192385D01*
G37*
%TD.AperFunction*%
%TA.AperFunction,SMDPad,CuDef*%
%TO.P,IC1,2*%
%TO.N,+3V3*%
G36*
X41122303Y-49545938D02*
G01*
X42165285Y-50588920D01*
X41953153Y-50801052D01*
X40910171Y-49758070D01*
X41122303Y-49545938D01*
G37*
%TD.AperFunction*%
%TA.AperFunction,SMDPad,CuDef*%
%TO.P,IC1,1*%
%TO.N,N/C*%
G36*
X40768750Y-49899492D02*
G01*
X41811732Y-50942474D01*
X41599600Y-51154606D01*
X40556618Y-50111624D01*
X40768750Y-49899492D01*
G37*
%TD.AperFunction*%
%TD*%
%TO.P,D4,2*%
%TO.N,Net-(D4-Pad2)*%
%TA.AperFunction,SMDPad,CuDef*%
G36*
G01*
X25654950Y-55096200D02*
X26567450Y-55096200D01*
G75*
G02*
X26811200Y-55339950I0J-243750D01*
G01*
X26811200Y-55827450D01*
G75*
G02*
X26567450Y-56071200I-243750J0D01*
G01*
X25654950Y-56071200D01*
G75*
G02*
X25411200Y-55827450I0J243750D01*
G01*
X25411200Y-55339950D01*
G75*
G02*
X25654950Y-55096200I243750J0D01*
G01*
G37*
%TD.AperFunction*%
%TO.P,D4,1*%
%TO.N,GND*%
%TA.AperFunction,SMDPad,CuDef*%
G36*
G01*
X25654950Y-53221200D02*
X26567450Y-53221200D01*
G75*
G02*
X26811200Y-53464950I0J-243750D01*
G01*
X26811200Y-53952450D01*
G75*
G02*
X26567450Y-54196200I-243750J0D01*
G01*
X25654950Y-54196200D01*
G75*
G02*
X25411200Y-53952450I0J243750D01*
G01*
X25411200Y-53464950D01*
G75*
G02*
X25654950Y-53221200I243750J0D01*
G01*
G37*
%TD.AperFunction*%
%TD*%
D18*
%TO.P,TP3,1*%
%TO.N,Net-(J2-Pad4)*%
X48768000Y-33782000D03*
%TD*%
D14*
%TO.P,J7,2*%
%TO.N,OPTION_SELECT*%
X45212000Y-39116000D03*
D15*
%TO.P,J7,1*%
%TO.N,GND*%
X47752000Y-39116000D03*
%TD*%
%TO.P,R17,2*%
%TO.N,OPTION_SELECT*%
%TA.AperFunction,SMDPad,CuDef*%
G36*
G01*
X47514000Y-41725000D02*
X47514000Y-42095000D01*
G75*
G02*
X47379000Y-42230000I-135000J0D01*
G01*
X47109000Y-42230000D01*
G75*
G02*
X46974000Y-42095000I0J135000D01*
G01*
X46974000Y-41725000D01*
G75*
G02*
X47109000Y-41590000I135000J0D01*
G01*
X47379000Y-41590000D01*
G75*
G02*
X47514000Y-41725000I0J-135000D01*
G01*
G37*
%TD.AperFunction*%
%TO.P,R17,1*%
%TO.N,+3V3*%
%TA.AperFunction,SMDPad,CuDef*%
G36*
G01*
X48534000Y-41725000D02*
X48534000Y-42095000D01*
G75*
G02*
X48399000Y-42230000I-135000J0D01*
G01*
X48129000Y-42230000D01*
G75*
G02*
X47994000Y-42095000I0J135000D01*
G01*
X47994000Y-41725000D01*
G75*
G02*
X48129000Y-41590000I135000J0D01*
G01*
X48399000Y-41590000D01*
G75*
G02*
X48534000Y-41725000I0J-135000D01*
G01*
G37*
%TD.AperFunction*%
%TD*%
D18*
%TO.P,TP2,1*%
%TO.N,Net-(J2-Pad3)*%
X47244000Y-32258000D03*
%TD*%
%TO.P,TP1,1*%
%TO.N,Net-(J2-Pad2)*%
X48768000Y-30734000D03*
%TD*%
%TA.AperFunction,SMDPad,CuDef*%
D17*
%TO.P,JP4,1*%
%TO.N,ADB_PWR_ON_LV*%
G36*
X35294000Y-73364000D02*
G01*
X35294000Y-73914000D01*
X35293398Y-73914000D01*
X35293398Y-73938534D01*
X35288588Y-73987365D01*
X35279016Y-74035490D01*
X35264772Y-74082445D01*
X35245995Y-74127778D01*
X35222864Y-74171051D01*
X35195604Y-74211850D01*
X35164476Y-74249779D01*
X35129779Y-74284476D01*
X35091850Y-74315604D01*
X35051051Y-74342864D01*
X35007778Y-74365995D01*
X34962445Y-74384772D01*
X34915490Y-74399016D01*
X34867365Y-74408588D01*
X34818534Y-74413398D01*
X34794000Y-74413398D01*
X34794000Y-74414000D01*
X34294000Y-74414000D01*
X34294000Y-74413398D01*
X34269466Y-74413398D01*
X34220635Y-74408588D01*
X34172510Y-74399016D01*
X34125555Y-74384772D01*
X34080222Y-74365995D01*
X34036949Y-74342864D01*
X33996150Y-74315604D01*
X33958221Y-74284476D01*
X33923524Y-74249779D01*
X33892396Y-74211850D01*
X33865136Y-74171051D01*
X33842005Y-74127778D01*
X33823228Y-74082445D01*
X33808984Y-74035490D01*
X33799412Y-73987365D01*
X33794602Y-73938534D01*
X33794602Y-73914000D01*
X33794000Y-73914000D01*
X33794000Y-73364000D01*
X35294000Y-73364000D01*
G37*
%TD.AperFunction*%
D19*
%TO.P,JP4,2*%
%TO.N,Net-(JP4-Pad2)*%
X34544000Y-72614000D03*
%TA.AperFunction,SMDPad,CuDef*%
D17*
%TO.P,JP4,3*%
%TO.N,ADB_1_PWR_ON*%
G36*
X33794602Y-71314000D02*
G01*
X33794602Y-71289466D01*
X33799412Y-71240635D01*
X33808984Y-71192510D01*
X33823228Y-71145555D01*
X33842005Y-71100222D01*
X33865136Y-71056949D01*
X33892396Y-71016150D01*
X33923524Y-70978221D01*
X33958221Y-70943524D01*
X33996150Y-70912396D01*
X34036949Y-70885136D01*
X34080222Y-70862005D01*
X34125555Y-70843228D01*
X34172510Y-70828984D01*
X34220635Y-70819412D01*
X34269466Y-70814602D01*
X34294000Y-70814602D01*
X34294000Y-70814000D01*
X34794000Y-70814000D01*
X34794000Y-70814602D01*
X34818534Y-70814602D01*
X34867365Y-70819412D01*
X34915490Y-70828984D01*
X34962445Y-70843228D01*
X35007778Y-70862005D01*
X35051051Y-70885136D01*
X35091850Y-70912396D01*
X35129779Y-70943524D01*
X35164476Y-70978221D01*
X35195604Y-71016150D01*
X35222864Y-71056949D01*
X35245995Y-71100222D01*
X35264772Y-71145555D01*
X35279016Y-71192510D01*
X35288588Y-71240635D01*
X35293398Y-71289466D01*
X35293398Y-71314000D01*
X35294000Y-71314000D01*
X35294000Y-71864000D01*
X33794000Y-71864000D01*
X33794000Y-71314000D01*
X33794602Y-71314000D01*
G37*
%TD.AperFunction*%
%TD*%
%TA.AperFunction,SMDPad,CuDef*%
%TO.P,JP3,1*%
%TO.N,ADB_1_PWR_ON*%
G36*
X31254000Y-71864000D02*
G01*
X31254000Y-71314000D01*
X31254602Y-71314000D01*
X31254602Y-71289466D01*
X31259412Y-71240635D01*
X31268984Y-71192510D01*
X31283228Y-71145555D01*
X31302005Y-71100222D01*
X31325136Y-71056949D01*
X31352396Y-71016150D01*
X31383524Y-70978221D01*
X31418221Y-70943524D01*
X31456150Y-70912396D01*
X31496949Y-70885136D01*
X31540222Y-70862005D01*
X31585555Y-70843228D01*
X31632510Y-70828984D01*
X31680635Y-70819412D01*
X31729466Y-70814602D01*
X31754000Y-70814602D01*
X31754000Y-70814000D01*
X32254000Y-70814000D01*
X32254000Y-70814602D01*
X32278534Y-70814602D01*
X32327365Y-70819412D01*
X32375490Y-70828984D01*
X32422445Y-70843228D01*
X32467778Y-70862005D01*
X32511051Y-70885136D01*
X32551850Y-70912396D01*
X32589779Y-70943524D01*
X32624476Y-70978221D01*
X32655604Y-71016150D01*
X32682864Y-71056949D01*
X32705995Y-71100222D01*
X32724772Y-71145555D01*
X32739016Y-71192510D01*
X32748588Y-71240635D01*
X32753398Y-71289466D01*
X32753398Y-71314000D01*
X32754000Y-71314000D01*
X32754000Y-71864000D01*
X31254000Y-71864000D01*
G37*
%TD.AperFunction*%
D19*
%TO.P,JP3,2*%
%TO.N,Net-(JP3-Pad2)*%
X32004000Y-72614000D03*
%TA.AperFunction,SMDPad,CuDef*%
D17*
%TO.P,JP3,3*%
%TO.N,ADB_PWR_ON_LV*%
G36*
X32753398Y-73914000D02*
G01*
X32753398Y-73938534D01*
X32748588Y-73987365D01*
X32739016Y-74035490D01*
X32724772Y-74082445D01*
X32705995Y-74127778D01*
X32682864Y-74171051D01*
X32655604Y-74211850D01*
X32624476Y-74249779D01*
X32589779Y-74284476D01*
X32551850Y-74315604D01*
X32511051Y-74342864D01*
X32467778Y-74365995D01*
X32422445Y-74384772D01*
X32375490Y-74399016D01*
X32327365Y-74408588D01*
X32278534Y-74413398D01*
X32254000Y-74413398D01*
X32254000Y-74414000D01*
X31754000Y-74414000D01*
X31754000Y-74413398D01*
X31729466Y-74413398D01*
X31680635Y-74408588D01*
X31632510Y-74399016D01*
X31585555Y-74384772D01*
X31540222Y-74365995D01*
X31496949Y-74342864D01*
X31456150Y-74315604D01*
X31418221Y-74284476D01*
X31383524Y-74249779D01*
X31352396Y-74211850D01*
X31325136Y-74171051D01*
X31302005Y-74127778D01*
X31283228Y-74082445D01*
X31268984Y-74035490D01*
X31259412Y-73987365D01*
X31254602Y-73938534D01*
X31254602Y-73914000D01*
X31254000Y-73914000D01*
X31254000Y-73364000D01*
X32754000Y-73364000D01*
X32754000Y-73914000D01*
X32753398Y-73914000D01*
G37*
%TD.AperFunction*%
%TD*%
%TA.AperFunction,SMDPad,CuDef*%
%TO.P,JP2,1*%
%TO.N,ADB_DATA_LV*%
G36*
X43676000Y-73364000D02*
G01*
X43676000Y-73914000D01*
X43675398Y-73914000D01*
X43675398Y-73938534D01*
X43670588Y-73987365D01*
X43661016Y-74035490D01*
X43646772Y-74082445D01*
X43627995Y-74127778D01*
X43604864Y-74171051D01*
X43577604Y-74211850D01*
X43546476Y-74249779D01*
X43511779Y-74284476D01*
X43473850Y-74315604D01*
X43433051Y-74342864D01*
X43389778Y-74365995D01*
X43344445Y-74384772D01*
X43297490Y-74399016D01*
X43249365Y-74408588D01*
X43200534Y-74413398D01*
X43176000Y-74413398D01*
X43176000Y-74414000D01*
X42676000Y-74414000D01*
X42676000Y-74413398D01*
X42651466Y-74413398D01*
X42602635Y-74408588D01*
X42554510Y-74399016D01*
X42507555Y-74384772D01*
X42462222Y-74365995D01*
X42418949Y-74342864D01*
X42378150Y-74315604D01*
X42340221Y-74284476D01*
X42305524Y-74249779D01*
X42274396Y-74211850D01*
X42247136Y-74171051D01*
X42224005Y-74127778D01*
X42205228Y-74082445D01*
X42190984Y-74035490D01*
X42181412Y-73987365D01*
X42176602Y-73938534D01*
X42176602Y-73914000D01*
X42176000Y-73914000D01*
X42176000Y-73364000D01*
X43676000Y-73364000D01*
G37*
%TD.AperFunction*%
D19*
%TO.P,JP2,2*%
%TO.N,Net-(JP2-Pad2)*%
X42926000Y-72614000D03*
%TA.AperFunction,SMDPad,CuDef*%
D17*
%TO.P,JP2,3*%
%TO.N,ADB_1_DATA*%
G36*
X42176602Y-71314000D02*
G01*
X42176602Y-71289466D01*
X42181412Y-71240635D01*
X42190984Y-71192510D01*
X42205228Y-71145555D01*
X42224005Y-71100222D01*
X42247136Y-71056949D01*
X42274396Y-71016150D01*
X42305524Y-70978221D01*
X42340221Y-70943524D01*
X42378150Y-70912396D01*
X42418949Y-70885136D01*
X42462222Y-70862005D01*
X42507555Y-70843228D01*
X42554510Y-70828984D01*
X42602635Y-70819412D01*
X42651466Y-70814602D01*
X42676000Y-70814602D01*
X42676000Y-70814000D01*
X43176000Y-70814000D01*
X43176000Y-70814602D01*
X43200534Y-70814602D01*
X43249365Y-70819412D01*
X43297490Y-70828984D01*
X43344445Y-70843228D01*
X43389778Y-70862005D01*
X43433051Y-70885136D01*
X43473850Y-70912396D01*
X43511779Y-70943524D01*
X43546476Y-70978221D01*
X43577604Y-71016150D01*
X43604864Y-71056949D01*
X43627995Y-71100222D01*
X43646772Y-71145555D01*
X43661016Y-71192510D01*
X43670588Y-71240635D01*
X43675398Y-71289466D01*
X43675398Y-71314000D01*
X43676000Y-71314000D01*
X43676000Y-71864000D01*
X42176000Y-71864000D01*
X42176000Y-71314000D01*
X42176602Y-71314000D01*
G37*
%TD.AperFunction*%
%TD*%
%TA.AperFunction,SMDPad,CuDef*%
%TO.P,JP1,1*%
%TO.N,ADB_1_DATA*%
G36*
X39636000Y-71864000D02*
G01*
X39636000Y-71314000D01*
X39636602Y-71314000D01*
X39636602Y-71289466D01*
X39641412Y-71240635D01*
X39650984Y-71192510D01*
X39665228Y-71145555D01*
X39684005Y-71100222D01*
X39707136Y-71056949D01*
X39734396Y-71016150D01*
X39765524Y-70978221D01*
X39800221Y-70943524D01*
X39838150Y-70912396D01*
X39878949Y-70885136D01*
X39922222Y-70862005D01*
X39967555Y-70843228D01*
X40014510Y-70828984D01*
X40062635Y-70819412D01*
X40111466Y-70814602D01*
X40136000Y-70814602D01*
X40136000Y-70814000D01*
X40636000Y-70814000D01*
X40636000Y-70814602D01*
X40660534Y-70814602D01*
X40709365Y-70819412D01*
X40757490Y-70828984D01*
X40804445Y-70843228D01*
X40849778Y-70862005D01*
X40893051Y-70885136D01*
X40933850Y-70912396D01*
X40971779Y-70943524D01*
X41006476Y-70978221D01*
X41037604Y-71016150D01*
X41064864Y-71056949D01*
X41087995Y-71100222D01*
X41106772Y-71145555D01*
X41121016Y-71192510D01*
X41130588Y-71240635D01*
X41135398Y-71289466D01*
X41135398Y-71314000D01*
X41136000Y-71314000D01*
X41136000Y-71864000D01*
X39636000Y-71864000D01*
G37*
%TD.AperFunction*%
D19*
%TO.P,JP1,2*%
%TO.N,Net-(JP1-Pad2)*%
X40386000Y-72614000D03*
%TA.AperFunction,SMDPad,CuDef*%
D17*
%TO.P,JP1,3*%
%TO.N,ADB_DATA_LV*%
G36*
X41135398Y-73914000D02*
G01*
X41135398Y-73938534D01*
X41130588Y-73987365D01*
X41121016Y-74035490D01*
X41106772Y-74082445D01*
X41087995Y-74127778D01*
X41064864Y-74171051D01*
X41037604Y-74211850D01*
X41006476Y-74249779D01*
X40971779Y-74284476D01*
X40933850Y-74315604D01*
X40893051Y-74342864D01*
X40849778Y-74365995D01*
X40804445Y-74384772D01*
X40757490Y-74399016D01*
X40709365Y-74408588D01*
X40660534Y-74413398D01*
X40636000Y-74413398D01*
X40636000Y-74414000D01*
X40136000Y-74414000D01*
X40136000Y-74413398D01*
X40111466Y-74413398D01*
X40062635Y-74408588D01*
X40014510Y-74399016D01*
X39967555Y-74384772D01*
X39922222Y-74365995D01*
X39878949Y-74342864D01*
X39838150Y-74315604D01*
X39800221Y-74284476D01*
X39765524Y-74249779D01*
X39734396Y-74211850D01*
X39707136Y-74171051D01*
X39684005Y-74127778D01*
X39665228Y-74082445D01*
X39650984Y-74035490D01*
X39641412Y-73987365D01*
X39636602Y-73938534D01*
X39636602Y-73914000D01*
X39636000Y-73914000D01*
X39636000Y-73364000D01*
X41136000Y-73364000D01*
X41136000Y-73914000D01*
X41135398Y-73914000D01*
G37*
%TD.AperFunction*%
%TD*%
%TO.P,R16,2*%
%TO.N,ATMEGA_SPI_SCLK*%
%TA.AperFunction,SMDPad,CuDef*%
G36*
G01*
X45004520Y-43649109D02*
X44742891Y-43387480D01*
G75*
G02*
X44742891Y-43196562I95459J95459D01*
G01*
X44933810Y-43005643D01*
G75*
G02*
X45124728Y-43005643I95459J-95459D01*
G01*
X45386357Y-43267272D01*
G75*
G02*
X45386357Y-43458190I-95459J-95459D01*
G01*
X45195438Y-43649109D01*
G75*
G02*
X45004520Y-43649109I-95459J95459D01*
G01*
G37*
%TD.AperFunction*%
%TO.P,R16,1*%
%TO.N,MAX3421_SPI_SCLK*%
%TA.AperFunction,SMDPad,CuDef*%
G36*
G01*
X44283272Y-44370357D02*
X44021643Y-44108728D01*
G75*
G02*
X44021643Y-43917810I95459J95459D01*
G01*
X44212562Y-43726891D01*
G75*
G02*
X44403480Y-43726891I95459J-95459D01*
G01*
X44665109Y-43988520D01*
G75*
G02*
X44665109Y-44179438I-95459J-95459D01*
G01*
X44474190Y-44370357D01*
G75*
G02*
X44283272Y-44370357I-95459J95459D01*
G01*
G37*
%TD.AperFunction*%
%TD*%
%TO.P,R14,2*%
%TO.N,ATMEGA_SPI_MOSI*%
%TA.AperFunction,SMDPad,CuDef*%
G36*
G01*
X42718520Y-41363109D02*
X42456891Y-41101480D01*
G75*
G02*
X42456891Y-40910562I95459J95459D01*
G01*
X42647810Y-40719643D01*
G75*
G02*
X42838728Y-40719643I95459J-95459D01*
G01*
X43100357Y-40981272D01*
G75*
G02*
X43100357Y-41172190I-95459J-95459D01*
G01*
X42909438Y-41363109D01*
G75*
G02*
X42718520Y-41363109I-95459J95459D01*
G01*
G37*
%TD.AperFunction*%
%TO.P,R14,1*%
%TO.N,MAX3421_SPI_MOSI*%
%TA.AperFunction,SMDPad,CuDef*%
G36*
G01*
X41997272Y-42084357D02*
X41735643Y-41822728D01*
G75*
G02*
X41735643Y-41631810I95459J95459D01*
G01*
X41926562Y-41440891D01*
G75*
G02*
X42117480Y-41440891I95459J-95459D01*
G01*
X42379109Y-41702520D01*
G75*
G02*
X42379109Y-41893438I-95459J-95459D01*
G01*
X42188190Y-42084357D01*
G75*
G02*
X41997272Y-42084357I-95459J95459D01*
G01*
G37*
%TD.AperFunction*%
%TD*%
%TO.P,R13,2*%
%TO.N,ATMEGA_SS*%
%TA.AperFunction,SMDPad,CuDef*%
G36*
G01*
X44242520Y-42887109D02*
X43980891Y-42625480D01*
G75*
G02*
X43980891Y-42434562I95459J95459D01*
G01*
X44171810Y-42243643D01*
G75*
G02*
X44362728Y-42243643I95459J-95459D01*
G01*
X44624357Y-42505272D01*
G75*
G02*
X44624357Y-42696190I-95459J-95459D01*
G01*
X44433438Y-42887109D01*
G75*
G02*
X44242520Y-42887109I-95459J95459D01*
G01*
G37*
%TD.AperFunction*%
%TO.P,R13,1*%
%TO.N,MAX3421_SS*%
%TA.AperFunction,SMDPad,CuDef*%
G36*
G01*
X43521272Y-43608357D02*
X43259643Y-43346728D01*
G75*
G02*
X43259643Y-43155810I95459J95459D01*
G01*
X43450562Y-42964891D01*
G75*
G02*
X43641480Y-42964891I95459J-95459D01*
G01*
X43903109Y-43226520D01*
G75*
G02*
X43903109Y-43417438I-95459J-95459D01*
G01*
X43712190Y-43608357D01*
G75*
G02*
X43521272Y-43608357I-95459J95459D01*
G01*
G37*
%TD.AperFunction*%
%TD*%
%TO.P,R15,2*%
%TO.N,ATMEGA_SPI_MISO*%
%TA.AperFunction,SMDPad,CuDef*%
G36*
G01*
X43480520Y-42125109D02*
X43218891Y-41863480D01*
G75*
G02*
X43218891Y-41672562I95459J95459D01*
G01*
X43409810Y-41481643D01*
G75*
G02*
X43600728Y-41481643I95459J-95459D01*
G01*
X43862357Y-41743272D01*
G75*
G02*
X43862357Y-41934190I-95459J-95459D01*
G01*
X43671438Y-42125109D01*
G75*
G02*
X43480520Y-42125109I-95459J95459D01*
G01*
G37*
%TD.AperFunction*%
%TO.P,R15,1*%
%TO.N,MAX3421_SPI_MISO*%
%TA.AperFunction,SMDPad,CuDef*%
G36*
G01*
X42759272Y-42846357D02*
X42497643Y-42584728D01*
G75*
G02*
X42497643Y-42393810I95459J95459D01*
G01*
X42688562Y-42202891D01*
G75*
G02*
X42879480Y-42202891I95459J-95459D01*
G01*
X43141109Y-42464520D01*
G75*
G02*
X43141109Y-42655438I-95459J-95459D01*
G01*
X42950190Y-42846357D01*
G75*
G02*
X42759272Y-42846357I-95459J95459D01*
G01*
G37*
%TD.AperFunction*%
%TD*%
D20*
%TO.P,Q1,3*%
%TO.N,Net-(JP2-Pad2)*%
X45974000Y-69866000D03*
%TO.P,Q1,2*%
%TO.N,Net-(JP1-Pad2)*%
X46924000Y-71866000D03*
%TO.P,Q1,1*%
%TO.N,+3V3*%
X45024000Y-71866000D03*
%TD*%
%TO.P,C12,2*%
%TO.N,GND*%
%TA.AperFunction,SMDPad,CuDef*%
G36*
G01*
X35106000Y-42756000D02*
X35106000Y-43096000D01*
G75*
G02*
X34966000Y-43236000I-140000J0D01*
G01*
X34686000Y-43236000D01*
G75*
G02*
X34546000Y-43096000I0J140000D01*
G01*
X34546000Y-42756000D01*
G75*
G02*
X34686000Y-42616000I140000J0D01*
G01*
X34966000Y-42616000D01*
G75*
G02*
X35106000Y-42756000I0J-140000D01*
G01*
G37*
%TD.AperFunction*%
%TO.P,C12,1*%
%TO.N,Net-(C12-Pad1)*%
%TA.AperFunction,SMDPad,CuDef*%
G36*
G01*
X36066000Y-42756000D02*
X36066000Y-43096000D01*
G75*
G02*
X35926000Y-43236000I-140000J0D01*
G01*
X35646000Y-43236000D01*
G75*
G02*
X35506000Y-43096000I0J140000D01*
G01*
X35506000Y-42756000D01*
G75*
G02*
X35646000Y-42616000I140000J0D01*
G01*
X35926000Y-42616000D01*
G75*
G02*
X36066000Y-42756000I0J-140000D01*
G01*
G37*
%TD.AperFunction*%
%TD*%
D21*
%TO.P,Y2,4*%
%TO.N,GND*%
X39790000Y-39454000D03*
%TO.P,Y2,3*%
%TO.N,Net-(C10-Pad1)*%
X39790000Y-37254000D03*
%TO.P,Y2,2*%
%TO.N,GND*%
X41490000Y-37254000D03*
%TO.P,Y2,1*%
%TO.N,Net-(C11-Pad1)*%
X41490000Y-39454000D03*
%TD*%
%TO.P,C13,2*%
%TO.N,GND*%
%TA.AperFunction,SMDPad,CuDef*%
G36*
G01*
X45890000Y-49838000D02*
X45550000Y-49838000D01*
G75*
G02*
X45410000Y-49698000I0J140000D01*
G01*
X45410000Y-49418000D01*
G75*
G02*
X45550000Y-49278000I140000J0D01*
G01*
X45890000Y-49278000D01*
G75*
G02*
X46030000Y-49418000I0J-140000D01*
G01*
X46030000Y-49698000D01*
G75*
G02*
X45890000Y-49838000I-140000J0D01*
G01*
G37*
%TD.AperFunction*%
%TO.P,C13,1*%
%TO.N,+3V3*%
%TA.AperFunction,SMDPad,CuDef*%
G36*
G01*
X45890000Y-50798000D02*
X45550000Y-50798000D01*
G75*
G02*
X45410000Y-50658000I0J140000D01*
G01*
X45410000Y-50378000D01*
G75*
G02*
X45550000Y-50238000I140000J0D01*
G01*
X45890000Y-50238000D01*
G75*
G02*
X46030000Y-50378000I0J-140000D01*
G01*
X46030000Y-50658000D01*
G75*
G02*
X45890000Y-50798000I-140000J0D01*
G01*
G37*
%TD.AperFunction*%
%TD*%
%TO.P,R12,2*%
%TO.N,Net-(D3-Pad2)*%
%TA.AperFunction,SMDPad,CuDef*%
G36*
G01*
X31427000Y-59196000D02*
X31057000Y-59196000D01*
G75*
G02*
X30922000Y-59061000I0J135000D01*
G01*
X30922000Y-58791000D01*
G75*
G02*
X31057000Y-58656000I135000J0D01*
G01*
X31427000Y-58656000D01*
G75*
G02*
X31562000Y-58791000I0J-135000D01*
G01*
X31562000Y-59061000D01*
G75*
G02*
X31427000Y-59196000I-135000J0D01*
G01*
G37*
%TD.AperFunction*%
%TO.P,R12,1*%
%TO.N,DEBUG_LED*%
%TA.AperFunction,SMDPad,CuDef*%
G36*
G01*
X31427000Y-60216000D02*
X31057000Y-60216000D01*
G75*
G02*
X30922000Y-60081000I0J135000D01*
G01*
X30922000Y-59811000D01*
G75*
G02*
X31057000Y-59676000I135000J0D01*
G01*
X31427000Y-59676000D01*
G75*
G02*
X31562000Y-59811000I0J-135000D01*
G01*
X31562000Y-60081000D01*
G75*
G02*
X31427000Y-60216000I-135000J0D01*
G01*
G37*
%TD.AperFunction*%
%TD*%
%TO.P,R11,2*%
%TO.N,ADB_1_PWR_ON*%
%TA.AperFunction,SMDPad,CuDef*%
G36*
G01*
X36137000Y-72122000D02*
X36507000Y-72122000D01*
G75*
G02*
X36642000Y-72257000I0J-135000D01*
G01*
X36642000Y-72527000D01*
G75*
G02*
X36507000Y-72662000I-135000J0D01*
G01*
X36137000Y-72662000D01*
G75*
G02*
X36002000Y-72527000I0J135000D01*
G01*
X36002000Y-72257000D01*
G75*
G02*
X36137000Y-72122000I135000J0D01*
G01*
G37*
%TD.AperFunction*%
%TO.P,R11,1*%
%TO.N,ADB_1_5v*%
%TA.AperFunction,SMDPad,CuDef*%
G36*
G01*
X36137000Y-71102000D02*
X36507000Y-71102000D01*
G75*
G02*
X36642000Y-71237000I0J-135000D01*
G01*
X36642000Y-71507000D01*
G75*
G02*
X36507000Y-71642000I-135000J0D01*
G01*
X36137000Y-71642000D01*
G75*
G02*
X36002000Y-71507000I0J135000D01*
G01*
X36002000Y-71237000D01*
G75*
G02*
X36137000Y-71102000I135000J0D01*
G01*
G37*
%TD.AperFunction*%
%TD*%
%TO.P,R10,2*%
%TO.N,ADB_PWR_ON_LV*%
%TA.AperFunction,SMDPad,CuDef*%
G36*
G01*
X36507000Y-73674000D02*
X36137000Y-73674000D01*
G75*
G02*
X36002000Y-73539000I0J135000D01*
G01*
X36002000Y-73269000D01*
G75*
G02*
X36137000Y-73134000I135000J0D01*
G01*
X36507000Y-73134000D01*
G75*
G02*
X36642000Y-73269000I0J-135000D01*
G01*
X36642000Y-73539000D01*
G75*
G02*
X36507000Y-73674000I-135000J0D01*
G01*
G37*
%TD.AperFunction*%
%TO.P,R10,1*%
%TO.N,+3V3*%
%TA.AperFunction,SMDPad,CuDef*%
G36*
G01*
X36507000Y-74694000D02*
X36137000Y-74694000D01*
G75*
G02*
X36002000Y-74559000I0J135000D01*
G01*
X36002000Y-74289000D01*
G75*
G02*
X36137000Y-74154000I135000J0D01*
G01*
X36507000Y-74154000D01*
G75*
G02*
X36642000Y-74289000I0J-135000D01*
G01*
X36642000Y-74559000D01*
G75*
G02*
X36507000Y-74694000I-135000J0D01*
G01*
G37*
%TD.AperFunction*%
%TD*%
%TO.P,R9,2*%
%TO.N,ADB_1_DATA*%
%TA.AperFunction,SMDPad,CuDef*%
G36*
G01*
X38423000Y-72122000D02*
X38793000Y-72122000D01*
G75*
G02*
X38928000Y-72257000I0J-135000D01*
G01*
X38928000Y-72527000D01*
G75*
G02*
X38793000Y-72662000I-135000J0D01*
G01*
X38423000Y-72662000D01*
G75*
G02*
X38288000Y-72527000I0J135000D01*
G01*
X38288000Y-72257000D01*
G75*
G02*
X38423000Y-72122000I135000J0D01*
G01*
G37*
%TD.AperFunction*%
%TO.P,R9,1*%
%TO.N,ADB_1_5v*%
%TA.AperFunction,SMDPad,CuDef*%
G36*
G01*
X38423000Y-71102000D02*
X38793000Y-71102000D01*
G75*
G02*
X38928000Y-71237000I0J-135000D01*
G01*
X38928000Y-71507000D01*
G75*
G02*
X38793000Y-71642000I-135000J0D01*
G01*
X38423000Y-71642000D01*
G75*
G02*
X38288000Y-71507000I0J135000D01*
G01*
X38288000Y-71237000D01*
G75*
G02*
X38423000Y-71102000I135000J0D01*
G01*
G37*
%TD.AperFunction*%
%TD*%
%TO.P,R8,2*%
%TO.N,ADB_DATA_LV*%
%TA.AperFunction,SMDPad,CuDef*%
G36*
G01*
X38793000Y-73674000D02*
X38423000Y-73674000D01*
G75*
G02*
X38288000Y-73539000I0J135000D01*
G01*
X38288000Y-73269000D01*
G75*
G02*
X38423000Y-73134000I135000J0D01*
G01*
X38793000Y-73134000D01*
G75*
G02*
X38928000Y-73269000I0J-135000D01*
G01*
X38928000Y-73539000D01*
G75*
G02*
X38793000Y-73674000I-135000J0D01*
G01*
G37*
%TD.AperFunction*%
%TO.P,R8,1*%
%TO.N,+3V3*%
%TA.AperFunction,SMDPad,CuDef*%
G36*
G01*
X38793000Y-74694000D02*
X38423000Y-74694000D01*
G75*
G02*
X38288000Y-74559000I0J135000D01*
G01*
X38288000Y-74289000D01*
G75*
G02*
X38423000Y-74154000I135000J0D01*
G01*
X38793000Y-74154000D01*
G75*
G02*
X38928000Y-74289000I0J-135000D01*
G01*
X38928000Y-74559000D01*
G75*
G02*
X38793000Y-74694000I-135000J0D01*
G01*
G37*
%TD.AperFunction*%
%TD*%
%TO.P,R7,2*%
%TO.N,Net-(J3-Pad3)*%
%TA.AperFunction,SMDPad,CuDef*%
G36*
G01*
X39638000Y-31819000D02*
X39638000Y-32189000D01*
G75*
G02*
X39503000Y-32324000I-135000J0D01*
G01*
X39233000Y-32324000D01*
G75*
G02*
X39098000Y-32189000I0J135000D01*
G01*
X39098000Y-31819000D01*
G75*
G02*
X39233000Y-31684000I135000J0D01*
G01*
X39503000Y-31684000D01*
G75*
G02*
X39638000Y-31819000I0J-135000D01*
G01*
G37*
%TD.AperFunction*%
%TO.P,R7,1*%
%TO.N,Host_USB_D+*%
%TA.AperFunction,SMDPad,CuDef*%
G36*
G01*
X40658000Y-31819000D02*
X40658000Y-32189000D01*
G75*
G02*
X40523000Y-32324000I-135000J0D01*
G01*
X40253000Y-32324000D01*
G75*
G02*
X40118000Y-32189000I0J135000D01*
G01*
X40118000Y-31819000D01*
G75*
G02*
X40253000Y-31684000I135000J0D01*
G01*
X40523000Y-31684000D01*
G75*
G02*
X40658000Y-31819000I0J-135000D01*
G01*
G37*
%TD.AperFunction*%
%TD*%
%TO.P,R6,2*%
%TO.N,Host_USB_D-*%
%TA.AperFunction,SMDPad,CuDef*%
G36*
G01*
X40116000Y-34729000D02*
X40116000Y-34359000D01*
G75*
G02*
X40251000Y-34224000I135000J0D01*
G01*
X40521000Y-34224000D01*
G75*
G02*
X40656000Y-34359000I0J-135000D01*
G01*
X40656000Y-34729000D01*
G75*
G02*
X40521000Y-34864000I-135000J0D01*
G01*
X40251000Y-34864000D01*
G75*
G02*
X40116000Y-34729000I0J135000D01*
G01*
G37*
%TD.AperFunction*%
%TO.P,R6,1*%
%TO.N,Net-(J3-Pad2)*%
%TA.AperFunction,SMDPad,CuDef*%
G36*
G01*
X39096000Y-34729000D02*
X39096000Y-34359000D01*
G75*
G02*
X39231000Y-34224000I135000J0D01*
G01*
X39501000Y-34224000D01*
G75*
G02*
X39636000Y-34359000I0J-135000D01*
G01*
X39636000Y-34729000D01*
G75*
G02*
X39501000Y-34864000I-135000J0D01*
G01*
X39231000Y-34864000D01*
G75*
G02*
X39096000Y-34729000I0J135000D01*
G01*
G37*
%TD.AperFunction*%
%TD*%
%TO.P,R5,2*%
%TO.N,Net-(D2-Pad2)*%
%TA.AperFunction,SMDPad,CuDef*%
G36*
G01*
X29986000Y-40201000D02*
X29986000Y-40571000D01*
G75*
G02*
X29851000Y-40706000I-135000J0D01*
G01*
X29581000Y-40706000D01*
G75*
G02*
X29446000Y-40571000I0J135000D01*
G01*
X29446000Y-40201000D01*
G75*
G02*
X29581000Y-40066000I135000J0D01*
G01*
X29851000Y-40066000D01*
G75*
G02*
X29986000Y-40201000I0J-135000D01*
G01*
G37*
%TD.AperFunction*%
%TO.P,R5,1*%
%TO.N,VBUS*%
%TA.AperFunction,SMDPad,CuDef*%
G36*
G01*
X31006000Y-40201000D02*
X31006000Y-40571000D01*
G75*
G02*
X30871000Y-40706000I-135000J0D01*
G01*
X30601000Y-40706000D01*
G75*
G02*
X30466000Y-40571000I0J135000D01*
G01*
X30466000Y-40201000D01*
G75*
G02*
X30601000Y-40066000I135000J0D01*
G01*
X30871000Y-40066000D01*
G75*
G02*
X31006000Y-40201000I0J-135000D01*
G01*
G37*
%TD.AperFunction*%
%TD*%
%TO.P,R4,2*%
%TO.N,Net-(D1-Pad2)*%
%TA.AperFunction,SMDPad,CuDef*%
G36*
G01*
X29986000Y-41217000D02*
X29986000Y-41587000D01*
G75*
G02*
X29851000Y-41722000I-135000J0D01*
G01*
X29581000Y-41722000D01*
G75*
G02*
X29446000Y-41587000I0J135000D01*
G01*
X29446000Y-41217000D01*
G75*
G02*
X29581000Y-41082000I135000J0D01*
G01*
X29851000Y-41082000D01*
G75*
G02*
X29986000Y-41217000I0J-135000D01*
G01*
G37*
%TD.AperFunction*%
%TO.P,R4,1*%
%TO.N,+3V3*%
%TA.AperFunction,SMDPad,CuDef*%
G36*
G01*
X31006000Y-41217000D02*
X31006000Y-41587000D01*
G75*
G02*
X30871000Y-41722000I-135000J0D01*
G01*
X30601000Y-41722000D01*
G75*
G02*
X30466000Y-41587000I0J135000D01*
G01*
X30466000Y-41217000D01*
G75*
G02*
X30601000Y-41082000I135000J0D01*
G01*
X30871000Y-41082000D01*
G75*
G02*
X31006000Y-41217000I0J-135000D01*
G01*
G37*
%TD.AperFunction*%
%TD*%
%TO.P,R3,2*%
%TO.N,MAX3421_INT*%
%TA.AperFunction,SMDPad,CuDef*%
G36*
G01*
X37407000Y-41896000D02*
X37777000Y-41896000D01*
G75*
G02*
X37912000Y-42031000I0J-135000D01*
G01*
X37912000Y-42301000D01*
G75*
G02*
X37777000Y-42436000I-135000J0D01*
G01*
X37407000Y-42436000D01*
G75*
G02*
X37272000Y-42301000I0J135000D01*
G01*
X37272000Y-42031000D01*
G75*
G02*
X37407000Y-41896000I135000J0D01*
G01*
G37*
%TD.AperFunction*%
%TO.P,R3,1*%
%TO.N,+3V3*%
%TA.AperFunction,SMDPad,CuDef*%
G36*
G01*
X37407000Y-40876000D02*
X37777000Y-40876000D01*
G75*
G02*
X37912000Y-41011000I0J-135000D01*
G01*
X37912000Y-41281000D01*
G75*
G02*
X37777000Y-41416000I-135000J0D01*
G01*
X37407000Y-41416000D01*
G75*
G02*
X37272000Y-41281000I0J135000D01*
G01*
X37272000Y-41011000D01*
G75*
G02*
X37407000Y-40876000I135000J0D01*
G01*
G37*
%TD.AperFunction*%
%TD*%
%TO.P,R2,2*%
%TO.N,/RESET*%
%TA.AperFunction,SMDPad,CuDef*%
G36*
G01*
X42434000Y-68014000D02*
X42434000Y-68384000D01*
G75*
G02*
X42299000Y-68519000I-135000J0D01*
G01*
X42029000Y-68519000D01*
G75*
G02*
X41894000Y-68384000I0J135000D01*
G01*
X41894000Y-68014000D01*
G75*
G02*
X42029000Y-67879000I135000J0D01*
G01*
X42299000Y-67879000D01*
G75*
G02*
X42434000Y-68014000I0J-135000D01*
G01*
G37*
%TD.AperFunction*%
%TO.P,R2,1*%
%TO.N,+3V3*%
%TA.AperFunction,SMDPad,CuDef*%
G36*
G01*
X43454000Y-68014000D02*
X43454000Y-68384000D01*
G75*
G02*
X43319000Y-68519000I-135000J0D01*
G01*
X43049000Y-68519000D01*
G75*
G02*
X42914000Y-68384000I0J135000D01*
G01*
X42914000Y-68014000D01*
G75*
G02*
X43049000Y-67879000I135000J0D01*
G01*
X43319000Y-67879000D01*
G75*
G02*
X43454000Y-68014000I0J-135000D01*
G01*
G37*
%TD.AperFunction*%
%TD*%
%TO.P,R1,2*%
%TO.N,Net-(C7-Pad1)*%
%TA.AperFunction,SMDPad,CuDef*%
G36*
G01*
X43446000Y-52901000D02*
X43446000Y-53271000D01*
G75*
G02*
X43311000Y-53406000I-135000J0D01*
G01*
X43041000Y-53406000D01*
G75*
G02*
X42906000Y-53271000I0J135000D01*
G01*
X42906000Y-52901000D01*
G75*
G02*
X43041000Y-52766000I135000J0D01*
G01*
X43311000Y-52766000D01*
G75*
G02*
X43446000Y-52901000I0J-135000D01*
G01*
G37*
%TD.AperFunction*%
%TO.P,R1,1*%
%TO.N,Net-(C6-Pad1)*%
%TA.AperFunction,SMDPad,CuDef*%
G36*
G01*
X44466000Y-52901000D02*
X44466000Y-53271000D01*
G75*
G02*
X44331000Y-53406000I-135000J0D01*
G01*
X44061000Y-53406000D01*
G75*
G02*
X43926000Y-53271000I0J135000D01*
G01*
X43926000Y-52901000D01*
G75*
G02*
X44061000Y-52766000I135000J0D01*
G01*
X44331000Y-52766000D01*
G75*
G02*
X44466000Y-52901000I0J-135000D01*
G01*
G37*
%TD.AperFunction*%
%TD*%
%TO.P,C16,2*%
%TO.N,GND*%
%TA.AperFunction,SMDPad,CuDef*%
G36*
G01*
X31773800Y-67703002D02*
X32014216Y-67943418D01*
G75*
G02*
X32014216Y-68141408I-98995J-98995D01*
G01*
X31816226Y-68339398D01*
G75*
G02*
X31618236Y-68339398I-98995J98995D01*
G01*
X31377820Y-68098982D01*
G75*
G02*
X31377820Y-67900992I98995J98995D01*
G01*
X31575810Y-67703002D01*
G75*
G02*
X31773800Y-67703002I98995J-98995D01*
G01*
G37*
%TD.AperFunction*%
%TO.P,C16,1*%
%TO.N,+3V3*%
%TA.AperFunction,SMDPad,CuDef*%
G36*
G01*
X32452622Y-67024180D02*
X32693038Y-67264596D01*
G75*
G02*
X32693038Y-67462586I-98995J-98995D01*
G01*
X32495048Y-67660576D01*
G75*
G02*
X32297058Y-67660576I-98995J98995D01*
G01*
X32056642Y-67420160D01*
G75*
G02*
X32056642Y-67222170I98995J98995D01*
G01*
X32254632Y-67024180D01*
G75*
G02*
X32452622Y-67024180I98995J-98995D01*
G01*
G37*
%TD.AperFunction*%
%TD*%
%TO.P,C15,2*%
%TO.N,GND*%
%TA.AperFunction,SMDPad,CuDef*%
G36*
G01*
X42439213Y-60713629D02*
X42679629Y-60473213D01*
G75*
G02*
X42877619Y-60473213I98995J-98995D01*
G01*
X43075609Y-60671203D01*
G75*
G02*
X43075609Y-60869193I-98995J-98995D01*
G01*
X42835193Y-61109609D01*
G75*
G02*
X42637203Y-61109609I-98995J98995D01*
G01*
X42439213Y-60911619D01*
G75*
G02*
X42439213Y-60713629I98995J98995D01*
G01*
G37*
%TD.AperFunction*%
%TO.P,C15,1*%
%TO.N,+3V3*%
%TA.AperFunction,SMDPad,CuDef*%
G36*
G01*
X41760391Y-60034807D02*
X42000807Y-59794391D01*
G75*
G02*
X42198797Y-59794391I98995J-98995D01*
G01*
X42396787Y-59992381D01*
G75*
G02*
X42396787Y-60190371I-98995J-98995D01*
G01*
X42156371Y-60430787D01*
G75*
G02*
X41958381Y-60430787I-98995J98995D01*
G01*
X41760391Y-60232797D01*
G75*
G02*
X41760391Y-60034807I98995J98995D01*
G01*
G37*
%TD.AperFunction*%
%TD*%
%TO.P,C14,2*%
%TO.N,GND*%
%TA.AperFunction,SMDPad,CuDef*%
G36*
G01*
X40915213Y-59189629D02*
X41155629Y-58949213D01*
G75*
G02*
X41353619Y-58949213I98995J-98995D01*
G01*
X41551609Y-59147203D01*
G75*
G02*
X41551609Y-59345193I-98995J-98995D01*
G01*
X41311193Y-59585609D01*
G75*
G02*
X41113203Y-59585609I-98995J98995D01*
G01*
X40915213Y-59387619D01*
G75*
G02*
X40915213Y-59189629I98995J98995D01*
G01*
G37*
%TD.AperFunction*%
%TO.P,C14,1*%
%TO.N,+3V3*%
%TA.AperFunction,SMDPad,CuDef*%
G36*
G01*
X40236391Y-58510807D02*
X40476807Y-58270391D01*
G75*
G02*
X40674797Y-58270391I98995J-98995D01*
G01*
X40872787Y-58468381D01*
G75*
G02*
X40872787Y-58666371I-98995J-98995D01*
G01*
X40632371Y-58906787D01*
G75*
G02*
X40434381Y-58906787I-98995J98995D01*
G01*
X40236391Y-58708797D01*
G75*
G02*
X40236391Y-58510807I98995J98995D01*
G01*
G37*
%TD.AperFunction*%
%TD*%
%TO.P,C11,2*%
%TO.N,GND*%
%TA.AperFunction,SMDPad,CuDef*%
G36*
G01*
X43096000Y-38380000D02*
X42756000Y-38380000D01*
G75*
G02*
X42616000Y-38240000I0J140000D01*
G01*
X42616000Y-37960000D01*
G75*
G02*
X42756000Y-37820000I140000J0D01*
G01*
X43096000Y-37820000D01*
G75*
G02*
X43236000Y-37960000I0J-140000D01*
G01*
X43236000Y-38240000D01*
G75*
G02*
X43096000Y-38380000I-140000J0D01*
G01*
G37*
%TD.AperFunction*%
%TO.P,C11,1*%
%TO.N,Net-(C11-Pad1)*%
%TA.AperFunction,SMDPad,CuDef*%
G36*
G01*
X43096000Y-39340000D02*
X42756000Y-39340000D01*
G75*
G02*
X42616000Y-39200000I0J140000D01*
G01*
X42616000Y-38920000D01*
G75*
G02*
X42756000Y-38780000I140000J0D01*
G01*
X43096000Y-38780000D01*
G75*
G02*
X43236000Y-38920000I0J-140000D01*
G01*
X43236000Y-39200000D01*
G75*
G02*
X43096000Y-39340000I-140000J0D01*
G01*
G37*
%TD.AperFunction*%
%TD*%
%TO.P,C10,2*%
%TO.N,GND*%
%TA.AperFunction,SMDPad,CuDef*%
G36*
G01*
X37930000Y-39316000D02*
X38270000Y-39316000D01*
G75*
G02*
X38410000Y-39456000I0J-140000D01*
G01*
X38410000Y-39736000D01*
G75*
G02*
X38270000Y-39876000I-140000J0D01*
G01*
X37930000Y-39876000D01*
G75*
G02*
X37790000Y-39736000I0J140000D01*
G01*
X37790000Y-39456000D01*
G75*
G02*
X37930000Y-39316000I140000J0D01*
G01*
G37*
%TD.AperFunction*%
%TO.P,C10,1*%
%TO.N,Net-(C10-Pad1)*%
%TA.AperFunction,SMDPad,CuDef*%
G36*
G01*
X37930000Y-38356000D02*
X38270000Y-38356000D01*
G75*
G02*
X38410000Y-38496000I0J-140000D01*
G01*
X38410000Y-38776000D01*
G75*
G02*
X38270000Y-38916000I-140000J0D01*
G01*
X37930000Y-38916000D01*
G75*
G02*
X37790000Y-38776000I0J140000D01*
G01*
X37790000Y-38496000D01*
G75*
G02*
X37930000Y-38356000I140000J0D01*
G01*
G37*
%TD.AperFunction*%
%TD*%
%TO.P,C9,2*%
%TO.N,GND*%
%TA.AperFunction,SMDPad,CuDef*%
G36*
G01*
X35106000Y-44280000D02*
X35106000Y-44620000D01*
G75*
G02*
X34966000Y-44760000I-140000J0D01*
G01*
X34686000Y-44760000D01*
G75*
G02*
X34546000Y-44620000I0J140000D01*
G01*
X34546000Y-44280000D01*
G75*
G02*
X34686000Y-44140000I140000J0D01*
G01*
X34966000Y-44140000D01*
G75*
G02*
X35106000Y-44280000I0J-140000D01*
G01*
G37*
%TD.AperFunction*%
%TO.P,C9,1*%
%TO.N,+3V3*%
%TA.AperFunction,SMDPad,CuDef*%
G36*
G01*
X36066000Y-44280000D02*
X36066000Y-44620000D01*
G75*
G02*
X35926000Y-44760000I-140000J0D01*
G01*
X35646000Y-44760000D01*
G75*
G02*
X35506000Y-44620000I0J140000D01*
G01*
X35506000Y-44280000D01*
G75*
G02*
X35646000Y-44140000I140000J0D01*
G01*
X35926000Y-44140000D01*
G75*
G02*
X36066000Y-44280000I0J-140000D01*
G01*
G37*
%TD.AperFunction*%
%TD*%
%TO.P,C8,2*%
%TO.N,GND*%
%TA.AperFunction,SMDPad,CuDef*%
G36*
G01*
X43187629Y-51032787D02*
X42947213Y-50792371D01*
G75*
G02*
X42947213Y-50594381I98995J98995D01*
G01*
X43145203Y-50396391D01*
G75*
G02*
X43343193Y-50396391I98995J-98995D01*
G01*
X43583609Y-50636807D01*
G75*
G02*
X43583609Y-50834797I-98995J-98995D01*
G01*
X43385619Y-51032787D01*
G75*
G02*
X43187629Y-51032787I-98995J98995D01*
G01*
G37*
%TD.AperFunction*%
%TO.P,C8,1*%
%TO.N,+3V3*%
%TA.AperFunction,SMDPad,CuDef*%
G36*
G01*
X42508807Y-51711609D02*
X42268391Y-51471193D01*
G75*
G02*
X42268391Y-51273203I98995J98995D01*
G01*
X42466381Y-51075213D01*
G75*
G02*
X42664371Y-51075213I98995J-98995D01*
G01*
X42904787Y-51315629D01*
G75*
G02*
X42904787Y-51513619I-98995J-98995D01*
G01*
X42706797Y-51711609D01*
G75*
G02*
X42508807Y-51711609I-98995J98995D01*
G01*
G37*
%TD.AperFunction*%
%TD*%
%TO.P,C7,2*%
%TO.N,GND*%
%TA.AperFunction,SMDPad,CuDef*%
G36*
G01*
X40302000Y-54410000D02*
X39962000Y-54410000D01*
G75*
G02*
X39822000Y-54270000I0J140000D01*
G01*
X39822000Y-53990000D01*
G75*
G02*
X39962000Y-53850000I140000J0D01*
G01*
X40302000Y-53850000D01*
G75*
G02*
X40442000Y-53990000I0J-140000D01*
G01*
X40442000Y-54270000D01*
G75*
G02*
X40302000Y-54410000I-140000J0D01*
G01*
G37*
%TD.AperFunction*%
%TO.P,C7,1*%
%TO.N,Net-(C7-Pad1)*%
%TA.AperFunction,SMDPad,CuDef*%
G36*
G01*
X40302000Y-55370000D02*
X39962000Y-55370000D01*
G75*
G02*
X39822000Y-55230000I0J140000D01*
G01*
X39822000Y-54950000D01*
G75*
G02*
X39962000Y-54810000I140000J0D01*
G01*
X40302000Y-54810000D01*
G75*
G02*
X40442000Y-54950000I0J-140000D01*
G01*
X40442000Y-55230000D01*
G75*
G02*
X40302000Y-55370000I-140000J0D01*
G01*
G37*
%TD.AperFunction*%
%TD*%
%TO.P,C6,2*%
%TO.N,GND*%
%TA.AperFunction,SMDPad,CuDef*%
G36*
G01*
X45296000Y-54810000D02*
X45636000Y-54810000D01*
G75*
G02*
X45776000Y-54950000I0J-140000D01*
G01*
X45776000Y-55230000D01*
G75*
G02*
X45636000Y-55370000I-140000J0D01*
G01*
X45296000Y-55370000D01*
G75*
G02*
X45156000Y-55230000I0J140000D01*
G01*
X45156000Y-54950000D01*
G75*
G02*
X45296000Y-54810000I140000J0D01*
G01*
G37*
%TD.AperFunction*%
%TO.P,C6,1*%
%TO.N,Net-(C6-Pad1)*%
%TA.AperFunction,SMDPad,CuDef*%
G36*
G01*
X45296000Y-53850000D02*
X45636000Y-53850000D01*
G75*
G02*
X45776000Y-53990000I0J-140000D01*
G01*
X45776000Y-54270000D01*
G75*
G02*
X45636000Y-54410000I-140000J0D01*
G01*
X45296000Y-54410000D01*
G75*
G02*
X45156000Y-54270000I0J140000D01*
G01*
X45156000Y-53990000D01*
G75*
G02*
X45296000Y-53850000I140000J0D01*
G01*
G37*
%TD.AperFunction*%
%TD*%
%TO.P,C5,2*%
%TO.N,FTDI_DTR*%
%TA.AperFunction,SMDPad,CuDef*%
G36*
G01*
X44299960Y-66376000D02*
X43959960Y-66376000D01*
G75*
G02*
X43819960Y-66236000I0J140000D01*
G01*
X43819960Y-65956000D01*
G75*
G02*
X43959960Y-65816000I140000J0D01*
G01*
X44299960Y-65816000D01*
G75*
G02*
X44439960Y-65956000I0J-140000D01*
G01*
X44439960Y-66236000D01*
G75*
G02*
X44299960Y-66376000I-140000J0D01*
G01*
G37*
%TD.AperFunction*%
%TO.P,C5,1*%
%TO.N,/RESET*%
%TA.AperFunction,SMDPad,CuDef*%
G36*
G01*
X44299960Y-67336000D02*
X43959960Y-67336000D01*
G75*
G02*
X43819960Y-67196000I0J140000D01*
G01*
X43819960Y-66916000D01*
G75*
G02*
X43959960Y-66776000I140000J0D01*
G01*
X44299960Y-66776000D01*
G75*
G02*
X44439960Y-66916000I0J-140000D01*
G01*
X44439960Y-67196000D01*
G75*
G02*
X44299960Y-67336000I-140000J0D01*
G01*
G37*
%TD.AperFunction*%
%TD*%
%TO.P,C4,2*%
%TO.N,GND*%
%TA.AperFunction,SMDPad,CuDef*%
G36*
G01*
X31188000Y-39032000D02*
X31188000Y-38692000D01*
G75*
G02*
X31328000Y-38552000I140000J0D01*
G01*
X31608000Y-38552000D01*
G75*
G02*
X31748000Y-38692000I0J-140000D01*
G01*
X31748000Y-39032000D01*
G75*
G02*
X31608000Y-39172000I-140000J0D01*
G01*
X31328000Y-39172000D01*
G75*
G02*
X31188000Y-39032000I0J140000D01*
G01*
G37*
%TD.AperFunction*%
%TO.P,C4,1*%
%TO.N,+3V3*%
%TA.AperFunction,SMDPad,CuDef*%
G36*
G01*
X30228000Y-39032000D02*
X30228000Y-38692000D01*
G75*
G02*
X30368000Y-38552000I140000J0D01*
G01*
X30648000Y-38552000D01*
G75*
G02*
X30788000Y-38692000I0J-140000D01*
G01*
X30788000Y-39032000D01*
G75*
G02*
X30648000Y-39172000I-140000J0D01*
G01*
X30368000Y-39172000D01*
G75*
G02*
X30228000Y-39032000I0J140000D01*
G01*
G37*
%TD.AperFunction*%
%TD*%
%TO.P,C3,2*%
%TO.N,GND*%
%TA.AperFunction,SMDPad,CuDef*%
G36*
G01*
X28756000Y-38692000D02*
X28756000Y-39032000D01*
G75*
G02*
X28616000Y-39172000I-140000J0D01*
G01*
X28336000Y-39172000D01*
G75*
G02*
X28196000Y-39032000I0J140000D01*
G01*
X28196000Y-38692000D01*
G75*
G02*
X28336000Y-38552000I140000J0D01*
G01*
X28616000Y-38552000D01*
G75*
G02*
X28756000Y-38692000I0J-140000D01*
G01*
G37*
%TD.AperFunction*%
%TO.P,C3,1*%
%TO.N,+3V3*%
%TA.AperFunction,SMDPad,CuDef*%
G36*
G01*
X29716000Y-38692000D02*
X29716000Y-39032000D01*
G75*
G02*
X29576000Y-39172000I-140000J0D01*
G01*
X29296000Y-39172000D01*
G75*
G02*
X29156000Y-39032000I0J140000D01*
G01*
X29156000Y-38692000D01*
G75*
G02*
X29296000Y-38552000I140000J0D01*
G01*
X29576000Y-38552000D01*
G75*
G02*
X29716000Y-38692000I0J-140000D01*
G01*
G37*
%TD.AperFunction*%
%TD*%
%TO.P,C2,2*%
%TO.N,GND*%
%TA.AperFunction,SMDPad,CuDef*%
G36*
G01*
X32463731Y-68398013D02*
X32704147Y-68638429D01*
G75*
G02*
X32704147Y-68836419I-98995J-98995D01*
G01*
X32506157Y-69034409D01*
G75*
G02*
X32308167Y-69034409I-98995J98995D01*
G01*
X32067751Y-68793993D01*
G75*
G02*
X32067751Y-68596003I98995J98995D01*
G01*
X32265741Y-68398013D01*
G75*
G02*
X32463731Y-68398013I98995J-98995D01*
G01*
G37*
%TD.AperFunction*%
%TO.P,C2,1*%
%TO.N,Net-(C2-Pad1)*%
%TA.AperFunction,SMDPad,CuDef*%
G36*
G01*
X33142553Y-67719191D02*
X33382969Y-67959607D01*
G75*
G02*
X33382969Y-68157597I-98995J-98995D01*
G01*
X33184979Y-68355587D01*
G75*
G02*
X32986989Y-68355587I-98995J98995D01*
G01*
X32746573Y-68115171D01*
G75*
G02*
X32746573Y-67917181I98995J98995D01*
G01*
X32944563Y-67719191D01*
G75*
G02*
X33142553Y-67719191I98995J-98995D01*
G01*
G37*
%TD.AperFunction*%
%TD*%
%TO.P,C1,2*%
%TO.N,GND*%
%TA.AperFunction,SMDPad,CuDef*%
G36*
G01*
X34120000Y-37284000D02*
X34460000Y-37284000D01*
G75*
G02*
X34600000Y-37424000I0J-140000D01*
G01*
X34600000Y-37704000D01*
G75*
G02*
X34460000Y-37844000I-140000J0D01*
G01*
X34120000Y-37844000D01*
G75*
G02*
X33980000Y-37704000I0J140000D01*
G01*
X33980000Y-37424000D01*
G75*
G02*
X34120000Y-37284000I140000J0D01*
G01*
G37*
%TD.AperFunction*%
%TO.P,C1,1*%
%TO.N,VBUS*%
%TA.AperFunction,SMDPad,CuDef*%
G36*
G01*
X34120000Y-36324000D02*
X34460000Y-36324000D01*
G75*
G02*
X34600000Y-36464000I0J-140000D01*
G01*
X34600000Y-36744000D01*
G75*
G02*
X34460000Y-36884000I-140000J0D01*
G01*
X34120000Y-36884000D01*
G75*
G02*
X33980000Y-36744000I0J140000D01*
G01*
X33980000Y-36464000D01*
G75*
G02*
X34120000Y-36324000I140000J0D01*
G01*
G37*
%TD.AperFunction*%
%TD*%
%TO.P,D3,2*%
%TO.N,Net-(D3-Pad2)*%
%TA.AperFunction,SMDPad,CuDef*%
G36*
G01*
X25654950Y-51273100D02*
X26567450Y-51273100D01*
G75*
G02*
X26811200Y-51516850I0J-243750D01*
G01*
X26811200Y-52004350D01*
G75*
G02*
X26567450Y-52248100I-243750J0D01*
G01*
X25654950Y-52248100D01*
G75*
G02*
X25411200Y-52004350I0J243750D01*
G01*
X25411200Y-51516850D01*
G75*
G02*
X25654950Y-51273100I243750J0D01*
G01*
G37*
%TD.AperFunction*%
%TO.P,D3,1*%
%TO.N,GND*%
%TA.AperFunction,SMDPad,CuDef*%
G36*
G01*
X25654950Y-49398100D02*
X26567450Y-49398100D01*
G75*
G02*
X26811200Y-49641850I0J-243750D01*
G01*
X26811200Y-50129350D01*
G75*
G02*
X26567450Y-50373100I-243750J0D01*
G01*
X25654950Y-50373100D01*
G75*
G02*
X25411200Y-50129350I0J243750D01*
G01*
X25411200Y-49641850D01*
G75*
G02*
X25654950Y-49398100I243750J0D01*
G01*
G37*
%TD.AperFunction*%
%TD*%
%TO.P,D2,2*%
%TO.N,Net-(D2-Pad2)*%
%TA.AperFunction,SMDPad,CuDef*%
G36*
G01*
X25654950Y-43630000D02*
X26567450Y-43630000D01*
G75*
G02*
X26811200Y-43873750I0J-243750D01*
G01*
X26811200Y-44361250D01*
G75*
G02*
X26567450Y-44605000I-243750J0D01*
G01*
X25654950Y-44605000D01*
G75*
G02*
X25411200Y-44361250I0J243750D01*
G01*
X25411200Y-43873750D01*
G75*
G02*
X25654950Y-43630000I243750J0D01*
G01*
G37*
%TD.AperFunction*%
%TO.P,D2,1*%
%TO.N,GND*%
%TA.AperFunction,SMDPad,CuDef*%
G36*
G01*
X25654950Y-41755000D02*
X26567450Y-41755000D01*
G75*
G02*
X26811200Y-41998750I0J-243750D01*
G01*
X26811200Y-42486250D01*
G75*
G02*
X26567450Y-42730000I-243750J0D01*
G01*
X25654950Y-42730000D01*
G75*
G02*
X25411200Y-42486250I0J243750D01*
G01*
X25411200Y-41998750D01*
G75*
G02*
X25654950Y-41755000I243750J0D01*
G01*
G37*
%TD.AperFunction*%
%TD*%
%TO.P,D1,2*%
%TO.N,Net-(D1-Pad2)*%
%TA.AperFunction,SMDPad,CuDef*%
G36*
G01*
X25654950Y-47451550D02*
X26567450Y-47451550D01*
G75*
G02*
X26811200Y-47695300I0J-243750D01*
G01*
X26811200Y-48182800D01*
G75*
G02*
X26567450Y-48426550I-243750J0D01*
G01*
X25654950Y-48426550D01*
G75*
G02*
X25411200Y-48182800I0J243750D01*
G01*
X25411200Y-47695300D01*
G75*
G02*
X25654950Y-47451550I243750J0D01*
G01*
G37*
%TD.AperFunction*%
%TO.P,D1,1*%
%TO.N,GND*%
%TA.AperFunction,SMDPad,CuDef*%
G36*
G01*
X25654950Y-45576550D02*
X26567450Y-45576550D01*
G75*
G02*
X26811200Y-45820300I0J-243750D01*
G01*
X26811200Y-46307800D01*
G75*
G02*
X26567450Y-46551550I-243750J0D01*
G01*
X25654950Y-46551550D01*
G75*
G02*
X25411200Y-46307800I0J243750D01*
G01*
X25411200Y-45820300D01*
G75*
G02*
X25654950Y-45576550I243750J0D01*
G01*
G37*
%TD.AperFunction*%
%TD*%
D14*
%TO.P,J1,6*%
%TO.N,FTDI_DTR*%
X48000000Y-57700000D03*
%TO.P,J1,5*%
%TO.N,FTDI_TXO*%
X48000000Y-55160000D03*
%TO.P,J1,4*%
%TO.N,FTDI_RXI*%
X48000000Y-52620000D03*
%TO.P,J1,3*%
%TO.N,+3V3*%
X48000000Y-50080000D03*
%TO.P,J1,2*%
%TO.N,N/C*%
X48000000Y-47540000D03*
D15*
%TO.P,J1,1*%
%TO.N,GND*%
X48000000Y-45000000D03*
%TD*%
%TO.P,F1,2*%
%TO.N,VBUS*%
%TA.AperFunction,SMDPad,CuDef*%
G36*
G01*
X34397999Y-34082000D02*
X35198001Y-34082000D01*
G75*
G02*
X35448000Y-34331999I0J-249999D01*
G01*
X35448000Y-35157001D01*
G75*
G02*
X35198001Y-35407000I-249999J0D01*
G01*
X34397999Y-35407000D01*
G75*
G02*
X34148000Y-35157001I0J249999D01*
G01*
X34148000Y-34331999D01*
G75*
G02*
X34397999Y-34082000I249999J0D01*
G01*
G37*
%TD.AperFunction*%
%TO.P,F1,1*%
%TO.N,Net-(F1-Pad1)*%
%TA.AperFunction,SMDPad,CuDef*%
G36*
G01*
X34397999Y-32157000D02*
X35198001Y-32157000D01*
G75*
G02*
X35448000Y-32406999I0J-249999D01*
G01*
X35448000Y-33232001D01*
G75*
G02*
X35198001Y-33482000I-249999J0D01*
G01*
X34397999Y-33482000D01*
G75*
G02*
X34148000Y-33232001I0J249999D01*
G01*
X34148000Y-32406999D01*
G75*
G02*
X34397999Y-32157000I249999J0D01*
G01*
G37*
%TD.AperFunction*%
%TD*%
D22*
%TO.P,Y1,4*%
%TO.N,GND*%
X41742000Y-54434000D03*
%TO.P,Y1,3*%
%TO.N,Net-(C6-Pad1)*%
X43942000Y-54434000D03*
%TO.P,Y1,2*%
%TO.N,GND*%
X43942000Y-56134000D03*
%TO.P,Y1,1*%
%TO.N,Net-(C7-Pad1)*%
X41742000Y-56134000D03*
%TD*%
D20*
%TO.P,Q2,3*%
%TO.N,Net-(JP4-Pad2)*%
X28956000Y-69866000D03*
%TO.P,Q2,2*%
%TO.N,Net-(JP3-Pad2)*%
X29906000Y-71866000D03*
%TO.P,Q2,1*%
%TO.N,+3V3*%
X28006000Y-71866000D03*
%TD*%
D23*
%TO.P,U1,1*%
%TO.N,GND*%
X27672000Y-36884000D03*
%TO.P,U1,3*%
%TO.N,VBUS*%
X32272000Y-36884000D03*
%TO.P,U1,2*%
%TO.N,+3V3*%
X29972000Y-36884000D03*
D24*
X29972000Y-30584000D03*
%TD*%
%TA.AperFunction,SMDPad,CuDef*%
D17*
%TO.P,U2,32*%
%TO.N,ADB_PWR_ON_LV*%
G36*
X41724963Y-64654074D02*
G01*
X42113872Y-64265165D01*
X43245243Y-65396536D01*
X42856334Y-65785445D01*
X41724963Y-64654074D01*
G37*
%TD.AperFunction*%
%TA.AperFunction,SMDPad,CuDef*%
%TO.P,U2,31*%
%TO.N,FTDI_TXO*%
G36*
X41159277Y-65219759D02*
G01*
X41548186Y-64830850D01*
X42679557Y-65962221D01*
X42290648Y-66351130D01*
X41159277Y-65219759D01*
G37*
%TD.AperFunction*%
%TA.AperFunction,SMDPad,CuDef*%
%TO.P,U2,30*%
%TO.N,FTDI_RXI*%
G36*
X40593592Y-65785445D02*
G01*
X40982501Y-65396536D01*
X42113872Y-66527907D01*
X41724963Y-66916816D01*
X40593592Y-65785445D01*
G37*
%TD.AperFunction*%
%TA.AperFunction,SMDPad,CuDef*%
%TO.P,U2,29*%
%TO.N,/RESET*%
G36*
X40027907Y-66351130D02*
G01*
X40416816Y-65962221D01*
X41548187Y-67093592D01*
X41159278Y-67482501D01*
X40027907Y-66351130D01*
G37*
%TD.AperFunction*%
%TA.AperFunction,SMDPad,CuDef*%
%TO.P,U2,28*%
%TO.N,N/C*%
G36*
X39462221Y-66916816D02*
G01*
X39851130Y-66527907D01*
X40982501Y-67659278D01*
X40593592Y-68048187D01*
X39462221Y-66916816D01*
G37*
%TD.AperFunction*%
%TA.AperFunction,SMDPad,CuDef*%
%TO.P,U2,27*%
G36*
X38896536Y-67482501D02*
G01*
X39285445Y-67093592D01*
X40416816Y-68224963D01*
X40027907Y-68613872D01*
X38896536Y-67482501D01*
G37*
%TD.AperFunction*%
%TA.AperFunction,SMDPad,CuDef*%
%TO.P,U2,26*%
G36*
X38330850Y-68048186D02*
G01*
X38719759Y-67659277D01*
X39851130Y-68790648D01*
X39462221Y-69179557D01*
X38330850Y-68048186D01*
G37*
%TD.AperFunction*%
%TA.AperFunction,SMDPad,CuDef*%
%TO.P,U2,25*%
G36*
X37765165Y-68613872D02*
G01*
X38154074Y-68224963D01*
X39285445Y-69356334D01*
X38896536Y-69745243D01*
X37765165Y-68613872D01*
G37*
%TD.AperFunction*%
%TA.AperFunction,SMDPad,CuDef*%
%TO.P,U2,24*%
%TO.N,USB_STAT_LED*%
G36*
X36845926Y-68224963D02*
G01*
X37234835Y-68613872D01*
X36103464Y-69745243D01*
X35714555Y-69356334D01*
X36845926Y-68224963D01*
G37*
%TD.AperFunction*%
%TA.AperFunction,SMDPad,CuDef*%
%TO.P,U2,23*%
%TO.N,DEBUG_LED*%
G36*
X36280241Y-67659277D02*
G01*
X36669150Y-68048186D01*
X35537779Y-69179557D01*
X35148870Y-68790648D01*
X36280241Y-67659277D01*
G37*
%TD.AperFunction*%
%TA.AperFunction,SMDPad,CuDef*%
%TO.P,U2,22*%
%TO.N,N/C*%
G36*
X35714555Y-67093592D02*
G01*
X36103464Y-67482501D01*
X34972093Y-68613872D01*
X34583184Y-68224963D01*
X35714555Y-67093592D01*
G37*
%TD.AperFunction*%
%TA.AperFunction,SMDPad,CuDef*%
%TO.P,U2,21*%
%TO.N,GND*%
G36*
X35148870Y-66527907D02*
G01*
X35537779Y-66916816D01*
X34406408Y-68048187D01*
X34017499Y-67659278D01*
X35148870Y-66527907D01*
G37*
%TD.AperFunction*%
%TA.AperFunction,SMDPad,CuDef*%
%TO.P,U2,20*%
%TO.N,Net-(C2-Pad1)*%
G36*
X34583184Y-65962221D02*
G01*
X34972093Y-66351130D01*
X33840722Y-67482501D01*
X33451813Y-67093592D01*
X34583184Y-65962221D01*
G37*
%TD.AperFunction*%
%TA.AperFunction,SMDPad,CuDef*%
%TO.P,U2,19*%
%TO.N,N/C*%
G36*
X34017499Y-65396536D02*
G01*
X34406408Y-65785445D01*
X33275037Y-66916816D01*
X32886128Y-66527907D01*
X34017499Y-65396536D01*
G37*
%TD.AperFunction*%
%TA.AperFunction,SMDPad,CuDef*%
%TO.P,U2,18*%
%TO.N,+3V3*%
G36*
X33451814Y-64830850D02*
G01*
X33840723Y-65219759D01*
X32709352Y-66351130D01*
X32320443Y-65962221D01*
X33451814Y-64830850D01*
G37*
%TD.AperFunction*%
%TA.AperFunction,SMDPad,CuDef*%
%TO.P,U2,17*%
%TO.N,ATMEGA_SPI_SCLK*%
G36*
X32886128Y-64265165D02*
G01*
X33275037Y-64654074D01*
X32143666Y-65785445D01*
X31754757Y-65396536D01*
X32886128Y-64265165D01*
G37*
%TD.AperFunction*%
%TA.AperFunction,SMDPad,CuDef*%
%TO.P,U2,16*%
%TO.N,ATMEGA_SPI_MISO*%
G36*
X31754757Y-62603464D02*
G01*
X32143666Y-62214555D01*
X33275037Y-63345926D01*
X32886128Y-63734835D01*
X31754757Y-62603464D01*
G37*
%TD.AperFunction*%
%TA.AperFunction,SMDPad,CuDef*%
%TO.P,U2,15*%
%TO.N,ATMEGA_SPI_MOSI*%
G36*
X32320443Y-62037779D02*
G01*
X32709352Y-61648870D01*
X33840723Y-62780241D01*
X33451814Y-63169150D01*
X32320443Y-62037779D01*
G37*
%TD.AperFunction*%
%TA.AperFunction,SMDPad,CuDef*%
%TO.P,U2,14*%
%TO.N,ATMEGA_SS*%
G36*
X32886128Y-61472093D02*
G01*
X33275037Y-61083184D01*
X34406408Y-62214555D01*
X34017499Y-62603464D01*
X32886128Y-61472093D01*
G37*
%TD.AperFunction*%
%TA.AperFunction,SMDPad,CuDef*%
%TO.P,U2,13*%
%TO.N,MAX3421_INT*%
G36*
X33451813Y-60906408D02*
G01*
X33840722Y-60517499D01*
X34972093Y-61648870D01*
X34583184Y-62037779D01*
X33451813Y-60906408D01*
G37*
%TD.AperFunction*%
%TA.AperFunction,SMDPad,CuDef*%
%TO.P,U2,12*%
%TO.N,MAX3421_GPX*%
G36*
X34017499Y-60340722D02*
G01*
X34406408Y-59951813D01*
X35537779Y-61083184D01*
X35148870Y-61472093D01*
X34017499Y-60340722D01*
G37*
%TD.AperFunction*%
%TA.AperFunction,SMDPad,CuDef*%
%TO.P,U2,11*%
%TO.N,MAX3421_RESET*%
G36*
X34583184Y-59775037D02*
G01*
X34972093Y-59386128D01*
X36103464Y-60517499D01*
X35714555Y-60906408D01*
X34583184Y-59775037D01*
G37*
%TD.AperFunction*%
%TA.AperFunction,SMDPad,CuDef*%
%TO.P,U2,10*%
%TO.N,N/C*%
G36*
X35148870Y-59209352D02*
G01*
X35537779Y-58820443D01*
X36669150Y-59951814D01*
X36280241Y-60340723D01*
X35148870Y-59209352D01*
G37*
%TD.AperFunction*%
%TA.AperFunction,SMDPad,CuDef*%
%TO.P,U2,9*%
G36*
X35714555Y-58643666D02*
G01*
X36103464Y-58254757D01*
X37234835Y-59386128D01*
X36845926Y-59775037D01*
X35714555Y-58643666D01*
G37*
%TD.AperFunction*%
%TA.AperFunction,SMDPad,CuDef*%
%TO.P,U2,8*%
%TO.N,Net-(C7-Pad1)*%
G36*
X38896536Y-58254757D02*
G01*
X39285445Y-58643666D01*
X38154074Y-59775037D01*
X37765165Y-59386128D01*
X38896536Y-58254757D01*
G37*
%TD.AperFunction*%
%TA.AperFunction,SMDPad,CuDef*%
%TO.P,U2,7*%
%TO.N,Net-(C6-Pad1)*%
G36*
X39462221Y-58820443D02*
G01*
X39851130Y-59209352D01*
X38719759Y-60340723D01*
X38330850Y-59951814D01*
X39462221Y-58820443D01*
G37*
%TD.AperFunction*%
%TA.AperFunction,SMDPad,CuDef*%
%TO.P,U2,6*%
%TO.N,+3V3*%
G36*
X40027907Y-59386128D02*
G01*
X40416816Y-59775037D01*
X39285445Y-60906408D01*
X38896536Y-60517499D01*
X40027907Y-59386128D01*
G37*
%TD.AperFunction*%
%TA.AperFunction,SMDPad,CuDef*%
%TO.P,U2,5*%
%TO.N,GND*%
G36*
X40593592Y-59951813D02*
G01*
X40982501Y-60340722D01*
X39851130Y-61472093D01*
X39462221Y-61083184D01*
X40593592Y-59951813D01*
G37*
%TD.AperFunction*%
%TA.AperFunction,SMDPad,CuDef*%
%TO.P,U2,4*%
%TO.N,+3V3*%
G36*
X41159278Y-60517499D02*
G01*
X41548187Y-60906408D01*
X40416816Y-62037779D01*
X40027907Y-61648870D01*
X41159278Y-60517499D01*
G37*
%TD.AperFunction*%
%TA.AperFunction,SMDPad,CuDef*%
%TO.P,U2,3*%
%TO.N,GND*%
G36*
X41724963Y-61083184D02*
G01*
X42113872Y-61472093D01*
X40982501Y-62603464D01*
X40593592Y-62214555D01*
X41724963Y-61083184D01*
G37*
%TD.AperFunction*%
%TA.AperFunction,SMDPad,CuDef*%
%TO.P,U2,2*%
%TO.N,OPTION_SELECT*%
G36*
X42290648Y-61648870D02*
G01*
X42679557Y-62037779D01*
X41548186Y-63169150D01*
X41159277Y-62780241D01*
X42290648Y-61648870D01*
G37*
%TD.AperFunction*%
%TA.AperFunction,SMDPad,CuDef*%
%TO.P,U2,1*%
%TO.N,ADB_DATA_LV*%
G36*
X42856334Y-62214555D02*
G01*
X43245243Y-62603464D01*
X42113872Y-63734835D01*
X41724963Y-63345926D01*
X42856334Y-62214555D01*
G37*
%TD.AperFunction*%
%TD*%
D25*
%TO.P,J3,4*%
%TO.N,GND*%
X37338000Y-30084000D03*
%TO.P,J3,3*%
%TO.N,Net-(J3-Pad3)*%
X37338000Y-32584000D03*
%TO.P,J3,2*%
%TO.N,Net-(J3-Pad2)*%
X37338000Y-34584000D03*
D26*
%TO.P,J3,1*%
%TO.N,Net-(F1-Pad1)*%
X37338000Y-37084000D03*
D27*
%TO.P,J3,5*%
%TO.N,GND*%
X34628000Y-27014000D03*
X34628000Y-40154000D03*
%TD*%
D28*
%TO.N,ADB_1_5v*%
X38998961Y-71118403D03*
X37336000Y-71372000D03*
%TO.N,ADB_1_DATA*%
X41656000Y-70612000D03*
X37338000Y-72898000D03*
%TO.N,ADB_1_PWR_ON*%
X40640000Y-63860002D03*
X35650371Y-64284307D03*
X30525904Y-70845670D03*
%TO.N,GND*%
X32258000Y-38862000D03*
X45837203Y-52399406D03*
X39878000Y-51562000D03*
X39370000Y-56388000D03*
X41025313Y-68959998D03*
X44196000Y-69088000D03*
X28702000Y-40132000D03*
X27432000Y-53086000D03*
X34000709Y-68824979D03*
X34544000Y-45212000D03*
X27432000Y-45212000D03*
X39782252Y-46434126D03*
X39818200Y-48681010D03*
X30947587Y-69129313D03*
X39370000Y-66040000D03*
X31750000Y-66548000D03*
%TO.N,+3V3*%
X30347920Y-32420560D03*
X31790640Y-34925000D03*
X36576000Y-61976000D03*
X31787188Y-42073980D03*
X36097419Y-43910029D03*
X38354000Y-40640000D03*
X36561474Y-52471001D03*
X44958000Y-74375000D03*
X37592000Y-74375000D03*
X29718000Y-74375000D03*
X36576000Y-57658000D03*
X37450393Y-65242238D03*
X38234587Y-69931824D03*
%TO.N,VBUS*%
X33401000Y-34066480D03*
%TO.N,Host_USB_D-*%
X40519218Y-33425727D03*
X39458683Y-45480769D03*
%TO.N,Host_USB_D+*%
X39654480Y-32923480D03*
X38800490Y-46243950D03*
%TO.N,FTDI_DTR*%
X45899763Y-64466459D03*
%TO.N,Net-(C10-Pad1)*%
X41656000Y-47498000D03*
X40640000Y-35814000D03*
%TO.N,Net-(C11-Pad1)*%
X41315010Y-40894000D03*
X41315010Y-46043804D03*
%TO.N,MAX3421_INT*%
X35579305Y-61894624D03*
X37592000Y-54864000D03*
X37149609Y-42799000D03*
X35569021Y-54864025D03*
%TO.N,MAX3421_GPX*%
X38519658Y-41821195D03*
X37376010Y-60187503D03*
%TO.N,ADB_DATA_LV*%
X44958000Y-70612000D03*
X45024022Y-62017753D03*
%TO.N,ADB_PWR_ON_LV*%
X35327096Y-73774980D03*
X35555525Y-66084330D03*
%TO.N,FTDI_TXO*%
X44574011Y-64969804D03*
%TO.N,FTDI_RXI*%
X42819184Y-66851295D03*
%TO.N,/RESET*%
X49375000Y-51816000D03*
X47244000Y-65024000D03*
X33782000Y-54864000D03*
%TO.N,DEBUG_LED*%
X29718000Y-59690000D03*
X31014052Y-67310000D03*
%TO.N,ATMEGA_SS*%
X39073998Y-62235017D03*
X44882152Y-41763006D03*
%TO.N,ATMEGA_SPI_MOSI*%
X37743876Y-62721639D03*
X31418031Y-61423083D03*
X43433413Y-40385408D03*
%TO.N,ATMEGA_SPI_MISO*%
X44137485Y-41095553D03*
X30455989Y-62864202D03*
X38607953Y-63244069D03*
%TO.N,ATMEGA_SPI_SCLK*%
X45298990Y-42672000D03*
X38973782Y-64693862D03*
X30820202Y-65763793D03*
%TO.N,MAX3421_RESET*%
X34544000Y-47752000D03*
X33770361Y-58431639D03*
%TO.N,Net-(JP1-Pad2)*%
X41575998Y-72898000D03*
X48006000Y-71882000D03*
%TO.N,Net-(JP4-Pad2)*%
X33354002Y-72898000D03*
X27940000Y-69850000D03*
%TO.N,OPTION_SELECT*%
X43584065Y-59332969D03*
%TO.N,Net-(D4-Pad2)*%
X27686000Y-55372000D03*
X28732695Y-62961305D03*
%TD*%
D29*
%TO.N,ADB_1_5v*%
X36322000Y-71372000D02*
X36322000Y-71233653D01*
X38608000Y-71372000D02*
X37336000Y-71372000D01*
D30*
X36322000Y-71372000D02*
X37336000Y-71372000D01*
D29*
X38608000Y-71372000D02*
X38861597Y-71118403D01*
X38861597Y-71118403D02*
X38998961Y-71118403D01*
D30*
%TO.N,ADB_1_DATA*%
X42224000Y-70612000D02*
X41656000Y-70612000D01*
X42926000Y-71314000D02*
X42224000Y-70612000D01*
X41088000Y-70612000D02*
X41656000Y-70612000D01*
X40386000Y-71314000D02*
X41088000Y-70612000D01*
X39752000Y-71314000D02*
X40386000Y-71314000D01*
X38354000Y-72392000D02*
X38674000Y-72392000D01*
X40006000Y-71314000D02*
X40386000Y-71314000D01*
X38928000Y-72392000D02*
X40006000Y-71314000D01*
X38608000Y-72392000D02*
X38928000Y-72392000D01*
X38102000Y-72898000D02*
X38608000Y-72392000D01*
X37338000Y-72898000D02*
X38102000Y-72898000D01*
%TO.N,ADB_1_PWR_ON*%
X32004000Y-71314000D02*
X34544000Y-71314000D01*
X35244000Y-71314000D02*
X34544000Y-71314000D01*
X36322000Y-72392000D02*
X35244000Y-71314000D01*
X32004000Y-71314000D02*
X30994234Y-71314000D01*
X30994234Y-71314000D02*
X30525904Y-70845670D01*
D29*
X38623638Y-63971002D02*
X35963676Y-63971002D01*
X40640000Y-63860002D02*
X40531142Y-63968860D01*
X38625780Y-63968860D02*
X38623638Y-63971002D01*
X35963676Y-63971002D02*
X35650371Y-64284307D01*
X40531142Y-63968860D02*
X38625780Y-63968860D01*
D31*
%TO.N,GND*%
X26111200Y-46064050D02*
X26315790Y-46064050D01*
D29*
X41233411Y-59700903D02*
X40222361Y-60711953D01*
X41233411Y-59267411D02*
X41233411Y-59700903D01*
X42405645Y-60791411D02*
X41353732Y-61843324D01*
X42757411Y-60791411D02*
X42405645Y-60791411D01*
X43942000Y-57658000D02*
X43942000Y-56134000D01*
X41233411Y-59267411D02*
X42332589Y-59267411D01*
X42926000Y-58674000D02*
X43942000Y-57658000D01*
X42332589Y-59267411D02*
X42926000Y-58674000D01*
X40436000Y-54434000D02*
X40132000Y-54130000D01*
X41742000Y-54434000D02*
X40436000Y-54434000D01*
X42785929Y-50714589D02*
X43265411Y-50714589D01*
X41891282Y-49819942D02*
X42785929Y-50714589D01*
X31468000Y-38862000D02*
X32258000Y-38862000D01*
X34290000Y-37564000D02*
X34064000Y-37564000D01*
X34064000Y-37564000D02*
X33528000Y-38100000D01*
X33528000Y-39054000D02*
X34628000Y-40154000D01*
X33528000Y-38100000D02*
X33528000Y-39054000D01*
X33056589Y-45297411D02*
X33004000Y-45350000D01*
X32484000Y-44830000D02*
X33004000Y-45350000D01*
X32484000Y-43434000D02*
X32484000Y-44830000D01*
X32451789Y-43401789D02*
X32413466Y-43401789D01*
X32484000Y-43434000D02*
X32451789Y-43401789D01*
X32484000Y-43434000D02*
X32484000Y-43426374D01*
X32385949Y-68711131D02*
X31696018Y-68021200D01*
X32385949Y-68716211D02*
X32385949Y-68711131D01*
X27432000Y-67934000D02*
X28056000Y-67310000D01*
D30*
X34688951Y-67288047D02*
X34777639Y-67288047D01*
X33260787Y-68716211D02*
X34688951Y-67288047D01*
X32385949Y-68716211D02*
X33260787Y-68716211D01*
D29*
X46862001Y-74421999D02*
X47574000Y-73710000D01*
X34777639Y-67288047D02*
X35060465Y-67288047D01*
D31*
X28476000Y-37688000D02*
X27672000Y-36884000D01*
X28476000Y-38862000D02*
X28476000Y-37688000D01*
D30*
X47574000Y-60910000D02*
X46024000Y-60910000D01*
D31*
X48144001Y-66039999D02*
X46874000Y-67310000D01*
X48144001Y-61480001D02*
X48144001Y-66039999D01*
X47574000Y-60910000D02*
X48144001Y-61480001D01*
D29*
X41742000Y-54434000D02*
X41742000Y-53311700D01*
X41742000Y-53311700D02*
X42583688Y-52470012D01*
X42583688Y-52470012D02*
X42837688Y-52470012D01*
X45795619Y-52440990D02*
X45837203Y-52399406D01*
X42837688Y-52470012D02*
X42866710Y-52440990D01*
X42866710Y-52440990D02*
X45795619Y-52440990D01*
D31*
X26201250Y-45974000D02*
X26111200Y-46064050D01*
X32495998Y-49728000D02*
X34290000Y-49728000D01*
X31769999Y-50453999D02*
X32495998Y-49728000D01*
X31769999Y-54883999D02*
X31769999Y-50453999D01*
X33020000Y-56134000D02*
X31769999Y-54883999D01*
X35015999Y-50453999D02*
X34290000Y-49728000D01*
X35495999Y-50453999D02*
X35015999Y-50453999D01*
X35560000Y-50518000D02*
X35495999Y-50453999D01*
X49324012Y-69760012D02*
X46874000Y-67310000D01*
X49324012Y-71959988D02*
X49324012Y-69760012D01*
X47574000Y-73710000D02*
X49324012Y-71959988D01*
D30*
X46874000Y-67310000D02*
X45974000Y-67310000D01*
X41661315Y-69596000D02*
X41025313Y-68959998D01*
X43688000Y-69596000D02*
X41661315Y-69596000D01*
X43942000Y-69342000D02*
X44196000Y-69088000D01*
X45974000Y-67310000D02*
X43942000Y-69342000D01*
X43942000Y-69342000D02*
X43688000Y-69596000D01*
X34777639Y-67288047D02*
X34000709Y-68064977D01*
X34000709Y-68064977D02*
X34000709Y-68824979D01*
X34544000Y-44732000D02*
X34826000Y-44450000D01*
X34544000Y-45212000D02*
X34544000Y-44732000D01*
D31*
X26579950Y-46064050D02*
X27432000Y-45212000D01*
X26111200Y-46064050D02*
X26579950Y-46064050D01*
X34346000Y-42446000D02*
X34826000Y-42926000D01*
X33782000Y-42446000D02*
X34346000Y-42446000D01*
X34826000Y-42616000D02*
X35278000Y-42164000D01*
X34826000Y-42926000D02*
X34826000Y-42616000D01*
X35278000Y-42164000D02*
X35814000Y-42164000D01*
X35814000Y-42164000D02*
X36322000Y-41656000D01*
D29*
X40752350Y-48681010D02*
X39818200Y-48681010D01*
X41891282Y-49819942D02*
X40752350Y-48681010D01*
X39782252Y-46345132D02*
X39782252Y-46434126D01*
X38372718Y-44180058D02*
X38971732Y-44779072D01*
X39276323Y-44779072D02*
X40032392Y-44023003D01*
X38971732Y-44779072D02*
X39276323Y-44779072D01*
X40032392Y-44023003D02*
X40458188Y-44448799D01*
X40458188Y-44448799D02*
X40458188Y-45669196D01*
X40458188Y-45669196D02*
X39782252Y-46345132D01*
D30*
X42926000Y-38100000D02*
X42926000Y-37338000D01*
X42842000Y-37254000D02*
X41490000Y-37254000D01*
X42926000Y-37338000D02*
X42842000Y-37254000D01*
X39648000Y-39596000D02*
X39790000Y-39454000D01*
X38100000Y-39596000D02*
X39648000Y-39596000D01*
X39790000Y-38954000D02*
X41490000Y-37254000D01*
X39790000Y-39454000D02*
X39790000Y-38954000D01*
D29*
X42757411Y-60791411D02*
X42762802Y-60786020D01*
X42762802Y-60786020D02*
X42762802Y-59898760D01*
X42694709Y-59830667D02*
X42694709Y-58905291D01*
X42694709Y-58905291D02*
X42926000Y-58674000D01*
X42762802Y-59898760D02*
X42694709Y-59830667D01*
D30*
X27356000Y-60910000D02*
X28398000Y-60910000D01*
D29*
X31696018Y-68021200D02*
X31696018Y-68019365D01*
D30*
X31740627Y-67976591D02*
X31696018Y-68021200D01*
X35247104Y-66818582D02*
X38591418Y-66818582D01*
X34777639Y-67288047D02*
X35247104Y-66818582D01*
X38591418Y-66818582D02*
X39370000Y-66040000D01*
X30306332Y-70154326D02*
X29631001Y-69478995D01*
X30843021Y-70200011D02*
X30797336Y-70154326D01*
X37180010Y-70200010D02*
X30843021Y-70200011D01*
X29631001Y-69478995D02*
X29631001Y-68885001D01*
X38558589Y-70606826D02*
X37586826Y-70606826D01*
X39615047Y-70370264D02*
X38795151Y-70370264D01*
X38795151Y-70370264D02*
X38558589Y-70606826D01*
X41025313Y-68959998D02*
X39615047Y-70370264D01*
X29631001Y-68885001D02*
X28056000Y-67310000D01*
X30797336Y-70154326D02*
X30306332Y-70154326D01*
X37586826Y-70606826D02*
X37180010Y-70200010D01*
X31696018Y-66685282D02*
X31750000Y-66631300D01*
X31696018Y-68021200D02*
X31696018Y-66685282D01*
X31633561Y-66631300D02*
X31296261Y-66294000D01*
X31750000Y-66631300D02*
X31633561Y-66631300D01*
X27356000Y-60910000D02*
X29306000Y-60910000D01*
X29306000Y-60910000D02*
X29780987Y-61384987D01*
X29780987Y-61384987D02*
X29780987Y-63143798D01*
X30123530Y-66021698D02*
X30339012Y-66237180D01*
X30339012Y-68520738D02*
X30947587Y-69129313D01*
X30123530Y-63486341D02*
X30123530Y-66021698D01*
X29780987Y-63143798D02*
X30123530Y-63486341D01*
X31496000Y-66294000D02*
X31750000Y-66548000D01*
X31296261Y-66294000D02*
X31496000Y-66294000D01*
X30452024Y-66548000D02*
X30339012Y-66661012D01*
X31750000Y-66548000D02*
X30452024Y-66548000D01*
X30339012Y-66661012D02*
X30339012Y-68520738D01*
X30339012Y-66237180D02*
X30339012Y-66661012D01*
D29*
%TO.N,+3V3*%
X32374840Y-67342378D02*
X32526312Y-67190906D01*
X32526312Y-67190906D02*
X32526312Y-66145261D01*
X32526312Y-66145261D02*
X33080583Y-65590990D01*
D31*
X30347920Y-30959920D02*
X29972000Y-30584000D01*
X30347920Y-32420560D02*
X30347920Y-30959920D01*
X29972000Y-38326000D02*
X30508000Y-38862000D01*
X29972000Y-36884000D02*
X29972000Y-38326000D01*
X29436000Y-38862000D02*
X29972000Y-38326000D01*
X29972000Y-36884000D02*
X29972000Y-36743640D01*
X29972000Y-36743640D02*
X31790640Y-34925000D01*
D29*
X42586589Y-51222356D02*
X41537728Y-50173495D01*
X42586589Y-51393411D02*
X42586589Y-51222356D01*
D31*
X47562000Y-50518000D02*
X45720000Y-50518000D01*
X48000000Y-50080000D02*
X47562000Y-50518000D01*
D29*
X40913539Y-61277639D02*
X42078589Y-60112589D01*
X40788047Y-61277639D02*
X40913539Y-61277639D01*
X40335386Y-58807792D02*
X40554589Y-58588589D01*
X40335386Y-59467558D02*
X40335386Y-58807792D01*
X39656676Y-60146268D02*
X40335386Y-59467558D01*
X38334201Y-61468743D02*
X37083257Y-61468743D01*
X37083257Y-61468743D02*
X36576000Y-61976000D01*
X31826408Y-42113200D02*
X31787188Y-42073980D01*
X38852472Y-60950472D02*
X38334201Y-61468743D01*
X39656676Y-60146268D02*
X38852472Y-60950472D01*
X40788047Y-61277639D02*
X40268583Y-61797103D01*
X39699103Y-61797103D02*
X38852472Y-60950472D01*
X40268583Y-61797103D02*
X39699103Y-61797103D01*
X36930272Y-45594272D02*
X35786000Y-44450000D01*
X36958505Y-45594272D02*
X36930272Y-45594272D01*
X35786000Y-44450000D02*
X35786000Y-44221448D01*
X35786000Y-44221448D02*
X36097419Y-43910029D01*
D30*
X38098000Y-40640000D02*
X37592000Y-41146000D01*
X38354000Y-40640000D02*
X38098000Y-40640000D01*
D31*
X42168823Y-51393411D02*
X40897244Y-52664990D01*
X42586589Y-51393411D02*
X42168823Y-51393411D01*
X42759146Y-51565968D02*
X42586589Y-51393411D01*
X43774266Y-51565968D02*
X42759146Y-51565968D01*
X44822234Y-50518000D02*
X43774266Y-51565968D01*
X45720000Y-50518000D02*
X44822234Y-50518000D01*
X36755463Y-52664990D02*
X36561474Y-52471001D01*
X40897244Y-52664990D02*
X36755463Y-52664990D01*
X45024000Y-74309000D02*
X44958000Y-74375000D01*
X45024000Y-71866000D02*
X45024000Y-74309000D01*
X37543000Y-74424000D02*
X37592000Y-74375000D01*
X37641000Y-74424000D02*
X37592000Y-74375000D01*
X29718000Y-73333509D02*
X29718000Y-74375000D01*
X28250491Y-71866000D02*
X29718000Y-73333509D01*
X28006000Y-71866000D02*
X28250491Y-71866000D01*
X34437001Y-52471001D02*
X33020000Y-51054000D01*
X36561474Y-52471001D02*
X34437001Y-52471001D01*
X38608000Y-74424000D02*
X36322000Y-74424000D01*
D30*
X32258000Y-58926000D02*
X32258000Y-58420000D01*
X33020000Y-57658000D02*
X36576000Y-57658000D01*
X32258000Y-58420000D02*
X33020000Y-57658000D01*
X31115208Y-41402000D02*
X31787188Y-42073980D01*
X30736000Y-41402000D02*
X31115208Y-41402000D01*
X48264000Y-41910000D02*
X48260000Y-41910000D01*
X48260000Y-41910000D02*
X45974000Y-44196000D01*
X45974000Y-44196000D02*
X45974000Y-48260000D01*
X47794000Y-50080000D02*
X48000000Y-50080000D01*
X45974000Y-48260000D02*
X47794000Y-50080000D01*
X42588990Y-68794010D02*
X41859168Y-68794010D01*
X43184000Y-68199000D02*
X42588990Y-68794010D01*
X41859168Y-68794010D02*
X41224156Y-68158998D01*
X41224156Y-68158998D02*
X40871704Y-68158998D01*
X40871704Y-68158998D02*
X39010449Y-70020253D01*
D29*
X37333311Y-65359320D02*
X37450393Y-65242238D01*
X35160680Y-65359320D02*
X37333311Y-65359320D01*
X33080583Y-65590990D02*
X33600047Y-65071526D01*
X33600047Y-65071526D02*
X34872886Y-65071526D01*
X34872886Y-65071526D02*
X35160680Y-65359320D01*
D30*
X38323016Y-70020253D02*
X38234587Y-69931824D01*
X39010449Y-70020253D02*
X38323016Y-70020253D01*
D31*
%TO.N,VBUS*%
X34010000Y-36884000D02*
X34290000Y-36604000D01*
X32272000Y-36884000D02*
X34010000Y-36884000D01*
X34798000Y-36096000D02*
X34290000Y-36604000D01*
X34798000Y-34744500D02*
X34798000Y-36096000D01*
X34119980Y-34066480D02*
X34798000Y-34744500D01*
X33401000Y-34066480D02*
X34119980Y-34066480D01*
D30*
X32004000Y-40386000D02*
X30736000Y-40386000D01*
X32933002Y-39456998D02*
X32004000Y-40386000D01*
X32933002Y-37545002D02*
X32933002Y-39456998D01*
X32272000Y-36884000D02*
X32933002Y-37545002D01*
D29*
%TO.N,Host_USB_D-*%
X40386000Y-34544000D02*
X40386000Y-33558945D01*
X40386000Y-33558945D02*
X40519218Y-33425727D01*
X38019165Y-44533612D02*
X38824484Y-45338931D01*
X39316845Y-45338931D02*
X39458683Y-45480769D01*
X38824484Y-45338931D02*
X39316845Y-45338931D01*
%TO.N,Host_USB_D+*%
X39654480Y-32737520D02*
X40388000Y-32004000D01*
X39654480Y-32923480D02*
X39654480Y-32737520D01*
X37665612Y-44887165D02*
X38800490Y-46022043D01*
X38800490Y-46022043D02*
X38800490Y-46243950D01*
D30*
%TO.N,Net-(C6-Pad1)*%
X44246000Y-54130000D02*
X43942000Y-54434000D01*
X45466000Y-54130000D02*
X44246000Y-54130000D01*
X39560455Y-59111118D02*
X39560455Y-58500541D01*
X39560455Y-58500541D02*
X41051995Y-57009001D01*
X41051995Y-57009001D02*
X42662001Y-57009001D01*
X39090990Y-59580583D02*
X39560455Y-59111118D01*
X42662001Y-57009001D02*
X42966999Y-56704003D01*
X42966999Y-56704003D02*
X42966999Y-55409001D01*
X42966999Y-55409001D02*
X43942000Y-54434000D01*
X43942000Y-53340000D02*
X44196000Y-53086000D01*
X43942000Y-54434000D02*
X43942000Y-53340000D01*
D29*
%TO.N,FTDI_DTR*%
X44129960Y-66096000D02*
X44661458Y-66096000D01*
X44661458Y-66096000D02*
X45899763Y-64857695D01*
X45899763Y-64857695D02*
X45899763Y-64466459D01*
D30*
%TO.N,Net-(C7-Pad1)*%
X42966999Y-54909001D02*
X41742000Y-56134000D01*
X42966999Y-53295001D02*
X42966999Y-54909001D01*
X43176000Y-53086000D02*
X42966999Y-53295001D01*
X41176000Y-56134000D02*
X40132000Y-55090000D01*
X41742000Y-56134000D02*
X41176000Y-56134000D01*
X41406202Y-56134000D02*
X38525305Y-59014897D01*
X41742000Y-56134000D02*
X41406202Y-56134000D01*
%TO.N,Net-(C10-Pad1)*%
X38105161Y-47503161D02*
X38608000Y-48006000D01*
X38608000Y-48006000D02*
X41148000Y-48006000D01*
X41148000Y-48006000D02*
X41656000Y-47498000D01*
X40640000Y-36404000D02*
X39790000Y-37254000D01*
X40640000Y-35814000D02*
X40640000Y-36404000D01*
X37153965Y-47503161D02*
X36604951Y-48052175D01*
X38105161Y-47503161D02*
X37153965Y-47503161D01*
X38408000Y-38636000D02*
X39790000Y-37254000D01*
X38100000Y-38636000D02*
X38408000Y-38636000D01*
%TO.N,Net-(C11-Pad1)*%
X38800021Y-47208041D02*
X40150773Y-47208041D01*
X41490000Y-40719010D02*
X41315010Y-40894000D01*
X40150773Y-47208041D02*
X41315010Y-46043804D01*
X41490000Y-39454000D02*
X41490000Y-40719010D01*
X38389958Y-46797978D02*
X38800021Y-47208041D01*
X37455104Y-46797978D02*
X38389958Y-46797978D01*
X36604951Y-45947825D02*
X37455104Y-46797978D01*
X41884000Y-39060000D02*
X41490000Y-39454000D01*
X42926000Y-39060000D02*
X41884000Y-39060000D01*
%TO.N,Net-(C12-Pad1)*%
X36763045Y-44691705D02*
X36763045Y-44262955D01*
X37312058Y-45240718D02*
X36763045Y-44691705D01*
X36763045Y-44262955D02*
X37084000Y-43942000D01*
X37084000Y-43942000D02*
X37084000Y-43688000D01*
X36322000Y-42926000D02*
X35786000Y-42926000D01*
X37084000Y-43688000D02*
X36322000Y-42926000D01*
%TO.N,MAX3421_INT*%
X37592000Y-42692233D02*
X37592000Y-42166000D01*
X38726272Y-43826505D02*
X37592000Y-42692233D01*
X34211953Y-61277639D02*
X34828938Y-61894624D01*
X34828938Y-61894624D02*
X35579305Y-61894624D01*
X37592000Y-42166000D02*
X37149609Y-42608391D01*
X37149609Y-42608391D02*
X37149609Y-42799000D01*
X37592000Y-54864000D02*
X35569046Y-54864000D01*
X35569046Y-54864000D02*
X35569021Y-54864025D01*
%TO.N,MAX3421_GPX*%
X39079825Y-42381362D02*
X39079825Y-43472951D01*
X38519658Y-41821195D02*
X39079825Y-42381362D01*
X36382095Y-61181418D02*
X37376010Y-60187503D01*
X35247104Y-61181418D02*
X36382095Y-61181418D01*
X34777639Y-60711953D02*
X35247104Y-61181418D01*
%TO.N,MAX3421_SS*%
X42784716Y-43286624D02*
X43581376Y-43286624D01*
X41891282Y-44180058D02*
X42784716Y-43286624D01*
%TO.N,ADB_DATA_LV*%
X40386000Y-73914000D02*
X42926000Y-73914000D01*
X44348999Y-73238593D02*
X44348999Y-70967001D01*
X43673592Y-73914000D02*
X44348999Y-73238593D01*
X42926000Y-73914000D02*
X43673592Y-73914000D01*
X44704000Y-70612000D02*
X44958000Y-70612000D01*
X44348999Y-70967001D02*
X44704000Y-70612000D01*
X39118000Y-73914000D02*
X38608000Y-73404000D01*
X40386000Y-73914000D02*
X39118000Y-73914000D01*
X42485103Y-62974695D02*
X44067080Y-62974695D01*
X44067080Y-62974695D02*
X45024022Y-62017753D01*
%TO.N,ADB_PWR_ON_LV*%
X32004000Y-73914000D02*
X34544000Y-73914000D01*
X35812000Y-73914000D02*
X36322000Y-73404000D01*
X35420980Y-73774980D02*
X35560000Y-73914000D01*
X35327096Y-73774980D02*
X35420980Y-73774980D01*
X35560000Y-73914000D02*
X35812000Y-73914000D01*
X34544000Y-73914000D02*
X35560000Y-73914000D01*
X42015638Y-64555840D02*
X40113081Y-64555840D01*
X42485103Y-65025305D02*
X42015638Y-64555840D01*
X39303923Y-65364998D02*
X39045998Y-65364998D01*
X40113081Y-64555840D02*
X39303923Y-65364998D01*
X38326666Y-66084330D02*
X35555525Y-66084330D01*
X39045998Y-65364998D02*
X38326666Y-66084330D01*
D29*
%TO.N,FTDI_TXO*%
X43108811Y-66126294D02*
X44265301Y-64969804D01*
X42454721Y-66126294D02*
X43108811Y-66126294D01*
X44265301Y-64969804D02*
X44574011Y-64969804D01*
X41919417Y-65590990D02*
X42454721Y-66126294D01*
%TO.N,FTDI_RXI*%
X41353732Y-66156676D02*
X42048351Y-66851295D01*
X42048351Y-66851295D02*
X42819184Y-66851295D01*
D30*
%TO.N,Net-(C2-Pad1)*%
X34211953Y-66890207D02*
X34211953Y-66722361D01*
X33064771Y-68037389D02*
X34211953Y-66890207D01*
D31*
%TO.N,Net-(F1-Pad1)*%
X35848010Y-35594010D02*
X37338000Y-37084000D01*
X35848010Y-33869510D02*
X35848010Y-35594010D01*
X34798000Y-32819500D02*
X35848010Y-33869510D01*
D29*
%TO.N,Net-(J3-Pad3)*%
X37918000Y-32004000D02*
X37338000Y-32584000D01*
X39368000Y-32004000D02*
X37918000Y-32004000D01*
%TO.N,Net-(J3-Pad2)*%
X37378000Y-34544000D02*
X37338000Y-34584000D01*
X39366000Y-34544000D02*
X37378000Y-34544000D01*
D30*
%TO.N,/RESET*%
X44267158Y-67056000D02*
X44129960Y-67056000D01*
X46299158Y-65024000D02*
X44267158Y-67056000D01*
X47244000Y-65024000D02*
X46299158Y-65024000D01*
X41341990Y-53146011D02*
X35245989Y-53146011D01*
X42418000Y-52070001D02*
X41341990Y-53146011D01*
X42655745Y-52070001D02*
X42418000Y-52070001D01*
X42684767Y-52040979D02*
X42655745Y-52070001D01*
X45787001Y-51494999D02*
X45241021Y-52040979D01*
X48954999Y-51494999D02*
X45787001Y-51494999D01*
X45241021Y-52040979D02*
X42684767Y-52040979D01*
X49276000Y-51816000D02*
X48954999Y-51494999D01*
X49375000Y-51816000D02*
X49276000Y-51816000D01*
X33782000Y-54864000D02*
X33782000Y-54610000D01*
X35245989Y-53146011D02*
X34036000Y-54356000D01*
X34036000Y-54610000D02*
X33782000Y-54864000D01*
X34036000Y-54356000D02*
X34036000Y-54610000D01*
X42759010Y-67603990D02*
X42164000Y-68199000D01*
X43861970Y-67603990D02*
X42759010Y-67603990D01*
X44129960Y-67336000D02*
X43861970Y-67603990D01*
X44129960Y-67056000D02*
X44129960Y-67336000D01*
X40788047Y-66823047D02*
X42164000Y-68199000D01*
X40788047Y-66722361D02*
X40788047Y-66823047D01*
%TO.N,Net-(D1-Pad2)*%
X29716000Y-41402000D02*
X29210000Y-41402000D01*
X26111200Y-47939050D02*
X28194000Y-45856250D01*
X28194000Y-45856250D02*
X28194000Y-42418000D01*
X28194000Y-42418000D02*
X29210000Y-41402000D01*
%TO.N,Net-(D2-Pad2)*%
X26111200Y-43720800D02*
X26111200Y-44117500D01*
X29446000Y-40386000D02*
X26111200Y-43720800D01*
X29716000Y-40386000D02*
X29446000Y-40386000D01*
%TO.N,Net-(D3-Pad2)*%
X27105602Y-51760600D02*
X26111200Y-51760600D01*
X28107001Y-52761999D02*
X27105602Y-51760600D01*
X28107001Y-53253001D02*
X28107001Y-52761999D01*
X29862999Y-55008999D02*
X28107001Y-53253001D01*
X31020001Y-55008999D02*
X29862999Y-55008999D01*
X31605001Y-58562999D02*
X31605001Y-55593999D01*
X31605001Y-55593999D02*
X31020001Y-55008999D01*
X31242000Y-58926000D02*
X31605001Y-58562999D01*
%TO.N,DEBUG_LED*%
X31242000Y-59946000D02*
X29974000Y-59946000D01*
X29974000Y-59946000D02*
X29718000Y-59690000D01*
X34828438Y-69499989D02*
X32272814Y-69499989D01*
X31536693Y-68646779D02*
X31014013Y-68124099D01*
X32272814Y-69499989D02*
X31536693Y-68763868D01*
X35909010Y-68419417D02*
X34828438Y-69499989D01*
X31536693Y-68763868D02*
X31536693Y-68646779D01*
X31014013Y-67310039D02*
X31014052Y-67310000D01*
X31014013Y-68124099D02*
X31014013Y-67310039D01*
%TO.N,ATMEGA_SS*%
X34453946Y-62651002D02*
X36858684Y-62651002D01*
X33646268Y-61843324D02*
X34453946Y-62651002D01*
X36858684Y-62651002D02*
X37640932Y-61868754D01*
X37640932Y-61868754D02*
X38707735Y-61868754D01*
X38707735Y-61868754D02*
X39073998Y-62235017D01*
X44882152Y-41985848D02*
X44882152Y-41763006D01*
X44302624Y-42565376D02*
X44882152Y-41985848D01*
%TO.N,ATMEGA_SPI_MOSI*%
X37451335Y-63014180D02*
X37743876Y-62721639D01*
X33685753Y-63014180D02*
X37451335Y-63014180D01*
X33080583Y-62409010D02*
X33685753Y-63014180D01*
X33080583Y-62409010D02*
X32094656Y-61423083D01*
X32094656Y-61423083D02*
X31418031Y-61423083D01*
X42778624Y-41041376D02*
X43433413Y-40386587D01*
X43433413Y-40386587D02*
X43433413Y-40385408D01*
%TO.N,ATMEGA_SPI_MISO*%
X32514897Y-62974695D02*
X32984362Y-63444160D01*
X36774160Y-63444160D02*
X36786763Y-63444160D01*
X32984362Y-63444160D02*
X36774160Y-63444160D01*
X43540624Y-41803376D02*
X44137485Y-41206515D01*
X44137485Y-41206515D02*
X44137485Y-41095553D01*
X32514897Y-62974695D02*
X30566482Y-62974695D01*
X30566482Y-62974695D02*
X30455989Y-62864202D01*
X38407862Y-63444160D02*
X38607953Y-63244069D01*
X36774160Y-63444160D02*
X38407862Y-63444160D01*
%TO.N,ATMEGA_SPI_SCLK*%
X45298990Y-43093010D02*
X45298990Y-42672000D01*
X45064624Y-43327376D02*
X45298990Y-43093010D01*
X34922900Y-64555840D02*
X35326369Y-64959309D01*
X38847157Y-64567237D02*
X38973782Y-64693862D01*
X32984362Y-64555840D02*
X34922900Y-64555840D01*
X35326369Y-64959309D02*
X36732089Y-64959309D01*
X32514897Y-65025305D02*
X32984362Y-64555840D01*
X36732089Y-64959309D02*
X37124161Y-64567237D01*
X37124161Y-64567237D02*
X38847157Y-64567237D01*
X32514897Y-65025305D02*
X31558690Y-65025305D01*
X31558690Y-65025305D02*
X30820202Y-65763793D01*
%TO.N,MAX3421_SPI_MOSI*%
X41184175Y-42635825D02*
X42057376Y-41762624D01*
X41184175Y-43472951D02*
X41184175Y-42635825D01*
%TO.N,MAX3421_SPI_MISO*%
X41537728Y-43806272D02*
X42819376Y-42524624D01*
X41537728Y-43826505D02*
X41537728Y-43806272D01*
%TO.N,MAX3421_SPI_SCLK*%
X42793849Y-43984598D02*
X44279350Y-43984598D01*
X44279350Y-43984598D02*
X44343376Y-44048624D01*
X42244835Y-44533612D02*
X42793849Y-43984598D01*
%TO.N,MAX3421_RESET*%
X35343324Y-60146268D02*
X35343324Y-60004602D01*
X35343324Y-60004602D02*
X33770361Y-58431639D01*
X41990012Y-46367806D02*
X41639012Y-46718806D01*
X35148011Y-47147989D02*
X34544000Y-47752000D01*
X40306986Y-47594010D02*
X38691000Y-47594010D01*
X41639012Y-46718806D02*
X41182190Y-46718806D01*
X38691000Y-47594010D02*
X38244979Y-47147989D01*
X41182190Y-46718806D02*
X40306986Y-47594010D01*
X41990012Y-45495541D02*
X41990012Y-46367806D01*
X42598388Y-44887165D02*
X41990012Y-45495541D01*
X38244979Y-47147989D02*
X35148011Y-47147989D01*
%TO.N,Net-(JP1-Pad2)*%
X41291998Y-72614000D02*
X41575998Y-72898000D01*
X40386000Y-72614000D02*
X41291998Y-72614000D01*
X46940000Y-71882000D02*
X46924000Y-71866000D01*
X48006000Y-71882000D02*
X46940000Y-71882000D01*
%TO.N,Net-(JP2-Pad2)*%
X43998989Y-72441011D02*
X43998989Y-70572007D01*
X42926000Y-72614000D02*
X43826000Y-72614000D01*
X43826000Y-72614000D02*
X43998989Y-72441011D01*
X43998989Y-70572007D02*
X44704996Y-69866000D01*
X44704996Y-69866000D02*
X45974000Y-69866000D01*
%TO.N,Net-(JP3-Pad2)*%
X32200000Y-73000000D02*
X32259600Y-73000000D01*
X30654000Y-72614000D02*
X32004000Y-72614000D01*
X29906000Y-71866000D02*
X30654000Y-72614000D01*
%TO.N,Net-(JP4-Pad2)*%
X33638002Y-72614000D02*
X33354002Y-72898000D01*
X34544000Y-72614000D02*
X33638002Y-72614000D01*
X28940000Y-69850000D02*
X28956000Y-69866000D01*
X27940000Y-69850000D02*
X28940000Y-69850000D01*
%TO.N,OPTION_SELECT*%
X47244000Y-41148000D02*
X47244000Y-41910000D01*
X45212000Y-39116000D02*
X47244000Y-41148000D01*
X41924716Y-62409010D02*
X41919417Y-62409010D01*
X43584065Y-60749661D02*
X41924716Y-62409010D01*
X43584065Y-59332969D02*
X43584065Y-60749661D01*
%TO.N,Net-(D4-Pad2)*%
X26322900Y-55372000D02*
X26111200Y-55583700D01*
X27686000Y-55372000D02*
X26322900Y-55372000D01*
X29464000Y-63752000D02*
X29464000Y-63692610D01*
X29464000Y-63692610D02*
X28732695Y-62961305D01*
%TO.N,USB_STAT_LED*%
X30955325Y-69804315D02*
X30451311Y-69804315D01*
X31001008Y-69849998D02*
X30955325Y-69804315D01*
X35609800Y-69849998D02*
X31001008Y-69849998D01*
X30451311Y-69804315D02*
X29989001Y-69342005D01*
X29989001Y-69342005D02*
X29989001Y-66382159D01*
X36474695Y-68985103D02*
X35609800Y-69849998D01*
X29989001Y-66382159D02*
X29464000Y-65857158D01*
X29464000Y-65857158D02*
X29464000Y-64772000D01*
%TD*%
D32*
%TO.N,GND*%
X47701000Y-73583000D02*
X47721000Y-73583000D01*
X47721000Y-73837000D01*
X47701000Y-73837000D01*
X47701000Y-73857000D01*
X47447000Y-73857000D01*
X47447000Y-73837000D01*
X47427000Y-73837000D01*
X47427000Y-73583000D01*
X47447000Y-73583000D01*
X47447000Y-73563000D01*
X47701000Y-73563000D01*
X47701000Y-73583000D01*
%TA.AperFunction,Conductor*%
D33*
G36*
X47701000Y-73583000D02*
G01*
X47721000Y-73583000D01*
X47721000Y-73837000D01*
X47701000Y-73837000D01*
X47701000Y-73857000D01*
X47447000Y-73857000D01*
X47447000Y-73837000D01*
X47427000Y-73837000D01*
X47427000Y-73583000D01*
X47447000Y-73583000D01*
X47447000Y-73563000D01*
X47701000Y-73563000D01*
X47701000Y-73583000D01*
G37*
%TD.AperFunction*%
D32*
X27483000Y-73583000D02*
X27503000Y-73583000D01*
X27503000Y-73837000D01*
X27483000Y-73837000D01*
X27483000Y-73857000D01*
X27229000Y-73857000D01*
X27229000Y-73837000D01*
X27209000Y-73837000D01*
X27209000Y-73583000D01*
X27229000Y-73583000D01*
X27229000Y-73563000D01*
X27483000Y-73563000D01*
X27483000Y-73583000D01*
%TA.AperFunction,Conductor*%
D33*
G36*
X27483000Y-73583000D02*
G01*
X27503000Y-73583000D01*
X27503000Y-73837000D01*
X27483000Y-73837000D01*
X27483000Y-73857000D01*
X27229000Y-73857000D01*
X27229000Y-73837000D01*
X27209000Y-73837000D01*
X27209000Y-73583000D01*
X27229000Y-73583000D01*
X27229000Y-73563000D01*
X27483000Y-73563000D01*
X27483000Y-73583000D01*
G37*
%TD.AperFunction*%
D32*
X46515000Y-52473740D02*
X46515000Y-52766260D01*
X46572068Y-53053158D01*
X46684010Y-53323411D01*
X46846525Y-53566632D01*
X47053368Y-53773475D01*
X47227760Y-53890000D01*
X47053368Y-54006525D01*
X46846525Y-54213368D01*
X46684010Y-54456589D01*
X46572068Y-54726842D01*
X46515000Y-55013740D01*
X46515000Y-55306260D01*
X46572068Y-55593158D01*
X46684010Y-55863411D01*
X46846525Y-56106632D01*
X47053368Y-56313475D01*
X47227760Y-56430000D01*
X47053368Y-56546525D01*
X46846525Y-56753368D01*
X46684010Y-56996589D01*
X46572068Y-57266842D01*
X46515000Y-57553740D01*
X46515000Y-57846260D01*
X46572068Y-58133158D01*
X46684010Y-58403411D01*
X46846525Y-58646632D01*
X47053368Y-58853475D01*
X47296589Y-59015990D01*
X47566842Y-59127932D01*
X47853740Y-59185000D01*
X48146260Y-59185000D01*
X48433158Y-59127932D01*
X48703411Y-59015990D01*
X48946632Y-58853475D01*
X49153475Y-58646632D01*
X49315990Y-58403411D01*
X49340001Y-58345444D01*
X49340001Y-59644582D01*
X49178751Y-59540446D01*
X48898023Y-59429271D01*
X48601000Y-59375000D01*
X47701000Y-59375000D01*
X47701000Y-60783000D01*
X47721000Y-60783000D01*
X47721000Y-61037000D01*
X47701000Y-61037000D01*
X47701000Y-62445000D01*
X48601000Y-62445000D01*
X48898023Y-62390729D01*
X49178751Y-62279554D01*
X49340001Y-62175418D01*
X49340001Y-72444583D01*
X49178751Y-72340446D01*
X48970537Y-72257988D01*
X49001226Y-72183898D01*
X49041000Y-71983939D01*
X49041000Y-71780061D01*
X49001226Y-71580102D01*
X48923205Y-71391744D01*
X48809937Y-71222226D01*
X48665774Y-71078063D01*
X48496256Y-70964795D01*
X48307898Y-70886774D01*
X48107939Y-70847000D01*
X47904061Y-70847000D01*
X47704102Y-70886774D01*
X47688145Y-70893384D01*
X47678494Y-70885463D01*
X47568180Y-70826498D01*
X47448482Y-70790188D01*
X47324000Y-70777928D01*
X46812095Y-70777928D01*
X46825185Y-70767185D01*
X46904537Y-70670494D01*
X46963502Y-70560180D01*
X46999812Y-70440482D01*
X47012072Y-70316000D01*
X47012072Y-69602178D01*
X47359328Y-69562400D01*
X47789424Y-69424438D01*
X48123509Y-69245867D01*
X48298525Y-68914130D01*
X46874000Y-67489605D01*
X46859858Y-67503748D01*
X46680253Y-67324143D01*
X46694395Y-67310000D01*
X47053605Y-67310000D01*
X48478130Y-68734525D01*
X48809867Y-68559509D01*
X49016437Y-68157832D01*
X49140674Y-67723572D01*
X49177804Y-67273419D01*
X49126400Y-66824672D01*
X48988438Y-66394576D01*
X48809867Y-66060491D01*
X48478130Y-65885475D01*
X47053605Y-67310000D01*
X46694395Y-67310000D01*
X46680253Y-67295858D01*
X46859858Y-67116253D01*
X46874000Y-67130395D01*
X48298525Y-65705870D01*
X48177139Y-65475787D01*
X48239226Y-65325898D01*
X48279000Y-65125939D01*
X48279000Y-64922061D01*
X48239226Y-64722102D01*
X48161205Y-64533744D01*
X48047937Y-64364226D01*
X47903774Y-64220063D01*
X47734256Y-64106795D01*
X47545898Y-64028774D01*
X47345939Y-63989000D01*
X47142061Y-63989000D01*
X46942102Y-64028774D01*
X46853880Y-64065317D01*
X46816968Y-63976203D01*
X46703700Y-63806685D01*
X46559537Y-63662522D01*
X46390019Y-63549254D01*
X46201661Y-63471233D01*
X46001702Y-63431459D01*
X45797824Y-63431459D01*
X45597865Y-63471233D01*
X45409507Y-63549254D01*
X45239989Y-63662522D01*
X45095826Y-63806685D01*
X44982558Y-63976203D01*
X44967514Y-64012522D01*
X44875909Y-63974578D01*
X44675950Y-63934804D01*
X44472072Y-63934804D01*
X44272113Y-63974578D01*
X44083755Y-64052599D01*
X43914237Y-64165867D01*
X43770074Y-64310030D01*
X43656806Y-64479548D01*
X43639871Y-64520432D01*
X43455690Y-64704613D01*
X42751077Y-64000000D01*
X43066382Y-63684695D01*
X44032205Y-63684695D01*
X44067080Y-63688130D01*
X44101955Y-63684695D01*
X44101957Y-63684695D01*
X44206264Y-63674422D01*
X44340100Y-63633823D01*
X44463443Y-63567895D01*
X44571555Y-63479170D01*
X44593792Y-63452074D01*
X44993113Y-63052753D01*
X45125961Y-63052753D01*
X45325920Y-63012979D01*
X45514278Y-62934958D01*
X45683796Y-62821690D01*
X45827959Y-62677527D01*
X45941227Y-62508009D01*
X46019248Y-62319651D01*
X46022990Y-62300837D01*
X46249977Y-62390729D01*
X46547000Y-62445000D01*
X47447000Y-62445000D01*
X47447000Y-61037000D01*
X45360861Y-61037000D01*
X45325920Y-61022527D01*
X45125961Y-60982753D01*
X44922083Y-60982753D01*
X44722124Y-61022527D01*
X44533766Y-61100548D01*
X44364248Y-61213816D01*
X44220085Y-61357979D01*
X44106817Y-61527497D01*
X44028796Y-61715855D01*
X43989022Y-61915814D01*
X43989022Y-62048662D01*
X43780285Y-62257399D01*
X43775780Y-62248970D01*
X43696428Y-62152279D01*
X43440983Y-61896834D01*
X44061444Y-61276373D01*
X44088540Y-61254136D01*
X44177265Y-61146024D01*
X44243193Y-61022681D01*
X44283792Y-60888845D01*
X44294065Y-60784538D01*
X44294065Y-60784536D01*
X44297500Y-60749661D01*
X44294065Y-60714786D01*
X44294065Y-60545260D01*
X45182964Y-60545260D01*
X45303622Y-60783000D01*
X47447000Y-60783000D01*
X47447000Y-59375000D01*
X46547000Y-59375000D01*
X46249977Y-59429271D01*
X45969249Y-59540446D01*
X45715604Y-59704252D01*
X45498790Y-59914394D01*
X45327138Y-60162796D01*
X45207245Y-60439913D01*
X45182964Y-60545260D01*
X44294065Y-60545260D01*
X44294065Y-60086680D01*
X44388002Y-59992743D01*
X44501270Y-59823225D01*
X44579291Y-59634867D01*
X44619065Y-59434908D01*
X44619065Y-59231030D01*
X44579291Y-59031071D01*
X44501270Y-58842713D01*
X44388002Y-58673195D01*
X44243839Y-58529032D01*
X44074321Y-58415764D01*
X43885963Y-58337743D01*
X43686004Y-58297969D01*
X43482126Y-58297969D01*
X43282167Y-58337743D01*
X43093809Y-58415764D01*
X42924291Y-58529032D01*
X42780128Y-58673195D01*
X42666860Y-58842713D01*
X42588839Y-59031071D01*
X42549065Y-59231030D01*
X42549065Y-59260386D01*
X42532076Y-59246443D01*
X42397557Y-59174541D01*
X42278273Y-59138356D01*
X42276980Y-59124585D01*
X42241218Y-59004722D01*
X42182761Y-58894139D01*
X42103683Y-58801251D01*
X41879176Y-58801251D01*
X41413016Y-59267411D01*
X41427159Y-59281554D01*
X41247554Y-59461159D01*
X41233411Y-59447016D01*
X41219269Y-59461159D01*
X41099819Y-59341709D01*
X41323972Y-59117556D01*
X41420735Y-58999650D01*
X41492637Y-58865131D01*
X41508553Y-58812664D01*
X41699571Y-58621646D01*
X41699571Y-58397139D01*
X41606683Y-58318061D01*
X41496100Y-58259604D01*
X41485610Y-58256474D01*
X41420735Y-58135102D01*
X41323972Y-58017196D01*
X41185932Y-57879156D01*
X41346087Y-57719001D01*
X42627126Y-57719001D01*
X42662001Y-57722436D01*
X42696876Y-57719001D01*
X42696878Y-57719001D01*
X42801185Y-57708728D01*
X42935021Y-57668129D01*
X43058364Y-57602201D01*
X43166476Y-57513476D01*
X43188713Y-57486380D01*
X43303477Y-57371616D01*
X43656250Y-57369000D01*
X43815000Y-57210250D01*
X43815000Y-56261000D01*
X44069000Y-56261000D01*
X44069000Y-57210250D01*
X44227750Y-57369000D01*
X44642000Y-57372072D01*
X44766482Y-57359812D01*
X44886180Y-57323502D01*
X44996494Y-57264537D01*
X45093185Y-57185185D01*
X45172537Y-57088494D01*
X45231502Y-56978180D01*
X45267812Y-56858482D01*
X45280072Y-56734000D01*
X45277000Y-56419750D01*
X45118250Y-56261000D01*
X44069000Y-56261000D01*
X43815000Y-56261000D01*
X43795000Y-56261000D01*
X43795000Y-56007000D01*
X43815000Y-56007000D01*
X43815000Y-55987000D01*
X44069000Y-55987000D01*
X44069000Y-56007000D01*
X45118250Y-56007000D01*
X45120767Y-56004483D01*
X45158923Y-56008065D01*
X45180250Y-56005000D01*
X45339000Y-55846250D01*
X45339000Y-55217000D01*
X45593000Y-55217000D01*
X45593000Y-55846250D01*
X45751750Y-56005000D01*
X45773077Y-56008065D01*
X45897613Y-55996375D01*
X46017476Y-55960614D01*
X46128059Y-55902156D01*
X46225113Y-55823247D01*
X46304908Y-55726921D01*
X46364377Y-55616878D01*
X46401235Y-55497348D01*
X46411000Y-55375750D01*
X46252250Y-55217000D01*
X45593000Y-55217000D01*
X45339000Y-55217000D01*
X45319000Y-55217000D01*
X45319000Y-55048072D01*
X45636000Y-55048072D01*
X45787794Y-55033122D01*
X45933755Y-54988845D01*
X45982108Y-54963000D01*
X46252250Y-54963000D01*
X46411000Y-54804250D01*
X46401235Y-54682652D01*
X46364377Y-54563122D01*
X46359172Y-54553491D01*
X46399122Y-54421794D01*
X46414072Y-54270000D01*
X46414072Y-53990000D01*
X46399122Y-53838206D01*
X46354845Y-53692245D01*
X46282943Y-53557726D01*
X46186180Y-53439820D01*
X46068274Y-53343057D01*
X45933755Y-53271155D01*
X45787794Y-53226878D01*
X45636000Y-53211928D01*
X45296000Y-53211928D01*
X45144206Y-53226878D01*
X45104072Y-53239053D01*
X45104072Y-52901000D01*
X45089297Y-52750979D01*
X45206146Y-52750979D01*
X45241021Y-52754414D01*
X45275896Y-52750979D01*
X45275898Y-52750979D01*
X45380205Y-52740706D01*
X45514041Y-52700107D01*
X45637384Y-52634179D01*
X45745496Y-52545454D01*
X45767733Y-52518358D01*
X46081093Y-52204999D01*
X46568456Y-52204999D01*
X46515000Y-52473740D01*
%TA.AperFunction,Conductor*%
D33*
G36*
X46515000Y-52473740D02*
G01*
X46515000Y-52766260D01*
X46572068Y-53053158D01*
X46684010Y-53323411D01*
X46846525Y-53566632D01*
X47053368Y-53773475D01*
X47227760Y-53890000D01*
X47053368Y-54006525D01*
X46846525Y-54213368D01*
X46684010Y-54456589D01*
X46572068Y-54726842D01*
X46515000Y-55013740D01*
X46515000Y-55306260D01*
X46572068Y-55593158D01*
X46684010Y-55863411D01*
X46846525Y-56106632D01*
X47053368Y-56313475D01*
X47227760Y-56430000D01*
X47053368Y-56546525D01*
X46846525Y-56753368D01*
X46684010Y-56996589D01*
X46572068Y-57266842D01*
X46515000Y-57553740D01*
X46515000Y-57846260D01*
X46572068Y-58133158D01*
X46684010Y-58403411D01*
X46846525Y-58646632D01*
X47053368Y-58853475D01*
X47296589Y-59015990D01*
X47566842Y-59127932D01*
X47853740Y-59185000D01*
X48146260Y-59185000D01*
X48433158Y-59127932D01*
X48703411Y-59015990D01*
X48946632Y-58853475D01*
X49153475Y-58646632D01*
X49315990Y-58403411D01*
X49340001Y-58345444D01*
X49340001Y-59644582D01*
X49178751Y-59540446D01*
X48898023Y-59429271D01*
X48601000Y-59375000D01*
X47701000Y-59375000D01*
X47701000Y-60783000D01*
X47721000Y-60783000D01*
X47721000Y-61037000D01*
X47701000Y-61037000D01*
X47701000Y-62445000D01*
X48601000Y-62445000D01*
X48898023Y-62390729D01*
X49178751Y-62279554D01*
X49340001Y-62175418D01*
X49340001Y-72444583D01*
X49178751Y-72340446D01*
X48970537Y-72257988D01*
X49001226Y-72183898D01*
X49041000Y-71983939D01*
X49041000Y-71780061D01*
X49001226Y-71580102D01*
X48923205Y-71391744D01*
X48809937Y-71222226D01*
X48665774Y-71078063D01*
X48496256Y-70964795D01*
X48307898Y-70886774D01*
X48107939Y-70847000D01*
X47904061Y-70847000D01*
X47704102Y-70886774D01*
X47688145Y-70893384D01*
X47678494Y-70885463D01*
X47568180Y-70826498D01*
X47448482Y-70790188D01*
X47324000Y-70777928D01*
X46812095Y-70777928D01*
X46825185Y-70767185D01*
X46904537Y-70670494D01*
X46963502Y-70560180D01*
X46999812Y-70440482D01*
X47012072Y-70316000D01*
X47012072Y-69602178D01*
X47359328Y-69562400D01*
X47789424Y-69424438D01*
X48123509Y-69245867D01*
X48298525Y-68914130D01*
X46874000Y-67489605D01*
X46859858Y-67503748D01*
X46680253Y-67324143D01*
X46694395Y-67310000D01*
X47053605Y-67310000D01*
X48478130Y-68734525D01*
X48809867Y-68559509D01*
X49016437Y-68157832D01*
X49140674Y-67723572D01*
X49177804Y-67273419D01*
X49126400Y-66824672D01*
X48988438Y-66394576D01*
X48809867Y-66060491D01*
X48478130Y-65885475D01*
X47053605Y-67310000D01*
X46694395Y-67310000D01*
X46680253Y-67295858D01*
X46859858Y-67116253D01*
X46874000Y-67130395D01*
X48298525Y-65705870D01*
X48177139Y-65475787D01*
X48239226Y-65325898D01*
X48279000Y-65125939D01*
X48279000Y-64922061D01*
X48239226Y-64722102D01*
X48161205Y-64533744D01*
X48047937Y-64364226D01*
X47903774Y-64220063D01*
X47734256Y-64106795D01*
X47545898Y-64028774D01*
X47345939Y-63989000D01*
X47142061Y-63989000D01*
X46942102Y-64028774D01*
X46853880Y-64065317D01*
X46816968Y-63976203D01*
X46703700Y-63806685D01*
X46559537Y-63662522D01*
X46390019Y-63549254D01*
X46201661Y-63471233D01*
X46001702Y-63431459D01*
X45797824Y-63431459D01*
X45597865Y-63471233D01*
X45409507Y-63549254D01*
X45239989Y-63662522D01*
X45095826Y-63806685D01*
X44982558Y-63976203D01*
X44967514Y-64012522D01*
X44875909Y-63974578D01*
X44675950Y-63934804D01*
X44472072Y-63934804D01*
X44272113Y-63974578D01*
X44083755Y-64052599D01*
X43914237Y-64165867D01*
X43770074Y-64310030D01*
X43656806Y-64479548D01*
X43639871Y-64520432D01*
X43455690Y-64704613D01*
X42751077Y-64000000D01*
X43066382Y-63684695D01*
X44032205Y-63684695D01*
X44067080Y-63688130D01*
X44101955Y-63684695D01*
X44101957Y-63684695D01*
X44206264Y-63674422D01*
X44340100Y-63633823D01*
X44463443Y-63567895D01*
X44571555Y-63479170D01*
X44593792Y-63452074D01*
X44993113Y-63052753D01*
X45125961Y-63052753D01*
X45325920Y-63012979D01*
X45514278Y-62934958D01*
X45683796Y-62821690D01*
X45827959Y-62677527D01*
X45941227Y-62508009D01*
X46019248Y-62319651D01*
X46022990Y-62300837D01*
X46249977Y-62390729D01*
X46547000Y-62445000D01*
X47447000Y-62445000D01*
X47447000Y-61037000D01*
X45360861Y-61037000D01*
X45325920Y-61022527D01*
X45125961Y-60982753D01*
X44922083Y-60982753D01*
X44722124Y-61022527D01*
X44533766Y-61100548D01*
X44364248Y-61213816D01*
X44220085Y-61357979D01*
X44106817Y-61527497D01*
X44028796Y-61715855D01*
X43989022Y-61915814D01*
X43989022Y-62048662D01*
X43780285Y-62257399D01*
X43775780Y-62248970D01*
X43696428Y-62152279D01*
X43440983Y-61896834D01*
X44061444Y-61276373D01*
X44088540Y-61254136D01*
X44177265Y-61146024D01*
X44243193Y-61022681D01*
X44283792Y-60888845D01*
X44294065Y-60784538D01*
X44294065Y-60784536D01*
X44297500Y-60749661D01*
X44294065Y-60714786D01*
X44294065Y-60545260D01*
X45182964Y-60545260D01*
X45303622Y-60783000D01*
X47447000Y-60783000D01*
X47447000Y-59375000D01*
X46547000Y-59375000D01*
X46249977Y-59429271D01*
X45969249Y-59540446D01*
X45715604Y-59704252D01*
X45498790Y-59914394D01*
X45327138Y-60162796D01*
X45207245Y-60439913D01*
X45182964Y-60545260D01*
X44294065Y-60545260D01*
X44294065Y-60086680D01*
X44388002Y-59992743D01*
X44501270Y-59823225D01*
X44579291Y-59634867D01*
X44619065Y-59434908D01*
X44619065Y-59231030D01*
X44579291Y-59031071D01*
X44501270Y-58842713D01*
X44388002Y-58673195D01*
X44243839Y-58529032D01*
X44074321Y-58415764D01*
X43885963Y-58337743D01*
X43686004Y-58297969D01*
X43482126Y-58297969D01*
X43282167Y-58337743D01*
X43093809Y-58415764D01*
X42924291Y-58529032D01*
X42780128Y-58673195D01*
X42666860Y-58842713D01*
X42588839Y-59031071D01*
X42549065Y-59231030D01*
X42549065Y-59260386D01*
X42532076Y-59246443D01*
X42397557Y-59174541D01*
X42278273Y-59138356D01*
X42276980Y-59124585D01*
X42241218Y-59004722D01*
X42182761Y-58894139D01*
X42103683Y-58801251D01*
X41879176Y-58801251D01*
X41413016Y-59267411D01*
X41427159Y-59281554D01*
X41247554Y-59461159D01*
X41233411Y-59447016D01*
X41219269Y-59461159D01*
X41099819Y-59341709D01*
X41323972Y-59117556D01*
X41420735Y-58999650D01*
X41492637Y-58865131D01*
X41508553Y-58812664D01*
X41699571Y-58621646D01*
X41699571Y-58397139D01*
X41606683Y-58318061D01*
X41496100Y-58259604D01*
X41485610Y-58256474D01*
X41420735Y-58135102D01*
X41323972Y-58017196D01*
X41185932Y-57879156D01*
X41346087Y-57719001D01*
X42627126Y-57719001D01*
X42662001Y-57722436D01*
X42696876Y-57719001D01*
X42696878Y-57719001D01*
X42801185Y-57708728D01*
X42935021Y-57668129D01*
X43058364Y-57602201D01*
X43166476Y-57513476D01*
X43188713Y-57486380D01*
X43303477Y-57371616D01*
X43656250Y-57369000D01*
X43815000Y-57210250D01*
X43815000Y-56261000D01*
X44069000Y-56261000D01*
X44069000Y-57210250D01*
X44227750Y-57369000D01*
X44642000Y-57372072D01*
X44766482Y-57359812D01*
X44886180Y-57323502D01*
X44996494Y-57264537D01*
X45093185Y-57185185D01*
X45172537Y-57088494D01*
X45231502Y-56978180D01*
X45267812Y-56858482D01*
X45280072Y-56734000D01*
X45277000Y-56419750D01*
X45118250Y-56261000D01*
X44069000Y-56261000D01*
X43815000Y-56261000D01*
X43795000Y-56261000D01*
X43795000Y-56007000D01*
X43815000Y-56007000D01*
X43815000Y-55987000D01*
X44069000Y-55987000D01*
X44069000Y-56007000D01*
X45118250Y-56007000D01*
X45120767Y-56004483D01*
X45158923Y-56008065D01*
X45180250Y-56005000D01*
X45339000Y-55846250D01*
X45339000Y-55217000D01*
X45593000Y-55217000D01*
X45593000Y-55846250D01*
X45751750Y-56005000D01*
X45773077Y-56008065D01*
X45897613Y-55996375D01*
X46017476Y-55960614D01*
X46128059Y-55902156D01*
X46225113Y-55823247D01*
X46304908Y-55726921D01*
X46364377Y-55616878D01*
X46401235Y-55497348D01*
X46411000Y-55375750D01*
X46252250Y-55217000D01*
X45593000Y-55217000D01*
X45339000Y-55217000D01*
X45319000Y-55217000D01*
X45319000Y-55048072D01*
X45636000Y-55048072D01*
X45787794Y-55033122D01*
X45933755Y-54988845D01*
X45982108Y-54963000D01*
X46252250Y-54963000D01*
X46411000Y-54804250D01*
X46401235Y-54682652D01*
X46364377Y-54563122D01*
X46359172Y-54553491D01*
X46399122Y-54421794D01*
X46414072Y-54270000D01*
X46414072Y-53990000D01*
X46399122Y-53838206D01*
X46354845Y-53692245D01*
X46282943Y-53557726D01*
X46186180Y-53439820D01*
X46068274Y-53343057D01*
X45933755Y-53271155D01*
X45787794Y-53226878D01*
X45636000Y-53211928D01*
X45296000Y-53211928D01*
X45144206Y-53226878D01*
X45104072Y-53239053D01*
X45104072Y-52901000D01*
X45089297Y-52750979D01*
X45206146Y-52750979D01*
X45241021Y-52754414D01*
X45275896Y-52750979D01*
X45275898Y-52750979D01*
X45380205Y-52740706D01*
X45514041Y-52700107D01*
X45637384Y-52634179D01*
X45745496Y-52545454D01*
X45767733Y-52518358D01*
X46081093Y-52204999D01*
X46568456Y-52204999D01*
X46515000Y-52473740D01*
G37*
%TD.AperFunction*%
D32*
X27447873Y-53526020D02*
X27513801Y-53649363D01*
X27602526Y-53757475D01*
X27629618Y-53779709D01*
X29210668Y-55360760D01*
X29164010Y-55430589D01*
X29052068Y-55700842D01*
X28995000Y-55987740D01*
X28995000Y-56280260D01*
X29052068Y-56567158D01*
X29164010Y-56837411D01*
X29326525Y-57080632D01*
X29533368Y-57287475D01*
X29776589Y-57449990D01*
X30046842Y-57561932D01*
X30333740Y-57619000D01*
X30626260Y-57619000D01*
X30895001Y-57565544D01*
X30895001Y-58036173D01*
X30761158Y-58076775D01*
X30627504Y-58148214D01*
X30510356Y-58244356D01*
X30414214Y-58361504D01*
X30342775Y-58495158D01*
X30298782Y-58640181D01*
X30283928Y-58791000D01*
X30283928Y-58823357D01*
X30208256Y-58772795D01*
X30019898Y-58694774D01*
X29819939Y-58655000D01*
X29616061Y-58655000D01*
X29416102Y-58694774D01*
X29227744Y-58772795D01*
X29058226Y-58886063D01*
X28914063Y-59030226D01*
X28800795Y-59199744D01*
X28722774Y-59388102D01*
X28712061Y-59441959D01*
X28680023Y-59429271D01*
X28383000Y-59375000D01*
X27483000Y-59375000D01*
X27483000Y-60783000D01*
X29626378Y-60783000D01*
X29655814Y-60725000D01*
X29819939Y-60725000D01*
X30019898Y-60685226D01*
X30090455Y-60656000D01*
X30544907Y-60656000D01*
X30627504Y-60723786D01*
X30644521Y-60732882D01*
X30614094Y-60763309D01*
X30500826Y-60932827D01*
X30422805Y-61121185D01*
X30383031Y-61321144D01*
X30383031Y-61525022D01*
X30422805Y-61724981D01*
X30465975Y-61829202D01*
X30354050Y-61829202D01*
X30154091Y-61868976D01*
X29965733Y-61946997D01*
X29796215Y-62060265D01*
X29652052Y-62204428D01*
X29561901Y-62339349D01*
X29536632Y-62301531D01*
X29392469Y-62157368D01*
X29261644Y-62069954D01*
X29431210Y-61905606D01*
X29602862Y-61657204D01*
X29722755Y-61380087D01*
X29747036Y-61274740D01*
X29626378Y-61037000D01*
X27483000Y-61037000D01*
X27483000Y-62445000D01*
X27832895Y-62445000D01*
X27815490Y-62471049D01*
X27737469Y-62659407D01*
X27697695Y-62859366D01*
X27697695Y-63063244D01*
X27737469Y-63263203D01*
X27815490Y-63451561D01*
X27928758Y-63621079D01*
X28072921Y-63765242D01*
X28242439Y-63878510D01*
X28430797Y-63956531D01*
X28514414Y-63973163D01*
X28520782Y-64037819D01*
X28564775Y-64182842D01*
X28607086Y-64262000D01*
X28564775Y-64341158D01*
X28520782Y-64486181D01*
X28505928Y-64637000D01*
X28505928Y-64907000D01*
X28520782Y-65057819D01*
X28520834Y-65057992D01*
X28469572Y-65043326D01*
X28019419Y-65006196D01*
X27570672Y-65057600D01*
X27140576Y-65195562D01*
X26806491Y-65374133D01*
X26631475Y-65705870D01*
X28056000Y-67130395D01*
X28070143Y-67116253D01*
X28249748Y-67295858D01*
X28235605Y-67310000D01*
X28249748Y-67324143D01*
X28070143Y-67503748D01*
X28056000Y-67489605D01*
X26631475Y-68914130D01*
X26806491Y-69245867D01*
X27024107Y-69357780D01*
X27022795Y-69359744D01*
X26944774Y-69548102D01*
X26905000Y-69748061D01*
X26905000Y-69951939D01*
X26944774Y-70151898D01*
X27022795Y-70340256D01*
X27136063Y-70509774D01*
X27280226Y-70653937D01*
X27449744Y-70767205D01*
X27500675Y-70788301D01*
X27481518Y-70790188D01*
X27361820Y-70826498D01*
X27251506Y-70885463D01*
X27154815Y-70964815D01*
X27075463Y-71061506D01*
X27016498Y-71171820D01*
X26980188Y-71291518D01*
X26967928Y-71416000D01*
X26967928Y-72175000D01*
X26329000Y-72175000D01*
X26031977Y-72229271D01*
X25751249Y-72340446D01*
X25660000Y-72399375D01*
X25660000Y-67346581D01*
X25752196Y-67346581D01*
X25803600Y-67795328D01*
X25941562Y-68225424D01*
X26120133Y-68559509D01*
X26451870Y-68734525D01*
X27876395Y-67310000D01*
X26451870Y-65885475D01*
X26120133Y-66060491D01*
X25913563Y-66462168D01*
X25789326Y-66896428D01*
X25752196Y-67346581D01*
X25660000Y-67346581D01*
X25660000Y-62220625D01*
X25751249Y-62279554D01*
X26031977Y-62390729D01*
X26329000Y-62445000D01*
X27229000Y-62445000D01*
X27229000Y-61037000D01*
X27209000Y-61037000D01*
X27209000Y-60783000D01*
X27229000Y-60783000D01*
X27229000Y-59375000D01*
X26329000Y-59375000D01*
X26031977Y-59429271D01*
X25751249Y-59540446D01*
X25660000Y-59599375D01*
X25660000Y-56709272D01*
X26567450Y-56709272D01*
X26739485Y-56692328D01*
X26904909Y-56642147D01*
X27057364Y-56560658D01*
X27190992Y-56450992D01*
X27291288Y-56328781D01*
X27384102Y-56367226D01*
X27584061Y-56407000D01*
X27787939Y-56407000D01*
X27987898Y-56367226D01*
X28176256Y-56289205D01*
X28345774Y-56175937D01*
X28489937Y-56031774D01*
X28603205Y-55862256D01*
X28681226Y-55673898D01*
X28721000Y-55473939D01*
X28721000Y-55270061D01*
X28681226Y-55070102D01*
X28603205Y-54881744D01*
X28489937Y-54712226D01*
X28345774Y-54568063D01*
X28176256Y-54454795D01*
X27987898Y-54376774D01*
X27787939Y-54337000D01*
X27584061Y-54337000D01*
X27422302Y-54369176D01*
X27437012Y-54320682D01*
X27449272Y-54196200D01*
X27446200Y-53994450D01*
X27287450Y-53835700D01*
X26238200Y-53835700D01*
X26238200Y-53855700D01*
X25984200Y-53855700D01*
X25984200Y-53835700D01*
X25964200Y-53835700D01*
X25964200Y-53581700D01*
X25984200Y-53581700D01*
X25984200Y-53561700D01*
X26238200Y-53561700D01*
X26238200Y-53581700D01*
X27287450Y-53581700D01*
X27423495Y-53445655D01*
X27447873Y-53526020D01*
%TA.AperFunction,Conductor*%
D33*
G36*
X27447873Y-53526020D02*
G01*
X27513801Y-53649363D01*
X27602526Y-53757475D01*
X27629618Y-53779709D01*
X29210668Y-55360760D01*
X29164010Y-55430589D01*
X29052068Y-55700842D01*
X28995000Y-55987740D01*
X28995000Y-56280260D01*
X29052068Y-56567158D01*
X29164010Y-56837411D01*
X29326525Y-57080632D01*
X29533368Y-57287475D01*
X29776589Y-57449990D01*
X30046842Y-57561932D01*
X30333740Y-57619000D01*
X30626260Y-57619000D01*
X30895001Y-57565544D01*
X30895001Y-58036173D01*
X30761158Y-58076775D01*
X30627504Y-58148214D01*
X30510356Y-58244356D01*
X30414214Y-58361504D01*
X30342775Y-58495158D01*
X30298782Y-58640181D01*
X30283928Y-58791000D01*
X30283928Y-58823357D01*
X30208256Y-58772795D01*
X30019898Y-58694774D01*
X29819939Y-58655000D01*
X29616061Y-58655000D01*
X29416102Y-58694774D01*
X29227744Y-58772795D01*
X29058226Y-58886063D01*
X28914063Y-59030226D01*
X28800795Y-59199744D01*
X28722774Y-59388102D01*
X28712061Y-59441959D01*
X28680023Y-59429271D01*
X28383000Y-59375000D01*
X27483000Y-59375000D01*
X27483000Y-60783000D01*
X29626378Y-60783000D01*
X29655814Y-60725000D01*
X29819939Y-60725000D01*
X30019898Y-60685226D01*
X30090455Y-60656000D01*
X30544907Y-60656000D01*
X30627504Y-60723786D01*
X30644521Y-60732882D01*
X30614094Y-60763309D01*
X30500826Y-60932827D01*
X30422805Y-61121185D01*
X30383031Y-61321144D01*
X30383031Y-61525022D01*
X30422805Y-61724981D01*
X30465975Y-61829202D01*
X30354050Y-61829202D01*
X30154091Y-61868976D01*
X29965733Y-61946997D01*
X29796215Y-62060265D01*
X29652052Y-62204428D01*
X29561901Y-62339349D01*
X29536632Y-62301531D01*
X29392469Y-62157368D01*
X29261644Y-62069954D01*
X29431210Y-61905606D01*
X29602862Y-61657204D01*
X29722755Y-61380087D01*
X29747036Y-61274740D01*
X29626378Y-61037000D01*
X27483000Y-61037000D01*
X27483000Y-62445000D01*
X27832895Y-62445000D01*
X27815490Y-62471049D01*
X27737469Y-62659407D01*
X27697695Y-62859366D01*
X27697695Y-63063244D01*
X27737469Y-63263203D01*
X27815490Y-63451561D01*
X27928758Y-63621079D01*
X28072921Y-63765242D01*
X28242439Y-63878510D01*
X28430797Y-63956531D01*
X28514414Y-63973163D01*
X28520782Y-64037819D01*
X28564775Y-64182842D01*
X28607086Y-64262000D01*
X28564775Y-64341158D01*
X28520782Y-64486181D01*
X28505928Y-64637000D01*
X28505928Y-64907000D01*
X28520782Y-65057819D01*
X28520834Y-65057992D01*
X28469572Y-65043326D01*
X28019419Y-65006196D01*
X27570672Y-65057600D01*
X27140576Y-65195562D01*
X26806491Y-65374133D01*
X26631475Y-65705870D01*
X28056000Y-67130395D01*
X28070143Y-67116253D01*
X28249748Y-67295858D01*
X28235605Y-67310000D01*
X28249748Y-67324143D01*
X28070143Y-67503748D01*
X28056000Y-67489605D01*
X26631475Y-68914130D01*
X26806491Y-69245867D01*
X27024107Y-69357780D01*
X27022795Y-69359744D01*
X26944774Y-69548102D01*
X26905000Y-69748061D01*
X26905000Y-69951939D01*
X26944774Y-70151898D01*
X27022795Y-70340256D01*
X27136063Y-70509774D01*
X27280226Y-70653937D01*
X27449744Y-70767205D01*
X27500675Y-70788301D01*
X27481518Y-70790188D01*
X27361820Y-70826498D01*
X27251506Y-70885463D01*
X27154815Y-70964815D01*
X27075463Y-71061506D01*
X27016498Y-71171820D01*
X26980188Y-71291518D01*
X26967928Y-71416000D01*
X26967928Y-72175000D01*
X26329000Y-72175000D01*
X26031977Y-72229271D01*
X25751249Y-72340446D01*
X25660000Y-72399375D01*
X25660000Y-67346581D01*
X25752196Y-67346581D01*
X25803600Y-67795328D01*
X25941562Y-68225424D01*
X26120133Y-68559509D01*
X26451870Y-68734525D01*
X27876395Y-67310000D01*
X26451870Y-65885475D01*
X26120133Y-66060491D01*
X25913563Y-66462168D01*
X25789326Y-66896428D01*
X25752196Y-67346581D01*
X25660000Y-67346581D01*
X25660000Y-62220625D01*
X25751249Y-62279554D01*
X26031977Y-62390729D01*
X26329000Y-62445000D01*
X27229000Y-62445000D01*
X27229000Y-61037000D01*
X27209000Y-61037000D01*
X27209000Y-60783000D01*
X27229000Y-60783000D01*
X27229000Y-59375000D01*
X26329000Y-59375000D01*
X26031977Y-59429271D01*
X25751249Y-59540446D01*
X25660000Y-59599375D01*
X25660000Y-56709272D01*
X26567450Y-56709272D01*
X26739485Y-56692328D01*
X26904909Y-56642147D01*
X27057364Y-56560658D01*
X27190992Y-56450992D01*
X27291288Y-56328781D01*
X27384102Y-56367226D01*
X27584061Y-56407000D01*
X27787939Y-56407000D01*
X27987898Y-56367226D01*
X28176256Y-56289205D01*
X28345774Y-56175937D01*
X28489937Y-56031774D01*
X28603205Y-55862256D01*
X28681226Y-55673898D01*
X28721000Y-55473939D01*
X28721000Y-55270061D01*
X28681226Y-55070102D01*
X28603205Y-54881744D01*
X28489937Y-54712226D01*
X28345774Y-54568063D01*
X28176256Y-54454795D01*
X27987898Y-54376774D01*
X27787939Y-54337000D01*
X27584061Y-54337000D01*
X27422302Y-54369176D01*
X27437012Y-54320682D01*
X27449272Y-54196200D01*
X27446200Y-53994450D01*
X27287450Y-53835700D01*
X26238200Y-53835700D01*
X26238200Y-53855700D01*
X25984200Y-53855700D01*
X25984200Y-53835700D01*
X25964200Y-53835700D01*
X25964200Y-53581700D01*
X25984200Y-53581700D01*
X25984200Y-53561700D01*
X26238200Y-53561700D01*
X26238200Y-53581700D01*
X27287450Y-53581700D01*
X27423495Y-53445655D01*
X27447873Y-53526020D01*
G37*
%TD.AperFunction*%
D32*
X37317382Y-69441568D02*
X37239361Y-69629926D01*
X37199587Y-69829885D01*
X37199587Y-70033763D01*
X37239361Y-70233722D01*
X37282140Y-70337000D01*
X37234061Y-70337000D01*
X37034102Y-70376774D01*
X36845744Y-70454795D01*
X36762376Y-70510500D01*
X36657819Y-70478782D01*
X36507000Y-70463928D01*
X36137000Y-70463928D01*
X35986181Y-70478782D01*
X35841158Y-70522775D01*
X35707504Y-70594214D01*
X35686033Y-70611835D01*
X35643580Y-70560106D01*
X35644675Y-70559998D01*
X35644677Y-70559998D01*
X35748984Y-70549725D01*
X35882820Y-70509126D01*
X36006163Y-70443198D01*
X36081738Y-70381175D01*
X36103464Y-70383315D01*
X36227946Y-70371055D01*
X36347644Y-70334745D01*
X36457958Y-70275780D01*
X36554649Y-70196428D01*
X37333235Y-69417842D01*
X37317382Y-69441568D01*
%TA.AperFunction,Conductor*%
D33*
G36*
X37317382Y-69441568D02*
G01*
X37239361Y-69629926D01*
X37199587Y-69829885D01*
X37199587Y-70033763D01*
X37239361Y-70233722D01*
X37282140Y-70337000D01*
X37234061Y-70337000D01*
X37034102Y-70376774D01*
X36845744Y-70454795D01*
X36762376Y-70510500D01*
X36657819Y-70478782D01*
X36507000Y-70463928D01*
X36137000Y-70463928D01*
X35986181Y-70478782D01*
X35841158Y-70522775D01*
X35707504Y-70594214D01*
X35686033Y-70611835D01*
X35643580Y-70560106D01*
X35644675Y-70559998D01*
X35644677Y-70559998D01*
X35748984Y-70549725D01*
X35882820Y-70509126D01*
X36006163Y-70443198D01*
X36081738Y-70381175D01*
X36103464Y-70383315D01*
X36227946Y-70371055D01*
X36347644Y-70334745D01*
X36457958Y-70275780D01*
X36554649Y-70196428D01*
X37333235Y-69417842D01*
X37317382Y-69441568D01*
G37*
%TD.AperFunction*%
D32*
X44759562Y-68225424D02*
X44938133Y-68559509D01*
X45269868Y-68734524D01*
X45155390Y-68849002D01*
X45204317Y-68897929D01*
X45122815Y-68964815D01*
X45043463Y-69061506D01*
X44992954Y-69156000D01*
X44739871Y-69156000D01*
X44704996Y-69152565D01*
X44670121Y-69156000D01*
X44670119Y-69156000D01*
X44565812Y-69166273D01*
X44431976Y-69206872D01*
X44308633Y-69272800D01*
X44200521Y-69361525D01*
X44178284Y-69388621D01*
X43521606Y-70045299D01*
X43494515Y-70067532D01*
X43472282Y-70094623D01*
X43405790Y-70175644D01*
X43393155Y-70199282D01*
X43349490Y-70190596D01*
X43225009Y-70178336D01*
X43200450Y-70178336D01*
X43176000Y-70175928D01*
X42792019Y-70175928D01*
X42750712Y-70134621D01*
X42728475Y-70107525D01*
X42620363Y-70018800D01*
X42497020Y-69952872D01*
X42444717Y-69937006D01*
X42315774Y-69808063D01*
X42146256Y-69694795D01*
X41957898Y-69616774D01*
X41757939Y-69577000D01*
X41554061Y-69577000D01*
X41354102Y-69616774D01*
X41165744Y-69694795D01*
X40996226Y-69808063D01*
X40867283Y-69937006D01*
X40814980Y-69952872D01*
X40691637Y-70018800D01*
X40583525Y-70107525D01*
X40561288Y-70134621D01*
X40519981Y-70175928D01*
X40136000Y-70175928D01*
X40111550Y-70178336D01*
X40086991Y-70178336D01*
X39962510Y-70190596D01*
X39866377Y-70209718D01*
X39807091Y-70227702D01*
X41047930Y-68986863D01*
X41332456Y-69271389D01*
X41354693Y-69298485D01*
X41462805Y-69387210D01*
X41537902Y-69427350D01*
X41586148Y-69453138D01*
X41719983Y-69493737D01*
X41859168Y-69507445D01*
X41894045Y-69504010D01*
X42554115Y-69504010D01*
X42588990Y-69507445D01*
X42623865Y-69504010D01*
X42623867Y-69504010D01*
X42728174Y-69493737D01*
X42862010Y-69453138D01*
X42985353Y-69387210D01*
X43093465Y-69298485D01*
X43115702Y-69271389D01*
X43230019Y-69157072D01*
X43319000Y-69157072D01*
X43469819Y-69142218D01*
X43614842Y-69098225D01*
X43748496Y-69026786D01*
X43865644Y-68930644D01*
X43961786Y-68813496D01*
X44033225Y-68679842D01*
X44077218Y-68534819D01*
X44092072Y-68384000D01*
X44092072Y-68276137D01*
X44134990Y-68263118D01*
X44258333Y-68197190D01*
X44366445Y-68108465D01*
X44388682Y-68081369D01*
X44536696Y-67933355D01*
X44597715Y-67914845D01*
X44650831Y-67886454D01*
X44759562Y-68225424D01*
%TA.AperFunction,Conductor*%
D33*
G36*
X44759562Y-68225424D02*
G01*
X44938133Y-68559509D01*
X45269868Y-68734524D01*
X45155390Y-68849002D01*
X45204317Y-68897929D01*
X45122815Y-68964815D01*
X45043463Y-69061506D01*
X44992954Y-69156000D01*
X44739871Y-69156000D01*
X44704996Y-69152565D01*
X44670121Y-69156000D01*
X44670119Y-69156000D01*
X44565812Y-69166273D01*
X44431976Y-69206872D01*
X44308633Y-69272800D01*
X44200521Y-69361525D01*
X44178284Y-69388621D01*
X43521606Y-70045299D01*
X43494515Y-70067532D01*
X43472282Y-70094623D01*
X43405790Y-70175644D01*
X43393155Y-70199282D01*
X43349490Y-70190596D01*
X43225009Y-70178336D01*
X43200450Y-70178336D01*
X43176000Y-70175928D01*
X42792019Y-70175928D01*
X42750712Y-70134621D01*
X42728475Y-70107525D01*
X42620363Y-70018800D01*
X42497020Y-69952872D01*
X42444717Y-69937006D01*
X42315774Y-69808063D01*
X42146256Y-69694795D01*
X41957898Y-69616774D01*
X41757939Y-69577000D01*
X41554061Y-69577000D01*
X41354102Y-69616774D01*
X41165744Y-69694795D01*
X40996226Y-69808063D01*
X40867283Y-69937006D01*
X40814980Y-69952872D01*
X40691637Y-70018800D01*
X40583525Y-70107525D01*
X40561288Y-70134621D01*
X40519981Y-70175928D01*
X40136000Y-70175928D01*
X40111550Y-70178336D01*
X40086991Y-70178336D01*
X39962510Y-70190596D01*
X39866377Y-70209718D01*
X39807091Y-70227702D01*
X41047930Y-68986863D01*
X41332456Y-69271389D01*
X41354693Y-69298485D01*
X41462805Y-69387210D01*
X41537902Y-69427350D01*
X41586148Y-69453138D01*
X41719983Y-69493737D01*
X41859168Y-69507445D01*
X41894045Y-69504010D01*
X42554115Y-69504010D01*
X42588990Y-69507445D01*
X42623865Y-69504010D01*
X42623867Y-69504010D01*
X42728174Y-69493737D01*
X42862010Y-69453138D01*
X42985353Y-69387210D01*
X43093465Y-69298485D01*
X43115702Y-69271389D01*
X43230019Y-69157072D01*
X43319000Y-69157072D01*
X43469819Y-69142218D01*
X43614842Y-69098225D01*
X43748496Y-69026786D01*
X43865644Y-68930644D01*
X43961786Y-68813496D01*
X44033225Y-68679842D01*
X44077218Y-68534819D01*
X44092072Y-68384000D01*
X44092072Y-68276137D01*
X44134990Y-68263118D01*
X44258333Y-68197190D01*
X44366445Y-68108465D01*
X44388682Y-68081369D01*
X44536696Y-67933355D01*
X44597715Y-67914845D01*
X44650831Y-67886454D01*
X44759562Y-68225424D01*
G37*
%TD.AperFunction*%
D32*
X30857907Y-68972085D02*
X30877565Y-69036887D01*
X30908261Y-69094315D01*
X30745402Y-69094315D01*
X30699001Y-69047914D01*
X30699001Y-68813178D01*
X30857907Y-68972085D01*
%TA.AperFunction,Conductor*%
D33*
G36*
X30857907Y-68972085D02*
G01*
X30877565Y-69036887D01*
X30908261Y-69094315D01*
X30745402Y-69094315D01*
X30699001Y-69047914D01*
X30699001Y-68813178D01*
X30857907Y-68972085D01*
G37*
%TD.AperFunction*%
D32*
X39399945Y-66076722D02*
X39011036Y-66465631D01*
X38931684Y-66562322D01*
X38931429Y-66562800D01*
X38930951Y-66563055D01*
X38834260Y-66642407D01*
X38445351Y-67031316D01*
X38365999Y-67128007D01*
X38365744Y-67128484D01*
X38365265Y-67128740D01*
X38268574Y-67208092D01*
X37879665Y-67597001D01*
X37800313Y-67693692D01*
X37800057Y-67694171D01*
X37799580Y-67694426D01*
X37702889Y-67773778D01*
X37500000Y-67976667D01*
X37297111Y-67773778D01*
X37200420Y-67694426D01*
X37199943Y-67694171D01*
X37199687Y-67693692D01*
X37120335Y-67597001D01*
X36731426Y-67208092D01*
X36634735Y-67128740D01*
X36634256Y-67128484D01*
X36634001Y-67128007D01*
X36554649Y-67031316D01*
X36317663Y-66794330D01*
X38291791Y-66794330D01*
X38326666Y-66797765D01*
X38361541Y-66794330D01*
X38361543Y-66794330D01*
X38465850Y-66784057D01*
X38599686Y-66743458D01*
X38723029Y-66677530D01*
X38831141Y-66588805D01*
X38853378Y-66561709D01*
X39340231Y-66074857D01*
X39410671Y-66067920D01*
X39399945Y-66076722D01*
%TA.AperFunction,Conductor*%
D33*
G36*
X39399945Y-66076722D02*
G01*
X39011036Y-66465631D01*
X38931684Y-66562322D01*
X38931429Y-66562800D01*
X38930951Y-66563055D01*
X38834260Y-66642407D01*
X38445351Y-67031316D01*
X38365999Y-67128007D01*
X38365744Y-67128484D01*
X38365265Y-67128740D01*
X38268574Y-67208092D01*
X37879665Y-67597001D01*
X37800313Y-67693692D01*
X37800057Y-67694171D01*
X37799580Y-67694426D01*
X37702889Y-67773778D01*
X37500000Y-67976667D01*
X37297111Y-67773778D01*
X37200420Y-67694426D01*
X37199943Y-67694171D01*
X37199687Y-67693692D01*
X37120335Y-67597001D01*
X36731426Y-67208092D01*
X36634735Y-67128740D01*
X36634256Y-67128484D01*
X36634001Y-67128007D01*
X36554649Y-67031316D01*
X36317663Y-66794330D01*
X38291791Y-66794330D01*
X38326666Y-66797765D01*
X38361541Y-66794330D01*
X38361543Y-66794330D01*
X38465850Y-66784057D01*
X38599686Y-66743458D01*
X38723029Y-66677530D01*
X38831141Y-66588805D01*
X38853378Y-66561709D01*
X39340231Y-66074857D01*
X39410671Y-66067920D01*
X39399945Y-66076722D01*
G37*
%TD.AperFunction*%
D32*
X31766313Y-66297222D02*
X31766313Y-66598550D01*
X31673826Y-66506063D01*
X31594588Y-66453118D01*
X31624139Y-66423567D01*
X31729013Y-66266611D01*
X31766313Y-66297222D01*
%TA.AperFunction,Conductor*%
D33*
G36*
X31766313Y-66297222D02*
G01*
X31766313Y-66598550D01*
X31673826Y-66506063D01*
X31594588Y-66453118D01*
X31624139Y-66423567D01*
X31729013Y-66266611D01*
X31766313Y-66297222D01*
G37*
%TD.AperFunction*%
D32*
X39345750Y-54003000D02*
X40005000Y-54003000D01*
X40005000Y-53983000D01*
X40259000Y-53983000D01*
X40259000Y-54003000D01*
X40279000Y-54003000D01*
X40279000Y-54171928D01*
X39962000Y-54171928D01*
X39810206Y-54186878D01*
X39664245Y-54231155D01*
X39615892Y-54257000D01*
X39345750Y-54257000D01*
X39187000Y-54415750D01*
X39196765Y-54537348D01*
X39233623Y-54656878D01*
X39238828Y-54666509D01*
X39198878Y-54798206D01*
X39183928Y-54950000D01*
X39183928Y-55230000D01*
X39198878Y-55381794D01*
X39243155Y-55527755D01*
X39315057Y-55662274D01*
X39411820Y-55780180D01*
X39529726Y-55876943D01*
X39664245Y-55948845D01*
X39810206Y-55993122D01*
X39962000Y-56008072D01*
X40045981Y-56008072D01*
X40287010Y-56249101D01*
X38917374Y-57618737D01*
X38896536Y-57616685D01*
X38772054Y-57628945D01*
X38652356Y-57665255D01*
X38542042Y-57724220D01*
X38445351Y-57803572D01*
X37500000Y-58748923D01*
X37222130Y-58471053D01*
X37235774Y-58461937D01*
X37379937Y-58317774D01*
X37493205Y-58148256D01*
X37571226Y-57959898D01*
X37611000Y-57759939D01*
X37611000Y-57556061D01*
X37571226Y-57356102D01*
X37493205Y-57167744D01*
X37379937Y-56998226D01*
X37235774Y-56854063D01*
X37066256Y-56740795D01*
X36877898Y-56662774D01*
X36677939Y-56623000D01*
X36474061Y-56623000D01*
X36274102Y-56662774D01*
X36085744Y-56740795D01*
X35916226Y-56854063D01*
X35822289Y-56948000D01*
X34256524Y-56948000D01*
X34291641Y-56900920D01*
X34416825Y-56638099D01*
X34461476Y-56490890D01*
X34340155Y-56261000D01*
X33147000Y-56261000D01*
X33147000Y-56281000D01*
X32893000Y-56281000D01*
X32893000Y-56261000D01*
X32873000Y-56261000D01*
X32873000Y-56007000D01*
X32893000Y-56007000D01*
X32893000Y-55987000D01*
X33147000Y-55987000D01*
X33147000Y-56007000D01*
X34340155Y-56007000D01*
X34461476Y-55777110D01*
X34430622Y-55675388D01*
X34441774Y-55667937D01*
X34585937Y-55523774D01*
X34675502Y-55389730D01*
X34765084Y-55523799D01*
X34909247Y-55667962D01*
X35078765Y-55781230D01*
X35267123Y-55859251D01*
X35467082Y-55899025D01*
X35670960Y-55899025D01*
X35870919Y-55859251D01*
X36059277Y-55781230D01*
X36228795Y-55667962D01*
X36322757Y-55574000D01*
X36838289Y-55574000D01*
X36932226Y-55667937D01*
X37101744Y-55781205D01*
X37290102Y-55859226D01*
X37490061Y-55899000D01*
X37693939Y-55899000D01*
X37893898Y-55859226D01*
X38082256Y-55781205D01*
X38251774Y-55667937D01*
X38395937Y-55523774D01*
X38509205Y-55354256D01*
X38587226Y-55165898D01*
X38627000Y-54965939D01*
X38627000Y-54762061D01*
X38587226Y-54562102D01*
X38509205Y-54373744D01*
X38395937Y-54204226D01*
X38251774Y-54060063D01*
X38082256Y-53946795D01*
X37893898Y-53868774D01*
X37829734Y-53856011D01*
X39198761Y-53856011D01*
X39345750Y-54003000D01*
%TA.AperFunction,Conductor*%
D33*
G36*
X39345750Y-54003000D02*
G01*
X40005000Y-54003000D01*
X40005000Y-53983000D01*
X40259000Y-53983000D01*
X40259000Y-54003000D01*
X40279000Y-54003000D01*
X40279000Y-54171928D01*
X39962000Y-54171928D01*
X39810206Y-54186878D01*
X39664245Y-54231155D01*
X39615892Y-54257000D01*
X39345750Y-54257000D01*
X39187000Y-54415750D01*
X39196765Y-54537348D01*
X39233623Y-54656878D01*
X39238828Y-54666509D01*
X39198878Y-54798206D01*
X39183928Y-54950000D01*
X39183928Y-55230000D01*
X39198878Y-55381794D01*
X39243155Y-55527755D01*
X39315057Y-55662274D01*
X39411820Y-55780180D01*
X39529726Y-55876943D01*
X39664245Y-55948845D01*
X39810206Y-55993122D01*
X39962000Y-56008072D01*
X40045981Y-56008072D01*
X40287010Y-56249101D01*
X38917374Y-57618737D01*
X38896536Y-57616685D01*
X38772054Y-57628945D01*
X38652356Y-57665255D01*
X38542042Y-57724220D01*
X38445351Y-57803572D01*
X37500000Y-58748923D01*
X37222130Y-58471053D01*
X37235774Y-58461937D01*
X37379937Y-58317774D01*
X37493205Y-58148256D01*
X37571226Y-57959898D01*
X37611000Y-57759939D01*
X37611000Y-57556061D01*
X37571226Y-57356102D01*
X37493205Y-57167744D01*
X37379937Y-56998226D01*
X37235774Y-56854063D01*
X37066256Y-56740795D01*
X36877898Y-56662774D01*
X36677939Y-56623000D01*
X36474061Y-56623000D01*
X36274102Y-56662774D01*
X36085744Y-56740795D01*
X35916226Y-56854063D01*
X35822289Y-56948000D01*
X34256524Y-56948000D01*
X34291641Y-56900920D01*
X34416825Y-56638099D01*
X34461476Y-56490890D01*
X34340155Y-56261000D01*
X33147000Y-56261000D01*
X33147000Y-56281000D01*
X32893000Y-56281000D01*
X32893000Y-56261000D01*
X32873000Y-56261000D01*
X32873000Y-56007000D01*
X32893000Y-56007000D01*
X32893000Y-55987000D01*
X33147000Y-55987000D01*
X33147000Y-56007000D01*
X34340155Y-56007000D01*
X34461476Y-55777110D01*
X34430622Y-55675388D01*
X34441774Y-55667937D01*
X34585937Y-55523774D01*
X34675502Y-55389730D01*
X34765084Y-55523799D01*
X34909247Y-55667962D01*
X35078765Y-55781230D01*
X35267123Y-55859251D01*
X35467082Y-55899025D01*
X35670960Y-55899025D01*
X35870919Y-55859251D01*
X36059277Y-55781230D01*
X36228795Y-55667962D01*
X36322757Y-55574000D01*
X36838289Y-55574000D01*
X36932226Y-55667937D01*
X37101744Y-55781205D01*
X37290102Y-55859226D01*
X37490061Y-55899000D01*
X37693939Y-55899000D01*
X37893898Y-55859226D01*
X38082256Y-55781205D01*
X38251774Y-55667937D01*
X38395937Y-55523774D01*
X38509205Y-55354256D01*
X38587226Y-55165898D01*
X38627000Y-54965939D01*
X38627000Y-54762061D01*
X38587226Y-54562102D01*
X38509205Y-54373744D01*
X38395937Y-54204226D01*
X38251774Y-54060063D01*
X38082256Y-53946795D01*
X37893898Y-53868774D01*
X37829734Y-53856011D01*
X39198761Y-53856011D01*
X39345750Y-54003000D01*
G37*
%TD.AperFunction*%
D32*
X31866525Y-54540632D02*
X32073368Y-54747475D01*
X32255534Y-54869195D01*
X32138645Y-54938822D01*
X32041490Y-55026396D01*
X31594600Y-54579507D01*
X31633475Y-54540632D01*
X31750000Y-54366240D01*
X31866525Y-54540632D01*
%TA.AperFunction,Conductor*%
D33*
G36*
X31866525Y-54540632D02*
G01*
X32073368Y-54747475D01*
X32255534Y-54869195D01*
X32138645Y-54938822D01*
X32041490Y-55026396D01*
X31594600Y-54579507D01*
X31633475Y-54540632D01*
X31750000Y-54366240D01*
X31866525Y-54540632D01*
G37*
%TD.AperFunction*%
D32*
X41869000Y-54307000D02*
X41889000Y-54307000D01*
X41889000Y-54561000D01*
X41869000Y-54561000D01*
X41869000Y-54581000D01*
X41615000Y-54581000D01*
X41615000Y-54561000D01*
X41595000Y-54561000D01*
X41595000Y-54307000D01*
X41615000Y-54307000D01*
X41615000Y-54287000D01*
X41869000Y-54287000D01*
X41869000Y-54307000D01*
%TA.AperFunction,Conductor*%
D33*
G36*
X41869000Y-54307000D02*
G01*
X41889000Y-54307000D01*
X41889000Y-54561000D01*
X41869000Y-54561000D01*
X41869000Y-54581000D01*
X41615000Y-54581000D01*
X41615000Y-54561000D01*
X41595000Y-54561000D01*
X41595000Y-54307000D01*
X41615000Y-54307000D01*
X41615000Y-54287000D01*
X41869000Y-54287000D01*
X41869000Y-54307000D01*
G37*
%TD.AperFunction*%
D32*
X35949928Y-36876795D02*
X35949928Y-37884000D01*
X35962188Y-38008482D01*
X35998498Y-38128180D01*
X36057463Y-38238494D01*
X36136815Y-38335185D01*
X36233506Y-38414537D01*
X36343820Y-38473502D01*
X36463518Y-38509812D01*
X36588000Y-38522072D01*
X37151928Y-38522072D01*
X37151928Y-38776000D01*
X37166878Y-38927794D01*
X37206828Y-39059491D01*
X37201623Y-39069122D01*
X37164765Y-39188652D01*
X37155000Y-39310250D01*
X37313750Y-39469000D01*
X37583892Y-39469000D01*
X37632245Y-39494845D01*
X37778206Y-39539122D01*
X37930000Y-39554072D01*
X38247000Y-39554072D01*
X38247000Y-39606007D01*
X38052102Y-39644774D01*
X37863744Y-39722795D01*
X37863437Y-39723000D01*
X37313750Y-39723000D01*
X37155000Y-39881750D01*
X37164765Y-40003348D01*
X37201623Y-40122878D01*
X37261092Y-40232921D01*
X37275933Y-40250837D01*
X37256181Y-40252782D01*
X37111158Y-40296775D01*
X36977504Y-40368214D01*
X36860356Y-40464356D01*
X36764214Y-40581504D01*
X36692775Y-40715158D01*
X36648782Y-40860181D01*
X36633928Y-41011000D01*
X36633928Y-41281000D01*
X36648782Y-41431819D01*
X36692775Y-41576842D01*
X36735086Y-41656000D01*
X36692775Y-41735158D01*
X36648782Y-41880181D01*
X36647867Y-41889470D01*
X36489835Y-41995063D01*
X36367923Y-42116975D01*
X36358274Y-42109057D01*
X36223755Y-42037155D01*
X36077794Y-41992878D01*
X35926000Y-41977928D01*
X35752768Y-41977928D01*
X35784038Y-41961214D01*
X35940048Y-41645653D01*
X34628000Y-40333605D01*
X33315952Y-41645653D01*
X33471962Y-41961214D01*
X33846745Y-42152020D01*
X34056747Y-42211172D01*
X34013844Y-42263941D01*
X33955386Y-42374524D01*
X33919625Y-42494387D01*
X33907935Y-42618923D01*
X33911000Y-42640250D01*
X34069750Y-42799000D01*
X34699000Y-42799000D01*
X34699000Y-42779000D01*
X34867928Y-42779000D01*
X34867928Y-43096000D01*
X34882878Y-43247794D01*
X34927155Y-43393755D01*
X34953000Y-43442108D01*
X34953000Y-43933892D01*
X34927155Y-43982245D01*
X34882878Y-44128206D01*
X34867928Y-44280000D01*
X34867928Y-44620000D01*
X34882878Y-44771794D01*
X34927155Y-44917755D01*
X34953000Y-44966108D01*
X34953000Y-45236250D01*
X35111750Y-45395000D01*
X35233348Y-45385235D01*
X35352878Y-45348377D01*
X35362509Y-45343172D01*
X35370488Y-45345592D01*
X35351582Y-45407918D01*
X35339322Y-45532400D01*
X35351582Y-45656882D01*
X35387892Y-45776580D01*
X35446857Y-45886894D01*
X35526209Y-45983585D01*
X35980613Y-46437989D01*
X35182888Y-46437989D01*
X35148011Y-46434554D01*
X35008826Y-46448262D01*
X34918007Y-46475812D01*
X34874991Y-46488861D01*
X34751648Y-46554789D01*
X34643536Y-46643514D01*
X34621299Y-46670610D01*
X34574909Y-46717000D01*
X34442061Y-46717000D01*
X34242102Y-46756774D01*
X34053744Y-46834795D01*
X33884226Y-46948063D01*
X33740063Y-47092226D01*
X33626795Y-47261744D01*
X33548774Y-47450102D01*
X33509000Y-47650061D01*
X33509000Y-47853939D01*
X33548774Y-48053898D01*
X33626795Y-48242256D01*
X33740063Y-48411774D01*
X33884226Y-48555937D01*
X34053744Y-48669205D01*
X34242102Y-48747226D01*
X34442061Y-48787000D01*
X34645939Y-48787000D01*
X34845898Y-48747226D01*
X35034256Y-48669205D01*
X35203774Y-48555937D01*
X35344480Y-48415231D01*
X35339322Y-48467600D01*
X35351582Y-48592082D01*
X35387892Y-48711780D01*
X35446857Y-48822094D01*
X35526209Y-48918785D01*
X35738341Y-49130917D01*
X35816019Y-49194666D01*
X35879763Y-49272338D01*
X36091895Y-49484470D01*
X36169567Y-49548214D01*
X36233316Y-49625892D01*
X36445448Y-49838024D01*
X36523126Y-49901773D01*
X36586870Y-49979445D01*
X36799002Y-50191577D01*
X36876677Y-50255323D01*
X36940423Y-50332998D01*
X37152555Y-50545130D01*
X37230227Y-50608874D01*
X37293976Y-50686552D01*
X37506108Y-50898684D01*
X37583786Y-50962433D01*
X37647530Y-51040105D01*
X37859662Y-51252237D01*
X37937334Y-51315981D01*
X38001083Y-51393659D01*
X38213215Y-51605791D01*
X38309906Y-51685143D01*
X38420220Y-51744108D01*
X38539918Y-51780418D01*
X38664400Y-51792678D01*
X38788882Y-51780418D01*
X38908580Y-51744108D01*
X39018894Y-51685143D01*
X39115585Y-51605791D01*
X40132000Y-50589376D01*
X40961995Y-51419371D01*
X40551377Y-51829990D01*
X37377948Y-51829990D01*
X37365411Y-51811227D01*
X37221248Y-51667064D01*
X37051730Y-51553796D01*
X36863372Y-51475775D01*
X36663413Y-51436001D01*
X36459535Y-51436001D01*
X36259576Y-51475775D01*
X36071218Y-51553796D01*
X35948189Y-51636001D01*
X34782869Y-51636001D01*
X34478807Y-51331940D01*
X34505000Y-51200260D01*
X34505000Y-50907740D01*
X34447932Y-50620842D01*
X34335990Y-50350589D01*
X34173475Y-50107368D01*
X33966632Y-49900525D01*
X33723411Y-49738010D01*
X33453158Y-49626068D01*
X33166260Y-49569000D01*
X32873740Y-49569000D01*
X32586842Y-49626068D01*
X32316589Y-49738010D01*
X32073368Y-49900525D01*
X31941513Y-50032380D01*
X31919502Y-49959820D01*
X31860537Y-49849506D01*
X31781185Y-49752815D01*
X31684494Y-49673463D01*
X31574180Y-49614498D01*
X31454482Y-49578188D01*
X31330000Y-49565928D01*
X29630000Y-49565928D01*
X29505518Y-49578188D01*
X29385820Y-49614498D01*
X29275506Y-49673463D01*
X29178815Y-49752815D01*
X29099463Y-49849506D01*
X29040498Y-49959820D01*
X29004188Y-50079518D01*
X28991928Y-50204000D01*
X28991928Y-51904000D01*
X29004188Y-52028482D01*
X29040498Y-52148180D01*
X29099463Y-52258494D01*
X29178815Y-52355185D01*
X29275506Y-52434537D01*
X29385820Y-52493502D01*
X29458380Y-52515513D01*
X29326525Y-52647368D01*
X29164010Y-52890589D01*
X29052068Y-53160842D01*
X29046571Y-53188479D01*
X28817001Y-52958910D01*
X28817001Y-52796873D01*
X28820436Y-52761998D01*
X28813309Y-52689637D01*
X28806728Y-52622815D01*
X28766129Y-52488979D01*
X28700201Y-52365636D01*
X28611476Y-52257524D01*
X28584385Y-52235291D01*
X27632314Y-51283221D01*
X27610077Y-51256125D01*
X27501965Y-51167400D01*
X27378622Y-51101472D01*
X27333121Y-51087669D01*
X27300658Y-51026936D01*
X27190992Y-50893308D01*
X27184636Y-50888092D01*
X27262385Y-50824285D01*
X27341737Y-50727594D01*
X27400702Y-50617280D01*
X27437012Y-50497582D01*
X27449272Y-50373100D01*
X27446200Y-50171350D01*
X27287450Y-50012600D01*
X26238200Y-50012600D01*
X26238200Y-50032600D01*
X25984200Y-50032600D01*
X25984200Y-50012600D01*
X25964200Y-50012600D01*
X25964200Y-49758600D01*
X25984200Y-49758600D01*
X25984200Y-49738600D01*
X26238200Y-49738600D01*
X26238200Y-49758600D01*
X27287450Y-49758600D01*
X27446200Y-49599850D01*
X27449272Y-49398100D01*
X27437012Y-49273618D01*
X27400702Y-49153920D01*
X27341737Y-49043606D01*
X27262385Y-48946915D01*
X27165694Y-48867563D01*
X27135839Y-48851605D01*
X27190992Y-48806342D01*
X27300658Y-48672714D01*
X27382147Y-48520259D01*
X27432328Y-48354835D01*
X27449272Y-48182800D01*
X27449272Y-47695300D01*
X27441182Y-47613160D01*
X28365982Y-46688360D01*
X28519369Y-47058669D01*
X28763962Y-47424729D01*
X29075271Y-47736038D01*
X29441331Y-47980631D01*
X29848075Y-48149110D01*
X30279872Y-48235000D01*
X30720128Y-48235000D01*
X31151925Y-48149110D01*
X31558669Y-47980631D01*
X31924729Y-47736038D01*
X32236038Y-47424729D01*
X32480631Y-47058669D01*
X32649110Y-46651925D01*
X32735000Y-46220128D01*
X32735000Y-45779872D01*
X32649110Y-45348075D01*
X32480631Y-44941331D01*
X32357517Y-44757077D01*
X33907935Y-44757077D01*
X33919625Y-44881613D01*
X33955386Y-45001476D01*
X34013844Y-45112059D01*
X34092753Y-45209113D01*
X34189079Y-45288908D01*
X34299122Y-45348377D01*
X34418652Y-45385235D01*
X34540250Y-45395000D01*
X34699000Y-45236250D01*
X34699000Y-44577000D01*
X34069750Y-44577000D01*
X33911000Y-44735750D01*
X33907935Y-44757077D01*
X32357517Y-44757077D01*
X32236038Y-44575271D01*
X31924729Y-44263962D01*
X31558669Y-44019369D01*
X31151925Y-43850890D01*
X30720128Y-43765000D01*
X30279872Y-43765000D01*
X29848075Y-43850890D01*
X29441331Y-44019369D01*
X29075271Y-44263962D01*
X28904000Y-44435233D01*
X28904000Y-43233077D01*
X33907935Y-43233077D01*
X33919625Y-43357613D01*
X33955386Y-43477476D01*
X34013844Y-43588059D01*
X34092753Y-43685113D01*
X34096238Y-43688000D01*
X34092753Y-43690887D01*
X34013844Y-43787941D01*
X33955386Y-43898524D01*
X33919625Y-44018387D01*
X33907935Y-44142923D01*
X33911000Y-44164250D01*
X34069750Y-44323000D01*
X34699000Y-44323000D01*
X34699000Y-43053000D01*
X34069750Y-43053000D01*
X33911000Y-43211750D01*
X33907935Y-43233077D01*
X28904000Y-43233077D01*
X28904000Y-42712091D01*
X29307952Y-42308140D01*
X29430181Y-42345218D01*
X29581000Y-42360072D01*
X29851000Y-42360072D01*
X30001819Y-42345218D01*
X30146842Y-42301225D01*
X30226000Y-42258914D01*
X30305158Y-42301225D01*
X30450181Y-42345218D01*
X30601000Y-42360072D01*
X30788818Y-42360072D01*
X30791962Y-42375878D01*
X30869983Y-42564236D01*
X30983251Y-42733754D01*
X31127414Y-42877917D01*
X31296932Y-42991185D01*
X31485290Y-43069206D01*
X31685249Y-43108980D01*
X31889127Y-43108980D01*
X32089086Y-43069206D01*
X32277444Y-42991185D01*
X32446962Y-42877917D01*
X32591125Y-42733754D01*
X32704393Y-42564236D01*
X32782414Y-42375878D01*
X32822188Y-42175919D01*
X32822188Y-41972041D01*
X32782414Y-41772082D01*
X32704393Y-41583724D01*
X32591125Y-41414206D01*
X32446962Y-41270043D01*
X32277444Y-41156775D01*
X32113078Y-41088692D01*
X32143184Y-41085727D01*
X32277020Y-41045128D01*
X32400363Y-40979200D01*
X32508475Y-40890475D01*
X32530712Y-40863379D01*
X32593284Y-40800807D01*
X32662757Y-41014383D01*
X32820786Y-41310038D01*
X33136347Y-41466048D01*
X34448395Y-40154000D01*
X34807605Y-40154000D01*
X36119653Y-41466048D01*
X36435214Y-41310038D01*
X36626020Y-40935255D01*
X36740044Y-40530449D01*
X36772902Y-40111176D01*
X36723334Y-39693549D01*
X36593243Y-39293617D01*
X36435214Y-38997962D01*
X36119653Y-38841952D01*
X34807605Y-40154000D01*
X34448395Y-40154000D01*
X34434253Y-40139858D01*
X34613858Y-39960253D01*
X34628000Y-39974395D01*
X35940048Y-38662347D01*
X35784038Y-38346786D01*
X35409255Y-38155980D01*
X35187023Y-38093383D01*
X35188377Y-38090878D01*
X35225235Y-37971348D01*
X35235000Y-37849750D01*
X35076250Y-37691000D01*
X34417000Y-37691000D01*
X34417000Y-37711000D01*
X34163000Y-37711000D01*
X34163000Y-37707971D01*
X34173689Y-37706918D01*
X34331087Y-37659172D01*
X34476146Y-37581636D01*
X34560825Y-37512142D01*
X34611794Y-37507122D01*
X34757755Y-37462845D01*
X34806108Y-37437000D01*
X35076250Y-37437000D01*
X35235000Y-37278250D01*
X35225235Y-37156652D01*
X35188377Y-37037122D01*
X35183172Y-37027491D01*
X35223122Y-36895794D01*
X35227934Y-36846933D01*
X35359421Y-36715446D01*
X35391291Y-36689291D01*
X35495636Y-36562146D01*
X35544277Y-36471145D01*
X35949928Y-36876795D01*
%TA.AperFunction,Conductor*%
D33*
G36*
X35949928Y-36876795D02*
G01*
X35949928Y-37884000D01*
X35962188Y-38008482D01*
X35998498Y-38128180D01*
X36057463Y-38238494D01*
X36136815Y-38335185D01*
X36233506Y-38414537D01*
X36343820Y-38473502D01*
X36463518Y-38509812D01*
X36588000Y-38522072D01*
X37151928Y-38522072D01*
X37151928Y-38776000D01*
X37166878Y-38927794D01*
X37206828Y-39059491D01*
X37201623Y-39069122D01*
X37164765Y-39188652D01*
X37155000Y-39310250D01*
X37313750Y-39469000D01*
X37583892Y-39469000D01*
X37632245Y-39494845D01*
X37778206Y-39539122D01*
X37930000Y-39554072D01*
X38247000Y-39554072D01*
X38247000Y-39606007D01*
X38052102Y-39644774D01*
X37863744Y-39722795D01*
X37863437Y-39723000D01*
X37313750Y-39723000D01*
X37155000Y-39881750D01*
X37164765Y-40003348D01*
X37201623Y-40122878D01*
X37261092Y-40232921D01*
X37275933Y-40250837D01*
X37256181Y-40252782D01*
X37111158Y-40296775D01*
X36977504Y-40368214D01*
X36860356Y-40464356D01*
X36764214Y-40581504D01*
X36692775Y-40715158D01*
X36648782Y-40860181D01*
X36633928Y-41011000D01*
X36633928Y-41281000D01*
X36648782Y-41431819D01*
X36692775Y-41576842D01*
X36735086Y-41656000D01*
X36692775Y-41735158D01*
X36648782Y-41880181D01*
X36647867Y-41889470D01*
X36489835Y-41995063D01*
X36367923Y-42116975D01*
X36358274Y-42109057D01*
X36223755Y-42037155D01*
X36077794Y-41992878D01*
X35926000Y-41977928D01*
X35752768Y-41977928D01*
X35784038Y-41961214D01*
X35940048Y-41645653D01*
X34628000Y-40333605D01*
X33315952Y-41645653D01*
X33471962Y-41961214D01*
X33846745Y-42152020D01*
X34056747Y-42211172D01*
X34013844Y-42263941D01*
X33955386Y-42374524D01*
X33919625Y-42494387D01*
X33907935Y-42618923D01*
X33911000Y-42640250D01*
X34069750Y-42799000D01*
X34699000Y-42799000D01*
X34699000Y-42779000D01*
X34867928Y-42779000D01*
X34867928Y-43096000D01*
X34882878Y-43247794D01*
X34927155Y-43393755D01*
X34953000Y-43442108D01*
X34953000Y-43933892D01*
X34927155Y-43982245D01*
X34882878Y-44128206D01*
X34867928Y-44280000D01*
X34867928Y-44620000D01*
X34882878Y-44771794D01*
X34927155Y-44917755D01*
X34953000Y-44966108D01*
X34953000Y-45236250D01*
X35111750Y-45395000D01*
X35233348Y-45385235D01*
X35352878Y-45348377D01*
X35362509Y-45343172D01*
X35370488Y-45345592D01*
X35351582Y-45407918D01*
X35339322Y-45532400D01*
X35351582Y-45656882D01*
X35387892Y-45776580D01*
X35446857Y-45886894D01*
X35526209Y-45983585D01*
X35980613Y-46437989D01*
X35182888Y-46437989D01*
X35148011Y-46434554D01*
X35008826Y-46448262D01*
X34918007Y-46475812D01*
X34874991Y-46488861D01*
X34751648Y-46554789D01*
X34643536Y-46643514D01*
X34621299Y-46670610D01*
X34574909Y-46717000D01*
X34442061Y-46717000D01*
X34242102Y-46756774D01*
X34053744Y-46834795D01*
X33884226Y-46948063D01*
X33740063Y-47092226D01*
X33626795Y-47261744D01*
X33548774Y-47450102D01*
X33509000Y-47650061D01*
X33509000Y-47853939D01*
X33548774Y-48053898D01*
X33626795Y-48242256D01*
X33740063Y-48411774D01*
X33884226Y-48555937D01*
X34053744Y-48669205D01*
X34242102Y-48747226D01*
X34442061Y-48787000D01*
X34645939Y-48787000D01*
X34845898Y-48747226D01*
X35034256Y-48669205D01*
X35203774Y-48555937D01*
X35344480Y-48415231D01*
X35339322Y-48467600D01*
X35351582Y-48592082D01*
X35387892Y-48711780D01*
X35446857Y-48822094D01*
X35526209Y-48918785D01*
X35738341Y-49130917D01*
X35816019Y-49194666D01*
X35879763Y-49272338D01*
X36091895Y-49484470D01*
X36169567Y-49548214D01*
X36233316Y-49625892D01*
X36445448Y-49838024D01*
X36523126Y-49901773D01*
X36586870Y-49979445D01*
X36799002Y-50191577D01*
X36876677Y-50255323D01*
X36940423Y-50332998D01*
X37152555Y-50545130D01*
X37230227Y-50608874D01*
X37293976Y-50686552D01*
X37506108Y-50898684D01*
X37583786Y-50962433D01*
X37647530Y-51040105D01*
X37859662Y-51252237D01*
X37937334Y-51315981D01*
X38001083Y-51393659D01*
X38213215Y-51605791D01*
X38309906Y-51685143D01*
X38420220Y-51744108D01*
X38539918Y-51780418D01*
X38664400Y-51792678D01*
X38788882Y-51780418D01*
X38908580Y-51744108D01*
X39018894Y-51685143D01*
X39115585Y-51605791D01*
X40132000Y-50589376D01*
X40961995Y-51419371D01*
X40551377Y-51829990D01*
X37377948Y-51829990D01*
X37365411Y-51811227D01*
X37221248Y-51667064D01*
X37051730Y-51553796D01*
X36863372Y-51475775D01*
X36663413Y-51436001D01*
X36459535Y-51436001D01*
X36259576Y-51475775D01*
X36071218Y-51553796D01*
X35948189Y-51636001D01*
X34782869Y-51636001D01*
X34478807Y-51331940D01*
X34505000Y-51200260D01*
X34505000Y-50907740D01*
X34447932Y-50620842D01*
X34335990Y-50350589D01*
X34173475Y-50107368D01*
X33966632Y-49900525D01*
X33723411Y-49738010D01*
X33453158Y-49626068D01*
X33166260Y-49569000D01*
X32873740Y-49569000D01*
X32586842Y-49626068D01*
X32316589Y-49738010D01*
X32073368Y-49900525D01*
X31941513Y-50032380D01*
X31919502Y-49959820D01*
X31860537Y-49849506D01*
X31781185Y-49752815D01*
X31684494Y-49673463D01*
X31574180Y-49614498D01*
X31454482Y-49578188D01*
X31330000Y-49565928D01*
X29630000Y-49565928D01*
X29505518Y-49578188D01*
X29385820Y-49614498D01*
X29275506Y-49673463D01*
X29178815Y-49752815D01*
X29099463Y-49849506D01*
X29040498Y-49959820D01*
X29004188Y-50079518D01*
X28991928Y-50204000D01*
X28991928Y-51904000D01*
X29004188Y-52028482D01*
X29040498Y-52148180D01*
X29099463Y-52258494D01*
X29178815Y-52355185D01*
X29275506Y-52434537D01*
X29385820Y-52493502D01*
X29458380Y-52515513D01*
X29326525Y-52647368D01*
X29164010Y-52890589D01*
X29052068Y-53160842D01*
X29046571Y-53188479D01*
X28817001Y-52958910D01*
X28817001Y-52796873D01*
X28820436Y-52761998D01*
X28813309Y-52689637D01*
X28806728Y-52622815D01*
X28766129Y-52488979D01*
X28700201Y-52365636D01*
X28611476Y-52257524D01*
X28584385Y-52235291D01*
X27632314Y-51283221D01*
X27610077Y-51256125D01*
X27501965Y-51167400D01*
X27378622Y-51101472D01*
X27333121Y-51087669D01*
X27300658Y-51026936D01*
X27190992Y-50893308D01*
X27184636Y-50888092D01*
X27262385Y-50824285D01*
X27341737Y-50727594D01*
X27400702Y-50617280D01*
X27437012Y-50497582D01*
X27449272Y-50373100D01*
X27446200Y-50171350D01*
X27287450Y-50012600D01*
X26238200Y-50012600D01*
X26238200Y-50032600D01*
X25984200Y-50032600D01*
X25984200Y-50012600D01*
X25964200Y-50012600D01*
X25964200Y-49758600D01*
X25984200Y-49758600D01*
X25984200Y-49738600D01*
X26238200Y-49738600D01*
X26238200Y-49758600D01*
X27287450Y-49758600D01*
X27446200Y-49599850D01*
X27449272Y-49398100D01*
X27437012Y-49273618D01*
X27400702Y-49153920D01*
X27341737Y-49043606D01*
X27262385Y-48946915D01*
X27165694Y-48867563D01*
X27135839Y-48851605D01*
X27190992Y-48806342D01*
X27300658Y-48672714D01*
X27382147Y-48520259D01*
X27432328Y-48354835D01*
X27449272Y-48182800D01*
X27449272Y-47695300D01*
X27441182Y-47613160D01*
X28365982Y-46688360D01*
X28519369Y-47058669D01*
X28763962Y-47424729D01*
X29075271Y-47736038D01*
X29441331Y-47980631D01*
X29848075Y-48149110D01*
X30279872Y-48235000D01*
X30720128Y-48235000D01*
X31151925Y-48149110D01*
X31558669Y-47980631D01*
X31924729Y-47736038D01*
X32236038Y-47424729D01*
X32480631Y-47058669D01*
X32649110Y-46651925D01*
X32735000Y-46220128D01*
X32735000Y-45779872D01*
X32649110Y-45348075D01*
X32480631Y-44941331D01*
X32357517Y-44757077D01*
X33907935Y-44757077D01*
X33919625Y-44881613D01*
X33955386Y-45001476D01*
X34013844Y-45112059D01*
X34092753Y-45209113D01*
X34189079Y-45288908D01*
X34299122Y-45348377D01*
X34418652Y-45385235D01*
X34540250Y-45395000D01*
X34699000Y-45236250D01*
X34699000Y-44577000D01*
X34069750Y-44577000D01*
X33911000Y-44735750D01*
X33907935Y-44757077D01*
X32357517Y-44757077D01*
X32236038Y-44575271D01*
X31924729Y-44263962D01*
X31558669Y-44019369D01*
X31151925Y-43850890D01*
X30720128Y-43765000D01*
X30279872Y-43765000D01*
X29848075Y-43850890D01*
X29441331Y-44019369D01*
X29075271Y-44263962D01*
X28904000Y-44435233D01*
X28904000Y-43233077D01*
X33907935Y-43233077D01*
X33919625Y-43357613D01*
X33955386Y-43477476D01*
X34013844Y-43588059D01*
X34092753Y-43685113D01*
X34096238Y-43688000D01*
X34092753Y-43690887D01*
X34013844Y-43787941D01*
X33955386Y-43898524D01*
X33919625Y-44018387D01*
X33907935Y-44142923D01*
X33911000Y-44164250D01*
X34069750Y-44323000D01*
X34699000Y-44323000D01*
X34699000Y-43053000D01*
X34069750Y-43053000D01*
X33911000Y-43211750D01*
X33907935Y-43233077D01*
X28904000Y-43233077D01*
X28904000Y-42712091D01*
X29307952Y-42308140D01*
X29430181Y-42345218D01*
X29581000Y-42360072D01*
X29851000Y-42360072D01*
X30001819Y-42345218D01*
X30146842Y-42301225D01*
X30226000Y-42258914D01*
X30305158Y-42301225D01*
X30450181Y-42345218D01*
X30601000Y-42360072D01*
X30788818Y-42360072D01*
X30791962Y-42375878D01*
X30869983Y-42564236D01*
X30983251Y-42733754D01*
X31127414Y-42877917D01*
X31296932Y-42991185D01*
X31485290Y-43069206D01*
X31685249Y-43108980D01*
X31889127Y-43108980D01*
X32089086Y-43069206D01*
X32277444Y-42991185D01*
X32446962Y-42877917D01*
X32591125Y-42733754D01*
X32704393Y-42564236D01*
X32782414Y-42375878D01*
X32822188Y-42175919D01*
X32822188Y-41972041D01*
X32782414Y-41772082D01*
X32704393Y-41583724D01*
X32591125Y-41414206D01*
X32446962Y-41270043D01*
X32277444Y-41156775D01*
X32113078Y-41088692D01*
X32143184Y-41085727D01*
X32277020Y-41045128D01*
X32400363Y-40979200D01*
X32508475Y-40890475D01*
X32530712Y-40863379D01*
X32593284Y-40800807D01*
X32662757Y-41014383D01*
X32820786Y-41310038D01*
X33136347Y-41466048D01*
X34448395Y-40154000D01*
X34807605Y-40154000D01*
X36119653Y-41466048D01*
X36435214Y-41310038D01*
X36626020Y-40935255D01*
X36740044Y-40530449D01*
X36772902Y-40111176D01*
X36723334Y-39693549D01*
X36593243Y-39293617D01*
X36435214Y-38997962D01*
X36119653Y-38841952D01*
X34807605Y-40154000D01*
X34448395Y-40154000D01*
X34434253Y-40139858D01*
X34613858Y-39960253D01*
X34628000Y-39974395D01*
X35940048Y-38662347D01*
X35784038Y-38346786D01*
X35409255Y-38155980D01*
X35187023Y-38093383D01*
X35188377Y-38090878D01*
X35225235Y-37971348D01*
X35235000Y-37849750D01*
X35076250Y-37691000D01*
X34417000Y-37691000D01*
X34417000Y-37711000D01*
X34163000Y-37711000D01*
X34163000Y-37707971D01*
X34173689Y-37706918D01*
X34331087Y-37659172D01*
X34476146Y-37581636D01*
X34560825Y-37512142D01*
X34611794Y-37507122D01*
X34757755Y-37462845D01*
X34806108Y-37437000D01*
X35076250Y-37437000D01*
X35235000Y-37278250D01*
X35225235Y-37156652D01*
X35188377Y-37037122D01*
X35183172Y-37027491D01*
X35223122Y-36895794D01*
X35227934Y-36846933D01*
X35359421Y-36715446D01*
X35391291Y-36689291D01*
X35495636Y-36562146D01*
X35544277Y-36471145D01*
X35949928Y-36876795D01*
G37*
%TD.AperFunction*%
D32*
X45264001Y-48225115D02*
X45260565Y-48260000D01*
X45274274Y-48399184D01*
X45314872Y-48533019D01*
X45350246Y-48599199D01*
X45373974Y-48643591D01*
X45288387Y-48651625D01*
X45168524Y-48687386D01*
X45057941Y-48745844D01*
X44960887Y-48824753D01*
X44881092Y-48921079D01*
X44821623Y-49031122D01*
X44784765Y-49150652D01*
X44775000Y-49272250D01*
X44933750Y-49431000D01*
X45593000Y-49431000D01*
X45593000Y-49411000D01*
X45847000Y-49411000D01*
X45847000Y-49431000D01*
X45867000Y-49431000D01*
X45867000Y-49599928D01*
X45550000Y-49599928D01*
X45398206Y-49614878D01*
X45252245Y-49659155D01*
X45207634Y-49683000D01*
X44863252Y-49683000D01*
X44822234Y-49678960D01*
X44781216Y-49683000D01*
X44781215Y-49683000D01*
X44658545Y-49695082D01*
X44501147Y-49742828D01*
X44356088Y-49820364D01*
X44301052Y-49865531D01*
X44266995Y-49893481D01*
X44228943Y-49924709D01*
X44202797Y-49956568D01*
X43428399Y-50730968D01*
X43222496Y-50730968D01*
X43131819Y-50640291D01*
X43251269Y-50520842D01*
X43265411Y-50534984D01*
X43710358Y-50090037D01*
X43710358Y-49938956D01*
X43740874Y-49901773D01*
X43818552Y-49838024D01*
X44030684Y-49625892D01*
X44094433Y-49548214D01*
X44172105Y-49484470D01*
X44384237Y-49272338D01*
X44447981Y-49194666D01*
X44525659Y-49130917D01*
X44737791Y-48918785D01*
X44817143Y-48822094D01*
X44876108Y-48711780D01*
X44912418Y-48592082D01*
X44924678Y-48467600D01*
X44912418Y-48343118D01*
X44876108Y-48223420D01*
X44817143Y-48113106D01*
X44737791Y-48016415D01*
X43721376Y-47000000D01*
X44737791Y-45983585D01*
X44817143Y-45886894D01*
X44876108Y-45776580D01*
X44912418Y-45656882D01*
X44924678Y-45532400D01*
X44912418Y-45407918D01*
X44876108Y-45288220D01*
X44817143Y-45177906D01*
X44737791Y-45081215D01*
X44652419Y-44995843D01*
X44674573Y-44989123D01*
X44808227Y-44917684D01*
X44925375Y-44821542D01*
X45116294Y-44630623D01*
X45212436Y-44513475D01*
X45264000Y-44417005D01*
X45264001Y-48225115D01*
%TA.AperFunction,Conductor*%
D33*
G36*
X45264001Y-48225115D02*
G01*
X45260565Y-48260000D01*
X45274274Y-48399184D01*
X45314872Y-48533019D01*
X45350246Y-48599199D01*
X45373974Y-48643591D01*
X45288387Y-48651625D01*
X45168524Y-48687386D01*
X45057941Y-48745844D01*
X44960887Y-48824753D01*
X44881092Y-48921079D01*
X44821623Y-49031122D01*
X44784765Y-49150652D01*
X44775000Y-49272250D01*
X44933750Y-49431000D01*
X45593000Y-49431000D01*
X45593000Y-49411000D01*
X45847000Y-49411000D01*
X45847000Y-49431000D01*
X45867000Y-49431000D01*
X45867000Y-49599928D01*
X45550000Y-49599928D01*
X45398206Y-49614878D01*
X45252245Y-49659155D01*
X45207634Y-49683000D01*
X44863252Y-49683000D01*
X44822234Y-49678960D01*
X44781216Y-49683000D01*
X44781215Y-49683000D01*
X44658545Y-49695082D01*
X44501147Y-49742828D01*
X44356088Y-49820364D01*
X44301052Y-49865531D01*
X44266995Y-49893481D01*
X44228943Y-49924709D01*
X44202797Y-49956568D01*
X43428399Y-50730968D01*
X43222496Y-50730968D01*
X43131819Y-50640291D01*
X43251269Y-50520842D01*
X43265411Y-50534984D01*
X43710358Y-50090037D01*
X43710358Y-49938956D01*
X43740874Y-49901773D01*
X43818552Y-49838024D01*
X44030684Y-49625892D01*
X44094433Y-49548214D01*
X44172105Y-49484470D01*
X44384237Y-49272338D01*
X44447981Y-49194666D01*
X44525659Y-49130917D01*
X44737791Y-48918785D01*
X44817143Y-48822094D01*
X44876108Y-48711780D01*
X44912418Y-48592082D01*
X44924678Y-48467600D01*
X44912418Y-48343118D01*
X44876108Y-48223420D01*
X44817143Y-48113106D01*
X44737791Y-48016415D01*
X43721376Y-47000000D01*
X44737791Y-45983585D01*
X44817143Y-45886894D01*
X44876108Y-45776580D01*
X44912418Y-45656882D01*
X44924678Y-45532400D01*
X44912418Y-45407918D01*
X44876108Y-45288220D01*
X44817143Y-45177906D01*
X44737791Y-45081215D01*
X44652419Y-44995843D01*
X44674573Y-44989123D01*
X44808227Y-44917684D01*
X44925375Y-44821542D01*
X45116294Y-44630623D01*
X45212436Y-44513475D01*
X45264000Y-44417005D01*
X45264001Y-48225115D01*
G37*
%TD.AperFunction*%
D32*
X39856682Y-46498041D02*
X39805225Y-46498041D01*
X39814013Y-46453863D01*
X39948939Y-46397974D01*
X39972476Y-46382247D01*
X39856682Y-46498041D01*
%TA.AperFunction,Conductor*%
D33*
G36*
X39856682Y-46498041D02*
G01*
X39805225Y-46498041D01*
X39814013Y-46453863D01*
X39948939Y-46397974D01*
X39972476Y-46382247D01*
X39856682Y-46498041D01*
G37*
%TD.AperFunction*%
D32*
X26238200Y-45937050D02*
X26258200Y-45937050D01*
X26258200Y-46191050D01*
X26238200Y-46191050D01*
X26238200Y-46211050D01*
X25984200Y-46211050D01*
X25984200Y-46191050D01*
X25964200Y-46191050D01*
X25964200Y-45937050D01*
X25984200Y-45937050D01*
X25984200Y-45917050D01*
X26238200Y-45917050D01*
X26238200Y-45937050D01*
%TA.AperFunction,Conductor*%
D33*
G36*
X26238200Y-45937050D02*
G01*
X26258200Y-45937050D01*
X26258200Y-46191050D01*
X26238200Y-46191050D01*
X26238200Y-46211050D01*
X25984200Y-46211050D01*
X25984200Y-46191050D01*
X25964200Y-46191050D01*
X25964200Y-45937050D01*
X25984200Y-45937050D01*
X25984200Y-45917050D01*
X26238200Y-45917050D01*
X26238200Y-45937050D01*
G37*
%TD.AperFunction*%
D32*
X27484000Y-45562158D02*
X27448958Y-45597201D01*
X27449272Y-45576550D01*
X27437012Y-45452068D01*
X27400702Y-45332370D01*
X27341737Y-45222056D01*
X27262385Y-45125365D01*
X27165694Y-45046013D01*
X27135839Y-45030055D01*
X27190992Y-44984792D01*
X27300658Y-44851164D01*
X27382147Y-44698709D01*
X27432328Y-44533285D01*
X27449272Y-44361250D01*
X27449272Y-43873750D01*
X27432328Y-43701715D01*
X27382147Y-43536291D01*
X27353463Y-43482628D01*
X27484001Y-43352091D01*
X27484000Y-45562158D01*
%TA.AperFunction,Conductor*%
D33*
G36*
X27484000Y-45562158D02*
G01*
X27448958Y-45597201D01*
X27449272Y-45576550D01*
X27437012Y-45452068D01*
X27400702Y-45332370D01*
X27341737Y-45222056D01*
X27262385Y-45125365D01*
X27165694Y-45046013D01*
X27135839Y-45030055D01*
X27190992Y-44984792D01*
X27300658Y-44851164D01*
X27382147Y-44698709D01*
X27432328Y-44533285D01*
X27449272Y-44361250D01*
X27449272Y-43873750D01*
X27432328Y-43701715D01*
X27382147Y-43536291D01*
X27353463Y-43482628D01*
X27484001Y-43352091D01*
X27484000Y-45562158D01*
G37*
%TD.AperFunction*%
D32*
X33136345Y-25701953D02*
X32820786Y-25857962D01*
X32629980Y-26232745D01*
X32515956Y-26637551D01*
X32483098Y-27056824D01*
X32532666Y-27474451D01*
X32662757Y-27874383D01*
X32820786Y-28170038D01*
X33136347Y-28326048D01*
X34448395Y-27014000D01*
X34434253Y-26999858D01*
X34613858Y-26820253D01*
X34628000Y-26834395D01*
X34642143Y-26820253D01*
X34821748Y-26999858D01*
X34807605Y-27014000D01*
X36119653Y-28326048D01*
X36435214Y-28170038D01*
X36626020Y-27795255D01*
X36740044Y-27390449D01*
X36772902Y-26971176D01*
X36723334Y-26553549D01*
X36593243Y-26153617D01*
X36435214Y-25857962D01*
X36119655Y-25701953D01*
X36161608Y-25660000D01*
X37549857Y-25660000D01*
X37549857Y-28657710D01*
X37549816Y-28657700D01*
X37267488Y-28643783D01*
X36987870Y-28685213D01*
X36721708Y-28780397D01*
X36596486Y-28847329D01*
X36524903Y-29091298D01*
X37338000Y-29904395D01*
X38151097Y-29091298D01*
X38079514Y-28847329D01*
X37824004Y-28726429D01*
X37718568Y-28700000D01*
X42104024Y-28700000D01*
X42101282Y-28745595D01*
X42145039Y-29064675D01*
X42250205Y-29369088D01*
X42343186Y-29543044D01*
X42607587Y-29638808D01*
X43546395Y-28700000D01*
X43933890Y-28700000D01*
X43757143Y-28876748D01*
X43743000Y-28862605D01*
X42787192Y-29818413D01*
X42882956Y-30082814D01*
X43172571Y-30223704D01*
X43484108Y-30305384D01*
X43805595Y-30324718D01*
X44103000Y-30283933D01*
X44103000Y-30352552D01*
X44139892Y-30538022D01*
X44212259Y-30712731D01*
X44317319Y-30869964D01*
X44451036Y-31003681D01*
X44608269Y-31108741D01*
X44782978Y-31181108D01*
X44968448Y-31218000D01*
X45157552Y-31218000D01*
X45343022Y-31181108D01*
X45517731Y-31108741D01*
X45674964Y-31003681D01*
X45808681Y-30869964D01*
X45913741Y-30712731D01*
X45986108Y-30538022D01*
X46023000Y-30352552D01*
X46023000Y-30163448D01*
X45986108Y-29977978D01*
X45913741Y-29803269D01*
X45808681Y-29646036D01*
X45674964Y-29512319D01*
X45517731Y-29407259D01*
X45343022Y-29334892D01*
X45252804Y-29316947D01*
X45283704Y-29253429D01*
X45365384Y-28941892D01*
X45379931Y-28700000D01*
X45554024Y-28700000D01*
X45551282Y-28745595D01*
X45595039Y-29064675D01*
X45700205Y-29369088D01*
X45793186Y-29543044D01*
X46057587Y-29638808D01*
X46996395Y-28700000D01*
X47383890Y-28700000D01*
X47207143Y-28876748D01*
X47193000Y-28862605D01*
X46237192Y-29818413D01*
X46332956Y-30082814D01*
X46622571Y-30223704D01*
X46934108Y-30305384D01*
X47255595Y-30324718D01*
X47574675Y-30280961D01*
X47752601Y-30219493D01*
X47676617Y-30402933D01*
X47633000Y-30622212D01*
X47633000Y-30845788D01*
X47676617Y-31065067D01*
X47748424Y-31238424D01*
X47575067Y-31166617D01*
X47355788Y-31123000D01*
X47132212Y-31123000D01*
X46912933Y-31166617D01*
X46706376Y-31252176D01*
X46520480Y-31376388D01*
X46362388Y-31534480D01*
X46238176Y-31720376D01*
X46152617Y-31926933D01*
X46109000Y-32146212D01*
X46109000Y-32369788D01*
X46152617Y-32589067D01*
X46238176Y-32795624D01*
X46362388Y-32981520D01*
X46520480Y-33139612D01*
X46706376Y-33263824D01*
X46912933Y-33349383D01*
X47132212Y-33393000D01*
X47355788Y-33393000D01*
X47575067Y-33349383D01*
X47748424Y-33277576D01*
X47676617Y-33450933D01*
X47633000Y-33670212D01*
X47633000Y-33893788D01*
X47676617Y-34113067D01*
X47749325Y-34288598D01*
X47451892Y-34210616D01*
X47130405Y-34191282D01*
X46811325Y-34235039D01*
X46506912Y-34340205D01*
X46332956Y-34433186D01*
X46237192Y-34697587D01*
X47193000Y-35653395D01*
X47207143Y-35639253D01*
X47386748Y-35818858D01*
X47372605Y-35833000D01*
X48328413Y-36788808D01*
X48592814Y-36693044D01*
X48733704Y-36403429D01*
X48815384Y-36091892D01*
X48834718Y-35770405D01*
X48790961Y-35451325D01*
X48685795Y-35146912D01*
X48592814Y-34972956D01*
X48328415Y-34877193D01*
X48362893Y-34842715D01*
X48436933Y-34873383D01*
X48656212Y-34917000D01*
X48879788Y-34917000D01*
X49099067Y-34873383D01*
X49305624Y-34787824D01*
X49340000Y-34764855D01*
X49340000Y-43746112D01*
X49301185Y-43698815D01*
X49204494Y-43619463D01*
X49094180Y-43560498D01*
X48974482Y-43524188D01*
X48850000Y-43511928D01*
X48285750Y-43515000D01*
X48127000Y-43673750D01*
X48127000Y-44873000D01*
X48147000Y-44873000D01*
X48147000Y-45127000D01*
X48127000Y-45127000D01*
X48127000Y-45147000D01*
X47873000Y-45147000D01*
X47873000Y-45127000D01*
X47853000Y-45127000D01*
X47853000Y-44873000D01*
X47873000Y-44873000D01*
X47873000Y-43673750D01*
X47714250Y-43515000D01*
X47659390Y-43514701D01*
X48306020Y-42868072D01*
X48399000Y-42868072D01*
X48549819Y-42853218D01*
X48694842Y-42809225D01*
X48828496Y-42737786D01*
X48945644Y-42641644D01*
X49041786Y-42524496D01*
X49113225Y-42390842D01*
X49157218Y-42245819D01*
X49172072Y-42095000D01*
X49172072Y-41725000D01*
X49157218Y-41574181D01*
X49113225Y-41429158D01*
X49041786Y-41295504D01*
X48945644Y-41178356D01*
X48828496Y-41082214D01*
X48694842Y-41010775D01*
X48549819Y-40966782D01*
X48399000Y-40951928D01*
X48129000Y-40951928D01*
X47978181Y-40966782D01*
X47934954Y-40979895D01*
X47903128Y-40874980D01*
X47837200Y-40751637D01*
X47803176Y-40710179D01*
X47770707Y-40670615D01*
X47770704Y-40670612D01*
X47748474Y-40643525D01*
X47721389Y-40621297D01*
X47583671Y-40483579D01*
X47625000Y-40442250D01*
X47625000Y-39243000D01*
X47879000Y-39243000D01*
X47879000Y-40442250D01*
X48037750Y-40601000D01*
X48602000Y-40604072D01*
X48726482Y-40591812D01*
X48846180Y-40555502D01*
X48956494Y-40496537D01*
X49053185Y-40417185D01*
X49132537Y-40320494D01*
X49191502Y-40210180D01*
X49227812Y-40090482D01*
X49240072Y-39966000D01*
X49237000Y-39401750D01*
X49078250Y-39243000D01*
X47879000Y-39243000D01*
X47625000Y-39243000D01*
X47605000Y-39243000D01*
X47605000Y-38989000D01*
X47625000Y-38989000D01*
X47625000Y-37789750D01*
X47879000Y-37789750D01*
X47879000Y-38989000D01*
X49078250Y-38989000D01*
X49237000Y-38830250D01*
X49240072Y-38266000D01*
X49227812Y-38141518D01*
X49191502Y-38021820D01*
X49132537Y-37911506D01*
X49053185Y-37814815D01*
X48956494Y-37735463D01*
X48846180Y-37676498D01*
X48726482Y-37640188D01*
X48602000Y-37627928D01*
X48037750Y-37631000D01*
X47879000Y-37789750D01*
X47625000Y-37789750D01*
X47466250Y-37631000D01*
X46902000Y-37627928D01*
X46777518Y-37640188D01*
X46657820Y-37676498D01*
X46547506Y-37735463D01*
X46450815Y-37814815D01*
X46371463Y-37911506D01*
X46312498Y-38021820D01*
X46290487Y-38094380D01*
X46158632Y-37962525D01*
X45915411Y-37800010D01*
X45645158Y-37688068D01*
X45358260Y-37631000D01*
X45065740Y-37631000D01*
X44778842Y-37688068D01*
X44508589Y-37800010D01*
X44265368Y-37962525D01*
X44058525Y-38169368D01*
X43896010Y-38412589D01*
X43862311Y-38493945D01*
X43871000Y-38385750D01*
X43712250Y-38227000D01*
X43442108Y-38227000D01*
X43393755Y-38201155D01*
X43247794Y-38156878D01*
X43096000Y-38141928D01*
X42779000Y-38141928D01*
X42779000Y-37973000D01*
X42799000Y-37973000D01*
X42799000Y-37953000D01*
X43053000Y-37953000D01*
X43053000Y-37973000D01*
X43712250Y-37973000D01*
X43871000Y-37814250D01*
X43861235Y-37692652D01*
X43824377Y-37573122D01*
X43770042Y-37472580D01*
X43805595Y-37474718D01*
X44124675Y-37430961D01*
X44429088Y-37325795D01*
X44603044Y-37232814D01*
X44698808Y-36968413D01*
X46237192Y-36968413D01*
X46332956Y-37232814D01*
X46622571Y-37373704D01*
X46934108Y-37455384D01*
X47255595Y-37474718D01*
X47574675Y-37430961D01*
X47879088Y-37325795D01*
X48053044Y-37232814D01*
X48148808Y-36968413D01*
X47193000Y-36012605D01*
X46237192Y-36968413D01*
X44698808Y-36968413D01*
X43743000Y-36012605D01*
X43728858Y-36026748D01*
X43549253Y-35847143D01*
X43563395Y-35833000D01*
X42607587Y-34877192D01*
X42343186Y-34972956D01*
X42202296Y-35262571D01*
X42120616Y-35574108D01*
X42101282Y-35895595D01*
X42104263Y-35917333D01*
X42090000Y-35915928D01*
X41775750Y-35919000D01*
X41649224Y-36045526D01*
X41675000Y-35915939D01*
X41675000Y-35712061D01*
X41635226Y-35512102D01*
X41557205Y-35323744D01*
X41443937Y-35154226D01*
X41299774Y-35010063D01*
X41249831Y-34976692D01*
X41279218Y-34879819D01*
X41294072Y-34729000D01*
X41294072Y-34697587D01*
X42787192Y-34697587D01*
X43743000Y-35653395D01*
X43757143Y-35639253D01*
X43936748Y-35818858D01*
X43922605Y-35833000D01*
X44878413Y-36788808D01*
X45142814Y-36693044D01*
X45283704Y-36403429D01*
X45365384Y-36091892D01*
X45377189Y-35895595D01*
X45551282Y-35895595D01*
X45595039Y-36214675D01*
X45700205Y-36519088D01*
X45793186Y-36693044D01*
X46057587Y-36788808D01*
X47013395Y-35833000D01*
X46057587Y-34877192D01*
X45793186Y-34972956D01*
X45652296Y-35262571D01*
X45570616Y-35574108D01*
X45551282Y-35895595D01*
X45377189Y-35895595D01*
X45384718Y-35770405D01*
X45340961Y-35451325D01*
X45253744Y-35198866D01*
X45343022Y-35181108D01*
X45517731Y-35108741D01*
X45674964Y-35003681D01*
X45808681Y-34869964D01*
X45913741Y-34712731D01*
X45986108Y-34538022D01*
X46023000Y-34352552D01*
X46023000Y-34163448D01*
X45986108Y-33977978D01*
X45913741Y-33803269D01*
X45808681Y-33646036D01*
X45674964Y-33512319D01*
X45517731Y-33407259D01*
X45343022Y-33334892D01*
X45157552Y-33298000D01*
X44968448Y-33298000D01*
X44782978Y-33334892D01*
X44608269Y-33407259D01*
X44451036Y-33512319D01*
X44317319Y-33646036D01*
X44212259Y-33803269D01*
X44139892Y-33977978D01*
X44103000Y-34163448D01*
X44103000Y-34237125D01*
X44001892Y-34210616D01*
X43680405Y-34191282D01*
X43361325Y-34235039D01*
X43056912Y-34340205D01*
X42882956Y-34433186D01*
X42787192Y-34697587D01*
X41294072Y-34697587D01*
X41294072Y-34359000D01*
X41279218Y-34208181D01*
X41260891Y-34147765D01*
X41323155Y-34085501D01*
X41436423Y-33915983D01*
X41514444Y-33727625D01*
X41554218Y-33527666D01*
X41554218Y-33323788D01*
X41514444Y-33123829D01*
X41436423Y-32935471D01*
X41323155Y-32765953D01*
X41178992Y-32621790D01*
X41167964Y-32614421D01*
X41237225Y-32484842D01*
X41281218Y-32339819D01*
X41296072Y-32189000D01*
X41296072Y-31819000D01*
X41281218Y-31668181D01*
X41237225Y-31523158D01*
X41165786Y-31389504D01*
X41069644Y-31272356D01*
X40952496Y-31176214D01*
X40818842Y-31104775D01*
X40673819Y-31060782D01*
X40523000Y-31045928D01*
X40253000Y-31045928D01*
X40102181Y-31060782D01*
X39957158Y-31104775D01*
X39878000Y-31147086D01*
X39798842Y-31104775D01*
X39653819Y-31060782D01*
X39503000Y-31045928D01*
X39233000Y-31045928D01*
X39082181Y-31060782D01*
X38937158Y-31104775D01*
X38803504Y-31176214D01*
X38720907Y-31244000D01*
X38102010Y-31244000D01*
X38151097Y-31076702D01*
X37338000Y-30263605D01*
X36524903Y-31076702D01*
X36596486Y-31320671D01*
X36625341Y-31334324D01*
X36423241Y-31469363D01*
X36223363Y-31669241D01*
X36066320Y-31904273D01*
X36007420Y-32046471D01*
X35936405Y-31913613D01*
X35825962Y-31779038D01*
X35691387Y-31668595D01*
X35537851Y-31586528D01*
X35371255Y-31535992D01*
X35198001Y-31518928D01*
X34397999Y-31518928D01*
X34224745Y-31535992D01*
X34058149Y-31586528D01*
X33904613Y-31668595D01*
X33770038Y-31779038D01*
X33659595Y-31913613D01*
X33577528Y-32067149D01*
X33526992Y-32233745D01*
X33509928Y-32406999D01*
X33509928Y-33032870D01*
X33502939Y-33031480D01*
X33299061Y-33031480D01*
X33099102Y-33071254D01*
X32910744Y-33149275D01*
X32741226Y-33262543D01*
X32597063Y-33406706D01*
X32483795Y-33576224D01*
X32405774Y-33764582D01*
X32366000Y-33964541D01*
X32366000Y-34064660D01*
X32280896Y-34007795D01*
X32092538Y-33929774D01*
X31892579Y-33890000D01*
X31688701Y-33890000D01*
X31488742Y-33929774D01*
X31300384Y-34007795D01*
X31130866Y-34121063D01*
X30986703Y-34265226D01*
X30873435Y-34434744D01*
X30795414Y-34623102D01*
X30766548Y-34768225D01*
X30288845Y-35245928D01*
X29222000Y-35245928D01*
X29097518Y-35258188D01*
X28977820Y-35294498D01*
X28867506Y-35353463D01*
X28822000Y-35390809D01*
X28776494Y-35353463D01*
X28666180Y-35294498D01*
X28546482Y-35258188D01*
X28422000Y-35245928D01*
X27957750Y-35249000D01*
X27799000Y-35407750D01*
X27799000Y-36757000D01*
X27819000Y-36757000D01*
X27819000Y-37011000D01*
X27799000Y-37011000D01*
X27799000Y-37031000D01*
X27545000Y-37031000D01*
X27545000Y-37011000D01*
X26445750Y-37011000D01*
X26287000Y-37169750D01*
X26283928Y-37884000D01*
X26296188Y-38008482D01*
X26332498Y-38128180D01*
X26391463Y-38238494D01*
X26470815Y-38335185D01*
X26567506Y-38414537D01*
X26677820Y-38473502D01*
X26797518Y-38509812D01*
X26922000Y-38522072D01*
X27386250Y-38519000D01*
X27544998Y-38360252D01*
X27544998Y-38519000D01*
X27561307Y-38519000D01*
X27557935Y-38554923D01*
X27561000Y-38576250D01*
X27719750Y-38735000D01*
X28349000Y-38735000D01*
X28349000Y-38715000D01*
X28517928Y-38715000D01*
X28517928Y-39032000D01*
X28532878Y-39183794D01*
X28577155Y-39329755D01*
X28603000Y-39378108D01*
X28603000Y-39648250D01*
X28761750Y-39807000D01*
X28883348Y-39797235D01*
X28932574Y-39782056D01*
X28866775Y-39905158D01*
X28842401Y-39985507D01*
X27371577Y-41456332D01*
X27341737Y-41400506D01*
X27262385Y-41303815D01*
X27165694Y-41224463D01*
X27055380Y-41165498D01*
X26935682Y-41129188D01*
X26811200Y-41116928D01*
X26396950Y-41120000D01*
X26238200Y-41278750D01*
X26238200Y-42115500D01*
X26258200Y-42115500D01*
X26258200Y-42369500D01*
X26238200Y-42369500D01*
X26238200Y-42389500D01*
X25984200Y-42389500D01*
X25984200Y-42369500D01*
X25964200Y-42369500D01*
X25964200Y-42115500D01*
X25984200Y-42115500D01*
X25984200Y-41278750D01*
X25825450Y-41120000D01*
X25660000Y-41118773D01*
X25660000Y-39169077D01*
X27557935Y-39169077D01*
X27569625Y-39293613D01*
X27605386Y-39413476D01*
X27663844Y-39524059D01*
X27742753Y-39621113D01*
X27839079Y-39700908D01*
X27949122Y-39760377D01*
X28068652Y-39797235D01*
X28190250Y-39807000D01*
X28349000Y-39648250D01*
X28349000Y-38989000D01*
X27719750Y-38989000D01*
X27561000Y-39147750D01*
X27557935Y-39169077D01*
X25660000Y-39169077D01*
X25660000Y-35884000D01*
X26283928Y-35884000D01*
X26287000Y-36598250D01*
X26445750Y-36757000D01*
X27545000Y-36757000D01*
X27545000Y-35407750D01*
X27386250Y-35249000D01*
X26922000Y-35245928D01*
X26797518Y-35258188D01*
X26677820Y-35294498D01*
X26567506Y-35353463D01*
X26470815Y-35432815D01*
X26391463Y-35529506D01*
X26332498Y-35639820D01*
X26296188Y-35759518D01*
X26283928Y-35884000D01*
X25660000Y-35884000D01*
X25660000Y-29584000D01*
X27433928Y-29584000D01*
X27433928Y-31584000D01*
X27446188Y-31708482D01*
X27482498Y-31828180D01*
X27541463Y-31938494D01*
X27620815Y-32035185D01*
X27717506Y-32114537D01*
X27827820Y-32173502D01*
X27947518Y-32209812D01*
X28072000Y-32222072D01*
X29332125Y-32222072D01*
X29312920Y-32318621D01*
X29312920Y-32522499D01*
X29352694Y-32722458D01*
X29430715Y-32910816D01*
X29543983Y-33080334D01*
X29688146Y-33224497D01*
X29857664Y-33337765D01*
X30046022Y-33415786D01*
X30245981Y-33455560D01*
X30449859Y-33455560D01*
X30649818Y-33415786D01*
X30838176Y-33337765D01*
X31007694Y-33224497D01*
X31151857Y-33080334D01*
X31265125Y-32910816D01*
X31343146Y-32722458D01*
X31382920Y-32522499D01*
X31382920Y-32318621D01*
X31363715Y-32222072D01*
X31872000Y-32222072D01*
X31996482Y-32209812D01*
X32116180Y-32173502D01*
X32226494Y-32114537D01*
X32323185Y-32035185D01*
X32402537Y-31938494D01*
X32461502Y-31828180D01*
X32497812Y-31708482D01*
X32510072Y-31584000D01*
X32510072Y-30154512D01*
X35897783Y-30154512D01*
X35939213Y-30434130D01*
X36034397Y-30700292D01*
X36101329Y-30825514D01*
X36345298Y-30897097D01*
X37158395Y-30084000D01*
X37517605Y-30084000D01*
X38330702Y-30897097D01*
X38574671Y-30825514D01*
X38695571Y-30570004D01*
X38764300Y-30295816D01*
X38778217Y-30013488D01*
X38736787Y-29733870D01*
X38641603Y-29467708D01*
X38574671Y-29342486D01*
X38330702Y-29270903D01*
X37517605Y-30084000D01*
X37158395Y-30084000D01*
X36345298Y-29270903D01*
X36101329Y-29342486D01*
X35980429Y-29597996D01*
X35911700Y-29872184D01*
X35897783Y-30154512D01*
X32510072Y-30154512D01*
X32510072Y-29584000D01*
X32497812Y-29459518D01*
X32461502Y-29339820D01*
X32402537Y-29229506D01*
X32323185Y-29132815D01*
X32226494Y-29053463D01*
X32116180Y-28994498D01*
X31996482Y-28958188D01*
X31872000Y-28945928D01*
X28072000Y-28945928D01*
X27947518Y-28958188D01*
X27827820Y-28994498D01*
X27717506Y-29053463D01*
X27620815Y-29132815D01*
X27541463Y-29229506D01*
X27482498Y-29339820D01*
X27446188Y-29459518D01*
X27433928Y-29584000D01*
X25660000Y-29584000D01*
X25660000Y-28505653D01*
X33315952Y-28505653D01*
X33471962Y-28821214D01*
X33846745Y-29012020D01*
X34251551Y-29126044D01*
X34670824Y-29158902D01*
X35088451Y-29109334D01*
X35488383Y-28979243D01*
X35784038Y-28821214D01*
X35940048Y-28505653D01*
X34628000Y-27193605D01*
X33315952Y-28505653D01*
X25660000Y-28505653D01*
X25660000Y-25660000D01*
X33094392Y-25660000D01*
X33136345Y-25701953D01*
%TA.AperFunction,Conductor*%
D33*
G36*
X33136345Y-25701953D02*
G01*
X32820786Y-25857962D01*
X32629980Y-26232745D01*
X32515956Y-26637551D01*
X32483098Y-27056824D01*
X32532666Y-27474451D01*
X32662757Y-27874383D01*
X32820786Y-28170038D01*
X33136347Y-28326048D01*
X34448395Y-27014000D01*
X34434253Y-26999858D01*
X34613858Y-26820253D01*
X34628000Y-26834395D01*
X34642143Y-26820253D01*
X34821748Y-26999858D01*
X34807605Y-27014000D01*
X36119653Y-28326048D01*
X36435214Y-28170038D01*
X36626020Y-27795255D01*
X36740044Y-27390449D01*
X36772902Y-26971176D01*
X36723334Y-26553549D01*
X36593243Y-26153617D01*
X36435214Y-25857962D01*
X36119655Y-25701953D01*
X36161608Y-25660000D01*
X37549857Y-25660000D01*
X37549857Y-28657710D01*
X37549816Y-28657700D01*
X37267488Y-28643783D01*
X36987870Y-28685213D01*
X36721708Y-28780397D01*
X36596486Y-28847329D01*
X36524903Y-29091298D01*
X37338000Y-29904395D01*
X38151097Y-29091298D01*
X38079514Y-28847329D01*
X37824004Y-28726429D01*
X37718568Y-28700000D01*
X42104024Y-28700000D01*
X42101282Y-28745595D01*
X42145039Y-29064675D01*
X42250205Y-29369088D01*
X42343186Y-29543044D01*
X42607587Y-29638808D01*
X43546395Y-28700000D01*
X43933890Y-28700000D01*
X43757143Y-28876748D01*
X43743000Y-28862605D01*
X42787192Y-29818413D01*
X42882956Y-30082814D01*
X43172571Y-30223704D01*
X43484108Y-30305384D01*
X43805595Y-30324718D01*
X44103000Y-30283933D01*
X44103000Y-30352552D01*
X44139892Y-30538022D01*
X44212259Y-30712731D01*
X44317319Y-30869964D01*
X44451036Y-31003681D01*
X44608269Y-31108741D01*
X44782978Y-31181108D01*
X44968448Y-31218000D01*
X45157552Y-31218000D01*
X45343022Y-31181108D01*
X45517731Y-31108741D01*
X45674964Y-31003681D01*
X45808681Y-30869964D01*
X45913741Y-30712731D01*
X45986108Y-30538022D01*
X46023000Y-30352552D01*
X46023000Y-30163448D01*
X45986108Y-29977978D01*
X45913741Y-29803269D01*
X45808681Y-29646036D01*
X45674964Y-29512319D01*
X45517731Y-29407259D01*
X45343022Y-29334892D01*
X45252804Y-29316947D01*
X45283704Y-29253429D01*
X45365384Y-28941892D01*
X45379931Y-28700000D01*
X45554024Y-28700000D01*
X45551282Y-28745595D01*
X45595039Y-29064675D01*
X45700205Y-29369088D01*
X45793186Y-29543044D01*
X46057587Y-29638808D01*
X46996395Y-28700000D01*
X47383890Y-28700000D01*
X47207143Y-28876748D01*
X47193000Y-28862605D01*
X46237192Y-29818413D01*
X46332956Y-30082814D01*
X46622571Y-30223704D01*
X46934108Y-30305384D01*
X47255595Y-30324718D01*
X47574675Y-30280961D01*
X47752601Y-30219493D01*
X47676617Y-30402933D01*
X47633000Y-30622212D01*
X47633000Y-30845788D01*
X47676617Y-31065067D01*
X47748424Y-31238424D01*
X47575067Y-31166617D01*
X47355788Y-31123000D01*
X47132212Y-31123000D01*
X46912933Y-31166617D01*
X46706376Y-31252176D01*
X46520480Y-31376388D01*
X46362388Y-31534480D01*
X46238176Y-31720376D01*
X46152617Y-31926933D01*
X46109000Y-32146212D01*
X46109000Y-32369788D01*
X46152617Y-32589067D01*
X46238176Y-32795624D01*
X46362388Y-32981520D01*
X46520480Y-33139612D01*
X46706376Y-33263824D01*
X46912933Y-33349383D01*
X47132212Y-33393000D01*
X47355788Y-33393000D01*
X47575067Y-33349383D01*
X47748424Y-33277576D01*
X47676617Y-33450933D01*
X47633000Y-33670212D01*
X47633000Y-33893788D01*
X47676617Y-34113067D01*
X47749325Y-34288598D01*
X47451892Y-34210616D01*
X47130405Y-34191282D01*
X46811325Y-34235039D01*
X46506912Y-34340205D01*
X46332956Y-34433186D01*
X46237192Y-34697587D01*
X47193000Y-35653395D01*
X47207143Y-35639253D01*
X47386748Y-35818858D01*
X47372605Y-35833000D01*
X48328413Y-36788808D01*
X48592814Y-36693044D01*
X48733704Y-36403429D01*
X48815384Y-36091892D01*
X48834718Y-35770405D01*
X48790961Y-35451325D01*
X48685795Y-35146912D01*
X48592814Y-34972956D01*
X48328415Y-34877193D01*
X48362893Y-34842715D01*
X48436933Y-34873383D01*
X48656212Y-34917000D01*
X48879788Y-34917000D01*
X49099067Y-34873383D01*
X49305624Y-34787824D01*
X49340000Y-34764855D01*
X49340000Y-43746112D01*
X49301185Y-43698815D01*
X49204494Y-43619463D01*
X49094180Y-43560498D01*
X48974482Y-43524188D01*
X48850000Y-43511928D01*
X48285750Y-43515000D01*
X48127000Y-43673750D01*
X48127000Y-44873000D01*
X48147000Y-44873000D01*
X48147000Y-45127000D01*
X48127000Y-45127000D01*
X48127000Y-45147000D01*
X47873000Y-45147000D01*
X47873000Y-45127000D01*
X47853000Y-45127000D01*
X47853000Y-44873000D01*
X47873000Y-44873000D01*
X47873000Y-43673750D01*
X47714250Y-43515000D01*
X47659390Y-43514701D01*
X48306020Y-42868072D01*
X48399000Y-42868072D01*
X48549819Y-42853218D01*
X48694842Y-42809225D01*
X48828496Y-42737786D01*
X48945644Y-42641644D01*
X49041786Y-42524496D01*
X49113225Y-42390842D01*
X49157218Y-42245819D01*
X49172072Y-42095000D01*
X49172072Y-41725000D01*
X49157218Y-41574181D01*
X49113225Y-41429158D01*
X49041786Y-41295504D01*
X48945644Y-41178356D01*
X48828496Y-41082214D01*
X48694842Y-41010775D01*
X48549819Y-40966782D01*
X48399000Y-40951928D01*
X48129000Y-40951928D01*
X47978181Y-40966782D01*
X47934954Y-40979895D01*
X47903128Y-40874980D01*
X47837200Y-40751637D01*
X47803176Y-40710179D01*
X47770707Y-40670615D01*
X47770704Y-40670612D01*
X47748474Y-40643525D01*
X47721389Y-40621297D01*
X47583671Y-40483579D01*
X47625000Y-40442250D01*
X47625000Y-39243000D01*
X47879000Y-39243000D01*
X47879000Y-40442250D01*
X48037750Y-40601000D01*
X48602000Y-40604072D01*
X48726482Y-40591812D01*
X48846180Y-40555502D01*
X48956494Y-40496537D01*
X49053185Y-40417185D01*
X49132537Y-40320494D01*
X49191502Y-40210180D01*
X49227812Y-40090482D01*
X49240072Y-39966000D01*
X49237000Y-39401750D01*
X49078250Y-39243000D01*
X47879000Y-39243000D01*
X47625000Y-39243000D01*
X47605000Y-39243000D01*
X47605000Y-38989000D01*
X47625000Y-38989000D01*
X47625000Y-37789750D01*
X47879000Y-37789750D01*
X47879000Y-38989000D01*
X49078250Y-38989000D01*
X49237000Y-38830250D01*
X49240072Y-38266000D01*
X49227812Y-38141518D01*
X49191502Y-38021820D01*
X49132537Y-37911506D01*
X49053185Y-37814815D01*
X48956494Y-37735463D01*
X48846180Y-37676498D01*
X48726482Y-37640188D01*
X48602000Y-37627928D01*
X48037750Y-37631000D01*
X47879000Y-37789750D01*
X47625000Y-37789750D01*
X47466250Y-37631000D01*
X46902000Y-37627928D01*
X46777518Y-37640188D01*
X46657820Y-37676498D01*
X46547506Y-37735463D01*
X46450815Y-37814815D01*
X46371463Y-37911506D01*
X46312498Y-38021820D01*
X46290487Y-38094380D01*
X46158632Y-37962525D01*
X45915411Y-37800010D01*
X45645158Y-37688068D01*
X45358260Y-37631000D01*
X45065740Y-37631000D01*
X44778842Y-37688068D01*
X44508589Y-37800010D01*
X44265368Y-37962525D01*
X44058525Y-38169368D01*
X43896010Y-38412589D01*
X43862311Y-38493945D01*
X43871000Y-38385750D01*
X43712250Y-38227000D01*
X43442108Y-38227000D01*
X43393755Y-38201155D01*
X43247794Y-38156878D01*
X43096000Y-38141928D01*
X42779000Y-38141928D01*
X42779000Y-37973000D01*
X42799000Y-37973000D01*
X42799000Y-37953000D01*
X43053000Y-37953000D01*
X43053000Y-37973000D01*
X43712250Y-37973000D01*
X43871000Y-37814250D01*
X43861235Y-37692652D01*
X43824377Y-37573122D01*
X43770042Y-37472580D01*
X43805595Y-37474718D01*
X44124675Y-37430961D01*
X44429088Y-37325795D01*
X44603044Y-37232814D01*
X44698808Y-36968413D01*
X46237192Y-36968413D01*
X46332956Y-37232814D01*
X46622571Y-37373704D01*
X46934108Y-37455384D01*
X47255595Y-37474718D01*
X47574675Y-37430961D01*
X47879088Y-37325795D01*
X48053044Y-37232814D01*
X48148808Y-36968413D01*
X47193000Y-36012605D01*
X46237192Y-36968413D01*
X44698808Y-36968413D01*
X43743000Y-36012605D01*
X43728858Y-36026748D01*
X43549253Y-35847143D01*
X43563395Y-35833000D01*
X42607587Y-34877192D01*
X42343186Y-34972956D01*
X42202296Y-35262571D01*
X42120616Y-35574108D01*
X42101282Y-35895595D01*
X42104263Y-35917333D01*
X42090000Y-35915928D01*
X41775750Y-35919000D01*
X41649224Y-36045526D01*
X41675000Y-35915939D01*
X41675000Y-35712061D01*
X41635226Y-35512102D01*
X41557205Y-35323744D01*
X41443937Y-35154226D01*
X41299774Y-35010063D01*
X41249831Y-34976692D01*
X41279218Y-34879819D01*
X41294072Y-34729000D01*
X41294072Y-34697587D01*
X42787192Y-34697587D01*
X43743000Y-35653395D01*
X43757143Y-35639253D01*
X43936748Y-35818858D01*
X43922605Y-35833000D01*
X44878413Y-36788808D01*
X45142814Y-36693044D01*
X45283704Y-36403429D01*
X45365384Y-36091892D01*
X45377189Y-35895595D01*
X45551282Y-35895595D01*
X45595039Y-36214675D01*
X45700205Y-36519088D01*
X45793186Y-36693044D01*
X46057587Y-36788808D01*
X47013395Y-35833000D01*
X46057587Y-34877192D01*
X45793186Y-34972956D01*
X45652296Y-35262571D01*
X45570616Y-35574108D01*
X45551282Y-35895595D01*
X45377189Y-35895595D01*
X45384718Y-35770405D01*
X45340961Y-35451325D01*
X45253744Y-35198866D01*
X45343022Y-35181108D01*
X45517731Y-35108741D01*
X45674964Y-35003681D01*
X45808681Y-34869964D01*
X45913741Y-34712731D01*
X45986108Y-34538022D01*
X46023000Y-34352552D01*
X46023000Y-34163448D01*
X45986108Y-33977978D01*
X45913741Y-33803269D01*
X45808681Y-33646036D01*
X45674964Y-33512319D01*
X45517731Y-33407259D01*
X45343022Y-33334892D01*
X45157552Y-33298000D01*
X44968448Y-33298000D01*
X44782978Y-33334892D01*
X44608269Y-33407259D01*
X44451036Y-33512319D01*
X44317319Y-33646036D01*
X44212259Y-33803269D01*
X44139892Y-33977978D01*
X44103000Y-34163448D01*
X44103000Y-34237125D01*
X44001892Y-34210616D01*
X43680405Y-34191282D01*
X43361325Y-34235039D01*
X43056912Y-34340205D01*
X42882956Y-34433186D01*
X42787192Y-34697587D01*
X41294072Y-34697587D01*
X41294072Y-34359000D01*
X41279218Y-34208181D01*
X41260891Y-34147765D01*
X41323155Y-34085501D01*
X41436423Y-33915983D01*
X41514444Y-33727625D01*
X41554218Y-33527666D01*
X41554218Y-33323788D01*
X41514444Y-33123829D01*
X41436423Y-32935471D01*
X41323155Y-32765953D01*
X41178992Y-32621790D01*
X41167964Y-32614421D01*
X41237225Y-32484842D01*
X41281218Y-32339819D01*
X41296072Y-32189000D01*
X41296072Y-31819000D01*
X41281218Y-31668181D01*
X41237225Y-31523158D01*
X41165786Y-31389504D01*
X41069644Y-31272356D01*
X40952496Y-31176214D01*
X40818842Y-31104775D01*
X40673819Y-31060782D01*
X40523000Y-31045928D01*
X40253000Y-31045928D01*
X40102181Y-31060782D01*
X39957158Y-31104775D01*
X39878000Y-31147086D01*
X39798842Y-31104775D01*
X39653819Y-31060782D01*
X39503000Y-31045928D01*
X39233000Y-31045928D01*
X39082181Y-31060782D01*
X38937158Y-31104775D01*
X38803504Y-31176214D01*
X38720907Y-31244000D01*
X38102010Y-31244000D01*
X38151097Y-31076702D01*
X37338000Y-30263605D01*
X36524903Y-31076702D01*
X36596486Y-31320671D01*
X36625341Y-31334324D01*
X36423241Y-31469363D01*
X36223363Y-31669241D01*
X36066320Y-31904273D01*
X36007420Y-32046471D01*
X35936405Y-31913613D01*
X35825962Y-31779038D01*
X35691387Y-31668595D01*
X35537851Y-31586528D01*
X35371255Y-31535992D01*
X35198001Y-31518928D01*
X34397999Y-31518928D01*
X34224745Y-31535992D01*
X34058149Y-31586528D01*
X33904613Y-31668595D01*
X33770038Y-31779038D01*
X33659595Y-31913613D01*
X33577528Y-32067149D01*
X33526992Y-32233745D01*
X33509928Y-32406999D01*
X33509928Y-33032870D01*
X33502939Y-33031480D01*
X33299061Y-33031480D01*
X33099102Y-33071254D01*
X32910744Y-33149275D01*
X32741226Y-33262543D01*
X32597063Y-33406706D01*
X32483795Y-33576224D01*
X32405774Y-33764582D01*
X32366000Y-33964541D01*
X32366000Y-34064660D01*
X32280896Y-34007795D01*
X32092538Y-33929774D01*
X31892579Y-33890000D01*
X31688701Y-33890000D01*
X31488742Y-33929774D01*
X31300384Y-34007795D01*
X31130866Y-34121063D01*
X30986703Y-34265226D01*
X30873435Y-34434744D01*
X30795414Y-34623102D01*
X30766548Y-34768225D01*
X30288845Y-35245928D01*
X29222000Y-35245928D01*
X29097518Y-35258188D01*
X28977820Y-35294498D01*
X28867506Y-35353463D01*
X28822000Y-35390809D01*
X28776494Y-35353463D01*
X28666180Y-35294498D01*
X28546482Y-35258188D01*
X28422000Y-35245928D01*
X27957750Y-35249000D01*
X27799000Y-35407750D01*
X27799000Y-36757000D01*
X27819000Y-36757000D01*
X27819000Y-37011000D01*
X27799000Y-37011000D01*
X27799000Y-37031000D01*
X27545000Y-37031000D01*
X27545000Y-37011000D01*
X26445750Y-37011000D01*
X26287000Y-37169750D01*
X26283928Y-37884000D01*
X26296188Y-38008482D01*
X26332498Y-38128180D01*
X26391463Y-38238494D01*
X26470815Y-38335185D01*
X26567506Y-38414537D01*
X26677820Y-38473502D01*
X26797518Y-38509812D01*
X26922000Y-38522072D01*
X27386250Y-38519000D01*
X27544998Y-38360252D01*
X27544998Y-38519000D01*
X27561307Y-38519000D01*
X27557935Y-38554923D01*
X27561000Y-38576250D01*
X27719750Y-38735000D01*
X28349000Y-38735000D01*
X28349000Y-38715000D01*
X28517928Y-38715000D01*
X28517928Y-39032000D01*
X28532878Y-39183794D01*
X28577155Y-39329755D01*
X28603000Y-39378108D01*
X28603000Y-39648250D01*
X28761750Y-39807000D01*
X28883348Y-39797235D01*
X28932574Y-39782056D01*
X28866775Y-39905158D01*
X28842401Y-39985507D01*
X27371577Y-41456332D01*
X27341737Y-41400506D01*
X27262385Y-41303815D01*
X27165694Y-41224463D01*
X27055380Y-41165498D01*
X26935682Y-41129188D01*
X26811200Y-41116928D01*
X26396950Y-41120000D01*
X26238200Y-41278750D01*
X26238200Y-42115500D01*
X26258200Y-42115500D01*
X26258200Y-42369500D01*
X26238200Y-42369500D01*
X26238200Y-42389500D01*
X25984200Y-42389500D01*
X25984200Y-42369500D01*
X25964200Y-42369500D01*
X25964200Y-42115500D01*
X25984200Y-42115500D01*
X25984200Y-41278750D01*
X25825450Y-41120000D01*
X25660000Y-41118773D01*
X25660000Y-39169077D01*
X27557935Y-39169077D01*
X27569625Y-39293613D01*
X27605386Y-39413476D01*
X27663844Y-39524059D01*
X27742753Y-39621113D01*
X27839079Y-39700908D01*
X27949122Y-39760377D01*
X28068652Y-39797235D01*
X28190250Y-39807000D01*
X28349000Y-39648250D01*
X28349000Y-38989000D01*
X27719750Y-38989000D01*
X27561000Y-39147750D01*
X27557935Y-39169077D01*
X25660000Y-39169077D01*
X25660000Y-35884000D01*
X26283928Y-35884000D01*
X26287000Y-36598250D01*
X26445750Y-36757000D01*
X27545000Y-36757000D01*
X27545000Y-35407750D01*
X27386250Y-35249000D01*
X26922000Y-35245928D01*
X26797518Y-35258188D01*
X26677820Y-35294498D01*
X26567506Y-35353463D01*
X26470815Y-35432815D01*
X26391463Y-35529506D01*
X26332498Y-35639820D01*
X26296188Y-35759518D01*
X26283928Y-35884000D01*
X25660000Y-35884000D01*
X25660000Y-29584000D01*
X27433928Y-29584000D01*
X27433928Y-31584000D01*
X27446188Y-31708482D01*
X27482498Y-31828180D01*
X27541463Y-31938494D01*
X27620815Y-32035185D01*
X27717506Y-32114537D01*
X27827820Y-32173502D01*
X27947518Y-32209812D01*
X28072000Y-32222072D01*
X29332125Y-32222072D01*
X29312920Y-32318621D01*
X29312920Y-32522499D01*
X29352694Y-32722458D01*
X29430715Y-32910816D01*
X29543983Y-33080334D01*
X29688146Y-33224497D01*
X29857664Y-33337765D01*
X30046022Y-33415786D01*
X30245981Y-33455560D01*
X30449859Y-33455560D01*
X30649818Y-33415786D01*
X30838176Y-33337765D01*
X31007694Y-33224497D01*
X31151857Y-33080334D01*
X31265125Y-32910816D01*
X31343146Y-32722458D01*
X31382920Y-32522499D01*
X31382920Y-32318621D01*
X31363715Y-32222072D01*
X31872000Y-32222072D01*
X31996482Y-32209812D01*
X32116180Y-32173502D01*
X32226494Y-32114537D01*
X32323185Y-32035185D01*
X32402537Y-31938494D01*
X32461502Y-31828180D01*
X32497812Y-31708482D01*
X32510072Y-31584000D01*
X32510072Y-30154512D01*
X35897783Y-30154512D01*
X35939213Y-30434130D01*
X36034397Y-30700292D01*
X36101329Y-30825514D01*
X36345298Y-30897097D01*
X37158395Y-30084000D01*
X37517605Y-30084000D01*
X38330702Y-30897097D01*
X38574671Y-30825514D01*
X38695571Y-30570004D01*
X38764300Y-30295816D01*
X38778217Y-30013488D01*
X38736787Y-29733870D01*
X38641603Y-29467708D01*
X38574671Y-29342486D01*
X38330702Y-29270903D01*
X37517605Y-30084000D01*
X37158395Y-30084000D01*
X36345298Y-29270903D01*
X36101329Y-29342486D01*
X35980429Y-29597996D01*
X35911700Y-29872184D01*
X35897783Y-30154512D01*
X32510072Y-30154512D01*
X32510072Y-29584000D01*
X32497812Y-29459518D01*
X32461502Y-29339820D01*
X32402537Y-29229506D01*
X32323185Y-29132815D01*
X32226494Y-29053463D01*
X32116180Y-28994498D01*
X31996482Y-28958188D01*
X31872000Y-28945928D01*
X28072000Y-28945928D01*
X27947518Y-28958188D01*
X27827820Y-28994498D01*
X27717506Y-29053463D01*
X27620815Y-29132815D01*
X27541463Y-29229506D01*
X27482498Y-29339820D01*
X27446188Y-29459518D01*
X27433928Y-29584000D01*
X25660000Y-29584000D01*
X25660000Y-28505653D01*
X33315952Y-28505653D01*
X33471962Y-28821214D01*
X33846745Y-29012020D01*
X34251551Y-29126044D01*
X34670824Y-29158902D01*
X35088451Y-29109334D01*
X35488383Y-28979243D01*
X35784038Y-28821214D01*
X35940048Y-28505653D01*
X34628000Y-27193605D01*
X33315952Y-28505653D01*
X25660000Y-28505653D01*
X25660000Y-25660000D01*
X33094392Y-25660000D01*
X33136345Y-25701953D01*
G37*
%TD.AperFunction*%
D32*
X39917000Y-39327000D02*
X39937000Y-39327000D01*
X39937000Y-39581000D01*
X39917000Y-39581000D01*
X39917000Y-40630250D01*
X40075750Y-40789000D01*
X40280221Y-40790999D01*
X40280010Y-40792061D01*
X40280010Y-40995939D01*
X40319784Y-41195898D01*
X40397805Y-41384256D01*
X40511073Y-41553774D01*
X40655236Y-41697937D01*
X40824754Y-41811205D01*
X40951998Y-41863911D01*
X40706792Y-42109117D01*
X40679701Y-42131350D01*
X40657468Y-42158441D01*
X40590976Y-42239462D01*
X40525047Y-42362806D01*
X40496096Y-42458245D01*
X40484449Y-42496641D01*
X40474197Y-42600731D01*
X40470740Y-42635825D01*
X40474175Y-42670700D01*
X40474175Y-43068449D01*
X40132000Y-43410624D01*
X39789825Y-43068449D01*
X39789825Y-42416237D01*
X39793260Y-42381362D01*
X39789825Y-42346485D01*
X39779552Y-42242178D01*
X39738953Y-42108342D01*
X39673025Y-41984999D01*
X39584299Y-41876887D01*
X39557208Y-41854654D01*
X39554658Y-41852104D01*
X39554658Y-41719256D01*
X39514884Y-41519297D01*
X39436863Y-41330939D01*
X39323595Y-41161421D01*
X39277422Y-41115248D01*
X39349226Y-40941898D01*
X39379396Y-40790221D01*
X39504250Y-40789000D01*
X39663000Y-40630250D01*
X39663000Y-39581000D01*
X39643000Y-39581000D01*
X39643000Y-39327000D01*
X39663000Y-39327000D01*
X39663000Y-39307000D01*
X39917000Y-39307000D01*
X39917000Y-39327000D01*
%TA.AperFunction,Conductor*%
D33*
G36*
X39917000Y-39327000D02*
G01*
X39937000Y-39327000D01*
X39937000Y-39581000D01*
X39917000Y-39581000D01*
X39917000Y-40630250D01*
X40075750Y-40789000D01*
X40280221Y-40790999D01*
X40280010Y-40792061D01*
X40280010Y-40995939D01*
X40319784Y-41195898D01*
X40397805Y-41384256D01*
X40511073Y-41553774D01*
X40655236Y-41697937D01*
X40824754Y-41811205D01*
X40951998Y-41863911D01*
X40706792Y-42109117D01*
X40679701Y-42131350D01*
X40657468Y-42158441D01*
X40590976Y-42239462D01*
X40525047Y-42362806D01*
X40496096Y-42458245D01*
X40484449Y-42496641D01*
X40474197Y-42600731D01*
X40470740Y-42635825D01*
X40474175Y-42670700D01*
X40474175Y-43068449D01*
X40132000Y-43410624D01*
X39789825Y-43068449D01*
X39789825Y-42416237D01*
X39793260Y-42381362D01*
X39789825Y-42346485D01*
X39779552Y-42242178D01*
X39738953Y-42108342D01*
X39673025Y-41984999D01*
X39584299Y-41876887D01*
X39557208Y-41854654D01*
X39554658Y-41852104D01*
X39554658Y-41719256D01*
X39514884Y-41519297D01*
X39436863Y-41330939D01*
X39323595Y-41161421D01*
X39277422Y-41115248D01*
X39349226Y-40941898D01*
X39379396Y-40790221D01*
X39504250Y-40789000D01*
X39663000Y-40630250D01*
X39663000Y-39581000D01*
X39643000Y-39581000D01*
X39643000Y-39327000D01*
X39663000Y-39327000D01*
X39663000Y-39307000D01*
X39917000Y-39307000D01*
X39917000Y-39327000D01*
G37*
%TD.AperFunction*%
D32*
X31595000Y-38735000D02*
X31615000Y-38735000D01*
X31615000Y-38989000D01*
X31595000Y-38989000D01*
X31595000Y-39009000D01*
X31426072Y-39009000D01*
X31426072Y-38715000D01*
X31595000Y-38715000D01*
X31595000Y-38735000D01*
%TA.AperFunction,Conductor*%
D33*
G36*
X31595000Y-38735000D02*
G01*
X31615000Y-38735000D01*
X31615000Y-38989000D01*
X31595000Y-38989000D01*
X31595000Y-39009000D01*
X31426072Y-39009000D01*
X31426072Y-38715000D01*
X31595000Y-38715000D01*
X31595000Y-38735000D01*
G37*
%TD.AperFunction*%
D32*
X42865638Y-37185000D02*
X42798998Y-37185000D01*
X42798998Y-37343748D01*
X42640250Y-37185000D01*
X42618923Y-37181935D01*
X42494387Y-37193625D01*
X42374524Y-37229386D01*
X42263941Y-37287844D01*
X42166887Y-37366753D01*
X42155085Y-37381000D01*
X41617000Y-37381000D01*
X41617000Y-37401000D01*
X41363000Y-37401000D01*
X41363000Y-37381000D01*
X41343000Y-37381000D01*
X41343000Y-37127000D01*
X41363000Y-37127000D01*
X41363000Y-37107000D01*
X41617000Y-37107000D01*
X41617000Y-37127000D01*
X42566250Y-37127000D01*
X42640346Y-37052904D01*
X42671525Y-37084083D01*
X42787193Y-36968415D01*
X42865638Y-37185000D01*
%TA.AperFunction,Conductor*%
D33*
G36*
X42865638Y-37185000D02*
G01*
X42798998Y-37185000D01*
X42798998Y-37343748D01*
X42640250Y-37185000D01*
X42618923Y-37181935D01*
X42494387Y-37193625D01*
X42374524Y-37229386D01*
X42263941Y-37287844D01*
X42166887Y-37366753D01*
X42155085Y-37381000D01*
X41617000Y-37381000D01*
X41617000Y-37401000D01*
X41363000Y-37401000D01*
X41363000Y-37381000D01*
X41343000Y-37381000D01*
X41343000Y-37127000D01*
X41363000Y-37127000D01*
X41363000Y-37107000D01*
X41617000Y-37107000D01*
X41617000Y-37127000D01*
X42566250Y-37127000D01*
X42640346Y-37052904D01*
X42671525Y-37084083D01*
X42787193Y-36968415D01*
X42865638Y-37185000D01*
G37*
%TD.AperFunction*%
%TD*%
M02*
