M48
INCH,TZ
T1C0.0157
T2C0.0197
T3C0.0374
T4C0.0394
T5C0.0523
T6C0.0906
%
G90
G05
T1
X10800Y-17800
X10800Y-20900
X10900Y-21800
X11000Y-27500
X11300Y-15800
X11312Y-24788
X11700Y-23500
X11700Y-29281
X11948Y-12764
X11991Y-24750
X12018Y-27892
X12134Y-25891
X12184Y-27216
X12210Y-26500
X12369Y-24182
X12500Y-26200
X12515Y-16565
X12516Y-13750
X12700Y-15300
X13131Y-28700
X13150Y-13412
X13295Y-23005
X13300Y-21600
X13386Y-27096
X13600Y-17800
X13600Y-18800
X13908Y-29045
X13998Y-26017
X14004Y-21600
X14008Y-24368
X14036Y-25309
X14212Y-17287
X14394Y-20658
X14400Y-22700
X14400Y-24400
X14626Y-16850
X14699Y-28099
X14700Y-28700
X14715Y-23696
X14744Y-25686
X14800Y-21600
X14800Y-29281
X14860Y-24694
X15053Y-27532
X15100Y-16000
X15165Y-16465
X15200Y-24899
X15276Y-18206
X15344Y-25470
X15354Y-27999
X15383Y-24502
X15500Y-22200
X15500Y-26000
X15535Y-17906
X15612Y-12962
X15662Y-18281
X15676Y-19166
X15700Y-20300
X15952Y-13160
X16000Y-14100
X16000Y-25142
X16152Y-27150
X16266Y-16100
X16266Y-18127
X16369Y-28700
X16400Y-18700
X16400Y-27800
X16858Y-26319
X17100Y-15900
X17159Y-23359
X17377Y-16179
X17400Y-27200
X17549Y-25579
X17670Y-16442
X17700Y-27800
X17700Y-29281
X17726Y-24416
X17834Y-16800
X18046Y-20630
X18071Y-25380
X18600Y-25600
X18900Y-28300
X19439Y-20400
T2
X18600Y-12700
X19200Y-12100
X19200Y-13300
T3
X14700Y-11844
X14700Y-12828
X14700Y-13616
X14700Y-14600
T4
X12000Y-20100
X12000Y-21100
X12000Y-22100
X13000Y-20100
X13000Y-21100
X13000Y-22100
X17800Y-15400
X18800Y-15400
X18898Y-17717
X18898Y-18717
X18898Y-19717
X18898Y-20717
X18898Y-21717
X18898Y-22717
T5
X17222Y-11293
X17222Y-14107
X18580Y-11293
X18580Y-14107
T6
X11046Y-26500
X13633Y-10635
X13633Y-15809
X18454Y-26500
T4
G00X11006Y-23980
M15
G01X10534Y-23980
M16
G05
G00X11006Y-29020
M15
G01X10534Y-29020
M16
G05
G00X18494Y-23980
M15
G01X18966Y-23980
M16
G05
G00X18494Y-29020
M15
G01X18966Y-29020
M16
G05
T0
M30
