%TF.GenerationSoftware,KiCad,Pcbnew,(5.1.9-16-g1737927814)-1*%
%TF.CreationDate,2021-07-25T19:14:51-05:00*%
%TF.ProjectId,adbuino,61646275-696e-46f2-9e6b-696361645f70,rev?*%
%TF.SameCoordinates,Original*%
%TF.FileFunction,Soldermask,Bot*%
%TF.FilePolarity,Negative*%
%FSLAX46Y46*%
G04 Gerber Fmt 4.6, Leading zero omitted, Abs format (unit mm)*
G04 Created by KiCad (PCBNEW (5.1.9-16-g1737927814)-1) date 2021-07-25 19:14:51*
%MOMM*%
%LPD*%
G01*
G04 APERTURE LIST*
%ADD10C,2.000000*%
%ADD11R,1.400000X0.400000*%
%ADD12R,3.500000X0.900000*%
%ADD13O,3.600000X1.800000*%
%ADD14C,3.316000*%
%ADD15C,1.000000*%
%ADD16O,1.700000X1.700000*%
%ADD17R,1.700000X1.700000*%
%ADD18C,1.600000*%
%ADD19R,1.500000X1.600000*%
%ADD20C,3.000000*%
G04 APERTURE END LIST*
D10*
%TO.C,J2*%
X43743000Y-28683000D03*
X43743000Y-35833000D03*
X47193000Y-35833000D03*
X47193000Y-28683000D03*
D11*
X44243000Y-33558000D03*
X44243000Y-32908000D03*
X44243000Y-32258000D03*
X44243000Y-31608000D03*
X44243000Y-30958000D03*
%TD*%
D12*
%TO.C,J5*%
X33156000Y-62810000D03*
X33156000Y-64610000D03*
X33156000Y-70010000D03*
X33156000Y-71810000D03*
D13*
X27356000Y-73710000D03*
X27356000Y-60910000D03*
D14*
X28056000Y-67310000D03*
%TD*%
D12*
%TO.C,J4*%
X41774000Y-71810000D03*
X41774000Y-70010000D03*
X41774000Y-64610000D03*
X41774000Y-62810000D03*
D13*
X47574000Y-60910000D03*
X47574000Y-73710000D03*
D14*
X46874000Y-67310000D03*
%TD*%
D15*
%TO.C,TP26*%
X43700000Y-74000000D03*
%TD*%
%TO.C,TP25*%
X41160000Y-74000000D03*
%TD*%
%TO.C,TP24*%
X38620000Y-74000000D03*
%TD*%
%TO.C,TP23*%
X36080000Y-74000000D03*
%TD*%
%TO.C,TP22*%
X33540000Y-74000000D03*
%TD*%
%TO.C,TP14*%
X31000000Y-74000000D03*
%TD*%
D16*
%TO.C,J1*%
X48000000Y-57700000D03*
X48000000Y-55160000D03*
X48000000Y-52620000D03*
X48000000Y-50080000D03*
X48000000Y-47540000D03*
D17*
X48000000Y-45000000D03*
%TD*%
D15*
%TO.C,TP3*%
X39370000Y-58166000D03*
%TD*%
D18*
%TO.C,J3*%
X37338000Y-30084000D03*
X37338000Y-32584000D03*
X37338000Y-34584000D03*
D19*
X37338000Y-37084000D03*
D20*
X34628000Y-27014000D03*
X34628000Y-40154000D03*
%TD*%
M02*
