%TF.GenerationSoftware,KiCad,Pcbnew,(5.1.9-16-g1737927814)-1*%
%TF.CreationDate,2021-07-07T14:31:43-05:00*%
%TF.ProjectId,adbuino,61646275-696e-46f2-9e6b-696361645f70,rev?*%
%TF.SameCoordinates,Original*%
%TF.FileFunction,Soldermask,Top*%
%TF.FilePolarity,Negative*%
%FSLAX46Y46*%
G04 Gerber Fmt 4.6, Leading zero omitted, Abs format (unit mm)*
G04 Created by KiCad (PCBNEW (5.1.9-16-g1737927814)-1) date 2021-07-07 14:31:43*
%MOMM*%
%LPD*%
G01*
G04 APERTURE LIST*
%ADD10C,2.000000*%
%ADD11R,0.400000X1.400000*%
%ADD12C,0.100000*%
%ADD13R,2.000000X4.500000*%
%ADD14O,1.700000X1.700000*%
%ADD15R,1.700000X1.700000*%
%ADD16R,1.200000X1.400000*%
%ADD17R,1.300000X1.550000*%
%ADD18R,0.800000X0.900000*%
%ADD19R,1.500000X2.000000*%
%ADD20R,3.800000X2.000000*%
%ADD21R,1.600000X0.550000*%
%ADD22R,0.550000X1.600000*%
%ADD23O,1.800000X3.600000*%
%ADD24C,1.408000*%
%ADD25C,3.216000*%
%ADD26C,1.600000*%
%ADD27R,1.600000X1.500000*%
%ADD28C,3.000000*%
G04 APERTURE END LIST*
D10*
%TO.C,J2*%
X180867000Y-42871000D03*
X173717000Y-42871000D03*
X173717000Y-39421000D03*
X180867000Y-39421000D03*
D11*
X175992000Y-42371000D03*
X176642000Y-42371000D03*
X177292000Y-42371000D03*
X177942000Y-42371000D03*
X178592000Y-42371000D03*
%TD*%
D12*
%TO.C,IC1*%
G36*
X167723382Y-57721624D02*
G01*
X166680400Y-58764606D01*
X166468268Y-58552474D01*
X167511250Y-57509492D01*
X167723382Y-57721624D01*
G37*
G36*
X167369829Y-57368070D02*
G01*
X166326847Y-58411052D01*
X166114715Y-58198920D01*
X167157697Y-57155938D01*
X167369829Y-57368070D01*
G37*
G36*
X167016275Y-57014517D02*
G01*
X165973293Y-58057499D01*
X165761161Y-57845367D01*
X166804143Y-56802385D01*
X167016275Y-57014517D01*
G37*
G36*
X166662722Y-56660963D02*
G01*
X165619740Y-57703945D01*
X165407608Y-57491813D01*
X166450590Y-56448831D01*
X166662722Y-56660963D01*
G37*
G36*
X166309169Y-56307410D02*
G01*
X165266187Y-57350392D01*
X165054055Y-57138260D01*
X166097037Y-56095278D01*
X166309169Y-56307410D01*
G37*
G36*
X165955615Y-55953857D02*
G01*
X164912633Y-56996839D01*
X164700501Y-56784707D01*
X165743483Y-55741725D01*
X165955615Y-55953857D01*
G37*
G36*
X165602062Y-55600303D02*
G01*
X164559080Y-56643285D01*
X164346948Y-56431153D01*
X165389930Y-55388171D01*
X165602062Y-55600303D01*
G37*
G36*
X165248508Y-55246750D02*
G01*
X164205526Y-56289732D01*
X163993394Y-56077600D01*
X165036376Y-55034618D01*
X165248508Y-55246750D01*
G37*
G36*
X164205526Y-52930268D02*
G01*
X165248508Y-53973250D01*
X165036376Y-54185382D01*
X163993394Y-53142400D01*
X164205526Y-52930268D01*
G37*
G36*
X164559080Y-52576715D02*
G01*
X165602062Y-53619697D01*
X165389930Y-53831829D01*
X164346948Y-52788847D01*
X164559080Y-52576715D01*
G37*
G36*
X164912633Y-52223161D02*
G01*
X165955615Y-53266143D01*
X165743483Y-53478275D01*
X164700501Y-52435293D01*
X164912633Y-52223161D01*
G37*
G36*
X165266187Y-51869608D02*
G01*
X166309169Y-52912590D01*
X166097037Y-53124722D01*
X165054055Y-52081740D01*
X165266187Y-51869608D01*
G37*
G36*
X165619740Y-51516055D02*
G01*
X166662722Y-52559037D01*
X166450590Y-52771169D01*
X165407608Y-51728187D01*
X165619740Y-51516055D01*
G37*
G36*
X165973293Y-51162501D02*
G01*
X167016275Y-52205483D01*
X166804143Y-52417615D01*
X165761161Y-51374633D01*
X165973293Y-51162501D01*
G37*
G36*
X166326847Y-50808948D02*
G01*
X167369829Y-51851930D01*
X167157697Y-52064062D01*
X166114715Y-51021080D01*
X166326847Y-50808948D01*
G37*
G36*
X166680400Y-50455394D02*
G01*
X167723382Y-51498376D01*
X167511250Y-51710508D01*
X166468268Y-50667526D01*
X166680400Y-50455394D01*
G37*
G36*
X169827732Y-50667526D02*
G01*
X168784750Y-51710508D01*
X168572618Y-51498376D01*
X169615600Y-50455394D01*
X169827732Y-50667526D01*
G37*
G36*
X170181285Y-51021080D02*
G01*
X169138303Y-52064062D01*
X168926171Y-51851930D01*
X169969153Y-50808948D01*
X170181285Y-51021080D01*
G37*
G36*
X170534839Y-51374633D02*
G01*
X169491857Y-52417615D01*
X169279725Y-52205483D01*
X170322707Y-51162501D01*
X170534839Y-51374633D01*
G37*
G36*
X170888392Y-51728187D02*
G01*
X169845410Y-52771169D01*
X169633278Y-52559037D01*
X170676260Y-51516055D01*
X170888392Y-51728187D01*
G37*
G36*
X171241945Y-52081740D02*
G01*
X170198963Y-53124722D01*
X169986831Y-52912590D01*
X171029813Y-51869608D01*
X171241945Y-52081740D01*
G37*
G36*
X171595499Y-52435293D02*
G01*
X170552517Y-53478275D01*
X170340385Y-53266143D01*
X171383367Y-52223161D01*
X171595499Y-52435293D01*
G37*
G36*
X171949052Y-52788847D02*
G01*
X170906070Y-53831829D01*
X170693938Y-53619697D01*
X171736920Y-52576715D01*
X171949052Y-52788847D01*
G37*
G36*
X172302606Y-53142400D02*
G01*
X171259624Y-54185382D01*
X171047492Y-53973250D01*
X172090474Y-52930268D01*
X172302606Y-53142400D01*
G37*
G36*
X171259624Y-55034618D02*
G01*
X172302606Y-56077600D01*
X172090474Y-56289732D01*
X171047492Y-55246750D01*
X171259624Y-55034618D01*
G37*
G36*
X170906070Y-55388171D02*
G01*
X171949052Y-56431153D01*
X171736920Y-56643285D01*
X170693938Y-55600303D01*
X170906070Y-55388171D01*
G37*
G36*
X170552517Y-55741725D02*
G01*
X171595499Y-56784707D01*
X171383367Y-56996839D01*
X170340385Y-55953857D01*
X170552517Y-55741725D01*
G37*
G36*
X170198963Y-56095278D02*
G01*
X171241945Y-57138260D01*
X171029813Y-57350392D01*
X169986831Y-56307410D01*
X170198963Y-56095278D01*
G37*
G36*
X169845410Y-56448831D02*
G01*
X170888392Y-57491813D01*
X170676260Y-57703945D01*
X169633278Y-56660963D01*
X169845410Y-56448831D01*
G37*
G36*
X169491857Y-56802385D02*
G01*
X170534839Y-57845367D01*
X170322707Y-58057499D01*
X169279725Y-57014517D01*
X169491857Y-56802385D01*
G37*
G36*
X169138303Y-57155938D02*
G01*
X170181285Y-58198920D01*
X169969153Y-58411052D01*
X168926171Y-57368070D01*
X169138303Y-57155938D01*
G37*
G36*
X168784750Y-57509492D02*
G01*
X169827732Y-58552474D01*
X169615600Y-58764606D01*
X168572618Y-57721624D01*
X168784750Y-57509492D01*
G37*
%TD*%
%TO.C,C16*%
G36*
G01*
X171772000Y-72865000D02*
X171772000Y-71915000D01*
G75*
G02*
X172022000Y-71665000I250000J0D01*
G01*
X172522000Y-71665000D01*
G75*
G02*
X172772000Y-71915000I0J-250000D01*
G01*
X172772000Y-72865000D01*
G75*
G02*
X172522000Y-73115000I-250000J0D01*
G01*
X172022000Y-73115000D01*
G75*
G02*
X171772000Y-72865000I0J250000D01*
G01*
G37*
G36*
G01*
X169872000Y-72865000D02*
X169872000Y-71915000D01*
G75*
G02*
X170122000Y-71665000I250000J0D01*
G01*
X170622000Y-71665000D01*
G75*
G02*
X170872000Y-71915000I0J-250000D01*
G01*
X170872000Y-72865000D01*
G75*
G02*
X170622000Y-73115000I-250000J0D01*
G01*
X170122000Y-73115000D01*
G75*
G02*
X169872000Y-72865000I0J250000D01*
G01*
G37*
%TD*%
%TO.C,C15*%
G36*
G01*
X169984000Y-84615000D02*
X169984000Y-85565000D01*
G75*
G02*
X169734000Y-85815000I-250000J0D01*
G01*
X169234000Y-85815000D01*
G75*
G02*
X168984000Y-85565000I0J250000D01*
G01*
X168984000Y-84615000D01*
G75*
G02*
X169234000Y-84365000I250000J0D01*
G01*
X169734000Y-84365000D01*
G75*
G02*
X169984000Y-84615000I0J-250000D01*
G01*
G37*
G36*
G01*
X171884000Y-84615000D02*
X171884000Y-85565000D01*
G75*
G02*
X171634000Y-85815000I-250000J0D01*
G01*
X171134000Y-85815000D01*
G75*
G02*
X170884000Y-85565000I0J250000D01*
G01*
X170884000Y-84615000D01*
G75*
G02*
X171134000Y-84365000I250000J0D01*
G01*
X171634000Y-84365000D01*
G75*
G02*
X171884000Y-84615000I0J-250000D01*
G01*
G37*
%TD*%
%TO.C,C14*%
G36*
G01*
X175268000Y-72865000D02*
X175268000Y-71915000D01*
G75*
G02*
X175518000Y-71665000I250000J0D01*
G01*
X176018000Y-71665000D01*
G75*
G02*
X176268000Y-71915000I0J-250000D01*
G01*
X176268000Y-72865000D01*
G75*
G02*
X176018000Y-73115000I-250000J0D01*
G01*
X175518000Y-73115000D01*
G75*
G02*
X175268000Y-72865000I0J250000D01*
G01*
G37*
G36*
G01*
X173368000Y-72865000D02*
X173368000Y-71915000D01*
G75*
G02*
X173618000Y-71665000I250000J0D01*
G01*
X174118000Y-71665000D01*
G75*
G02*
X174368000Y-71915000I0J-250000D01*
G01*
X174368000Y-72865000D01*
G75*
G02*
X174118000Y-73115000I-250000J0D01*
G01*
X173618000Y-73115000D01*
G75*
G02*
X173368000Y-72865000I0J250000D01*
G01*
G37*
%TD*%
D13*
%TO.C,Y2*%
X157480000Y-63940000D03*
X157480000Y-55440000D03*
%TD*%
D14*
%TO.C,J1*%
X182118000Y-71628000D03*
X182118000Y-69088000D03*
X182118000Y-66548000D03*
X182118000Y-64008000D03*
X182118000Y-61468000D03*
D15*
X182118000Y-58928000D03*
%TD*%
%TO.C,IC2*%
G36*
G01*
X159846000Y-72005000D02*
X159846000Y-71705000D01*
G75*
G02*
X159996000Y-71555000I150000J0D01*
G01*
X161696000Y-71555000D01*
G75*
G02*
X161846000Y-71705000I0J-150000D01*
G01*
X161846000Y-72005000D01*
G75*
G02*
X161696000Y-72155000I-150000J0D01*
G01*
X159996000Y-72155000D01*
G75*
G02*
X159846000Y-72005000I0J150000D01*
G01*
G37*
G36*
G01*
X159846000Y-73275000D02*
X159846000Y-72975000D01*
G75*
G02*
X159996000Y-72825000I150000J0D01*
G01*
X161696000Y-72825000D01*
G75*
G02*
X161846000Y-72975000I0J-150000D01*
G01*
X161846000Y-73275000D01*
G75*
G02*
X161696000Y-73425000I-150000J0D01*
G01*
X159996000Y-73425000D01*
G75*
G02*
X159846000Y-73275000I0J150000D01*
G01*
G37*
G36*
G01*
X159846000Y-74545000D02*
X159846000Y-74245000D01*
G75*
G02*
X159996000Y-74095000I150000J0D01*
G01*
X161696000Y-74095000D01*
G75*
G02*
X161846000Y-74245000I0J-150000D01*
G01*
X161846000Y-74545000D01*
G75*
G02*
X161696000Y-74695000I-150000J0D01*
G01*
X159996000Y-74695000D01*
G75*
G02*
X159846000Y-74545000I0J150000D01*
G01*
G37*
G36*
G01*
X159846000Y-75815000D02*
X159846000Y-75515000D01*
G75*
G02*
X159996000Y-75365000I150000J0D01*
G01*
X161696000Y-75365000D01*
G75*
G02*
X161846000Y-75515000I0J-150000D01*
G01*
X161846000Y-75815000D01*
G75*
G02*
X161696000Y-75965000I-150000J0D01*
G01*
X159996000Y-75965000D01*
G75*
G02*
X159846000Y-75815000I0J150000D01*
G01*
G37*
G36*
G01*
X159846000Y-77085000D02*
X159846000Y-76785000D01*
G75*
G02*
X159996000Y-76635000I150000J0D01*
G01*
X161696000Y-76635000D01*
G75*
G02*
X161846000Y-76785000I0J-150000D01*
G01*
X161846000Y-77085000D01*
G75*
G02*
X161696000Y-77235000I-150000J0D01*
G01*
X159996000Y-77235000D01*
G75*
G02*
X159846000Y-77085000I0J150000D01*
G01*
G37*
G36*
G01*
X159846000Y-78355000D02*
X159846000Y-78055000D01*
G75*
G02*
X159996000Y-77905000I150000J0D01*
G01*
X161696000Y-77905000D01*
G75*
G02*
X161846000Y-78055000I0J-150000D01*
G01*
X161846000Y-78355000D01*
G75*
G02*
X161696000Y-78505000I-150000J0D01*
G01*
X159996000Y-78505000D01*
G75*
G02*
X159846000Y-78355000I0J150000D01*
G01*
G37*
G36*
G01*
X159846000Y-79625000D02*
X159846000Y-79325000D01*
G75*
G02*
X159996000Y-79175000I150000J0D01*
G01*
X161696000Y-79175000D01*
G75*
G02*
X161846000Y-79325000I0J-150000D01*
G01*
X161846000Y-79625000D01*
G75*
G02*
X161696000Y-79775000I-150000J0D01*
G01*
X159996000Y-79775000D01*
G75*
G02*
X159846000Y-79625000I0J150000D01*
G01*
G37*
G36*
G01*
X159846000Y-80895000D02*
X159846000Y-80595000D01*
G75*
G02*
X159996000Y-80445000I150000J0D01*
G01*
X161696000Y-80445000D01*
G75*
G02*
X161846000Y-80595000I0J-150000D01*
G01*
X161846000Y-80895000D01*
G75*
G02*
X161696000Y-81045000I-150000J0D01*
G01*
X159996000Y-81045000D01*
G75*
G02*
X159846000Y-80895000I0J150000D01*
G01*
G37*
G36*
G01*
X154846000Y-80895000D02*
X154846000Y-80595000D01*
G75*
G02*
X154996000Y-80445000I150000J0D01*
G01*
X156696000Y-80445000D01*
G75*
G02*
X156846000Y-80595000I0J-150000D01*
G01*
X156846000Y-80895000D01*
G75*
G02*
X156696000Y-81045000I-150000J0D01*
G01*
X154996000Y-81045000D01*
G75*
G02*
X154846000Y-80895000I0J150000D01*
G01*
G37*
G36*
G01*
X154846000Y-79625000D02*
X154846000Y-79325000D01*
G75*
G02*
X154996000Y-79175000I150000J0D01*
G01*
X156696000Y-79175000D01*
G75*
G02*
X156846000Y-79325000I0J-150000D01*
G01*
X156846000Y-79625000D01*
G75*
G02*
X156696000Y-79775000I-150000J0D01*
G01*
X154996000Y-79775000D01*
G75*
G02*
X154846000Y-79625000I0J150000D01*
G01*
G37*
G36*
G01*
X154846000Y-78355000D02*
X154846000Y-78055000D01*
G75*
G02*
X154996000Y-77905000I150000J0D01*
G01*
X156696000Y-77905000D01*
G75*
G02*
X156846000Y-78055000I0J-150000D01*
G01*
X156846000Y-78355000D01*
G75*
G02*
X156696000Y-78505000I-150000J0D01*
G01*
X154996000Y-78505000D01*
G75*
G02*
X154846000Y-78355000I0J150000D01*
G01*
G37*
G36*
G01*
X154846000Y-77085000D02*
X154846000Y-76785000D01*
G75*
G02*
X154996000Y-76635000I150000J0D01*
G01*
X156696000Y-76635000D01*
G75*
G02*
X156846000Y-76785000I0J-150000D01*
G01*
X156846000Y-77085000D01*
G75*
G02*
X156696000Y-77235000I-150000J0D01*
G01*
X154996000Y-77235000D01*
G75*
G02*
X154846000Y-77085000I0J150000D01*
G01*
G37*
G36*
G01*
X154846000Y-75815000D02*
X154846000Y-75515000D01*
G75*
G02*
X154996000Y-75365000I150000J0D01*
G01*
X156696000Y-75365000D01*
G75*
G02*
X156846000Y-75515000I0J-150000D01*
G01*
X156846000Y-75815000D01*
G75*
G02*
X156696000Y-75965000I-150000J0D01*
G01*
X154996000Y-75965000D01*
G75*
G02*
X154846000Y-75815000I0J150000D01*
G01*
G37*
G36*
G01*
X154846000Y-74545000D02*
X154846000Y-74245000D01*
G75*
G02*
X154996000Y-74095000I150000J0D01*
G01*
X156696000Y-74095000D01*
G75*
G02*
X156846000Y-74245000I0J-150000D01*
G01*
X156846000Y-74545000D01*
G75*
G02*
X156696000Y-74695000I-150000J0D01*
G01*
X154996000Y-74695000D01*
G75*
G02*
X154846000Y-74545000I0J150000D01*
G01*
G37*
G36*
G01*
X154846000Y-73275000D02*
X154846000Y-72975000D01*
G75*
G02*
X154996000Y-72825000I150000J0D01*
G01*
X156696000Y-72825000D01*
G75*
G02*
X156846000Y-72975000I0J-150000D01*
G01*
X156846000Y-73275000D01*
G75*
G02*
X156696000Y-73425000I-150000J0D01*
G01*
X154996000Y-73425000D01*
G75*
G02*
X154846000Y-73275000I0J150000D01*
G01*
G37*
G36*
G01*
X154846000Y-72005000D02*
X154846000Y-71705000D01*
G75*
G02*
X154996000Y-71555000I150000J0D01*
G01*
X156696000Y-71555000D01*
G75*
G02*
X156846000Y-71705000I0J-150000D01*
G01*
X156846000Y-72005000D01*
G75*
G02*
X156696000Y-72155000I-150000J0D01*
G01*
X154996000Y-72155000D01*
G75*
G02*
X154846000Y-72005000I0J150000D01*
G01*
G37*
%TD*%
%TO.C,F1*%
G36*
G01*
X170834000Y-38562000D02*
X170034000Y-38562000D01*
G75*
G02*
X169784000Y-38312000I0J250000D01*
G01*
X169784000Y-37487000D01*
G75*
G02*
X170034000Y-37237000I250000J0D01*
G01*
X170834000Y-37237000D01*
G75*
G02*
X171084000Y-37487000I0J-250000D01*
G01*
X171084000Y-38312000D01*
G75*
G02*
X170834000Y-38562000I-250000J0D01*
G01*
G37*
G36*
G01*
X170834000Y-40487000D02*
X170034000Y-40487000D01*
G75*
G02*
X169784000Y-40237000I0J250000D01*
G01*
X169784000Y-39412000D01*
G75*
G02*
X170034000Y-39162000I250000J0D01*
G01*
X170834000Y-39162000D01*
G75*
G02*
X171084000Y-39412000I0J-250000D01*
G01*
X171084000Y-40237000D01*
G75*
G02*
X170834000Y-40487000I-250000J0D01*
G01*
G37*
%TD*%
%TO.C,C13*%
G36*
G01*
X155227000Y-69604000D02*
X156177000Y-69604000D01*
G75*
G02*
X156427000Y-69854000I0J-250000D01*
G01*
X156427000Y-70354000D01*
G75*
G02*
X156177000Y-70604000I-250000J0D01*
G01*
X155227000Y-70604000D01*
G75*
G02*
X154977000Y-70354000I0J250000D01*
G01*
X154977000Y-69854000D01*
G75*
G02*
X155227000Y-69604000I250000J0D01*
G01*
G37*
G36*
G01*
X155227000Y-67704000D02*
X156177000Y-67704000D01*
G75*
G02*
X156427000Y-67954000I0J-250000D01*
G01*
X156427000Y-68454000D01*
G75*
G02*
X156177000Y-68704000I-250000J0D01*
G01*
X155227000Y-68704000D01*
G75*
G02*
X154977000Y-68454000I0J250000D01*
G01*
X154977000Y-67954000D01*
G75*
G02*
X155227000Y-67704000I250000J0D01*
G01*
G37*
%TD*%
D16*
%TO.C,Y1*%
X173743332Y-66802999D03*
X173743332Y-69002999D03*
X172043332Y-69002999D03*
X172043332Y-66802999D03*
%TD*%
D17*
%TO.C,SW1*%
X174534000Y-64427000D03*
X179034000Y-64427000D03*
X179034000Y-56477000D03*
X174534000Y-56477000D03*
%TD*%
%TO.C,SW2*%
X161326000Y-69253000D03*
X165826000Y-69253000D03*
X165826000Y-61303000D03*
X161326000Y-61303000D03*
%TD*%
%TO.C,R11*%
G36*
G01*
X176980001Y-88650500D02*
X176079999Y-88650500D01*
G75*
G02*
X175830000Y-88400501I0J249999D01*
G01*
X175830000Y-87875499D01*
G75*
G02*
X176079999Y-87625500I249999J0D01*
G01*
X176980001Y-87625500D01*
G75*
G02*
X177230000Y-87875499I0J-249999D01*
G01*
X177230000Y-88400501D01*
G75*
G02*
X176980001Y-88650500I-249999J0D01*
G01*
G37*
G36*
G01*
X176980001Y-90475500D02*
X176079999Y-90475500D01*
G75*
G02*
X175830000Y-90225501I0J249999D01*
G01*
X175830000Y-89700499D01*
G75*
G02*
X176079999Y-89450500I249999J0D01*
G01*
X176980001Y-89450500D01*
G75*
G02*
X177230000Y-89700499I0J-249999D01*
G01*
X177230000Y-90225501D01*
G75*
G02*
X176980001Y-90475500I-249999J0D01*
G01*
G37*
%TD*%
%TO.C,R10*%
G36*
G01*
X170491999Y-89450500D02*
X171392001Y-89450500D01*
G75*
G02*
X171642000Y-89700499I0J-249999D01*
G01*
X171642000Y-90225501D01*
G75*
G02*
X171392001Y-90475500I-249999J0D01*
G01*
X170491999Y-90475500D01*
G75*
G02*
X170242000Y-90225501I0J249999D01*
G01*
X170242000Y-89700499D01*
G75*
G02*
X170491999Y-89450500I249999J0D01*
G01*
G37*
G36*
G01*
X170491999Y-87625500D02*
X171392001Y-87625500D01*
G75*
G02*
X171642000Y-87875499I0J-249999D01*
G01*
X171642000Y-88400501D01*
G75*
G02*
X171392001Y-88650500I-249999J0D01*
G01*
X170491999Y-88650500D01*
G75*
G02*
X170242000Y-88400501I0J249999D01*
G01*
X170242000Y-87875499D01*
G75*
G02*
X170491999Y-87625500I249999J0D01*
G01*
G37*
%TD*%
%TO.C,R9*%
G36*
G01*
X161740001Y-88650500D02*
X160839999Y-88650500D01*
G75*
G02*
X160590000Y-88400501I0J249999D01*
G01*
X160590000Y-87875499D01*
G75*
G02*
X160839999Y-87625500I249999J0D01*
G01*
X161740001Y-87625500D01*
G75*
G02*
X161990000Y-87875499I0J-249999D01*
G01*
X161990000Y-88400501D01*
G75*
G02*
X161740001Y-88650500I-249999J0D01*
G01*
G37*
G36*
G01*
X161740001Y-90475500D02*
X160839999Y-90475500D01*
G75*
G02*
X160590000Y-90225501I0J249999D01*
G01*
X160590000Y-89700499D01*
G75*
G02*
X160839999Y-89450500I249999J0D01*
G01*
X161740001Y-89450500D01*
G75*
G02*
X161990000Y-89700499I0J-249999D01*
G01*
X161990000Y-90225501D01*
G75*
G02*
X161740001Y-90475500I-249999J0D01*
G01*
G37*
%TD*%
%TO.C,R8*%
G36*
G01*
X155251999Y-89450500D02*
X156152001Y-89450500D01*
G75*
G02*
X156402000Y-89700499I0J-249999D01*
G01*
X156402000Y-90225501D01*
G75*
G02*
X156152001Y-90475500I-249999J0D01*
G01*
X155251999Y-90475500D01*
G75*
G02*
X155002000Y-90225501I0J249999D01*
G01*
X155002000Y-89700499D01*
G75*
G02*
X155251999Y-89450500I249999J0D01*
G01*
G37*
G36*
G01*
X155251999Y-87625500D02*
X156152001Y-87625500D01*
G75*
G02*
X156402000Y-87875499I0J-249999D01*
G01*
X156402000Y-88400501D01*
G75*
G02*
X156152001Y-88650500I-249999J0D01*
G01*
X155251999Y-88650500D01*
G75*
G02*
X155002000Y-88400501I0J249999D01*
G01*
X155002000Y-87875499D01*
G75*
G02*
X155251999Y-87625500I249999J0D01*
G01*
G37*
%TD*%
%TO.C,R3*%
G36*
G01*
X165095500Y-79444001D02*
X165095500Y-78543999D01*
G75*
G02*
X165345499Y-78294000I249999J0D01*
G01*
X165870501Y-78294000D01*
G75*
G02*
X166120500Y-78543999I0J-249999D01*
G01*
X166120500Y-79444001D01*
G75*
G02*
X165870501Y-79694000I-249999J0D01*
G01*
X165345499Y-79694000D01*
G75*
G02*
X165095500Y-79444001I0J249999D01*
G01*
G37*
G36*
G01*
X163270500Y-79444001D02*
X163270500Y-78543999D01*
G75*
G02*
X163520499Y-78294000I249999J0D01*
G01*
X164045501Y-78294000D01*
G75*
G02*
X164295500Y-78543999I0J-249999D01*
G01*
X164295500Y-79444001D01*
G75*
G02*
X164045501Y-79694000I-249999J0D01*
G01*
X163520499Y-79694000D01*
G75*
G02*
X163270500Y-79444001I0J249999D01*
G01*
G37*
%TD*%
%TO.C,R2*%
G36*
G01*
X172104000Y-63188001D02*
X172104000Y-62287999D01*
G75*
G02*
X172353999Y-62038000I249999J0D01*
G01*
X172879001Y-62038000D01*
G75*
G02*
X173129000Y-62287999I0J-249999D01*
G01*
X173129000Y-63188001D01*
G75*
G02*
X172879001Y-63438000I-249999J0D01*
G01*
X172353999Y-63438000D01*
G75*
G02*
X172104000Y-63188001I0J249999D01*
G01*
G37*
G36*
G01*
X170279000Y-63188001D02*
X170279000Y-62287999D01*
G75*
G02*
X170528999Y-62038000I249999J0D01*
G01*
X171054001Y-62038000D01*
G75*
G02*
X171304000Y-62287999I0J-249999D01*
G01*
X171304000Y-63188001D01*
G75*
G02*
X171054001Y-63438000I-249999J0D01*
G01*
X170528999Y-63438000D01*
G75*
G02*
X170279000Y-63188001I0J249999D01*
G01*
G37*
%TD*%
%TO.C,R1*%
G36*
G01*
X171304000Y-64319999D02*
X171304000Y-65220001D01*
G75*
G02*
X171054001Y-65470000I-249999J0D01*
G01*
X170528999Y-65470000D01*
G75*
G02*
X170279000Y-65220001I0J249999D01*
G01*
X170279000Y-64319999D01*
G75*
G02*
X170528999Y-64070000I249999J0D01*
G01*
X171054001Y-64070000D01*
G75*
G02*
X171304000Y-64319999I0J-249999D01*
G01*
G37*
G36*
G01*
X173129000Y-64319999D02*
X173129000Y-65220001D01*
G75*
G02*
X172879001Y-65470000I-249999J0D01*
G01*
X172353999Y-65470000D01*
G75*
G02*
X172104000Y-65220001I0J249999D01*
G01*
X172104000Y-64319999D01*
G75*
G02*
X172353999Y-64070000I249999J0D01*
G01*
X172879001Y-64070000D01*
G75*
G02*
X173129000Y-64319999I0J-249999D01*
G01*
G37*
%TD*%
D18*
%TO.C,Q2*%
X173736000Y-88075500D03*
X174686000Y-90075500D03*
X172786000Y-90075500D03*
%TD*%
%TO.C,Q1*%
X158496000Y-88075500D03*
X159446000Y-90075500D03*
X157546000Y-90075500D03*
%TD*%
%TO.C,C12*%
G36*
G01*
X162693000Y-58870000D02*
X163643000Y-58870000D01*
G75*
G02*
X163893000Y-59120000I0J-250000D01*
G01*
X163893000Y-59620000D01*
G75*
G02*
X163643000Y-59870000I-250000J0D01*
G01*
X162693000Y-59870000D01*
G75*
G02*
X162443000Y-59620000I0J250000D01*
G01*
X162443000Y-59120000D01*
G75*
G02*
X162693000Y-58870000I250000J0D01*
G01*
G37*
G36*
G01*
X162693000Y-56970000D02*
X163643000Y-56970000D01*
G75*
G02*
X163893000Y-57220000I0J-250000D01*
G01*
X163893000Y-57720000D01*
G75*
G02*
X163643000Y-57970000I-250000J0D01*
G01*
X162693000Y-57970000D01*
G75*
G02*
X162443000Y-57720000I0J250000D01*
G01*
X162443000Y-57220000D01*
G75*
G02*
X162693000Y-56970000I250000J0D01*
G01*
G37*
%TD*%
%TO.C,C11*%
G36*
G01*
X160675000Y-54994000D02*
X161625000Y-54994000D01*
G75*
G02*
X161875000Y-55244000I0J-250000D01*
G01*
X161875000Y-55744000D01*
G75*
G02*
X161625000Y-55994000I-250000J0D01*
G01*
X160675000Y-55994000D01*
G75*
G02*
X160425000Y-55744000I0J250000D01*
G01*
X160425000Y-55244000D01*
G75*
G02*
X160675000Y-54994000I250000J0D01*
G01*
G37*
G36*
G01*
X160675000Y-53094000D02*
X161625000Y-53094000D01*
G75*
G02*
X161875000Y-53344000I0J-250000D01*
G01*
X161875000Y-53844000D01*
G75*
G02*
X161625000Y-54094000I-250000J0D01*
G01*
X160675000Y-54094000D01*
G75*
G02*
X160425000Y-53844000I0J250000D01*
G01*
X160425000Y-53344000D01*
G75*
G02*
X160675000Y-53094000I250000J0D01*
G01*
G37*
%TD*%
%TO.C,C10*%
G36*
G01*
X160675000Y-58870000D02*
X161625000Y-58870000D01*
G75*
G02*
X161875000Y-59120000I0J-250000D01*
G01*
X161875000Y-59620000D01*
G75*
G02*
X161625000Y-59870000I-250000J0D01*
G01*
X160675000Y-59870000D01*
G75*
G02*
X160425000Y-59620000I0J250000D01*
G01*
X160425000Y-59120000D01*
G75*
G02*
X160675000Y-58870000I250000J0D01*
G01*
G37*
G36*
G01*
X160675000Y-56970000D02*
X161625000Y-56970000D01*
G75*
G02*
X161875000Y-57220000I0J-250000D01*
G01*
X161875000Y-57720000D01*
G75*
G02*
X161625000Y-57970000I-250000J0D01*
G01*
X160675000Y-57970000D01*
G75*
G02*
X160425000Y-57720000I0J250000D01*
G01*
X160425000Y-57220000D01*
G75*
G02*
X160675000Y-56970000I250000J0D01*
G01*
G37*
%TD*%
%TO.C,C7*%
G36*
G01*
X170493666Y-67852999D02*
X169543666Y-67852999D01*
G75*
G02*
X169293666Y-67602999I0J250000D01*
G01*
X169293666Y-67102999D01*
G75*
G02*
X169543666Y-66852999I250000J0D01*
G01*
X170493666Y-66852999D01*
G75*
G02*
X170743666Y-67102999I0J-250000D01*
G01*
X170743666Y-67602999D01*
G75*
G02*
X170493666Y-67852999I-250000J0D01*
G01*
G37*
G36*
G01*
X170493666Y-69752999D02*
X169543666Y-69752999D01*
G75*
G02*
X169293666Y-69502999I0J250000D01*
G01*
X169293666Y-69002999D01*
G75*
G02*
X169543666Y-68752999I250000J0D01*
G01*
X170493666Y-68752999D01*
G75*
G02*
X170743666Y-69002999I0J-250000D01*
G01*
X170743666Y-69502999D01*
G75*
G02*
X170493666Y-69752999I-250000J0D01*
G01*
G37*
%TD*%
%TO.C,C6*%
G36*
G01*
X176243000Y-67852999D02*
X175293000Y-67852999D01*
G75*
G02*
X175043000Y-67602999I0J250000D01*
G01*
X175043000Y-67102999D01*
G75*
G02*
X175293000Y-66852999I250000J0D01*
G01*
X176243000Y-66852999D01*
G75*
G02*
X176493000Y-67102999I0J-250000D01*
G01*
X176493000Y-67602999D01*
G75*
G02*
X176243000Y-67852999I-250000J0D01*
G01*
G37*
G36*
G01*
X176243000Y-69752999D02*
X175293000Y-69752999D01*
G75*
G02*
X175043000Y-69502999I0J250000D01*
G01*
X175043000Y-69002999D01*
G75*
G02*
X175293000Y-68752999I250000J0D01*
G01*
X176243000Y-68752999D01*
G75*
G02*
X176493000Y-69002999I0J-250000D01*
G01*
X176493000Y-69502999D01*
G75*
G02*
X176243000Y-69752999I-250000J0D01*
G01*
G37*
%TD*%
%TO.C,C5*%
G36*
G01*
X179037000Y-67876000D02*
X178087000Y-67876000D01*
G75*
G02*
X177837000Y-67626000I0J250000D01*
G01*
X177837000Y-67126000D01*
G75*
G02*
X178087000Y-66876000I250000J0D01*
G01*
X179037000Y-66876000D01*
G75*
G02*
X179287000Y-67126000I0J-250000D01*
G01*
X179287000Y-67626000D01*
G75*
G02*
X179037000Y-67876000I-250000J0D01*
G01*
G37*
G36*
G01*
X179037000Y-69776000D02*
X178087000Y-69776000D01*
G75*
G02*
X177837000Y-69526000I0J250000D01*
G01*
X177837000Y-69026000D01*
G75*
G02*
X178087000Y-68776000I250000J0D01*
G01*
X179037000Y-68776000D01*
G75*
G02*
X179287000Y-69026000I0J-250000D01*
G01*
X179287000Y-69526000D01*
G75*
G02*
X179037000Y-69776000I-250000J0D01*
G01*
G37*
%TD*%
%TO.C,C2*%
G36*
G01*
X174374000Y-85565000D02*
X174374000Y-84615000D01*
G75*
G02*
X174624000Y-84365000I250000J0D01*
G01*
X175124000Y-84365000D01*
G75*
G02*
X175374000Y-84615000I0J-250000D01*
G01*
X175374000Y-85565000D01*
G75*
G02*
X175124000Y-85815000I-250000J0D01*
G01*
X174624000Y-85815000D01*
G75*
G02*
X174374000Y-85565000I0J250000D01*
G01*
G37*
G36*
G01*
X172474000Y-85565000D02*
X172474000Y-84615000D01*
G75*
G02*
X172724000Y-84365000I250000J0D01*
G01*
X173224000Y-84365000D01*
G75*
G02*
X173474000Y-84615000I0J-250000D01*
G01*
X173474000Y-85565000D01*
G75*
G02*
X173224000Y-85815000I-250000J0D01*
G01*
X172724000Y-85815000D01*
G75*
G02*
X172474000Y-85565000I0J250000D01*
G01*
G37*
%TD*%
D19*
%TO.C,U1*%
X177024000Y-52680000D03*
X181624000Y-52680000D03*
X179324000Y-52680000D03*
D20*
X179324000Y-46380000D03*
%TD*%
%TO.C,C4*%
G36*
G01*
X173307001Y-50579000D02*
X173307001Y-51529000D01*
G75*
G02*
X173057001Y-51779000I-250000J0D01*
G01*
X172557001Y-51779000D01*
G75*
G02*
X172307001Y-51529000I0J250000D01*
G01*
X172307001Y-50579000D01*
G75*
G02*
X172557001Y-50329000I250000J0D01*
G01*
X173057001Y-50329000D01*
G75*
G02*
X173307001Y-50579000I0J-250000D01*
G01*
G37*
G36*
G01*
X175207001Y-50579000D02*
X175207001Y-51529000D01*
G75*
G02*
X174957001Y-51779000I-250000J0D01*
G01*
X174457001Y-51779000D01*
G75*
G02*
X174207001Y-51529000I0J250000D01*
G01*
X174207001Y-50579000D01*
G75*
G02*
X174457001Y-50329000I250000J0D01*
G01*
X174957001Y-50329000D01*
G75*
G02*
X175207001Y-50579000I0J-250000D01*
G01*
G37*
%TD*%
%TO.C,C3*%
G36*
G01*
X173307001Y-48293000D02*
X173307001Y-49243000D01*
G75*
G02*
X173057001Y-49493000I-250000J0D01*
G01*
X172557001Y-49493000D01*
G75*
G02*
X172307001Y-49243000I0J250000D01*
G01*
X172307001Y-48293000D01*
G75*
G02*
X172557001Y-48043000I250000J0D01*
G01*
X173057001Y-48043000D01*
G75*
G02*
X173307001Y-48293000I0J-250000D01*
G01*
G37*
G36*
G01*
X175207001Y-48293000D02*
X175207001Y-49243000D01*
G75*
G02*
X174957001Y-49493000I-250000J0D01*
G01*
X174457001Y-49493000D01*
G75*
G02*
X174207001Y-49243000I0J250000D01*
G01*
X174207001Y-48293000D01*
G75*
G02*
X174457001Y-48043000I250000J0D01*
G01*
X174957001Y-48043000D01*
G75*
G02*
X175207001Y-48293000I0J-250000D01*
G01*
G37*
%TD*%
%TO.C,C1*%
G36*
G01*
X173307001Y-46007000D02*
X173307001Y-46957000D01*
G75*
G02*
X173057001Y-47207000I-250000J0D01*
G01*
X172557001Y-47207000D01*
G75*
G02*
X172307001Y-46957000I0J250000D01*
G01*
X172307001Y-46007000D01*
G75*
G02*
X172557001Y-45757000I250000J0D01*
G01*
X173057001Y-45757000D01*
G75*
G02*
X173307001Y-46007000I0J-250000D01*
G01*
G37*
G36*
G01*
X175207001Y-46007000D02*
X175207001Y-46957000D01*
G75*
G02*
X174957001Y-47207000I-250000J0D01*
G01*
X174457001Y-47207000D01*
G75*
G02*
X174207001Y-46957000I0J250000D01*
G01*
X174207001Y-46007000D01*
G75*
G02*
X174457001Y-45757000I250000J0D01*
G01*
X174957001Y-45757000D01*
G75*
G02*
X175207001Y-46007000I0J-250000D01*
G01*
G37*
%TD*%
D21*
%TO.C,U2*%
X177478000Y-75940000D03*
X177478000Y-76740000D03*
X177478000Y-77540000D03*
X177478000Y-78340000D03*
X177478000Y-79140000D03*
X177478000Y-79940000D03*
X177478000Y-80740000D03*
X177478000Y-81540000D03*
D22*
X176028000Y-82990000D03*
X175228000Y-82990000D03*
X174428000Y-82990000D03*
X173628000Y-82990000D03*
X172828000Y-82990000D03*
X172028000Y-82990000D03*
X171228000Y-82990000D03*
X170428000Y-82990000D03*
D21*
X168978000Y-81540000D03*
X168978000Y-80740000D03*
X168978000Y-79940000D03*
X168978000Y-79140000D03*
X168978000Y-78340000D03*
X168978000Y-77540000D03*
X168978000Y-76740000D03*
X168978000Y-75940000D03*
D22*
X170428000Y-74490000D03*
X171228000Y-74490000D03*
X172028000Y-74490000D03*
X172828000Y-74490000D03*
X173628000Y-74490000D03*
X174428000Y-74490000D03*
X175228000Y-74490000D03*
X176028000Y-74490000D03*
%TD*%
%TO.C,R7*%
G36*
G01*
X159200001Y-49892000D02*
X158299999Y-49892000D01*
G75*
G02*
X158050000Y-49642001I0J249999D01*
G01*
X158050000Y-49116999D01*
G75*
G02*
X158299999Y-48867000I249999J0D01*
G01*
X159200001Y-48867000D01*
G75*
G02*
X159450000Y-49116999I0J-249999D01*
G01*
X159450000Y-49642001D01*
G75*
G02*
X159200001Y-49892000I-249999J0D01*
G01*
G37*
G36*
G01*
X159200001Y-51717000D02*
X158299999Y-51717000D01*
G75*
G02*
X158050000Y-51467001I0J249999D01*
G01*
X158050000Y-50941999D01*
G75*
G02*
X158299999Y-50692000I249999J0D01*
G01*
X159200001Y-50692000D01*
G75*
G02*
X159450000Y-50941999I0J-249999D01*
G01*
X159450000Y-51467001D01*
G75*
G02*
X159200001Y-51717000I-249999J0D01*
G01*
G37*
%TD*%
%TO.C,R6*%
G36*
G01*
X160331999Y-50692000D02*
X161232001Y-50692000D01*
G75*
G02*
X161482000Y-50941999I0J-249999D01*
G01*
X161482000Y-51467001D01*
G75*
G02*
X161232001Y-51717000I-249999J0D01*
G01*
X160331999Y-51717000D01*
G75*
G02*
X160082000Y-51467001I0J249999D01*
G01*
X160082000Y-50941999D01*
G75*
G02*
X160331999Y-50692000I249999J0D01*
G01*
G37*
G36*
G01*
X160331999Y-48867000D02*
X161232001Y-48867000D01*
G75*
G02*
X161482000Y-49116999I0J-249999D01*
G01*
X161482000Y-49642001D01*
G75*
G02*
X161232001Y-49892000I-249999J0D01*
G01*
X160331999Y-49892000D01*
G75*
G02*
X160082000Y-49642001I0J249999D01*
G01*
X160082000Y-49116999D01*
G75*
G02*
X160331999Y-48867000I249999J0D01*
G01*
G37*
%TD*%
%TO.C,R5*%
G36*
G01*
X167443999Y-68722999D02*
X168344001Y-68722999D01*
G75*
G02*
X168594000Y-68972998I0J-249999D01*
G01*
X168594000Y-69498000D01*
G75*
G02*
X168344001Y-69747999I-249999J0D01*
G01*
X167443999Y-69747999D01*
G75*
G02*
X167194000Y-69498000I0J249999D01*
G01*
X167194000Y-68972998D01*
G75*
G02*
X167443999Y-68722999I249999J0D01*
G01*
G37*
G36*
G01*
X167443999Y-66897999D02*
X168344001Y-66897999D01*
G75*
G02*
X168594000Y-67147998I0J-249999D01*
G01*
X168594000Y-67673000D01*
G75*
G02*
X168344001Y-67922999I-249999J0D01*
G01*
X167443999Y-67922999D01*
G75*
G02*
X167194000Y-67673000I0J249999D01*
G01*
X167194000Y-67147998D01*
G75*
G02*
X167443999Y-66897999I249999J0D01*
G01*
G37*
%TD*%
%TO.C,R4*%
G36*
G01*
X167443999Y-62884000D02*
X168344001Y-62884000D01*
G75*
G02*
X168594000Y-63133999I0J-249999D01*
G01*
X168594000Y-63659001D01*
G75*
G02*
X168344001Y-63909000I-249999J0D01*
G01*
X167443999Y-63909000D01*
G75*
G02*
X167194000Y-63659001I0J249999D01*
G01*
X167194000Y-63133999D01*
G75*
G02*
X167443999Y-62884000I249999J0D01*
G01*
G37*
G36*
G01*
X167443999Y-61059000D02*
X168344001Y-61059000D01*
G75*
G02*
X168594000Y-61308999I0J-249999D01*
G01*
X168594000Y-61834001D01*
G75*
G02*
X168344001Y-62084000I-249999J0D01*
G01*
X167443999Y-62084000D01*
G75*
G02*
X167194000Y-61834001I0J249999D01*
G01*
X167194000Y-61308999D01*
G75*
G02*
X167443999Y-61059000I249999J0D01*
G01*
G37*
%TD*%
D23*
%TO.C,J5*%
X155144000Y-97104000D03*
X167944000Y-97104000D03*
D24*
X166044000Y-92204000D03*
X164244000Y-92204000D03*
X158844000Y-92204000D03*
X157044000Y-92204000D03*
D25*
X161544000Y-96404000D03*
%TD*%
D23*
%TO.C,J4*%
X170384000Y-97104000D03*
X183184000Y-97104000D03*
D24*
X181284000Y-92204000D03*
X179484000Y-92204000D03*
X174084000Y-92204000D03*
X172284000Y-92204000D03*
D25*
X176784000Y-96404000D03*
%TD*%
D26*
%TO.C,J3*%
X158608000Y-45720000D03*
X161108000Y-45720000D03*
X163108000Y-45720000D03*
D27*
X165608000Y-45720000D03*
D28*
X155538000Y-43010000D03*
X168678000Y-43010000D03*
%TD*%
%TO.C,C9*%
G36*
G01*
X171686322Y-59363429D02*
X171014571Y-58691678D01*
G75*
G02*
X171014571Y-58338124I176777J176777D01*
G01*
X171368124Y-57984571D01*
G75*
G02*
X171721678Y-57984571I176777J-176777D01*
G01*
X172393429Y-58656322D01*
G75*
G02*
X172393429Y-59009876I-176777J-176777D01*
G01*
X172039876Y-59363429D01*
G75*
G02*
X171686322Y-59363429I-176777J176777D01*
G01*
G37*
G36*
G01*
X170342820Y-60706931D02*
X169671069Y-60035180D01*
G75*
G02*
X169671069Y-59681626I176777J176777D01*
G01*
X170024622Y-59328073D01*
G75*
G02*
X170378176Y-59328073I176777J-176777D01*
G01*
X171049927Y-59999824D01*
G75*
G02*
X171049927Y-60353378I-176777J-176777D01*
G01*
X170696374Y-60706931D01*
G75*
G02*
X170342820Y-60706931I-176777J176777D01*
G01*
G37*
%TD*%
%TO.C,C8*%
G36*
G01*
X164320322Y-50473429D02*
X163648571Y-49801678D01*
G75*
G02*
X163648571Y-49448124I176777J176777D01*
G01*
X164002124Y-49094571D01*
G75*
G02*
X164355678Y-49094571I176777J-176777D01*
G01*
X165027429Y-49766322D01*
G75*
G02*
X165027429Y-50119876I-176777J-176777D01*
G01*
X164673876Y-50473429D01*
G75*
G02*
X164320322Y-50473429I-176777J176777D01*
G01*
G37*
G36*
G01*
X162976820Y-51816931D02*
X162305069Y-51145180D01*
G75*
G02*
X162305069Y-50791626I176777J176777D01*
G01*
X162658622Y-50438073D01*
G75*
G02*
X163012176Y-50438073I176777J-176777D01*
G01*
X163683927Y-51109824D01*
G75*
G02*
X163683927Y-51463378I-176777J-176777D01*
G01*
X163330374Y-51816931D01*
G75*
G02*
X162976820Y-51816931I-176777J176777D01*
G01*
G37*
%TD*%
M02*
