%TF.GenerationSoftware,KiCad,Pcbnew,(5.1.9-16-g1737927814)-1*%
%TF.CreationDate,2021-07-25T19:14:51-05:00*%
%TF.ProjectId,adbuino,61646275-696e-46f2-9e6b-696361645f70,rev?*%
%TF.SameCoordinates,Original*%
%TF.FileFunction,Copper,L2,Bot*%
%TF.FilePolarity,Positive*%
%FSLAX46Y46*%
G04 Gerber Fmt 4.6, Leading zero omitted, Abs format (unit mm)*
G04 Created by KiCad (PCBNEW (5.1.9-16-g1737927814)-1) date 2021-07-25 19:14:51*
%MOMM*%
%LPD*%
G01*
G04 APERTURE LIST*
%TA.AperFunction,NonConductor*%
%ADD10C,0.300000*%
%TD*%
%TA.AperFunction,ComponentPad*%
%ADD11C,2.000000*%
%TD*%
%TA.AperFunction,SMDPad,CuDef*%
%ADD12R,1.400000X0.400000*%
%TD*%
%TA.AperFunction,SMDPad,CuDef*%
%ADD13R,3.500000X0.900000*%
%TD*%
%TA.AperFunction,ComponentPad*%
%ADD14O,3.600000X1.800000*%
%TD*%
%TA.AperFunction,ComponentPad*%
%ADD15C,3.316000*%
%TD*%
%TA.AperFunction,SMDPad,CuDef*%
%ADD16C,1.000000*%
%TD*%
%TA.AperFunction,ComponentPad*%
%ADD17O,1.700000X1.700000*%
%TD*%
%TA.AperFunction,ComponentPad*%
%ADD18R,1.700000X1.700000*%
%TD*%
%TA.AperFunction,ComponentPad*%
%ADD19C,1.600000*%
%TD*%
%TA.AperFunction,ComponentPad*%
%ADD20R,1.500000X1.600000*%
%TD*%
%TA.AperFunction,ComponentPad*%
%ADD21C,3.000000*%
%TD*%
%TA.AperFunction,ViaPad*%
%ADD22C,0.800000*%
%TD*%
%TA.AperFunction,Conductor*%
%ADD23C,0.250000*%
%TD*%
%TA.AperFunction,Conductor*%
%ADD24C,0.150000*%
%TD*%
%TA.AperFunction,Conductor*%
%ADD25C,0.400000*%
%TD*%
%TA.AperFunction,Conductor*%
%ADD26C,0.254000*%
%TD*%
%TA.AperFunction,Conductor*%
%ADD27C,0.100000*%
%TD*%
G04 APERTURE END LIST*
D10*
X26562857Y-26492000D02*
X26634285Y-26706285D01*
X26705714Y-26777714D01*
X26848571Y-26849142D01*
X27062857Y-26849142D01*
X27205714Y-26777714D01*
X27277142Y-26706285D01*
X27348571Y-26563428D01*
X27348571Y-25992000D01*
X25848571Y-25992000D01*
X25848571Y-26492000D01*
X25920000Y-26634857D01*
X25991428Y-26706285D01*
X26134285Y-26777714D01*
X26277142Y-26777714D01*
X26420000Y-26706285D01*
X26491428Y-26634857D01*
X26562857Y-26492000D01*
X26562857Y-25992000D01*
X26920000Y-27420571D02*
X26920000Y-28134857D01*
X27348571Y-27277714D02*
X25848571Y-27777714D01*
X27348571Y-28277714D01*
X27348571Y-28777714D02*
X25848571Y-28777714D01*
X25848571Y-29134857D01*
X25920000Y-29349142D01*
X26062857Y-29492000D01*
X26205714Y-29563428D01*
X26491428Y-29634857D01*
X26705714Y-29634857D01*
X26991428Y-29563428D01*
X27134285Y-29492000D01*
X27277142Y-29349142D01*
X27348571Y-29134857D01*
X27348571Y-28777714D01*
X25848571Y-31277714D02*
X27348571Y-31634857D01*
X26277142Y-31920571D01*
X27348571Y-32206285D01*
X25848571Y-32563428D01*
X25848571Y-33420571D02*
X25848571Y-33706285D01*
X25920000Y-33849142D01*
X26062857Y-33992000D01*
X26348571Y-34063428D01*
X26848571Y-34063428D01*
X27134285Y-33992000D01*
X27277142Y-33849142D01*
X27348571Y-33706285D01*
X27348571Y-33420571D01*
X27277142Y-33277714D01*
X27134285Y-33134857D01*
X26848571Y-33063428D01*
X26348571Y-33063428D01*
X26062857Y-33134857D01*
X25920000Y-33277714D01*
X25848571Y-33420571D01*
X27348571Y-35420571D02*
X27348571Y-34706285D01*
X25848571Y-34706285D01*
X26562857Y-36420571D02*
X26562857Y-35920571D01*
X27348571Y-35920571D02*
X25848571Y-35920571D01*
X25848571Y-36634857D01*
D11*
%TO.P,J2,MH4*%
%TO.N,GND*%
X43743000Y-28683000D03*
%TO.P,J2,MH3*%
X43743000Y-35833000D03*
%TO.P,J2,MH2*%
X47193000Y-35833000D03*
%TO.P,J2,MH1*%
X47193000Y-28683000D03*
D12*
%TO.P,J2,5*%
X44243000Y-33558000D03*
%TO.P,J2,4*%
%TO.N,N/C*%
X44243000Y-32908000D03*
%TO.P,J2,3*%
X44243000Y-32258000D03*
%TO.P,J2,2*%
X44243000Y-31608000D03*
%TO.P,J2,1*%
%TO.N,VBUS*%
X44243000Y-30958000D03*
%TD*%
D13*
%TO.P,J5,3*%
%TO.N,ADB_1_5v*%
X33156000Y-62810000D03*
%TO.P,J5,1*%
%TO.N,ADB_1_DATA*%
X33156000Y-64610000D03*
%TO.P,J5,2*%
%TO.N,ADB_1_PWR_ON*%
X33156000Y-70010000D03*
%TO.P,J5,4*%
%TO.N,GND*%
X33156000Y-71810000D03*
D14*
%TO.P,J5,S3*%
X27356000Y-73710000D03*
%TO.P,J5,S2*%
X27356000Y-60910000D03*
D15*
%TO.P,J5,S1*%
X28056000Y-67310000D03*
%TD*%
D13*
%TO.P,J4,3*%
%TO.N,ADB_1_5v*%
X41774000Y-71810000D03*
%TO.P,J4,1*%
%TO.N,ADB_1_DATA*%
X41774000Y-70010000D03*
%TO.P,J4,2*%
%TO.N,ADB_1_PWR_ON*%
X41774000Y-64610000D03*
%TO.P,J4,4*%
%TO.N,GND*%
X41774000Y-62810000D03*
D14*
%TO.P,J4,S3*%
X47574000Y-60910000D03*
%TO.P,J4,S2*%
X47574000Y-73710000D03*
D15*
%TO.P,J4,S1*%
X46874000Y-67310000D03*
%TD*%
D16*
%TO.P,TP26,1*%
%TO.N,GND*%
X43700000Y-74000000D03*
%TD*%
%TO.P,TP25,1*%
%TO.N,ATMEGA_SPI_MOSI*%
X41160000Y-74000000D03*
%TD*%
%TO.P,TP24,1*%
%TO.N,+3V3*%
X38620000Y-74000000D03*
%TD*%
%TO.P,TP23,1*%
%TO.N,/RESET*%
X36080000Y-74000000D03*
%TD*%
%TO.P,TP22,1*%
%TO.N,ATMEGA_SPI_SCLK*%
X33540000Y-74000000D03*
%TD*%
%TO.P,TP14,1*%
%TO.N,ATMEGA_SPI_MISO*%
X31000000Y-74000000D03*
%TD*%
D17*
%TO.P,J1,6*%
%TO.N,FTDI_DTR*%
X48000000Y-57700000D03*
%TO.P,J1,5*%
%TO.N,FTDI_TXO*%
X48000000Y-55160000D03*
%TO.P,J1,4*%
%TO.N,FTDI_RXI*%
X48000000Y-52620000D03*
%TO.P,J1,3*%
%TO.N,+3V3*%
X48000000Y-50080000D03*
%TO.P,J1,2*%
%TO.N,N/C*%
X48000000Y-47540000D03*
D18*
%TO.P,J1,1*%
%TO.N,GND*%
X48000000Y-45000000D03*
%TD*%
D16*
%TO.P,TP3,1*%
%TO.N,MAX3421_GPX*%
X39370000Y-58166000D03*
%TD*%
D19*
%TO.P,J3,4*%
%TO.N,GND*%
X37338000Y-30084000D03*
%TO.P,J3,3*%
%TO.N,Net-(J3-Pad3)*%
X37338000Y-32584000D03*
%TO.P,J3,2*%
%TO.N,Net-(J3-Pad2)*%
X37338000Y-34584000D03*
D20*
%TO.P,J3,1*%
%TO.N,Net-(F1-Pad1)*%
X37338000Y-37084000D03*
D21*
%TO.P,J3,5*%
%TO.N,GND*%
X34628000Y-27014000D03*
X34628000Y-40154000D03*
%TD*%
D22*
%TO.N,ADB_1_5v*%
X40155624Y-71736455D03*
X36793010Y-71015411D03*
%TO.N,ADB_1_DATA*%
X41818560Y-69006720D03*
X39124415Y-71731686D03*
X36272100Y-72276884D03*
%TO.N,ADB_1_PWR_ON*%
X31714044Y-66583560D03*
X40640000Y-63860002D03*
X31967554Y-69601479D03*
X35682138Y-64243960D03*
%TO.N,GND*%
X45720000Y-52324000D03*
X39624000Y-48006000D03*
X39878000Y-46482000D03*
X28448000Y-44196000D03*
X26924000Y-40132000D03*
X32258000Y-38862000D03*
X30480000Y-43434000D03*
X28448000Y-49530000D03*
X33273503Y-43688489D03*
X34287349Y-42604011D03*
X34290000Y-46228000D03*
X39322789Y-66207718D03*
X45466000Y-69850000D03*
X27432000Y-70358000D03*
X35372146Y-72712895D03*
X31160634Y-69010804D03*
X44958000Y-43434000D03*
%TO.N,+3V3*%
X30347920Y-32420560D03*
X31790640Y-34925000D03*
X31790640Y-53070760D03*
X36576000Y-61976000D03*
X37593012Y-70105012D03*
X31787188Y-42073980D03*
X37447828Y-65387828D03*
X40287358Y-73330298D03*
%TO.N,VBUS*%
X33401000Y-34066480D03*
%TO.N,Host_USB_D-*%
X39756080Y-45349160D03*
X40519218Y-33425727D03*
%TO.N,Host_USB_D+*%
X39654480Y-32923480D03*
X38969571Y-46063932D03*
%TO.N,FTDI_DTR*%
X45899763Y-64466459D03*
%TO.N,MAX3421_INT*%
X36830000Y-42672000D03*
X35579305Y-61894624D03*
%TO.N,MAX3421_GPX*%
X38519658Y-41821195D03*
X37347628Y-60187503D03*
%TO.N,ADB_DATA_LV*%
X47244000Y-70358000D03*
X44615233Y-61204501D03*
%TO.N,ADB_PWR_ON_LV*%
X35327096Y-70887412D03*
X35555525Y-66043982D03*
%TO.N,FTDI_TXO*%
X44574011Y-64969804D03*
%TO.N,FTDI_RXI*%
X42819184Y-66851295D03*
%TO.N,/RESET*%
X40776478Y-68761952D03*
X36869868Y-73078567D03*
X38432865Y-72454032D03*
%TO.N,DEBUG_LED*%
X29464000Y-54610000D03*
X29008957Y-69816679D03*
%TO.N,ATMEGA_SS*%
X45212000Y-37592000D03*
X39073987Y-62235017D03*
%TO.N,ATMEGA_SPI_MOSI*%
X31299646Y-61423083D03*
X41148000Y-37338000D03*
X35035636Y-73654588D03*
X39542183Y-72663411D03*
X37744985Y-62721366D03*
%TO.N,ATMEGA_SPI_MISO*%
X42672000Y-37338000D03*
X29718000Y-62230000D03*
X38672457Y-63180493D03*
%TO.N,ATMEGA_SPI_SCLK*%
X46637137Y-37333340D03*
X39296504Y-64733010D03*
X30486081Y-65779919D03*
%TO.N,MAX3421_RESET*%
X34544000Y-47752000D03*
X33770361Y-58431639D03*
%TD*%
D23*
%TO.N,ADB_1_5v*%
X40229169Y-71810000D02*
X40155624Y-71736455D01*
X41774000Y-71810000D02*
X40229169Y-71810000D01*
X36922817Y-63775226D02*
X36922817Y-64839837D01*
X36722827Y-65039827D02*
X36722827Y-65735829D01*
X36866999Y-70941422D02*
X36793010Y-71015411D01*
X36866999Y-65880001D02*
X36866999Y-70941422D01*
X36722827Y-65735829D02*
X36866999Y-65880001D01*
X36922817Y-64839837D02*
X36722827Y-65039827D01*
X35957591Y-62810000D02*
X36922817Y-63775226D01*
X33156000Y-62810000D02*
X35957591Y-62810000D01*
%TO.N,ADB_1_DATA*%
X41818560Y-69965440D02*
X41774000Y-70010000D01*
X41818560Y-69006720D02*
X41818560Y-69965440D01*
X39124415Y-70622397D02*
X39124415Y-71731686D01*
X39736812Y-70010000D02*
X39124415Y-70622397D01*
X41774000Y-70010000D02*
X39736812Y-70010000D01*
X36030139Y-63518959D02*
X36472806Y-63961626D01*
X33156000Y-64610000D02*
X34243096Y-64610000D01*
X36472806Y-63961626D02*
X36472806Y-64653437D01*
X36272816Y-65922229D02*
X36416988Y-66066401D01*
X36416988Y-66066401D02*
X36416988Y-67215012D01*
X36062552Y-72067336D02*
X36272100Y-72276884D01*
X35334137Y-63518959D02*
X36030139Y-63518959D01*
X36416988Y-67215012D02*
X36062552Y-67569448D01*
X36062552Y-67569448D02*
X36062552Y-72067336D01*
X34243096Y-64610000D02*
X35334137Y-63518959D01*
X36472806Y-64653437D02*
X36272816Y-64853427D01*
X36272816Y-64853427D02*
X36272816Y-65922229D01*
%TO.N,ADB_1_PWR_ON*%
X33156000Y-70010000D02*
X33156000Y-68682919D01*
X33156000Y-68682919D02*
X31469970Y-66996889D01*
X31469970Y-66827634D02*
X31714044Y-66583560D01*
X31469970Y-66996889D02*
X31469970Y-66827634D01*
X41774000Y-64610000D02*
X41712130Y-64671870D01*
X41389998Y-64610000D02*
X40640000Y-63860002D01*
X41774000Y-64610000D02*
X41389998Y-64610000D01*
X33156000Y-70010000D02*
X32376075Y-70010000D01*
X32376075Y-70010000D02*
X31967554Y-69601479D01*
X35682138Y-64809645D02*
X35682138Y-64243960D01*
X33156000Y-67335783D02*
X35682138Y-64809645D01*
X33156000Y-70010000D02*
X33156000Y-67335783D01*
%TO.N,GND*%
X41774000Y-62810000D02*
X41774000Y-61096000D01*
X41774000Y-61096000D02*
X44196000Y-58674000D01*
X44196000Y-48804000D02*
X48000000Y-45000000D01*
X44196000Y-58674000D02*
X44196000Y-48804000D01*
X39878000Y-47752000D02*
X39624000Y-48006000D01*
X39878000Y-46482000D02*
X39878000Y-47752000D01*
X33336000Y-38862000D02*
X34628000Y-40154000D01*
X32258000Y-38862000D02*
X33336000Y-38862000D01*
X44243000Y-33558000D02*
X42642000Y-33558000D01*
X42642000Y-33558000D02*
X42672000Y-33588000D01*
X42672000Y-34762000D02*
X43743000Y-35833000D01*
X42672000Y-33588000D02*
X42672000Y-34762000D01*
X44243000Y-33558000D02*
X45750000Y-33558000D01*
X45750000Y-33558000D02*
X46228000Y-34036000D01*
X46228000Y-34868000D02*
X47193000Y-35833000D01*
X46228000Y-34036000D02*
X46228000Y-34868000D01*
X41774000Y-62810000D02*
X41774000Y-63128000D01*
X39322789Y-66207718D02*
X40675538Y-67560467D01*
X40675538Y-67560467D02*
X42668467Y-67560467D01*
X44958000Y-69850000D02*
X45466000Y-69850000D01*
X42668467Y-67560467D02*
X44958000Y-69850000D01*
D24*
X33156000Y-71810000D02*
X34282363Y-71810000D01*
D23*
X33156000Y-71810000D02*
X34469251Y-71810000D01*
X34469251Y-71810000D02*
X35372146Y-72712895D01*
D24*
X31256000Y-71810000D02*
X30734000Y-71288000D01*
X33156000Y-71810000D02*
X31256000Y-71810000D01*
X30734000Y-69437438D02*
X31160634Y-69010804D01*
X30734000Y-71288000D02*
X30734000Y-69437438D01*
D25*
%TO.N,+3V3*%
X31790640Y-33863280D02*
X30347920Y-32420560D01*
X31790640Y-34925000D02*
X31790640Y-33863280D01*
X36547618Y-44138384D02*
X36576000Y-61976000D01*
X36445999Y-41871999D02*
X37214001Y-41871999D01*
X37630001Y-43056001D02*
X36547618Y-44138384D01*
X37630001Y-42287999D02*
X37630001Y-43056001D01*
X37214001Y-41871999D02*
X37630001Y-42287999D01*
X31790640Y-46527358D02*
X36445999Y-41871999D01*
X31790640Y-53070760D02*
X31790640Y-46527358D01*
X31790640Y-42077432D02*
X31787188Y-42073980D01*
X31790640Y-34925000D02*
X31203999Y-35511641D01*
X31203999Y-35511641D02*
X31203999Y-41490791D01*
X31203999Y-41490791D02*
X31787188Y-42073980D01*
X31790640Y-53070760D02*
X31790640Y-42077432D01*
D23*
X39617656Y-74000000D02*
X40287358Y-73330298D01*
X38620000Y-74000000D02*
X39617656Y-74000000D01*
D25*
X37593012Y-63702945D02*
X37593012Y-72617707D01*
X37669870Y-73049870D02*
X38620000Y-74000000D01*
X36576000Y-62685933D02*
X37593012Y-63702945D01*
X36576000Y-61976000D02*
X36576000Y-62685933D01*
X37593012Y-72617707D02*
X37669870Y-72694565D01*
X37669870Y-72694565D02*
X37669870Y-73049870D01*
%TO.N,VBUS*%
X38240002Y-30958000D02*
X37910282Y-31287720D01*
X44243000Y-30958000D02*
X38240002Y-30958000D01*
X36858278Y-31287720D02*
X34358918Y-33787080D01*
X37910282Y-31287720D02*
X36858278Y-31287720D01*
X33680400Y-33787080D02*
X33401000Y-34066480D01*
X34358918Y-33787080D02*
X33680400Y-33787080D01*
D23*
%TO.N,Host_USB_D-*%
X39756080Y-45349160D02*
X39756080Y-34188865D01*
X39756080Y-34188865D02*
X40519218Y-33425727D01*
%TO.N,Host_USB_D+*%
X39244660Y-33333300D02*
X39244660Y-42169197D01*
X38969571Y-42444286D02*
X38969571Y-46063932D01*
X39244660Y-42169197D02*
X38969571Y-42444286D01*
X39654480Y-32923480D02*
X39244660Y-33333300D01*
%TO.N,FTDI_DTR*%
X45448990Y-64015686D02*
X45899763Y-64466459D01*
X48000000Y-57700000D02*
X45448990Y-60251010D01*
X45448990Y-60251010D02*
X45448990Y-64015686D01*
D24*
%TO.N,MAX3421_INT*%
X36830000Y-42672000D02*
X35579305Y-43922695D01*
X35579305Y-43922695D02*
X35579305Y-61894624D01*
%TO.N,MAX3421_GPX*%
X38519658Y-41821195D02*
X38119659Y-42221194D01*
X38119659Y-42221194D02*
X38119659Y-59415472D01*
X38119659Y-59415472D02*
X37347628Y-60187503D01*
X38120528Y-59415472D02*
X39370000Y-58166000D01*
X38119659Y-59415472D02*
X38120528Y-59415472D01*
%TO.N,ADB_DATA_LV*%
X47244000Y-70358000D02*
X47498000Y-70358000D01*
X45495313Y-69174998D02*
X44898013Y-68577698D01*
X45249013Y-65293806D02*
X45249013Y-64645802D01*
X44898013Y-65644806D02*
X45249013Y-65293806D01*
X44898013Y-68577698D02*
X44898013Y-65644806D01*
X46060998Y-69174998D02*
X45495313Y-69174998D01*
X45249013Y-64645802D02*
X45015232Y-64412021D01*
X45015232Y-64412021D02*
X45015232Y-61604500D01*
X45015232Y-61604500D02*
X44615233Y-61204501D01*
X46060998Y-69174998D02*
X47244000Y-70358000D01*
%TO.N,ADB_PWR_ON_LV*%
X35327096Y-66272411D02*
X35555525Y-66043982D01*
X35327096Y-70887412D02*
X35327096Y-66272411D01*
D23*
%TO.N,FTDI_TXO*%
X43724998Y-61339585D02*
X44574011Y-62188598D01*
X43724998Y-60865998D02*
X43724998Y-61339585D01*
X44574011Y-62188598D02*
X44574011Y-64969804D01*
X48000000Y-55160000D02*
X45808022Y-57351978D01*
X45808022Y-58782974D02*
X43724998Y-60865998D01*
X45808022Y-57351978D02*
X45808022Y-58782974D01*
%TO.N,FTDI_RXI*%
X48000000Y-52620000D02*
X45358011Y-55261989D01*
X45358011Y-55261989D02*
X45358011Y-58596574D01*
X45358011Y-58596574D02*
X43274987Y-60679598D01*
X43274987Y-60679598D02*
X43274987Y-61525985D01*
X43849001Y-62099999D02*
X43849001Y-65821478D01*
X43849001Y-65821478D02*
X42819184Y-66851295D01*
X43274987Y-61525985D02*
X43849001Y-62099999D01*
%TO.N,/RESET*%
X36869868Y-73210132D02*
X36869868Y-73078567D01*
X36080000Y-74000000D02*
X36869868Y-73210132D01*
X40210793Y-68761952D02*
X38296885Y-70675860D01*
X38296885Y-70675860D02*
X38296885Y-72318052D01*
X38296885Y-72318052D02*
X38432865Y-72454032D01*
X40776478Y-68761952D02*
X40210793Y-68761952D01*
D24*
%TO.N,DEBUG_LED*%
X27301838Y-69416680D02*
X28608958Y-69416680D01*
X25908000Y-64919715D02*
X25908000Y-68022842D01*
X29464000Y-61363715D02*
X25908000Y-64919715D01*
X29464000Y-54610000D02*
X29464000Y-61363715D01*
X28608958Y-69416680D02*
X29008957Y-69816679D01*
X25908000Y-68022842D02*
X27301838Y-69416680D01*
%TO.N,ATMEGA_SS*%
X45212000Y-37592000D02*
X41910000Y-40894000D01*
X41910000Y-40894000D02*
X41910000Y-59089638D01*
X41910000Y-59089638D02*
X39130884Y-61868754D01*
X39130884Y-62178120D02*
X39073987Y-62235017D01*
X39130884Y-61868754D02*
X39130884Y-62178120D01*
%TO.N,ATMEGA_SPI_MOSI*%
X31299646Y-61423083D02*
X30899647Y-61823082D01*
X30899647Y-61823082D02*
X30899647Y-65194481D01*
X31689115Y-73038117D02*
X34419165Y-73038117D01*
X30899647Y-65194481D02*
X31161083Y-65455917D01*
X31161083Y-65455917D02*
X31161083Y-66103921D01*
X31161083Y-66103921D02*
X30689023Y-66575981D01*
X30689023Y-66575981D02*
X30689023Y-68527799D01*
X30689023Y-68527799D02*
X30383990Y-68832832D01*
X30383990Y-68832832D02*
X30383990Y-71732992D01*
X30383990Y-71732992D02*
X31689115Y-73038117D01*
X34419165Y-73038117D02*
X35035636Y-73654588D01*
X41160000Y-74000000D02*
X41160000Y-73203936D01*
X41160000Y-73203936D02*
X40611360Y-72655296D01*
X40611360Y-72655296D02*
X39550298Y-72655296D01*
X39550298Y-72655296D02*
X39542183Y-72663411D01*
X37744985Y-61746083D02*
X37744985Y-62721366D01*
X40748001Y-58743067D02*
X37744985Y-61746083D01*
X40748001Y-37737999D02*
X40748001Y-58743067D01*
X41148000Y-37338000D02*
X40748001Y-37737999D01*
%TO.N,ATMEGA_SPI_MISO*%
X29718000Y-66023004D02*
X29718000Y-62230000D01*
X29989001Y-66294005D02*
X29718000Y-66023004D01*
X29989001Y-68237841D02*
X29989001Y-66294005D01*
X29683968Y-68542874D02*
X29989001Y-68237841D01*
X29683968Y-72683968D02*
X29683968Y-68542874D01*
X31000000Y-74000000D02*
X29683968Y-72683968D01*
X38398987Y-62554273D02*
X38672457Y-62827743D01*
X38398987Y-61906269D02*
X38398987Y-62554273D01*
X42672000Y-37338000D02*
X41209978Y-38800022D01*
X38672457Y-62827743D02*
X38672457Y-63180493D01*
X41209978Y-38800022D02*
X41209978Y-59095278D01*
X41209978Y-59095278D02*
X38398987Y-61906269D01*
%TO.N,ATMEGA_SPI_SCLK*%
X30339012Y-68382820D02*
X30339012Y-65926988D01*
X30033979Y-71886977D02*
X30033979Y-68687853D01*
X32147002Y-74000000D02*
X30033979Y-71886977D01*
X33540000Y-74000000D02*
X32147002Y-74000000D01*
X30033979Y-68687853D02*
X30339012Y-68382820D01*
X30339012Y-65926988D02*
X30486081Y-65779919D01*
X42926000Y-41044477D02*
X42926000Y-58962998D01*
X39748999Y-64280515D02*
X39296504Y-64733010D01*
X46637137Y-37333340D02*
X42926000Y-41044477D01*
X39748999Y-62139999D02*
X39748999Y-64280515D01*
X42926000Y-58962998D02*
X39748999Y-62139999D01*
%TO.N,MAX3421_RESET*%
X34544000Y-47752000D02*
X34544000Y-57658000D01*
X34544000Y-57658000D02*
X33770361Y-58431639D01*
%TD*%
D26*
%TO.N,GND*%
X49340001Y-59644582D02*
X49178751Y-59540446D01*
X48898023Y-59429271D01*
X48601000Y-59375000D01*
X47701000Y-59375000D01*
X47701000Y-60783000D01*
X47721000Y-60783000D01*
X47721000Y-61037000D01*
X47701000Y-61037000D01*
X47701000Y-62445000D01*
X48601000Y-62445000D01*
X48898023Y-62390729D01*
X49178751Y-62279554D01*
X49340001Y-62175418D01*
X49340001Y-72444583D01*
X49178751Y-72340446D01*
X48898023Y-72229271D01*
X48601000Y-72175000D01*
X47701000Y-72175000D01*
X47701000Y-73583000D01*
X47721000Y-73583000D01*
X47721000Y-73837000D01*
X47701000Y-73837000D01*
X47701000Y-73857000D01*
X47447000Y-73857000D01*
X47447000Y-73837000D01*
X45303622Y-73837000D01*
X45182964Y-74074740D01*
X45207245Y-74180087D01*
X45276430Y-74340000D01*
X44786790Y-74340000D01*
X44831731Y-74141095D01*
X44837511Y-73917594D01*
X44799577Y-73697260D01*
X44719387Y-73488560D01*
X44691588Y-73436550D01*
X44478166Y-73401439D01*
X43879605Y-74000000D01*
X43893748Y-74014143D01*
X43714143Y-74193748D01*
X43700000Y-74179605D01*
X43685858Y-74193748D01*
X43506253Y-74014143D01*
X43520395Y-74000000D01*
X42921834Y-73401439D01*
X42708412Y-73436550D01*
X42617542Y-73640826D01*
X42568269Y-73858905D01*
X42562489Y-74082406D01*
X42600423Y-74302740D01*
X42614740Y-74340000D01*
X42247683Y-74340000D01*
X42251383Y-74331067D01*
X42295000Y-74111788D01*
X42295000Y-73888212D01*
X42251383Y-73668933D01*
X42165824Y-73462376D01*
X42041612Y-73276480D01*
X41883520Y-73118388D01*
X41863706Y-73105148D01*
X41859727Y-73064752D01*
X41819128Y-72930916D01*
X41801573Y-72898072D01*
X43410915Y-72898072D01*
X43397260Y-72900423D01*
X43188560Y-72980613D01*
X43136550Y-73008412D01*
X43101439Y-73221834D01*
X43700000Y-73820395D01*
X44175135Y-73345260D01*
X45182964Y-73345260D01*
X45303622Y-73583000D01*
X47447000Y-73583000D01*
X47447000Y-72175000D01*
X46547000Y-72175000D01*
X46249977Y-72229271D01*
X45969249Y-72340446D01*
X45715604Y-72504252D01*
X45498790Y-72714394D01*
X45327138Y-72962796D01*
X45207245Y-73239913D01*
X45182964Y-73345260D01*
X44175135Y-73345260D01*
X44298561Y-73221834D01*
X44263450Y-73008412D01*
X44059174Y-72917542D01*
X43841095Y-72868269D01*
X43716901Y-72865057D01*
X43768180Y-72849502D01*
X43878494Y-72790537D01*
X43975185Y-72711185D01*
X44054537Y-72614494D01*
X44113502Y-72504180D01*
X44149812Y-72384482D01*
X44162072Y-72260000D01*
X44162072Y-71360000D01*
X44149812Y-71235518D01*
X44113502Y-71115820D01*
X44054537Y-71005506D01*
X43976158Y-70910000D01*
X44054537Y-70814494D01*
X44113502Y-70704180D01*
X44149812Y-70584482D01*
X44162072Y-70460000D01*
X44162072Y-69560000D01*
X44149812Y-69435518D01*
X44113502Y-69315820D01*
X44054537Y-69205506D01*
X43975185Y-69108815D01*
X43878494Y-69029463D01*
X43768180Y-68970498D01*
X43648482Y-68934188D01*
X43524000Y-68921928D01*
X42853560Y-68921928D01*
X42853560Y-68904781D01*
X42813786Y-68704822D01*
X42735765Y-68516464D01*
X42622497Y-68346946D01*
X42478334Y-68202783D01*
X42308816Y-68089515D01*
X42120458Y-68011494D01*
X41920499Y-67971720D01*
X41716621Y-67971720D01*
X41516662Y-68011494D01*
X41497619Y-68019382D01*
X41436252Y-67958015D01*
X41266734Y-67844747D01*
X41078376Y-67766726D01*
X40878417Y-67726952D01*
X40674539Y-67726952D01*
X40474580Y-67766726D01*
X40286222Y-67844747D01*
X40116704Y-67958015D01*
X40061754Y-68012965D01*
X39918546Y-68056406D01*
X39786517Y-68126978D01*
X39670792Y-68221951D01*
X39646994Y-68250949D01*
X38428012Y-69469932D01*
X38428012Y-65726040D01*
X38443054Y-65689726D01*
X38482828Y-65489767D01*
X38482828Y-65378209D01*
X38492567Y-65392784D01*
X38636730Y-65536947D01*
X38806248Y-65650215D01*
X38994606Y-65728236D01*
X39194565Y-65768010D01*
X39398443Y-65768010D01*
X39598402Y-65728236D01*
X39784820Y-65651019D01*
X39899518Y-65685812D01*
X40024000Y-65698072D01*
X42897605Y-65698072D01*
X42779383Y-65816295D01*
X42717245Y-65816295D01*
X42517286Y-65856069D01*
X42328928Y-65934090D01*
X42159410Y-66047358D01*
X42015247Y-66191521D01*
X41901979Y-66361039D01*
X41823958Y-66549397D01*
X41784184Y-66749356D01*
X41784184Y-66953234D01*
X41823958Y-67153193D01*
X41901979Y-67341551D01*
X42015247Y-67511069D01*
X42159410Y-67655232D01*
X42328928Y-67768500D01*
X42517286Y-67846521D01*
X42717245Y-67886295D01*
X42921123Y-67886295D01*
X43121082Y-67846521D01*
X43309440Y-67768500D01*
X43478958Y-67655232D01*
X43623121Y-67511069D01*
X43736389Y-67341551D01*
X43814410Y-67153193D01*
X43854184Y-66953234D01*
X43854184Y-66891096D01*
X44188014Y-66557267D01*
X44188013Y-68542823D01*
X44184578Y-68577698D01*
X44188013Y-68612573D01*
X44188013Y-68612574D01*
X44198286Y-68716881D01*
X44238885Y-68850717D01*
X44304813Y-68974060D01*
X44393538Y-69082172D01*
X44420630Y-69104406D01*
X44968601Y-69652377D01*
X44990838Y-69679473D01*
X45098950Y-69768198D01*
X45222293Y-69834126D01*
X45356129Y-69874725D01*
X45460436Y-69884998D01*
X45460438Y-69884998D01*
X45495313Y-69888433D01*
X45530188Y-69884998D01*
X45766907Y-69884998D01*
X46209000Y-70327092D01*
X46209000Y-70459939D01*
X46248774Y-70659898D01*
X46326795Y-70848256D01*
X46440063Y-71017774D01*
X46584226Y-71161937D01*
X46753744Y-71275205D01*
X46942102Y-71353226D01*
X47142061Y-71393000D01*
X47345939Y-71393000D01*
X47545898Y-71353226D01*
X47734256Y-71275205D01*
X47903774Y-71161937D01*
X48047937Y-71017774D01*
X48161205Y-70848256D01*
X48239226Y-70659898D01*
X48279000Y-70459939D01*
X48279000Y-70256061D01*
X48239226Y-70056102D01*
X48161205Y-69867744D01*
X48047937Y-69698226D01*
X47903774Y-69554063D01*
X47735610Y-69441700D01*
X47789424Y-69424438D01*
X48123509Y-69245867D01*
X48298525Y-68914130D01*
X46874000Y-67489605D01*
X46859858Y-67503748D01*
X46680253Y-67324143D01*
X46694395Y-67310000D01*
X47053605Y-67310000D01*
X48478130Y-68734525D01*
X48809867Y-68559509D01*
X49016437Y-68157832D01*
X49140674Y-67723572D01*
X49177804Y-67273419D01*
X49126400Y-66824672D01*
X48988438Y-66394576D01*
X48809867Y-66060491D01*
X48478130Y-65885475D01*
X47053605Y-67310000D01*
X46694395Y-67310000D01*
X46680253Y-67295858D01*
X46859858Y-67116253D01*
X46874000Y-67130395D01*
X48298525Y-65705870D01*
X48123509Y-65374133D01*
X47721832Y-65167563D01*
X47287572Y-65043326D01*
X46837419Y-65006196D01*
X46779471Y-65012834D01*
X46816968Y-64956715D01*
X46894989Y-64768357D01*
X46934763Y-64568398D01*
X46934763Y-64364520D01*
X46894989Y-64164561D01*
X46816968Y-63976203D01*
X46703700Y-63806685D01*
X46559537Y-63662522D01*
X46390019Y-63549254D01*
X46208990Y-63474269D01*
X46208990Y-62374497D01*
X46249977Y-62390729D01*
X46547000Y-62445000D01*
X47447000Y-62445000D01*
X47447000Y-61037000D01*
X47427000Y-61037000D01*
X47427000Y-60783000D01*
X47447000Y-60783000D01*
X47447000Y-59375000D01*
X47399802Y-59375000D01*
X47633592Y-59141210D01*
X47853740Y-59185000D01*
X48146260Y-59185000D01*
X48433158Y-59127932D01*
X48703411Y-59015990D01*
X48946632Y-58853475D01*
X49153475Y-58646632D01*
X49315990Y-58403411D01*
X49340001Y-58345444D01*
X49340001Y-59644582D01*
%TA.AperFunction,Conductor*%
D27*
G36*
X49340001Y-59644582D02*
G01*
X49178751Y-59540446D01*
X48898023Y-59429271D01*
X48601000Y-59375000D01*
X47701000Y-59375000D01*
X47701000Y-60783000D01*
X47721000Y-60783000D01*
X47721000Y-61037000D01*
X47701000Y-61037000D01*
X47701000Y-62445000D01*
X48601000Y-62445000D01*
X48898023Y-62390729D01*
X49178751Y-62279554D01*
X49340001Y-62175418D01*
X49340001Y-72444583D01*
X49178751Y-72340446D01*
X48898023Y-72229271D01*
X48601000Y-72175000D01*
X47701000Y-72175000D01*
X47701000Y-73583000D01*
X47721000Y-73583000D01*
X47721000Y-73837000D01*
X47701000Y-73837000D01*
X47701000Y-73857000D01*
X47447000Y-73857000D01*
X47447000Y-73837000D01*
X45303622Y-73837000D01*
X45182964Y-74074740D01*
X45207245Y-74180087D01*
X45276430Y-74340000D01*
X44786790Y-74340000D01*
X44831731Y-74141095D01*
X44837511Y-73917594D01*
X44799577Y-73697260D01*
X44719387Y-73488560D01*
X44691588Y-73436550D01*
X44478166Y-73401439D01*
X43879605Y-74000000D01*
X43893748Y-74014143D01*
X43714143Y-74193748D01*
X43700000Y-74179605D01*
X43685858Y-74193748D01*
X43506253Y-74014143D01*
X43520395Y-74000000D01*
X42921834Y-73401439D01*
X42708412Y-73436550D01*
X42617542Y-73640826D01*
X42568269Y-73858905D01*
X42562489Y-74082406D01*
X42600423Y-74302740D01*
X42614740Y-74340000D01*
X42247683Y-74340000D01*
X42251383Y-74331067D01*
X42295000Y-74111788D01*
X42295000Y-73888212D01*
X42251383Y-73668933D01*
X42165824Y-73462376D01*
X42041612Y-73276480D01*
X41883520Y-73118388D01*
X41863706Y-73105148D01*
X41859727Y-73064752D01*
X41819128Y-72930916D01*
X41801573Y-72898072D01*
X43410915Y-72898072D01*
X43397260Y-72900423D01*
X43188560Y-72980613D01*
X43136550Y-73008412D01*
X43101439Y-73221834D01*
X43700000Y-73820395D01*
X44175135Y-73345260D01*
X45182964Y-73345260D01*
X45303622Y-73583000D01*
X47447000Y-73583000D01*
X47447000Y-72175000D01*
X46547000Y-72175000D01*
X46249977Y-72229271D01*
X45969249Y-72340446D01*
X45715604Y-72504252D01*
X45498790Y-72714394D01*
X45327138Y-72962796D01*
X45207245Y-73239913D01*
X45182964Y-73345260D01*
X44175135Y-73345260D01*
X44298561Y-73221834D01*
X44263450Y-73008412D01*
X44059174Y-72917542D01*
X43841095Y-72868269D01*
X43716901Y-72865057D01*
X43768180Y-72849502D01*
X43878494Y-72790537D01*
X43975185Y-72711185D01*
X44054537Y-72614494D01*
X44113502Y-72504180D01*
X44149812Y-72384482D01*
X44162072Y-72260000D01*
X44162072Y-71360000D01*
X44149812Y-71235518D01*
X44113502Y-71115820D01*
X44054537Y-71005506D01*
X43976158Y-70910000D01*
X44054537Y-70814494D01*
X44113502Y-70704180D01*
X44149812Y-70584482D01*
X44162072Y-70460000D01*
X44162072Y-69560000D01*
X44149812Y-69435518D01*
X44113502Y-69315820D01*
X44054537Y-69205506D01*
X43975185Y-69108815D01*
X43878494Y-69029463D01*
X43768180Y-68970498D01*
X43648482Y-68934188D01*
X43524000Y-68921928D01*
X42853560Y-68921928D01*
X42853560Y-68904781D01*
X42813786Y-68704822D01*
X42735765Y-68516464D01*
X42622497Y-68346946D01*
X42478334Y-68202783D01*
X42308816Y-68089515D01*
X42120458Y-68011494D01*
X41920499Y-67971720D01*
X41716621Y-67971720D01*
X41516662Y-68011494D01*
X41497619Y-68019382D01*
X41436252Y-67958015D01*
X41266734Y-67844747D01*
X41078376Y-67766726D01*
X40878417Y-67726952D01*
X40674539Y-67726952D01*
X40474580Y-67766726D01*
X40286222Y-67844747D01*
X40116704Y-67958015D01*
X40061754Y-68012965D01*
X39918546Y-68056406D01*
X39786517Y-68126978D01*
X39670792Y-68221951D01*
X39646994Y-68250949D01*
X38428012Y-69469932D01*
X38428012Y-65726040D01*
X38443054Y-65689726D01*
X38482828Y-65489767D01*
X38482828Y-65378209D01*
X38492567Y-65392784D01*
X38636730Y-65536947D01*
X38806248Y-65650215D01*
X38994606Y-65728236D01*
X39194565Y-65768010D01*
X39398443Y-65768010D01*
X39598402Y-65728236D01*
X39784820Y-65651019D01*
X39899518Y-65685812D01*
X40024000Y-65698072D01*
X42897605Y-65698072D01*
X42779383Y-65816295D01*
X42717245Y-65816295D01*
X42517286Y-65856069D01*
X42328928Y-65934090D01*
X42159410Y-66047358D01*
X42015247Y-66191521D01*
X41901979Y-66361039D01*
X41823958Y-66549397D01*
X41784184Y-66749356D01*
X41784184Y-66953234D01*
X41823958Y-67153193D01*
X41901979Y-67341551D01*
X42015247Y-67511069D01*
X42159410Y-67655232D01*
X42328928Y-67768500D01*
X42517286Y-67846521D01*
X42717245Y-67886295D01*
X42921123Y-67886295D01*
X43121082Y-67846521D01*
X43309440Y-67768500D01*
X43478958Y-67655232D01*
X43623121Y-67511069D01*
X43736389Y-67341551D01*
X43814410Y-67153193D01*
X43854184Y-66953234D01*
X43854184Y-66891096D01*
X44188014Y-66557267D01*
X44188013Y-68542823D01*
X44184578Y-68577698D01*
X44188013Y-68612573D01*
X44188013Y-68612574D01*
X44198286Y-68716881D01*
X44238885Y-68850717D01*
X44304813Y-68974060D01*
X44393538Y-69082172D01*
X44420630Y-69104406D01*
X44968601Y-69652377D01*
X44990838Y-69679473D01*
X45098950Y-69768198D01*
X45222293Y-69834126D01*
X45356129Y-69874725D01*
X45460436Y-69884998D01*
X45460438Y-69884998D01*
X45495313Y-69888433D01*
X45530188Y-69884998D01*
X45766907Y-69884998D01*
X46209000Y-70327092D01*
X46209000Y-70459939D01*
X46248774Y-70659898D01*
X46326795Y-70848256D01*
X46440063Y-71017774D01*
X46584226Y-71161937D01*
X46753744Y-71275205D01*
X46942102Y-71353226D01*
X47142061Y-71393000D01*
X47345939Y-71393000D01*
X47545898Y-71353226D01*
X47734256Y-71275205D01*
X47903774Y-71161937D01*
X48047937Y-71017774D01*
X48161205Y-70848256D01*
X48239226Y-70659898D01*
X48279000Y-70459939D01*
X48279000Y-70256061D01*
X48239226Y-70056102D01*
X48161205Y-69867744D01*
X48047937Y-69698226D01*
X47903774Y-69554063D01*
X47735610Y-69441700D01*
X47789424Y-69424438D01*
X48123509Y-69245867D01*
X48298525Y-68914130D01*
X46874000Y-67489605D01*
X46859858Y-67503748D01*
X46680253Y-67324143D01*
X46694395Y-67310000D01*
X47053605Y-67310000D01*
X48478130Y-68734525D01*
X48809867Y-68559509D01*
X49016437Y-68157832D01*
X49140674Y-67723572D01*
X49177804Y-67273419D01*
X49126400Y-66824672D01*
X48988438Y-66394576D01*
X48809867Y-66060491D01*
X48478130Y-65885475D01*
X47053605Y-67310000D01*
X46694395Y-67310000D01*
X46680253Y-67295858D01*
X46859858Y-67116253D01*
X46874000Y-67130395D01*
X48298525Y-65705870D01*
X48123509Y-65374133D01*
X47721832Y-65167563D01*
X47287572Y-65043326D01*
X46837419Y-65006196D01*
X46779471Y-65012834D01*
X46816968Y-64956715D01*
X46894989Y-64768357D01*
X46934763Y-64568398D01*
X46934763Y-64364520D01*
X46894989Y-64164561D01*
X46816968Y-63976203D01*
X46703700Y-63806685D01*
X46559537Y-63662522D01*
X46390019Y-63549254D01*
X46208990Y-63474269D01*
X46208990Y-62374497D01*
X46249977Y-62390729D01*
X46547000Y-62445000D01*
X47447000Y-62445000D01*
X47447000Y-61037000D01*
X47427000Y-61037000D01*
X47427000Y-60783000D01*
X47447000Y-60783000D01*
X47447000Y-59375000D01*
X47399802Y-59375000D01*
X47633592Y-59141210D01*
X47853740Y-59185000D01*
X48146260Y-59185000D01*
X48433158Y-59127932D01*
X48703411Y-59015990D01*
X48946632Y-58853475D01*
X49153475Y-58646632D01*
X49315990Y-58403411D01*
X49340001Y-58345444D01*
X49340001Y-59644582D01*
G37*
%TD.AperFunction*%
D26*
X26775126Y-69894059D02*
X26797363Y-69921155D01*
X26905475Y-70009880D01*
X27028818Y-70075808D01*
X27162654Y-70116407D01*
X27266961Y-70126680D01*
X27266963Y-70126680D01*
X27301838Y-70130115D01*
X27336713Y-70126680D01*
X28017087Y-70126680D01*
X28091752Y-70306935D01*
X28205020Y-70476453D01*
X28349183Y-70620616D01*
X28518701Y-70733884D01*
X28707059Y-70811905D01*
X28907018Y-70851679D01*
X28973968Y-70851679D01*
X28973968Y-72348982D01*
X28960751Y-72340446D01*
X28680023Y-72229271D01*
X28383000Y-72175000D01*
X27483000Y-72175000D01*
X27483000Y-73583000D01*
X27503000Y-73583000D01*
X27503000Y-73837000D01*
X27483000Y-73837000D01*
X27483000Y-73857000D01*
X27229000Y-73857000D01*
X27229000Y-73837000D01*
X27209000Y-73837000D01*
X27209000Y-73583000D01*
X27229000Y-73583000D01*
X27229000Y-72175000D01*
X26329000Y-72175000D01*
X26031977Y-72229271D01*
X25751249Y-72340446D01*
X25660000Y-72399375D01*
X25660000Y-68778933D01*
X26775126Y-69894059D01*
%TA.AperFunction,Conductor*%
D27*
G36*
X26775126Y-69894059D02*
G01*
X26797363Y-69921155D01*
X26905475Y-70009880D01*
X27028818Y-70075808D01*
X27162654Y-70116407D01*
X27266961Y-70126680D01*
X27266963Y-70126680D01*
X27301838Y-70130115D01*
X27336713Y-70126680D01*
X28017087Y-70126680D01*
X28091752Y-70306935D01*
X28205020Y-70476453D01*
X28349183Y-70620616D01*
X28518701Y-70733884D01*
X28707059Y-70811905D01*
X28907018Y-70851679D01*
X28973968Y-70851679D01*
X28973968Y-72348982D01*
X28960751Y-72340446D01*
X28680023Y-72229271D01*
X28383000Y-72175000D01*
X27483000Y-72175000D01*
X27483000Y-73583000D01*
X27503000Y-73583000D01*
X27503000Y-73837000D01*
X27483000Y-73837000D01*
X27483000Y-73857000D01*
X27229000Y-73857000D01*
X27229000Y-73837000D01*
X27209000Y-73837000D01*
X27209000Y-73583000D01*
X27229000Y-73583000D01*
X27229000Y-72175000D01*
X26329000Y-72175000D01*
X26031977Y-72229271D01*
X25751249Y-72340446D01*
X25660000Y-72399375D01*
X25660000Y-68778933D01*
X26775126Y-69894059D01*
G37*
%TD.AperFunction*%
D26*
X33283000Y-71683000D02*
X33303000Y-71683000D01*
X33303000Y-71937000D01*
X33283000Y-71937000D01*
X33283000Y-71957000D01*
X33029000Y-71957000D01*
X33029000Y-71937000D01*
X33009000Y-71937000D01*
X33009000Y-71683000D01*
X33029000Y-71683000D01*
X33029000Y-71663000D01*
X33283000Y-71663000D01*
X33283000Y-71683000D01*
%TA.AperFunction,Conductor*%
D27*
G36*
X33283000Y-71683000D02*
G01*
X33303000Y-71683000D01*
X33303000Y-71937000D01*
X33283000Y-71937000D01*
X33283000Y-71957000D01*
X33029000Y-71957000D01*
X33029000Y-71937000D01*
X33009000Y-71937000D01*
X33009000Y-71683000D01*
X33029000Y-71683000D01*
X33029000Y-71663000D01*
X33283000Y-71663000D01*
X33283000Y-71683000D01*
G37*
%TD.AperFunction*%
D26*
X28249748Y-67295858D02*
X28235605Y-67310000D01*
X28249748Y-67324143D01*
X28070143Y-67503748D01*
X28056000Y-67489605D01*
X28041858Y-67503748D01*
X27862253Y-67324143D01*
X27876395Y-67310000D01*
X27862253Y-67295858D01*
X28041858Y-67116253D01*
X28056000Y-67130395D01*
X28070143Y-67116253D01*
X28249748Y-67295858D01*
%TA.AperFunction,Conductor*%
D27*
G36*
X28249748Y-67295858D02*
G01*
X28235605Y-67310000D01*
X28249748Y-67324143D01*
X28070143Y-67503748D01*
X28056000Y-67489605D01*
X28041858Y-67503748D01*
X27862253Y-67324143D01*
X27876395Y-67310000D01*
X27862253Y-67295858D01*
X28041858Y-67116253D01*
X28056000Y-67130395D01*
X28070143Y-67116253D01*
X28249748Y-67295858D01*
G37*
%TD.AperFunction*%
D26*
X33136345Y-25701953D02*
X32820786Y-25857962D01*
X32629980Y-26232745D01*
X32515956Y-26637551D01*
X32483098Y-27056824D01*
X32532666Y-27474451D01*
X32662757Y-27874383D01*
X32820786Y-28170038D01*
X33136347Y-28326048D01*
X34448395Y-27014000D01*
X34434253Y-26999858D01*
X34613858Y-26820253D01*
X34628000Y-26834395D01*
X34642143Y-26820253D01*
X34821748Y-26999858D01*
X34807605Y-27014000D01*
X36119653Y-28326048D01*
X36435214Y-28170038D01*
X36626020Y-27795255D01*
X36695782Y-27547587D01*
X42787192Y-27547587D01*
X43743000Y-28503395D01*
X44698808Y-27547587D01*
X46237192Y-27547587D01*
X47193000Y-28503395D01*
X48148808Y-27547587D01*
X48053044Y-27283186D01*
X47763429Y-27142296D01*
X47451892Y-27060616D01*
X47130405Y-27041282D01*
X46811325Y-27085039D01*
X46506912Y-27190205D01*
X46332956Y-27283186D01*
X46237192Y-27547587D01*
X44698808Y-27547587D01*
X44603044Y-27283186D01*
X44313429Y-27142296D01*
X44001892Y-27060616D01*
X43680405Y-27041282D01*
X43361325Y-27085039D01*
X43056912Y-27190205D01*
X42882956Y-27283186D01*
X42787192Y-27547587D01*
X36695782Y-27547587D01*
X36740044Y-27390449D01*
X36772902Y-26971176D01*
X36723334Y-26553549D01*
X36593243Y-26153617D01*
X36435214Y-25857962D01*
X36119655Y-25701953D01*
X36161608Y-25660000D01*
X49340000Y-25660000D01*
X49340000Y-43746112D01*
X49301185Y-43698815D01*
X49204494Y-43619463D01*
X49094180Y-43560498D01*
X48974482Y-43524188D01*
X48850000Y-43511928D01*
X48285750Y-43515000D01*
X48127000Y-43673750D01*
X48127000Y-44873000D01*
X48147000Y-44873000D01*
X48147000Y-45127000D01*
X48127000Y-45127000D01*
X48127000Y-45147000D01*
X47873000Y-45147000D01*
X47873000Y-45127000D01*
X46673750Y-45127000D01*
X46515000Y-45285750D01*
X46511928Y-45850000D01*
X46524188Y-45974482D01*
X46560498Y-46094180D01*
X46619463Y-46204494D01*
X46698815Y-46301185D01*
X46795506Y-46380537D01*
X46905820Y-46439502D01*
X46978380Y-46461513D01*
X46846525Y-46593368D01*
X46684010Y-46836589D01*
X46572068Y-47106842D01*
X46515000Y-47393740D01*
X46515000Y-47686260D01*
X46572068Y-47973158D01*
X46684010Y-48243411D01*
X46846525Y-48486632D01*
X47053368Y-48693475D01*
X47227760Y-48810000D01*
X47053368Y-48926525D01*
X46846525Y-49133368D01*
X46684010Y-49376589D01*
X46572068Y-49646842D01*
X46515000Y-49933740D01*
X46515000Y-50226260D01*
X46572068Y-50513158D01*
X46684010Y-50783411D01*
X46846525Y-51026632D01*
X47053368Y-51233475D01*
X47227760Y-51350000D01*
X47053368Y-51466525D01*
X46846525Y-51673368D01*
X46684010Y-51916589D01*
X46572068Y-52186842D01*
X46515000Y-52473740D01*
X46515000Y-52766260D01*
X46558790Y-52986408D01*
X44847014Y-54698185D01*
X44818010Y-54721988D01*
X44762882Y-54789163D01*
X44723037Y-54837713D01*
X44706980Y-54867754D01*
X44652465Y-54969743D01*
X44609008Y-55113004D01*
X44598011Y-55224657D01*
X44598011Y-55224667D01*
X44594335Y-55261989D01*
X44598011Y-55299312D01*
X44598012Y-58281771D01*
X43513605Y-59366179D01*
X43519200Y-59359361D01*
X43585128Y-59236018D01*
X43625727Y-59102182D01*
X43636000Y-58997875D01*
X43636000Y-58997873D01*
X43639435Y-58962998D01*
X43636000Y-58928123D01*
X43636000Y-44150000D01*
X46511928Y-44150000D01*
X46515000Y-44714250D01*
X46673750Y-44873000D01*
X47873000Y-44873000D01*
X47873000Y-43673750D01*
X47714250Y-43515000D01*
X47150000Y-43511928D01*
X47025518Y-43524188D01*
X46905820Y-43560498D01*
X46795506Y-43619463D01*
X46698815Y-43698815D01*
X46619463Y-43795506D01*
X46560498Y-43905820D01*
X46524188Y-44025518D01*
X46511928Y-44150000D01*
X43636000Y-44150000D01*
X43636000Y-41338568D01*
X46606229Y-38368340D01*
X46739076Y-38368340D01*
X46939035Y-38328566D01*
X47127393Y-38250545D01*
X47296911Y-38137277D01*
X47441074Y-37993114D01*
X47554342Y-37823596D01*
X47632363Y-37635238D01*
X47672137Y-37435279D01*
X47672137Y-37397291D01*
X47879088Y-37325795D01*
X48053044Y-37232814D01*
X48148808Y-36968413D01*
X47193000Y-36012605D01*
X47178858Y-36026748D01*
X46999253Y-35847143D01*
X47013395Y-35833000D01*
X47372605Y-35833000D01*
X48328413Y-36788808D01*
X48592814Y-36693044D01*
X48733704Y-36403429D01*
X48815384Y-36091892D01*
X48834718Y-35770405D01*
X48790961Y-35451325D01*
X48685795Y-35146912D01*
X48592814Y-34972956D01*
X48328413Y-34877192D01*
X47372605Y-35833000D01*
X47013395Y-35833000D01*
X46057587Y-34877192D01*
X45793186Y-34972956D01*
X45652296Y-35262571D01*
X45570616Y-35574108D01*
X45551282Y-35895595D01*
X45595039Y-36214675D01*
X45700205Y-36519088D01*
X45793186Y-36693044D01*
X45814924Y-36700917D01*
X45792215Y-36734904D01*
X45702256Y-36674795D01*
X45513898Y-36596774D01*
X45313939Y-36557000D01*
X45208996Y-36557000D01*
X45283704Y-36403429D01*
X45365384Y-36091892D01*
X45384718Y-35770405D01*
X45340961Y-35451325D01*
X45253744Y-35198866D01*
X45343022Y-35181108D01*
X45517731Y-35108741D01*
X45674964Y-35003681D01*
X45808681Y-34869964D01*
X45913741Y-34712731D01*
X45920013Y-34697587D01*
X46237192Y-34697587D01*
X47193000Y-35653395D01*
X48148808Y-34697587D01*
X48053044Y-34433186D01*
X47763429Y-34292296D01*
X47451892Y-34210616D01*
X47130405Y-34191282D01*
X46811325Y-34235039D01*
X46506912Y-34340205D01*
X46332956Y-34433186D01*
X46237192Y-34697587D01*
X45920013Y-34697587D01*
X45986108Y-34538022D01*
X46023000Y-34352552D01*
X46023000Y-34163448D01*
X45986108Y-33977978D01*
X45913741Y-33803269D01*
X45808681Y-33646036D01*
X45674964Y-33512319D01*
X45578000Y-33447530D01*
X45578000Y-33430998D01*
X45553259Y-33430998D01*
X45517731Y-33407259D01*
X45505720Y-33402284D01*
X45510032Y-33394218D01*
X45578000Y-33326250D01*
X45568029Y-33235064D01*
X45568812Y-33232482D01*
X45581072Y-33108000D01*
X45581072Y-32708000D01*
X45568812Y-32583518D01*
X45568655Y-32583000D01*
X45568812Y-32582482D01*
X45581072Y-32458000D01*
X45581072Y-32058000D01*
X45568812Y-31933518D01*
X45568655Y-31933000D01*
X45568812Y-31932482D01*
X45581072Y-31808000D01*
X45581072Y-31408000D01*
X45568812Y-31283518D01*
X45568655Y-31283000D01*
X45568812Y-31282482D01*
X45581072Y-31158000D01*
X45581072Y-31066418D01*
X45674964Y-31003681D01*
X45808681Y-30869964D01*
X45913741Y-30712731D01*
X45986108Y-30538022D01*
X46023000Y-30352552D01*
X46023000Y-30163448D01*
X45986108Y-29977978D01*
X45920014Y-29818413D01*
X46237192Y-29818413D01*
X46332956Y-30082814D01*
X46622571Y-30223704D01*
X46934108Y-30305384D01*
X47255595Y-30324718D01*
X47574675Y-30280961D01*
X47879088Y-30175795D01*
X48053044Y-30082814D01*
X48148808Y-29818413D01*
X47193000Y-28862605D01*
X46237192Y-29818413D01*
X45920014Y-29818413D01*
X45913741Y-29803269D01*
X45808681Y-29646036D01*
X45674964Y-29512319D01*
X45517731Y-29407259D01*
X45343022Y-29334892D01*
X45252804Y-29316947D01*
X45283704Y-29253429D01*
X45365384Y-28941892D01*
X45377189Y-28745595D01*
X45551282Y-28745595D01*
X45595039Y-29064675D01*
X45700205Y-29369088D01*
X45793186Y-29543044D01*
X46057587Y-29638808D01*
X47013395Y-28683000D01*
X47372605Y-28683000D01*
X48328413Y-29638808D01*
X48592814Y-29543044D01*
X48733704Y-29253429D01*
X48815384Y-28941892D01*
X48834718Y-28620405D01*
X48790961Y-28301325D01*
X48685795Y-27996912D01*
X48592814Y-27822956D01*
X48328413Y-27727192D01*
X47372605Y-28683000D01*
X47013395Y-28683000D01*
X46057587Y-27727192D01*
X45793186Y-27822956D01*
X45652296Y-28112571D01*
X45570616Y-28424108D01*
X45551282Y-28745595D01*
X45377189Y-28745595D01*
X45384718Y-28620405D01*
X45340961Y-28301325D01*
X45235795Y-27996912D01*
X45142814Y-27822956D01*
X44878413Y-27727192D01*
X43922605Y-28683000D01*
X43936748Y-28697143D01*
X43757143Y-28876748D01*
X43743000Y-28862605D01*
X42787192Y-29818413D01*
X42882956Y-30082814D01*
X42965563Y-30123000D01*
X38772819Y-30123000D01*
X38778217Y-30013488D01*
X38736787Y-29733870D01*
X38641603Y-29467708D01*
X38574671Y-29342486D01*
X38330702Y-29270903D01*
X37517605Y-30084000D01*
X37531748Y-30098143D01*
X37352143Y-30277748D01*
X37338000Y-30263605D01*
X37323858Y-30277748D01*
X37144253Y-30098143D01*
X37158395Y-30084000D01*
X36345298Y-29270903D01*
X36101329Y-29342486D01*
X35980429Y-29597996D01*
X35911700Y-29872184D01*
X35897783Y-30154512D01*
X35939213Y-30434130D01*
X36034397Y-30700292D01*
X36101329Y-30825514D01*
X36130930Y-30834199D01*
X34013051Y-32952080D01*
X33721407Y-32952080D01*
X33680399Y-32948041D01*
X33639391Y-32952080D01*
X33639381Y-32952080D01*
X33516711Y-32964162D01*
X33359313Y-33011908D01*
X33322697Y-33031480D01*
X33299061Y-33031480D01*
X33099102Y-33071254D01*
X32910744Y-33149275D01*
X32741226Y-33262543D01*
X32597063Y-33406706D01*
X32539467Y-33492905D01*
X32488276Y-33397134D01*
X32451383Y-33352180D01*
X32383931Y-33269989D01*
X32352066Y-33243839D01*
X31372013Y-32263785D01*
X31343146Y-32118662D01*
X31265125Y-31930304D01*
X31151857Y-31760786D01*
X31007694Y-31616623D01*
X30838176Y-31503355D01*
X30649818Y-31425334D01*
X30449859Y-31385560D01*
X30245981Y-31385560D01*
X30046022Y-31425334D01*
X29857664Y-31503355D01*
X29688146Y-31616623D01*
X29543983Y-31760786D01*
X29430715Y-31930304D01*
X29352694Y-32118662D01*
X29312920Y-32318621D01*
X29312920Y-32522499D01*
X29352694Y-32722458D01*
X29430715Y-32910816D01*
X29543983Y-33080334D01*
X29688146Y-33224497D01*
X29857664Y-33337765D01*
X30046022Y-33415786D01*
X30191145Y-33444653D01*
X30955641Y-34209148D01*
X30955641Y-34311714D01*
X30873435Y-34434744D01*
X30795414Y-34623102D01*
X30766547Y-34768225D01*
X30642577Y-34892196D01*
X30610708Y-34918350D01*
X30521592Y-35026939D01*
X30506363Y-35045496D01*
X30428827Y-35190555D01*
X30381081Y-35347953D01*
X30364959Y-35511641D01*
X30368999Y-35552660D01*
X30369000Y-41449763D01*
X30364959Y-41490791D01*
X30381081Y-41654479D01*
X30428827Y-41811877D01*
X30506363Y-41956936D01*
X30518951Y-41972274D01*
X30610709Y-42084082D01*
X30642572Y-42110231D01*
X30763095Y-42230755D01*
X30791962Y-42375878D01*
X30869983Y-42564236D01*
X30955641Y-42692433D01*
X30955641Y-46486333D01*
X30951600Y-46527358D01*
X30955641Y-46568382D01*
X30955640Y-52457475D01*
X30873435Y-52580504D01*
X30795414Y-52768862D01*
X30755640Y-52968821D01*
X30755640Y-53172699D01*
X30795414Y-53372658D01*
X30873435Y-53561016D01*
X30986703Y-53730534D01*
X31130866Y-53874697D01*
X31300384Y-53987965D01*
X31488742Y-54065986D01*
X31688701Y-54105760D01*
X31892579Y-54105760D01*
X32092538Y-54065986D01*
X32280896Y-53987965D01*
X32450414Y-53874697D01*
X32594577Y-53730534D01*
X32707845Y-53561016D01*
X32785866Y-53372658D01*
X32825640Y-53172699D01*
X32825640Y-52968821D01*
X32785866Y-52768862D01*
X32707845Y-52580504D01*
X32625640Y-52457475D01*
X32625640Y-46873225D01*
X34869305Y-44629561D01*
X34869305Y-46766470D01*
X34845898Y-46756774D01*
X34645939Y-46717000D01*
X34442061Y-46717000D01*
X34242102Y-46756774D01*
X34053744Y-46834795D01*
X33884226Y-46948063D01*
X33740063Y-47092226D01*
X33626795Y-47261744D01*
X33548774Y-47450102D01*
X33509000Y-47650061D01*
X33509000Y-47853939D01*
X33548774Y-48053898D01*
X33626795Y-48242256D01*
X33740063Y-48411774D01*
X33834000Y-48505711D01*
X33834001Y-57363908D01*
X33801270Y-57396639D01*
X33668422Y-57396639D01*
X33468463Y-57436413D01*
X33280105Y-57514434D01*
X33110587Y-57627702D01*
X32966424Y-57771865D01*
X32853156Y-57941383D01*
X32775135Y-58129741D01*
X32735361Y-58329700D01*
X32735361Y-58533578D01*
X32775135Y-58733537D01*
X32853156Y-58921895D01*
X32966424Y-59091413D01*
X33110587Y-59235576D01*
X33280105Y-59348844D01*
X33468463Y-59426865D01*
X33668422Y-59466639D01*
X33872300Y-59466639D01*
X34072259Y-59426865D01*
X34260617Y-59348844D01*
X34430135Y-59235576D01*
X34574298Y-59091413D01*
X34687566Y-58921895D01*
X34765587Y-58733537D01*
X34805361Y-58533578D01*
X34805361Y-58400730D01*
X34869306Y-58336785D01*
X34869306Y-61140912D01*
X34775368Y-61234850D01*
X34662100Y-61404368D01*
X34584079Y-61592726D01*
X34558379Y-61721928D01*
X32295479Y-61721928D01*
X32334646Y-61525022D01*
X32334646Y-61321144D01*
X32294872Y-61121185D01*
X32216851Y-60932827D01*
X32103583Y-60763309D01*
X31959420Y-60619146D01*
X31789902Y-60505878D01*
X31601544Y-60427857D01*
X31401585Y-60388083D01*
X31197707Y-60388083D01*
X30997748Y-60427857D01*
X30809390Y-60505878D01*
X30639872Y-60619146D01*
X30495709Y-60763309D01*
X30382441Y-60932827D01*
X30304420Y-61121185D01*
X30264646Y-61321144D01*
X30264646Y-61350473D01*
X30208256Y-61312795D01*
X30174000Y-61298606D01*
X30174000Y-55363711D01*
X30267937Y-55269774D01*
X30381205Y-55100256D01*
X30459226Y-54911898D01*
X30499000Y-54711939D01*
X30499000Y-54508061D01*
X30459226Y-54308102D01*
X30381205Y-54119744D01*
X30267937Y-53950226D01*
X30123774Y-53806063D01*
X29954256Y-53692795D01*
X29765898Y-53614774D01*
X29565939Y-53575000D01*
X29362061Y-53575000D01*
X29162102Y-53614774D01*
X28973744Y-53692795D01*
X28804226Y-53806063D01*
X28660063Y-53950226D01*
X28546795Y-54119744D01*
X28468774Y-54308102D01*
X28429000Y-54508061D01*
X28429000Y-54711939D01*
X28468774Y-54911898D01*
X28546795Y-55100256D01*
X28660063Y-55269774D01*
X28754000Y-55363711D01*
X28754001Y-59458568D01*
X28680023Y-59429271D01*
X28383000Y-59375000D01*
X27483000Y-59375000D01*
X27483000Y-60783000D01*
X27503000Y-60783000D01*
X27503000Y-61037000D01*
X27483000Y-61037000D01*
X27483000Y-62340623D01*
X25660000Y-64163624D01*
X25660000Y-62220625D01*
X25751249Y-62279554D01*
X26031977Y-62390729D01*
X26329000Y-62445000D01*
X27229000Y-62445000D01*
X27229000Y-61037000D01*
X27209000Y-61037000D01*
X27209000Y-60783000D01*
X27229000Y-60783000D01*
X27229000Y-59375000D01*
X26329000Y-59375000D01*
X26031977Y-59429271D01*
X25751249Y-59540446D01*
X25660000Y-59599375D01*
X25660000Y-37634143D01*
X28700000Y-37634143D01*
X28700000Y-28505653D01*
X33315952Y-28505653D01*
X33471962Y-28821214D01*
X33846745Y-29012020D01*
X34251551Y-29126044D01*
X34670824Y-29158902D01*
X35088451Y-29109334D01*
X35143898Y-29091298D01*
X36524903Y-29091298D01*
X37338000Y-29904395D01*
X38151097Y-29091298D01*
X38079514Y-28847329D01*
X37864510Y-28745595D01*
X42101282Y-28745595D01*
X42145039Y-29064675D01*
X42250205Y-29369088D01*
X42343186Y-29543044D01*
X42607587Y-29638808D01*
X43563395Y-28683000D01*
X42607587Y-27727192D01*
X42343186Y-27822956D01*
X42202296Y-28112571D01*
X42120616Y-28424108D01*
X42101282Y-28745595D01*
X37864510Y-28745595D01*
X37824004Y-28726429D01*
X37549816Y-28657700D01*
X37267488Y-28643783D01*
X36987870Y-28685213D01*
X36721708Y-28780397D01*
X36596486Y-28847329D01*
X36524903Y-29091298D01*
X35143898Y-29091298D01*
X35488383Y-28979243D01*
X35784038Y-28821214D01*
X35940048Y-28505653D01*
X34628000Y-27193605D01*
X33315952Y-28505653D01*
X28700000Y-28505653D01*
X28700000Y-25660000D01*
X33094392Y-25660000D01*
X33136345Y-25701953D01*
%TA.AperFunction,Conductor*%
D27*
G36*
X33136345Y-25701953D02*
G01*
X32820786Y-25857962D01*
X32629980Y-26232745D01*
X32515956Y-26637551D01*
X32483098Y-27056824D01*
X32532666Y-27474451D01*
X32662757Y-27874383D01*
X32820786Y-28170038D01*
X33136347Y-28326048D01*
X34448395Y-27014000D01*
X34434253Y-26999858D01*
X34613858Y-26820253D01*
X34628000Y-26834395D01*
X34642143Y-26820253D01*
X34821748Y-26999858D01*
X34807605Y-27014000D01*
X36119653Y-28326048D01*
X36435214Y-28170038D01*
X36626020Y-27795255D01*
X36695782Y-27547587D01*
X42787192Y-27547587D01*
X43743000Y-28503395D01*
X44698808Y-27547587D01*
X46237192Y-27547587D01*
X47193000Y-28503395D01*
X48148808Y-27547587D01*
X48053044Y-27283186D01*
X47763429Y-27142296D01*
X47451892Y-27060616D01*
X47130405Y-27041282D01*
X46811325Y-27085039D01*
X46506912Y-27190205D01*
X46332956Y-27283186D01*
X46237192Y-27547587D01*
X44698808Y-27547587D01*
X44603044Y-27283186D01*
X44313429Y-27142296D01*
X44001892Y-27060616D01*
X43680405Y-27041282D01*
X43361325Y-27085039D01*
X43056912Y-27190205D01*
X42882956Y-27283186D01*
X42787192Y-27547587D01*
X36695782Y-27547587D01*
X36740044Y-27390449D01*
X36772902Y-26971176D01*
X36723334Y-26553549D01*
X36593243Y-26153617D01*
X36435214Y-25857962D01*
X36119655Y-25701953D01*
X36161608Y-25660000D01*
X49340000Y-25660000D01*
X49340000Y-43746112D01*
X49301185Y-43698815D01*
X49204494Y-43619463D01*
X49094180Y-43560498D01*
X48974482Y-43524188D01*
X48850000Y-43511928D01*
X48285750Y-43515000D01*
X48127000Y-43673750D01*
X48127000Y-44873000D01*
X48147000Y-44873000D01*
X48147000Y-45127000D01*
X48127000Y-45127000D01*
X48127000Y-45147000D01*
X47873000Y-45147000D01*
X47873000Y-45127000D01*
X46673750Y-45127000D01*
X46515000Y-45285750D01*
X46511928Y-45850000D01*
X46524188Y-45974482D01*
X46560498Y-46094180D01*
X46619463Y-46204494D01*
X46698815Y-46301185D01*
X46795506Y-46380537D01*
X46905820Y-46439502D01*
X46978380Y-46461513D01*
X46846525Y-46593368D01*
X46684010Y-46836589D01*
X46572068Y-47106842D01*
X46515000Y-47393740D01*
X46515000Y-47686260D01*
X46572068Y-47973158D01*
X46684010Y-48243411D01*
X46846525Y-48486632D01*
X47053368Y-48693475D01*
X47227760Y-48810000D01*
X47053368Y-48926525D01*
X46846525Y-49133368D01*
X46684010Y-49376589D01*
X46572068Y-49646842D01*
X46515000Y-49933740D01*
X46515000Y-50226260D01*
X46572068Y-50513158D01*
X46684010Y-50783411D01*
X46846525Y-51026632D01*
X47053368Y-51233475D01*
X47227760Y-51350000D01*
X47053368Y-51466525D01*
X46846525Y-51673368D01*
X46684010Y-51916589D01*
X46572068Y-52186842D01*
X46515000Y-52473740D01*
X46515000Y-52766260D01*
X46558790Y-52986408D01*
X44847014Y-54698185D01*
X44818010Y-54721988D01*
X44762882Y-54789163D01*
X44723037Y-54837713D01*
X44706980Y-54867754D01*
X44652465Y-54969743D01*
X44609008Y-55113004D01*
X44598011Y-55224657D01*
X44598011Y-55224667D01*
X44594335Y-55261989D01*
X44598011Y-55299312D01*
X44598012Y-58281771D01*
X43513605Y-59366179D01*
X43519200Y-59359361D01*
X43585128Y-59236018D01*
X43625727Y-59102182D01*
X43636000Y-58997875D01*
X43636000Y-58997873D01*
X43639435Y-58962998D01*
X43636000Y-58928123D01*
X43636000Y-44150000D01*
X46511928Y-44150000D01*
X46515000Y-44714250D01*
X46673750Y-44873000D01*
X47873000Y-44873000D01*
X47873000Y-43673750D01*
X47714250Y-43515000D01*
X47150000Y-43511928D01*
X47025518Y-43524188D01*
X46905820Y-43560498D01*
X46795506Y-43619463D01*
X46698815Y-43698815D01*
X46619463Y-43795506D01*
X46560498Y-43905820D01*
X46524188Y-44025518D01*
X46511928Y-44150000D01*
X43636000Y-44150000D01*
X43636000Y-41338568D01*
X46606229Y-38368340D01*
X46739076Y-38368340D01*
X46939035Y-38328566D01*
X47127393Y-38250545D01*
X47296911Y-38137277D01*
X47441074Y-37993114D01*
X47554342Y-37823596D01*
X47632363Y-37635238D01*
X47672137Y-37435279D01*
X47672137Y-37397291D01*
X47879088Y-37325795D01*
X48053044Y-37232814D01*
X48148808Y-36968413D01*
X47193000Y-36012605D01*
X47178858Y-36026748D01*
X46999253Y-35847143D01*
X47013395Y-35833000D01*
X47372605Y-35833000D01*
X48328413Y-36788808D01*
X48592814Y-36693044D01*
X48733704Y-36403429D01*
X48815384Y-36091892D01*
X48834718Y-35770405D01*
X48790961Y-35451325D01*
X48685795Y-35146912D01*
X48592814Y-34972956D01*
X48328413Y-34877192D01*
X47372605Y-35833000D01*
X47013395Y-35833000D01*
X46057587Y-34877192D01*
X45793186Y-34972956D01*
X45652296Y-35262571D01*
X45570616Y-35574108D01*
X45551282Y-35895595D01*
X45595039Y-36214675D01*
X45700205Y-36519088D01*
X45793186Y-36693044D01*
X45814924Y-36700917D01*
X45792215Y-36734904D01*
X45702256Y-36674795D01*
X45513898Y-36596774D01*
X45313939Y-36557000D01*
X45208996Y-36557000D01*
X45283704Y-36403429D01*
X45365384Y-36091892D01*
X45384718Y-35770405D01*
X45340961Y-35451325D01*
X45253744Y-35198866D01*
X45343022Y-35181108D01*
X45517731Y-35108741D01*
X45674964Y-35003681D01*
X45808681Y-34869964D01*
X45913741Y-34712731D01*
X45920013Y-34697587D01*
X46237192Y-34697587D01*
X47193000Y-35653395D01*
X48148808Y-34697587D01*
X48053044Y-34433186D01*
X47763429Y-34292296D01*
X47451892Y-34210616D01*
X47130405Y-34191282D01*
X46811325Y-34235039D01*
X46506912Y-34340205D01*
X46332956Y-34433186D01*
X46237192Y-34697587D01*
X45920013Y-34697587D01*
X45986108Y-34538022D01*
X46023000Y-34352552D01*
X46023000Y-34163448D01*
X45986108Y-33977978D01*
X45913741Y-33803269D01*
X45808681Y-33646036D01*
X45674964Y-33512319D01*
X45578000Y-33447530D01*
X45578000Y-33430998D01*
X45553259Y-33430998D01*
X45517731Y-33407259D01*
X45505720Y-33402284D01*
X45510032Y-33394218D01*
X45578000Y-33326250D01*
X45568029Y-33235064D01*
X45568812Y-33232482D01*
X45581072Y-33108000D01*
X45581072Y-32708000D01*
X45568812Y-32583518D01*
X45568655Y-32583000D01*
X45568812Y-32582482D01*
X45581072Y-32458000D01*
X45581072Y-32058000D01*
X45568812Y-31933518D01*
X45568655Y-31933000D01*
X45568812Y-31932482D01*
X45581072Y-31808000D01*
X45581072Y-31408000D01*
X45568812Y-31283518D01*
X45568655Y-31283000D01*
X45568812Y-31282482D01*
X45581072Y-31158000D01*
X45581072Y-31066418D01*
X45674964Y-31003681D01*
X45808681Y-30869964D01*
X45913741Y-30712731D01*
X45986108Y-30538022D01*
X46023000Y-30352552D01*
X46023000Y-30163448D01*
X45986108Y-29977978D01*
X45920014Y-29818413D01*
X46237192Y-29818413D01*
X46332956Y-30082814D01*
X46622571Y-30223704D01*
X46934108Y-30305384D01*
X47255595Y-30324718D01*
X47574675Y-30280961D01*
X47879088Y-30175795D01*
X48053044Y-30082814D01*
X48148808Y-29818413D01*
X47193000Y-28862605D01*
X46237192Y-29818413D01*
X45920014Y-29818413D01*
X45913741Y-29803269D01*
X45808681Y-29646036D01*
X45674964Y-29512319D01*
X45517731Y-29407259D01*
X45343022Y-29334892D01*
X45252804Y-29316947D01*
X45283704Y-29253429D01*
X45365384Y-28941892D01*
X45377189Y-28745595D01*
X45551282Y-28745595D01*
X45595039Y-29064675D01*
X45700205Y-29369088D01*
X45793186Y-29543044D01*
X46057587Y-29638808D01*
X47013395Y-28683000D01*
X47372605Y-28683000D01*
X48328413Y-29638808D01*
X48592814Y-29543044D01*
X48733704Y-29253429D01*
X48815384Y-28941892D01*
X48834718Y-28620405D01*
X48790961Y-28301325D01*
X48685795Y-27996912D01*
X48592814Y-27822956D01*
X48328413Y-27727192D01*
X47372605Y-28683000D01*
X47013395Y-28683000D01*
X46057587Y-27727192D01*
X45793186Y-27822956D01*
X45652296Y-28112571D01*
X45570616Y-28424108D01*
X45551282Y-28745595D01*
X45377189Y-28745595D01*
X45384718Y-28620405D01*
X45340961Y-28301325D01*
X45235795Y-27996912D01*
X45142814Y-27822956D01*
X44878413Y-27727192D01*
X43922605Y-28683000D01*
X43936748Y-28697143D01*
X43757143Y-28876748D01*
X43743000Y-28862605D01*
X42787192Y-29818413D01*
X42882956Y-30082814D01*
X42965563Y-30123000D01*
X38772819Y-30123000D01*
X38778217Y-30013488D01*
X38736787Y-29733870D01*
X38641603Y-29467708D01*
X38574671Y-29342486D01*
X38330702Y-29270903D01*
X37517605Y-30084000D01*
X37531748Y-30098143D01*
X37352143Y-30277748D01*
X37338000Y-30263605D01*
X37323858Y-30277748D01*
X37144253Y-30098143D01*
X37158395Y-30084000D01*
X36345298Y-29270903D01*
X36101329Y-29342486D01*
X35980429Y-29597996D01*
X35911700Y-29872184D01*
X35897783Y-30154512D01*
X35939213Y-30434130D01*
X36034397Y-30700292D01*
X36101329Y-30825514D01*
X36130930Y-30834199D01*
X34013051Y-32952080D01*
X33721407Y-32952080D01*
X33680399Y-32948041D01*
X33639391Y-32952080D01*
X33639381Y-32952080D01*
X33516711Y-32964162D01*
X33359313Y-33011908D01*
X33322697Y-33031480D01*
X33299061Y-33031480D01*
X33099102Y-33071254D01*
X32910744Y-33149275D01*
X32741226Y-33262543D01*
X32597063Y-33406706D01*
X32539467Y-33492905D01*
X32488276Y-33397134D01*
X32451383Y-33352180D01*
X32383931Y-33269989D01*
X32352066Y-33243839D01*
X31372013Y-32263785D01*
X31343146Y-32118662D01*
X31265125Y-31930304D01*
X31151857Y-31760786D01*
X31007694Y-31616623D01*
X30838176Y-31503355D01*
X30649818Y-31425334D01*
X30449859Y-31385560D01*
X30245981Y-31385560D01*
X30046022Y-31425334D01*
X29857664Y-31503355D01*
X29688146Y-31616623D01*
X29543983Y-31760786D01*
X29430715Y-31930304D01*
X29352694Y-32118662D01*
X29312920Y-32318621D01*
X29312920Y-32522499D01*
X29352694Y-32722458D01*
X29430715Y-32910816D01*
X29543983Y-33080334D01*
X29688146Y-33224497D01*
X29857664Y-33337765D01*
X30046022Y-33415786D01*
X30191145Y-33444653D01*
X30955641Y-34209148D01*
X30955641Y-34311714D01*
X30873435Y-34434744D01*
X30795414Y-34623102D01*
X30766547Y-34768225D01*
X30642577Y-34892196D01*
X30610708Y-34918350D01*
X30521592Y-35026939D01*
X30506363Y-35045496D01*
X30428827Y-35190555D01*
X30381081Y-35347953D01*
X30364959Y-35511641D01*
X30368999Y-35552660D01*
X30369000Y-41449763D01*
X30364959Y-41490791D01*
X30381081Y-41654479D01*
X30428827Y-41811877D01*
X30506363Y-41956936D01*
X30518951Y-41972274D01*
X30610709Y-42084082D01*
X30642572Y-42110231D01*
X30763095Y-42230755D01*
X30791962Y-42375878D01*
X30869983Y-42564236D01*
X30955641Y-42692433D01*
X30955641Y-46486333D01*
X30951600Y-46527358D01*
X30955641Y-46568382D01*
X30955640Y-52457475D01*
X30873435Y-52580504D01*
X30795414Y-52768862D01*
X30755640Y-52968821D01*
X30755640Y-53172699D01*
X30795414Y-53372658D01*
X30873435Y-53561016D01*
X30986703Y-53730534D01*
X31130866Y-53874697D01*
X31300384Y-53987965D01*
X31488742Y-54065986D01*
X31688701Y-54105760D01*
X31892579Y-54105760D01*
X32092538Y-54065986D01*
X32280896Y-53987965D01*
X32450414Y-53874697D01*
X32594577Y-53730534D01*
X32707845Y-53561016D01*
X32785866Y-53372658D01*
X32825640Y-53172699D01*
X32825640Y-52968821D01*
X32785866Y-52768862D01*
X32707845Y-52580504D01*
X32625640Y-52457475D01*
X32625640Y-46873225D01*
X34869305Y-44629561D01*
X34869305Y-46766470D01*
X34845898Y-46756774D01*
X34645939Y-46717000D01*
X34442061Y-46717000D01*
X34242102Y-46756774D01*
X34053744Y-46834795D01*
X33884226Y-46948063D01*
X33740063Y-47092226D01*
X33626795Y-47261744D01*
X33548774Y-47450102D01*
X33509000Y-47650061D01*
X33509000Y-47853939D01*
X33548774Y-48053898D01*
X33626795Y-48242256D01*
X33740063Y-48411774D01*
X33834000Y-48505711D01*
X33834001Y-57363908D01*
X33801270Y-57396639D01*
X33668422Y-57396639D01*
X33468463Y-57436413D01*
X33280105Y-57514434D01*
X33110587Y-57627702D01*
X32966424Y-57771865D01*
X32853156Y-57941383D01*
X32775135Y-58129741D01*
X32735361Y-58329700D01*
X32735361Y-58533578D01*
X32775135Y-58733537D01*
X32853156Y-58921895D01*
X32966424Y-59091413D01*
X33110587Y-59235576D01*
X33280105Y-59348844D01*
X33468463Y-59426865D01*
X33668422Y-59466639D01*
X33872300Y-59466639D01*
X34072259Y-59426865D01*
X34260617Y-59348844D01*
X34430135Y-59235576D01*
X34574298Y-59091413D01*
X34687566Y-58921895D01*
X34765587Y-58733537D01*
X34805361Y-58533578D01*
X34805361Y-58400730D01*
X34869306Y-58336785D01*
X34869306Y-61140912D01*
X34775368Y-61234850D01*
X34662100Y-61404368D01*
X34584079Y-61592726D01*
X34558379Y-61721928D01*
X32295479Y-61721928D01*
X32334646Y-61525022D01*
X32334646Y-61321144D01*
X32294872Y-61121185D01*
X32216851Y-60932827D01*
X32103583Y-60763309D01*
X31959420Y-60619146D01*
X31789902Y-60505878D01*
X31601544Y-60427857D01*
X31401585Y-60388083D01*
X31197707Y-60388083D01*
X30997748Y-60427857D01*
X30809390Y-60505878D01*
X30639872Y-60619146D01*
X30495709Y-60763309D01*
X30382441Y-60932827D01*
X30304420Y-61121185D01*
X30264646Y-61321144D01*
X30264646Y-61350473D01*
X30208256Y-61312795D01*
X30174000Y-61298606D01*
X30174000Y-55363711D01*
X30267937Y-55269774D01*
X30381205Y-55100256D01*
X30459226Y-54911898D01*
X30499000Y-54711939D01*
X30499000Y-54508061D01*
X30459226Y-54308102D01*
X30381205Y-54119744D01*
X30267937Y-53950226D01*
X30123774Y-53806063D01*
X29954256Y-53692795D01*
X29765898Y-53614774D01*
X29565939Y-53575000D01*
X29362061Y-53575000D01*
X29162102Y-53614774D01*
X28973744Y-53692795D01*
X28804226Y-53806063D01*
X28660063Y-53950226D01*
X28546795Y-54119744D01*
X28468774Y-54308102D01*
X28429000Y-54508061D01*
X28429000Y-54711939D01*
X28468774Y-54911898D01*
X28546795Y-55100256D01*
X28660063Y-55269774D01*
X28754000Y-55363711D01*
X28754001Y-59458568D01*
X28680023Y-59429271D01*
X28383000Y-59375000D01*
X27483000Y-59375000D01*
X27483000Y-60783000D01*
X27503000Y-60783000D01*
X27503000Y-61037000D01*
X27483000Y-61037000D01*
X27483000Y-62340623D01*
X25660000Y-64163624D01*
X25660000Y-62220625D01*
X25751249Y-62279554D01*
X26031977Y-62390729D01*
X26329000Y-62445000D01*
X27229000Y-62445000D01*
X27229000Y-61037000D01*
X27209000Y-61037000D01*
X27209000Y-60783000D01*
X27229000Y-60783000D01*
X27229000Y-59375000D01*
X26329000Y-59375000D01*
X26031977Y-59429271D01*
X25751249Y-59540446D01*
X25660000Y-59599375D01*
X25660000Y-37634143D01*
X28700000Y-37634143D01*
X28700000Y-28505653D01*
X33315952Y-28505653D01*
X33471962Y-28821214D01*
X33846745Y-29012020D01*
X34251551Y-29126044D01*
X34670824Y-29158902D01*
X35088451Y-29109334D01*
X35143898Y-29091298D01*
X36524903Y-29091298D01*
X37338000Y-29904395D01*
X38151097Y-29091298D01*
X38079514Y-28847329D01*
X37864510Y-28745595D01*
X42101282Y-28745595D01*
X42145039Y-29064675D01*
X42250205Y-29369088D01*
X42343186Y-29543044D01*
X42607587Y-29638808D01*
X43563395Y-28683000D01*
X42607587Y-27727192D01*
X42343186Y-27822956D01*
X42202296Y-28112571D01*
X42120616Y-28424108D01*
X42101282Y-28745595D01*
X37864510Y-28745595D01*
X37824004Y-28726429D01*
X37549816Y-28657700D01*
X37267488Y-28643783D01*
X36987870Y-28685213D01*
X36721708Y-28780397D01*
X36596486Y-28847329D01*
X36524903Y-29091298D01*
X35143898Y-29091298D01*
X35488383Y-28979243D01*
X35784038Y-28821214D01*
X35940048Y-28505653D01*
X34628000Y-27193605D01*
X33315952Y-28505653D01*
X28700000Y-28505653D01*
X28700000Y-25660000D01*
X33094392Y-25660000D01*
X33136345Y-25701953D01*
G37*
%TD.AperFunction*%
D26*
X42640013Y-60255322D02*
X42586736Y-60354996D01*
X42569441Y-60387352D01*
X42525984Y-60530613D01*
X42514987Y-60642266D01*
X42514987Y-60642276D01*
X42511311Y-60679598D01*
X42514987Y-60716920D01*
X42514987Y-61488663D01*
X42511311Y-61525985D01*
X42514987Y-61563307D01*
X42514987Y-61563318D01*
X42525985Y-61674971D01*
X42528693Y-61683898D01*
X42540855Y-61723991D01*
X42059750Y-61725000D01*
X41901000Y-61883750D01*
X41901000Y-62683000D01*
X41921000Y-62683000D01*
X41921000Y-62937000D01*
X41901000Y-62937000D01*
X41901000Y-62957000D01*
X41647000Y-62957000D01*
X41647000Y-62937000D01*
X41627000Y-62937000D01*
X41627000Y-62683000D01*
X41647000Y-62683000D01*
X41647000Y-61883750D01*
X41488250Y-61725000D01*
X41168759Y-61724330D01*
X42650293Y-60242796D01*
X42640013Y-60255322D01*
%TA.AperFunction,Conductor*%
D27*
G36*
X42640013Y-60255322D02*
G01*
X42586736Y-60354996D01*
X42569441Y-60387352D01*
X42525984Y-60530613D01*
X42514987Y-60642266D01*
X42514987Y-60642276D01*
X42511311Y-60679598D01*
X42514987Y-60716920D01*
X42514987Y-61488663D01*
X42511311Y-61525985D01*
X42514987Y-61563307D01*
X42514987Y-61563318D01*
X42525985Y-61674971D01*
X42528693Y-61683898D01*
X42540855Y-61723991D01*
X42059750Y-61725000D01*
X41901000Y-61883750D01*
X41901000Y-62683000D01*
X41921000Y-62683000D01*
X41921000Y-62937000D01*
X41901000Y-62937000D01*
X41901000Y-62957000D01*
X41647000Y-62957000D01*
X41647000Y-62937000D01*
X41627000Y-62937000D01*
X41627000Y-62683000D01*
X41647000Y-62683000D01*
X41647000Y-61883750D01*
X41488250Y-61725000D01*
X41168759Y-61724330D01*
X42650293Y-60242796D01*
X42640013Y-60255322D01*
G37*
%TD.AperFunction*%
D26*
X40038002Y-57247292D02*
X39907624Y-57160176D01*
X39701067Y-57074617D01*
X39481788Y-57031000D01*
X39258212Y-57031000D01*
X39038933Y-57074617D01*
X38832376Y-57160176D01*
X38829659Y-57161991D01*
X38829659Y-47091379D01*
X38867632Y-47098932D01*
X39071510Y-47098932D01*
X39271469Y-47059158D01*
X39459827Y-46981137D01*
X39629345Y-46867869D01*
X39773508Y-46723706D01*
X39886776Y-46554188D01*
X39964797Y-46365830D01*
X39965400Y-46362801D01*
X40038001Y-46348360D01*
X40038002Y-57247292D01*
%TA.AperFunction,Conductor*%
D27*
G36*
X40038002Y-57247292D02*
G01*
X39907624Y-57160176D01*
X39701067Y-57074617D01*
X39481788Y-57031000D01*
X39258212Y-57031000D01*
X39038933Y-57074617D01*
X38832376Y-57160176D01*
X38829659Y-57161991D01*
X38829659Y-47091379D01*
X38867632Y-47098932D01*
X39071510Y-47098932D01*
X39271469Y-47059158D01*
X39459827Y-46981137D01*
X39629345Y-46867869D01*
X39773508Y-46723706D01*
X39886776Y-46554188D01*
X39964797Y-46365830D01*
X39965400Y-46362801D01*
X40038001Y-46348360D01*
X40038002Y-57247292D01*
G37*
%TD.AperFunction*%
D26*
X36066320Y-33263727D02*
X36223363Y-33498759D01*
X36308604Y-33584000D01*
X36223363Y-33669241D01*
X36066320Y-33904273D01*
X35958147Y-34165426D01*
X35903000Y-34442665D01*
X35903000Y-34725335D01*
X35958147Y-35002574D01*
X36066320Y-35263727D01*
X36223363Y-35498759D01*
X36401581Y-35676977D01*
X36343820Y-35694498D01*
X36233506Y-35753463D01*
X36136815Y-35832815D01*
X36057463Y-35929506D01*
X35998498Y-36039820D01*
X35962188Y-36159518D01*
X35949928Y-36284000D01*
X35949928Y-37884000D01*
X35962188Y-38008482D01*
X35998498Y-38128180D01*
X36057463Y-38238494D01*
X36136815Y-38335185D01*
X36233506Y-38414537D01*
X36343820Y-38473502D01*
X36463518Y-38509812D01*
X36588000Y-38522072D01*
X38088000Y-38522072D01*
X38212482Y-38509812D01*
X38332180Y-38473502D01*
X38442494Y-38414537D01*
X38484661Y-38379932D01*
X38484661Y-40786195D01*
X38417719Y-40786195D01*
X38217760Y-40825969D01*
X38029402Y-40903990D01*
X37859884Y-41017258D01*
X37715721Y-41161421D01*
X37697537Y-41188635D01*
X37680147Y-41174363D01*
X37535088Y-41096827D01*
X37377690Y-41049081D01*
X37255020Y-41036999D01*
X37255019Y-41036999D01*
X37214001Y-41032959D01*
X37172983Y-41036999D01*
X36574221Y-41036999D01*
X36626020Y-40935255D01*
X36740044Y-40530449D01*
X36772902Y-40111176D01*
X36723334Y-39693549D01*
X36593243Y-39293617D01*
X36435214Y-38997962D01*
X36119653Y-38841952D01*
X34807605Y-40154000D01*
X34821748Y-40168143D01*
X34642143Y-40347748D01*
X34628000Y-40333605D01*
X33315952Y-41645653D01*
X33471962Y-41961214D01*
X33846745Y-42152020D01*
X34251551Y-42266044D01*
X34670824Y-42298902D01*
X34860772Y-42276357D01*
X32625640Y-44511490D01*
X32625640Y-42682099D01*
X32704393Y-42564236D01*
X32782414Y-42375878D01*
X32822188Y-42175919D01*
X32822188Y-41972041D01*
X32782414Y-41772082D01*
X32704393Y-41583724D01*
X32591125Y-41414206D01*
X32446962Y-41270043D01*
X32277444Y-41156775D01*
X32089086Y-41078754D01*
X32038999Y-41068791D01*
X32038999Y-40196824D01*
X32483098Y-40196824D01*
X32532666Y-40614451D01*
X32662757Y-41014383D01*
X32820786Y-41310038D01*
X33136347Y-41466048D01*
X34448395Y-40154000D01*
X33136347Y-38841952D01*
X32820786Y-38997962D01*
X32629980Y-39372745D01*
X32515956Y-39777551D01*
X32483098Y-40196824D01*
X32038999Y-40196824D01*
X32038999Y-38662347D01*
X33315952Y-38662347D01*
X34628000Y-39974395D01*
X35940048Y-38662347D01*
X35784038Y-38346786D01*
X35409255Y-38155980D01*
X35004449Y-38041956D01*
X34585176Y-38009098D01*
X34167549Y-38058666D01*
X33767617Y-38188757D01*
X33471962Y-38346786D01*
X33315952Y-38662347D01*
X32038999Y-38662347D01*
X32038999Y-35930875D01*
X32092538Y-35920226D01*
X32280896Y-35842205D01*
X32450414Y-35728937D01*
X32594577Y-35584774D01*
X32707845Y-35415256D01*
X32785866Y-35226898D01*
X32825640Y-35026939D01*
X32825640Y-34926820D01*
X32910744Y-34983685D01*
X33099102Y-35061706D01*
X33299061Y-35101480D01*
X33502939Y-35101480D01*
X33702898Y-35061706D01*
X33891256Y-34983685D01*
X34060774Y-34870417D01*
X34204937Y-34726254D01*
X34274544Y-34622080D01*
X34317900Y-34622080D01*
X34358918Y-34626120D01*
X34399936Y-34622080D01*
X34399937Y-34622080D01*
X34522607Y-34609998D01*
X34680005Y-34562252D01*
X34825064Y-34484716D01*
X34952209Y-34380371D01*
X34978364Y-34348501D01*
X36065388Y-33261478D01*
X36066320Y-33263727D01*
%TA.AperFunction,Conductor*%
D27*
G36*
X36066320Y-33263727D02*
G01*
X36223363Y-33498759D01*
X36308604Y-33584000D01*
X36223363Y-33669241D01*
X36066320Y-33904273D01*
X35958147Y-34165426D01*
X35903000Y-34442665D01*
X35903000Y-34725335D01*
X35958147Y-35002574D01*
X36066320Y-35263727D01*
X36223363Y-35498759D01*
X36401581Y-35676977D01*
X36343820Y-35694498D01*
X36233506Y-35753463D01*
X36136815Y-35832815D01*
X36057463Y-35929506D01*
X35998498Y-36039820D01*
X35962188Y-36159518D01*
X35949928Y-36284000D01*
X35949928Y-37884000D01*
X35962188Y-38008482D01*
X35998498Y-38128180D01*
X36057463Y-38238494D01*
X36136815Y-38335185D01*
X36233506Y-38414537D01*
X36343820Y-38473502D01*
X36463518Y-38509812D01*
X36588000Y-38522072D01*
X38088000Y-38522072D01*
X38212482Y-38509812D01*
X38332180Y-38473502D01*
X38442494Y-38414537D01*
X38484661Y-38379932D01*
X38484661Y-40786195D01*
X38417719Y-40786195D01*
X38217760Y-40825969D01*
X38029402Y-40903990D01*
X37859884Y-41017258D01*
X37715721Y-41161421D01*
X37697537Y-41188635D01*
X37680147Y-41174363D01*
X37535088Y-41096827D01*
X37377690Y-41049081D01*
X37255020Y-41036999D01*
X37255019Y-41036999D01*
X37214001Y-41032959D01*
X37172983Y-41036999D01*
X36574221Y-41036999D01*
X36626020Y-40935255D01*
X36740044Y-40530449D01*
X36772902Y-40111176D01*
X36723334Y-39693549D01*
X36593243Y-39293617D01*
X36435214Y-38997962D01*
X36119653Y-38841952D01*
X34807605Y-40154000D01*
X34821748Y-40168143D01*
X34642143Y-40347748D01*
X34628000Y-40333605D01*
X33315952Y-41645653D01*
X33471962Y-41961214D01*
X33846745Y-42152020D01*
X34251551Y-42266044D01*
X34670824Y-42298902D01*
X34860772Y-42276357D01*
X32625640Y-44511490D01*
X32625640Y-42682099D01*
X32704393Y-42564236D01*
X32782414Y-42375878D01*
X32822188Y-42175919D01*
X32822188Y-41972041D01*
X32782414Y-41772082D01*
X32704393Y-41583724D01*
X32591125Y-41414206D01*
X32446962Y-41270043D01*
X32277444Y-41156775D01*
X32089086Y-41078754D01*
X32038999Y-41068791D01*
X32038999Y-40196824D01*
X32483098Y-40196824D01*
X32532666Y-40614451D01*
X32662757Y-41014383D01*
X32820786Y-41310038D01*
X33136347Y-41466048D01*
X34448395Y-40154000D01*
X33136347Y-38841952D01*
X32820786Y-38997962D01*
X32629980Y-39372745D01*
X32515956Y-39777551D01*
X32483098Y-40196824D01*
X32038999Y-40196824D01*
X32038999Y-38662347D01*
X33315952Y-38662347D01*
X34628000Y-39974395D01*
X35940048Y-38662347D01*
X35784038Y-38346786D01*
X35409255Y-38155980D01*
X35004449Y-38041956D01*
X34585176Y-38009098D01*
X34167549Y-38058666D01*
X33767617Y-38188757D01*
X33471962Y-38346786D01*
X33315952Y-38662347D01*
X32038999Y-38662347D01*
X32038999Y-35930875D01*
X32092538Y-35920226D01*
X32280896Y-35842205D01*
X32450414Y-35728937D01*
X32594577Y-35584774D01*
X32707845Y-35415256D01*
X32785866Y-35226898D01*
X32825640Y-35026939D01*
X32825640Y-34926820D01*
X32910744Y-34983685D01*
X33099102Y-35061706D01*
X33299061Y-35101480D01*
X33502939Y-35101480D01*
X33702898Y-35061706D01*
X33891256Y-34983685D01*
X34060774Y-34870417D01*
X34204937Y-34726254D01*
X34274544Y-34622080D01*
X34317900Y-34622080D01*
X34358918Y-34626120D01*
X34399936Y-34622080D01*
X34399937Y-34622080D01*
X34522607Y-34609998D01*
X34680005Y-34562252D01*
X34825064Y-34484716D01*
X34952209Y-34380371D01*
X34978364Y-34348501D01*
X36065388Y-33261478D01*
X36066320Y-33263727D01*
G37*
%TD.AperFunction*%
D26*
X42904928Y-31808000D02*
X42917188Y-31932482D01*
X42917345Y-31933000D01*
X42917188Y-31933518D01*
X42904928Y-32058000D01*
X42904928Y-32458000D01*
X42917188Y-32582482D01*
X42917345Y-32583000D01*
X42917188Y-32583518D01*
X42904928Y-32708000D01*
X42904928Y-33108000D01*
X42917188Y-33232482D01*
X42917971Y-33235064D01*
X42908000Y-33326250D01*
X42975968Y-33394218D01*
X43012463Y-33462494D01*
X43091815Y-33559185D01*
X43179322Y-33631000D01*
X43066750Y-33631000D01*
X42908000Y-33789750D01*
X42919206Y-33892229D01*
X42957379Y-34011346D01*
X43018057Y-34120727D01*
X43098908Y-34216169D01*
X43194954Y-34292515D01*
X43056912Y-34340205D01*
X42882956Y-34433186D01*
X42787192Y-34697587D01*
X43743000Y-35653395D01*
X43757143Y-35639253D01*
X43936748Y-35818858D01*
X43922605Y-35833000D01*
X43936748Y-35847143D01*
X43757143Y-36026748D01*
X43743000Y-36012605D01*
X43728858Y-36026748D01*
X43549253Y-35847143D01*
X43563395Y-35833000D01*
X42607587Y-34877192D01*
X42343186Y-34972956D01*
X42202296Y-35262571D01*
X42120616Y-35574108D01*
X42101282Y-35895595D01*
X42145039Y-36214675D01*
X42211928Y-36408292D01*
X42181744Y-36420795D01*
X42012226Y-36534063D01*
X41910000Y-36636289D01*
X41807774Y-36534063D01*
X41638256Y-36420795D01*
X41449898Y-36342774D01*
X41249939Y-36303000D01*
X41046061Y-36303000D01*
X40846102Y-36342774D01*
X40657744Y-36420795D01*
X40516080Y-36515452D01*
X40516080Y-34503666D01*
X40559019Y-34460727D01*
X40621157Y-34460727D01*
X40821116Y-34420953D01*
X41009474Y-34342932D01*
X41178992Y-34229664D01*
X41323155Y-34085501D01*
X41436423Y-33915983D01*
X41514444Y-33727625D01*
X41554218Y-33527666D01*
X41554218Y-33323788D01*
X41514444Y-33123829D01*
X41436423Y-32935471D01*
X41323155Y-32765953D01*
X41178992Y-32621790D01*
X41009474Y-32508522D01*
X40821116Y-32430501D01*
X40621157Y-32390727D01*
X40543289Y-32390727D01*
X40458417Y-32263706D01*
X40314254Y-32119543D01*
X40144736Y-32006275D01*
X39956378Y-31928254D01*
X39756419Y-31888480D01*
X39552541Y-31888480D01*
X39352582Y-31928254D01*
X39164224Y-32006275D01*
X38994706Y-32119543D01*
X38850543Y-32263706D01*
X38763357Y-32394189D01*
X38717853Y-32165426D01*
X38609680Y-31904273D01*
X38555573Y-31823296D01*
X38585869Y-31793000D01*
X42904928Y-31793000D01*
X42904928Y-31808000D01*
%TA.AperFunction,Conductor*%
D27*
G36*
X42904928Y-31808000D02*
G01*
X42917188Y-31932482D01*
X42917345Y-31933000D01*
X42917188Y-31933518D01*
X42904928Y-32058000D01*
X42904928Y-32458000D01*
X42917188Y-32582482D01*
X42917345Y-32583000D01*
X42917188Y-32583518D01*
X42904928Y-32708000D01*
X42904928Y-33108000D01*
X42917188Y-33232482D01*
X42917971Y-33235064D01*
X42908000Y-33326250D01*
X42975968Y-33394218D01*
X43012463Y-33462494D01*
X43091815Y-33559185D01*
X43179322Y-33631000D01*
X43066750Y-33631000D01*
X42908000Y-33789750D01*
X42919206Y-33892229D01*
X42957379Y-34011346D01*
X43018057Y-34120727D01*
X43098908Y-34216169D01*
X43194954Y-34292515D01*
X43056912Y-34340205D01*
X42882956Y-34433186D01*
X42787192Y-34697587D01*
X43743000Y-35653395D01*
X43757143Y-35639253D01*
X43936748Y-35818858D01*
X43922605Y-35833000D01*
X43936748Y-35847143D01*
X43757143Y-36026748D01*
X43743000Y-36012605D01*
X43728858Y-36026748D01*
X43549253Y-35847143D01*
X43563395Y-35833000D01*
X42607587Y-34877192D01*
X42343186Y-34972956D01*
X42202296Y-35262571D01*
X42120616Y-35574108D01*
X42101282Y-35895595D01*
X42145039Y-36214675D01*
X42211928Y-36408292D01*
X42181744Y-36420795D01*
X42012226Y-36534063D01*
X41910000Y-36636289D01*
X41807774Y-36534063D01*
X41638256Y-36420795D01*
X41449898Y-36342774D01*
X41249939Y-36303000D01*
X41046061Y-36303000D01*
X40846102Y-36342774D01*
X40657744Y-36420795D01*
X40516080Y-36515452D01*
X40516080Y-34503666D01*
X40559019Y-34460727D01*
X40621157Y-34460727D01*
X40821116Y-34420953D01*
X41009474Y-34342932D01*
X41178992Y-34229664D01*
X41323155Y-34085501D01*
X41436423Y-33915983D01*
X41514444Y-33727625D01*
X41554218Y-33527666D01*
X41554218Y-33323788D01*
X41514444Y-33123829D01*
X41436423Y-32935471D01*
X41323155Y-32765953D01*
X41178992Y-32621790D01*
X41009474Y-32508522D01*
X40821116Y-32430501D01*
X40621157Y-32390727D01*
X40543289Y-32390727D01*
X40458417Y-32263706D01*
X40314254Y-32119543D01*
X40144736Y-32006275D01*
X39956378Y-31928254D01*
X39756419Y-31888480D01*
X39552541Y-31888480D01*
X39352582Y-31928254D01*
X39164224Y-32006275D01*
X38994706Y-32119543D01*
X38850543Y-32263706D01*
X38763357Y-32394189D01*
X38717853Y-32165426D01*
X38609680Y-31904273D01*
X38555573Y-31823296D01*
X38585869Y-31793000D01*
X42904928Y-31793000D01*
X42904928Y-31808000D01*
G37*
%TD.AperFunction*%
%TD*%
M02*
