%TF.GenerationSoftware,KiCad,Pcbnew,(5.1.9-16-g1737927814)-1*%
%TF.CreationDate,2021-07-25T19:14:51-05:00*%
%TF.ProjectId,adbuino,61646275-696e-46f2-9e6b-696361645f70,rev?*%
%TF.SameCoordinates,Original*%
%TF.FileFunction,Legend,Top*%
%TF.FilePolarity,Positive*%
%FSLAX46Y46*%
G04 Gerber Fmt 4.6, Leading zero omitted, Abs format (unit mm)*
G04 Created by KiCad (PCBNEW (5.1.9-16-g1737927814)-1) date 2021-07-25 19:14:51*
%MOMM*%
%LPD*%
G01*
G04 APERTURE LIST*
%ADD10C,0.100000*%
%ADD11C,0.120000*%
%ADD12C,0.150000*%
%ADD13C,0.200000*%
%ADD14C,0.250000*%
%ADD15C,0.254000*%
G04 APERTURE END LIST*
D10*
X28263809Y-51980952D02*
X28301904Y-51866666D01*
X28301904Y-51676190D01*
X28263809Y-51600000D01*
X28225714Y-51561904D01*
X28149523Y-51523809D01*
X28073333Y-51523809D01*
X27997142Y-51561904D01*
X27959047Y-51600000D01*
X27920952Y-51676190D01*
X27882857Y-51828571D01*
X27844761Y-51904761D01*
X27806666Y-51942857D01*
X27730476Y-51980952D01*
X27654285Y-51980952D01*
X27578095Y-51942857D01*
X27540000Y-51904761D01*
X27501904Y-51828571D01*
X27501904Y-51638095D01*
X27540000Y-51523809D01*
X27501904Y-51295238D02*
X27501904Y-50838095D01*
X28301904Y-51066666D02*
X27501904Y-51066666D01*
X28073333Y-50609523D02*
X28073333Y-50228571D01*
X28301904Y-50685714D02*
X27501904Y-50419047D01*
X28301904Y-50152380D01*
X27501904Y-50000000D02*
X27501904Y-49542857D01*
X28301904Y-49771428D02*
X27501904Y-49771428D01*
X27501904Y-48132857D02*
X27501904Y-47637619D01*
X27806666Y-47904285D01*
X27806666Y-47790000D01*
X27844761Y-47713809D01*
X27882857Y-47675714D01*
X27959047Y-47637619D01*
X28149523Y-47637619D01*
X28225714Y-47675714D01*
X28263809Y-47713809D01*
X28301904Y-47790000D01*
X28301904Y-48018571D01*
X28263809Y-48094761D01*
X28225714Y-48132857D01*
X28225714Y-47294761D02*
X28263809Y-47256666D01*
X28301904Y-47294761D01*
X28263809Y-47332857D01*
X28225714Y-47294761D01*
X28301904Y-47294761D01*
X27501904Y-46990000D02*
X27501904Y-46494761D01*
X27806666Y-46761428D01*
X27806666Y-46647142D01*
X27844761Y-46570952D01*
X27882857Y-46532857D01*
X27959047Y-46494761D01*
X28149523Y-46494761D01*
X28225714Y-46532857D01*
X28263809Y-46570952D01*
X28301904Y-46647142D01*
X28301904Y-46875714D01*
X28263809Y-46951904D01*
X28225714Y-46990000D01*
X27768571Y-46228095D02*
X28301904Y-46037619D01*
X27768571Y-45847142D01*
X27501904Y-44646666D02*
X28301904Y-44380000D01*
X27501904Y-44113333D01*
X27882857Y-43580000D02*
X27920952Y-43465714D01*
X27959047Y-43427619D01*
X28035238Y-43389523D01*
X28149523Y-43389523D01*
X28225714Y-43427619D01*
X28263809Y-43465714D01*
X28301904Y-43541904D01*
X28301904Y-43846666D01*
X27501904Y-43846666D01*
X27501904Y-43580000D01*
X27540000Y-43503809D01*
X27578095Y-43465714D01*
X27654285Y-43427619D01*
X27730476Y-43427619D01*
X27806666Y-43465714D01*
X27844761Y-43503809D01*
X27882857Y-43580000D01*
X27882857Y-43846666D01*
X27501904Y-43046666D02*
X28149523Y-43046666D01*
X28225714Y-43008571D01*
X28263809Y-42970476D01*
X28301904Y-42894285D01*
X28301904Y-42741904D01*
X28263809Y-42665714D01*
X28225714Y-42627619D01*
X28149523Y-42589523D01*
X27501904Y-42589523D01*
X28263809Y-42246666D02*
X28301904Y-42132380D01*
X28301904Y-41941904D01*
X28263809Y-41865714D01*
X28225714Y-41827619D01*
X28149523Y-41789523D01*
X28073333Y-41789523D01*
X27997142Y-41827619D01*
X27959047Y-41865714D01*
X27920952Y-41941904D01*
X27882857Y-42094285D01*
X27844761Y-42170476D01*
X27806666Y-42208571D01*
X27730476Y-42246666D01*
X27654285Y-42246666D01*
X27578095Y-42208571D01*
X27540000Y-42170476D01*
X27501904Y-42094285D01*
X27501904Y-41903809D01*
X27540000Y-41789523D01*
D11*
X36068000Y-51054000D02*
X36068000Y-51308000D01*
X36322000Y-50800000D02*
X28956000Y-50800000D01*
X36322000Y-55372000D02*
X36322000Y-50800000D01*
X28956000Y-55372000D02*
X36322000Y-55372000D01*
X28956000Y-50800000D02*
X28956000Y-55372000D01*
X29210000Y-51054000D02*
X36068000Y-51054000D01*
X29210000Y-55118000D02*
X29210000Y-51054000D01*
X36068000Y-55118000D02*
X29210000Y-55118000D01*
X36068000Y-51308000D02*
X36068000Y-55118000D01*
D12*
X29932666Y-52681666D02*
X30408857Y-52681666D01*
X29837428Y-52967380D02*
X30170761Y-51967380D01*
X30504095Y-52967380D01*
X30837428Y-52967380D02*
X30837428Y-51967380D01*
X31075523Y-51967380D01*
X31218380Y-52015000D01*
X31313619Y-52110238D01*
X31361238Y-52205476D01*
X31408857Y-52395952D01*
X31408857Y-52538809D01*
X31361238Y-52729285D01*
X31313619Y-52824523D01*
X31218380Y-52919761D01*
X31075523Y-52967380D01*
X30837428Y-52967380D01*
X32170761Y-52443571D02*
X32313619Y-52491190D01*
X32361238Y-52538809D01*
X32408857Y-52634047D01*
X32408857Y-52776904D01*
X32361238Y-52872142D01*
X32313619Y-52919761D01*
X32218380Y-52967380D01*
X31837428Y-52967380D01*
X31837428Y-51967380D01*
X32170761Y-51967380D01*
X32266000Y-52015000D01*
X32313619Y-52062619D01*
X32361238Y-52157857D01*
X32361238Y-52253095D01*
X32313619Y-52348333D01*
X32266000Y-52395952D01*
X32170761Y-52443571D01*
X31837428Y-52443571D01*
X33266000Y-52300714D02*
X33266000Y-52967380D01*
X32837428Y-52300714D02*
X32837428Y-52824523D01*
X32885047Y-52919761D01*
X32980285Y-52967380D01*
X33123142Y-52967380D01*
X33218380Y-52919761D01*
X33266000Y-52872142D01*
X33742190Y-52967380D02*
X33742190Y-52300714D01*
X33742190Y-51967380D02*
X33694571Y-52015000D01*
X33742190Y-52062619D01*
X33789809Y-52015000D01*
X33742190Y-51967380D01*
X33742190Y-52062619D01*
X34218380Y-52300714D02*
X34218380Y-52967380D01*
X34218380Y-52395952D02*
X34266000Y-52348333D01*
X34361238Y-52300714D01*
X34504095Y-52300714D01*
X34599333Y-52348333D01*
X34646952Y-52443571D01*
X34646952Y-52967380D01*
X35266000Y-52967380D02*
X35170761Y-52919761D01*
X35123142Y-52872142D01*
X35075523Y-52776904D01*
X35075523Y-52491190D01*
X35123142Y-52395952D01*
X35170761Y-52348333D01*
X35266000Y-52300714D01*
X35408857Y-52300714D01*
X35504095Y-52348333D01*
X35551714Y-52395952D01*
X35599333Y-52491190D01*
X35599333Y-52776904D01*
X35551714Y-52872142D01*
X35504095Y-52919761D01*
X35408857Y-52967380D01*
X35266000Y-52967380D01*
X30623142Y-53950714D02*
X30861238Y-54617380D01*
X31099333Y-53950714D01*
X31670761Y-53617380D02*
X31766000Y-53617380D01*
X31861238Y-53665000D01*
X31908857Y-53712619D01*
X31956476Y-53807857D01*
X32004095Y-53998333D01*
X32004095Y-54236428D01*
X31956476Y-54426904D01*
X31908857Y-54522142D01*
X31861238Y-54569761D01*
X31766000Y-54617380D01*
X31670761Y-54617380D01*
X31575523Y-54569761D01*
X31527904Y-54522142D01*
X31480285Y-54426904D01*
X31432666Y-54236428D01*
X31432666Y-53998333D01*
X31480285Y-53807857D01*
X31527904Y-53712619D01*
X31575523Y-53665000D01*
X31670761Y-53617380D01*
X32432666Y-54522142D02*
X32480285Y-54569761D01*
X32432666Y-54617380D01*
X32385047Y-54569761D01*
X32432666Y-54522142D01*
X32432666Y-54617380D01*
X32956476Y-54617380D02*
X33146952Y-54617380D01*
X33242190Y-54569761D01*
X33289809Y-54522142D01*
X33385047Y-54379285D01*
X33432666Y-54188809D01*
X33432666Y-53807857D01*
X33385047Y-53712619D01*
X33337428Y-53665000D01*
X33242190Y-53617380D01*
X33051714Y-53617380D01*
X32956476Y-53665000D01*
X32908857Y-53712619D01*
X32861238Y-53807857D01*
X32861238Y-54045952D01*
X32908857Y-54141190D01*
X32956476Y-54188809D01*
X33051714Y-54236428D01*
X33242190Y-54236428D01*
X33337428Y-54188809D01*
X33385047Y-54141190D01*
X33432666Y-54045952D01*
X33861238Y-54522142D02*
X33908857Y-54569761D01*
X33861238Y-54617380D01*
X33813619Y-54569761D01*
X33861238Y-54522142D01*
X33861238Y-54617380D01*
X34861238Y-54617380D02*
X34289809Y-54617380D01*
X34575523Y-54617380D02*
X34575523Y-53617380D01*
X34480285Y-53760238D01*
X34385047Y-53855476D01*
X34289809Y-53903095D01*
D10*
X45911333Y-49104666D02*
X46611333Y-49104666D01*
X46611333Y-49371333D01*
X46578000Y-49438000D01*
X46544666Y-49471333D01*
X46478000Y-49504666D01*
X46378000Y-49504666D01*
X46311333Y-49471333D01*
X46278000Y-49438000D01*
X46244666Y-49371333D01*
X46244666Y-49104666D01*
X46611333Y-49738000D02*
X45911333Y-49904666D01*
X46411333Y-50038000D01*
X45911333Y-50171333D01*
X46611333Y-50338000D01*
X45911333Y-51004666D02*
X46244666Y-50771333D01*
X45911333Y-50604666D02*
X46611333Y-50604666D01*
X46611333Y-50871333D01*
X46578000Y-50938000D01*
X46544666Y-50971333D01*
X46478000Y-51004666D01*
X46378000Y-51004666D01*
X46311333Y-50971333D01*
X46278000Y-50938000D01*
X46244666Y-50871333D01*
X46244666Y-50604666D01*
X45911333Y-56858000D02*
X46611333Y-56858000D01*
X46611333Y-57024666D01*
X46578000Y-57124666D01*
X46511333Y-57191333D01*
X46444666Y-57224666D01*
X46311333Y-57258000D01*
X46211333Y-57258000D01*
X46078000Y-57224666D01*
X46011333Y-57191333D01*
X45944666Y-57124666D01*
X45911333Y-57024666D01*
X45911333Y-56858000D01*
X46611333Y-57458000D02*
X46611333Y-57858000D01*
X45911333Y-57658000D02*
X46611333Y-57658000D01*
X45911333Y-58491333D02*
X46244666Y-58258000D01*
X45911333Y-58091333D02*
X46611333Y-58091333D01*
X46611333Y-58358000D01*
X46578000Y-58424666D01*
X46544666Y-58458000D01*
X46478000Y-58491333D01*
X46378000Y-58491333D01*
X46311333Y-58458000D01*
X46278000Y-58424666D01*
X46244666Y-58358000D01*
X46244666Y-58091333D01*
X46611333Y-54218000D02*
X46611333Y-54618000D01*
X45911333Y-54418000D02*
X46611333Y-54418000D01*
X46611333Y-54784666D02*
X45911333Y-55251333D01*
X46611333Y-55251333D02*
X45911333Y-54784666D01*
X46611333Y-55651333D02*
X46611333Y-55784666D01*
X46578000Y-55851333D01*
X46511333Y-55918000D01*
X46378000Y-55951333D01*
X46144666Y-55951333D01*
X46011333Y-55918000D01*
X45944666Y-55851333D01*
X45911333Y-55784666D01*
X45911333Y-55651333D01*
X45944666Y-55584666D01*
X46011333Y-55518000D01*
X46144666Y-55484666D01*
X46378000Y-55484666D01*
X46511333Y-55518000D01*
X46578000Y-55584666D01*
X46611333Y-55651333D01*
X45911333Y-52294666D02*
X46244666Y-52061333D01*
X45911333Y-51894666D02*
X46611333Y-51894666D01*
X46611333Y-52161333D01*
X46578000Y-52228000D01*
X46544666Y-52261333D01*
X46478000Y-52294666D01*
X46378000Y-52294666D01*
X46311333Y-52261333D01*
X46278000Y-52228000D01*
X46244666Y-52161333D01*
X46244666Y-51894666D01*
X46611333Y-52528000D02*
X45911333Y-52994666D01*
X46611333Y-52994666D02*
X45911333Y-52528000D01*
X45911333Y-53261333D02*
X46611333Y-53261333D01*
X45911333Y-46948000D02*
X46611333Y-46948000D01*
X45911333Y-47348000D01*
X46611333Y-47348000D01*
X45978000Y-48081333D02*
X45944666Y-48048000D01*
X45911333Y-47948000D01*
X45911333Y-47881333D01*
X45944666Y-47781333D01*
X46011333Y-47714666D01*
X46078000Y-47681333D01*
X46211333Y-47648000D01*
X46311333Y-47648000D01*
X46444666Y-47681333D01*
X46511333Y-47714666D01*
X46578000Y-47781333D01*
X46611333Y-47881333D01*
X46611333Y-47948000D01*
X46578000Y-48048000D01*
X46544666Y-48081333D01*
X46578000Y-44424666D02*
X46611333Y-44358000D01*
X46611333Y-44258000D01*
X46578000Y-44158000D01*
X46511333Y-44091333D01*
X46444666Y-44058000D01*
X46311333Y-44024666D01*
X46211333Y-44024666D01*
X46078000Y-44058000D01*
X46011333Y-44091333D01*
X45944666Y-44158000D01*
X45911333Y-44258000D01*
X45911333Y-44324666D01*
X45944666Y-44424666D01*
X45978000Y-44458000D01*
X46211333Y-44458000D01*
X46211333Y-44324666D01*
X45911333Y-44758000D02*
X46611333Y-44758000D01*
X45911333Y-45158000D01*
X46611333Y-45158000D01*
X45911333Y-45491333D02*
X46611333Y-45491333D01*
X46611333Y-45658000D01*
X46578000Y-45758000D01*
X46511333Y-45824666D01*
X46444666Y-45858000D01*
X46311333Y-45891333D01*
X46211333Y-45891333D01*
X46078000Y-45858000D01*
X46011333Y-45824666D01*
X45944666Y-45758000D01*
X45911333Y-45658000D01*
X45911333Y-45491333D01*
D12*
X49474380Y-33980190D02*
X48474380Y-33980190D01*
X48474380Y-33599238D01*
X48522000Y-33504000D01*
X48569619Y-33456380D01*
X48664857Y-33408761D01*
X48807714Y-33408761D01*
X48902952Y-33456380D01*
X48950571Y-33504000D01*
X48998190Y-33599238D01*
X48998190Y-33980190D01*
X49474380Y-32837333D02*
X49426761Y-32932571D01*
X49379142Y-32980190D01*
X49283904Y-33027809D01*
X48998190Y-33027809D01*
X48902952Y-32980190D01*
X48855333Y-32932571D01*
X48807714Y-32837333D01*
X48807714Y-32694476D01*
X48855333Y-32599238D01*
X48902952Y-32551619D01*
X48998190Y-32504000D01*
X49283904Y-32504000D01*
X49379142Y-32551619D01*
X49426761Y-32599238D01*
X49474380Y-32694476D01*
X49474380Y-32837333D01*
X48807714Y-32170666D02*
X49474380Y-31980190D01*
X48998190Y-31789714D01*
X49474380Y-31599238D01*
X48807714Y-31408761D01*
X49426761Y-30646857D02*
X49474380Y-30742095D01*
X49474380Y-30932571D01*
X49426761Y-31027809D01*
X49331523Y-31075428D01*
X48950571Y-31075428D01*
X48855333Y-31027809D01*
X48807714Y-30932571D01*
X48807714Y-30742095D01*
X48855333Y-30646857D01*
X48950571Y-30599238D01*
X49045809Y-30599238D01*
X49141047Y-31075428D01*
X49474380Y-30170666D02*
X48807714Y-30170666D01*
X48998190Y-30170666D02*
X48902952Y-30123047D01*
X48855333Y-30075428D01*
X48807714Y-29980190D01*
X48807714Y-29884952D01*
D10*
X26352857Y-26889904D02*
X26352857Y-26089904D01*
X26810000Y-26889904D02*
X26467142Y-26432761D01*
X26810000Y-26089904D02*
X26352857Y-26547047D01*
X27457619Y-26851809D02*
X27381428Y-26889904D01*
X27229047Y-26889904D01*
X27152857Y-26851809D01*
X27114761Y-26775619D01*
X27114761Y-26470857D01*
X27152857Y-26394666D01*
X27229047Y-26356571D01*
X27381428Y-26356571D01*
X27457619Y-26394666D01*
X27495714Y-26470857D01*
X27495714Y-26547047D01*
X27114761Y-26623238D01*
X27762380Y-26356571D02*
X27952857Y-26889904D01*
X28143333Y-26356571D02*
X27952857Y-26889904D01*
X27876666Y-27080380D01*
X27838571Y-27118476D01*
X27762380Y-27156571D01*
X28448095Y-26889904D02*
X28448095Y-26089904D01*
X28448095Y-26394666D02*
X28524285Y-26356571D01*
X28676666Y-26356571D01*
X28752857Y-26394666D01*
X28790952Y-26432761D01*
X28829047Y-26508952D01*
X28829047Y-26737523D01*
X28790952Y-26813714D01*
X28752857Y-26851809D01*
X28676666Y-26889904D01*
X28524285Y-26889904D01*
X28448095Y-26851809D01*
X29286190Y-26889904D02*
X29210000Y-26851809D01*
X29171904Y-26813714D01*
X29133809Y-26737523D01*
X29133809Y-26508952D01*
X29171904Y-26432761D01*
X29210000Y-26394666D01*
X29286190Y-26356571D01*
X29400476Y-26356571D01*
X29476666Y-26394666D01*
X29514761Y-26432761D01*
X29552857Y-26508952D01*
X29552857Y-26737523D01*
X29514761Y-26813714D01*
X29476666Y-26851809D01*
X29400476Y-26889904D01*
X29286190Y-26889904D01*
X30238571Y-26889904D02*
X30238571Y-26470857D01*
X30200476Y-26394666D01*
X30124285Y-26356571D01*
X29971904Y-26356571D01*
X29895714Y-26394666D01*
X30238571Y-26851809D02*
X30162380Y-26889904D01*
X29971904Y-26889904D01*
X29895714Y-26851809D01*
X29857619Y-26775619D01*
X29857619Y-26699428D01*
X29895714Y-26623238D01*
X29971904Y-26585142D01*
X30162380Y-26585142D01*
X30238571Y-26547047D01*
X30619523Y-26889904D02*
X30619523Y-26356571D01*
X30619523Y-26508952D02*
X30657619Y-26432761D01*
X30695714Y-26394666D01*
X30771904Y-26356571D01*
X30848095Y-26356571D01*
X31457619Y-26889904D02*
X31457619Y-26089904D01*
X31457619Y-26851809D02*
X31381428Y-26889904D01*
X31229047Y-26889904D01*
X31152857Y-26851809D01*
X31114761Y-26813714D01*
X31076666Y-26737523D01*
X31076666Y-26508952D01*
X31114761Y-26432761D01*
X31152857Y-26394666D01*
X31229047Y-26356571D01*
X31381428Y-26356571D01*
X31457619Y-26394666D01*
X27400476Y-27351809D02*
X26714761Y-28380380D01*
X28276666Y-28189904D02*
X28276666Y-27389904D01*
X28543333Y-27961333D01*
X28810000Y-27389904D01*
X28810000Y-28189904D01*
X29305238Y-28189904D02*
X29229047Y-28151809D01*
X29190952Y-28113714D01*
X29152857Y-28037523D01*
X29152857Y-27808952D01*
X29190952Y-27732761D01*
X29229047Y-27694666D01*
X29305238Y-27656571D01*
X29419523Y-27656571D01*
X29495714Y-27694666D01*
X29533809Y-27732761D01*
X29571904Y-27808952D01*
X29571904Y-28037523D01*
X29533809Y-28113714D01*
X29495714Y-28151809D01*
X29419523Y-28189904D01*
X29305238Y-28189904D01*
X30257619Y-27656571D02*
X30257619Y-28189904D01*
X29914761Y-27656571D02*
X29914761Y-28075619D01*
X29952857Y-28151809D01*
X30029047Y-28189904D01*
X30143333Y-28189904D01*
X30219523Y-28151809D01*
X30257619Y-28113714D01*
X30600476Y-28151809D02*
X30676666Y-28189904D01*
X30829047Y-28189904D01*
X30905238Y-28151809D01*
X30943333Y-28075619D01*
X30943333Y-28037523D01*
X30905238Y-27961333D01*
X30829047Y-27923238D01*
X30714761Y-27923238D01*
X30638571Y-27885142D01*
X30600476Y-27808952D01*
X30600476Y-27770857D01*
X30638571Y-27694666D01*
X30714761Y-27656571D01*
X30829047Y-27656571D01*
X30905238Y-27694666D01*
X31590952Y-28151809D02*
X31514761Y-28189904D01*
X31362380Y-28189904D01*
X31286190Y-28151809D01*
X31248095Y-28075619D01*
X31248095Y-27770857D01*
X31286190Y-27694666D01*
X31362380Y-27656571D01*
X31514761Y-27656571D01*
X31590952Y-27694666D01*
X31629047Y-27770857D01*
X31629047Y-27847047D01*
X31248095Y-27923238D01*
D12*
X49442666Y-71333809D02*
X49442666Y-70857619D01*
X49728380Y-71429047D02*
X48728380Y-71095714D01*
X49728380Y-70762380D01*
X49728380Y-70429047D02*
X48728380Y-70429047D01*
X48728380Y-70190952D01*
X48776000Y-70048095D01*
X48871238Y-69952857D01*
X48966476Y-69905238D01*
X49156952Y-69857619D01*
X49299809Y-69857619D01*
X49490285Y-69905238D01*
X49585523Y-69952857D01*
X49680761Y-70048095D01*
X49728380Y-70190952D01*
X49728380Y-70429047D01*
X49204571Y-69095714D02*
X49252190Y-68952857D01*
X49299809Y-68905238D01*
X49395047Y-68857619D01*
X49537904Y-68857619D01*
X49633142Y-68905238D01*
X49680761Y-68952857D01*
X49728380Y-69048095D01*
X49728380Y-69429047D01*
X48728380Y-69429047D01*
X48728380Y-69095714D01*
X48776000Y-69000476D01*
X48823619Y-68952857D01*
X48918857Y-68905238D01*
X49014095Y-68905238D01*
X49109333Y-68952857D01*
X49156952Y-69000476D01*
X49204571Y-69095714D01*
X49204571Y-69429047D01*
X49728380Y-67667142D02*
X48728380Y-67667142D01*
X48728380Y-67286190D01*
X48776000Y-67190952D01*
X48823619Y-67143333D01*
X48918857Y-67095714D01*
X49061714Y-67095714D01*
X49156952Y-67143333D01*
X49204571Y-67190952D01*
X49252190Y-67286190D01*
X49252190Y-67667142D01*
X49728380Y-66524285D02*
X49680761Y-66619523D01*
X49633142Y-66667142D01*
X49537904Y-66714761D01*
X49252190Y-66714761D01*
X49156952Y-66667142D01*
X49109333Y-66619523D01*
X49061714Y-66524285D01*
X49061714Y-66381428D01*
X49109333Y-66286190D01*
X49156952Y-66238571D01*
X49252190Y-66190952D01*
X49537904Y-66190952D01*
X49633142Y-66238571D01*
X49680761Y-66286190D01*
X49728380Y-66381428D01*
X49728380Y-66524285D01*
X49728380Y-65762380D02*
X49061714Y-65762380D01*
X49252190Y-65762380D02*
X49156952Y-65714761D01*
X49109333Y-65667142D01*
X49061714Y-65571904D01*
X49061714Y-65476666D01*
X49061714Y-65286190D02*
X49061714Y-64905238D01*
X48728380Y-65143333D02*
X49585523Y-65143333D01*
X49680761Y-65095714D01*
X49728380Y-65000476D01*
X49728380Y-64905238D01*
X48823619Y-63857619D02*
X48776000Y-63810000D01*
X48728380Y-63714761D01*
X48728380Y-63476666D01*
X48776000Y-63381428D01*
X48823619Y-63333809D01*
X48918857Y-63286190D01*
X49014095Y-63286190D01*
X49156952Y-63333809D01*
X49728380Y-63905238D01*
X49728380Y-63286190D01*
X26074666Y-71333809D02*
X26074666Y-70857619D01*
X26360380Y-71429047D02*
X25360380Y-71095714D01*
X26360380Y-70762380D01*
X26360380Y-70429047D02*
X25360380Y-70429047D01*
X25360380Y-70190952D01*
X25408000Y-70048095D01*
X25503238Y-69952857D01*
X25598476Y-69905238D01*
X25788952Y-69857619D01*
X25931809Y-69857619D01*
X26122285Y-69905238D01*
X26217523Y-69952857D01*
X26312761Y-70048095D01*
X26360380Y-70190952D01*
X26360380Y-70429047D01*
X25836571Y-69095714D02*
X25884190Y-68952857D01*
X25931809Y-68905238D01*
X26027047Y-68857619D01*
X26169904Y-68857619D01*
X26265142Y-68905238D01*
X26312761Y-68952857D01*
X26360380Y-69048095D01*
X26360380Y-69429047D01*
X25360380Y-69429047D01*
X25360380Y-69095714D01*
X25408000Y-69000476D01*
X25455619Y-68952857D01*
X25550857Y-68905238D01*
X25646095Y-68905238D01*
X25741333Y-68952857D01*
X25788952Y-69000476D01*
X25836571Y-69095714D01*
X25836571Y-69429047D01*
X26360380Y-67667142D02*
X25360380Y-67667142D01*
X25360380Y-67286190D01*
X25408000Y-67190952D01*
X25455619Y-67143333D01*
X25550857Y-67095714D01*
X25693714Y-67095714D01*
X25788952Y-67143333D01*
X25836571Y-67190952D01*
X25884190Y-67286190D01*
X25884190Y-67667142D01*
X26360380Y-66524285D02*
X26312761Y-66619523D01*
X26265142Y-66667142D01*
X26169904Y-66714761D01*
X25884190Y-66714761D01*
X25788952Y-66667142D01*
X25741333Y-66619523D01*
X25693714Y-66524285D01*
X25693714Y-66381428D01*
X25741333Y-66286190D01*
X25788952Y-66238571D01*
X25884190Y-66190952D01*
X26169904Y-66190952D01*
X26265142Y-66238571D01*
X26312761Y-66286190D01*
X26360380Y-66381428D01*
X26360380Y-66524285D01*
X26360380Y-65762380D02*
X25693714Y-65762380D01*
X25884190Y-65762380D02*
X25788952Y-65714761D01*
X25741333Y-65667142D01*
X25693714Y-65571904D01*
X25693714Y-65476666D01*
X25693714Y-65286190D02*
X25693714Y-64905238D01*
X25360380Y-65143333D02*
X26217523Y-65143333D01*
X26312761Y-65095714D01*
X26360380Y-65000476D01*
X26360380Y-64905238D01*
X26360380Y-63286190D02*
X26360380Y-63857619D01*
X26360380Y-63571904D02*
X25360380Y-63571904D01*
X25503238Y-63667142D01*
X25598476Y-63762380D01*
X25646095Y-63857619D01*
D13*
%TO.C,IC1*%
X40132000Y-50040559D02*
X37091441Y-47000000D01*
X37091441Y-47000000D02*
X40132000Y-43959441D01*
X40132000Y-43959441D02*
X43172559Y-47000000D01*
X43172559Y-47000000D02*
X40132000Y-50040559D01*
D14*
X41123206Y-51401740D02*
G75*
G03*
X41123206Y-51401740I-125000J0D01*
G01*
D11*
%TO.C,C13*%
X46080000Y-50145836D02*
X46080000Y-49930164D01*
X45360000Y-50145836D02*
X45360000Y-49930164D01*
%TO.C,Y2*%
X30154000Y-44350000D02*
X30154000Y-49650000D01*
X33854000Y-44350000D02*
X30154000Y-44350000D01*
%TO.C,R16*%
X48132000Y-42063641D02*
X48132000Y-41756359D01*
X47372000Y-42063641D02*
X47372000Y-41756359D01*
%TO.C,R15*%
X44686999Y-42063641D02*
X44686999Y-41756359D01*
X43926999Y-42063641D02*
X43926999Y-41756359D01*
%TO.C,R14*%
X43052000Y-42063641D02*
X43052000Y-41756359D01*
X42292000Y-42063641D02*
X42292000Y-41756359D01*
%TO.C,R13*%
X46321998Y-42063641D02*
X46321998Y-41756359D01*
X45561998Y-42063641D02*
X45561998Y-41756359D01*
%TO.C,R12*%
X25731200Y-53884801D02*
X25731200Y-53577519D01*
X26491200Y-53884801D02*
X26491200Y-53577519D01*
%TO.C,R11*%
X28591240Y-71377241D02*
X28591240Y-71069959D01*
X29351240Y-71377241D02*
X29351240Y-71069959D01*
%TO.C,R10*%
X33908000Y-71067959D02*
X33908000Y-71375241D01*
X33148000Y-71067959D02*
X33148000Y-71375241D01*
%TO.C,R9*%
X41103280Y-71377241D02*
X41103280Y-71069959D01*
X41863280Y-71377241D02*
X41863280Y-71069959D01*
%TO.C,R8*%
X46414960Y-71064879D02*
X46414960Y-71372161D01*
X45654960Y-71064879D02*
X45654960Y-71372161D01*
%TO.C,R7*%
X40031641Y-32384000D02*
X39724359Y-32384000D01*
X40031641Y-31624000D02*
X39724359Y-31624000D01*
%TO.C,R6*%
X39722359Y-34164000D02*
X40029641Y-34164000D01*
X39722359Y-34924000D02*
X40029641Y-34924000D01*
%TO.C,R5*%
X30418281Y-41548320D02*
X30110999Y-41548320D01*
X30418281Y-40788320D02*
X30110999Y-40788320D01*
%TO.C,R4*%
X30413201Y-42559240D02*
X30105919Y-42559240D01*
X30413201Y-41799240D02*
X30105919Y-41799240D01*
%TO.C,R3*%
X37972000Y-41502359D02*
X37972000Y-41809641D01*
X37212000Y-41502359D02*
X37212000Y-41809641D01*
%TO.C,R2*%
X43749960Y-68862641D02*
X43749960Y-68555359D01*
X44509960Y-68862641D02*
X44509960Y-68555359D01*
%TO.C,R1*%
X43839641Y-53466000D02*
X43532359Y-53466000D01*
X43839641Y-52706000D02*
X43532359Y-52706000D01*
%TO.C,C16*%
X32366239Y-67860096D02*
X32213736Y-68012599D01*
X31857122Y-67350979D02*
X31704619Y-67503482D01*
%TO.C,C15*%
X42596307Y-60121190D02*
X42748810Y-60273693D01*
X42087190Y-60630307D02*
X42239693Y-60782810D01*
%TO.C,C14*%
X41072307Y-58597190D02*
X41224810Y-58749693D01*
X40563190Y-59106307D02*
X40715693Y-59258810D01*
%TO.C,C12*%
X35413836Y-43794000D02*
X35198164Y-43794000D01*
X35413836Y-43074000D02*
X35198164Y-43074000D01*
%TO.C,C11*%
X31896164Y-43074000D02*
X32111836Y-43074000D01*
X31896164Y-43794000D02*
X32111836Y-43794000D01*
%TO.C,C10*%
X32111836Y-50906000D02*
X31896164Y-50906000D01*
X32111836Y-50186000D02*
X31896164Y-50186000D01*
%TO.C,C9*%
X35636810Y-45136307D02*
X35484307Y-45288810D01*
X35127693Y-44627190D02*
X34975190Y-44779693D01*
%TO.C,C8*%
X42595190Y-50875693D02*
X42747693Y-50723190D01*
X43104307Y-51384810D02*
X43256810Y-51232307D01*
%TO.C,C7*%
X39772000Y-54717836D02*
X39772000Y-54502164D01*
X40492000Y-54717836D02*
X40492000Y-54502164D01*
%TO.C,C6*%
X45826000Y-54502164D02*
X45826000Y-54717836D01*
X45106000Y-54502164D02*
X45106000Y-54717836D01*
%TO.C,C5*%
X43769960Y-66683836D02*
X43769960Y-66468164D01*
X44489960Y-66683836D02*
X44489960Y-66468164D01*
%TO.C,C4*%
X30880164Y-38502000D02*
X31095836Y-38502000D01*
X30880164Y-39222000D02*
X31095836Y-39222000D01*
%TO.C,C3*%
X29063836Y-39222000D02*
X28848164Y-39222000D01*
X29063836Y-38502000D02*
X28848164Y-38502000D01*
%TO.C,C2*%
X33056170Y-68555107D02*
X32903667Y-68707610D01*
X32547053Y-68045990D02*
X32394550Y-68198493D01*
%TO.C,C1*%
X34650000Y-36976164D02*
X34650000Y-37191836D01*
X33930000Y-36976164D02*
X33930000Y-37191836D01*
%TO.C,TP13*%
X31772666Y-56896000D02*
G75*
G03*
X31772666Y-56896000I-700000J0D01*
G01*
%TO.C,TP12*%
X48960000Y-71120000D02*
G75*
G03*
X48960000Y-71120000I-700000J0D01*
G01*
%TO.C,TP11*%
X47944000Y-63500000D02*
G75*
G03*
X47944000Y-63500000I-700000J0D01*
G01*
%TO.C,D3*%
X27071200Y-51823100D02*
X27071200Y-49138100D01*
X27071200Y-49138100D02*
X25151200Y-49138100D01*
X25151200Y-49138100D02*
X25151200Y-51823100D01*
%TO.C,D2*%
X27071200Y-44180000D02*
X27071200Y-41495000D01*
X27071200Y-41495000D02*
X25151200Y-41495000D01*
X25151200Y-41495000D02*
X25151200Y-44180000D01*
%TO.C,D1*%
X27071200Y-48001550D02*
X27071200Y-45316550D01*
X27071200Y-45316550D02*
X25151200Y-45316550D01*
X25151200Y-45316550D02*
X25151200Y-48001550D01*
%TO.C,JP6*%
X42148000Y-38558000D02*
X42148000Y-39958000D01*
X41448000Y-40658000D02*
X40848000Y-40658000D01*
X40148000Y-39958000D02*
X40148000Y-38558000D01*
X40848000Y-37858000D02*
X41448000Y-37858000D01*
X41448000Y-37858000D02*
G75*
G02*
X42148000Y-38558000I0J-700000D01*
G01*
X40148000Y-38558000D02*
G75*
G02*
X40848000Y-37858000I700000J0D01*
G01*
X40848000Y-40658000D02*
G75*
G02*
X40148000Y-39958000I0J700000D01*
G01*
X42148000Y-39958000D02*
G75*
G02*
X41448000Y-40658000I-700000J0D01*
G01*
%TO.C,JP5*%
X47228000Y-38558000D02*
X47228000Y-39958000D01*
X46528000Y-40658000D02*
X45928000Y-40658000D01*
X45228000Y-39958000D02*
X45228000Y-38558000D01*
X45928000Y-37858000D02*
X46528000Y-37858000D01*
X46528000Y-37858000D02*
G75*
G02*
X47228000Y-38558000I0J-700000D01*
G01*
X45228000Y-38558000D02*
G75*
G02*
X45928000Y-37858000I700000J0D01*
G01*
X45928000Y-40658000D02*
G75*
G02*
X45228000Y-39958000I0J700000D01*
G01*
X47228000Y-39958000D02*
G75*
G02*
X46528000Y-40658000I-700000J0D01*
G01*
%TO.C,JP4*%
X49768000Y-38558000D02*
X49768000Y-39958000D01*
X49068000Y-40658000D02*
X48468000Y-40658000D01*
X47768000Y-39958000D02*
X47768000Y-38558000D01*
X48468000Y-37858000D02*
X49068000Y-37858000D01*
X49068000Y-37858000D02*
G75*
G02*
X49768000Y-38558000I0J-700000D01*
G01*
X47768000Y-38558000D02*
G75*
G02*
X48468000Y-37858000I700000J0D01*
G01*
X48468000Y-40658000D02*
G75*
G02*
X47768000Y-39958000I0J700000D01*
G01*
X49768000Y-39958000D02*
G75*
G02*
X49068000Y-40658000I-700000J0D01*
G01*
%TO.C,JP3*%
X44688000Y-38558000D02*
X44688000Y-39958000D01*
X43988000Y-40658000D02*
X43388000Y-40658000D01*
X42688000Y-39958000D02*
X42688000Y-38558000D01*
X43388000Y-37858000D02*
X43988000Y-37858000D01*
X43988000Y-37858000D02*
G75*
G02*
X44688000Y-38558000I0J-700000D01*
G01*
X42688000Y-38558000D02*
G75*
G02*
X43388000Y-37858000I700000J0D01*
G01*
X43388000Y-40658000D02*
G75*
G02*
X42688000Y-39958000I0J700000D01*
G01*
X44688000Y-39958000D02*
G75*
G02*
X43988000Y-40658000I-700000J0D01*
G01*
%TO.C,J1*%
X46670000Y-43670000D02*
X48000000Y-43670000D01*
X46670000Y-45000000D02*
X46670000Y-43670000D01*
X46670000Y-46270000D02*
X49330000Y-46270000D01*
X49330000Y-46270000D02*
X49330000Y-59030000D01*
X46670000Y-46270000D02*
X46670000Y-59030000D01*
X46670000Y-59030000D02*
X49330000Y-59030000D01*
%TO.C,F1*%
X34088000Y-33636969D02*
X34088000Y-33927031D01*
X35508000Y-33636969D02*
X35508000Y-33927031D01*
%TO.C,Y1*%
X40842000Y-56934000D02*
X44842000Y-56934000D01*
X40842000Y-53634000D02*
X40842000Y-56934000D01*
%TO.C,TP17*%
X33889332Y-56896000D02*
G75*
G03*
X33889332Y-56896000I-700000J0D01*
G01*
%TO.C,TP16*%
X36006000Y-56896000D02*
G75*
G03*
X36006000Y-56896000I-700000J0D01*
G01*
%TO.C,TP15*%
X44896000Y-59690000D02*
G75*
G03*
X44896000Y-59690000I-700000J0D01*
G01*
%TO.C,TP4*%
X29656000Y-56896000D02*
G75*
G03*
X29656000Y-56896000I-700000J0D01*
G01*
%TO.C,Q2*%
X32830000Y-71240000D02*
X32830000Y-72700000D01*
X29670000Y-71240000D02*
X29670000Y-73400000D01*
X29670000Y-71240000D02*
X30600000Y-71240000D01*
X32830000Y-71240000D02*
X31900000Y-71240000D01*
%TO.C,Q1*%
X45340000Y-71240000D02*
X45340000Y-72700000D01*
X42180000Y-71240000D02*
X42180000Y-73400000D01*
X42180000Y-71240000D02*
X43110000Y-71240000D01*
X45340000Y-71240000D02*
X44410000Y-71240000D01*
%TO.C,U1*%
X33382000Y-31824000D02*
X32122000Y-31824000D01*
X26562000Y-31824000D02*
X27822000Y-31824000D01*
X33382000Y-35584000D02*
X33382000Y-31824000D01*
X26562000Y-37834000D02*
X26562000Y-31824000D01*
D12*
%TO.C,U2*%
X42626524Y-64000000D02*
X42467425Y-63840901D01*
X37500000Y-69126524D02*
X37270190Y-68896714D01*
X32373476Y-64000000D02*
X32603286Y-64229810D01*
X37500000Y-58873476D02*
X37729810Y-59103286D01*
X42626524Y-64000000D02*
X42396714Y-64229810D01*
X37500000Y-58873476D02*
X37270190Y-59103286D01*
X32373476Y-64000000D02*
X32603286Y-63770190D01*
X37500000Y-69126524D02*
X37729810Y-68896714D01*
X42467425Y-63840901D02*
X43475052Y-62833274D01*
%TO.C,IC1*%
D15*
X38849106Y-46529605D02*
X39747131Y-45631580D01*
X39875421Y-47384868D02*
X39789895Y-47384868D01*
X39618842Y-47299341D01*
X39533316Y-47213815D01*
X39447790Y-47042763D01*
X39447790Y-46871710D01*
X39490553Y-46743421D01*
X39618842Y-46529605D01*
X39747131Y-46401316D01*
X39960947Y-46273026D01*
X40089236Y-46230263D01*
X40260289Y-46230263D01*
X40431341Y-46315790D01*
X40516868Y-46401316D01*
X40602394Y-46572368D01*
X40602394Y-46657895D01*
X40645157Y-48325656D02*
X40132000Y-47812499D01*
X40388578Y-48069078D02*
X41286604Y-47171052D01*
X41072788Y-47213815D01*
X40901736Y-47213815D01*
X40773446Y-47171052D01*
%TO.C,C13*%
D10*
X44989714Y-50552285D02*
X45027809Y-50590380D01*
X45065904Y-50704666D01*
X45065904Y-50780857D01*
X45027809Y-50895142D01*
X44951619Y-50971333D01*
X44875428Y-51009428D01*
X44723047Y-51047523D01*
X44608761Y-51047523D01*
X44456380Y-51009428D01*
X44380190Y-50971333D01*
X44304000Y-50895142D01*
X44265904Y-50780857D01*
X44265904Y-50704666D01*
X44304000Y-50590380D01*
X44342095Y-50552285D01*
X45065904Y-49790380D02*
X45065904Y-50247523D01*
X45065904Y-50018952D02*
X44265904Y-50018952D01*
X44380190Y-50095142D01*
X44456380Y-50171333D01*
X44494476Y-50247523D01*
X44265904Y-49523714D02*
X44265904Y-49028476D01*
X44570666Y-49295142D01*
X44570666Y-49180857D01*
X44608761Y-49104666D01*
X44646857Y-49066571D01*
X44723047Y-49028476D01*
X44913523Y-49028476D01*
X44989714Y-49066571D01*
X45027809Y-49104666D01*
X45065904Y-49180857D01*
X45065904Y-49409428D01*
X45027809Y-49485619D01*
X44989714Y-49523714D01*
%TO.C,Y2*%
X34163047Y-49510952D02*
X34163047Y-49891904D01*
X33896380Y-49091904D02*
X34163047Y-49510952D01*
X34429714Y-49091904D01*
X34658285Y-49168095D02*
X34696380Y-49130000D01*
X34772571Y-49091904D01*
X34963047Y-49091904D01*
X35039238Y-49130000D01*
X35077333Y-49168095D01*
X35115428Y-49244285D01*
X35115428Y-49320476D01*
X35077333Y-49434761D01*
X34620190Y-49891904D01*
X35115428Y-49891904D01*
%TO.C,R12*%
X26523904Y-56648285D02*
X26142952Y-56914952D01*
X26523904Y-57105428D02*
X25723904Y-57105428D01*
X25723904Y-56800666D01*
X25762000Y-56724476D01*
X25800095Y-56686380D01*
X25876285Y-56648285D01*
X25990571Y-56648285D01*
X26066761Y-56686380D01*
X26104857Y-56724476D01*
X26142952Y-56800666D01*
X26142952Y-57105428D01*
X26523904Y-55886380D02*
X26523904Y-56343523D01*
X26523904Y-56114952D02*
X25723904Y-56114952D01*
X25838190Y-56191142D01*
X25914380Y-56267333D01*
X25952476Y-56343523D01*
X25800095Y-55581619D02*
X25762000Y-55543523D01*
X25723904Y-55467333D01*
X25723904Y-55276857D01*
X25762000Y-55200666D01*
X25800095Y-55162571D01*
X25876285Y-55124476D01*
X25952476Y-55124476D01*
X26066761Y-55162571D01*
X26523904Y-55619714D01*
X26523904Y-55124476D01*
%TO.C,R11*%
X28163144Y-71737885D02*
X27782192Y-72004552D01*
X28163144Y-72195028D02*
X27363144Y-72195028D01*
X27363144Y-71890266D01*
X27401240Y-71814076D01*
X27439335Y-71775980D01*
X27515525Y-71737885D01*
X27629811Y-71737885D01*
X27706001Y-71775980D01*
X27744097Y-71814076D01*
X27782192Y-71890266D01*
X27782192Y-72195028D01*
X28163144Y-70975980D02*
X28163144Y-71433123D01*
X28163144Y-71204552D02*
X27363144Y-71204552D01*
X27477430Y-71280742D01*
X27553620Y-71356933D01*
X27591716Y-71433123D01*
X28163144Y-70214076D02*
X28163144Y-70671219D01*
X28163144Y-70442647D02*
X27363144Y-70442647D01*
X27477430Y-70518838D01*
X27553620Y-70595028D01*
X27591716Y-70671219D01*
%TO.C,R10*%
X33889904Y-73920285D02*
X33508952Y-74186952D01*
X33889904Y-74377428D02*
X33089904Y-74377428D01*
X33089904Y-74072666D01*
X33128000Y-73996476D01*
X33166095Y-73958380D01*
X33242285Y-73920285D01*
X33356571Y-73920285D01*
X33432761Y-73958380D01*
X33470857Y-73996476D01*
X33508952Y-74072666D01*
X33508952Y-74377428D01*
X33889904Y-73158380D02*
X33889904Y-73615523D01*
X33889904Y-73386952D02*
X33089904Y-73386952D01*
X33204190Y-73463142D01*
X33280380Y-73539333D01*
X33318476Y-73615523D01*
X33089904Y-72663142D02*
X33089904Y-72586952D01*
X33128000Y-72510761D01*
X33166095Y-72472666D01*
X33242285Y-72434571D01*
X33394666Y-72396476D01*
X33585142Y-72396476D01*
X33737523Y-72434571D01*
X33813714Y-72472666D01*
X33851809Y-72510761D01*
X33889904Y-72586952D01*
X33889904Y-72663142D01*
X33851809Y-72739333D01*
X33813714Y-72777428D01*
X33737523Y-72815523D01*
X33585142Y-72853619D01*
X33394666Y-72853619D01*
X33242285Y-72815523D01*
X33166095Y-72777428D01*
X33128000Y-72739333D01*
X33089904Y-72663142D01*
%TO.C,R9*%
X41001904Y-71356933D02*
X40620952Y-71623600D01*
X41001904Y-71814076D02*
X40201904Y-71814076D01*
X40201904Y-71509314D01*
X40240000Y-71433123D01*
X40278095Y-71395028D01*
X40354285Y-71356933D01*
X40468571Y-71356933D01*
X40544761Y-71395028D01*
X40582857Y-71433123D01*
X40620952Y-71509314D01*
X40620952Y-71814076D01*
X41001904Y-70975980D02*
X41001904Y-70823600D01*
X40963809Y-70747409D01*
X40925714Y-70709314D01*
X40811428Y-70633123D01*
X40659047Y-70595028D01*
X40354285Y-70595028D01*
X40278095Y-70633123D01*
X40240000Y-70671219D01*
X40201904Y-70747409D01*
X40201904Y-70899790D01*
X40240000Y-70975980D01*
X40278095Y-71014076D01*
X40354285Y-71052171D01*
X40544761Y-71052171D01*
X40620952Y-71014076D01*
X40659047Y-70975980D01*
X40697142Y-70899790D01*
X40697142Y-70747409D01*
X40659047Y-70671219D01*
X40620952Y-70633123D01*
X40544761Y-70595028D01*
%TO.C,R8*%
X47351904Y-71351853D02*
X46970952Y-71618520D01*
X47351904Y-71808996D02*
X46551904Y-71808996D01*
X46551904Y-71504234D01*
X46590000Y-71428043D01*
X46628095Y-71389948D01*
X46704285Y-71351853D01*
X46818571Y-71351853D01*
X46894761Y-71389948D01*
X46932857Y-71428043D01*
X46970952Y-71504234D01*
X46970952Y-71808996D01*
X46894761Y-70894710D02*
X46856666Y-70970900D01*
X46818571Y-71008996D01*
X46742380Y-71047091D01*
X46704285Y-71047091D01*
X46628095Y-71008996D01*
X46590000Y-70970900D01*
X46551904Y-70894710D01*
X46551904Y-70742329D01*
X46590000Y-70666139D01*
X46628095Y-70628043D01*
X46704285Y-70589948D01*
X46742380Y-70589948D01*
X46818571Y-70628043D01*
X46856666Y-70666139D01*
X46894761Y-70742329D01*
X46894761Y-70894710D01*
X46932857Y-70970900D01*
X46970952Y-71008996D01*
X47047142Y-71047091D01*
X47199523Y-71047091D01*
X47275714Y-71008996D01*
X47313809Y-70970900D01*
X47351904Y-70894710D01*
X47351904Y-70742329D01*
X47313809Y-70666139D01*
X47275714Y-70628043D01*
X47199523Y-70589948D01*
X47047142Y-70589948D01*
X46970952Y-70628043D01*
X46932857Y-70666139D01*
X46894761Y-70742329D01*
%TO.C,R7*%
X39744666Y-31095904D02*
X39478000Y-30714952D01*
X39287523Y-31095904D02*
X39287523Y-30295904D01*
X39592285Y-30295904D01*
X39668476Y-30334000D01*
X39706571Y-30372095D01*
X39744666Y-30448285D01*
X39744666Y-30562571D01*
X39706571Y-30638761D01*
X39668476Y-30676857D01*
X39592285Y-30714952D01*
X39287523Y-30714952D01*
X40011333Y-30295904D02*
X40544666Y-30295904D01*
X40201809Y-31095904D01*
%TO.C,R6*%
X39742666Y-33735904D02*
X39476000Y-33354952D01*
X39285523Y-33735904D02*
X39285523Y-32935904D01*
X39590285Y-32935904D01*
X39666476Y-32974000D01*
X39704571Y-33012095D01*
X39742666Y-33088285D01*
X39742666Y-33202571D01*
X39704571Y-33278761D01*
X39666476Y-33316857D01*
X39590285Y-33354952D01*
X39285523Y-33354952D01*
X40428380Y-32935904D02*
X40276000Y-32935904D01*
X40199809Y-32974000D01*
X40161714Y-33012095D01*
X40085523Y-33126380D01*
X40047428Y-33278761D01*
X40047428Y-33583523D01*
X40085523Y-33659714D01*
X40123619Y-33697809D01*
X40199809Y-33735904D01*
X40352190Y-33735904D01*
X40428380Y-33697809D01*
X40466476Y-33659714D01*
X40504571Y-33583523D01*
X40504571Y-33393047D01*
X40466476Y-33316857D01*
X40428380Y-33278761D01*
X40352190Y-33240666D01*
X40199809Y-33240666D01*
X40123619Y-33278761D01*
X40085523Y-33316857D01*
X40047428Y-33393047D01*
%TO.C,R5*%
X29317904Y-41281333D02*
X28936952Y-41548000D01*
X29317904Y-41738476D02*
X28517904Y-41738476D01*
X28517904Y-41433714D01*
X28556000Y-41357523D01*
X28594095Y-41319428D01*
X28670285Y-41281333D01*
X28784571Y-41281333D01*
X28860761Y-41319428D01*
X28898857Y-41357523D01*
X28936952Y-41433714D01*
X28936952Y-41738476D01*
X28517904Y-40557523D02*
X28517904Y-40938476D01*
X28898857Y-40976571D01*
X28860761Y-40938476D01*
X28822666Y-40862285D01*
X28822666Y-40671809D01*
X28860761Y-40595619D01*
X28898857Y-40557523D01*
X28975047Y-40519428D01*
X29165523Y-40519428D01*
X29241714Y-40557523D01*
X29279809Y-40595619D01*
X29317904Y-40671809D01*
X29317904Y-40862285D01*
X29279809Y-40938476D01*
X29241714Y-40976571D01*
%TO.C,R4*%
X29317904Y-42805333D02*
X28936952Y-43072000D01*
X29317904Y-43262476D02*
X28517904Y-43262476D01*
X28517904Y-42957714D01*
X28556000Y-42881523D01*
X28594095Y-42843428D01*
X28670285Y-42805333D01*
X28784571Y-42805333D01*
X28860761Y-42843428D01*
X28898857Y-42881523D01*
X28936952Y-42957714D01*
X28936952Y-43262476D01*
X28784571Y-42119619D02*
X29317904Y-42119619D01*
X28479809Y-42310095D02*
X29051238Y-42500571D01*
X29051238Y-42005333D01*
%TO.C,R3*%
X37953904Y-40011333D02*
X37572952Y-40278000D01*
X37953904Y-40468476D02*
X37153904Y-40468476D01*
X37153904Y-40163714D01*
X37192000Y-40087523D01*
X37230095Y-40049428D01*
X37306285Y-40011333D01*
X37420571Y-40011333D01*
X37496761Y-40049428D01*
X37534857Y-40087523D01*
X37572952Y-40163714D01*
X37572952Y-40468476D01*
X37153904Y-39744666D02*
X37153904Y-39249428D01*
X37458666Y-39516095D01*
X37458666Y-39401809D01*
X37496761Y-39325619D01*
X37534857Y-39287523D01*
X37611047Y-39249428D01*
X37801523Y-39249428D01*
X37877714Y-39287523D01*
X37915809Y-39325619D01*
X37953904Y-39401809D01*
X37953904Y-39630380D01*
X37915809Y-39706571D01*
X37877714Y-39744666D01*
%TO.C,R2*%
X43541904Y-68967333D02*
X43160952Y-69234000D01*
X43541904Y-69424476D02*
X42741904Y-69424476D01*
X42741904Y-69119714D01*
X42780000Y-69043523D01*
X42818095Y-69005428D01*
X42894285Y-68967333D01*
X43008571Y-68967333D01*
X43084761Y-69005428D01*
X43122857Y-69043523D01*
X43160952Y-69119714D01*
X43160952Y-69424476D01*
X42818095Y-68662571D02*
X42780000Y-68624476D01*
X42741904Y-68548285D01*
X42741904Y-68357809D01*
X42780000Y-68281619D01*
X42818095Y-68243523D01*
X42894285Y-68205428D01*
X42970476Y-68205428D01*
X43084761Y-68243523D01*
X43541904Y-68700666D01*
X43541904Y-68205428D01*
%TO.C,R1*%
X41776666Y-53447904D02*
X41510000Y-53066952D01*
X41319523Y-53447904D02*
X41319523Y-52647904D01*
X41624285Y-52647904D01*
X41700476Y-52686000D01*
X41738571Y-52724095D01*
X41776666Y-52800285D01*
X41776666Y-52914571D01*
X41738571Y-52990761D01*
X41700476Y-53028857D01*
X41624285Y-53066952D01*
X41319523Y-53066952D01*
X42538571Y-53447904D02*
X42081428Y-53447904D01*
X42310000Y-53447904D02*
X42310000Y-52647904D01*
X42233809Y-52762190D01*
X42157619Y-52838380D01*
X42081428Y-52876476D01*
%TO.C,C16*%
X30572375Y-68383685D02*
X30572375Y-68437560D01*
X30518500Y-68545309D01*
X30464625Y-68599184D01*
X30356876Y-68653059D01*
X30249126Y-68653059D01*
X30168314Y-68626122D01*
X30033627Y-68545309D01*
X29952815Y-68464497D01*
X29872003Y-68329810D01*
X29845065Y-68248998D01*
X29845065Y-68141248D01*
X29898940Y-68033499D01*
X29952815Y-67979624D01*
X30060564Y-67925749D01*
X30114439Y-67925749D01*
X31164998Y-67898812D02*
X30841749Y-68222061D01*
X31003374Y-68060436D02*
X30437688Y-67494751D01*
X30464625Y-67629438D01*
X30464625Y-67737187D01*
X30437688Y-67818000D01*
X31084186Y-66848253D02*
X30976436Y-66956003D01*
X30949499Y-67036815D01*
X30949499Y-67090690D01*
X30976436Y-67225377D01*
X31057248Y-67360064D01*
X31272748Y-67575563D01*
X31353560Y-67602500D01*
X31407435Y-67602500D01*
X31488247Y-67575563D01*
X31595996Y-67467813D01*
X31622934Y-67387001D01*
X31622934Y-67333126D01*
X31595996Y-67252314D01*
X31461309Y-67117627D01*
X31380497Y-67090690D01*
X31326622Y-67090690D01*
X31245810Y-67117627D01*
X31138061Y-67225377D01*
X31111123Y-67306189D01*
X31111123Y-67360064D01*
X31138061Y-67440876D01*
%TO.C,C15*%
X42614314Y-59782375D02*
X42560439Y-59782375D01*
X42452690Y-59728500D01*
X42398815Y-59674625D01*
X42344940Y-59566876D01*
X42344940Y-59459126D01*
X42371877Y-59378314D01*
X42452690Y-59243627D01*
X42533502Y-59162815D01*
X42668189Y-59082003D01*
X42749001Y-59055065D01*
X42856751Y-59055065D01*
X42964500Y-59108940D01*
X43018375Y-59162815D01*
X43072250Y-59270564D01*
X43072250Y-59324439D01*
X43099187Y-60374998D02*
X42775938Y-60051749D01*
X42937563Y-60213374D02*
X43503248Y-59647688D01*
X43368561Y-59674625D01*
X43260812Y-59674625D01*
X43180000Y-59647688D01*
X44176683Y-60321123D02*
X43907309Y-60051749D01*
X43610998Y-60294186D01*
X43664873Y-60294186D01*
X43745685Y-60321123D01*
X43880372Y-60455810D01*
X43907309Y-60536622D01*
X43907309Y-60590497D01*
X43880372Y-60671309D01*
X43745685Y-60805996D01*
X43664873Y-60832934D01*
X43610998Y-60832934D01*
X43530186Y-60805996D01*
X43395499Y-60671309D01*
X43368561Y-60590497D01*
X43368561Y-60536622D01*
%TO.C,C14*%
X40836314Y-58004375D02*
X40782439Y-58004375D01*
X40674690Y-57950500D01*
X40620815Y-57896625D01*
X40566940Y-57788876D01*
X40566940Y-57681126D01*
X40593877Y-57600314D01*
X40674690Y-57465627D01*
X40755502Y-57384815D01*
X40890189Y-57304003D01*
X40971001Y-57277065D01*
X41078751Y-57277065D01*
X41186500Y-57330940D01*
X41240375Y-57384815D01*
X41294250Y-57492564D01*
X41294250Y-57546439D01*
X41321187Y-58596998D02*
X40997938Y-58273749D01*
X41159563Y-58435374D02*
X41725248Y-57869688D01*
X41590561Y-57896625D01*
X41482812Y-57896625D01*
X41402000Y-57869688D01*
X42183184Y-58704748D02*
X41806061Y-59081871D01*
X42263996Y-58354561D02*
X41725248Y-58623935D01*
X42075435Y-58974122D01*
%TO.C,C12*%
X34791714Y-42703714D02*
X34753619Y-42741809D01*
X34639333Y-42779904D01*
X34563142Y-42779904D01*
X34448857Y-42741809D01*
X34372666Y-42665619D01*
X34334571Y-42589428D01*
X34296476Y-42437047D01*
X34296476Y-42322761D01*
X34334571Y-42170380D01*
X34372666Y-42094190D01*
X34448857Y-42018000D01*
X34563142Y-41979904D01*
X34639333Y-41979904D01*
X34753619Y-42018000D01*
X34791714Y-42056095D01*
X35553619Y-42779904D02*
X35096476Y-42779904D01*
X35325047Y-42779904D02*
X35325047Y-41979904D01*
X35248857Y-42094190D01*
X35172666Y-42170380D01*
X35096476Y-42208476D01*
X35858380Y-42056095D02*
X35896476Y-42018000D01*
X35972666Y-41979904D01*
X36163142Y-41979904D01*
X36239333Y-42018000D01*
X36277428Y-42056095D01*
X36315523Y-42132285D01*
X36315523Y-42208476D01*
X36277428Y-42322761D01*
X35820285Y-42779904D01*
X36315523Y-42779904D01*
%TO.C,C11*%
X31743714Y-42703714D02*
X31705619Y-42741809D01*
X31591333Y-42779904D01*
X31515142Y-42779904D01*
X31400857Y-42741809D01*
X31324666Y-42665619D01*
X31286571Y-42589428D01*
X31248476Y-42437047D01*
X31248476Y-42322761D01*
X31286571Y-42170380D01*
X31324666Y-42094190D01*
X31400857Y-42018000D01*
X31515142Y-41979904D01*
X31591333Y-41979904D01*
X31705619Y-42018000D01*
X31743714Y-42056095D01*
X32505619Y-42779904D02*
X32048476Y-42779904D01*
X32277047Y-42779904D02*
X32277047Y-41979904D01*
X32200857Y-42094190D01*
X32124666Y-42170380D01*
X32048476Y-42208476D01*
X33267523Y-42779904D02*
X32810380Y-42779904D01*
X33038952Y-42779904D02*
X33038952Y-41979904D01*
X32962761Y-42094190D01*
X32886571Y-42170380D01*
X32810380Y-42208476D01*
%TO.C,C10*%
X29457714Y-50577714D02*
X29419619Y-50615809D01*
X29305333Y-50653904D01*
X29229142Y-50653904D01*
X29114857Y-50615809D01*
X29038666Y-50539619D01*
X29000571Y-50463428D01*
X28962476Y-50311047D01*
X28962476Y-50196761D01*
X29000571Y-50044380D01*
X29038666Y-49968190D01*
X29114857Y-49892000D01*
X29229142Y-49853904D01*
X29305333Y-49853904D01*
X29419619Y-49892000D01*
X29457714Y-49930095D01*
X30219619Y-50653904D02*
X29762476Y-50653904D01*
X29991047Y-50653904D02*
X29991047Y-49853904D01*
X29914857Y-49968190D01*
X29838666Y-50044380D01*
X29762476Y-50082476D01*
X30714857Y-49853904D02*
X30791047Y-49853904D01*
X30867238Y-49892000D01*
X30905333Y-49930095D01*
X30943428Y-50006285D01*
X30981523Y-50158666D01*
X30981523Y-50349142D01*
X30943428Y-50501523D01*
X30905333Y-50577714D01*
X30867238Y-50615809D01*
X30791047Y-50653904D01*
X30714857Y-50653904D01*
X30638666Y-50615809D01*
X30600571Y-50577714D01*
X30562476Y-50501523D01*
X30524380Y-50349142D01*
X30524380Y-50158666D01*
X30562476Y-50006285D01*
X30600571Y-49930095D01*
X30638666Y-49892000D01*
X30714857Y-49853904D01*
%TO.C,C9*%
X33993688Y-44303749D02*
X33939813Y-44303749D01*
X33832064Y-44249874D01*
X33778189Y-44196000D01*
X33724314Y-44088250D01*
X33724314Y-43980500D01*
X33751251Y-43899688D01*
X33832064Y-43765001D01*
X33912876Y-43684189D01*
X34047563Y-43603377D01*
X34128375Y-43576439D01*
X34236125Y-43576439D01*
X34343874Y-43630314D01*
X34397749Y-43684189D01*
X34451624Y-43791938D01*
X34451624Y-43845813D01*
X34209187Y-44626998D02*
X34316937Y-44734748D01*
X34397749Y-44761685D01*
X34451624Y-44761685D01*
X34586311Y-44734748D01*
X34720998Y-44653935D01*
X34936497Y-44438436D01*
X34963435Y-44357624D01*
X34963435Y-44303749D01*
X34936497Y-44222937D01*
X34828748Y-44115187D01*
X34747935Y-44088250D01*
X34694061Y-44088250D01*
X34613248Y-44115187D01*
X34478561Y-44249874D01*
X34451624Y-44330687D01*
X34451624Y-44384561D01*
X34478561Y-44465374D01*
X34586311Y-44573123D01*
X34667123Y-44600061D01*
X34720998Y-44600061D01*
X34801810Y-44573123D01*
%TO.C,C8*%
X43795749Y-52112311D02*
X43795749Y-52166186D01*
X43741874Y-52273935D01*
X43688000Y-52327810D01*
X43580250Y-52381685D01*
X43472500Y-52381685D01*
X43391688Y-52354748D01*
X43257001Y-52273935D01*
X43176189Y-52193123D01*
X43095377Y-52058436D01*
X43068439Y-51977624D01*
X43068439Y-51869874D01*
X43122314Y-51762125D01*
X43176189Y-51708250D01*
X43283938Y-51654375D01*
X43337813Y-51654375D01*
X43849624Y-51519688D02*
X43768812Y-51546625D01*
X43714937Y-51546625D01*
X43634125Y-51519688D01*
X43607187Y-51492751D01*
X43580250Y-51411938D01*
X43580250Y-51358064D01*
X43607187Y-51277251D01*
X43714937Y-51169502D01*
X43795749Y-51142564D01*
X43849624Y-51142564D01*
X43930436Y-51169502D01*
X43957374Y-51196439D01*
X43984311Y-51277251D01*
X43984311Y-51331126D01*
X43957374Y-51411938D01*
X43849624Y-51519688D01*
X43822687Y-51600500D01*
X43822687Y-51654375D01*
X43849624Y-51735187D01*
X43957374Y-51842937D01*
X44038186Y-51869874D01*
X44092061Y-51869874D01*
X44172873Y-51842937D01*
X44280622Y-51735187D01*
X44307560Y-51654375D01*
X44307560Y-51600500D01*
X44280622Y-51519688D01*
X44172873Y-51411938D01*
X44092061Y-51385001D01*
X44038186Y-51385001D01*
X43957374Y-51411938D01*
%TO.C,C7*%
X39257714Y-54743333D02*
X39295809Y-54781428D01*
X39333904Y-54895714D01*
X39333904Y-54971904D01*
X39295809Y-55086190D01*
X39219619Y-55162380D01*
X39143428Y-55200476D01*
X38991047Y-55238571D01*
X38876761Y-55238571D01*
X38724380Y-55200476D01*
X38648190Y-55162380D01*
X38572000Y-55086190D01*
X38533904Y-54971904D01*
X38533904Y-54895714D01*
X38572000Y-54781428D01*
X38610095Y-54743333D01*
X38533904Y-54476666D02*
X38533904Y-53943333D01*
X39333904Y-54286190D01*
%TO.C,C6*%
X45497714Y-53219333D02*
X45535809Y-53257428D01*
X45573904Y-53371714D01*
X45573904Y-53447904D01*
X45535809Y-53562190D01*
X45459619Y-53638380D01*
X45383428Y-53676476D01*
X45231047Y-53714571D01*
X45116761Y-53714571D01*
X44964380Y-53676476D01*
X44888190Y-53638380D01*
X44812000Y-53562190D01*
X44773904Y-53447904D01*
X44773904Y-53371714D01*
X44812000Y-53257428D01*
X44850095Y-53219333D01*
X44773904Y-52533619D02*
X44773904Y-52686000D01*
X44812000Y-52762190D01*
X44850095Y-52800285D01*
X44964380Y-52876476D01*
X45116761Y-52914571D01*
X45421523Y-52914571D01*
X45497714Y-52876476D01*
X45535809Y-52838380D01*
X45573904Y-52762190D01*
X45573904Y-52609809D01*
X45535809Y-52533619D01*
X45497714Y-52495523D01*
X45421523Y-52457428D01*
X45231047Y-52457428D01*
X45154857Y-52495523D01*
X45116761Y-52533619D01*
X45078666Y-52609809D01*
X45078666Y-52762190D01*
X45116761Y-52838380D01*
X45154857Y-52876476D01*
X45231047Y-52914571D01*
%TO.C,C5*%
X43465714Y-67189333D02*
X43503809Y-67227428D01*
X43541904Y-67341714D01*
X43541904Y-67417904D01*
X43503809Y-67532190D01*
X43427619Y-67608380D01*
X43351428Y-67646476D01*
X43199047Y-67684571D01*
X43084761Y-67684571D01*
X42932380Y-67646476D01*
X42856190Y-67608380D01*
X42780000Y-67532190D01*
X42741904Y-67417904D01*
X42741904Y-67341714D01*
X42780000Y-67227428D01*
X42818095Y-67189333D01*
X42741904Y-66465523D02*
X42741904Y-66846476D01*
X43122857Y-66884571D01*
X43084761Y-66846476D01*
X43046666Y-66770285D01*
X43046666Y-66579809D01*
X43084761Y-66503619D01*
X43122857Y-66465523D01*
X43199047Y-66427428D01*
X43389523Y-66427428D01*
X43465714Y-66465523D01*
X43503809Y-66503619D01*
X43541904Y-66579809D01*
X43541904Y-66770285D01*
X43503809Y-66846476D01*
X43465714Y-66884571D01*
%TO.C,C4*%
X30854666Y-40163714D02*
X30816571Y-40201809D01*
X30702285Y-40239904D01*
X30626095Y-40239904D01*
X30511809Y-40201809D01*
X30435619Y-40125619D01*
X30397523Y-40049428D01*
X30359428Y-39897047D01*
X30359428Y-39782761D01*
X30397523Y-39630380D01*
X30435619Y-39554190D01*
X30511809Y-39478000D01*
X30626095Y-39439904D01*
X30702285Y-39439904D01*
X30816571Y-39478000D01*
X30854666Y-39516095D01*
X31540380Y-39706571D02*
X31540380Y-40239904D01*
X31349904Y-39401809D02*
X31159428Y-39973238D01*
X31654666Y-39973238D01*
%TO.C,C3*%
X28822666Y-40163714D02*
X28784571Y-40201809D01*
X28670285Y-40239904D01*
X28594095Y-40239904D01*
X28479809Y-40201809D01*
X28403619Y-40125619D01*
X28365523Y-40049428D01*
X28327428Y-39897047D01*
X28327428Y-39782761D01*
X28365523Y-39630380D01*
X28403619Y-39554190D01*
X28479809Y-39478000D01*
X28594095Y-39439904D01*
X28670285Y-39439904D01*
X28784571Y-39478000D01*
X28822666Y-39516095D01*
X29089333Y-39439904D02*
X29584571Y-39439904D01*
X29317904Y-39744666D01*
X29432190Y-39744666D01*
X29508380Y-39782761D01*
X29546476Y-39820857D01*
X29584571Y-39897047D01*
X29584571Y-40087523D01*
X29546476Y-40163714D01*
X29508380Y-40201809D01*
X29432190Y-40239904D01*
X29203619Y-40239904D01*
X29127428Y-40201809D01*
X29089333Y-40163714D01*
%TO.C,C2*%
X31603749Y-69892311D02*
X31603749Y-69946186D01*
X31549874Y-70053935D01*
X31496000Y-70107810D01*
X31388250Y-70161685D01*
X31280500Y-70161685D01*
X31199688Y-70134748D01*
X31065001Y-70053935D01*
X30984189Y-69973123D01*
X30903377Y-69838436D01*
X30876439Y-69757624D01*
X30876439Y-69649874D01*
X30930314Y-69542125D01*
X30984189Y-69488250D01*
X31091938Y-69434375D01*
X31145813Y-69434375D01*
X31361312Y-69218876D02*
X31361312Y-69165001D01*
X31388250Y-69084189D01*
X31522937Y-68949502D01*
X31603749Y-68922564D01*
X31657624Y-68922564D01*
X31738436Y-68949502D01*
X31792311Y-69003377D01*
X31846186Y-69111126D01*
X31846186Y-69757624D01*
X32196372Y-69407438D01*
%TO.C,C1*%
D12*
X35807142Y-37250666D02*
X35854761Y-37298285D01*
X35902380Y-37441142D01*
X35902380Y-37536380D01*
X35854761Y-37679238D01*
X35759523Y-37774476D01*
X35664285Y-37822095D01*
X35473809Y-37869714D01*
X35330952Y-37869714D01*
X35140476Y-37822095D01*
X35045238Y-37774476D01*
X34950000Y-37679238D01*
X34902380Y-37536380D01*
X34902380Y-37441142D01*
X34950000Y-37298285D01*
X34997619Y-37250666D01*
X35902380Y-36298285D02*
X35902380Y-36869714D01*
X35902380Y-36584000D02*
X34902380Y-36584000D01*
X35045238Y-36679238D01*
X35140476Y-36774476D01*
X35188095Y-36869714D01*
%TO.C,TP13*%
D10*
X30634570Y-60826476D02*
X30634570Y-60369333D01*
X31434570Y-60597904D02*
X30634570Y-60597904D01*
X31434570Y-60102666D02*
X30634570Y-60102666D01*
X30634570Y-59797904D01*
X30672666Y-59721714D01*
X30710761Y-59683619D01*
X30786951Y-59645523D01*
X30901237Y-59645523D01*
X30977427Y-59683619D01*
X31015523Y-59721714D01*
X31053618Y-59797904D01*
X31053618Y-60102666D01*
X31434570Y-58883619D02*
X31434570Y-59340761D01*
X31434570Y-59112190D02*
X30634570Y-59112190D01*
X30748856Y-59188380D01*
X30825046Y-59264571D01*
X30863142Y-59340761D01*
X30634570Y-58616952D02*
X30634570Y-58121714D01*
X30939332Y-58388380D01*
X30939332Y-58274095D01*
X30977427Y-58197904D01*
X31015523Y-58159809D01*
X31091713Y-58121714D01*
X31282189Y-58121714D01*
X31358380Y-58159809D01*
X31396475Y-58197904D01*
X31434570Y-58274095D01*
X31434570Y-58502666D01*
X31396475Y-58578857D01*
X31358380Y-58616952D01*
%TO.C,TP12*%
X45599523Y-69411904D02*
X46056666Y-69411904D01*
X45828095Y-70211904D02*
X45828095Y-69411904D01*
X46323333Y-70211904D02*
X46323333Y-69411904D01*
X46628095Y-69411904D01*
X46704285Y-69450000D01*
X46742380Y-69488095D01*
X46780476Y-69564285D01*
X46780476Y-69678571D01*
X46742380Y-69754761D01*
X46704285Y-69792857D01*
X46628095Y-69830952D01*
X46323333Y-69830952D01*
X47542380Y-70211904D02*
X47085238Y-70211904D01*
X47313809Y-70211904D02*
X47313809Y-69411904D01*
X47237619Y-69526190D01*
X47161428Y-69602380D01*
X47085238Y-69640476D01*
X47847142Y-69488095D02*
X47885238Y-69450000D01*
X47961428Y-69411904D01*
X48151904Y-69411904D01*
X48228095Y-69450000D01*
X48266190Y-69488095D01*
X48304285Y-69564285D01*
X48304285Y-69640476D01*
X48266190Y-69754761D01*
X47809047Y-70211904D01*
X48304285Y-70211904D01*
%TO.C,TP11*%
X45091523Y-64331904D02*
X45548666Y-64331904D01*
X45320095Y-65131904D02*
X45320095Y-64331904D01*
X45815333Y-65131904D02*
X45815333Y-64331904D01*
X46120095Y-64331904D01*
X46196285Y-64370000D01*
X46234380Y-64408095D01*
X46272476Y-64484285D01*
X46272476Y-64598571D01*
X46234380Y-64674761D01*
X46196285Y-64712857D01*
X46120095Y-64750952D01*
X45815333Y-64750952D01*
X47034380Y-65131904D02*
X46577238Y-65131904D01*
X46805809Y-65131904D02*
X46805809Y-64331904D01*
X46729619Y-64446190D01*
X46653428Y-64522380D01*
X46577238Y-64560476D01*
X47796285Y-65131904D02*
X47339142Y-65131904D01*
X47567714Y-65131904D02*
X47567714Y-64331904D01*
X47491523Y-64446190D01*
X47415333Y-64522380D01*
X47339142Y-64560476D01*
%TO.C,J1*%
D12*
X47666666Y-42122380D02*
X47666666Y-42836666D01*
X47619047Y-42979523D01*
X47523809Y-43074761D01*
X47380952Y-43122380D01*
X47285714Y-43122380D01*
X48666666Y-43122380D02*
X48095238Y-43122380D01*
X48380952Y-43122380D02*
X48380952Y-42122380D01*
X48285714Y-42265238D01*
X48190476Y-42360476D01*
X48095238Y-42408095D01*
%TO.C,F1*%
D10*
X34994857Y-31508666D02*
X34994857Y-31775333D01*
X35413904Y-31775333D02*
X34613904Y-31775333D01*
X34613904Y-31394380D01*
X35413904Y-30670571D02*
X35413904Y-31127714D01*
X35413904Y-30899142D02*
X34613904Y-30899142D01*
X34728190Y-30975333D01*
X34804380Y-31051523D01*
X34842476Y-31127714D01*
%TO.C,Y1*%
X40112952Y-56768952D02*
X40493904Y-56768952D01*
X39693904Y-57035619D02*
X40112952Y-56768952D01*
X39693904Y-56502285D01*
X40493904Y-55816571D02*
X40493904Y-56273714D01*
X40493904Y-56045142D02*
X39693904Y-56045142D01*
X39808190Y-56121333D01*
X39884380Y-56197523D01*
X39922476Y-56273714D01*
%TO.C,TP17*%
X32835904Y-60572476D02*
X32835904Y-60115333D01*
X33635904Y-60343904D02*
X32835904Y-60343904D01*
X33635904Y-59848666D02*
X32835904Y-59848666D01*
X32835904Y-59543904D01*
X32874000Y-59467714D01*
X32912095Y-59429619D01*
X32988285Y-59391523D01*
X33102571Y-59391523D01*
X33178761Y-59429619D01*
X33216857Y-59467714D01*
X33254952Y-59543904D01*
X33254952Y-59848666D01*
X33635904Y-58629619D02*
X33635904Y-59086761D01*
X33635904Y-58858190D02*
X32835904Y-58858190D01*
X32950190Y-58934380D01*
X33026380Y-59010571D01*
X33064476Y-59086761D01*
X32835904Y-58362952D02*
X32835904Y-57829619D01*
X33635904Y-58172476D01*
%TO.C,TP16*%
X36201523Y-56457904D02*
X36658666Y-56457904D01*
X36430095Y-57257904D02*
X36430095Y-56457904D01*
X36925333Y-57257904D02*
X36925333Y-56457904D01*
X37230095Y-56457904D01*
X37306285Y-56496000D01*
X37344380Y-56534095D01*
X37382476Y-56610285D01*
X37382476Y-56724571D01*
X37344380Y-56800761D01*
X37306285Y-56838857D01*
X37230095Y-56876952D01*
X36925333Y-56876952D01*
X38144380Y-57257904D02*
X37687238Y-57257904D01*
X37915809Y-57257904D02*
X37915809Y-56457904D01*
X37839619Y-56572190D01*
X37763428Y-56648380D01*
X37687238Y-56686476D01*
X38830095Y-56457904D02*
X38677714Y-56457904D01*
X38601523Y-56496000D01*
X38563428Y-56534095D01*
X38487238Y-56648380D01*
X38449142Y-56800761D01*
X38449142Y-57105523D01*
X38487238Y-57181714D01*
X38525333Y-57219809D01*
X38601523Y-57257904D01*
X38753904Y-57257904D01*
X38830095Y-57219809D01*
X38868190Y-57181714D01*
X38906285Y-57105523D01*
X38906285Y-56915047D01*
X38868190Y-56838857D01*
X38830095Y-56800761D01*
X38753904Y-56762666D01*
X38601523Y-56762666D01*
X38525333Y-56800761D01*
X38487238Y-56838857D01*
X38449142Y-56915047D01*
%TO.C,TP15*%
X42805523Y-57473904D02*
X43262666Y-57473904D01*
X43034095Y-58273904D02*
X43034095Y-57473904D01*
X43529333Y-58273904D02*
X43529333Y-57473904D01*
X43834095Y-57473904D01*
X43910285Y-57512000D01*
X43948380Y-57550095D01*
X43986476Y-57626285D01*
X43986476Y-57740571D01*
X43948380Y-57816761D01*
X43910285Y-57854857D01*
X43834095Y-57892952D01*
X43529333Y-57892952D01*
X44748380Y-58273904D02*
X44291238Y-58273904D01*
X44519809Y-58273904D02*
X44519809Y-57473904D01*
X44443619Y-57588190D01*
X44367428Y-57664380D01*
X44291238Y-57702476D01*
X45472190Y-57473904D02*
X45091238Y-57473904D01*
X45053142Y-57854857D01*
X45091238Y-57816761D01*
X45167428Y-57778666D01*
X45357904Y-57778666D01*
X45434095Y-57816761D01*
X45472190Y-57854857D01*
X45510285Y-57931047D01*
X45510285Y-58121523D01*
X45472190Y-58197714D01*
X45434095Y-58235809D01*
X45357904Y-58273904D01*
X45167428Y-58273904D01*
X45091238Y-58235809D01*
X45053142Y-58197714D01*
%TO.C,TP4*%
X27946476Y-58235904D02*
X28403619Y-58235904D01*
X28175047Y-59035904D02*
X28175047Y-58235904D01*
X28670285Y-59035904D02*
X28670285Y-58235904D01*
X28975047Y-58235904D01*
X29051238Y-58274000D01*
X29089333Y-58312095D01*
X29127428Y-58388285D01*
X29127428Y-58502571D01*
X29089333Y-58578761D01*
X29051238Y-58616857D01*
X28975047Y-58654952D01*
X28670285Y-58654952D01*
X29813142Y-58502571D02*
X29813142Y-59035904D01*
X29622666Y-58197809D02*
X29432190Y-58769238D01*
X29927428Y-58769238D01*
%TO.C,Q2*%
X30664095Y-70434190D02*
X30626000Y-70510380D01*
X30549809Y-70586571D01*
X30435523Y-70700857D01*
X30397428Y-70777047D01*
X30397428Y-70853238D01*
X30587904Y-70815142D02*
X30549809Y-70891333D01*
X30473619Y-70967523D01*
X30321238Y-71005619D01*
X30054571Y-71005619D01*
X29902190Y-70967523D01*
X29826000Y-70891333D01*
X29787904Y-70815142D01*
X29787904Y-70662761D01*
X29826000Y-70586571D01*
X29902190Y-70510380D01*
X30054571Y-70472285D01*
X30321238Y-70472285D01*
X30473619Y-70510380D01*
X30549809Y-70586571D01*
X30587904Y-70662761D01*
X30587904Y-70815142D01*
X29864095Y-70167523D02*
X29826000Y-70129428D01*
X29787904Y-70053238D01*
X29787904Y-69862761D01*
X29826000Y-69786571D01*
X29864095Y-69748476D01*
X29940285Y-69710380D01*
X30016476Y-69710380D01*
X30130761Y-69748476D01*
X30587904Y-70205619D01*
X30587904Y-69710380D01*
%TO.C,Q1*%
X45396095Y-70434190D02*
X45358000Y-70510380D01*
X45281809Y-70586571D01*
X45167523Y-70700857D01*
X45129428Y-70777047D01*
X45129428Y-70853238D01*
X45319904Y-70815142D02*
X45281809Y-70891333D01*
X45205619Y-70967523D01*
X45053238Y-71005619D01*
X44786571Y-71005619D01*
X44634190Y-70967523D01*
X44558000Y-70891333D01*
X44519904Y-70815142D01*
X44519904Y-70662761D01*
X44558000Y-70586571D01*
X44634190Y-70510380D01*
X44786571Y-70472285D01*
X45053238Y-70472285D01*
X45205619Y-70510380D01*
X45281809Y-70586571D01*
X45319904Y-70662761D01*
X45319904Y-70815142D01*
X45319904Y-69710380D02*
X45319904Y-70167523D01*
X45319904Y-69938952D02*
X44519904Y-69938952D01*
X44634190Y-70015142D01*
X44710380Y-70091333D01*
X44748476Y-70167523D01*
%TO.C,U1*%
D12*
X26630380Y-31495904D02*
X27439904Y-31495904D01*
X27535142Y-31448285D01*
X27582761Y-31400666D01*
X27630380Y-31305428D01*
X27630380Y-31114952D01*
X27582761Y-31019714D01*
X27535142Y-30972095D01*
X27439904Y-30924476D01*
X26630380Y-30924476D01*
X27630380Y-29924476D02*
X27630380Y-30495904D01*
X27630380Y-30210190D02*
X26630380Y-30210190D01*
X26773238Y-30305428D01*
X26868476Y-30400666D01*
X26916095Y-30495904D01*
%TO.C,U2*%
X36830095Y-69810380D02*
X36830095Y-70619904D01*
X36877714Y-70715142D01*
X36925333Y-70762761D01*
X37020571Y-70810380D01*
X37211047Y-70810380D01*
X37306285Y-70762761D01*
X37353904Y-70715142D01*
X37401523Y-70619904D01*
X37401523Y-69810380D01*
X37830095Y-69905619D02*
X37877714Y-69858000D01*
X37972952Y-69810380D01*
X38211047Y-69810380D01*
X38306285Y-69858000D01*
X38353904Y-69905619D01*
X38401523Y-70000857D01*
X38401523Y-70096095D01*
X38353904Y-70238952D01*
X37782476Y-70810380D01*
X38401523Y-70810380D01*
%TD*%
M02*
