%TF.GenerationSoftware,KiCad,Pcbnew,(5.1.9-16-g1737927814)-1*%
%TF.CreationDate,2021-07-25T19:14:51-05:00*%
%TF.ProjectId,adbuino,61646275-696e-46f2-9e6b-696361645f70,rev?*%
%TF.SameCoordinates,Original*%
%TF.FileFunction,Copper,L1,Top*%
%TF.FilePolarity,Positive*%
%FSLAX46Y46*%
G04 Gerber Fmt 4.6, Leading zero omitted, Abs format (unit mm)*
G04 Created by KiCad (PCBNEW (5.1.9-16-g1737927814)-1) date 2021-07-25 19:14:51*
%MOMM*%
%LPD*%
G01*
G04 APERTURE LIST*
%TA.AperFunction,EtchedComponent*%
%ADD10C,0.100000*%
%TD*%
%TA.AperFunction,ComponentPad*%
%ADD11C,2.000000*%
%TD*%
%TA.AperFunction,SMDPad,CuDef*%
%ADD12C,0.100000*%
%TD*%
%TA.AperFunction,ComponentPad*%
%ADD13O,3.600000X1.800000*%
%TD*%
%TA.AperFunction,ComponentPad*%
%ADD14C,3.316000*%
%TD*%
%TA.AperFunction,SMDPad,CuDef*%
%ADD15R,1.300000X1.600000*%
%TD*%
%TA.AperFunction,SMDPad,CuDef*%
%ADD16C,1.000000*%
%TD*%
%TA.AperFunction,ComponentPad*%
%ADD17O,1.700000X1.700000*%
%TD*%
%TA.AperFunction,ComponentPad*%
%ADD18R,1.700000X1.700000*%
%TD*%
%TA.AperFunction,SMDPad,CuDef*%
%ADD19R,1.400000X1.200000*%
%TD*%
%TA.AperFunction,SMDPad,CuDef*%
%ADD20R,0.800000X0.900000*%
%TD*%
%TA.AperFunction,SMDPad,CuDef*%
%ADD21R,1.500000X2.000000*%
%TD*%
%TA.AperFunction,SMDPad,CuDef*%
%ADD22R,3.800000X2.000000*%
%TD*%
%TA.AperFunction,ComponentPad*%
%ADD23C,1.600000*%
%TD*%
%TA.AperFunction,ComponentPad*%
%ADD24R,1.500000X1.600000*%
%TD*%
%TA.AperFunction,ComponentPad*%
%ADD25C,3.000000*%
%TD*%
%TA.AperFunction,ViaPad*%
%ADD26C,0.800000*%
%TD*%
%TA.AperFunction,Conductor*%
%ADD27C,0.150000*%
%TD*%
%TA.AperFunction,Conductor*%
%ADD28C,0.250000*%
%TD*%
%TA.AperFunction,Conductor*%
%ADD29C,0.400000*%
%TD*%
%TA.AperFunction,Conductor*%
%ADD30C,0.254000*%
%TD*%
%TA.AperFunction,Conductor*%
%ADD31C,0.100000*%
%TD*%
G04 APERTURE END LIST*
D10*
%TO.C,JP6*%
G36*
X41448000Y-39508000D02*
G01*
X41448000Y-39008000D01*
X40848000Y-39008000D01*
X40848000Y-39508000D01*
X41448000Y-39508000D01*
G37*
%TO.C,JP5*%
G36*
X46528000Y-39508000D02*
G01*
X46528000Y-39008000D01*
X45928000Y-39008000D01*
X45928000Y-39508000D01*
X46528000Y-39508000D01*
G37*
%TO.C,JP4*%
G36*
X49068000Y-39508000D02*
G01*
X49068000Y-39008000D01*
X48468000Y-39008000D01*
X48468000Y-39508000D01*
X49068000Y-39508000D01*
G37*
%TO.C,JP3*%
G36*
X43988000Y-39508000D02*
G01*
X43988000Y-39008000D01*
X43388000Y-39008000D01*
X43388000Y-39508000D01*
X43988000Y-39508000D01*
G37*
%TD*%
D11*
%TO.P,J2,MH4*%
%TO.N,GND*%
X43743000Y-28683000D03*
%TO.P,J2,MH3*%
X43743000Y-35833000D03*
%TO.P,J2,MH2*%
X47193000Y-35833000D03*
%TO.P,J2,MH1*%
X47193000Y-28683000D03*
%TD*%
%TA.AperFunction,SMDPad,CuDef*%
D12*
%TO.P,IC1,32*%
%TO.N,N/C*%
G36*
X39707382Y-50111624D02*
G01*
X38664400Y-51154606D01*
X38452268Y-50942474D01*
X39495250Y-49899492D01*
X39707382Y-50111624D01*
G37*
%TD.AperFunction*%
%TA.AperFunction,SMDPad,CuDef*%
%TO.P,IC1,31*%
G36*
X39353829Y-49758070D02*
G01*
X38310847Y-50801052D01*
X38098715Y-50588920D01*
X39141697Y-49545938D01*
X39353829Y-49758070D01*
G37*
%TD.AperFunction*%
%TA.AperFunction,SMDPad,CuDef*%
%TO.P,IC1,30*%
G36*
X39000275Y-49404517D02*
G01*
X37957293Y-50447499D01*
X37745161Y-50235367D01*
X38788143Y-49192385D01*
X39000275Y-49404517D01*
G37*
%TD.AperFunction*%
%TA.AperFunction,SMDPad,CuDef*%
%TO.P,IC1,29*%
G36*
X38646722Y-49050963D02*
G01*
X37603740Y-50093945D01*
X37391608Y-49881813D01*
X38434590Y-48838831D01*
X38646722Y-49050963D01*
G37*
%TD.AperFunction*%
%TA.AperFunction,SMDPad,CuDef*%
%TO.P,IC1,28*%
G36*
X38293169Y-48697410D02*
G01*
X37250187Y-49740392D01*
X37038055Y-49528260D01*
X38081037Y-48485278D01*
X38293169Y-48697410D01*
G37*
%TD.AperFunction*%
%TA.AperFunction,SMDPad,CuDef*%
%TO.P,IC1,27*%
G36*
X37939615Y-48343857D02*
G01*
X36896633Y-49386839D01*
X36684501Y-49174707D01*
X37727483Y-48131725D01*
X37939615Y-48343857D01*
G37*
%TD.AperFunction*%
%TA.AperFunction,SMDPad,CuDef*%
%TO.P,IC1,26*%
G36*
X37586062Y-47990303D02*
G01*
X36543080Y-49033285D01*
X36330948Y-48821153D01*
X37373930Y-47778171D01*
X37586062Y-47990303D01*
G37*
%TD.AperFunction*%
%TA.AperFunction,SMDPad,CuDef*%
%TO.P,IC1,25*%
%TO.N,Net-(C10-Pad1)*%
G36*
X37232508Y-47636750D02*
G01*
X36189526Y-48679732D01*
X35977394Y-48467600D01*
X37020376Y-47424618D01*
X37232508Y-47636750D01*
G37*
%TD.AperFunction*%
%TA.AperFunction,SMDPad,CuDef*%
%TO.P,IC1,24*%
%TO.N,Net-(C11-Pad1)*%
G36*
X36189526Y-45320268D02*
G01*
X37232508Y-46363250D01*
X37020376Y-46575382D01*
X35977394Y-45532400D01*
X36189526Y-45320268D01*
G37*
%TD.AperFunction*%
%TA.AperFunction,SMDPad,CuDef*%
%TO.P,IC1,23*%
%TO.N,+3V3*%
G36*
X36543080Y-44966715D02*
G01*
X37586062Y-46009697D01*
X37373930Y-46221829D01*
X36330948Y-45178847D01*
X36543080Y-44966715D01*
G37*
%TD.AperFunction*%
%TA.AperFunction,SMDPad,CuDef*%
%TO.P,IC1,22*%
%TO.N,Net-(C12-Pad1)*%
G36*
X36896633Y-44613161D02*
G01*
X37939615Y-45656143D01*
X37727483Y-45868275D01*
X36684501Y-44825293D01*
X36896633Y-44613161D01*
G37*
%TD.AperFunction*%
%TA.AperFunction,SMDPad,CuDef*%
%TO.P,IC1,21*%
%TO.N,Host_USB_D+*%
G36*
X37250187Y-44259608D02*
G01*
X38293169Y-45302590D01*
X38081037Y-45514722D01*
X37038055Y-44471740D01*
X37250187Y-44259608D01*
G37*
%TD.AperFunction*%
%TA.AperFunction,SMDPad,CuDef*%
%TO.P,IC1,20*%
%TO.N,Host_USB_D-*%
G36*
X37603740Y-43906055D02*
G01*
X38646722Y-44949037D01*
X38434590Y-45161169D01*
X37391608Y-44118187D01*
X37603740Y-43906055D01*
G37*
%TD.AperFunction*%
%TA.AperFunction,SMDPad,CuDef*%
%TO.P,IC1,19*%
%TO.N,GND*%
G36*
X37957293Y-43552501D02*
G01*
X39000275Y-44595483D01*
X38788143Y-44807615D01*
X37745161Y-43764633D01*
X37957293Y-43552501D01*
G37*
%TD.AperFunction*%
%TA.AperFunction,SMDPad,CuDef*%
%TO.P,IC1,18*%
%TO.N,MAX3421_INT*%
G36*
X38310847Y-43198948D02*
G01*
X39353829Y-44241930D01*
X39141697Y-44454062D01*
X38098715Y-43411080D01*
X38310847Y-43198948D01*
G37*
%TD.AperFunction*%
%TA.AperFunction,SMDPad,CuDef*%
%TO.P,IC1,17*%
%TO.N,MAX3421_GPX*%
G36*
X38664400Y-42845394D02*
G01*
X39707382Y-43888376D01*
X39495250Y-44100508D01*
X38452268Y-43057526D01*
X38664400Y-42845394D01*
G37*
%TD.AperFunction*%
%TA.AperFunction,SMDPad,CuDef*%
%TO.P,IC1,16*%
%TO.N,MAX3421_SPI_MOSI*%
G36*
X41811732Y-43057526D02*
G01*
X40768750Y-44100508D01*
X40556618Y-43888376D01*
X41599600Y-42845394D01*
X41811732Y-43057526D01*
G37*
%TD.AperFunction*%
%TA.AperFunction,SMDPad,CuDef*%
%TO.P,IC1,15*%
%TO.N,MAX3421_SPI_MISO*%
G36*
X42165285Y-43411080D02*
G01*
X41122303Y-44454062D01*
X40910171Y-44241930D01*
X41953153Y-43198948D01*
X42165285Y-43411080D01*
G37*
%TD.AperFunction*%
%TA.AperFunction,SMDPad,CuDef*%
%TO.P,IC1,14*%
%TO.N,MAX3421_SS*%
G36*
X42518839Y-43764633D02*
G01*
X41475857Y-44807615D01*
X41263725Y-44595483D01*
X42306707Y-43552501D01*
X42518839Y-43764633D01*
G37*
%TD.AperFunction*%
%TA.AperFunction,SMDPad,CuDef*%
%TO.P,IC1,13*%
%TO.N,MAX3421_SPI_SCLK*%
G36*
X42872392Y-44118187D02*
G01*
X41829410Y-45161169D01*
X41617278Y-44949037D01*
X42660260Y-43906055D01*
X42872392Y-44118187D01*
G37*
%TD.AperFunction*%
%TA.AperFunction,SMDPad,CuDef*%
%TO.P,IC1,12*%
%TO.N,MAX3421_RESET*%
G36*
X43225945Y-44471740D02*
G01*
X42182963Y-45514722D01*
X41970831Y-45302590D01*
X43013813Y-44259608D01*
X43225945Y-44471740D01*
G37*
%TD.AperFunction*%
%TA.AperFunction,SMDPad,CuDef*%
%TO.P,IC1,11*%
%TO.N,N/C*%
G36*
X43579499Y-44825293D02*
G01*
X42536517Y-45868275D01*
X42324385Y-45656143D01*
X43367367Y-44613161D01*
X43579499Y-44825293D01*
G37*
%TD.AperFunction*%
%TA.AperFunction,SMDPad,CuDef*%
%TO.P,IC1,10*%
G36*
X43933052Y-45178847D02*
G01*
X42890070Y-46221829D01*
X42677938Y-46009697D01*
X43720920Y-44966715D01*
X43933052Y-45178847D01*
G37*
%TD.AperFunction*%
%TA.AperFunction,SMDPad,CuDef*%
%TO.P,IC1,9*%
G36*
X44286606Y-45532400D02*
G01*
X43243624Y-46575382D01*
X43031492Y-46363250D01*
X44074474Y-45320268D01*
X44286606Y-45532400D01*
G37*
%TD.AperFunction*%
%TA.AperFunction,SMDPad,CuDef*%
%TO.P,IC1,8*%
G36*
X43243624Y-47424618D02*
G01*
X44286606Y-48467600D01*
X44074474Y-48679732D01*
X43031492Y-47636750D01*
X43243624Y-47424618D01*
G37*
%TD.AperFunction*%
%TA.AperFunction,SMDPad,CuDef*%
%TO.P,IC1,7*%
G36*
X42890070Y-47778171D02*
G01*
X43933052Y-48821153D01*
X43720920Y-49033285D01*
X42677938Y-47990303D01*
X42890070Y-47778171D01*
G37*
%TD.AperFunction*%
%TA.AperFunction,SMDPad,CuDef*%
%TO.P,IC1,6*%
G36*
X42536517Y-48131725D02*
G01*
X43579499Y-49174707D01*
X43367367Y-49386839D01*
X42324385Y-48343857D01*
X42536517Y-48131725D01*
G37*
%TD.AperFunction*%
%TA.AperFunction,SMDPad,CuDef*%
%TO.P,IC1,5*%
G36*
X42182963Y-48485278D02*
G01*
X43225945Y-49528260D01*
X43013813Y-49740392D01*
X41970831Y-48697410D01*
X42182963Y-48485278D01*
G37*
%TD.AperFunction*%
%TA.AperFunction,SMDPad,CuDef*%
%TO.P,IC1,4*%
G36*
X41829410Y-48838831D02*
G01*
X42872392Y-49881813D01*
X42660260Y-50093945D01*
X41617278Y-49050963D01*
X41829410Y-48838831D01*
G37*
%TD.AperFunction*%
%TA.AperFunction,SMDPad,CuDef*%
%TO.P,IC1,3*%
%TO.N,GND*%
G36*
X41475857Y-49192385D02*
G01*
X42518839Y-50235367D01*
X42306707Y-50447499D01*
X41263725Y-49404517D01*
X41475857Y-49192385D01*
G37*
%TD.AperFunction*%
%TA.AperFunction,SMDPad,CuDef*%
%TO.P,IC1,2*%
%TO.N,+3V3*%
G36*
X41122303Y-49545938D02*
G01*
X42165285Y-50588920D01*
X41953153Y-50801052D01*
X40910171Y-49758070D01*
X41122303Y-49545938D01*
G37*
%TD.AperFunction*%
%TA.AperFunction,SMDPad,CuDef*%
%TO.P,IC1,1*%
%TO.N,N/C*%
G36*
X40768750Y-49899492D02*
G01*
X41811732Y-50942474D01*
X41599600Y-51154606D01*
X40556618Y-50111624D01*
X40768750Y-49899492D01*
G37*
%TD.AperFunction*%
%TD*%
%TO.P,C13,2*%
%TO.N,GND*%
%TA.AperFunction,SMDPad,CuDef*%
G36*
G01*
X45890000Y-49838000D02*
X45550000Y-49838000D01*
G75*
G02*
X45410000Y-49698000I0J140000D01*
G01*
X45410000Y-49418000D01*
G75*
G02*
X45550000Y-49278000I140000J0D01*
G01*
X45890000Y-49278000D01*
G75*
G02*
X46030000Y-49418000I0J-140000D01*
G01*
X46030000Y-49698000D01*
G75*
G02*
X45890000Y-49838000I-140000J0D01*
G01*
G37*
%TD.AperFunction*%
%TO.P,C13,1*%
%TO.N,+3V3*%
%TA.AperFunction,SMDPad,CuDef*%
G36*
G01*
X45890000Y-50798000D02*
X45550000Y-50798000D01*
G75*
G02*
X45410000Y-50658000I0J140000D01*
G01*
X45410000Y-50378000D01*
G75*
G02*
X45550000Y-50238000I140000J0D01*
G01*
X45890000Y-50238000D01*
G75*
G02*
X46030000Y-50378000I0J-140000D01*
G01*
X46030000Y-50658000D01*
G75*
G02*
X45890000Y-50798000I-140000J0D01*
G01*
G37*
%TD.AperFunction*%
%TD*%
D13*
%TO.P,J5,S3*%
%TO.N,GND*%
X27356000Y-73710000D03*
%TO.P,J5,S2*%
X27356000Y-60910000D03*
D14*
%TO.P,J5,S1*%
X28056000Y-67310000D03*
%TD*%
D13*
%TO.P,J4,S3*%
%TO.N,GND*%
X47574000Y-60910000D03*
%TO.P,J4,S2*%
X47574000Y-73710000D03*
D14*
%TO.P,J4,S1*%
X46874000Y-67310000D03*
%TD*%
D15*
%TO.P,Y2,4*%
%TO.N,GND*%
X33004000Y-45350000D03*
%TO.P,Y2,3*%
%TO.N,Net-(C10-Pad1)*%
X33004000Y-48650000D03*
%TO.P,Y2,2*%
%TO.N,GND*%
X31004000Y-48650000D03*
%TO.P,Y2,1*%
%TO.N,Net-(C11-Pad1)*%
X31004000Y-45350000D03*
%TD*%
%TO.P,R16,2*%
%TO.N,Net-(JP4-Pad2)*%
%TA.AperFunction,SMDPad,CuDef*%
G36*
G01*
X47937000Y-41670000D02*
X47567000Y-41670000D01*
G75*
G02*
X47432000Y-41535000I0J135000D01*
G01*
X47432000Y-41265000D01*
G75*
G02*
X47567000Y-41130000I135000J0D01*
G01*
X47937000Y-41130000D01*
G75*
G02*
X48072000Y-41265000I0J-135000D01*
G01*
X48072000Y-41535000D01*
G75*
G02*
X47937000Y-41670000I-135000J0D01*
G01*
G37*
%TD.AperFunction*%
%TO.P,R16,1*%
%TO.N,MAX3421_SPI_SCLK*%
%TA.AperFunction,SMDPad,CuDef*%
G36*
G01*
X47937000Y-42690000D02*
X47567000Y-42690000D01*
G75*
G02*
X47432000Y-42555000I0J135000D01*
G01*
X47432000Y-42285000D01*
G75*
G02*
X47567000Y-42150000I135000J0D01*
G01*
X47937000Y-42150000D01*
G75*
G02*
X48072000Y-42285000I0J-135000D01*
G01*
X48072000Y-42555000D01*
G75*
G02*
X47937000Y-42690000I-135000J0D01*
G01*
G37*
%TD.AperFunction*%
%TD*%
%TO.P,R15,2*%
%TO.N,Net-(JP3-Pad2)*%
%TA.AperFunction,SMDPad,CuDef*%
G36*
G01*
X44491999Y-41670000D02*
X44121999Y-41670000D01*
G75*
G02*
X43986999Y-41535000I0J135000D01*
G01*
X43986999Y-41265000D01*
G75*
G02*
X44121999Y-41130000I135000J0D01*
G01*
X44491999Y-41130000D01*
G75*
G02*
X44626999Y-41265000I0J-135000D01*
G01*
X44626999Y-41535000D01*
G75*
G02*
X44491999Y-41670000I-135000J0D01*
G01*
G37*
%TD.AperFunction*%
%TO.P,R15,1*%
%TO.N,MAX3421_SPI_MISO*%
%TA.AperFunction,SMDPad,CuDef*%
G36*
G01*
X44491999Y-42690000D02*
X44121999Y-42690000D01*
G75*
G02*
X43986999Y-42555000I0J135000D01*
G01*
X43986999Y-42285000D01*
G75*
G02*
X44121999Y-42150000I135000J0D01*
G01*
X44491999Y-42150000D01*
G75*
G02*
X44626999Y-42285000I0J-135000D01*
G01*
X44626999Y-42555000D01*
G75*
G02*
X44491999Y-42690000I-135000J0D01*
G01*
G37*
%TD.AperFunction*%
%TD*%
%TO.P,R14,2*%
%TO.N,Net-(JP6-Pad2)*%
%TA.AperFunction,SMDPad,CuDef*%
G36*
G01*
X42857000Y-41670000D02*
X42487000Y-41670000D01*
G75*
G02*
X42352000Y-41535000I0J135000D01*
G01*
X42352000Y-41265000D01*
G75*
G02*
X42487000Y-41130000I135000J0D01*
G01*
X42857000Y-41130000D01*
G75*
G02*
X42992000Y-41265000I0J-135000D01*
G01*
X42992000Y-41535000D01*
G75*
G02*
X42857000Y-41670000I-135000J0D01*
G01*
G37*
%TD.AperFunction*%
%TO.P,R14,1*%
%TO.N,MAX3421_SPI_MOSI*%
%TA.AperFunction,SMDPad,CuDef*%
G36*
G01*
X42857000Y-42690000D02*
X42487000Y-42690000D01*
G75*
G02*
X42352000Y-42555000I0J135000D01*
G01*
X42352000Y-42285000D01*
G75*
G02*
X42487000Y-42150000I135000J0D01*
G01*
X42857000Y-42150000D01*
G75*
G02*
X42992000Y-42285000I0J-135000D01*
G01*
X42992000Y-42555000D01*
G75*
G02*
X42857000Y-42690000I-135000J0D01*
G01*
G37*
%TD.AperFunction*%
%TD*%
%TO.P,R13,2*%
%TO.N,Net-(JP5-Pad2)*%
%TA.AperFunction,SMDPad,CuDef*%
G36*
G01*
X46126998Y-41670000D02*
X45756998Y-41670000D01*
G75*
G02*
X45621998Y-41535000I0J135000D01*
G01*
X45621998Y-41265000D01*
G75*
G02*
X45756998Y-41130000I135000J0D01*
G01*
X46126998Y-41130000D01*
G75*
G02*
X46261998Y-41265000I0J-135000D01*
G01*
X46261998Y-41535000D01*
G75*
G02*
X46126998Y-41670000I-135000J0D01*
G01*
G37*
%TD.AperFunction*%
%TO.P,R13,1*%
%TO.N,MAX3421_SS*%
%TA.AperFunction,SMDPad,CuDef*%
G36*
G01*
X46126998Y-42690000D02*
X45756998Y-42690000D01*
G75*
G02*
X45621998Y-42555000I0J135000D01*
G01*
X45621998Y-42285000D01*
G75*
G02*
X45756998Y-42150000I135000J0D01*
G01*
X46126998Y-42150000D01*
G75*
G02*
X46261998Y-42285000I0J-135000D01*
G01*
X46261998Y-42555000D01*
G75*
G02*
X46126998Y-42690000I-135000J0D01*
G01*
G37*
%TD.AperFunction*%
%TD*%
%TO.P,R12,2*%
%TO.N,Net-(D3-Pad2)*%
%TA.AperFunction,SMDPad,CuDef*%
G36*
G01*
X26296200Y-53491160D02*
X25926200Y-53491160D01*
G75*
G02*
X25791200Y-53356160I0J135000D01*
G01*
X25791200Y-53086160D01*
G75*
G02*
X25926200Y-52951160I135000J0D01*
G01*
X26296200Y-52951160D01*
G75*
G02*
X26431200Y-53086160I0J-135000D01*
G01*
X26431200Y-53356160D01*
G75*
G02*
X26296200Y-53491160I-135000J0D01*
G01*
G37*
%TD.AperFunction*%
%TO.P,R12,1*%
%TO.N,DEBUG_LED*%
%TA.AperFunction,SMDPad,CuDef*%
G36*
G01*
X26296200Y-54511160D02*
X25926200Y-54511160D01*
G75*
G02*
X25791200Y-54376160I0J135000D01*
G01*
X25791200Y-54106160D01*
G75*
G02*
X25926200Y-53971160I135000J0D01*
G01*
X26296200Y-53971160D01*
G75*
G02*
X26431200Y-54106160I0J-135000D01*
G01*
X26431200Y-54376160D01*
G75*
G02*
X26296200Y-54511160I-135000J0D01*
G01*
G37*
%TD.AperFunction*%
%TD*%
%TO.P,R11,2*%
%TO.N,ADB_1_PWR_ON*%
%TA.AperFunction,SMDPad,CuDef*%
G36*
G01*
X29156240Y-70983600D02*
X28786240Y-70983600D01*
G75*
G02*
X28651240Y-70848600I0J135000D01*
G01*
X28651240Y-70578600D01*
G75*
G02*
X28786240Y-70443600I135000J0D01*
G01*
X29156240Y-70443600D01*
G75*
G02*
X29291240Y-70578600I0J-135000D01*
G01*
X29291240Y-70848600D01*
G75*
G02*
X29156240Y-70983600I-135000J0D01*
G01*
G37*
%TD.AperFunction*%
%TO.P,R11,1*%
%TO.N,ADB_1_5v*%
%TA.AperFunction,SMDPad,CuDef*%
G36*
G01*
X29156240Y-72003600D02*
X28786240Y-72003600D01*
G75*
G02*
X28651240Y-71868600I0J135000D01*
G01*
X28651240Y-71598600D01*
G75*
G02*
X28786240Y-71463600I135000J0D01*
G01*
X29156240Y-71463600D01*
G75*
G02*
X29291240Y-71598600I0J-135000D01*
G01*
X29291240Y-71868600D01*
G75*
G02*
X29156240Y-72003600I-135000J0D01*
G01*
G37*
%TD.AperFunction*%
%TD*%
%TO.P,R10,2*%
%TO.N,ADB_PWR_ON_LV*%
%TA.AperFunction,SMDPad,CuDef*%
G36*
G01*
X33343000Y-71461600D02*
X33713000Y-71461600D01*
G75*
G02*
X33848000Y-71596600I0J-135000D01*
G01*
X33848000Y-71866600D01*
G75*
G02*
X33713000Y-72001600I-135000J0D01*
G01*
X33343000Y-72001600D01*
G75*
G02*
X33208000Y-71866600I0J135000D01*
G01*
X33208000Y-71596600D01*
G75*
G02*
X33343000Y-71461600I135000J0D01*
G01*
G37*
%TD.AperFunction*%
%TO.P,R10,1*%
%TO.N,+3V3*%
%TA.AperFunction,SMDPad,CuDef*%
G36*
G01*
X33343000Y-70441600D02*
X33713000Y-70441600D01*
G75*
G02*
X33848000Y-70576600I0J-135000D01*
G01*
X33848000Y-70846600D01*
G75*
G02*
X33713000Y-70981600I-135000J0D01*
G01*
X33343000Y-70981600D01*
G75*
G02*
X33208000Y-70846600I0J135000D01*
G01*
X33208000Y-70576600D01*
G75*
G02*
X33343000Y-70441600I135000J0D01*
G01*
G37*
%TD.AperFunction*%
%TD*%
%TO.P,R9,2*%
%TO.N,ADB_1_DATA*%
%TA.AperFunction,SMDPad,CuDef*%
G36*
G01*
X41668280Y-70983600D02*
X41298280Y-70983600D01*
G75*
G02*
X41163280Y-70848600I0J135000D01*
G01*
X41163280Y-70578600D01*
G75*
G02*
X41298280Y-70443600I135000J0D01*
G01*
X41668280Y-70443600D01*
G75*
G02*
X41803280Y-70578600I0J-135000D01*
G01*
X41803280Y-70848600D01*
G75*
G02*
X41668280Y-70983600I-135000J0D01*
G01*
G37*
%TD.AperFunction*%
%TO.P,R9,1*%
%TO.N,ADB_1_5v*%
%TA.AperFunction,SMDPad,CuDef*%
G36*
G01*
X41668280Y-72003600D02*
X41298280Y-72003600D01*
G75*
G02*
X41163280Y-71868600I0J135000D01*
G01*
X41163280Y-71598600D01*
G75*
G02*
X41298280Y-71463600I135000J0D01*
G01*
X41668280Y-71463600D01*
G75*
G02*
X41803280Y-71598600I0J-135000D01*
G01*
X41803280Y-71868600D01*
G75*
G02*
X41668280Y-72003600I-135000J0D01*
G01*
G37*
%TD.AperFunction*%
%TD*%
%TO.P,R8,2*%
%TO.N,ADB_DATA_LV*%
%TA.AperFunction,SMDPad,CuDef*%
G36*
G01*
X45849960Y-71458520D02*
X46219960Y-71458520D01*
G75*
G02*
X46354960Y-71593520I0J-135000D01*
G01*
X46354960Y-71863520D01*
G75*
G02*
X46219960Y-71998520I-135000J0D01*
G01*
X45849960Y-71998520D01*
G75*
G02*
X45714960Y-71863520I0J135000D01*
G01*
X45714960Y-71593520D01*
G75*
G02*
X45849960Y-71458520I135000J0D01*
G01*
G37*
%TD.AperFunction*%
%TO.P,R8,1*%
%TO.N,+3V3*%
%TA.AperFunction,SMDPad,CuDef*%
G36*
G01*
X45849960Y-70438520D02*
X46219960Y-70438520D01*
G75*
G02*
X46354960Y-70573520I0J-135000D01*
G01*
X46354960Y-70843520D01*
G75*
G02*
X46219960Y-70978520I-135000J0D01*
G01*
X45849960Y-70978520D01*
G75*
G02*
X45714960Y-70843520I0J135000D01*
G01*
X45714960Y-70573520D01*
G75*
G02*
X45849960Y-70438520I135000J0D01*
G01*
G37*
%TD.AperFunction*%
%TD*%
%TO.P,R7,2*%
%TO.N,Net-(J3-Pad3)*%
%TA.AperFunction,SMDPad,CuDef*%
G36*
G01*
X39638000Y-31819000D02*
X39638000Y-32189000D01*
G75*
G02*
X39503000Y-32324000I-135000J0D01*
G01*
X39233000Y-32324000D01*
G75*
G02*
X39098000Y-32189000I0J135000D01*
G01*
X39098000Y-31819000D01*
G75*
G02*
X39233000Y-31684000I135000J0D01*
G01*
X39503000Y-31684000D01*
G75*
G02*
X39638000Y-31819000I0J-135000D01*
G01*
G37*
%TD.AperFunction*%
%TO.P,R7,1*%
%TO.N,Host_USB_D+*%
%TA.AperFunction,SMDPad,CuDef*%
G36*
G01*
X40658000Y-31819000D02*
X40658000Y-32189000D01*
G75*
G02*
X40523000Y-32324000I-135000J0D01*
G01*
X40253000Y-32324000D01*
G75*
G02*
X40118000Y-32189000I0J135000D01*
G01*
X40118000Y-31819000D01*
G75*
G02*
X40253000Y-31684000I135000J0D01*
G01*
X40523000Y-31684000D01*
G75*
G02*
X40658000Y-31819000I0J-135000D01*
G01*
G37*
%TD.AperFunction*%
%TD*%
%TO.P,R6,2*%
%TO.N,Host_USB_D-*%
%TA.AperFunction,SMDPad,CuDef*%
G36*
G01*
X40116000Y-34729000D02*
X40116000Y-34359000D01*
G75*
G02*
X40251000Y-34224000I135000J0D01*
G01*
X40521000Y-34224000D01*
G75*
G02*
X40656000Y-34359000I0J-135000D01*
G01*
X40656000Y-34729000D01*
G75*
G02*
X40521000Y-34864000I-135000J0D01*
G01*
X40251000Y-34864000D01*
G75*
G02*
X40116000Y-34729000I0J135000D01*
G01*
G37*
%TD.AperFunction*%
%TO.P,R6,1*%
%TO.N,Net-(J3-Pad2)*%
%TA.AperFunction,SMDPad,CuDef*%
G36*
G01*
X39096000Y-34729000D02*
X39096000Y-34359000D01*
G75*
G02*
X39231000Y-34224000I135000J0D01*
G01*
X39501000Y-34224000D01*
G75*
G02*
X39636000Y-34359000I0J-135000D01*
G01*
X39636000Y-34729000D01*
G75*
G02*
X39501000Y-34864000I-135000J0D01*
G01*
X39231000Y-34864000D01*
G75*
G02*
X39096000Y-34729000I0J135000D01*
G01*
G37*
%TD.AperFunction*%
%TD*%
%TO.P,R5,2*%
%TO.N,Net-(D2-Pad2)*%
%TA.AperFunction,SMDPad,CuDef*%
G36*
G01*
X30024640Y-40983320D02*
X30024640Y-41353320D01*
G75*
G02*
X29889640Y-41488320I-135000J0D01*
G01*
X29619640Y-41488320D01*
G75*
G02*
X29484640Y-41353320I0J135000D01*
G01*
X29484640Y-40983320D01*
G75*
G02*
X29619640Y-40848320I135000J0D01*
G01*
X29889640Y-40848320D01*
G75*
G02*
X30024640Y-40983320I0J-135000D01*
G01*
G37*
%TD.AperFunction*%
%TO.P,R5,1*%
%TO.N,VBUS*%
%TA.AperFunction,SMDPad,CuDef*%
G36*
G01*
X31044640Y-40983320D02*
X31044640Y-41353320D01*
G75*
G02*
X30909640Y-41488320I-135000J0D01*
G01*
X30639640Y-41488320D01*
G75*
G02*
X30504640Y-41353320I0J135000D01*
G01*
X30504640Y-40983320D01*
G75*
G02*
X30639640Y-40848320I135000J0D01*
G01*
X30909640Y-40848320D01*
G75*
G02*
X31044640Y-40983320I0J-135000D01*
G01*
G37*
%TD.AperFunction*%
%TD*%
%TO.P,R4,2*%
%TO.N,Net-(D1-Pad2)*%
%TA.AperFunction,SMDPad,CuDef*%
G36*
G01*
X30019560Y-41994240D02*
X30019560Y-42364240D01*
G75*
G02*
X29884560Y-42499240I-135000J0D01*
G01*
X29614560Y-42499240D01*
G75*
G02*
X29479560Y-42364240I0J135000D01*
G01*
X29479560Y-41994240D01*
G75*
G02*
X29614560Y-41859240I135000J0D01*
G01*
X29884560Y-41859240D01*
G75*
G02*
X30019560Y-41994240I0J-135000D01*
G01*
G37*
%TD.AperFunction*%
%TO.P,R4,1*%
%TO.N,+3V3*%
%TA.AperFunction,SMDPad,CuDef*%
G36*
G01*
X31039560Y-41994240D02*
X31039560Y-42364240D01*
G75*
G02*
X30904560Y-42499240I-135000J0D01*
G01*
X30634560Y-42499240D01*
G75*
G02*
X30499560Y-42364240I0J135000D01*
G01*
X30499560Y-41994240D01*
G75*
G02*
X30634560Y-41859240I135000J0D01*
G01*
X30904560Y-41859240D01*
G75*
G02*
X31039560Y-41994240I0J-135000D01*
G01*
G37*
%TD.AperFunction*%
%TD*%
%TO.P,R3,2*%
%TO.N,MAX3421_INT*%
%TA.AperFunction,SMDPad,CuDef*%
G36*
G01*
X37407000Y-41896000D02*
X37777000Y-41896000D01*
G75*
G02*
X37912000Y-42031000I0J-135000D01*
G01*
X37912000Y-42301000D01*
G75*
G02*
X37777000Y-42436000I-135000J0D01*
G01*
X37407000Y-42436000D01*
G75*
G02*
X37272000Y-42301000I0J135000D01*
G01*
X37272000Y-42031000D01*
G75*
G02*
X37407000Y-41896000I135000J0D01*
G01*
G37*
%TD.AperFunction*%
%TO.P,R3,1*%
%TO.N,+3V3*%
%TA.AperFunction,SMDPad,CuDef*%
G36*
G01*
X37407000Y-40876000D02*
X37777000Y-40876000D01*
G75*
G02*
X37912000Y-41011000I0J-135000D01*
G01*
X37912000Y-41281000D01*
G75*
G02*
X37777000Y-41416000I-135000J0D01*
G01*
X37407000Y-41416000D01*
G75*
G02*
X37272000Y-41281000I0J135000D01*
G01*
X37272000Y-41011000D01*
G75*
G02*
X37407000Y-40876000I135000J0D01*
G01*
G37*
%TD.AperFunction*%
%TD*%
%TO.P,R2,2*%
%TO.N,/RESET*%
%TA.AperFunction,SMDPad,CuDef*%
G36*
G01*
X44314960Y-68469000D02*
X43944960Y-68469000D01*
G75*
G02*
X43809960Y-68334000I0J135000D01*
G01*
X43809960Y-68064000D01*
G75*
G02*
X43944960Y-67929000I135000J0D01*
G01*
X44314960Y-67929000D01*
G75*
G02*
X44449960Y-68064000I0J-135000D01*
G01*
X44449960Y-68334000D01*
G75*
G02*
X44314960Y-68469000I-135000J0D01*
G01*
G37*
%TD.AperFunction*%
%TO.P,R2,1*%
%TO.N,+3V3*%
%TA.AperFunction,SMDPad,CuDef*%
G36*
G01*
X44314960Y-69489000D02*
X43944960Y-69489000D01*
G75*
G02*
X43809960Y-69354000I0J135000D01*
G01*
X43809960Y-69084000D01*
G75*
G02*
X43944960Y-68949000I135000J0D01*
G01*
X44314960Y-68949000D01*
G75*
G02*
X44449960Y-69084000I0J-135000D01*
G01*
X44449960Y-69354000D01*
G75*
G02*
X44314960Y-69489000I-135000J0D01*
G01*
G37*
%TD.AperFunction*%
%TD*%
%TO.P,R1,2*%
%TO.N,Net-(C7-Pad1)*%
%TA.AperFunction,SMDPad,CuDef*%
G36*
G01*
X43446000Y-52901000D02*
X43446000Y-53271000D01*
G75*
G02*
X43311000Y-53406000I-135000J0D01*
G01*
X43041000Y-53406000D01*
G75*
G02*
X42906000Y-53271000I0J135000D01*
G01*
X42906000Y-52901000D01*
G75*
G02*
X43041000Y-52766000I135000J0D01*
G01*
X43311000Y-52766000D01*
G75*
G02*
X43446000Y-52901000I0J-135000D01*
G01*
G37*
%TD.AperFunction*%
%TO.P,R1,1*%
%TO.N,Net-(C6-Pad1)*%
%TA.AperFunction,SMDPad,CuDef*%
G36*
G01*
X44466000Y-52901000D02*
X44466000Y-53271000D01*
G75*
G02*
X44331000Y-53406000I-135000J0D01*
G01*
X44061000Y-53406000D01*
G75*
G02*
X43926000Y-53271000I0J135000D01*
G01*
X43926000Y-52901000D01*
G75*
G02*
X44061000Y-52766000I135000J0D01*
G01*
X44331000Y-52766000D01*
G75*
G02*
X44466000Y-52901000I0J-135000D01*
G01*
G37*
%TD.AperFunction*%
%TD*%
%TO.P,C16,2*%
%TO.N,GND*%
%TA.AperFunction,SMDPad,CuDef*%
G36*
G01*
X31773800Y-67703002D02*
X32014216Y-67943418D01*
G75*
G02*
X32014216Y-68141408I-98995J-98995D01*
G01*
X31816226Y-68339398D01*
G75*
G02*
X31618236Y-68339398I-98995J98995D01*
G01*
X31377820Y-68098982D01*
G75*
G02*
X31377820Y-67900992I98995J98995D01*
G01*
X31575810Y-67703002D01*
G75*
G02*
X31773800Y-67703002I98995J-98995D01*
G01*
G37*
%TD.AperFunction*%
%TO.P,C16,1*%
%TO.N,+3V3*%
%TA.AperFunction,SMDPad,CuDef*%
G36*
G01*
X32452622Y-67024180D02*
X32693038Y-67264596D01*
G75*
G02*
X32693038Y-67462586I-98995J-98995D01*
G01*
X32495048Y-67660576D01*
G75*
G02*
X32297058Y-67660576I-98995J98995D01*
G01*
X32056642Y-67420160D01*
G75*
G02*
X32056642Y-67222170I98995J98995D01*
G01*
X32254632Y-67024180D01*
G75*
G02*
X32452622Y-67024180I98995J-98995D01*
G01*
G37*
%TD.AperFunction*%
%TD*%
%TO.P,C15,2*%
%TO.N,GND*%
%TA.AperFunction,SMDPad,CuDef*%
G36*
G01*
X42439213Y-60713629D02*
X42679629Y-60473213D01*
G75*
G02*
X42877619Y-60473213I98995J-98995D01*
G01*
X43075609Y-60671203D01*
G75*
G02*
X43075609Y-60869193I-98995J-98995D01*
G01*
X42835193Y-61109609D01*
G75*
G02*
X42637203Y-61109609I-98995J98995D01*
G01*
X42439213Y-60911619D01*
G75*
G02*
X42439213Y-60713629I98995J98995D01*
G01*
G37*
%TD.AperFunction*%
%TO.P,C15,1*%
%TO.N,+3V3*%
%TA.AperFunction,SMDPad,CuDef*%
G36*
G01*
X41760391Y-60034807D02*
X42000807Y-59794391D01*
G75*
G02*
X42198797Y-59794391I98995J-98995D01*
G01*
X42396787Y-59992381D01*
G75*
G02*
X42396787Y-60190371I-98995J-98995D01*
G01*
X42156371Y-60430787D01*
G75*
G02*
X41958381Y-60430787I-98995J98995D01*
G01*
X41760391Y-60232797D01*
G75*
G02*
X41760391Y-60034807I98995J98995D01*
G01*
G37*
%TD.AperFunction*%
%TD*%
%TO.P,C14,2*%
%TO.N,GND*%
%TA.AperFunction,SMDPad,CuDef*%
G36*
G01*
X40915213Y-59189629D02*
X41155629Y-58949213D01*
G75*
G02*
X41353619Y-58949213I98995J-98995D01*
G01*
X41551609Y-59147203D01*
G75*
G02*
X41551609Y-59345193I-98995J-98995D01*
G01*
X41311193Y-59585609D01*
G75*
G02*
X41113203Y-59585609I-98995J98995D01*
G01*
X40915213Y-59387619D01*
G75*
G02*
X40915213Y-59189629I98995J98995D01*
G01*
G37*
%TD.AperFunction*%
%TO.P,C14,1*%
%TO.N,+3V3*%
%TA.AperFunction,SMDPad,CuDef*%
G36*
G01*
X40236391Y-58510807D02*
X40476807Y-58270391D01*
G75*
G02*
X40674797Y-58270391I98995J-98995D01*
G01*
X40872787Y-58468381D01*
G75*
G02*
X40872787Y-58666371I-98995J-98995D01*
G01*
X40632371Y-58906787D01*
G75*
G02*
X40434381Y-58906787I-98995J98995D01*
G01*
X40236391Y-58708797D01*
G75*
G02*
X40236391Y-58510807I98995J98995D01*
G01*
G37*
%TD.AperFunction*%
%TD*%
%TO.P,C12,2*%
%TO.N,GND*%
%TA.AperFunction,SMDPad,CuDef*%
G36*
G01*
X35106000Y-43264000D02*
X35106000Y-43604000D01*
G75*
G02*
X34966000Y-43744000I-140000J0D01*
G01*
X34686000Y-43744000D01*
G75*
G02*
X34546000Y-43604000I0J140000D01*
G01*
X34546000Y-43264000D01*
G75*
G02*
X34686000Y-43124000I140000J0D01*
G01*
X34966000Y-43124000D01*
G75*
G02*
X35106000Y-43264000I0J-140000D01*
G01*
G37*
%TD.AperFunction*%
%TO.P,C12,1*%
%TO.N,Net-(C12-Pad1)*%
%TA.AperFunction,SMDPad,CuDef*%
G36*
G01*
X36066000Y-43264000D02*
X36066000Y-43604000D01*
G75*
G02*
X35926000Y-43744000I-140000J0D01*
G01*
X35646000Y-43744000D01*
G75*
G02*
X35506000Y-43604000I0J140000D01*
G01*
X35506000Y-43264000D01*
G75*
G02*
X35646000Y-43124000I140000J0D01*
G01*
X35926000Y-43124000D01*
G75*
G02*
X36066000Y-43264000I0J-140000D01*
G01*
G37*
%TD.AperFunction*%
%TD*%
%TO.P,C11,2*%
%TO.N,GND*%
%TA.AperFunction,SMDPad,CuDef*%
G36*
G01*
X32204000Y-43604000D02*
X32204000Y-43264000D01*
G75*
G02*
X32344000Y-43124000I140000J0D01*
G01*
X32624000Y-43124000D01*
G75*
G02*
X32764000Y-43264000I0J-140000D01*
G01*
X32764000Y-43604000D01*
G75*
G02*
X32624000Y-43744000I-140000J0D01*
G01*
X32344000Y-43744000D01*
G75*
G02*
X32204000Y-43604000I0J140000D01*
G01*
G37*
%TD.AperFunction*%
%TO.P,C11,1*%
%TO.N,Net-(C11-Pad1)*%
%TA.AperFunction,SMDPad,CuDef*%
G36*
G01*
X31244000Y-43604000D02*
X31244000Y-43264000D01*
G75*
G02*
X31384000Y-43124000I140000J0D01*
G01*
X31664000Y-43124000D01*
G75*
G02*
X31804000Y-43264000I0J-140000D01*
G01*
X31804000Y-43604000D01*
G75*
G02*
X31664000Y-43744000I-140000J0D01*
G01*
X31384000Y-43744000D01*
G75*
G02*
X31244000Y-43604000I0J140000D01*
G01*
G37*
%TD.AperFunction*%
%TD*%
%TO.P,C10,2*%
%TO.N,GND*%
%TA.AperFunction,SMDPad,CuDef*%
G36*
G01*
X31804000Y-50376000D02*
X31804000Y-50716000D01*
G75*
G02*
X31664000Y-50856000I-140000J0D01*
G01*
X31384000Y-50856000D01*
G75*
G02*
X31244000Y-50716000I0J140000D01*
G01*
X31244000Y-50376000D01*
G75*
G02*
X31384000Y-50236000I140000J0D01*
G01*
X31664000Y-50236000D01*
G75*
G02*
X31804000Y-50376000I0J-140000D01*
G01*
G37*
%TD.AperFunction*%
%TO.P,C10,1*%
%TO.N,Net-(C10-Pad1)*%
%TA.AperFunction,SMDPad,CuDef*%
G36*
G01*
X32764000Y-50376000D02*
X32764000Y-50716000D01*
G75*
G02*
X32624000Y-50856000I-140000J0D01*
G01*
X32344000Y-50856000D01*
G75*
G02*
X32204000Y-50716000I0J140000D01*
G01*
X32204000Y-50376000D01*
G75*
G02*
X32344000Y-50236000I140000J0D01*
G01*
X32624000Y-50236000D01*
G75*
G02*
X32764000Y-50376000I0J-140000D01*
G01*
G37*
%TD.AperFunction*%
%TD*%
%TO.P,C9,2*%
%TO.N,GND*%
%TA.AperFunction,SMDPad,CuDef*%
G36*
G01*
X35044371Y-44979213D02*
X35284787Y-45219629D01*
G75*
G02*
X35284787Y-45417619I-98995J-98995D01*
G01*
X35086797Y-45615609D01*
G75*
G02*
X34888807Y-45615609I-98995J98995D01*
G01*
X34648391Y-45375193D01*
G75*
G02*
X34648391Y-45177203I98995J98995D01*
G01*
X34846381Y-44979213D01*
G75*
G02*
X35044371Y-44979213I98995J-98995D01*
G01*
G37*
%TD.AperFunction*%
%TO.P,C9,1*%
%TO.N,+3V3*%
%TA.AperFunction,SMDPad,CuDef*%
G36*
G01*
X35723193Y-44300391D02*
X35963609Y-44540807D01*
G75*
G02*
X35963609Y-44738797I-98995J-98995D01*
G01*
X35765619Y-44936787D01*
G75*
G02*
X35567629Y-44936787I-98995J98995D01*
G01*
X35327213Y-44696371D01*
G75*
G02*
X35327213Y-44498381I98995J98995D01*
G01*
X35525203Y-44300391D01*
G75*
G02*
X35723193Y-44300391I98995J-98995D01*
G01*
G37*
%TD.AperFunction*%
%TD*%
%TO.P,C8,2*%
%TO.N,GND*%
%TA.AperFunction,SMDPad,CuDef*%
G36*
G01*
X43187629Y-51032787D02*
X42947213Y-50792371D01*
G75*
G02*
X42947213Y-50594381I98995J98995D01*
G01*
X43145203Y-50396391D01*
G75*
G02*
X43343193Y-50396391I98995J-98995D01*
G01*
X43583609Y-50636807D01*
G75*
G02*
X43583609Y-50834797I-98995J-98995D01*
G01*
X43385619Y-51032787D01*
G75*
G02*
X43187629Y-51032787I-98995J98995D01*
G01*
G37*
%TD.AperFunction*%
%TO.P,C8,1*%
%TO.N,+3V3*%
%TA.AperFunction,SMDPad,CuDef*%
G36*
G01*
X42508807Y-51711609D02*
X42268391Y-51471193D01*
G75*
G02*
X42268391Y-51273203I98995J98995D01*
G01*
X42466381Y-51075213D01*
G75*
G02*
X42664371Y-51075213I98995J-98995D01*
G01*
X42904787Y-51315629D01*
G75*
G02*
X42904787Y-51513619I-98995J-98995D01*
G01*
X42706797Y-51711609D01*
G75*
G02*
X42508807Y-51711609I-98995J98995D01*
G01*
G37*
%TD.AperFunction*%
%TD*%
%TO.P,C7,2*%
%TO.N,GND*%
%TA.AperFunction,SMDPad,CuDef*%
G36*
G01*
X40302000Y-54410000D02*
X39962000Y-54410000D01*
G75*
G02*
X39822000Y-54270000I0J140000D01*
G01*
X39822000Y-53990000D01*
G75*
G02*
X39962000Y-53850000I140000J0D01*
G01*
X40302000Y-53850000D01*
G75*
G02*
X40442000Y-53990000I0J-140000D01*
G01*
X40442000Y-54270000D01*
G75*
G02*
X40302000Y-54410000I-140000J0D01*
G01*
G37*
%TD.AperFunction*%
%TO.P,C7,1*%
%TO.N,Net-(C7-Pad1)*%
%TA.AperFunction,SMDPad,CuDef*%
G36*
G01*
X40302000Y-55370000D02*
X39962000Y-55370000D01*
G75*
G02*
X39822000Y-55230000I0J140000D01*
G01*
X39822000Y-54950000D01*
G75*
G02*
X39962000Y-54810000I140000J0D01*
G01*
X40302000Y-54810000D01*
G75*
G02*
X40442000Y-54950000I0J-140000D01*
G01*
X40442000Y-55230000D01*
G75*
G02*
X40302000Y-55370000I-140000J0D01*
G01*
G37*
%TD.AperFunction*%
%TD*%
%TO.P,C6,2*%
%TO.N,GND*%
%TA.AperFunction,SMDPad,CuDef*%
G36*
G01*
X45296000Y-54810000D02*
X45636000Y-54810000D01*
G75*
G02*
X45776000Y-54950000I0J-140000D01*
G01*
X45776000Y-55230000D01*
G75*
G02*
X45636000Y-55370000I-140000J0D01*
G01*
X45296000Y-55370000D01*
G75*
G02*
X45156000Y-55230000I0J140000D01*
G01*
X45156000Y-54950000D01*
G75*
G02*
X45296000Y-54810000I140000J0D01*
G01*
G37*
%TD.AperFunction*%
%TO.P,C6,1*%
%TO.N,Net-(C6-Pad1)*%
%TA.AperFunction,SMDPad,CuDef*%
G36*
G01*
X45296000Y-53850000D02*
X45636000Y-53850000D01*
G75*
G02*
X45776000Y-53990000I0J-140000D01*
G01*
X45776000Y-54270000D01*
G75*
G02*
X45636000Y-54410000I-140000J0D01*
G01*
X45296000Y-54410000D01*
G75*
G02*
X45156000Y-54270000I0J140000D01*
G01*
X45156000Y-53990000D01*
G75*
G02*
X45296000Y-53850000I140000J0D01*
G01*
G37*
%TD.AperFunction*%
%TD*%
%TO.P,C5,2*%
%TO.N,FTDI_DTR*%
%TA.AperFunction,SMDPad,CuDef*%
G36*
G01*
X44299960Y-66376000D02*
X43959960Y-66376000D01*
G75*
G02*
X43819960Y-66236000I0J140000D01*
G01*
X43819960Y-65956000D01*
G75*
G02*
X43959960Y-65816000I140000J0D01*
G01*
X44299960Y-65816000D01*
G75*
G02*
X44439960Y-65956000I0J-140000D01*
G01*
X44439960Y-66236000D01*
G75*
G02*
X44299960Y-66376000I-140000J0D01*
G01*
G37*
%TD.AperFunction*%
%TO.P,C5,1*%
%TO.N,/RESET*%
%TA.AperFunction,SMDPad,CuDef*%
G36*
G01*
X44299960Y-67336000D02*
X43959960Y-67336000D01*
G75*
G02*
X43819960Y-67196000I0J140000D01*
G01*
X43819960Y-66916000D01*
G75*
G02*
X43959960Y-66776000I140000J0D01*
G01*
X44299960Y-66776000D01*
G75*
G02*
X44439960Y-66916000I0J-140000D01*
G01*
X44439960Y-67196000D01*
G75*
G02*
X44299960Y-67336000I-140000J0D01*
G01*
G37*
%TD.AperFunction*%
%TD*%
%TO.P,C4,2*%
%TO.N,GND*%
%TA.AperFunction,SMDPad,CuDef*%
G36*
G01*
X31188000Y-39032000D02*
X31188000Y-38692000D01*
G75*
G02*
X31328000Y-38552000I140000J0D01*
G01*
X31608000Y-38552000D01*
G75*
G02*
X31748000Y-38692000I0J-140000D01*
G01*
X31748000Y-39032000D01*
G75*
G02*
X31608000Y-39172000I-140000J0D01*
G01*
X31328000Y-39172000D01*
G75*
G02*
X31188000Y-39032000I0J140000D01*
G01*
G37*
%TD.AperFunction*%
%TO.P,C4,1*%
%TO.N,+3V3*%
%TA.AperFunction,SMDPad,CuDef*%
G36*
G01*
X30228000Y-39032000D02*
X30228000Y-38692000D01*
G75*
G02*
X30368000Y-38552000I140000J0D01*
G01*
X30648000Y-38552000D01*
G75*
G02*
X30788000Y-38692000I0J-140000D01*
G01*
X30788000Y-39032000D01*
G75*
G02*
X30648000Y-39172000I-140000J0D01*
G01*
X30368000Y-39172000D01*
G75*
G02*
X30228000Y-39032000I0J140000D01*
G01*
G37*
%TD.AperFunction*%
%TD*%
%TO.P,C3,2*%
%TO.N,GND*%
%TA.AperFunction,SMDPad,CuDef*%
G36*
G01*
X28756000Y-38692000D02*
X28756000Y-39032000D01*
G75*
G02*
X28616000Y-39172000I-140000J0D01*
G01*
X28336000Y-39172000D01*
G75*
G02*
X28196000Y-39032000I0J140000D01*
G01*
X28196000Y-38692000D01*
G75*
G02*
X28336000Y-38552000I140000J0D01*
G01*
X28616000Y-38552000D01*
G75*
G02*
X28756000Y-38692000I0J-140000D01*
G01*
G37*
%TD.AperFunction*%
%TO.P,C3,1*%
%TO.N,+3V3*%
%TA.AperFunction,SMDPad,CuDef*%
G36*
G01*
X29716000Y-38692000D02*
X29716000Y-39032000D01*
G75*
G02*
X29576000Y-39172000I-140000J0D01*
G01*
X29296000Y-39172000D01*
G75*
G02*
X29156000Y-39032000I0J140000D01*
G01*
X29156000Y-38692000D01*
G75*
G02*
X29296000Y-38552000I140000J0D01*
G01*
X29576000Y-38552000D01*
G75*
G02*
X29716000Y-38692000I0J-140000D01*
G01*
G37*
%TD.AperFunction*%
%TD*%
%TO.P,C2,2*%
%TO.N,GND*%
%TA.AperFunction,SMDPad,CuDef*%
G36*
G01*
X32463731Y-68398013D02*
X32704147Y-68638429D01*
G75*
G02*
X32704147Y-68836419I-98995J-98995D01*
G01*
X32506157Y-69034409D01*
G75*
G02*
X32308167Y-69034409I-98995J98995D01*
G01*
X32067751Y-68793993D01*
G75*
G02*
X32067751Y-68596003I98995J98995D01*
G01*
X32265741Y-68398013D01*
G75*
G02*
X32463731Y-68398013I98995J-98995D01*
G01*
G37*
%TD.AperFunction*%
%TO.P,C2,1*%
%TO.N,Net-(C2-Pad1)*%
%TA.AperFunction,SMDPad,CuDef*%
G36*
G01*
X33142553Y-67719191D02*
X33382969Y-67959607D01*
G75*
G02*
X33382969Y-68157597I-98995J-98995D01*
G01*
X33184979Y-68355587D01*
G75*
G02*
X32986989Y-68355587I-98995J98995D01*
G01*
X32746573Y-68115171D01*
G75*
G02*
X32746573Y-67917181I98995J98995D01*
G01*
X32944563Y-67719191D01*
G75*
G02*
X33142553Y-67719191I98995J-98995D01*
G01*
G37*
%TD.AperFunction*%
%TD*%
%TO.P,C1,2*%
%TO.N,GND*%
%TA.AperFunction,SMDPad,CuDef*%
G36*
G01*
X34120000Y-37284000D02*
X34460000Y-37284000D01*
G75*
G02*
X34600000Y-37424000I0J-140000D01*
G01*
X34600000Y-37704000D01*
G75*
G02*
X34460000Y-37844000I-140000J0D01*
G01*
X34120000Y-37844000D01*
G75*
G02*
X33980000Y-37704000I0J140000D01*
G01*
X33980000Y-37424000D01*
G75*
G02*
X34120000Y-37284000I140000J0D01*
G01*
G37*
%TD.AperFunction*%
%TO.P,C1,1*%
%TO.N,VBUS*%
%TA.AperFunction,SMDPad,CuDef*%
G36*
G01*
X34120000Y-36324000D02*
X34460000Y-36324000D01*
G75*
G02*
X34600000Y-36464000I0J-140000D01*
G01*
X34600000Y-36744000D01*
G75*
G02*
X34460000Y-36884000I-140000J0D01*
G01*
X34120000Y-36884000D01*
G75*
G02*
X33980000Y-36744000I0J140000D01*
G01*
X33980000Y-36464000D01*
G75*
G02*
X34120000Y-36324000I140000J0D01*
G01*
G37*
%TD.AperFunction*%
%TD*%
D16*
%TO.P,TP13,1*%
%TO.N,MAX3421_RESET*%
X31072666Y-56896000D03*
%TD*%
%TO.P,TP12,1*%
%TO.N,ADB_DATA_LV*%
X48260000Y-71120000D03*
%TD*%
%TO.P,TP11,1*%
%TO.N,ADB_PWR_ON_LV*%
X47244000Y-63500000D03*
%TD*%
%TO.P,D3,2*%
%TO.N,Net-(D3-Pad2)*%
%TA.AperFunction,SMDPad,CuDef*%
G36*
G01*
X25654950Y-51273100D02*
X26567450Y-51273100D01*
G75*
G02*
X26811200Y-51516850I0J-243750D01*
G01*
X26811200Y-52004350D01*
G75*
G02*
X26567450Y-52248100I-243750J0D01*
G01*
X25654950Y-52248100D01*
G75*
G02*
X25411200Y-52004350I0J243750D01*
G01*
X25411200Y-51516850D01*
G75*
G02*
X25654950Y-51273100I243750J0D01*
G01*
G37*
%TD.AperFunction*%
%TO.P,D3,1*%
%TO.N,GND*%
%TA.AperFunction,SMDPad,CuDef*%
G36*
G01*
X25654950Y-49398100D02*
X26567450Y-49398100D01*
G75*
G02*
X26811200Y-49641850I0J-243750D01*
G01*
X26811200Y-50129350D01*
G75*
G02*
X26567450Y-50373100I-243750J0D01*
G01*
X25654950Y-50373100D01*
G75*
G02*
X25411200Y-50129350I0J243750D01*
G01*
X25411200Y-49641850D01*
G75*
G02*
X25654950Y-49398100I243750J0D01*
G01*
G37*
%TD.AperFunction*%
%TD*%
%TO.P,D2,2*%
%TO.N,Net-(D2-Pad2)*%
%TA.AperFunction,SMDPad,CuDef*%
G36*
G01*
X25654950Y-43630000D02*
X26567450Y-43630000D01*
G75*
G02*
X26811200Y-43873750I0J-243750D01*
G01*
X26811200Y-44361250D01*
G75*
G02*
X26567450Y-44605000I-243750J0D01*
G01*
X25654950Y-44605000D01*
G75*
G02*
X25411200Y-44361250I0J243750D01*
G01*
X25411200Y-43873750D01*
G75*
G02*
X25654950Y-43630000I243750J0D01*
G01*
G37*
%TD.AperFunction*%
%TO.P,D2,1*%
%TO.N,GND*%
%TA.AperFunction,SMDPad,CuDef*%
G36*
G01*
X25654950Y-41755000D02*
X26567450Y-41755000D01*
G75*
G02*
X26811200Y-41998750I0J-243750D01*
G01*
X26811200Y-42486250D01*
G75*
G02*
X26567450Y-42730000I-243750J0D01*
G01*
X25654950Y-42730000D01*
G75*
G02*
X25411200Y-42486250I0J243750D01*
G01*
X25411200Y-41998750D01*
G75*
G02*
X25654950Y-41755000I243750J0D01*
G01*
G37*
%TD.AperFunction*%
%TD*%
%TO.P,D1,2*%
%TO.N,Net-(D1-Pad2)*%
%TA.AperFunction,SMDPad,CuDef*%
G36*
G01*
X25654950Y-47451550D02*
X26567450Y-47451550D01*
G75*
G02*
X26811200Y-47695300I0J-243750D01*
G01*
X26811200Y-48182800D01*
G75*
G02*
X26567450Y-48426550I-243750J0D01*
G01*
X25654950Y-48426550D01*
G75*
G02*
X25411200Y-48182800I0J243750D01*
G01*
X25411200Y-47695300D01*
G75*
G02*
X25654950Y-47451550I243750J0D01*
G01*
G37*
%TD.AperFunction*%
%TO.P,D1,1*%
%TO.N,GND*%
%TA.AperFunction,SMDPad,CuDef*%
G36*
G01*
X25654950Y-45576550D02*
X26567450Y-45576550D01*
G75*
G02*
X26811200Y-45820300I0J-243750D01*
G01*
X26811200Y-46307800D01*
G75*
G02*
X26567450Y-46551550I-243750J0D01*
G01*
X25654950Y-46551550D01*
G75*
G02*
X25411200Y-46307800I0J243750D01*
G01*
X25411200Y-45820300D01*
G75*
G02*
X25654950Y-45576550I243750J0D01*
G01*
G37*
%TD.AperFunction*%
%TD*%
%TA.AperFunction,SMDPad,CuDef*%
D12*
%TO.P,JP6,1*%
%TO.N,ATMEGA_SPI_MOSI*%
G36*
X40398000Y-39108000D02*
G01*
X40398000Y-38608000D01*
X40398602Y-38608000D01*
X40398602Y-38583466D01*
X40403412Y-38534635D01*
X40412984Y-38486510D01*
X40427228Y-38439555D01*
X40446005Y-38394222D01*
X40469136Y-38350949D01*
X40496396Y-38310150D01*
X40527524Y-38272221D01*
X40562221Y-38237524D01*
X40600150Y-38206396D01*
X40640949Y-38179136D01*
X40684222Y-38156005D01*
X40729555Y-38137228D01*
X40776510Y-38122984D01*
X40824635Y-38113412D01*
X40873466Y-38108602D01*
X40898000Y-38108602D01*
X40898000Y-38108000D01*
X41398000Y-38108000D01*
X41398000Y-38108602D01*
X41422534Y-38108602D01*
X41471365Y-38113412D01*
X41519490Y-38122984D01*
X41566445Y-38137228D01*
X41611778Y-38156005D01*
X41655051Y-38179136D01*
X41695850Y-38206396D01*
X41733779Y-38237524D01*
X41768476Y-38272221D01*
X41799604Y-38310150D01*
X41826864Y-38350949D01*
X41849995Y-38394222D01*
X41868772Y-38439555D01*
X41883016Y-38486510D01*
X41892588Y-38534635D01*
X41897398Y-38583466D01*
X41897398Y-38608000D01*
X41898000Y-38608000D01*
X41898000Y-39108000D01*
X40398000Y-39108000D01*
G37*
%TD.AperFunction*%
%TA.AperFunction,SMDPad,CuDef*%
%TO.P,JP6,2*%
%TO.N,Net-(JP6-Pad2)*%
G36*
X41897398Y-39908000D02*
G01*
X41897398Y-39932534D01*
X41892588Y-39981365D01*
X41883016Y-40029490D01*
X41868772Y-40076445D01*
X41849995Y-40121778D01*
X41826864Y-40165051D01*
X41799604Y-40205850D01*
X41768476Y-40243779D01*
X41733779Y-40278476D01*
X41695850Y-40309604D01*
X41655051Y-40336864D01*
X41611778Y-40359995D01*
X41566445Y-40378772D01*
X41519490Y-40393016D01*
X41471365Y-40402588D01*
X41422534Y-40407398D01*
X41398000Y-40407398D01*
X41398000Y-40408000D01*
X40898000Y-40408000D01*
X40898000Y-40407398D01*
X40873466Y-40407398D01*
X40824635Y-40402588D01*
X40776510Y-40393016D01*
X40729555Y-40378772D01*
X40684222Y-40359995D01*
X40640949Y-40336864D01*
X40600150Y-40309604D01*
X40562221Y-40278476D01*
X40527524Y-40243779D01*
X40496396Y-40205850D01*
X40469136Y-40165051D01*
X40446005Y-40121778D01*
X40427228Y-40076445D01*
X40412984Y-40029490D01*
X40403412Y-39981365D01*
X40398602Y-39932534D01*
X40398602Y-39908000D01*
X40398000Y-39908000D01*
X40398000Y-39408000D01*
X41898000Y-39408000D01*
X41898000Y-39908000D01*
X41897398Y-39908000D01*
G37*
%TD.AperFunction*%
%TD*%
%TA.AperFunction,SMDPad,CuDef*%
%TO.P,JP5,1*%
%TO.N,ATMEGA_SS*%
G36*
X45478000Y-39108000D02*
G01*
X45478000Y-38608000D01*
X45478602Y-38608000D01*
X45478602Y-38583466D01*
X45483412Y-38534635D01*
X45492984Y-38486510D01*
X45507228Y-38439555D01*
X45526005Y-38394222D01*
X45549136Y-38350949D01*
X45576396Y-38310150D01*
X45607524Y-38272221D01*
X45642221Y-38237524D01*
X45680150Y-38206396D01*
X45720949Y-38179136D01*
X45764222Y-38156005D01*
X45809555Y-38137228D01*
X45856510Y-38122984D01*
X45904635Y-38113412D01*
X45953466Y-38108602D01*
X45978000Y-38108602D01*
X45978000Y-38108000D01*
X46478000Y-38108000D01*
X46478000Y-38108602D01*
X46502534Y-38108602D01*
X46551365Y-38113412D01*
X46599490Y-38122984D01*
X46646445Y-38137228D01*
X46691778Y-38156005D01*
X46735051Y-38179136D01*
X46775850Y-38206396D01*
X46813779Y-38237524D01*
X46848476Y-38272221D01*
X46879604Y-38310150D01*
X46906864Y-38350949D01*
X46929995Y-38394222D01*
X46948772Y-38439555D01*
X46963016Y-38486510D01*
X46972588Y-38534635D01*
X46977398Y-38583466D01*
X46977398Y-38608000D01*
X46978000Y-38608000D01*
X46978000Y-39108000D01*
X45478000Y-39108000D01*
G37*
%TD.AperFunction*%
%TA.AperFunction,SMDPad,CuDef*%
%TO.P,JP5,2*%
%TO.N,Net-(JP5-Pad2)*%
G36*
X46977398Y-39908000D02*
G01*
X46977398Y-39932534D01*
X46972588Y-39981365D01*
X46963016Y-40029490D01*
X46948772Y-40076445D01*
X46929995Y-40121778D01*
X46906864Y-40165051D01*
X46879604Y-40205850D01*
X46848476Y-40243779D01*
X46813779Y-40278476D01*
X46775850Y-40309604D01*
X46735051Y-40336864D01*
X46691778Y-40359995D01*
X46646445Y-40378772D01*
X46599490Y-40393016D01*
X46551365Y-40402588D01*
X46502534Y-40407398D01*
X46478000Y-40407398D01*
X46478000Y-40408000D01*
X45978000Y-40408000D01*
X45978000Y-40407398D01*
X45953466Y-40407398D01*
X45904635Y-40402588D01*
X45856510Y-40393016D01*
X45809555Y-40378772D01*
X45764222Y-40359995D01*
X45720949Y-40336864D01*
X45680150Y-40309604D01*
X45642221Y-40278476D01*
X45607524Y-40243779D01*
X45576396Y-40205850D01*
X45549136Y-40165051D01*
X45526005Y-40121778D01*
X45507228Y-40076445D01*
X45492984Y-40029490D01*
X45483412Y-39981365D01*
X45478602Y-39932534D01*
X45478602Y-39908000D01*
X45478000Y-39908000D01*
X45478000Y-39408000D01*
X46978000Y-39408000D01*
X46978000Y-39908000D01*
X46977398Y-39908000D01*
G37*
%TD.AperFunction*%
%TD*%
%TA.AperFunction,SMDPad,CuDef*%
%TO.P,JP4,1*%
%TO.N,ATMEGA_SPI_SCLK*%
G36*
X48018000Y-39108000D02*
G01*
X48018000Y-38608000D01*
X48018602Y-38608000D01*
X48018602Y-38583466D01*
X48023412Y-38534635D01*
X48032984Y-38486510D01*
X48047228Y-38439555D01*
X48066005Y-38394222D01*
X48089136Y-38350949D01*
X48116396Y-38310150D01*
X48147524Y-38272221D01*
X48182221Y-38237524D01*
X48220150Y-38206396D01*
X48260949Y-38179136D01*
X48304222Y-38156005D01*
X48349555Y-38137228D01*
X48396510Y-38122984D01*
X48444635Y-38113412D01*
X48493466Y-38108602D01*
X48518000Y-38108602D01*
X48518000Y-38108000D01*
X49018000Y-38108000D01*
X49018000Y-38108602D01*
X49042534Y-38108602D01*
X49091365Y-38113412D01*
X49139490Y-38122984D01*
X49186445Y-38137228D01*
X49231778Y-38156005D01*
X49275051Y-38179136D01*
X49315850Y-38206396D01*
X49353779Y-38237524D01*
X49388476Y-38272221D01*
X49419604Y-38310150D01*
X49446864Y-38350949D01*
X49469995Y-38394222D01*
X49488772Y-38439555D01*
X49503016Y-38486510D01*
X49512588Y-38534635D01*
X49517398Y-38583466D01*
X49517398Y-38608000D01*
X49518000Y-38608000D01*
X49518000Y-39108000D01*
X48018000Y-39108000D01*
G37*
%TD.AperFunction*%
%TA.AperFunction,SMDPad,CuDef*%
%TO.P,JP4,2*%
%TO.N,Net-(JP4-Pad2)*%
G36*
X49517398Y-39908000D02*
G01*
X49517398Y-39932534D01*
X49512588Y-39981365D01*
X49503016Y-40029490D01*
X49488772Y-40076445D01*
X49469995Y-40121778D01*
X49446864Y-40165051D01*
X49419604Y-40205850D01*
X49388476Y-40243779D01*
X49353779Y-40278476D01*
X49315850Y-40309604D01*
X49275051Y-40336864D01*
X49231778Y-40359995D01*
X49186445Y-40378772D01*
X49139490Y-40393016D01*
X49091365Y-40402588D01*
X49042534Y-40407398D01*
X49018000Y-40407398D01*
X49018000Y-40408000D01*
X48518000Y-40408000D01*
X48518000Y-40407398D01*
X48493466Y-40407398D01*
X48444635Y-40402588D01*
X48396510Y-40393016D01*
X48349555Y-40378772D01*
X48304222Y-40359995D01*
X48260949Y-40336864D01*
X48220150Y-40309604D01*
X48182221Y-40278476D01*
X48147524Y-40243779D01*
X48116396Y-40205850D01*
X48089136Y-40165051D01*
X48066005Y-40121778D01*
X48047228Y-40076445D01*
X48032984Y-40029490D01*
X48023412Y-39981365D01*
X48018602Y-39932534D01*
X48018602Y-39908000D01*
X48018000Y-39908000D01*
X48018000Y-39408000D01*
X49518000Y-39408000D01*
X49518000Y-39908000D01*
X49517398Y-39908000D01*
G37*
%TD.AperFunction*%
%TD*%
%TA.AperFunction,SMDPad,CuDef*%
%TO.P,JP3,1*%
%TO.N,ATMEGA_SPI_MISO*%
G36*
X42938000Y-39108000D02*
G01*
X42938000Y-38608000D01*
X42938602Y-38608000D01*
X42938602Y-38583466D01*
X42943412Y-38534635D01*
X42952984Y-38486510D01*
X42967228Y-38439555D01*
X42986005Y-38394222D01*
X43009136Y-38350949D01*
X43036396Y-38310150D01*
X43067524Y-38272221D01*
X43102221Y-38237524D01*
X43140150Y-38206396D01*
X43180949Y-38179136D01*
X43224222Y-38156005D01*
X43269555Y-38137228D01*
X43316510Y-38122984D01*
X43364635Y-38113412D01*
X43413466Y-38108602D01*
X43438000Y-38108602D01*
X43438000Y-38108000D01*
X43938000Y-38108000D01*
X43938000Y-38108602D01*
X43962534Y-38108602D01*
X44011365Y-38113412D01*
X44059490Y-38122984D01*
X44106445Y-38137228D01*
X44151778Y-38156005D01*
X44195051Y-38179136D01*
X44235850Y-38206396D01*
X44273779Y-38237524D01*
X44308476Y-38272221D01*
X44339604Y-38310150D01*
X44366864Y-38350949D01*
X44389995Y-38394222D01*
X44408772Y-38439555D01*
X44423016Y-38486510D01*
X44432588Y-38534635D01*
X44437398Y-38583466D01*
X44437398Y-38608000D01*
X44438000Y-38608000D01*
X44438000Y-39108000D01*
X42938000Y-39108000D01*
G37*
%TD.AperFunction*%
%TA.AperFunction,SMDPad,CuDef*%
%TO.P,JP3,2*%
%TO.N,Net-(JP3-Pad2)*%
G36*
X44437398Y-39908000D02*
G01*
X44437398Y-39932534D01*
X44432588Y-39981365D01*
X44423016Y-40029490D01*
X44408772Y-40076445D01*
X44389995Y-40121778D01*
X44366864Y-40165051D01*
X44339604Y-40205850D01*
X44308476Y-40243779D01*
X44273779Y-40278476D01*
X44235850Y-40309604D01*
X44195051Y-40336864D01*
X44151778Y-40359995D01*
X44106445Y-40378772D01*
X44059490Y-40393016D01*
X44011365Y-40402588D01*
X43962534Y-40407398D01*
X43938000Y-40407398D01*
X43938000Y-40408000D01*
X43438000Y-40408000D01*
X43438000Y-40407398D01*
X43413466Y-40407398D01*
X43364635Y-40402588D01*
X43316510Y-40393016D01*
X43269555Y-40378772D01*
X43224222Y-40359995D01*
X43180949Y-40336864D01*
X43140150Y-40309604D01*
X43102221Y-40278476D01*
X43067524Y-40243779D01*
X43036396Y-40205850D01*
X43009136Y-40165051D01*
X42986005Y-40121778D01*
X42967228Y-40076445D01*
X42952984Y-40029490D01*
X42943412Y-39981365D01*
X42938602Y-39932534D01*
X42938602Y-39908000D01*
X42938000Y-39908000D01*
X42938000Y-39408000D01*
X44438000Y-39408000D01*
X44438000Y-39908000D01*
X44437398Y-39908000D01*
G37*
%TD.AperFunction*%
%TD*%
D17*
%TO.P,J1,6*%
%TO.N,FTDI_DTR*%
X48000000Y-57700000D03*
%TO.P,J1,5*%
%TO.N,FTDI_TXO*%
X48000000Y-55160000D03*
%TO.P,J1,4*%
%TO.N,FTDI_RXI*%
X48000000Y-52620000D03*
%TO.P,J1,3*%
%TO.N,+3V3*%
X48000000Y-50080000D03*
%TO.P,J1,2*%
%TO.N,N/C*%
X48000000Y-47540000D03*
D18*
%TO.P,J1,1*%
%TO.N,GND*%
X48000000Y-45000000D03*
%TD*%
%TO.P,F1,2*%
%TO.N,VBUS*%
%TA.AperFunction,SMDPad,CuDef*%
G36*
G01*
X34397999Y-34082000D02*
X35198001Y-34082000D01*
G75*
G02*
X35448000Y-34331999I0J-249999D01*
G01*
X35448000Y-35157001D01*
G75*
G02*
X35198001Y-35407000I-249999J0D01*
G01*
X34397999Y-35407000D01*
G75*
G02*
X34148000Y-35157001I0J249999D01*
G01*
X34148000Y-34331999D01*
G75*
G02*
X34397999Y-34082000I249999J0D01*
G01*
G37*
%TD.AperFunction*%
%TO.P,F1,1*%
%TO.N,Net-(F1-Pad1)*%
%TA.AperFunction,SMDPad,CuDef*%
G36*
G01*
X34397999Y-32157000D02*
X35198001Y-32157000D01*
G75*
G02*
X35448000Y-32406999I0J-249999D01*
G01*
X35448000Y-33232001D01*
G75*
G02*
X35198001Y-33482000I-249999J0D01*
G01*
X34397999Y-33482000D01*
G75*
G02*
X34148000Y-33232001I0J249999D01*
G01*
X34148000Y-32406999D01*
G75*
G02*
X34397999Y-32157000I249999J0D01*
G01*
G37*
%TD.AperFunction*%
%TD*%
D19*
%TO.P,Y1,4*%
%TO.N,GND*%
X41742000Y-54434000D03*
%TO.P,Y1,3*%
%TO.N,Net-(C6-Pad1)*%
X43942000Y-54434000D03*
%TO.P,Y1,2*%
%TO.N,GND*%
X43942000Y-56134000D03*
%TO.P,Y1,1*%
%TO.N,Net-(C7-Pad1)*%
X41742000Y-56134000D03*
%TD*%
D16*
%TO.P,TP17,1*%
%TO.N,Net-(TP17-Pad1)*%
X33189332Y-56896000D03*
%TD*%
%TO.P,TP16,1*%
%TO.N,Net-(TP16-Pad1)*%
X35306000Y-56896000D03*
%TD*%
%TO.P,TP15,1*%
%TO.N,Net-(TP15-Pad1)*%
X44196000Y-59690000D03*
%TD*%
%TO.P,TP4,1*%
%TO.N,MAX3421_INT*%
X28956000Y-56896000D03*
%TD*%
D20*
%TO.P,Q2,3*%
%TO.N,ADB_1_PWR_ON*%
X31250000Y-71000000D03*
%TO.P,Q2,2*%
%TO.N,ADB_PWR_ON_LV*%
X32200000Y-73000000D03*
%TO.P,Q2,1*%
%TO.N,+3V3*%
X30300000Y-73000000D03*
%TD*%
%TO.P,Q1,3*%
%TO.N,ADB_1_DATA*%
X43760000Y-71000000D03*
%TO.P,Q1,2*%
%TO.N,ADB_DATA_LV*%
X44710000Y-73000000D03*
%TO.P,Q1,1*%
%TO.N,+3V3*%
X42810000Y-73000000D03*
%TD*%
D21*
%TO.P,U1,1*%
%TO.N,GND*%
X27672000Y-36884000D03*
%TO.P,U1,3*%
%TO.N,VBUS*%
X32272000Y-36884000D03*
%TO.P,U1,2*%
%TO.N,+3V3*%
X29972000Y-36884000D03*
D22*
X29972000Y-30584000D03*
%TD*%
%TA.AperFunction,SMDPad,CuDef*%
D12*
%TO.P,U2,32*%
%TO.N,ADB_PWR_ON_LV*%
G36*
X41724963Y-64654074D02*
G01*
X42113872Y-64265165D01*
X43245243Y-65396536D01*
X42856334Y-65785445D01*
X41724963Y-64654074D01*
G37*
%TD.AperFunction*%
%TA.AperFunction,SMDPad,CuDef*%
%TO.P,U2,31*%
%TO.N,FTDI_TXO*%
G36*
X41159277Y-65219759D02*
G01*
X41548186Y-64830850D01*
X42679557Y-65962221D01*
X42290648Y-66351130D01*
X41159277Y-65219759D01*
G37*
%TD.AperFunction*%
%TA.AperFunction,SMDPad,CuDef*%
%TO.P,U2,30*%
%TO.N,FTDI_RXI*%
G36*
X40593592Y-65785445D02*
G01*
X40982501Y-65396536D01*
X42113872Y-66527907D01*
X41724963Y-66916816D01*
X40593592Y-65785445D01*
G37*
%TD.AperFunction*%
%TA.AperFunction,SMDPad,CuDef*%
%TO.P,U2,29*%
%TO.N,/RESET*%
G36*
X40027907Y-66351130D02*
G01*
X40416816Y-65962221D01*
X41548187Y-67093592D01*
X41159278Y-67482501D01*
X40027907Y-66351130D01*
G37*
%TD.AperFunction*%
%TA.AperFunction,SMDPad,CuDef*%
%TO.P,U2,28*%
%TO.N,N/C*%
G36*
X39462221Y-66916816D02*
G01*
X39851130Y-66527907D01*
X40982501Y-67659278D01*
X40593592Y-68048187D01*
X39462221Y-66916816D01*
G37*
%TD.AperFunction*%
%TA.AperFunction,SMDPad,CuDef*%
%TO.P,U2,27*%
G36*
X38896536Y-67482501D02*
G01*
X39285445Y-67093592D01*
X40416816Y-68224963D01*
X40027907Y-68613872D01*
X38896536Y-67482501D01*
G37*
%TD.AperFunction*%
%TA.AperFunction,SMDPad,CuDef*%
%TO.P,U2,26*%
G36*
X38330850Y-68048186D02*
G01*
X38719759Y-67659277D01*
X39851130Y-68790648D01*
X39462221Y-69179557D01*
X38330850Y-68048186D01*
G37*
%TD.AperFunction*%
%TA.AperFunction,SMDPad,CuDef*%
%TO.P,U2,25*%
G36*
X37765165Y-68613872D02*
G01*
X38154074Y-68224963D01*
X39285445Y-69356334D01*
X38896536Y-69745243D01*
X37765165Y-68613872D01*
G37*
%TD.AperFunction*%
%TA.AperFunction,SMDPad,CuDef*%
%TO.P,U2,24*%
G36*
X36845926Y-68224963D02*
G01*
X37234835Y-68613872D01*
X36103464Y-69745243D01*
X35714555Y-69356334D01*
X36845926Y-68224963D01*
G37*
%TD.AperFunction*%
%TA.AperFunction,SMDPad,CuDef*%
%TO.P,U2,23*%
%TO.N,DEBUG_LED*%
G36*
X36280241Y-67659277D02*
G01*
X36669150Y-68048186D01*
X35537779Y-69179557D01*
X35148870Y-68790648D01*
X36280241Y-67659277D01*
G37*
%TD.AperFunction*%
%TA.AperFunction,SMDPad,CuDef*%
%TO.P,U2,22*%
%TO.N,N/C*%
G36*
X35714555Y-67093592D02*
G01*
X36103464Y-67482501D01*
X34972093Y-68613872D01*
X34583184Y-68224963D01*
X35714555Y-67093592D01*
G37*
%TD.AperFunction*%
%TA.AperFunction,SMDPad,CuDef*%
%TO.P,U2,21*%
%TO.N,GND*%
G36*
X35148870Y-66527907D02*
G01*
X35537779Y-66916816D01*
X34406408Y-68048187D01*
X34017499Y-67659278D01*
X35148870Y-66527907D01*
G37*
%TD.AperFunction*%
%TA.AperFunction,SMDPad,CuDef*%
%TO.P,U2,20*%
%TO.N,Net-(C2-Pad1)*%
G36*
X34583184Y-65962221D02*
G01*
X34972093Y-66351130D01*
X33840722Y-67482501D01*
X33451813Y-67093592D01*
X34583184Y-65962221D01*
G37*
%TD.AperFunction*%
%TA.AperFunction,SMDPad,CuDef*%
%TO.P,U2,19*%
%TO.N,N/C*%
G36*
X34017499Y-65396536D02*
G01*
X34406408Y-65785445D01*
X33275037Y-66916816D01*
X32886128Y-66527907D01*
X34017499Y-65396536D01*
G37*
%TD.AperFunction*%
%TA.AperFunction,SMDPad,CuDef*%
%TO.P,U2,18*%
%TO.N,+3V3*%
G36*
X33451814Y-64830850D02*
G01*
X33840723Y-65219759D01*
X32709352Y-66351130D01*
X32320443Y-65962221D01*
X33451814Y-64830850D01*
G37*
%TD.AperFunction*%
%TA.AperFunction,SMDPad,CuDef*%
%TO.P,U2,17*%
%TO.N,ATMEGA_SPI_SCLK*%
G36*
X32886128Y-64265165D02*
G01*
X33275037Y-64654074D01*
X32143666Y-65785445D01*
X31754757Y-65396536D01*
X32886128Y-64265165D01*
G37*
%TD.AperFunction*%
%TA.AperFunction,SMDPad,CuDef*%
%TO.P,U2,16*%
%TO.N,ATMEGA_SPI_MISO*%
G36*
X31754757Y-62603464D02*
G01*
X32143666Y-62214555D01*
X33275037Y-63345926D01*
X32886128Y-63734835D01*
X31754757Y-62603464D01*
G37*
%TD.AperFunction*%
%TA.AperFunction,SMDPad,CuDef*%
%TO.P,U2,15*%
%TO.N,ATMEGA_SPI_MOSI*%
G36*
X32320443Y-62037779D02*
G01*
X32709352Y-61648870D01*
X33840723Y-62780241D01*
X33451814Y-63169150D01*
X32320443Y-62037779D01*
G37*
%TD.AperFunction*%
%TA.AperFunction,SMDPad,CuDef*%
%TO.P,U2,14*%
%TO.N,ATMEGA_SS*%
G36*
X32886128Y-61472093D02*
G01*
X33275037Y-61083184D01*
X34406408Y-62214555D01*
X34017499Y-62603464D01*
X32886128Y-61472093D01*
G37*
%TD.AperFunction*%
%TA.AperFunction,SMDPad,CuDef*%
%TO.P,U2,13*%
%TO.N,MAX3421_INT*%
G36*
X33451813Y-60906408D02*
G01*
X33840722Y-60517499D01*
X34972093Y-61648870D01*
X34583184Y-62037779D01*
X33451813Y-60906408D01*
G37*
%TD.AperFunction*%
%TA.AperFunction,SMDPad,CuDef*%
%TO.P,U2,12*%
%TO.N,MAX3421_GPX*%
G36*
X34017499Y-60340722D02*
G01*
X34406408Y-59951813D01*
X35537779Y-61083184D01*
X35148870Y-61472093D01*
X34017499Y-60340722D01*
G37*
%TD.AperFunction*%
%TA.AperFunction,SMDPad,CuDef*%
%TO.P,U2,11*%
%TO.N,MAX3421_RESET*%
G36*
X34583184Y-59775037D02*
G01*
X34972093Y-59386128D01*
X36103464Y-60517499D01*
X35714555Y-60906408D01*
X34583184Y-59775037D01*
G37*
%TD.AperFunction*%
%TA.AperFunction,SMDPad,CuDef*%
%TO.P,U2,10*%
%TO.N,Net-(TP17-Pad1)*%
G36*
X35148870Y-59209352D02*
G01*
X35537779Y-58820443D01*
X36669150Y-59951814D01*
X36280241Y-60340723D01*
X35148870Y-59209352D01*
G37*
%TD.AperFunction*%
%TA.AperFunction,SMDPad,CuDef*%
%TO.P,U2,9*%
%TO.N,Net-(TP16-Pad1)*%
G36*
X35714555Y-58643666D02*
G01*
X36103464Y-58254757D01*
X37234835Y-59386128D01*
X36845926Y-59775037D01*
X35714555Y-58643666D01*
G37*
%TD.AperFunction*%
%TA.AperFunction,SMDPad,CuDef*%
%TO.P,U2,8*%
%TO.N,Net-(C7-Pad1)*%
G36*
X38896536Y-58254757D02*
G01*
X39285445Y-58643666D01*
X38154074Y-59775037D01*
X37765165Y-59386128D01*
X38896536Y-58254757D01*
G37*
%TD.AperFunction*%
%TA.AperFunction,SMDPad,CuDef*%
%TO.P,U2,7*%
%TO.N,Net-(C6-Pad1)*%
G36*
X39462221Y-58820443D02*
G01*
X39851130Y-59209352D01*
X38719759Y-60340723D01*
X38330850Y-59951814D01*
X39462221Y-58820443D01*
G37*
%TD.AperFunction*%
%TA.AperFunction,SMDPad,CuDef*%
%TO.P,U2,6*%
%TO.N,+3V3*%
G36*
X40027907Y-59386128D02*
G01*
X40416816Y-59775037D01*
X39285445Y-60906408D01*
X38896536Y-60517499D01*
X40027907Y-59386128D01*
G37*
%TD.AperFunction*%
%TA.AperFunction,SMDPad,CuDef*%
%TO.P,U2,5*%
%TO.N,GND*%
G36*
X40593592Y-59951813D02*
G01*
X40982501Y-60340722D01*
X39851130Y-61472093D01*
X39462221Y-61083184D01*
X40593592Y-59951813D01*
G37*
%TD.AperFunction*%
%TA.AperFunction,SMDPad,CuDef*%
%TO.P,U2,4*%
%TO.N,+3V3*%
G36*
X41159278Y-60517499D02*
G01*
X41548187Y-60906408D01*
X40416816Y-62037779D01*
X40027907Y-61648870D01*
X41159278Y-60517499D01*
G37*
%TD.AperFunction*%
%TA.AperFunction,SMDPad,CuDef*%
%TO.P,U2,3*%
%TO.N,GND*%
G36*
X41724963Y-61083184D02*
G01*
X42113872Y-61472093D01*
X40982501Y-62603464D01*
X40593592Y-62214555D01*
X41724963Y-61083184D01*
G37*
%TD.AperFunction*%
%TA.AperFunction,SMDPad,CuDef*%
%TO.P,U2,2*%
%TO.N,Net-(TP15-Pad1)*%
G36*
X42290648Y-61648870D02*
G01*
X42679557Y-62037779D01*
X41548186Y-63169150D01*
X41159277Y-62780241D01*
X42290648Y-61648870D01*
G37*
%TD.AperFunction*%
%TA.AperFunction,SMDPad,CuDef*%
%TO.P,U2,1*%
%TO.N,ADB_DATA_LV*%
G36*
X42856334Y-62214555D02*
G01*
X43245243Y-62603464D01*
X42113872Y-63734835D01*
X41724963Y-63345926D01*
X42856334Y-62214555D01*
G37*
%TD.AperFunction*%
%TD*%
D23*
%TO.P,J3,4*%
%TO.N,GND*%
X37338000Y-30084000D03*
%TO.P,J3,3*%
%TO.N,Net-(J3-Pad3)*%
X37338000Y-32584000D03*
%TO.P,J3,2*%
%TO.N,Net-(J3-Pad2)*%
X37338000Y-34584000D03*
D24*
%TO.P,J3,1*%
%TO.N,Net-(F1-Pad1)*%
X37338000Y-37084000D03*
D25*
%TO.P,J3,5*%
%TO.N,GND*%
X34628000Y-27014000D03*
X34628000Y-40154000D03*
%TD*%
D26*
%TO.N,ADB_1_5v*%
X40155624Y-71736455D03*
X36793010Y-71015411D03*
%TO.N,ADB_1_DATA*%
X41818560Y-69006720D03*
X39124415Y-71731686D03*
X36272100Y-72276884D03*
%TO.N,ADB_1_PWR_ON*%
X31714044Y-66583560D03*
X40640000Y-63860002D03*
X31967554Y-69601479D03*
X35682138Y-64243960D03*
%TO.N,GND*%
X45720000Y-52324000D03*
X39624000Y-48006000D03*
X39878000Y-46482000D03*
X28448000Y-44196000D03*
X26924000Y-40132000D03*
X32258000Y-38862000D03*
X30480000Y-43434000D03*
X28448000Y-49530000D03*
X33273503Y-43688489D03*
X34287349Y-42604011D03*
X34290000Y-46228000D03*
X39322789Y-66207718D03*
X45466000Y-69850000D03*
X27432000Y-70358000D03*
X35372146Y-72712895D03*
X31160634Y-69010804D03*
X44958000Y-43434000D03*
%TO.N,+3V3*%
X30347920Y-32420560D03*
X31790640Y-34925000D03*
X31790640Y-53070760D03*
X36576000Y-61976000D03*
X37593012Y-70105012D03*
X31787188Y-42073980D03*
X37447828Y-65387828D03*
X40287358Y-73330298D03*
%TO.N,VBUS*%
X33401000Y-34066480D03*
%TO.N,Host_USB_D-*%
X39756080Y-45349160D03*
X40519218Y-33425727D03*
%TO.N,Host_USB_D+*%
X39654480Y-32923480D03*
X38969571Y-46063932D03*
%TO.N,FTDI_DTR*%
X45899763Y-64466459D03*
%TO.N,MAX3421_INT*%
X36830000Y-42672000D03*
X35579305Y-61894624D03*
%TO.N,MAX3421_GPX*%
X38519658Y-41821195D03*
X37347628Y-60187503D03*
%TO.N,ADB_DATA_LV*%
X47244000Y-70358000D03*
X44615233Y-61204501D03*
%TO.N,ADB_PWR_ON_LV*%
X35327096Y-70887412D03*
X35555525Y-66043982D03*
%TO.N,FTDI_TXO*%
X44574011Y-64969804D03*
%TO.N,FTDI_RXI*%
X42819184Y-66851295D03*
%TO.N,/RESET*%
X40776478Y-68761952D03*
X36869868Y-73078567D03*
X38432865Y-72454032D03*
%TO.N,DEBUG_LED*%
X29464000Y-54610000D03*
X29008957Y-69816679D03*
%TO.N,ATMEGA_SS*%
X45212000Y-37592000D03*
X39073987Y-62235017D03*
%TO.N,ATMEGA_SPI_MOSI*%
X31299646Y-61423083D03*
X41148000Y-37338000D03*
X35035636Y-73654588D03*
X39542183Y-72663411D03*
X37744985Y-62721366D03*
%TO.N,ATMEGA_SPI_MISO*%
X42672000Y-37338000D03*
X29718000Y-62230000D03*
X38672457Y-63180493D03*
%TO.N,ATMEGA_SPI_SCLK*%
X46637137Y-37333340D03*
X39296504Y-64733010D03*
X30486081Y-65779919D03*
%TO.N,MAX3421_RESET*%
X34544000Y-47752000D03*
X33770361Y-58431639D03*
%TD*%
D27*
%TO.N,*%
X35270268Y-67853732D02*
X35343324Y-67853732D01*
D28*
%TO.N,ADB_1_5v*%
X40158479Y-71733600D02*
X40155624Y-71736455D01*
X41483280Y-71733600D02*
X40158479Y-71733600D01*
X29574999Y-72337359D02*
X28971240Y-71733600D01*
X29574999Y-73710001D02*
X29574999Y-72337359D01*
X29778998Y-73914000D02*
X29574999Y-73710001D01*
X33020000Y-73914000D02*
X29778998Y-73914000D01*
X35675097Y-71612413D02*
X35321587Y-71612413D01*
X35321587Y-71612413D02*
X33020000Y-73914000D01*
X39425853Y-71006684D02*
X36801737Y-71006684D01*
X36272099Y-71015411D02*
X35675097Y-71612413D01*
X36793010Y-71015411D02*
X36272099Y-71015411D01*
X40155624Y-71736455D02*
X39425853Y-71006684D01*
X36801737Y-71006684D02*
X36793010Y-71015411D01*
%TO.N,ADB_1_DATA*%
X41769680Y-71000000D02*
X41483280Y-70713600D01*
X43760000Y-71000000D02*
X41769680Y-71000000D01*
X41483280Y-69342000D02*
X41818560Y-69006720D01*
X41483280Y-70713600D02*
X41483280Y-69342000D01*
X37424723Y-71689946D02*
X39082675Y-71689946D01*
X36272100Y-72276884D02*
X36837785Y-72276884D01*
X36837785Y-72276884D02*
X37424723Y-71689946D01*
X39082675Y-71689946D02*
X39124415Y-71731686D01*
%TO.N,ADB_1_PWR_ON*%
X31250000Y-71000000D02*
X30969354Y-70719354D01*
X30264402Y-66583560D02*
X31714044Y-66583560D01*
X27104159Y-65326999D02*
X29007841Y-65326999D01*
X26072999Y-66358159D02*
X27104159Y-65326999D01*
X26072999Y-70072003D02*
X26072999Y-66358159D01*
X27083998Y-71083002D02*
X26072999Y-70072003D01*
X28601838Y-71083002D02*
X27083998Y-71083002D01*
X28971240Y-70713600D02*
X28601838Y-71083002D01*
X29007841Y-65326999D02*
X30264402Y-66583560D01*
X31250000Y-71000000D02*
X31250000Y-70319033D01*
X31250000Y-70319033D02*
X31967554Y-69601479D01*
X40640000Y-63860002D02*
X40491993Y-64008009D01*
X40491993Y-64008009D02*
X35918089Y-64008009D01*
X35918089Y-64008009D02*
X35682138Y-64243960D01*
D29*
%TO.N,GND*%
X26111200Y-46064050D02*
X26315790Y-46064050D01*
D28*
X41233411Y-59700903D02*
X40222361Y-60711953D01*
X41233411Y-59267411D02*
X41233411Y-59700903D01*
X42405645Y-60791411D02*
X41353732Y-61843324D01*
X42757411Y-60791411D02*
X42405645Y-60791411D01*
X43942000Y-57658000D02*
X43942000Y-56134000D01*
X41233411Y-59267411D02*
X42332589Y-59267411D01*
X42926000Y-60622822D02*
X42926000Y-58674000D01*
X42757411Y-60791411D02*
X42926000Y-60622822D01*
X42926000Y-58674000D02*
X43942000Y-57658000D01*
X42332589Y-59267411D02*
X42926000Y-58674000D01*
X40436000Y-54434000D02*
X40132000Y-54130000D01*
X41742000Y-54434000D02*
X40436000Y-54434000D01*
X41742000Y-54434000D02*
X41742000Y-53254000D01*
X41742000Y-53254000D02*
X42672000Y-52324000D01*
X42672000Y-52324000D02*
X45720000Y-52324000D01*
X42785929Y-50714589D02*
X43265411Y-50714589D01*
X41891282Y-49819942D02*
X42785929Y-50714589D01*
X41292268Y-49220928D02*
X40838928Y-49220928D01*
X41891282Y-49819942D02*
X41292268Y-49220928D01*
X40838928Y-49220928D02*
X39624000Y-48006000D01*
X34628000Y-40154000D02*
X39138000Y-40154000D01*
X41074011Y-45285989D02*
X39878000Y-46482000D01*
X41074011Y-45001159D02*
X41074011Y-45285989D01*
X39138000Y-40154000D02*
X40032392Y-41048392D01*
X40032392Y-43959540D02*
X41074011Y-45001159D01*
X27979250Y-44196000D02*
X28448000Y-44196000D01*
X26111200Y-46064050D02*
X27979250Y-44196000D01*
X31468000Y-38862000D02*
X31468000Y-39652000D01*
X30988000Y-40132000D02*
X26924000Y-40132000D01*
X31468000Y-39652000D02*
X30988000Y-40132000D01*
X31468000Y-38862000D02*
X32258000Y-38862000D01*
X34290000Y-37564000D02*
X34064000Y-37564000D01*
X34064000Y-37564000D02*
X33528000Y-38100000D01*
X33528000Y-39054000D02*
X34628000Y-40154000D01*
X33528000Y-38100000D02*
X33528000Y-39054000D01*
X33056589Y-45297411D02*
X33004000Y-45350000D01*
X34966589Y-45297411D02*
X33056589Y-45297411D01*
X32484000Y-44830000D02*
X33004000Y-45350000D01*
X32484000Y-43434000D02*
X32484000Y-44830000D01*
X32451789Y-43401789D02*
X32413466Y-43401789D01*
X32484000Y-43434000D02*
X32451789Y-43401789D01*
X31856616Y-42798990D02*
X31115010Y-42798990D01*
X32484000Y-43426374D02*
X31856616Y-42798990D01*
X32484000Y-43434000D02*
X32484000Y-43426374D01*
X31115010Y-42798990D02*
X30480000Y-43434000D01*
X30480000Y-43838998D02*
X29464000Y-44854998D01*
X30480000Y-43434000D02*
X30480000Y-43838998D01*
X29464000Y-48514000D02*
X28448000Y-49530000D01*
X29464000Y-44854998D02*
X29464000Y-48514000D01*
X33019014Y-43434000D02*
X33273503Y-43688489D01*
X34826000Y-43142662D02*
X34287349Y-42604011D01*
X34826000Y-43434000D02*
X34826000Y-43142662D01*
X32484000Y-43434000D02*
X33019014Y-43434000D01*
X32385949Y-68711131D02*
X31696018Y-68021200D01*
X32385949Y-68716211D02*
X32385949Y-68711131D01*
X45466000Y-68718000D02*
X46874000Y-67310000D01*
X45466000Y-69850000D02*
X45466000Y-68718000D01*
X27432000Y-67934000D02*
X28056000Y-67310000D01*
X27432000Y-70358000D02*
X27432000Y-67934000D01*
D27*
X34688951Y-67288047D02*
X34777639Y-67288047D01*
X33260787Y-68716211D02*
X34688951Y-67288047D01*
X32385949Y-68716211D02*
X33260787Y-68716211D01*
D28*
X27356000Y-73710000D02*
X28244000Y-73710000D01*
X46862001Y-74421999D02*
X47574000Y-73710000D01*
X28244000Y-73710000D02*
X28955999Y-74421999D01*
X34544001Y-74421999D02*
X46862001Y-74421999D01*
X28955999Y-74421999D02*
X34544001Y-74421999D01*
X34310635Y-73306587D02*
X34904327Y-72712895D01*
X34904327Y-72712895D02*
X35372146Y-72712895D01*
X34544001Y-74421999D02*
X34310635Y-74188633D01*
X34310635Y-74188633D02*
X34310635Y-73306587D01*
X31696018Y-68021200D02*
X29768800Y-68021200D01*
X29768800Y-68021200D02*
X27432000Y-70358000D01*
X40032392Y-44023003D02*
X40032392Y-43533608D01*
X39276323Y-44779072D02*
X40032392Y-44023003D01*
X38971732Y-44779072D02*
X39276323Y-44779072D01*
X38372718Y-44180058D02*
X38971732Y-44779072D01*
X40032392Y-43533608D02*
X40032392Y-43959540D01*
X40032392Y-41048392D02*
X40032392Y-43533608D01*
X34777639Y-67288047D02*
X35060465Y-67288047D01*
X35060465Y-67288047D02*
X35579930Y-66768582D01*
X38761925Y-66768582D02*
X39322789Y-66207718D01*
X35579930Y-66768582D02*
X38761925Y-66768582D01*
D27*
X44958000Y-38535374D02*
X44958000Y-43434000D01*
X43743000Y-37320374D02*
X44958000Y-38535374D01*
X43743000Y-35833000D02*
X43743000Y-37320374D01*
D29*
X28476000Y-37688000D02*
X27672000Y-36884000D01*
X28476000Y-38862000D02*
X28476000Y-37688000D01*
D28*
%TO.N,+3V3*%
X32374840Y-67342378D02*
X32526312Y-67190906D01*
X32526312Y-67190906D02*
X32526312Y-66145261D01*
X32526312Y-66145261D02*
X33080583Y-65590990D01*
D29*
X30347920Y-30959920D02*
X29972000Y-30584000D01*
X30347920Y-32420560D02*
X30347920Y-30959920D01*
X29972000Y-38326000D02*
X30508000Y-38862000D01*
X29972000Y-36884000D02*
X29972000Y-38326000D01*
X29436000Y-38862000D02*
X29972000Y-38326000D01*
X29972000Y-36884000D02*
X29972000Y-36743640D01*
X29972000Y-36743640D02*
X31790640Y-34925000D01*
D28*
X42586589Y-51222356D02*
X41537728Y-50173495D01*
X42586589Y-51393411D02*
X42586589Y-51222356D01*
D29*
X47562000Y-50518000D02*
X45720000Y-50518000D01*
X48000000Y-50080000D02*
X47562000Y-50518000D01*
X44625386Y-51612614D02*
X42805792Y-51612614D01*
X42805792Y-51612614D02*
X42586589Y-51393411D01*
X45720000Y-50518000D02*
X44625386Y-51612614D01*
D28*
X35982822Y-44618589D02*
X35645411Y-44618589D01*
X36958505Y-45594272D02*
X35982822Y-44618589D01*
X40913539Y-61277639D02*
X42078589Y-60112589D01*
X40788047Y-61277639D02*
X40913539Y-61277639D01*
X40335386Y-58807792D02*
X40554589Y-58588589D01*
X40335386Y-59467558D02*
X40335386Y-58807792D01*
X39656676Y-60146268D02*
X40335386Y-59467558D01*
D29*
X42586589Y-51393411D02*
X41823010Y-52156990D01*
X31790640Y-53070760D02*
X41129607Y-53070760D01*
X41823010Y-52156990D02*
X41823010Y-52377357D01*
X41129607Y-53070760D02*
X41823010Y-52377357D01*
D28*
X38334201Y-61468743D02*
X37083257Y-61468743D01*
X37083257Y-61468743D02*
X36576000Y-61976000D01*
X32014601Y-72224999D02*
X33528000Y-70711600D01*
X30300000Y-73000000D02*
X31075001Y-72224999D01*
X31075001Y-72224999D02*
X32014601Y-72224999D01*
X42810000Y-73000000D02*
X43684988Y-72125012D01*
X43684988Y-72125012D02*
X44618468Y-72125012D01*
X44618468Y-72125012D02*
X46034960Y-70708520D01*
D27*
X30769560Y-42179240D02*
X31681928Y-42179240D01*
D28*
X31826408Y-42113200D02*
X31787188Y-42073980D01*
D27*
X31681928Y-42179240D02*
X31787188Y-42073980D01*
D28*
X32537574Y-42113200D02*
X31826408Y-42113200D01*
X32723534Y-42113200D02*
X32537574Y-42113200D01*
X33999002Y-43388668D02*
X32723534Y-42113200D01*
X33999002Y-43930109D02*
X33999002Y-43388668D01*
X34468279Y-44399386D02*
X33999002Y-43930109D01*
X35426208Y-44399386D02*
X34468279Y-44399386D01*
D27*
X36808999Y-41929001D02*
X32721773Y-41929001D01*
X32721773Y-41929001D02*
X32537574Y-42113200D01*
X37592000Y-41146000D02*
X36808999Y-41929001D01*
D28*
X35645411Y-44618589D02*
X35426208Y-44399386D01*
X33528000Y-70711600D02*
X34602095Y-70711600D01*
X34602095Y-70539411D02*
X34979095Y-70162411D01*
X34602095Y-70711600D02*
X34602095Y-70539411D01*
X34979095Y-70162411D02*
X35675097Y-70162411D01*
X35675097Y-70162411D02*
X35732496Y-70105012D01*
X35732496Y-70105012D02*
X37593012Y-70105012D01*
X42479702Y-73330298D02*
X42810000Y-73000000D01*
X40287358Y-73330298D02*
X42479702Y-73330298D01*
X44129960Y-69934958D02*
X44129960Y-69219000D01*
X44903522Y-70708520D02*
X44129960Y-69934958D01*
X46034960Y-70708520D02*
X44903522Y-70708520D01*
X38852472Y-60950472D02*
X38334201Y-61468743D01*
X39656676Y-60146268D02*
X38852472Y-60950472D01*
X34152124Y-65071526D02*
X34399579Y-65318981D01*
X33080583Y-65590990D02*
X33600047Y-65071526D01*
X33600047Y-65071526D02*
X34152124Y-65071526D01*
X34399579Y-65318981D02*
X37378981Y-65318981D01*
X40788047Y-61277639D02*
X40268583Y-61797103D01*
X39699103Y-61797103D02*
X38852472Y-60950472D01*
X37378981Y-65318981D02*
X37447828Y-65387828D01*
X40268583Y-61797103D02*
X39699103Y-61797103D01*
D29*
%TO.N,VBUS*%
X34010000Y-36884000D02*
X34290000Y-36604000D01*
X32272000Y-36884000D02*
X34010000Y-36884000D01*
X34798000Y-36096000D02*
X34290000Y-36604000D01*
X34798000Y-34744500D02*
X34798000Y-36096000D01*
X34119980Y-34066480D02*
X34798000Y-34744500D01*
X33401000Y-34066480D02*
X34119980Y-34066480D01*
D27*
X31044640Y-41168320D02*
X32933002Y-39279958D01*
X30774640Y-41168320D02*
X31044640Y-41168320D01*
X32933002Y-39279958D02*
X32933002Y-37545002D01*
X32933002Y-37545002D02*
X32272000Y-36884000D01*
D28*
%TO.N,Host_USB_D-*%
X40386000Y-34544000D02*
X40386000Y-33558945D01*
X40386000Y-33558945D02*
X40519218Y-33425727D01*
X39745851Y-45338931D02*
X39756080Y-45349160D01*
X38824484Y-45338931D02*
X39745851Y-45338931D01*
X38019165Y-44533612D02*
X38824484Y-45338931D01*
%TO.N,Host_USB_D+*%
X39654480Y-32737520D02*
X40388000Y-32004000D01*
X39654480Y-32923480D02*
X39654480Y-32737520D01*
X38842379Y-46063932D02*
X38969571Y-46063932D01*
X37665612Y-44887165D02*
X38842379Y-46063932D01*
D27*
%TO.N,Net-(C6-Pad1)*%
X44246000Y-54130000D02*
X43942000Y-54434000D01*
X45466000Y-54130000D02*
X44246000Y-54130000D01*
X39560455Y-59111118D02*
X39560455Y-58500541D01*
X39560455Y-58500541D02*
X41051995Y-57009001D01*
X41051995Y-57009001D02*
X42662001Y-57009001D01*
X39090990Y-59580583D02*
X39560455Y-59111118D01*
X42662001Y-57009001D02*
X42966999Y-56704003D01*
X42966999Y-56704003D02*
X42966999Y-55409001D01*
X42966999Y-55409001D02*
X43942000Y-54434000D01*
X43942000Y-53340000D02*
X44196000Y-53086000D01*
X43942000Y-54434000D02*
X43942000Y-53340000D01*
D28*
%TO.N,FTDI_DTR*%
X44129960Y-66096000D02*
X44835907Y-66096000D01*
X45899763Y-65032144D02*
X45899763Y-64466459D01*
X44835907Y-66096000D02*
X45899763Y-65032144D01*
D27*
%TO.N,Net-(C7-Pad1)*%
X42966999Y-54909001D02*
X41742000Y-56134000D01*
X42966999Y-53295001D02*
X42966999Y-54909001D01*
X43176000Y-53086000D02*
X42966999Y-53295001D01*
X41176000Y-56134000D02*
X40132000Y-55090000D01*
X41742000Y-56134000D02*
X41176000Y-56134000D01*
X41406202Y-56134000D02*
X38525305Y-59014897D01*
X41742000Y-56134000D02*
X41406202Y-56134000D01*
%TO.N,Net-(C10-Pad1)*%
X36007126Y-48650000D02*
X36604951Y-48052175D01*
X33004000Y-48650000D02*
X36007126Y-48650000D01*
X33004000Y-48650000D02*
X33004000Y-50424840D01*
X32882840Y-50546000D02*
X32484000Y-50546000D01*
X33004000Y-50424840D02*
X32882840Y-50546000D01*
%TO.N,Net-(C11-Pad1)*%
X31004000Y-45350000D02*
X32583040Y-46929040D01*
X35623736Y-46929040D02*
X36604951Y-45947825D01*
X32583040Y-46929040D02*
X35623736Y-46929040D01*
X31524000Y-44830000D02*
X31004000Y-45350000D01*
X31524000Y-43434000D02*
X31524000Y-44830000D01*
%TO.N,Net-(C12-Pad1)*%
X35786000Y-43714660D02*
X35786000Y-43434000D01*
X37312058Y-45240718D02*
X35786000Y-43714660D01*
%TO.N,MAX3421_INT*%
X37592000Y-42692233D02*
X37592000Y-42166000D01*
X38726272Y-43826505D02*
X37592000Y-42692233D01*
X37086000Y-42672000D02*
X37592000Y-42166000D01*
X36830000Y-42672000D02*
X37086000Y-42672000D01*
X34211953Y-61277639D02*
X34828938Y-61894624D01*
X34828938Y-61894624D02*
X35579305Y-61894624D01*
X34211953Y-61277639D02*
X31608314Y-58674000D01*
X30734000Y-58674000D02*
X28956000Y-56896000D01*
X31608314Y-58674000D02*
X30734000Y-58674000D01*
%TO.N,MAX3421_GPX*%
X39079825Y-42381362D02*
X39079825Y-43472951D01*
X38519658Y-41821195D02*
X39079825Y-42381362D01*
X35247104Y-61181418D02*
X35828468Y-61181418D01*
X34777639Y-60711953D02*
X35247104Y-61181418D01*
X36822383Y-60187503D02*
X37347628Y-60187503D01*
X35828468Y-61181418D02*
X36822383Y-60187503D01*
%TO.N,MAX3421_SS*%
X45941998Y-43449006D02*
X45941998Y-42420000D01*
X44633998Y-44109002D02*
X45282002Y-44109002D01*
X45282002Y-44109002D02*
X45941998Y-43449006D01*
X42440295Y-43631045D02*
X44156041Y-43631045D01*
X41891282Y-44180058D02*
X42440295Y-43631045D01*
X44156041Y-43631045D02*
X44633998Y-44109002D01*
%TO.N,ADB_DATA_LV*%
X44763480Y-73000000D02*
X46034960Y-71728520D01*
X44710000Y-73000000D02*
X44763480Y-73000000D01*
X46034960Y-71728520D02*
X46836520Y-71728520D01*
X47244000Y-71321040D02*
X47244000Y-70358000D01*
X46836520Y-71728520D02*
X47244000Y-71321040D01*
X48006000Y-71120000D02*
X47244000Y-70358000D01*
X48260000Y-71120000D02*
X48006000Y-71120000D01*
X44205499Y-61204501D02*
X44615233Y-61204501D01*
X42485103Y-62974695D02*
X42485103Y-62924897D01*
X42485103Y-62924897D02*
X44205499Y-61204501D01*
%TO.N,ADB_PWR_ON_LV*%
X32259600Y-73000000D02*
X33528000Y-71731600D01*
X32200000Y-73000000D02*
X32259600Y-73000000D01*
X44010408Y-63500000D02*
X42485103Y-65025305D01*
X47244000Y-63500000D02*
X44010408Y-63500000D01*
X34482908Y-71731600D02*
X33528000Y-71731600D01*
X35327096Y-70887412D02*
X34482908Y-71731600D01*
X35718545Y-66207002D02*
X35555525Y-66043982D01*
X37916002Y-66207002D02*
X35718545Y-66207002D01*
X42015638Y-64555840D02*
X40472676Y-64555840D01*
X39620505Y-65408011D02*
X38714993Y-65408011D01*
X40472676Y-64555840D02*
X39620505Y-65408011D01*
X42485103Y-65025305D02*
X42015638Y-64555840D01*
X38714993Y-65408011D02*
X37916002Y-66207002D01*
%TO.N,Net-(TP15-Pad1)*%
X42184096Y-62409010D02*
X41919417Y-62409010D01*
X44196000Y-60397106D02*
X42184096Y-62409010D01*
X44196000Y-59690000D02*
X44196000Y-60397106D01*
%TO.N,Net-(TP16-Pad1)*%
X36474695Y-58064695D02*
X35306000Y-56896000D01*
X36474695Y-59014897D02*
X36474695Y-58064695D01*
%TO.N,Net-(TP17-Pad1)*%
X35873915Y-59580583D02*
X33189332Y-56896000D01*
X35909010Y-59580583D02*
X35873915Y-59580583D01*
D28*
%TO.N,FTDI_TXO*%
X43108811Y-66126294D02*
X44265301Y-64969804D01*
X42454721Y-66126294D02*
X43108811Y-66126294D01*
X44265301Y-64969804D02*
X44574011Y-64969804D01*
X41919417Y-65590990D02*
X42454721Y-66126294D01*
%TO.N,FTDI_RXI*%
X41353732Y-66156676D02*
X42048351Y-66851295D01*
X42048351Y-66851295D02*
X42819184Y-66851295D01*
D27*
%TO.N,Net-(C2-Pad1)*%
X34211953Y-66890207D02*
X34211953Y-66722361D01*
X33064771Y-68037389D02*
X34211953Y-66890207D01*
D29*
%TO.N,Net-(F1-Pad1)*%
X35848010Y-35594010D02*
X37338000Y-37084000D01*
X35848010Y-33869510D02*
X35848010Y-35594010D01*
X34798000Y-32819500D02*
X35848010Y-33869510D01*
D28*
%TO.N,Net-(J3-Pad3)*%
X37918000Y-32004000D02*
X37338000Y-32584000D01*
X39368000Y-32004000D02*
X37918000Y-32004000D01*
%TO.N,Net-(J3-Pad2)*%
X37378000Y-34544000D02*
X37338000Y-34584000D01*
X39366000Y-34544000D02*
X37378000Y-34544000D01*
%TO.N,/RESET*%
X42264686Y-68199000D02*
X44129960Y-68199000D01*
X41680943Y-67857487D02*
X40776478Y-68761952D01*
X41680943Y-67615257D02*
X41680943Y-67857487D01*
X40788047Y-66722361D02*
X41680943Y-67615257D01*
X41680943Y-67615257D02*
X42264686Y-68199000D01*
X44129960Y-68199000D02*
X44129960Y-67056000D01*
X36869868Y-73078567D02*
X37494403Y-72454032D01*
X37494403Y-72454032D02*
X38432865Y-72454032D01*
D27*
%TO.N,Net-(D1-Pad2)*%
X29749560Y-44003738D02*
X29749560Y-42179240D01*
X26162000Y-48181500D02*
X26162000Y-47591298D01*
X26162000Y-47591298D02*
X29749560Y-44003738D01*
%TO.N,Net-(D2-Pad2)*%
X29060380Y-41168320D02*
X29754640Y-41168320D01*
X26111200Y-44117500D02*
X29060380Y-41168320D01*
%TO.N,Net-(D3-Pad2)*%
X26111200Y-51760600D02*
X26111200Y-53221160D01*
%TO.N,DEBUG_LED*%
X26154920Y-54284880D02*
X26111200Y-54241160D01*
X29095160Y-54241160D02*
X29464000Y-54610000D01*
X26111200Y-54241160D02*
X29095160Y-54241160D01*
X29982641Y-71725001D02*
X29662958Y-71405318D01*
X29662958Y-70470680D02*
X29008957Y-69816679D01*
X29662958Y-71405318D02*
X29662958Y-70470680D01*
X32435800Y-71064120D02*
X31774919Y-71725001D01*
X35909010Y-68419417D02*
X34161837Y-70166590D01*
X34161837Y-70166590D02*
X32972650Y-70166590D01*
X32972650Y-70166590D02*
X32435800Y-70703440D01*
X32435800Y-70703440D02*
X32435800Y-71064120D01*
X31774919Y-71725001D02*
X29982641Y-71725001D01*
%TO.N,ATMEGA_SS*%
X46228000Y-38608000D02*
X45212000Y-37592000D01*
X36858684Y-62651002D02*
X37640932Y-61868754D01*
X33646268Y-61843324D02*
X34453946Y-62651002D01*
X34453946Y-62651002D02*
X36858684Y-62651002D01*
X38707724Y-61868754D02*
X37640932Y-61868754D01*
X39073987Y-62235017D02*
X38707724Y-61868754D01*
%TO.N,ATMEGA_SPI_MOSI*%
X32094656Y-61423083D02*
X31299646Y-61423083D01*
X33080583Y-62409010D02*
X32094656Y-61423083D01*
X41148000Y-38608000D02*
X41148000Y-37338000D01*
X35035636Y-73654588D02*
X35219163Y-73838115D01*
X35219163Y-73838115D02*
X38367479Y-73838115D01*
X38367479Y-73838115D02*
X39542183Y-72663411D01*
X37452171Y-63014180D02*
X37744985Y-62721366D01*
X33685753Y-63014180D02*
X37452171Y-63014180D01*
X33080583Y-62409010D02*
X33685753Y-63014180D01*
%TO.N,ATMEGA_SPI_MISO*%
X43688000Y-38608000D02*
X42672000Y-37592000D01*
X42672000Y-37592000D02*
X42672000Y-37338000D01*
X32514897Y-62974695D02*
X32984362Y-63444160D01*
X36774160Y-63444160D02*
X36786763Y-63444160D01*
X32984362Y-63444160D02*
X36774160Y-63444160D01*
X31770202Y-62230000D02*
X32514897Y-62974695D01*
X29718000Y-62230000D02*
X31770202Y-62230000D01*
X36910492Y-63580492D02*
X38272458Y-63580492D01*
X36774160Y-63444160D02*
X36910492Y-63580492D01*
X38272458Y-63580492D02*
X38672457Y-63180493D01*
%TO.N,ATMEGA_SPI_SCLK*%
X47493340Y-37333340D02*
X48768000Y-38608000D01*
X46637137Y-37333340D02*
X47493340Y-37333340D01*
X32514897Y-65025305D02*
X31240695Y-65025305D01*
X31240695Y-65025305D02*
X30486081Y-65779919D01*
X35355376Y-64918970D02*
X36008900Y-64918970D01*
X32984362Y-64555840D02*
X34992246Y-64555840D01*
X36008900Y-64918970D02*
X36324872Y-64602998D01*
X36324872Y-64602998D02*
X39166492Y-64602998D01*
X34992246Y-64555840D02*
X35355376Y-64918970D01*
X39166492Y-64602998D02*
X39296504Y-64733010D01*
X32514897Y-65025305D02*
X32984362Y-64555840D01*
%TO.N,MAX3421_SPI_MOSI*%
X41733188Y-42923938D02*
X42168062Y-42923938D01*
X42168062Y-42923938D02*
X42672000Y-42420000D01*
X41184175Y-43472951D02*
X41733188Y-42923938D01*
%TO.N,MAX3421_SPI_MISO*%
X43449508Y-43277491D02*
X44306999Y-42420000D01*
X42086742Y-43277491D02*
X43449508Y-43277491D01*
X41537728Y-43826505D02*
X42086742Y-43277491D01*
%TO.N,MAX3421_SPI_SCLK*%
X44489019Y-44459013D02*
X45712987Y-44459013D01*
X45712987Y-44459013D02*
X47752000Y-42420000D01*
X42244835Y-44533612D02*
X42793849Y-43984598D01*
X44014604Y-43984598D02*
X44489019Y-44459013D01*
X42793849Y-43984598D02*
X44014604Y-43984598D01*
%TO.N,MAX3421_RESET*%
X35343324Y-60146268D02*
X35343324Y-60004602D01*
X35343324Y-60004602D02*
X33770361Y-58431639D01*
X32608305Y-58431639D02*
X31072666Y-56896000D01*
X33770361Y-58431639D02*
X32608305Y-58431639D01*
X40328551Y-47157002D02*
X39553998Y-47157002D01*
X39247388Y-46850392D02*
X36969608Y-46850392D01*
X42598388Y-44887165D02*
X40328551Y-47157002D01*
X36969608Y-46850392D02*
X36068000Y-47752000D01*
X36068000Y-47752000D02*
X34544000Y-47752000D01*
X39553998Y-47157002D02*
X39247388Y-46850392D01*
%TO.N,Net-(JP3-Pad2)*%
X44306999Y-40526999D02*
X43688000Y-39908000D01*
X44306999Y-41400000D02*
X44306999Y-40526999D01*
%TO.N,Net-(JP4-Pad2)*%
X47752000Y-40924000D02*
X47752000Y-41400000D01*
X48768000Y-39908000D02*
X47752000Y-40924000D01*
%TO.N,Net-(JP5-Pad2)*%
X45941998Y-40194002D02*
X46228000Y-39908000D01*
X45941998Y-41400000D02*
X45941998Y-40194002D01*
%TO.N,Net-(JP6-Pad2)*%
X42640000Y-41400000D02*
X41148000Y-39908000D01*
X42672000Y-41400000D02*
X42640000Y-41400000D01*
%TD*%
D30*
%TO.N,GND*%
X26520203Y-71594010D02*
X26543997Y-71623003D01*
X26572990Y-71646797D01*
X26572994Y-71646801D01*
X26619538Y-71684998D01*
X26659722Y-71717976D01*
X26791751Y-71788548D01*
X26935012Y-71832005D01*
X27046665Y-71843002D01*
X27046674Y-71843002D01*
X27083997Y-71846678D01*
X27121320Y-71843002D01*
X28013168Y-71843002D01*
X28013168Y-71868600D01*
X28028022Y-72019419D01*
X28072015Y-72164442D01*
X28077658Y-72175000D01*
X27483000Y-72175000D01*
X27483000Y-73583000D01*
X27503000Y-73583000D01*
X27503000Y-73837000D01*
X27483000Y-73837000D01*
X27483000Y-73857000D01*
X27229000Y-73857000D01*
X27229000Y-73837000D01*
X27209000Y-73837000D01*
X27209000Y-73583000D01*
X27229000Y-73583000D01*
X27229000Y-72175000D01*
X26329000Y-72175000D01*
X26031977Y-72229271D01*
X25751249Y-72340446D01*
X25660000Y-72399375D01*
X25660000Y-70733805D01*
X26520203Y-71594010D01*
%TA.AperFunction,Conductor*%
D31*
G36*
X26520203Y-71594010D02*
G01*
X26543997Y-71623003D01*
X26572990Y-71646797D01*
X26572994Y-71646801D01*
X26619538Y-71684998D01*
X26659722Y-71717976D01*
X26791751Y-71788548D01*
X26935012Y-71832005D01*
X27046665Y-71843002D01*
X27046674Y-71843002D01*
X27083997Y-71846678D01*
X27121320Y-71843002D01*
X28013168Y-71843002D01*
X28013168Y-71868600D01*
X28028022Y-72019419D01*
X28072015Y-72164442D01*
X28077658Y-72175000D01*
X27483000Y-72175000D01*
X27483000Y-73583000D01*
X27503000Y-73583000D01*
X27503000Y-73837000D01*
X27483000Y-73837000D01*
X27483000Y-73857000D01*
X27229000Y-73857000D01*
X27229000Y-73837000D01*
X27209000Y-73837000D01*
X27209000Y-73583000D01*
X27229000Y-73583000D01*
X27229000Y-72175000D01*
X26329000Y-72175000D01*
X26031977Y-72229271D01*
X25751249Y-72340446D01*
X25660000Y-72399375D01*
X25660000Y-70733805D01*
X26520203Y-71594010D01*
G37*
%TD.AperFunction*%
D30*
X47722376Y-72125824D02*
X47841097Y-72175000D01*
X47701000Y-72175000D01*
X47701000Y-73583000D01*
X47721000Y-73583000D01*
X47721000Y-73837000D01*
X47701000Y-73837000D01*
X47701000Y-73857000D01*
X47447000Y-73857000D01*
X47447000Y-73837000D01*
X47427000Y-73837000D01*
X47427000Y-73583000D01*
X47447000Y-73583000D01*
X47447000Y-72175000D01*
X47394131Y-72175000D01*
X47555086Y-72014044D01*
X47722376Y-72125824D01*
%TA.AperFunction,Conductor*%
D31*
G36*
X47722376Y-72125824D02*
G01*
X47841097Y-72175000D01*
X47701000Y-72175000D01*
X47701000Y-73583000D01*
X47721000Y-73583000D01*
X47721000Y-73837000D01*
X47701000Y-73837000D01*
X47701000Y-73857000D01*
X47447000Y-73857000D01*
X47447000Y-73837000D01*
X47427000Y-73837000D01*
X47427000Y-73583000D01*
X47447000Y-73583000D01*
X47447000Y-72175000D01*
X47394131Y-72175000D01*
X47555086Y-72014044D01*
X47722376Y-72125824D01*
G37*
%TD.AperFunction*%
D30*
X49340001Y-70761454D02*
X49265824Y-70582376D01*
X49141612Y-70396480D01*
X48983520Y-70238388D01*
X48797624Y-70114176D01*
X48591067Y-70028617D01*
X48371788Y-69985000D01*
X48209774Y-69985000D01*
X48161205Y-69867744D01*
X48047937Y-69698226D01*
X47903774Y-69554063D01*
X47735610Y-69441700D01*
X47789424Y-69424438D01*
X48123509Y-69245867D01*
X48298525Y-68914130D01*
X46874000Y-67489605D01*
X45449475Y-68914130D01*
X45624491Y-69245867D01*
X46026168Y-69452437D01*
X46460428Y-69576674D01*
X46553905Y-69584384D01*
X46440063Y-69698226D01*
X46362388Y-69814476D01*
X46219960Y-69800448D01*
X45849960Y-69800448D01*
X45699141Y-69815302D01*
X45554118Y-69859295D01*
X45420464Y-69930734D01*
X45398792Y-69948520D01*
X45218324Y-69948520D01*
X44991030Y-69721226D01*
X45029185Y-69649842D01*
X45073178Y-69504819D01*
X45088032Y-69354000D01*
X45088032Y-69084000D01*
X45073178Y-68933181D01*
X45029185Y-68788158D01*
X44986874Y-68709000D01*
X45029185Y-68629842D01*
X45035016Y-68610622D01*
X45269870Y-68734525D01*
X46694395Y-67310000D01*
X47053605Y-67310000D01*
X48478130Y-68734525D01*
X48809867Y-68559509D01*
X49016437Y-68157832D01*
X49140674Y-67723572D01*
X49177804Y-67273419D01*
X49126400Y-66824672D01*
X48988438Y-66394576D01*
X48809867Y-66060491D01*
X48478130Y-65885475D01*
X47053605Y-67310000D01*
X46694395Y-67310000D01*
X46680253Y-67295858D01*
X46859858Y-67116253D01*
X46874000Y-67130395D01*
X48298525Y-65705870D01*
X48123509Y-65374133D01*
X47721832Y-65167563D01*
X47287572Y-65043326D01*
X46837419Y-65006196D01*
X46779471Y-65012834D01*
X46816968Y-64956715D01*
X46894989Y-64768357D01*
X46929534Y-64594685D01*
X47132212Y-64635000D01*
X47355788Y-64635000D01*
X47575067Y-64591383D01*
X47781624Y-64505824D01*
X47967520Y-64381612D01*
X48125612Y-64223520D01*
X48249824Y-64037624D01*
X48335383Y-63831067D01*
X48379000Y-63611788D01*
X48379000Y-63388212D01*
X48335383Y-63168933D01*
X48249824Y-62962376D01*
X48125612Y-62776480D01*
X47967520Y-62618388D01*
X47781624Y-62494176D01*
X47662903Y-62445000D01*
X48601000Y-62445000D01*
X48898023Y-62390729D01*
X49178751Y-62279554D01*
X49340001Y-62175418D01*
X49340001Y-70761454D01*
%TA.AperFunction,Conductor*%
D31*
G36*
X49340001Y-70761454D02*
G01*
X49265824Y-70582376D01*
X49141612Y-70396480D01*
X48983520Y-70238388D01*
X48797624Y-70114176D01*
X48591067Y-70028617D01*
X48371788Y-69985000D01*
X48209774Y-69985000D01*
X48161205Y-69867744D01*
X48047937Y-69698226D01*
X47903774Y-69554063D01*
X47735610Y-69441700D01*
X47789424Y-69424438D01*
X48123509Y-69245867D01*
X48298525Y-68914130D01*
X46874000Y-67489605D01*
X45449475Y-68914130D01*
X45624491Y-69245867D01*
X46026168Y-69452437D01*
X46460428Y-69576674D01*
X46553905Y-69584384D01*
X46440063Y-69698226D01*
X46362388Y-69814476D01*
X46219960Y-69800448D01*
X45849960Y-69800448D01*
X45699141Y-69815302D01*
X45554118Y-69859295D01*
X45420464Y-69930734D01*
X45398792Y-69948520D01*
X45218324Y-69948520D01*
X44991030Y-69721226D01*
X45029185Y-69649842D01*
X45073178Y-69504819D01*
X45088032Y-69354000D01*
X45088032Y-69084000D01*
X45073178Y-68933181D01*
X45029185Y-68788158D01*
X44986874Y-68709000D01*
X45029185Y-68629842D01*
X45035016Y-68610622D01*
X45269870Y-68734525D01*
X46694395Y-67310000D01*
X47053605Y-67310000D01*
X48478130Y-68734525D01*
X48809867Y-68559509D01*
X49016437Y-68157832D01*
X49140674Y-67723572D01*
X49177804Y-67273419D01*
X49126400Y-66824672D01*
X48988438Y-66394576D01*
X48809867Y-66060491D01*
X48478130Y-65885475D01*
X47053605Y-67310000D01*
X46694395Y-67310000D01*
X46680253Y-67295858D01*
X46859858Y-67116253D01*
X46874000Y-67130395D01*
X48298525Y-65705870D01*
X48123509Y-65374133D01*
X47721832Y-65167563D01*
X47287572Y-65043326D01*
X46837419Y-65006196D01*
X46779471Y-65012834D01*
X46816968Y-64956715D01*
X46894989Y-64768357D01*
X46929534Y-64594685D01*
X47132212Y-64635000D01*
X47355788Y-64635000D01*
X47575067Y-64591383D01*
X47781624Y-64505824D01*
X47967520Y-64381612D01*
X48125612Y-64223520D01*
X48249824Y-64037624D01*
X48335383Y-63831067D01*
X48379000Y-63611788D01*
X48379000Y-63388212D01*
X48335383Y-63168933D01*
X48249824Y-62962376D01*
X48125612Y-62776480D01*
X47967520Y-62618388D01*
X47781624Y-62494176D01*
X47662903Y-62445000D01*
X48601000Y-62445000D01*
X48898023Y-62390729D01*
X49178751Y-62279554D01*
X49340001Y-62175418D01*
X49340001Y-70761454D01*
G37*
%TD.AperFunction*%
D30*
X27208168Y-69452437D02*
X27642428Y-69576674D01*
X27995625Y-69605807D01*
X27973957Y-69714740D01*
X27973957Y-69918618D01*
X28013731Y-70118577D01*
X28077493Y-70272510D01*
X28072015Y-70282758D01*
X28059807Y-70323002D01*
X27398801Y-70323002D01*
X26832999Y-69757202D01*
X26832999Y-69259499D01*
X27208168Y-69452437D01*
%TA.AperFunction,Conductor*%
D31*
G36*
X27208168Y-69452437D02*
G01*
X27642428Y-69576674D01*
X27995625Y-69605807D01*
X27973957Y-69714740D01*
X27973957Y-69918618D01*
X28013731Y-70118577D01*
X28077493Y-70272510D01*
X28072015Y-70282758D01*
X28059807Y-70323002D01*
X27398801Y-70323002D01*
X26832999Y-69757202D01*
X26832999Y-69259499D01*
X27208168Y-69452437D01*
G37*
%TD.AperFunction*%
D30*
X28249748Y-67295858D02*
X28235605Y-67310000D01*
X29660130Y-68734525D01*
X29991867Y-68559509D01*
X30198437Y-68157832D01*
X30322674Y-67723572D01*
X30354019Y-67343560D01*
X31010333Y-67343560D01*
X31023780Y-67357007D01*
X30937998Y-67442788D01*
X31050250Y-67555040D01*
X30825746Y-67555040D01*
X30746668Y-67647928D01*
X30688211Y-67758511D01*
X30652449Y-67878374D01*
X30640760Y-68002910D01*
X30653591Y-68127335D01*
X30690449Y-68246865D01*
X30749918Y-68356907D01*
X30829712Y-68453234D01*
X30846960Y-68466147D01*
X31071466Y-68466147D01*
X31516413Y-68021200D01*
X31502271Y-68007058D01*
X31621720Y-67887608D01*
X31829610Y-68095498D01*
X31710161Y-68214948D01*
X31696018Y-68200805D01*
X31646772Y-68250051D01*
X31515677Y-68250051D01*
X31436599Y-68342939D01*
X31378142Y-68453522D01*
X31350435Y-68546388D01*
X31251071Y-68645752D01*
X31251071Y-68854251D01*
X31163617Y-68941705D01*
X31050349Y-69111223D01*
X30972328Y-69299581D01*
X30932554Y-69499540D01*
X30932554Y-69561678D01*
X30738998Y-69755234D01*
X30710000Y-69779032D01*
X30686202Y-69808030D01*
X30686201Y-69808031D01*
X30615026Y-69894757D01*
X30569513Y-69979905D01*
X30495506Y-70019463D01*
X30398815Y-70098815D01*
X30320354Y-70194420D01*
X30256158Y-70074317D01*
X30167433Y-69966205D01*
X30140342Y-69943972D01*
X30043957Y-69847587D01*
X30043957Y-69714740D01*
X30004183Y-69514781D01*
X29926162Y-69326423D01*
X29812894Y-69156905D01*
X29668731Y-69012742D01*
X29499213Y-68899474D01*
X29442291Y-68875896D01*
X28056000Y-67489605D01*
X28041858Y-67503748D01*
X27862253Y-67324143D01*
X27876395Y-67310000D01*
X27862253Y-67295858D01*
X28041858Y-67116253D01*
X28056000Y-67130395D01*
X28070143Y-67116253D01*
X28249748Y-67295858D01*
%TA.AperFunction,Conductor*%
D31*
G36*
X28249748Y-67295858D02*
G01*
X28235605Y-67310000D01*
X29660130Y-68734525D01*
X29991867Y-68559509D01*
X30198437Y-68157832D01*
X30322674Y-67723572D01*
X30354019Y-67343560D01*
X31010333Y-67343560D01*
X31023780Y-67357007D01*
X30937998Y-67442788D01*
X31050250Y-67555040D01*
X30825746Y-67555040D01*
X30746668Y-67647928D01*
X30688211Y-67758511D01*
X30652449Y-67878374D01*
X30640760Y-68002910D01*
X30653591Y-68127335D01*
X30690449Y-68246865D01*
X30749918Y-68356907D01*
X30829712Y-68453234D01*
X30846960Y-68466147D01*
X31071466Y-68466147D01*
X31516413Y-68021200D01*
X31502271Y-68007058D01*
X31621720Y-67887608D01*
X31829610Y-68095498D01*
X31710161Y-68214948D01*
X31696018Y-68200805D01*
X31646772Y-68250051D01*
X31515677Y-68250051D01*
X31436599Y-68342939D01*
X31378142Y-68453522D01*
X31350435Y-68546388D01*
X31251071Y-68645752D01*
X31251071Y-68854251D01*
X31163617Y-68941705D01*
X31050349Y-69111223D01*
X30972328Y-69299581D01*
X30932554Y-69499540D01*
X30932554Y-69561678D01*
X30738998Y-69755234D01*
X30710000Y-69779032D01*
X30686202Y-69808030D01*
X30686201Y-69808031D01*
X30615026Y-69894757D01*
X30569513Y-69979905D01*
X30495506Y-70019463D01*
X30398815Y-70098815D01*
X30320354Y-70194420D01*
X30256158Y-70074317D01*
X30167433Y-69966205D01*
X30140342Y-69943972D01*
X30043957Y-69847587D01*
X30043957Y-69714740D01*
X30004183Y-69514781D01*
X29926162Y-69326423D01*
X29812894Y-69156905D01*
X29668731Y-69012742D01*
X29499213Y-68899474D01*
X29442291Y-68875896D01*
X28056000Y-67489605D01*
X28041858Y-67503748D01*
X27862253Y-67324143D01*
X27876395Y-67310000D01*
X27862253Y-67295858D01*
X28041858Y-67116253D01*
X28056000Y-67130395D01*
X28070143Y-67116253D01*
X28249748Y-67295858D01*
G37*
%TD.AperFunction*%
D30*
X39011036Y-66465631D02*
X38931684Y-66562322D01*
X38931429Y-66562800D01*
X38930951Y-66563055D01*
X38834260Y-66642407D01*
X38445351Y-67031316D01*
X38365999Y-67128007D01*
X38365744Y-67128484D01*
X38365265Y-67128740D01*
X38268574Y-67208092D01*
X37879665Y-67597001D01*
X37800313Y-67693692D01*
X37800057Y-67694171D01*
X37799580Y-67694426D01*
X37702889Y-67773778D01*
X37500000Y-67976667D01*
X37297111Y-67773778D01*
X37200420Y-67694426D01*
X37199943Y-67694171D01*
X37199687Y-67693692D01*
X37120335Y-67597001D01*
X36731426Y-67208092D01*
X36634735Y-67128740D01*
X36634256Y-67128484D01*
X36634001Y-67128007D01*
X36554649Y-67031316D01*
X36440335Y-66917002D01*
X37881127Y-66917002D01*
X37916002Y-66920437D01*
X37950877Y-66917002D01*
X37950879Y-66917002D01*
X38055186Y-66906729D01*
X38189022Y-66866130D01*
X38312365Y-66800202D01*
X38420477Y-66711477D01*
X38442714Y-66684381D01*
X39009084Y-66118011D01*
X39358656Y-66118011D01*
X39011036Y-66465631D01*
%TA.AperFunction,Conductor*%
D31*
G36*
X39011036Y-66465631D02*
G01*
X38931684Y-66562322D01*
X38931429Y-66562800D01*
X38930951Y-66563055D01*
X38834260Y-66642407D01*
X38445351Y-67031316D01*
X38365999Y-67128007D01*
X38365744Y-67128484D01*
X38365265Y-67128740D01*
X38268574Y-67208092D01*
X37879665Y-67597001D01*
X37800313Y-67693692D01*
X37800057Y-67694171D01*
X37799580Y-67694426D01*
X37702889Y-67773778D01*
X37500000Y-67976667D01*
X37297111Y-67773778D01*
X37200420Y-67694426D01*
X37199943Y-67694171D01*
X37199687Y-67693692D01*
X37120335Y-67597001D01*
X36731426Y-67208092D01*
X36634735Y-67128740D01*
X36634256Y-67128484D01*
X36634001Y-67128007D01*
X36554649Y-67031316D01*
X36440335Y-66917002D01*
X37881127Y-66917002D01*
X37916002Y-66920437D01*
X37950877Y-66917002D01*
X37950879Y-66917002D01*
X38055186Y-66906729D01*
X38189022Y-66866130D01*
X38312365Y-66800202D01*
X38420477Y-66711477D01*
X38442714Y-66684381D01*
X39009084Y-66118011D01*
X39358656Y-66118011D01*
X39011036Y-66465631D01*
G37*
%TD.AperFunction*%
D30*
X29715928Y-46150000D02*
X29728188Y-46274482D01*
X29764498Y-46394180D01*
X29823463Y-46504494D01*
X29902815Y-46601185D01*
X29999506Y-46680537D01*
X30109820Y-46739502D01*
X30229518Y-46775812D01*
X30354000Y-46788072D01*
X31437981Y-46788072D01*
X31924447Y-47274538D01*
X31898180Y-47260498D01*
X31778482Y-47224188D01*
X31654000Y-47211928D01*
X31289750Y-47215000D01*
X31131000Y-47373750D01*
X31131000Y-48523000D01*
X31151000Y-48523000D01*
X31151000Y-48777000D01*
X31131000Y-48777000D01*
X31131000Y-48797000D01*
X30877000Y-48797000D01*
X30877000Y-48777000D01*
X29877750Y-48777000D01*
X29719000Y-48935750D01*
X29715928Y-49450000D01*
X29728188Y-49574482D01*
X29764498Y-49694180D01*
X29823463Y-49804494D01*
X29902815Y-49901185D01*
X29999506Y-49980537D01*
X30109820Y-50039502D01*
X30229518Y-50075812D01*
X30354000Y-50088072D01*
X30626161Y-50085777D01*
X30617625Y-50114387D01*
X30605935Y-50238923D01*
X30609000Y-50260250D01*
X30767750Y-50419000D01*
X31397000Y-50419000D01*
X31397000Y-50399000D01*
X31565928Y-50399000D01*
X31565928Y-50716000D01*
X31580878Y-50867794D01*
X31625155Y-51013755D01*
X31651000Y-51062108D01*
X31651000Y-51332250D01*
X31809750Y-51491000D01*
X31931348Y-51481235D01*
X32050878Y-51444377D01*
X32060509Y-51439172D01*
X32192206Y-51479122D01*
X32344000Y-51494072D01*
X32624000Y-51494072D01*
X32775794Y-51479122D01*
X32921755Y-51434845D01*
X33056274Y-51362943D01*
X33174180Y-51266180D01*
X33270943Y-51148274D01*
X33274429Y-51141752D01*
X33279203Y-51139200D01*
X33387315Y-51050475D01*
X33409552Y-51023379D01*
X33481379Y-50951552D01*
X33508475Y-50929315D01*
X33597200Y-50821203D01*
X33663128Y-50697860D01*
X33703727Y-50564024D01*
X33714000Y-50459717D01*
X33714000Y-50459715D01*
X33717435Y-50424841D01*
X33714000Y-50389966D01*
X33714000Y-50082163D01*
X33778482Y-50075812D01*
X33898180Y-50039502D01*
X34008494Y-49980537D01*
X34105185Y-49901185D01*
X34184537Y-49804494D01*
X34243502Y-49694180D01*
X34279812Y-49574482D01*
X34292072Y-49450000D01*
X34292072Y-49360000D01*
X35967425Y-49360000D01*
X36091895Y-49484470D01*
X36169567Y-49548214D01*
X36233316Y-49625892D01*
X36445448Y-49838024D01*
X36523126Y-49901773D01*
X36586870Y-49979445D01*
X36799002Y-50191577D01*
X36876677Y-50255323D01*
X36940423Y-50332998D01*
X37152555Y-50545130D01*
X37230227Y-50608874D01*
X37293976Y-50686552D01*
X37506108Y-50898684D01*
X37583786Y-50962433D01*
X37647530Y-51040105D01*
X37859662Y-51252237D01*
X37937334Y-51315981D01*
X38001083Y-51393659D01*
X38213215Y-51605791D01*
X38309906Y-51685143D01*
X38420220Y-51744108D01*
X38539918Y-51780418D01*
X38664400Y-51792678D01*
X38788882Y-51780418D01*
X38908580Y-51744108D01*
X39018894Y-51685143D01*
X39115585Y-51605791D01*
X40132000Y-50589376D01*
X41148415Y-51605791D01*
X41176357Y-51628722D01*
X41129632Y-51685657D01*
X41125374Y-51690845D01*
X41047838Y-51835904D01*
X41000092Y-51993302D01*
X40997240Y-52022259D01*
X40783739Y-52235760D01*
X32403925Y-52235760D01*
X32280896Y-52153555D01*
X32092538Y-52075534D01*
X31892579Y-52035760D01*
X31688701Y-52035760D01*
X31488742Y-52075534D01*
X31300384Y-52153555D01*
X31130866Y-52266823D01*
X30986703Y-52410986D01*
X30873435Y-52580504D01*
X30795414Y-52768862D01*
X30755640Y-52968821D01*
X30755640Y-53172699D01*
X30795414Y-53372658D01*
X30873435Y-53561016D01*
X30986703Y-53730534D01*
X31130866Y-53874697D01*
X31300384Y-53987965D01*
X31488742Y-54065986D01*
X31688701Y-54105760D01*
X31892579Y-54105760D01*
X32092538Y-54065986D01*
X32280896Y-53987965D01*
X32403925Y-53905760D01*
X39248510Y-53905760D01*
X39345750Y-54003000D01*
X40005000Y-54003000D01*
X40005000Y-53983000D01*
X40259000Y-53983000D01*
X40259000Y-54003000D01*
X40279000Y-54003000D01*
X40279000Y-54171928D01*
X39962000Y-54171928D01*
X39810206Y-54186878D01*
X39664245Y-54231155D01*
X39615892Y-54257000D01*
X39345750Y-54257000D01*
X39187000Y-54415750D01*
X39196765Y-54537348D01*
X39233623Y-54656878D01*
X39238828Y-54666509D01*
X39198878Y-54798206D01*
X39183928Y-54950000D01*
X39183928Y-55230000D01*
X39198878Y-55381794D01*
X39243155Y-55527755D01*
X39315057Y-55662274D01*
X39411820Y-55780180D01*
X39529726Y-55876943D01*
X39664245Y-55948845D01*
X39810206Y-55993122D01*
X39962000Y-56008072D01*
X40045981Y-56008072D01*
X40287010Y-56249101D01*
X38917374Y-57618737D01*
X38896536Y-57616685D01*
X38772054Y-57628945D01*
X38652356Y-57665255D01*
X38542042Y-57724220D01*
X38445351Y-57803572D01*
X37500000Y-58748923D01*
X37184695Y-58433618D01*
X37184695Y-58099569D01*
X37188130Y-58064694D01*
X37183223Y-58014872D01*
X37174422Y-57925511D01*
X37133823Y-57791675D01*
X37067895Y-57668332D01*
X36979170Y-57560220D01*
X36952079Y-57537987D01*
X36437828Y-57023736D01*
X36441000Y-57007788D01*
X36441000Y-56784212D01*
X36397383Y-56564933D01*
X36311824Y-56358376D01*
X36187612Y-56172480D01*
X36029520Y-56014388D01*
X35843624Y-55890176D01*
X35637067Y-55804617D01*
X35417788Y-55761000D01*
X35194212Y-55761000D01*
X34974933Y-55804617D01*
X34768376Y-55890176D01*
X34582480Y-56014388D01*
X34424388Y-56172480D01*
X34300176Y-56358376D01*
X34247666Y-56485146D01*
X34195156Y-56358376D01*
X34070944Y-56172480D01*
X33912852Y-56014388D01*
X33726956Y-55890176D01*
X33520399Y-55804617D01*
X33301120Y-55761000D01*
X33077544Y-55761000D01*
X32858265Y-55804617D01*
X32651708Y-55890176D01*
X32465812Y-56014388D01*
X32307720Y-56172480D01*
X32183508Y-56358376D01*
X32130999Y-56485144D01*
X32078490Y-56358376D01*
X31954278Y-56172480D01*
X31796186Y-56014388D01*
X31610290Y-55890176D01*
X31403733Y-55804617D01*
X31184454Y-55761000D01*
X30960878Y-55761000D01*
X30741599Y-55804617D01*
X30535042Y-55890176D01*
X30349146Y-56014388D01*
X30191054Y-56172480D01*
X30066842Y-56358376D01*
X30014333Y-56485144D01*
X29961824Y-56358376D01*
X29837612Y-56172480D01*
X29679520Y-56014388D01*
X29493624Y-55890176D01*
X29287067Y-55804617D01*
X29067788Y-55761000D01*
X28844212Y-55761000D01*
X28624933Y-55804617D01*
X28418376Y-55890176D01*
X28232480Y-56014388D01*
X28074388Y-56172480D01*
X27950176Y-56358376D01*
X27864617Y-56564933D01*
X27821000Y-56784212D01*
X27821000Y-57007788D01*
X27864617Y-57227067D01*
X27950176Y-57433624D01*
X28074388Y-57619520D01*
X28232480Y-57777612D01*
X28418376Y-57901824D01*
X28624933Y-57987383D01*
X28844212Y-58031000D01*
X29067788Y-58031000D01*
X29083737Y-58027828D01*
X30207288Y-59151379D01*
X30229525Y-59178475D01*
X30337637Y-59267200D01*
X30460980Y-59333128D01*
X30594816Y-59373727D01*
X30699123Y-59384000D01*
X30699125Y-59384000D01*
X30734000Y-59387435D01*
X30768875Y-59384000D01*
X31314223Y-59384000D01*
X32693037Y-60762814D01*
X32565139Y-60890712D01*
X32491019Y-60829883D01*
X32367676Y-60763955D01*
X32233840Y-60723356D01*
X32129533Y-60713083D01*
X32129531Y-60713083D01*
X32094656Y-60709648D01*
X32059781Y-60713083D01*
X32053357Y-60713083D01*
X31959420Y-60619146D01*
X31789902Y-60505878D01*
X31601544Y-60427857D01*
X31401585Y-60388083D01*
X31197707Y-60388083D01*
X30997748Y-60427857D01*
X30809390Y-60505878D01*
X30639872Y-60619146D01*
X30495709Y-60763309D01*
X30382441Y-60932827D01*
X30304420Y-61121185D01*
X30264646Y-61321144D01*
X30264646Y-61350473D01*
X30208256Y-61312795D01*
X30019898Y-61234774D01*
X29819939Y-61195000D01*
X29706566Y-61195000D01*
X29626378Y-61037000D01*
X27483000Y-61037000D01*
X27483000Y-62445000D01*
X28383000Y-62445000D01*
X28680023Y-62390729D01*
X28693623Y-62385343D01*
X28722774Y-62531898D01*
X28800795Y-62720256D01*
X28914063Y-62889774D01*
X29058226Y-63033937D01*
X29227744Y-63147205D01*
X29416102Y-63225226D01*
X29616061Y-63265000D01*
X29819939Y-63265000D01*
X30019898Y-63225226D01*
X30208256Y-63147205D01*
X30377774Y-63033937D01*
X30471711Y-62940000D01*
X31214621Y-62940000D01*
X31224220Y-62957958D01*
X31303572Y-63054649D01*
X32248923Y-64000000D01*
X31933618Y-64315305D01*
X31275569Y-64315305D01*
X31240694Y-64311870D01*
X31205819Y-64315305D01*
X31205818Y-64315305D01*
X31101511Y-64325578D01*
X30967675Y-64366177D01*
X30873235Y-64416656D01*
X30844330Y-64432106D01*
X30786522Y-64479548D01*
X30736220Y-64520830D01*
X30713987Y-64547921D01*
X30516989Y-64744919D01*
X30384142Y-64744919D01*
X30184183Y-64784693D01*
X29995825Y-64862714D01*
X29826307Y-64975982D01*
X29778966Y-65023323D01*
X29571645Y-64816002D01*
X29547842Y-64786998D01*
X29432117Y-64692025D01*
X29300088Y-64621453D01*
X29156827Y-64577996D01*
X29045174Y-64566999D01*
X29045163Y-64566999D01*
X29007841Y-64563323D01*
X28970519Y-64566999D01*
X27141481Y-64566999D01*
X27104158Y-64563323D01*
X27066835Y-64566999D01*
X27066826Y-64566999D01*
X26955173Y-64577996D01*
X26811912Y-64621453D01*
X26679883Y-64692025D01*
X26672589Y-64698011D01*
X26593155Y-64763200D01*
X26593151Y-64763204D01*
X26564158Y-64786998D01*
X26540364Y-64815991D01*
X25660000Y-65696357D01*
X25660000Y-62220625D01*
X25751249Y-62279554D01*
X26031977Y-62390729D01*
X26329000Y-62445000D01*
X27229000Y-62445000D01*
X27229000Y-61037000D01*
X27209000Y-61037000D01*
X27209000Y-60783000D01*
X27229000Y-60783000D01*
X27229000Y-59375000D01*
X27483000Y-59375000D01*
X27483000Y-60783000D01*
X29626378Y-60783000D01*
X29747036Y-60545260D01*
X29722755Y-60439913D01*
X29602862Y-60162796D01*
X29431210Y-59914394D01*
X29214396Y-59704252D01*
X28960751Y-59540446D01*
X28680023Y-59429271D01*
X28383000Y-59375000D01*
X27483000Y-59375000D01*
X27229000Y-59375000D01*
X26329000Y-59375000D01*
X26031977Y-59429271D01*
X25751249Y-59540446D01*
X25660000Y-59599375D01*
X25660000Y-55099377D01*
X25775381Y-55134378D01*
X25926200Y-55149232D01*
X26296200Y-55149232D01*
X26447019Y-55134378D01*
X26592042Y-55090385D01*
X26725696Y-55018946D01*
X26808293Y-54951160D01*
X28485037Y-54951160D01*
X28546795Y-55100256D01*
X28660063Y-55269774D01*
X28804226Y-55413937D01*
X28973744Y-55527205D01*
X29162102Y-55605226D01*
X29362061Y-55645000D01*
X29565939Y-55645000D01*
X29765898Y-55605226D01*
X29954256Y-55527205D01*
X30123774Y-55413937D01*
X30267937Y-55269774D01*
X30381205Y-55100256D01*
X30459226Y-54911898D01*
X30499000Y-54711939D01*
X30499000Y-54508061D01*
X30459226Y-54308102D01*
X30381205Y-54119744D01*
X30267937Y-53950226D01*
X30123774Y-53806063D01*
X29954256Y-53692795D01*
X29765898Y-53614774D01*
X29565939Y-53575000D01*
X29362061Y-53575000D01*
X29351756Y-53577050D01*
X29234344Y-53541433D01*
X29130037Y-53531160D01*
X29130035Y-53531160D01*
X29095160Y-53527725D01*
X29060285Y-53531160D01*
X27047083Y-53531160D01*
X27054418Y-53506979D01*
X27069272Y-53356160D01*
X27069272Y-53086160D01*
X27054418Y-52935341D01*
X27010425Y-52790318D01*
X26998921Y-52768796D01*
X27057364Y-52737558D01*
X27190992Y-52627892D01*
X27300658Y-52494264D01*
X27382147Y-52341809D01*
X27432328Y-52176385D01*
X27449272Y-52004350D01*
X27449272Y-51516850D01*
X27432328Y-51344815D01*
X27382147Y-51179391D01*
X27300658Y-51026936D01*
X27190992Y-50893308D01*
X27184636Y-50888092D01*
X27227301Y-50853077D01*
X30605935Y-50853077D01*
X30617625Y-50977613D01*
X30653386Y-51097476D01*
X30711844Y-51208059D01*
X30790753Y-51305113D01*
X30887079Y-51384908D01*
X30997122Y-51444377D01*
X31116652Y-51481235D01*
X31238250Y-51491000D01*
X31397000Y-51332250D01*
X31397000Y-50673000D01*
X30767750Y-50673000D01*
X30609000Y-50831750D01*
X30605935Y-50853077D01*
X27227301Y-50853077D01*
X27262385Y-50824285D01*
X27341737Y-50727594D01*
X27400702Y-50617280D01*
X27437012Y-50497582D01*
X27449272Y-50373100D01*
X27446200Y-50171350D01*
X27287450Y-50012600D01*
X26238200Y-50012600D01*
X26238200Y-50032600D01*
X25984200Y-50032600D01*
X25984200Y-50012600D01*
X25964200Y-50012600D01*
X25964200Y-49758600D01*
X25984200Y-49758600D01*
X25984200Y-49738600D01*
X26238200Y-49738600D01*
X26238200Y-49758600D01*
X27287450Y-49758600D01*
X27446200Y-49599850D01*
X27449272Y-49398100D01*
X27437012Y-49273618D01*
X27400702Y-49153920D01*
X27341737Y-49043606D01*
X27262385Y-48946915D01*
X27165694Y-48867563D01*
X27135839Y-48851605D01*
X27190992Y-48806342D01*
X27300658Y-48672714D01*
X27382147Y-48520259D01*
X27432328Y-48354835D01*
X27449272Y-48182800D01*
X27449272Y-47850000D01*
X29715928Y-47850000D01*
X29719000Y-48364250D01*
X29877750Y-48523000D01*
X30877000Y-48523000D01*
X30877000Y-47373750D01*
X30718250Y-47215000D01*
X30354000Y-47211928D01*
X30229518Y-47224188D01*
X30109820Y-47260498D01*
X29999506Y-47319463D01*
X29902815Y-47398815D01*
X29823463Y-47495506D01*
X29764498Y-47605820D01*
X29728188Y-47725518D01*
X29715928Y-47850000D01*
X27449272Y-47850000D01*
X27449272Y-47695300D01*
X27432328Y-47523265D01*
X27386197Y-47371192D01*
X29715928Y-45041462D01*
X29715928Y-46150000D01*
%TA.AperFunction,Conductor*%
D31*
G36*
X29715928Y-46150000D02*
G01*
X29728188Y-46274482D01*
X29764498Y-46394180D01*
X29823463Y-46504494D01*
X29902815Y-46601185D01*
X29999506Y-46680537D01*
X30109820Y-46739502D01*
X30229518Y-46775812D01*
X30354000Y-46788072D01*
X31437981Y-46788072D01*
X31924447Y-47274538D01*
X31898180Y-47260498D01*
X31778482Y-47224188D01*
X31654000Y-47211928D01*
X31289750Y-47215000D01*
X31131000Y-47373750D01*
X31131000Y-48523000D01*
X31151000Y-48523000D01*
X31151000Y-48777000D01*
X31131000Y-48777000D01*
X31131000Y-48797000D01*
X30877000Y-48797000D01*
X30877000Y-48777000D01*
X29877750Y-48777000D01*
X29719000Y-48935750D01*
X29715928Y-49450000D01*
X29728188Y-49574482D01*
X29764498Y-49694180D01*
X29823463Y-49804494D01*
X29902815Y-49901185D01*
X29999506Y-49980537D01*
X30109820Y-50039502D01*
X30229518Y-50075812D01*
X30354000Y-50088072D01*
X30626161Y-50085777D01*
X30617625Y-50114387D01*
X30605935Y-50238923D01*
X30609000Y-50260250D01*
X30767750Y-50419000D01*
X31397000Y-50419000D01*
X31397000Y-50399000D01*
X31565928Y-50399000D01*
X31565928Y-50716000D01*
X31580878Y-50867794D01*
X31625155Y-51013755D01*
X31651000Y-51062108D01*
X31651000Y-51332250D01*
X31809750Y-51491000D01*
X31931348Y-51481235D01*
X32050878Y-51444377D01*
X32060509Y-51439172D01*
X32192206Y-51479122D01*
X32344000Y-51494072D01*
X32624000Y-51494072D01*
X32775794Y-51479122D01*
X32921755Y-51434845D01*
X33056274Y-51362943D01*
X33174180Y-51266180D01*
X33270943Y-51148274D01*
X33274429Y-51141752D01*
X33279203Y-51139200D01*
X33387315Y-51050475D01*
X33409552Y-51023379D01*
X33481379Y-50951552D01*
X33508475Y-50929315D01*
X33597200Y-50821203D01*
X33663128Y-50697860D01*
X33703727Y-50564024D01*
X33714000Y-50459717D01*
X33714000Y-50459715D01*
X33717435Y-50424841D01*
X33714000Y-50389966D01*
X33714000Y-50082163D01*
X33778482Y-50075812D01*
X33898180Y-50039502D01*
X34008494Y-49980537D01*
X34105185Y-49901185D01*
X34184537Y-49804494D01*
X34243502Y-49694180D01*
X34279812Y-49574482D01*
X34292072Y-49450000D01*
X34292072Y-49360000D01*
X35967425Y-49360000D01*
X36091895Y-49484470D01*
X36169567Y-49548214D01*
X36233316Y-49625892D01*
X36445448Y-49838024D01*
X36523126Y-49901773D01*
X36586870Y-49979445D01*
X36799002Y-50191577D01*
X36876677Y-50255323D01*
X36940423Y-50332998D01*
X37152555Y-50545130D01*
X37230227Y-50608874D01*
X37293976Y-50686552D01*
X37506108Y-50898684D01*
X37583786Y-50962433D01*
X37647530Y-51040105D01*
X37859662Y-51252237D01*
X37937334Y-51315981D01*
X38001083Y-51393659D01*
X38213215Y-51605791D01*
X38309906Y-51685143D01*
X38420220Y-51744108D01*
X38539918Y-51780418D01*
X38664400Y-51792678D01*
X38788882Y-51780418D01*
X38908580Y-51744108D01*
X39018894Y-51685143D01*
X39115585Y-51605791D01*
X40132000Y-50589376D01*
X41148415Y-51605791D01*
X41176357Y-51628722D01*
X41129632Y-51685657D01*
X41125374Y-51690845D01*
X41047838Y-51835904D01*
X41000092Y-51993302D01*
X40997240Y-52022259D01*
X40783739Y-52235760D01*
X32403925Y-52235760D01*
X32280896Y-52153555D01*
X32092538Y-52075534D01*
X31892579Y-52035760D01*
X31688701Y-52035760D01*
X31488742Y-52075534D01*
X31300384Y-52153555D01*
X31130866Y-52266823D01*
X30986703Y-52410986D01*
X30873435Y-52580504D01*
X30795414Y-52768862D01*
X30755640Y-52968821D01*
X30755640Y-53172699D01*
X30795414Y-53372658D01*
X30873435Y-53561016D01*
X30986703Y-53730534D01*
X31130866Y-53874697D01*
X31300384Y-53987965D01*
X31488742Y-54065986D01*
X31688701Y-54105760D01*
X31892579Y-54105760D01*
X32092538Y-54065986D01*
X32280896Y-53987965D01*
X32403925Y-53905760D01*
X39248510Y-53905760D01*
X39345750Y-54003000D01*
X40005000Y-54003000D01*
X40005000Y-53983000D01*
X40259000Y-53983000D01*
X40259000Y-54003000D01*
X40279000Y-54003000D01*
X40279000Y-54171928D01*
X39962000Y-54171928D01*
X39810206Y-54186878D01*
X39664245Y-54231155D01*
X39615892Y-54257000D01*
X39345750Y-54257000D01*
X39187000Y-54415750D01*
X39196765Y-54537348D01*
X39233623Y-54656878D01*
X39238828Y-54666509D01*
X39198878Y-54798206D01*
X39183928Y-54950000D01*
X39183928Y-55230000D01*
X39198878Y-55381794D01*
X39243155Y-55527755D01*
X39315057Y-55662274D01*
X39411820Y-55780180D01*
X39529726Y-55876943D01*
X39664245Y-55948845D01*
X39810206Y-55993122D01*
X39962000Y-56008072D01*
X40045981Y-56008072D01*
X40287010Y-56249101D01*
X38917374Y-57618737D01*
X38896536Y-57616685D01*
X38772054Y-57628945D01*
X38652356Y-57665255D01*
X38542042Y-57724220D01*
X38445351Y-57803572D01*
X37500000Y-58748923D01*
X37184695Y-58433618D01*
X37184695Y-58099569D01*
X37188130Y-58064694D01*
X37183223Y-58014872D01*
X37174422Y-57925511D01*
X37133823Y-57791675D01*
X37067895Y-57668332D01*
X36979170Y-57560220D01*
X36952079Y-57537987D01*
X36437828Y-57023736D01*
X36441000Y-57007788D01*
X36441000Y-56784212D01*
X36397383Y-56564933D01*
X36311824Y-56358376D01*
X36187612Y-56172480D01*
X36029520Y-56014388D01*
X35843624Y-55890176D01*
X35637067Y-55804617D01*
X35417788Y-55761000D01*
X35194212Y-55761000D01*
X34974933Y-55804617D01*
X34768376Y-55890176D01*
X34582480Y-56014388D01*
X34424388Y-56172480D01*
X34300176Y-56358376D01*
X34247666Y-56485146D01*
X34195156Y-56358376D01*
X34070944Y-56172480D01*
X33912852Y-56014388D01*
X33726956Y-55890176D01*
X33520399Y-55804617D01*
X33301120Y-55761000D01*
X33077544Y-55761000D01*
X32858265Y-55804617D01*
X32651708Y-55890176D01*
X32465812Y-56014388D01*
X32307720Y-56172480D01*
X32183508Y-56358376D01*
X32130999Y-56485144D01*
X32078490Y-56358376D01*
X31954278Y-56172480D01*
X31796186Y-56014388D01*
X31610290Y-55890176D01*
X31403733Y-55804617D01*
X31184454Y-55761000D01*
X30960878Y-55761000D01*
X30741599Y-55804617D01*
X30535042Y-55890176D01*
X30349146Y-56014388D01*
X30191054Y-56172480D01*
X30066842Y-56358376D01*
X30014333Y-56485144D01*
X29961824Y-56358376D01*
X29837612Y-56172480D01*
X29679520Y-56014388D01*
X29493624Y-55890176D01*
X29287067Y-55804617D01*
X29067788Y-55761000D01*
X28844212Y-55761000D01*
X28624933Y-55804617D01*
X28418376Y-55890176D01*
X28232480Y-56014388D01*
X28074388Y-56172480D01*
X27950176Y-56358376D01*
X27864617Y-56564933D01*
X27821000Y-56784212D01*
X27821000Y-57007788D01*
X27864617Y-57227067D01*
X27950176Y-57433624D01*
X28074388Y-57619520D01*
X28232480Y-57777612D01*
X28418376Y-57901824D01*
X28624933Y-57987383D01*
X28844212Y-58031000D01*
X29067788Y-58031000D01*
X29083737Y-58027828D01*
X30207288Y-59151379D01*
X30229525Y-59178475D01*
X30337637Y-59267200D01*
X30460980Y-59333128D01*
X30594816Y-59373727D01*
X30699123Y-59384000D01*
X30699125Y-59384000D01*
X30734000Y-59387435D01*
X30768875Y-59384000D01*
X31314223Y-59384000D01*
X32693037Y-60762814D01*
X32565139Y-60890712D01*
X32491019Y-60829883D01*
X32367676Y-60763955D01*
X32233840Y-60723356D01*
X32129533Y-60713083D01*
X32129531Y-60713083D01*
X32094656Y-60709648D01*
X32059781Y-60713083D01*
X32053357Y-60713083D01*
X31959420Y-60619146D01*
X31789902Y-60505878D01*
X31601544Y-60427857D01*
X31401585Y-60388083D01*
X31197707Y-60388083D01*
X30997748Y-60427857D01*
X30809390Y-60505878D01*
X30639872Y-60619146D01*
X30495709Y-60763309D01*
X30382441Y-60932827D01*
X30304420Y-61121185D01*
X30264646Y-61321144D01*
X30264646Y-61350473D01*
X30208256Y-61312795D01*
X30019898Y-61234774D01*
X29819939Y-61195000D01*
X29706566Y-61195000D01*
X29626378Y-61037000D01*
X27483000Y-61037000D01*
X27483000Y-62445000D01*
X28383000Y-62445000D01*
X28680023Y-62390729D01*
X28693623Y-62385343D01*
X28722774Y-62531898D01*
X28800795Y-62720256D01*
X28914063Y-62889774D01*
X29058226Y-63033937D01*
X29227744Y-63147205D01*
X29416102Y-63225226D01*
X29616061Y-63265000D01*
X29819939Y-63265000D01*
X30019898Y-63225226D01*
X30208256Y-63147205D01*
X30377774Y-63033937D01*
X30471711Y-62940000D01*
X31214621Y-62940000D01*
X31224220Y-62957958D01*
X31303572Y-63054649D01*
X32248923Y-64000000D01*
X31933618Y-64315305D01*
X31275569Y-64315305D01*
X31240694Y-64311870D01*
X31205819Y-64315305D01*
X31205818Y-64315305D01*
X31101511Y-64325578D01*
X30967675Y-64366177D01*
X30873235Y-64416656D01*
X30844330Y-64432106D01*
X30786522Y-64479548D01*
X30736220Y-64520830D01*
X30713987Y-64547921D01*
X30516989Y-64744919D01*
X30384142Y-64744919D01*
X30184183Y-64784693D01*
X29995825Y-64862714D01*
X29826307Y-64975982D01*
X29778966Y-65023323D01*
X29571645Y-64816002D01*
X29547842Y-64786998D01*
X29432117Y-64692025D01*
X29300088Y-64621453D01*
X29156827Y-64577996D01*
X29045174Y-64566999D01*
X29045163Y-64566999D01*
X29007841Y-64563323D01*
X28970519Y-64566999D01*
X27141481Y-64566999D01*
X27104158Y-64563323D01*
X27066835Y-64566999D01*
X27066826Y-64566999D01*
X26955173Y-64577996D01*
X26811912Y-64621453D01*
X26679883Y-64692025D01*
X26672589Y-64698011D01*
X26593155Y-64763200D01*
X26593151Y-64763204D01*
X26564158Y-64786998D01*
X26540364Y-64815991D01*
X25660000Y-65696357D01*
X25660000Y-62220625D01*
X25751249Y-62279554D01*
X26031977Y-62390729D01*
X26329000Y-62445000D01*
X27229000Y-62445000D01*
X27229000Y-61037000D01*
X27209000Y-61037000D01*
X27209000Y-60783000D01*
X27229000Y-60783000D01*
X27229000Y-59375000D01*
X27483000Y-59375000D01*
X27483000Y-60783000D01*
X29626378Y-60783000D01*
X29747036Y-60545260D01*
X29722755Y-60439913D01*
X29602862Y-60162796D01*
X29431210Y-59914394D01*
X29214396Y-59704252D01*
X28960751Y-59540446D01*
X28680023Y-59429271D01*
X28383000Y-59375000D01*
X27483000Y-59375000D01*
X27229000Y-59375000D01*
X26329000Y-59375000D01*
X26031977Y-59429271D01*
X25751249Y-59540446D01*
X25660000Y-59599375D01*
X25660000Y-55099377D01*
X25775381Y-55134378D01*
X25926200Y-55149232D01*
X26296200Y-55149232D01*
X26447019Y-55134378D01*
X26592042Y-55090385D01*
X26725696Y-55018946D01*
X26808293Y-54951160D01*
X28485037Y-54951160D01*
X28546795Y-55100256D01*
X28660063Y-55269774D01*
X28804226Y-55413937D01*
X28973744Y-55527205D01*
X29162102Y-55605226D01*
X29362061Y-55645000D01*
X29565939Y-55645000D01*
X29765898Y-55605226D01*
X29954256Y-55527205D01*
X30123774Y-55413937D01*
X30267937Y-55269774D01*
X30381205Y-55100256D01*
X30459226Y-54911898D01*
X30499000Y-54711939D01*
X30499000Y-54508061D01*
X30459226Y-54308102D01*
X30381205Y-54119744D01*
X30267937Y-53950226D01*
X30123774Y-53806063D01*
X29954256Y-53692795D01*
X29765898Y-53614774D01*
X29565939Y-53575000D01*
X29362061Y-53575000D01*
X29351756Y-53577050D01*
X29234344Y-53541433D01*
X29130037Y-53531160D01*
X29130035Y-53531160D01*
X29095160Y-53527725D01*
X29060285Y-53531160D01*
X27047083Y-53531160D01*
X27054418Y-53506979D01*
X27069272Y-53356160D01*
X27069272Y-53086160D01*
X27054418Y-52935341D01*
X27010425Y-52790318D01*
X26998921Y-52768796D01*
X27057364Y-52737558D01*
X27190992Y-52627892D01*
X27300658Y-52494264D01*
X27382147Y-52341809D01*
X27432328Y-52176385D01*
X27449272Y-52004350D01*
X27449272Y-51516850D01*
X27432328Y-51344815D01*
X27382147Y-51179391D01*
X27300658Y-51026936D01*
X27190992Y-50893308D01*
X27184636Y-50888092D01*
X27227301Y-50853077D01*
X30605935Y-50853077D01*
X30617625Y-50977613D01*
X30653386Y-51097476D01*
X30711844Y-51208059D01*
X30790753Y-51305113D01*
X30887079Y-51384908D01*
X30997122Y-51444377D01*
X31116652Y-51481235D01*
X31238250Y-51491000D01*
X31397000Y-51332250D01*
X31397000Y-50673000D01*
X30767750Y-50673000D01*
X30609000Y-50831750D01*
X30605935Y-50853077D01*
X27227301Y-50853077D01*
X27262385Y-50824285D01*
X27341737Y-50727594D01*
X27400702Y-50617280D01*
X27437012Y-50497582D01*
X27449272Y-50373100D01*
X27446200Y-50171350D01*
X27287450Y-50012600D01*
X26238200Y-50012600D01*
X26238200Y-50032600D01*
X25984200Y-50032600D01*
X25984200Y-50012600D01*
X25964200Y-50012600D01*
X25964200Y-49758600D01*
X25984200Y-49758600D01*
X25984200Y-49738600D01*
X26238200Y-49738600D01*
X26238200Y-49758600D01*
X27287450Y-49758600D01*
X27446200Y-49599850D01*
X27449272Y-49398100D01*
X27437012Y-49273618D01*
X27400702Y-49153920D01*
X27341737Y-49043606D01*
X27262385Y-48946915D01*
X27165694Y-48867563D01*
X27135839Y-48851605D01*
X27190992Y-48806342D01*
X27300658Y-48672714D01*
X27382147Y-48520259D01*
X27432328Y-48354835D01*
X27449272Y-48182800D01*
X27449272Y-47850000D01*
X29715928Y-47850000D01*
X29719000Y-48364250D01*
X29877750Y-48523000D01*
X30877000Y-48523000D01*
X30877000Y-47373750D01*
X30718250Y-47215000D01*
X30354000Y-47211928D01*
X30229518Y-47224188D01*
X30109820Y-47260498D01*
X29999506Y-47319463D01*
X29902815Y-47398815D01*
X29823463Y-47495506D01*
X29764498Y-47605820D01*
X29728188Y-47725518D01*
X29715928Y-47850000D01*
X27449272Y-47850000D01*
X27449272Y-47695300D01*
X27432328Y-47523265D01*
X27386197Y-47371192D01*
X29715928Y-45041462D01*
X29715928Y-46150000D01*
G37*
%TD.AperFunction*%
D30*
X47053368Y-51466525D02*
X46846525Y-51673368D01*
X46684010Y-51916589D01*
X46572068Y-52186842D01*
X46515000Y-52473740D01*
X46515000Y-52766260D01*
X46572068Y-53053158D01*
X46684010Y-53323411D01*
X46846525Y-53566632D01*
X47053368Y-53773475D01*
X47227760Y-53890000D01*
X47053368Y-54006525D01*
X46846525Y-54213368D01*
X46684010Y-54456589D01*
X46572068Y-54726842D01*
X46515000Y-55013740D01*
X46515000Y-55306260D01*
X46572068Y-55593158D01*
X46684010Y-55863411D01*
X46846525Y-56106632D01*
X47053368Y-56313475D01*
X47227760Y-56430000D01*
X47053368Y-56546525D01*
X46846525Y-56753368D01*
X46684010Y-56996589D01*
X46572068Y-57266842D01*
X46515000Y-57553740D01*
X46515000Y-57846260D01*
X46572068Y-58133158D01*
X46684010Y-58403411D01*
X46846525Y-58646632D01*
X47053368Y-58853475D01*
X47296589Y-59015990D01*
X47566842Y-59127932D01*
X47853740Y-59185000D01*
X48146260Y-59185000D01*
X48433158Y-59127932D01*
X48703411Y-59015990D01*
X48946632Y-58853475D01*
X49153475Y-58646632D01*
X49315990Y-58403411D01*
X49340001Y-58345444D01*
X49340001Y-59644582D01*
X49178751Y-59540446D01*
X48898023Y-59429271D01*
X48601000Y-59375000D01*
X47701000Y-59375000D01*
X47701000Y-60783000D01*
X47721000Y-60783000D01*
X47721000Y-61037000D01*
X47701000Y-61037000D01*
X47701000Y-61057000D01*
X47447000Y-61057000D01*
X47447000Y-61037000D01*
X47427000Y-61037000D01*
X47427000Y-60783000D01*
X47447000Y-60783000D01*
X47447000Y-59375000D01*
X46547000Y-59375000D01*
X46249977Y-59429271D01*
X45969249Y-59540446D01*
X45715604Y-59704252D01*
X45498790Y-59914394D01*
X45327138Y-60162796D01*
X45235647Y-60374265D01*
X45144524Y-60313379D01*
X45201824Y-60227624D01*
X45287383Y-60021067D01*
X45331000Y-59801788D01*
X45331000Y-59578212D01*
X45287383Y-59358933D01*
X45201824Y-59152376D01*
X45077612Y-58966480D01*
X44919520Y-58808388D01*
X44733624Y-58684176D01*
X44527067Y-58598617D01*
X44307788Y-58555000D01*
X44084212Y-58555000D01*
X43864933Y-58598617D01*
X43658376Y-58684176D01*
X43472480Y-58808388D01*
X43314388Y-58966480D01*
X43190176Y-59152376D01*
X43104617Y-59358933D01*
X43061000Y-59578212D01*
X43061000Y-59801788D01*
X43061764Y-59805629D01*
X43020100Y-59783604D01*
X43009610Y-59780474D01*
X42944735Y-59659102D01*
X42847972Y-59541196D01*
X42649982Y-59343206D01*
X42532076Y-59246443D01*
X42397557Y-59174541D01*
X42278273Y-59138356D01*
X42276980Y-59124585D01*
X42241218Y-59004722D01*
X42182761Y-58894139D01*
X42103683Y-58801251D01*
X41879176Y-58801251D01*
X41413016Y-59267411D01*
X41427159Y-59281554D01*
X41247554Y-59461159D01*
X41233411Y-59447016D01*
X41219269Y-59461159D01*
X41099819Y-59341709D01*
X41323972Y-59117556D01*
X41420735Y-58999650D01*
X41492637Y-58865131D01*
X41508553Y-58812664D01*
X41699571Y-58621646D01*
X41699571Y-58397139D01*
X41606683Y-58318061D01*
X41496100Y-58259604D01*
X41485610Y-58256474D01*
X41420735Y-58135102D01*
X41323972Y-58017196D01*
X41185932Y-57879156D01*
X41346087Y-57719001D01*
X42627126Y-57719001D01*
X42662001Y-57722436D01*
X42696876Y-57719001D01*
X42696878Y-57719001D01*
X42801185Y-57708728D01*
X42935021Y-57668129D01*
X43058364Y-57602201D01*
X43166476Y-57513476D01*
X43188713Y-57486380D01*
X43303477Y-57371616D01*
X43656250Y-57369000D01*
X43815000Y-57210250D01*
X43815000Y-56261000D01*
X44069000Y-56261000D01*
X44069000Y-57210250D01*
X44227750Y-57369000D01*
X44642000Y-57372072D01*
X44766482Y-57359812D01*
X44886180Y-57323502D01*
X44996494Y-57264537D01*
X45093185Y-57185185D01*
X45172537Y-57088494D01*
X45231502Y-56978180D01*
X45267812Y-56858482D01*
X45280072Y-56734000D01*
X45277000Y-56419750D01*
X45118250Y-56261000D01*
X44069000Y-56261000D01*
X43815000Y-56261000D01*
X43795000Y-56261000D01*
X43795000Y-56007000D01*
X43815000Y-56007000D01*
X43815000Y-55987000D01*
X44069000Y-55987000D01*
X44069000Y-56007000D01*
X45118250Y-56007000D01*
X45120767Y-56004483D01*
X45158923Y-56008065D01*
X45180250Y-56005000D01*
X45339000Y-55846250D01*
X45339000Y-55217000D01*
X45593000Y-55217000D01*
X45593000Y-55846250D01*
X45751750Y-56005000D01*
X45773077Y-56008065D01*
X45897613Y-55996375D01*
X46017476Y-55960614D01*
X46128059Y-55902156D01*
X46225113Y-55823247D01*
X46304908Y-55726921D01*
X46364377Y-55616878D01*
X46401235Y-55497348D01*
X46411000Y-55375750D01*
X46252250Y-55217000D01*
X45593000Y-55217000D01*
X45339000Y-55217000D01*
X45319000Y-55217000D01*
X45319000Y-55048072D01*
X45636000Y-55048072D01*
X45787794Y-55033122D01*
X45933755Y-54988845D01*
X45982108Y-54963000D01*
X46252250Y-54963000D01*
X46411000Y-54804250D01*
X46401235Y-54682652D01*
X46364377Y-54563122D01*
X46359172Y-54553491D01*
X46399122Y-54421794D01*
X46414072Y-54270000D01*
X46414072Y-53990000D01*
X46399122Y-53838206D01*
X46354845Y-53692245D01*
X46282943Y-53557726D01*
X46186180Y-53439820D01*
X46068274Y-53343057D01*
X45933755Y-53271155D01*
X45787794Y-53226878D01*
X45636000Y-53211928D01*
X45296000Y-53211928D01*
X45144206Y-53226878D01*
X45104072Y-53239053D01*
X45104072Y-52901000D01*
X45089218Y-52750181D01*
X45045225Y-52605158D01*
X44973786Y-52471504D01*
X44913331Y-52397840D01*
X44946473Y-52387786D01*
X45091532Y-52310250D01*
X45218677Y-52205905D01*
X45244831Y-52174036D01*
X45992934Y-51425934D01*
X46041794Y-51421122D01*
X46187755Y-51376845D01*
X46232366Y-51353000D01*
X47223270Y-51353000D01*
X47053368Y-51466525D01*
%TA.AperFunction,Conductor*%
D31*
G36*
X47053368Y-51466525D02*
G01*
X46846525Y-51673368D01*
X46684010Y-51916589D01*
X46572068Y-52186842D01*
X46515000Y-52473740D01*
X46515000Y-52766260D01*
X46572068Y-53053158D01*
X46684010Y-53323411D01*
X46846525Y-53566632D01*
X47053368Y-53773475D01*
X47227760Y-53890000D01*
X47053368Y-54006525D01*
X46846525Y-54213368D01*
X46684010Y-54456589D01*
X46572068Y-54726842D01*
X46515000Y-55013740D01*
X46515000Y-55306260D01*
X46572068Y-55593158D01*
X46684010Y-55863411D01*
X46846525Y-56106632D01*
X47053368Y-56313475D01*
X47227760Y-56430000D01*
X47053368Y-56546525D01*
X46846525Y-56753368D01*
X46684010Y-56996589D01*
X46572068Y-57266842D01*
X46515000Y-57553740D01*
X46515000Y-57846260D01*
X46572068Y-58133158D01*
X46684010Y-58403411D01*
X46846525Y-58646632D01*
X47053368Y-58853475D01*
X47296589Y-59015990D01*
X47566842Y-59127932D01*
X47853740Y-59185000D01*
X48146260Y-59185000D01*
X48433158Y-59127932D01*
X48703411Y-59015990D01*
X48946632Y-58853475D01*
X49153475Y-58646632D01*
X49315990Y-58403411D01*
X49340001Y-58345444D01*
X49340001Y-59644582D01*
X49178751Y-59540446D01*
X48898023Y-59429271D01*
X48601000Y-59375000D01*
X47701000Y-59375000D01*
X47701000Y-60783000D01*
X47721000Y-60783000D01*
X47721000Y-61037000D01*
X47701000Y-61037000D01*
X47701000Y-61057000D01*
X47447000Y-61057000D01*
X47447000Y-61037000D01*
X47427000Y-61037000D01*
X47427000Y-60783000D01*
X47447000Y-60783000D01*
X47447000Y-59375000D01*
X46547000Y-59375000D01*
X46249977Y-59429271D01*
X45969249Y-59540446D01*
X45715604Y-59704252D01*
X45498790Y-59914394D01*
X45327138Y-60162796D01*
X45235647Y-60374265D01*
X45144524Y-60313379D01*
X45201824Y-60227624D01*
X45287383Y-60021067D01*
X45331000Y-59801788D01*
X45331000Y-59578212D01*
X45287383Y-59358933D01*
X45201824Y-59152376D01*
X45077612Y-58966480D01*
X44919520Y-58808388D01*
X44733624Y-58684176D01*
X44527067Y-58598617D01*
X44307788Y-58555000D01*
X44084212Y-58555000D01*
X43864933Y-58598617D01*
X43658376Y-58684176D01*
X43472480Y-58808388D01*
X43314388Y-58966480D01*
X43190176Y-59152376D01*
X43104617Y-59358933D01*
X43061000Y-59578212D01*
X43061000Y-59801788D01*
X43061764Y-59805629D01*
X43020100Y-59783604D01*
X43009610Y-59780474D01*
X42944735Y-59659102D01*
X42847972Y-59541196D01*
X42649982Y-59343206D01*
X42532076Y-59246443D01*
X42397557Y-59174541D01*
X42278273Y-59138356D01*
X42276980Y-59124585D01*
X42241218Y-59004722D01*
X42182761Y-58894139D01*
X42103683Y-58801251D01*
X41879176Y-58801251D01*
X41413016Y-59267411D01*
X41427159Y-59281554D01*
X41247554Y-59461159D01*
X41233411Y-59447016D01*
X41219269Y-59461159D01*
X41099819Y-59341709D01*
X41323972Y-59117556D01*
X41420735Y-58999650D01*
X41492637Y-58865131D01*
X41508553Y-58812664D01*
X41699571Y-58621646D01*
X41699571Y-58397139D01*
X41606683Y-58318061D01*
X41496100Y-58259604D01*
X41485610Y-58256474D01*
X41420735Y-58135102D01*
X41323972Y-58017196D01*
X41185932Y-57879156D01*
X41346087Y-57719001D01*
X42627126Y-57719001D01*
X42662001Y-57722436D01*
X42696876Y-57719001D01*
X42696878Y-57719001D01*
X42801185Y-57708728D01*
X42935021Y-57668129D01*
X43058364Y-57602201D01*
X43166476Y-57513476D01*
X43188713Y-57486380D01*
X43303477Y-57371616D01*
X43656250Y-57369000D01*
X43815000Y-57210250D01*
X43815000Y-56261000D01*
X44069000Y-56261000D01*
X44069000Y-57210250D01*
X44227750Y-57369000D01*
X44642000Y-57372072D01*
X44766482Y-57359812D01*
X44886180Y-57323502D01*
X44996494Y-57264537D01*
X45093185Y-57185185D01*
X45172537Y-57088494D01*
X45231502Y-56978180D01*
X45267812Y-56858482D01*
X45280072Y-56734000D01*
X45277000Y-56419750D01*
X45118250Y-56261000D01*
X44069000Y-56261000D01*
X43815000Y-56261000D01*
X43795000Y-56261000D01*
X43795000Y-56007000D01*
X43815000Y-56007000D01*
X43815000Y-55987000D01*
X44069000Y-55987000D01*
X44069000Y-56007000D01*
X45118250Y-56007000D01*
X45120767Y-56004483D01*
X45158923Y-56008065D01*
X45180250Y-56005000D01*
X45339000Y-55846250D01*
X45339000Y-55217000D01*
X45593000Y-55217000D01*
X45593000Y-55846250D01*
X45751750Y-56005000D01*
X45773077Y-56008065D01*
X45897613Y-55996375D01*
X46017476Y-55960614D01*
X46128059Y-55902156D01*
X46225113Y-55823247D01*
X46304908Y-55726921D01*
X46364377Y-55616878D01*
X46401235Y-55497348D01*
X46411000Y-55375750D01*
X46252250Y-55217000D01*
X45593000Y-55217000D01*
X45339000Y-55217000D01*
X45319000Y-55217000D01*
X45319000Y-55048072D01*
X45636000Y-55048072D01*
X45787794Y-55033122D01*
X45933755Y-54988845D01*
X45982108Y-54963000D01*
X46252250Y-54963000D01*
X46411000Y-54804250D01*
X46401235Y-54682652D01*
X46364377Y-54563122D01*
X46359172Y-54553491D01*
X46399122Y-54421794D01*
X46414072Y-54270000D01*
X46414072Y-53990000D01*
X46399122Y-53838206D01*
X46354845Y-53692245D01*
X46282943Y-53557726D01*
X46186180Y-53439820D01*
X46068274Y-53343057D01*
X45933755Y-53271155D01*
X45787794Y-53226878D01*
X45636000Y-53211928D01*
X45296000Y-53211928D01*
X45144206Y-53226878D01*
X45104072Y-53239053D01*
X45104072Y-52901000D01*
X45089218Y-52750181D01*
X45045225Y-52605158D01*
X44973786Y-52471504D01*
X44913331Y-52397840D01*
X44946473Y-52387786D01*
X45091532Y-52310250D01*
X45218677Y-52205905D01*
X45244831Y-52174036D01*
X45992934Y-51425934D01*
X46041794Y-51421122D01*
X46187755Y-51376845D01*
X46232366Y-51353000D01*
X47223270Y-51353000D01*
X47053368Y-51466525D01*
G37*
%TD.AperFunction*%
D30*
X42881453Y-60707563D02*
X42673563Y-60915453D01*
X42623819Y-60865709D01*
X42831709Y-60657819D01*
X42881453Y-60707563D01*
%TA.AperFunction,Conductor*%
D31*
G36*
X42881453Y-60707563D02*
G01*
X42673563Y-60915453D01*
X42623819Y-60865709D01*
X42831709Y-60657819D01*
X42881453Y-60707563D01*
G37*
%TD.AperFunction*%
D30*
X41869000Y-54307000D02*
X41889000Y-54307000D01*
X41889000Y-54561000D01*
X41869000Y-54561000D01*
X41869000Y-54581000D01*
X41615000Y-54581000D01*
X41615000Y-54561000D01*
X41595000Y-54561000D01*
X41595000Y-54307000D01*
X41615000Y-54307000D01*
X41615000Y-54287000D01*
X41869000Y-54287000D01*
X41869000Y-54307000D01*
%TA.AperFunction,Conductor*%
D31*
G36*
X41869000Y-54307000D02*
G01*
X41889000Y-54307000D01*
X41889000Y-54561000D01*
X41869000Y-54561000D01*
X41869000Y-54581000D01*
X41615000Y-54581000D01*
X41615000Y-54561000D01*
X41595000Y-54561000D01*
X41595000Y-54307000D01*
X41615000Y-54307000D01*
X41615000Y-54287000D01*
X41869000Y-54287000D01*
X41869000Y-54307000D01*
G37*
%TD.AperFunction*%
D30*
X49340000Y-43746112D02*
X49301185Y-43698815D01*
X49204494Y-43619463D01*
X49094180Y-43560498D01*
X48974482Y-43524188D01*
X48850000Y-43511928D01*
X48285750Y-43515000D01*
X48127000Y-43673750D01*
X48127000Y-44873000D01*
X48147000Y-44873000D01*
X48147000Y-45127000D01*
X48127000Y-45127000D01*
X48127000Y-45147000D01*
X47873000Y-45147000D01*
X47873000Y-45127000D01*
X46673750Y-45127000D01*
X46515000Y-45285750D01*
X46511928Y-45850000D01*
X46524188Y-45974482D01*
X46560498Y-46094180D01*
X46619463Y-46204494D01*
X46698815Y-46301185D01*
X46795506Y-46380537D01*
X46905820Y-46439502D01*
X46978380Y-46461513D01*
X46846525Y-46593368D01*
X46684010Y-46836589D01*
X46572068Y-47106842D01*
X46515000Y-47393740D01*
X46515000Y-47686260D01*
X46572068Y-47973158D01*
X46684010Y-48243411D01*
X46846525Y-48486632D01*
X47053368Y-48693475D01*
X47227760Y-48810000D01*
X47053368Y-48926525D01*
X46846525Y-49133368D01*
X46684010Y-49376589D01*
X46661473Y-49430998D01*
X46506252Y-49430998D01*
X46665000Y-49272250D01*
X46655235Y-49150652D01*
X46618377Y-49031122D01*
X46558908Y-48921079D01*
X46479113Y-48824753D01*
X46382059Y-48745844D01*
X46271476Y-48687386D01*
X46151613Y-48651625D01*
X46027077Y-48639935D01*
X46005750Y-48643000D01*
X45847000Y-48801750D01*
X45847000Y-49431000D01*
X45867000Y-49431000D01*
X45867000Y-49599928D01*
X45550000Y-49599928D01*
X45398206Y-49614878D01*
X45252245Y-49659155D01*
X45203892Y-49685000D01*
X44933750Y-49685000D01*
X44775000Y-49843750D01*
X44784765Y-49965348D01*
X44821623Y-50084878D01*
X44826828Y-50094509D01*
X44786878Y-50226206D01*
X44782066Y-50275066D01*
X44320298Y-50736835D01*
X44320669Y-50732879D01*
X44307838Y-50608454D01*
X44270980Y-50488924D01*
X44211511Y-50378882D01*
X44131717Y-50282555D01*
X44114469Y-50269642D01*
X43889963Y-50269642D01*
X43445016Y-50714589D01*
X43459159Y-50728732D01*
X43410276Y-50777614D01*
X43269142Y-50777614D01*
X43131819Y-50640291D01*
X43251269Y-50520842D01*
X43265411Y-50534984D01*
X43710358Y-50090037D01*
X43710358Y-49938956D01*
X43740874Y-49901773D01*
X43818552Y-49838024D01*
X44030684Y-49625892D01*
X44094433Y-49548214D01*
X44172105Y-49484470D01*
X44384237Y-49272338D01*
X44384309Y-49272250D01*
X44775000Y-49272250D01*
X44933750Y-49431000D01*
X45593000Y-49431000D01*
X45593000Y-48801750D01*
X45434250Y-48643000D01*
X45412923Y-48639935D01*
X45288387Y-48651625D01*
X45168524Y-48687386D01*
X45057941Y-48745844D01*
X44960887Y-48824753D01*
X44881092Y-48921079D01*
X44821623Y-49031122D01*
X44784765Y-49150652D01*
X44775000Y-49272250D01*
X44384309Y-49272250D01*
X44447981Y-49194666D01*
X44525659Y-49130917D01*
X44737791Y-48918785D01*
X44817143Y-48822094D01*
X44876108Y-48711780D01*
X44912418Y-48592082D01*
X44924678Y-48467600D01*
X44912418Y-48343118D01*
X44876108Y-48223420D01*
X44817143Y-48113106D01*
X44737791Y-48016415D01*
X43721376Y-47000000D01*
X44737791Y-45983585D01*
X44817143Y-45886894D01*
X44876108Y-45776580D01*
X44912418Y-45656882D01*
X44924678Y-45532400D01*
X44912418Y-45407918D01*
X44876108Y-45288220D01*
X44817143Y-45177906D01*
X44809845Y-45169013D01*
X45678112Y-45169013D01*
X45712987Y-45172448D01*
X45747862Y-45169013D01*
X45747864Y-45169013D01*
X45852171Y-45158740D01*
X45986007Y-45118141D01*
X46109350Y-45052213D01*
X46217462Y-44963488D01*
X46239699Y-44936392D01*
X46514712Y-44661379D01*
X46515000Y-44714250D01*
X46673750Y-44873000D01*
X47873000Y-44873000D01*
X47873000Y-43673750D01*
X47714250Y-43515000D01*
X47661379Y-43514712D01*
X47848019Y-43328072D01*
X47937000Y-43328072D01*
X48087819Y-43313218D01*
X48232842Y-43269225D01*
X48366496Y-43197786D01*
X48483644Y-43101644D01*
X48579786Y-42984496D01*
X48651225Y-42850842D01*
X48695218Y-42705819D01*
X48710072Y-42555000D01*
X48710072Y-42285000D01*
X48695218Y-42134181D01*
X48651225Y-41989158D01*
X48608914Y-41910000D01*
X48651225Y-41830842D01*
X48695218Y-41685819D01*
X48710072Y-41535000D01*
X48710072Y-41265000D01*
X48695218Y-41114181D01*
X48674557Y-41046072D01*
X49018000Y-41046072D01*
X49042450Y-41043664D01*
X49067009Y-41043664D01*
X49191490Y-41031404D01*
X49287623Y-41012282D01*
X49340000Y-40996394D01*
X49340000Y-43746112D01*
%TA.AperFunction,Conductor*%
D31*
G36*
X49340000Y-43746112D02*
G01*
X49301185Y-43698815D01*
X49204494Y-43619463D01*
X49094180Y-43560498D01*
X48974482Y-43524188D01*
X48850000Y-43511928D01*
X48285750Y-43515000D01*
X48127000Y-43673750D01*
X48127000Y-44873000D01*
X48147000Y-44873000D01*
X48147000Y-45127000D01*
X48127000Y-45127000D01*
X48127000Y-45147000D01*
X47873000Y-45147000D01*
X47873000Y-45127000D01*
X46673750Y-45127000D01*
X46515000Y-45285750D01*
X46511928Y-45850000D01*
X46524188Y-45974482D01*
X46560498Y-46094180D01*
X46619463Y-46204494D01*
X46698815Y-46301185D01*
X46795506Y-46380537D01*
X46905820Y-46439502D01*
X46978380Y-46461513D01*
X46846525Y-46593368D01*
X46684010Y-46836589D01*
X46572068Y-47106842D01*
X46515000Y-47393740D01*
X46515000Y-47686260D01*
X46572068Y-47973158D01*
X46684010Y-48243411D01*
X46846525Y-48486632D01*
X47053368Y-48693475D01*
X47227760Y-48810000D01*
X47053368Y-48926525D01*
X46846525Y-49133368D01*
X46684010Y-49376589D01*
X46661473Y-49430998D01*
X46506252Y-49430998D01*
X46665000Y-49272250D01*
X46655235Y-49150652D01*
X46618377Y-49031122D01*
X46558908Y-48921079D01*
X46479113Y-48824753D01*
X46382059Y-48745844D01*
X46271476Y-48687386D01*
X46151613Y-48651625D01*
X46027077Y-48639935D01*
X46005750Y-48643000D01*
X45847000Y-48801750D01*
X45847000Y-49431000D01*
X45867000Y-49431000D01*
X45867000Y-49599928D01*
X45550000Y-49599928D01*
X45398206Y-49614878D01*
X45252245Y-49659155D01*
X45203892Y-49685000D01*
X44933750Y-49685000D01*
X44775000Y-49843750D01*
X44784765Y-49965348D01*
X44821623Y-50084878D01*
X44826828Y-50094509D01*
X44786878Y-50226206D01*
X44782066Y-50275066D01*
X44320298Y-50736835D01*
X44320669Y-50732879D01*
X44307838Y-50608454D01*
X44270980Y-50488924D01*
X44211511Y-50378882D01*
X44131717Y-50282555D01*
X44114469Y-50269642D01*
X43889963Y-50269642D01*
X43445016Y-50714589D01*
X43459159Y-50728732D01*
X43410276Y-50777614D01*
X43269142Y-50777614D01*
X43131819Y-50640291D01*
X43251269Y-50520842D01*
X43265411Y-50534984D01*
X43710358Y-50090037D01*
X43710358Y-49938956D01*
X43740874Y-49901773D01*
X43818552Y-49838024D01*
X44030684Y-49625892D01*
X44094433Y-49548214D01*
X44172105Y-49484470D01*
X44384237Y-49272338D01*
X44384309Y-49272250D01*
X44775000Y-49272250D01*
X44933750Y-49431000D01*
X45593000Y-49431000D01*
X45593000Y-48801750D01*
X45434250Y-48643000D01*
X45412923Y-48639935D01*
X45288387Y-48651625D01*
X45168524Y-48687386D01*
X45057941Y-48745844D01*
X44960887Y-48824753D01*
X44881092Y-48921079D01*
X44821623Y-49031122D01*
X44784765Y-49150652D01*
X44775000Y-49272250D01*
X44384309Y-49272250D01*
X44447981Y-49194666D01*
X44525659Y-49130917D01*
X44737791Y-48918785D01*
X44817143Y-48822094D01*
X44876108Y-48711780D01*
X44912418Y-48592082D01*
X44924678Y-48467600D01*
X44912418Y-48343118D01*
X44876108Y-48223420D01*
X44817143Y-48113106D01*
X44737791Y-48016415D01*
X43721376Y-47000000D01*
X44737791Y-45983585D01*
X44817143Y-45886894D01*
X44876108Y-45776580D01*
X44912418Y-45656882D01*
X44924678Y-45532400D01*
X44912418Y-45407918D01*
X44876108Y-45288220D01*
X44817143Y-45177906D01*
X44809845Y-45169013D01*
X45678112Y-45169013D01*
X45712987Y-45172448D01*
X45747862Y-45169013D01*
X45747864Y-45169013D01*
X45852171Y-45158740D01*
X45986007Y-45118141D01*
X46109350Y-45052213D01*
X46217462Y-44963488D01*
X46239699Y-44936392D01*
X46514712Y-44661379D01*
X46515000Y-44714250D01*
X46673750Y-44873000D01*
X47873000Y-44873000D01*
X47873000Y-43673750D01*
X47714250Y-43515000D01*
X47661379Y-43514712D01*
X47848019Y-43328072D01*
X47937000Y-43328072D01*
X48087819Y-43313218D01*
X48232842Y-43269225D01*
X48366496Y-43197786D01*
X48483644Y-43101644D01*
X48579786Y-42984496D01*
X48651225Y-42850842D01*
X48695218Y-42705819D01*
X48710072Y-42555000D01*
X48710072Y-42285000D01*
X48695218Y-42134181D01*
X48651225Y-41989158D01*
X48608914Y-41910000D01*
X48651225Y-41830842D01*
X48695218Y-41685819D01*
X48710072Y-41535000D01*
X48710072Y-41265000D01*
X48695218Y-41114181D01*
X48674557Y-41046072D01*
X49018000Y-41046072D01*
X49042450Y-41043664D01*
X49067009Y-41043664D01*
X49191490Y-41031404D01*
X49287623Y-41012282D01*
X49340000Y-40996394D01*
X49340000Y-43746112D01*
G37*
%TD.AperFunction*%
D30*
X42163004Y-46383204D02*
X42226753Y-46460882D01*
X42438885Y-46673014D01*
X42516563Y-46736763D01*
X42580307Y-46814435D01*
X42765872Y-47000000D01*
X42580307Y-47185565D01*
X42516563Y-47263237D01*
X42438885Y-47326986D01*
X42226753Y-47539118D01*
X42163004Y-47616796D01*
X42085332Y-47680540D01*
X41873200Y-47892672D01*
X41809456Y-47970344D01*
X41731778Y-48034093D01*
X41519646Y-48246225D01*
X41455900Y-48323900D01*
X41378225Y-48387646D01*
X41166093Y-48599778D01*
X41100313Y-48679931D01*
X41049295Y-48720921D01*
X41049295Y-48766524D01*
X41027776Y-48806783D01*
X40992945Y-48921605D01*
X40878123Y-48956436D01*
X40837864Y-48977955D01*
X40792261Y-48977955D01*
X40751271Y-49028973D01*
X40671118Y-49094753D01*
X40458986Y-49306885D01*
X40395237Y-49384563D01*
X40317565Y-49448307D01*
X40132000Y-49633872D01*
X39946435Y-49448307D01*
X39868763Y-49384563D01*
X39805014Y-49306885D01*
X39592882Y-49094753D01*
X39515204Y-49031004D01*
X39451460Y-48953332D01*
X39239328Y-48741200D01*
X39161656Y-48677456D01*
X39097907Y-48599778D01*
X38885775Y-48387646D01*
X38808100Y-48323900D01*
X38744354Y-48246225D01*
X38532222Y-48034093D01*
X38454544Y-47970344D01*
X38390800Y-47892672D01*
X38178668Y-47680540D01*
X38100996Y-47616796D01*
X38054706Y-47560392D01*
X38953297Y-47560392D01*
X39027286Y-47634381D01*
X39049523Y-47661477D01*
X39157635Y-47750202D01*
X39280978Y-47816130D01*
X39414814Y-47856729D01*
X39519121Y-47867002D01*
X39519122Y-47867002D01*
X39553997Y-47870437D01*
X39588872Y-47867002D01*
X40293676Y-47867002D01*
X40328551Y-47870437D01*
X40363426Y-47867002D01*
X40363428Y-47867002D01*
X40467735Y-47856729D01*
X40601571Y-47816130D01*
X40724914Y-47750202D01*
X40833026Y-47661477D01*
X40855263Y-47634381D01*
X42131937Y-46357708D01*
X42163004Y-46383204D01*
%TA.AperFunction,Conductor*%
D31*
G36*
X42163004Y-46383204D02*
G01*
X42226753Y-46460882D01*
X42438885Y-46673014D01*
X42516563Y-46736763D01*
X42580307Y-46814435D01*
X42765872Y-47000000D01*
X42580307Y-47185565D01*
X42516563Y-47263237D01*
X42438885Y-47326986D01*
X42226753Y-47539118D01*
X42163004Y-47616796D01*
X42085332Y-47680540D01*
X41873200Y-47892672D01*
X41809456Y-47970344D01*
X41731778Y-48034093D01*
X41519646Y-48246225D01*
X41455900Y-48323900D01*
X41378225Y-48387646D01*
X41166093Y-48599778D01*
X41100313Y-48679931D01*
X41049295Y-48720921D01*
X41049295Y-48766524D01*
X41027776Y-48806783D01*
X40992945Y-48921605D01*
X40878123Y-48956436D01*
X40837864Y-48977955D01*
X40792261Y-48977955D01*
X40751271Y-49028973D01*
X40671118Y-49094753D01*
X40458986Y-49306885D01*
X40395237Y-49384563D01*
X40317565Y-49448307D01*
X40132000Y-49633872D01*
X39946435Y-49448307D01*
X39868763Y-49384563D01*
X39805014Y-49306885D01*
X39592882Y-49094753D01*
X39515204Y-49031004D01*
X39451460Y-48953332D01*
X39239328Y-48741200D01*
X39161656Y-48677456D01*
X39097907Y-48599778D01*
X38885775Y-48387646D01*
X38808100Y-48323900D01*
X38744354Y-48246225D01*
X38532222Y-48034093D01*
X38454544Y-47970344D01*
X38390800Y-47892672D01*
X38178668Y-47680540D01*
X38100996Y-47616796D01*
X38054706Y-47560392D01*
X38953297Y-47560392D01*
X39027286Y-47634381D01*
X39049523Y-47661477D01*
X39157635Y-47750202D01*
X39280978Y-47816130D01*
X39414814Y-47856729D01*
X39519121Y-47867002D01*
X39519122Y-47867002D01*
X39553997Y-47870437D01*
X39588872Y-47867002D01*
X40293676Y-47867002D01*
X40328551Y-47870437D01*
X40363426Y-47867002D01*
X40363428Y-47867002D01*
X40467735Y-47856729D01*
X40601571Y-47816130D01*
X40724914Y-47750202D01*
X40833026Y-47661477D01*
X40855263Y-47634381D01*
X42131937Y-46357708D01*
X42163004Y-46383204D01*
G37*
%TD.AperFunction*%
D30*
X40034460Y-46447002D02*
X39931174Y-46447002D01*
X39964797Y-46365830D01*
X39965400Y-46362801D01*
X40057978Y-46344386D01*
X40193007Y-46288455D01*
X40034460Y-46447002D01*
%TA.AperFunction,Conductor*%
D31*
G36*
X40034460Y-46447002D02*
G01*
X39931174Y-46447002D01*
X39964797Y-46365830D01*
X39965400Y-46362801D01*
X40057978Y-46344386D01*
X40193007Y-46288455D01*
X40034460Y-46447002D01*
G37*
%TD.AperFunction*%
D30*
X35100181Y-45371709D02*
X34980732Y-45491159D01*
X34966589Y-45477016D01*
X34521642Y-45921963D01*
X34521642Y-46146469D01*
X34534555Y-46163717D01*
X34601341Y-46219040D01*
X34285272Y-46219040D01*
X34292072Y-46150000D01*
X34289637Y-45742358D01*
X34342037Y-45742358D01*
X34786984Y-45297411D01*
X34772842Y-45283269D01*
X34892291Y-45163819D01*
X35100181Y-45371709D01*
%TA.AperFunction,Conductor*%
D31*
G36*
X35100181Y-45371709D02*
G01*
X34980732Y-45491159D01*
X34966589Y-45477016D01*
X34521642Y-45921963D01*
X34521642Y-46146469D01*
X34534555Y-46163717D01*
X34601341Y-46219040D01*
X34285272Y-46219040D01*
X34292072Y-46150000D01*
X34289637Y-45742358D01*
X34342037Y-45742358D01*
X34786984Y-45297411D01*
X34772842Y-45283269D01*
X34892291Y-45163819D01*
X35100181Y-45371709D01*
G37*
%TD.AperFunction*%
D30*
X26238200Y-45937050D02*
X26258200Y-45937050D01*
X26258200Y-46191050D01*
X26238200Y-46191050D01*
X26238200Y-46211050D01*
X25984200Y-46211050D01*
X25984200Y-46191050D01*
X25964200Y-46191050D01*
X25964200Y-45937050D01*
X25984200Y-45937050D01*
X25984200Y-45917050D01*
X26238200Y-45917050D01*
X26238200Y-45937050D01*
%TA.AperFunction,Conductor*%
D31*
G36*
X26238200Y-45937050D02*
G01*
X26258200Y-45937050D01*
X26258200Y-46191050D01*
X26238200Y-46191050D01*
X26238200Y-46211050D01*
X25984200Y-46211050D01*
X25984200Y-46191050D01*
X25964200Y-46191050D01*
X25964200Y-45937050D01*
X25984200Y-45937050D01*
X25984200Y-45917050D01*
X26238200Y-45917050D01*
X26238200Y-45937050D01*
G37*
%TD.AperFunction*%
D30*
X40748796Y-44968996D02*
X40812540Y-45046668D01*
X41024672Y-45258800D01*
X41102344Y-45322544D01*
X41127845Y-45353616D01*
X40695375Y-45786087D01*
X40751306Y-45651058D01*
X40791080Y-45451099D01*
X40791080Y-45247221D01*
X40751306Y-45047262D01*
X40703483Y-44931808D01*
X40748796Y-44968996D01*
%TA.AperFunction,Conductor*%
D31*
G36*
X40748796Y-44968996D02*
G01*
X40812540Y-45046668D01*
X41024672Y-45258800D01*
X41102344Y-45322544D01*
X41127845Y-45353616D01*
X40695375Y-45786087D01*
X40751306Y-45651058D01*
X40791080Y-45451099D01*
X40791080Y-45247221D01*
X40751306Y-45047262D01*
X40703483Y-44931808D01*
X40748796Y-44968996D01*
G37*
%TD.AperFunction*%
D30*
X33131000Y-45223000D02*
X33151000Y-45223000D01*
X33151000Y-45477000D01*
X33131000Y-45477000D01*
X33131000Y-45497000D01*
X32877000Y-45497000D01*
X32877000Y-45477000D01*
X32857000Y-45477000D01*
X32857000Y-45223000D01*
X32877000Y-45223000D01*
X32877000Y-45203000D01*
X33131000Y-45203000D01*
X33131000Y-45223000D01*
%TA.AperFunction,Conductor*%
D31*
G36*
X33131000Y-45223000D02*
G01*
X33151000Y-45223000D01*
X33151000Y-45477000D01*
X33131000Y-45477000D01*
X33131000Y-45497000D01*
X32877000Y-45497000D01*
X32877000Y-45477000D01*
X32857000Y-45477000D01*
X32857000Y-45223000D01*
X32877000Y-45223000D01*
X32877000Y-45203000D01*
X33131000Y-45203000D01*
X33131000Y-45223000D01*
G37*
%TD.AperFunction*%
D30*
X28856342Y-42515059D02*
X28900335Y-42660082D01*
X28971774Y-42793736D01*
X29039561Y-42876333D01*
X29039560Y-43709646D01*
X27404457Y-45344749D01*
X27400702Y-45332370D01*
X27341737Y-45222056D01*
X27262385Y-45125365D01*
X27165694Y-45046013D01*
X27135839Y-45030055D01*
X27190992Y-44984792D01*
X27300658Y-44851164D01*
X27382147Y-44698709D01*
X27432328Y-44533285D01*
X27449272Y-44361250D01*
X27449272Y-43873750D01*
X27441182Y-43791609D01*
X28843914Y-42388877D01*
X28856342Y-42515059D01*
%TA.AperFunction,Conductor*%
D31*
G36*
X28856342Y-42515059D02*
G01*
X28900335Y-42660082D01*
X28971774Y-42793736D01*
X29039561Y-42876333D01*
X29039560Y-43709646D01*
X27404457Y-45344749D01*
X27400702Y-45332370D01*
X27341737Y-45222056D01*
X27262385Y-45125365D01*
X27165694Y-45046013D01*
X27135839Y-45030055D01*
X27190992Y-44984792D01*
X27300658Y-44851164D01*
X27382147Y-44698709D01*
X27432328Y-44533285D01*
X27449272Y-44361250D01*
X27449272Y-43873750D01*
X27441182Y-43791609D01*
X28843914Y-42388877D01*
X28856342Y-42515059D01*
G37*
%TD.AperFunction*%
D30*
X30483741Y-43122458D02*
X30618561Y-43135736D01*
X30605928Y-43264000D01*
X30605928Y-43604000D01*
X30620878Y-43755794D01*
X30665155Y-43901755D01*
X30670593Y-43911928D01*
X30459560Y-43911928D01*
X30459560Y-43115123D01*
X30483741Y-43122458D01*
%TA.AperFunction,Conductor*%
D31*
G36*
X30483741Y-43122458D02*
G01*
X30618561Y-43135736D01*
X30605928Y-43264000D01*
X30605928Y-43604000D01*
X30620878Y-43755794D01*
X30665155Y-43901755D01*
X30670593Y-43911928D01*
X30459560Y-43911928D01*
X30459560Y-43115123D01*
X30483741Y-43122458D01*
G37*
%TD.AperFunction*%
D30*
X34867928Y-43581000D02*
X34759002Y-43581000D01*
X34759002Y-43425990D01*
X34762678Y-43388667D01*
X34759002Y-43351344D01*
X34759002Y-43351335D01*
X34752665Y-43287000D01*
X34867928Y-43287000D01*
X34867928Y-43581000D01*
%TA.AperFunction,Conductor*%
D31*
G36*
X34867928Y-43581000D02*
G01*
X34759002Y-43581000D01*
X34759002Y-43425990D01*
X34762678Y-43388667D01*
X34759002Y-43351344D01*
X34759002Y-43351335D01*
X34752665Y-43287000D01*
X34867928Y-43287000D01*
X34867928Y-43581000D01*
G37*
%TD.AperFunction*%
D30*
X32611000Y-43307000D02*
X32631000Y-43307000D01*
X32631000Y-43561000D01*
X32611000Y-43561000D01*
X32611000Y-43581000D01*
X32442072Y-43581000D01*
X32442072Y-43287000D01*
X32611000Y-43287000D01*
X32611000Y-43307000D01*
%TA.AperFunction,Conductor*%
D31*
G36*
X32611000Y-43307000D02*
G01*
X32631000Y-43307000D01*
X32631000Y-43561000D01*
X32611000Y-43561000D01*
X32611000Y-43581000D01*
X32442072Y-43581000D01*
X32442072Y-43287000D01*
X32611000Y-43287000D01*
X32611000Y-43307000D01*
G37*
%TD.AperFunction*%
D30*
X33136345Y-25701953D02*
X32820786Y-25857962D01*
X32629980Y-26232745D01*
X32515956Y-26637551D01*
X32483098Y-27056824D01*
X32532666Y-27474451D01*
X32662757Y-27874383D01*
X32820786Y-28170038D01*
X33136347Y-28326048D01*
X34448395Y-27014000D01*
X34434253Y-26999858D01*
X34613858Y-26820253D01*
X34628000Y-26834395D01*
X34642143Y-26820253D01*
X34821748Y-26999858D01*
X34807605Y-27014000D01*
X36119653Y-28326048D01*
X36435214Y-28170038D01*
X36626020Y-27795255D01*
X36695782Y-27547587D01*
X42787192Y-27547587D01*
X43743000Y-28503395D01*
X44698808Y-27547587D01*
X46237192Y-27547587D01*
X47193000Y-28503395D01*
X48148808Y-27547587D01*
X48053044Y-27283186D01*
X47763429Y-27142296D01*
X47451892Y-27060616D01*
X47130405Y-27041282D01*
X46811325Y-27085039D01*
X46506912Y-27190205D01*
X46332956Y-27283186D01*
X46237192Y-27547587D01*
X44698808Y-27547587D01*
X44603044Y-27283186D01*
X44313429Y-27142296D01*
X44001892Y-27060616D01*
X43680405Y-27041282D01*
X43361325Y-27085039D01*
X43056912Y-27190205D01*
X42882956Y-27283186D01*
X42787192Y-27547587D01*
X36695782Y-27547587D01*
X36740044Y-27390449D01*
X36772902Y-26971176D01*
X36723334Y-26553549D01*
X36593243Y-26153617D01*
X36435214Y-25857962D01*
X36119655Y-25701953D01*
X36161608Y-25660000D01*
X49340000Y-25660000D01*
X49340000Y-37519606D01*
X49287623Y-37503718D01*
X49191490Y-37484596D01*
X49067009Y-37472336D01*
X49042450Y-37472336D01*
X49018000Y-37469928D01*
X48634020Y-37469928D01*
X48144473Y-36980382D01*
X48148808Y-36968413D01*
X47193000Y-36012605D01*
X47178858Y-36026748D01*
X46999253Y-35847143D01*
X47013395Y-35833000D01*
X47372605Y-35833000D01*
X48328413Y-36788808D01*
X48592814Y-36693044D01*
X48733704Y-36403429D01*
X48815384Y-36091892D01*
X48834718Y-35770405D01*
X48790961Y-35451325D01*
X48685795Y-35146912D01*
X48592814Y-34972956D01*
X48328413Y-34877192D01*
X47372605Y-35833000D01*
X47013395Y-35833000D01*
X46057587Y-34877192D01*
X45793186Y-34972956D01*
X45652296Y-35262571D01*
X45570616Y-35574108D01*
X45551282Y-35895595D01*
X45595039Y-36214675D01*
X45700205Y-36519088D01*
X45793186Y-36693044D01*
X45814924Y-36700917D01*
X45792215Y-36734904D01*
X45702256Y-36674795D01*
X45513898Y-36596774D01*
X45313939Y-36557000D01*
X45208996Y-36557000D01*
X45283704Y-36403429D01*
X45365384Y-36091892D01*
X45384718Y-35770405D01*
X45340961Y-35451325D01*
X45253744Y-35198866D01*
X45343022Y-35181108D01*
X45517731Y-35108741D01*
X45674964Y-35003681D01*
X45808681Y-34869964D01*
X45913741Y-34712731D01*
X45920013Y-34697587D01*
X46237192Y-34697587D01*
X47193000Y-35653395D01*
X48148808Y-34697587D01*
X48053044Y-34433186D01*
X47763429Y-34292296D01*
X47451892Y-34210616D01*
X47130405Y-34191282D01*
X46811325Y-34235039D01*
X46506912Y-34340205D01*
X46332956Y-34433186D01*
X46237192Y-34697587D01*
X45920013Y-34697587D01*
X45986108Y-34538022D01*
X46023000Y-34352552D01*
X46023000Y-34163448D01*
X45986108Y-33977978D01*
X45913741Y-33803269D01*
X45808681Y-33646036D01*
X45674964Y-33512319D01*
X45517731Y-33407259D01*
X45343022Y-33334892D01*
X45157552Y-33298000D01*
X44968448Y-33298000D01*
X44782978Y-33334892D01*
X44608269Y-33407259D01*
X44451036Y-33512319D01*
X44317319Y-33646036D01*
X44212259Y-33803269D01*
X44139892Y-33977978D01*
X44103000Y-34163448D01*
X44103000Y-34237125D01*
X44001892Y-34210616D01*
X43680405Y-34191282D01*
X43361325Y-34235039D01*
X43056912Y-34340205D01*
X42882956Y-34433186D01*
X42787192Y-34697587D01*
X43743000Y-35653395D01*
X43757143Y-35639253D01*
X43936748Y-35818858D01*
X43922605Y-35833000D01*
X43936748Y-35847143D01*
X43757143Y-36026748D01*
X43743000Y-36012605D01*
X43728858Y-36026748D01*
X43549253Y-35847143D01*
X43563395Y-35833000D01*
X42607587Y-34877192D01*
X42343186Y-34972956D01*
X42202296Y-35262571D01*
X42120616Y-35574108D01*
X42101282Y-35895595D01*
X42145039Y-36214675D01*
X42211928Y-36408292D01*
X42181744Y-36420795D01*
X42012226Y-36534063D01*
X41910000Y-36636289D01*
X41807774Y-36534063D01*
X41638256Y-36420795D01*
X41449898Y-36342774D01*
X41249939Y-36303000D01*
X41046061Y-36303000D01*
X40846102Y-36342774D01*
X40657744Y-36420795D01*
X40488226Y-36534063D01*
X40344063Y-36678226D01*
X40230795Y-36847744D01*
X40152774Y-37036102D01*
X40113000Y-37236061D01*
X40113000Y-37439939D01*
X40152774Y-37639898D01*
X40187214Y-37723042D01*
X40129618Y-37770310D01*
X40060310Y-37839618D01*
X39980958Y-37936309D01*
X39926502Y-38017808D01*
X39867536Y-38128125D01*
X39830027Y-38218681D01*
X39793718Y-38338377D01*
X39774596Y-38434510D01*
X39762336Y-38558991D01*
X39762336Y-38583550D01*
X39759928Y-38608000D01*
X39759928Y-39108000D01*
X39772188Y-39232482D01*
X39779929Y-39258000D01*
X39772188Y-39283518D01*
X39759928Y-39408000D01*
X39759928Y-39908000D01*
X39762336Y-39932450D01*
X39762336Y-39957009D01*
X39774596Y-40081490D01*
X39793718Y-40177623D01*
X39830027Y-40297319D01*
X39867536Y-40387875D01*
X39926502Y-40498192D01*
X39980958Y-40579691D01*
X40060310Y-40676382D01*
X40129618Y-40745690D01*
X40226309Y-40825042D01*
X40307808Y-40879498D01*
X40418125Y-40938464D01*
X40508681Y-40975973D01*
X40628377Y-41012282D01*
X40724510Y-41031404D01*
X40848991Y-41043664D01*
X40873550Y-41043664D01*
X40898000Y-41046072D01*
X41281981Y-41046072D01*
X41713928Y-41478019D01*
X41713928Y-41535000D01*
X41728782Y-41685819D01*
X41772775Y-41830842D01*
X41815086Y-41910000D01*
X41772775Y-41989158D01*
X41728782Y-42134181D01*
X41721148Y-42211689D01*
X41698313Y-42213938D01*
X41698311Y-42213938D01*
X41682543Y-42215491D01*
X41599600Y-42207322D01*
X41475118Y-42219582D01*
X41355420Y-42255892D01*
X41245106Y-42314857D01*
X41148415Y-42394209D01*
X40132000Y-43410624D01*
X39789825Y-43068449D01*
X39789825Y-42416237D01*
X39793260Y-42381362D01*
X39788274Y-42330738D01*
X39779552Y-42242178D01*
X39738953Y-42108342D01*
X39673025Y-41984999D01*
X39584299Y-41876887D01*
X39557208Y-41854654D01*
X39554658Y-41852104D01*
X39554658Y-41719256D01*
X39514884Y-41519297D01*
X39436863Y-41330939D01*
X39323595Y-41161421D01*
X39179432Y-41017258D01*
X39009914Y-40903990D01*
X38821556Y-40825969D01*
X38621597Y-40786195D01*
X38512774Y-40786195D01*
X38491225Y-40715158D01*
X38419786Y-40581504D01*
X38323644Y-40464356D01*
X38206496Y-40368214D01*
X38072842Y-40296775D01*
X37927819Y-40252782D01*
X37777000Y-40237928D01*
X37407000Y-40237928D01*
X37256181Y-40252782D01*
X37111158Y-40296775D01*
X36977504Y-40368214D01*
X36860356Y-40464356D01*
X36764214Y-40581504D01*
X36692775Y-40715158D01*
X36648782Y-40860181D01*
X36633928Y-41011000D01*
X36633928Y-41099981D01*
X36514908Y-41219001D01*
X36481562Y-41219001D01*
X36626020Y-40935255D01*
X36740044Y-40530449D01*
X36772902Y-40111176D01*
X36723334Y-39693549D01*
X36593243Y-39293617D01*
X36435214Y-38997962D01*
X36119653Y-38841952D01*
X34807605Y-40154000D01*
X34821748Y-40168143D01*
X34642143Y-40347748D01*
X34628000Y-40333605D01*
X34613858Y-40347748D01*
X34434253Y-40168143D01*
X34448395Y-40154000D01*
X34434253Y-40139858D01*
X34613858Y-39960253D01*
X34628000Y-39974395D01*
X35940048Y-38662347D01*
X35784038Y-38346786D01*
X35409255Y-38155980D01*
X35187023Y-38093383D01*
X35188377Y-38090878D01*
X35225235Y-37971348D01*
X35235000Y-37849750D01*
X35076250Y-37691000D01*
X34417000Y-37691000D01*
X34417000Y-37711000D01*
X34163000Y-37711000D01*
X34163000Y-37707971D01*
X34173689Y-37706918D01*
X34331087Y-37659172D01*
X34476146Y-37581636D01*
X34560825Y-37512142D01*
X34611794Y-37507122D01*
X34757755Y-37462845D01*
X34806108Y-37437000D01*
X35076250Y-37437000D01*
X35235000Y-37278250D01*
X35225235Y-37156652D01*
X35188377Y-37037122D01*
X35183172Y-37027491D01*
X35223122Y-36895794D01*
X35227934Y-36846933D01*
X35359421Y-36715446D01*
X35391291Y-36689291D01*
X35495636Y-36562146D01*
X35544277Y-36471145D01*
X35949928Y-36876795D01*
X35949928Y-37884000D01*
X35962188Y-38008482D01*
X35998498Y-38128180D01*
X36057463Y-38238494D01*
X36136815Y-38335185D01*
X36233506Y-38414537D01*
X36343820Y-38473502D01*
X36463518Y-38509812D01*
X36588000Y-38522072D01*
X38088000Y-38522072D01*
X38212482Y-38509812D01*
X38332180Y-38473502D01*
X38442494Y-38414537D01*
X38539185Y-38335185D01*
X38618537Y-38238494D01*
X38677502Y-38128180D01*
X38713812Y-38008482D01*
X38726072Y-37884000D01*
X38726072Y-36284000D01*
X38713812Y-36159518D01*
X38677502Y-36039820D01*
X38618537Y-35929506D01*
X38539185Y-35832815D01*
X38442494Y-35753463D01*
X38332180Y-35694498D01*
X38274419Y-35676977D01*
X38452637Y-35498759D01*
X38582771Y-35304000D01*
X38718907Y-35304000D01*
X38801504Y-35371786D01*
X38935158Y-35443225D01*
X39080181Y-35487218D01*
X39231000Y-35502072D01*
X39501000Y-35502072D01*
X39651819Y-35487218D01*
X39796842Y-35443225D01*
X39876000Y-35400914D01*
X39955158Y-35443225D01*
X40100181Y-35487218D01*
X40251000Y-35502072D01*
X40521000Y-35502072D01*
X40671819Y-35487218D01*
X40816842Y-35443225D01*
X40950496Y-35371786D01*
X41067644Y-35275644D01*
X41163786Y-35158496D01*
X41235225Y-35024842D01*
X41279218Y-34879819D01*
X41294072Y-34729000D01*
X41294072Y-34359000D01*
X41279218Y-34208181D01*
X41260891Y-34147765D01*
X41323155Y-34085501D01*
X41436423Y-33915983D01*
X41514444Y-33727625D01*
X41554218Y-33527666D01*
X41554218Y-33323788D01*
X41514444Y-33123829D01*
X41436423Y-32935471D01*
X41323155Y-32765953D01*
X41178992Y-32621790D01*
X41167964Y-32614421D01*
X41237225Y-32484842D01*
X41281218Y-32339819D01*
X41296072Y-32189000D01*
X41296072Y-31819000D01*
X41281218Y-31668181D01*
X41237225Y-31523158D01*
X41165786Y-31389504D01*
X41069644Y-31272356D01*
X40952496Y-31176214D01*
X40818842Y-31104775D01*
X40673819Y-31060782D01*
X40523000Y-31045928D01*
X40253000Y-31045928D01*
X40102181Y-31060782D01*
X39957158Y-31104775D01*
X39878000Y-31147086D01*
X39798842Y-31104775D01*
X39653819Y-31060782D01*
X39503000Y-31045928D01*
X39233000Y-31045928D01*
X39082181Y-31060782D01*
X38937158Y-31104775D01*
X38803504Y-31176214D01*
X38720907Y-31244000D01*
X38102010Y-31244000D01*
X38151097Y-31076702D01*
X37338000Y-30263605D01*
X36524903Y-31076702D01*
X36596486Y-31320671D01*
X36625341Y-31334324D01*
X36423241Y-31469363D01*
X36223363Y-31669241D01*
X36066320Y-31904273D01*
X36007420Y-32046471D01*
X35936405Y-31913613D01*
X35825962Y-31779038D01*
X35691387Y-31668595D01*
X35537851Y-31586528D01*
X35371255Y-31535992D01*
X35198001Y-31518928D01*
X34397999Y-31518928D01*
X34224745Y-31535992D01*
X34058149Y-31586528D01*
X33904613Y-31668595D01*
X33770038Y-31779038D01*
X33659595Y-31913613D01*
X33577528Y-32067149D01*
X33526992Y-32233745D01*
X33509928Y-32406999D01*
X33509928Y-33032870D01*
X33502939Y-33031480D01*
X33299061Y-33031480D01*
X33099102Y-33071254D01*
X32910744Y-33149275D01*
X32741226Y-33262543D01*
X32597063Y-33406706D01*
X32483795Y-33576224D01*
X32405774Y-33764582D01*
X32366000Y-33964541D01*
X32366000Y-34064660D01*
X32280896Y-34007795D01*
X32092538Y-33929774D01*
X31892579Y-33890000D01*
X31688701Y-33890000D01*
X31488742Y-33929774D01*
X31300384Y-34007795D01*
X31130866Y-34121063D01*
X30986703Y-34265226D01*
X30873435Y-34434744D01*
X30795414Y-34623102D01*
X30766548Y-34768225D01*
X30288845Y-35245928D01*
X29222000Y-35245928D01*
X29097518Y-35258188D01*
X28977820Y-35294498D01*
X28867506Y-35353463D01*
X28822000Y-35390809D01*
X28776494Y-35353463D01*
X28666180Y-35294498D01*
X28546482Y-35258188D01*
X28422000Y-35245928D01*
X27957750Y-35249000D01*
X27799000Y-35407750D01*
X27799000Y-36757000D01*
X27819000Y-36757000D01*
X27819000Y-37011000D01*
X27799000Y-37011000D01*
X27799000Y-37031000D01*
X27545000Y-37031000D01*
X27545000Y-37011000D01*
X26445750Y-37011000D01*
X26287000Y-37169750D01*
X26283928Y-37884000D01*
X26296188Y-38008482D01*
X26332498Y-38128180D01*
X26391463Y-38238494D01*
X26470815Y-38335185D01*
X26567506Y-38414537D01*
X26677820Y-38473502D01*
X26797518Y-38509812D01*
X26922000Y-38522072D01*
X27386250Y-38519000D01*
X27544998Y-38360252D01*
X27544998Y-38519000D01*
X27561307Y-38519000D01*
X27557935Y-38554923D01*
X27561000Y-38576250D01*
X27719750Y-38735000D01*
X28349000Y-38735000D01*
X28349000Y-38715000D01*
X28517928Y-38715000D01*
X28517928Y-39032000D01*
X28532878Y-39183794D01*
X28577155Y-39329755D01*
X28603000Y-39378108D01*
X28603000Y-39648250D01*
X28761750Y-39807000D01*
X28883348Y-39797235D01*
X29002878Y-39760377D01*
X29012509Y-39755172D01*
X29144206Y-39795122D01*
X29296000Y-39810072D01*
X29576000Y-39810072D01*
X29727794Y-39795122D01*
X29873755Y-39750845D01*
X29972000Y-39698332D01*
X30070245Y-39750845D01*
X30216206Y-39795122D01*
X30368000Y-39810072D01*
X30648000Y-39810072D01*
X30799794Y-39795122D01*
X30931491Y-39755172D01*
X30941122Y-39760377D01*
X31060652Y-39797235D01*
X31182250Y-39807000D01*
X31340998Y-39648252D01*
X31340998Y-39807000D01*
X31401868Y-39807000D01*
X30990643Y-40218226D01*
X30909640Y-40210248D01*
X30639640Y-40210248D01*
X30488821Y-40225102D01*
X30343798Y-40269095D01*
X30264640Y-40311406D01*
X30185482Y-40269095D01*
X30040459Y-40225102D01*
X29889640Y-40210248D01*
X29619640Y-40210248D01*
X29468821Y-40225102D01*
X29323798Y-40269095D01*
X29190144Y-40340534D01*
X29072996Y-40436676D01*
X29057847Y-40455134D01*
X29025504Y-40458320D01*
X29025503Y-40458320D01*
X28921196Y-40468593D01*
X28787360Y-40509192D01*
X28671979Y-40570865D01*
X28664015Y-40575121D01*
X28616092Y-40614451D01*
X28555905Y-40663845D01*
X28533672Y-40690936D01*
X27448958Y-41775651D01*
X27449272Y-41755000D01*
X27437012Y-41630518D01*
X27400702Y-41510820D01*
X27341737Y-41400506D01*
X27262385Y-41303815D01*
X27165694Y-41224463D01*
X27055380Y-41165498D01*
X26935682Y-41129188D01*
X26811200Y-41116928D01*
X26396950Y-41120000D01*
X26238200Y-41278750D01*
X26238200Y-42115500D01*
X26258200Y-42115500D01*
X26258200Y-42369500D01*
X26238200Y-42369500D01*
X26238200Y-42389500D01*
X25984200Y-42389500D01*
X25984200Y-42369500D01*
X25964200Y-42369500D01*
X25964200Y-42115500D01*
X25984200Y-42115500D01*
X25984200Y-41278750D01*
X25825450Y-41120000D01*
X25660000Y-41118773D01*
X25660000Y-39169077D01*
X27557935Y-39169077D01*
X27569625Y-39293613D01*
X27605386Y-39413476D01*
X27663844Y-39524059D01*
X27742753Y-39621113D01*
X27839079Y-39700908D01*
X27949122Y-39760377D01*
X28068652Y-39797235D01*
X28190250Y-39807000D01*
X28349000Y-39648250D01*
X28349000Y-38989000D01*
X27719750Y-38989000D01*
X27561000Y-39147750D01*
X27557935Y-39169077D01*
X25660000Y-39169077D01*
X25660000Y-35884000D01*
X26283928Y-35884000D01*
X26287000Y-36598250D01*
X26445750Y-36757000D01*
X27545000Y-36757000D01*
X27545000Y-35407750D01*
X27386250Y-35249000D01*
X26922000Y-35245928D01*
X26797518Y-35258188D01*
X26677820Y-35294498D01*
X26567506Y-35353463D01*
X26470815Y-35432815D01*
X26391463Y-35529506D01*
X26332498Y-35639820D01*
X26296188Y-35759518D01*
X26283928Y-35884000D01*
X25660000Y-35884000D01*
X25660000Y-29584000D01*
X27433928Y-29584000D01*
X27433928Y-31584000D01*
X27446188Y-31708482D01*
X27482498Y-31828180D01*
X27541463Y-31938494D01*
X27620815Y-32035185D01*
X27717506Y-32114537D01*
X27827820Y-32173502D01*
X27947518Y-32209812D01*
X28072000Y-32222072D01*
X29332125Y-32222072D01*
X29312920Y-32318621D01*
X29312920Y-32522499D01*
X29352694Y-32722458D01*
X29430715Y-32910816D01*
X29543983Y-33080334D01*
X29688146Y-33224497D01*
X29857664Y-33337765D01*
X30046022Y-33415786D01*
X30245981Y-33455560D01*
X30449859Y-33455560D01*
X30649818Y-33415786D01*
X30838176Y-33337765D01*
X31007694Y-33224497D01*
X31151857Y-33080334D01*
X31265125Y-32910816D01*
X31343146Y-32722458D01*
X31382920Y-32522499D01*
X31382920Y-32318621D01*
X31363715Y-32222072D01*
X31872000Y-32222072D01*
X31996482Y-32209812D01*
X32116180Y-32173502D01*
X32226494Y-32114537D01*
X32323185Y-32035185D01*
X32402537Y-31938494D01*
X32461502Y-31828180D01*
X32497812Y-31708482D01*
X32510072Y-31584000D01*
X32510072Y-30154512D01*
X35897783Y-30154512D01*
X35939213Y-30434130D01*
X36034397Y-30700292D01*
X36101329Y-30825514D01*
X36345298Y-30897097D01*
X37158395Y-30084000D01*
X37517605Y-30084000D01*
X38330702Y-30897097D01*
X38574671Y-30825514D01*
X38695571Y-30570004D01*
X38764300Y-30295816D01*
X38778217Y-30013488D01*
X38749314Y-29818413D01*
X42787192Y-29818413D01*
X42882956Y-30082814D01*
X43172571Y-30223704D01*
X43484108Y-30305384D01*
X43805595Y-30324718D01*
X44103000Y-30283933D01*
X44103000Y-30352552D01*
X44139892Y-30538022D01*
X44212259Y-30712731D01*
X44317319Y-30869964D01*
X44451036Y-31003681D01*
X44608269Y-31108741D01*
X44782978Y-31181108D01*
X44968448Y-31218000D01*
X45157552Y-31218000D01*
X45343022Y-31181108D01*
X45517731Y-31108741D01*
X45674964Y-31003681D01*
X45808681Y-30869964D01*
X45913741Y-30712731D01*
X45986108Y-30538022D01*
X46023000Y-30352552D01*
X46023000Y-30163448D01*
X45986108Y-29977978D01*
X45920014Y-29818413D01*
X46237192Y-29818413D01*
X46332956Y-30082814D01*
X46622571Y-30223704D01*
X46934108Y-30305384D01*
X47255595Y-30324718D01*
X47574675Y-30280961D01*
X47879088Y-30175795D01*
X48053044Y-30082814D01*
X48148808Y-29818413D01*
X47193000Y-28862605D01*
X46237192Y-29818413D01*
X45920014Y-29818413D01*
X45913741Y-29803269D01*
X45808681Y-29646036D01*
X45674964Y-29512319D01*
X45517731Y-29407259D01*
X45343022Y-29334892D01*
X45252804Y-29316947D01*
X45283704Y-29253429D01*
X45365384Y-28941892D01*
X45377189Y-28745595D01*
X45551282Y-28745595D01*
X45595039Y-29064675D01*
X45700205Y-29369088D01*
X45793186Y-29543044D01*
X46057587Y-29638808D01*
X47013395Y-28683000D01*
X47372605Y-28683000D01*
X48328413Y-29638808D01*
X48592814Y-29543044D01*
X48733704Y-29253429D01*
X48815384Y-28941892D01*
X48834718Y-28620405D01*
X48790961Y-28301325D01*
X48685795Y-27996912D01*
X48592814Y-27822956D01*
X48328413Y-27727192D01*
X47372605Y-28683000D01*
X47013395Y-28683000D01*
X46057587Y-27727192D01*
X45793186Y-27822956D01*
X45652296Y-28112571D01*
X45570616Y-28424108D01*
X45551282Y-28745595D01*
X45377189Y-28745595D01*
X45384718Y-28620405D01*
X45340961Y-28301325D01*
X45235795Y-27996912D01*
X45142814Y-27822956D01*
X44878413Y-27727192D01*
X43922605Y-28683000D01*
X43936748Y-28697143D01*
X43757143Y-28876748D01*
X43743000Y-28862605D01*
X42787192Y-29818413D01*
X38749314Y-29818413D01*
X38736787Y-29733870D01*
X38641603Y-29467708D01*
X38574671Y-29342486D01*
X38330702Y-29270903D01*
X37517605Y-30084000D01*
X37158395Y-30084000D01*
X36345298Y-29270903D01*
X36101329Y-29342486D01*
X35980429Y-29597996D01*
X35911700Y-29872184D01*
X35897783Y-30154512D01*
X32510072Y-30154512D01*
X32510072Y-29584000D01*
X32497812Y-29459518D01*
X32461502Y-29339820D01*
X32402537Y-29229506D01*
X32323185Y-29132815D01*
X32226494Y-29053463D01*
X32116180Y-28994498D01*
X31996482Y-28958188D01*
X31872000Y-28945928D01*
X28072000Y-28945928D01*
X27947518Y-28958188D01*
X27827820Y-28994498D01*
X27717506Y-29053463D01*
X27620815Y-29132815D01*
X27541463Y-29229506D01*
X27482498Y-29339820D01*
X27446188Y-29459518D01*
X27433928Y-29584000D01*
X25660000Y-29584000D01*
X25660000Y-28505653D01*
X33315952Y-28505653D01*
X33471962Y-28821214D01*
X33846745Y-29012020D01*
X34251551Y-29126044D01*
X34670824Y-29158902D01*
X35088451Y-29109334D01*
X35143898Y-29091298D01*
X36524903Y-29091298D01*
X37338000Y-29904395D01*
X38151097Y-29091298D01*
X38079514Y-28847329D01*
X37864510Y-28745595D01*
X42101282Y-28745595D01*
X42145039Y-29064675D01*
X42250205Y-29369088D01*
X42343186Y-29543044D01*
X42607587Y-29638808D01*
X43563395Y-28683000D01*
X42607587Y-27727192D01*
X42343186Y-27822956D01*
X42202296Y-28112571D01*
X42120616Y-28424108D01*
X42101282Y-28745595D01*
X37864510Y-28745595D01*
X37824004Y-28726429D01*
X37549816Y-28657700D01*
X37267488Y-28643783D01*
X36987870Y-28685213D01*
X36721708Y-28780397D01*
X36596486Y-28847329D01*
X36524903Y-29091298D01*
X35143898Y-29091298D01*
X35488383Y-28979243D01*
X35784038Y-28821214D01*
X35940048Y-28505653D01*
X34628000Y-27193605D01*
X33315952Y-28505653D01*
X25660000Y-28505653D01*
X25660000Y-25660000D01*
X33094392Y-25660000D01*
X33136345Y-25701953D01*
%TA.AperFunction,Conductor*%
D31*
G36*
X33136345Y-25701953D02*
G01*
X32820786Y-25857962D01*
X32629980Y-26232745D01*
X32515956Y-26637551D01*
X32483098Y-27056824D01*
X32532666Y-27474451D01*
X32662757Y-27874383D01*
X32820786Y-28170038D01*
X33136347Y-28326048D01*
X34448395Y-27014000D01*
X34434253Y-26999858D01*
X34613858Y-26820253D01*
X34628000Y-26834395D01*
X34642143Y-26820253D01*
X34821748Y-26999858D01*
X34807605Y-27014000D01*
X36119653Y-28326048D01*
X36435214Y-28170038D01*
X36626020Y-27795255D01*
X36695782Y-27547587D01*
X42787192Y-27547587D01*
X43743000Y-28503395D01*
X44698808Y-27547587D01*
X46237192Y-27547587D01*
X47193000Y-28503395D01*
X48148808Y-27547587D01*
X48053044Y-27283186D01*
X47763429Y-27142296D01*
X47451892Y-27060616D01*
X47130405Y-27041282D01*
X46811325Y-27085039D01*
X46506912Y-27190205D01*
X46332956Y-27283186D01*
X46237192Y-27547587D01*
X44698808Y-27547587D01*
X44603044Y-27283186D01*
X44313429Y-27142296D01*
X44001892Y-27060616D01*
X43680405Y-27041282D01*
X43361325Y-27085039D01*
X43056912Y-27190205D01*
X42882956Y-27283186D01*
X42787192Y-27547587D01*
X36695782Y-27547587D01*
X36740044Y-27390449D01*
X36772902Y-26971176D01*
X36723334Y-26553549D01*
X36593243Y-26153617D01*
X36435214Y-25857962D01*
X36119655Y-25701953D01*
X36161608Y-25660000D01*
X49340000Y-25660000D01*
X49340000Y-37519606D01*
X49287623Y-37503718D01*
X49191490Y-37484596D01*
X49067009Y-37472336D01*
X49042450Y-37472336D01*
X49018000Y-37469928D01*
X48634020Y-37469928D01*
X48144473Y-36980382D01*
X48148808Y-36968413D01*
X47193000Y-36012605D01*
X47178858Y-36026748D01*
X46999253Y-35847143D01*
X47013395Y-35833000D01*
X47372605Y-35833000D01*
X48328413Y-36788808D01*
X48592814Y-36693044D01*
X48733704Y-36403429D01*
X48815384Y-36091892D01*
X48834718Y-35770405D01*
X48790961Y-35451325D01*
X48685795Y-35146912D01*
X48592814Y-34972956D01*
X48328413Y-34877192D01*
X47372605Y-35833000D01*
X47013395Y-35833000D01*
X46057587Y-34877192D01*
X45793186Y-34972956D01*
X45652296Y-35262571D01*
X45570616Y-35574108D01*
X45551282Y-35895595D01*
X45595039Y-36214675D01*
X45700205Y-36519088D01*
X45793186Y-36693044D01*
X45814924Y-36700917D01*
X45792215Y-36734904D01*
X45702256Y-36674795D01*
X45513898Y-36596774D01*
X45313939Y-36557000D01*
X45208996Y-36557000D01*
X45283704Y-36403429D01*
X45365384Y-36091892D01*
X45384718Y-35770405D01*
X45340961Y-35451325D01*
X45253744Y-35198866D01*
X45343022Y-35181108D01*
X45517731Y-35108741D01*
X45674964Y-35003681D01*
X45808681Y-34869964D01*
X45913741Y-34712731D01*
X45920013Y-34697587D01*
X46237192Y-34697587D01*
X47193000Y-35653395D01*
X48148808Y-34697587D01*
X48053044Y-34433186D01*
X47763429Y-34292296D01*
X47451892Y-34210616D01*
X47130405Y-34191282D01*
X46811325Y-34235039D01*
X46506912Y-34340205D01*
X46332956Y-34433186D01*
X46237192Y-34697587D01*
X45920013Y-34697587D01*
X45986108Y-34538022D01*
X46023000Y-34352552D01*
X46023000Y-34163448D01*
X45986108Y-33977978D01*
X45913741Y-33803269D01*
X45808681Y-33646036D01*
X45674964Y-33512319D01*
X45517731Y-33407259D01*
X45343022Y-33334892D01*
X45157552Y-33298000D01*
X44968448Y-33298000D01*
X44782978Y-33334892D01*
X44608269Y-33407259D01*
X44451036Y-33512319D01*
X44317319Y-33646036D01*
X44212259Y-33803269D01*
X44139892Y-33977978D01*
X44103000Y-34163448D01*
X44103000Y-34237125D01*
X44001892Y-34210616D01*
X43680405Y-34191282D01*
X43361325Y-34235039D01*
X43056912Y-34340205D01*
X42882956Y-34433186D01*
X42787192Y-34697587D01*
X43743000Y-35653395D01*
X43757143Y-35639253D01*
X43936748Y-35818858D01*
X43922605Y-35833000D01*
X43936748Y-35847143D01*
X43757143Y-36026748D01*
X43743000Y-36012605D01*
X43728858Y-36026748D01*
X43549253Y-35847143D01*
X43563395Y-35833000D01*
X42607587Y-34877192D01*
X42343186Y-34972956D01*
X42202296Y-35262571D01*
X42120616Y-35574108D01*
X42101282Y-35895595D01*
X42145039Y-36214675D01*
X42211928Y-36408292D01*
X42181744Y-36420795D01*
X42012226Y-36534063D01*
X41910000Y-36636289D01*
X41807774Y-36534063D01*
X41638256Y-36420795D01*
X41449898Y-36342774D01*
X41249939Y-36303000D01*
X41046061Y-36303000D01*
X40846102Y-36342774D01*
X40657744Y-36420795D01*
X40488226Y-36534063D01*
X40344063Y-36678226D01*
X40230795Y-36847744D01*
X40152774Y-37036102D01*
X40113000Y-37236061D01*
X40113000Y-37439939D01*
X40152774Y-37639898D01*
X40187214Y-37723042D01*
X40129618Y-37770310D01*
X40060310Y-37839618D01*
X39980958Y-37936309D01*
X39926502Y-38017808D01*
X39867536Y-38128125D01*
X39830027Y-38218681D01*
X39793718Y-38338377D01*
X39774596Y-38434510D01*
X39762336Y-38558991D01*
X39762336Y-38583550D01*
X39759928Y-38608000D01*
X39759928Y-39108000D01*
X39772188Y-39232482D01*
X39779929Y-39258000D01*
X39772188Y-39283518D01*
X39759928Y-39408000D01*
X39759928Y-39908000D01*
X39762336Y-39932450D01*
X39762336Y-39957009D01*
X39774596Y-40081490D01*
X39793718Y-40177623D01*
X39830027Y-40297319D01*
X39867536Y-40387875D01*
X39926502Y-40498192D01*
X39980958Y-40579691D01*
X40060310Y-40676382D01*
X40129618Y-40745690D01*
X40226309Y-40825042D01*
X40307808Y-40879498D01*
X40418125Y-40938464D01*
X40508681Y-40975973D01*
X40628377Y-41012282D01*
X40724510Y-41031404D01*
X40848991Y-41043664D01*
X40873550Y-41043664D01*
X40898000Y-41046072D01*
X41281981Y-41046072D01*
X41713928Y-41478019D01*
X41713928Y-41535000D01*
X41728782Y-41685819D01*
X41772775Y-41830842D01*
X41815086Y-41910000D01*
X41772775Y-41989158D01*
X41728782Y-42134181D01*
X41721148Y-42211689D01*
X41698313Y-42213938D01*
X41698311Y-42213938D01*
X41682543Y-42215491D01*
X41599600Y-42207322D01*
X41475118Y-42219582D01*
X41355420Y-42255892D01*
X41245106Y-42314857D01*
X41148415Y-42394209D01*
X40132000Y-43410624D01*
X39789825Y-43068449D01*
X39789825Y-42416237D01*
X39793260Y-42381362D01*
X39788274Y-42330738D01*
X39779552Y-42242178D01*
X39738953Y-42108342D01*
X39673025Y-41984999D01*
X39584299Y-41876887D01*
X39557208Y-41854654D01*
X39554658Y-41852104D01*
X39554658Y-41719256D01*
X39514884Y-41519297D01*
X39436863Y-41330939D01*
X39323595Y-41161421D01*
X39179432Y-41017258D01*
X39009914Y-40903990D01*
X38821556Y-40825969D01*
X38621597Y-40786195D01*
X38512774Y-40786195D01*
X38491225Y-40715158D01*
X38419786Y-40581504D01*
X38323644Y-40464356D01*
X38206496Y-40368214D01*
X38072842Y-40296775D01*
X37927819Y-40252782D01*
X37777000Y-40237928D01*
X37407000Y-40237928D01*
X37256181Y-40252782D01*
X37111158Y-40296775D01*
X36977504Y-40368214D01*
X36860356Y-40464356D01*
X36764214Y-40581504D01*
X36692775Y-40715158D01*
X36648782Y-40860181D01*
X36633928Y-41011000D01*
X36633928Y-41099981D01*
X36514908Y-41219001D01*
X36481562Y-41219001D01*
X36626020Y-40935255D01*
X36740044Y-40530449D01*
X36772902Y-40111176D01*
X36723334Y-39693549D01*
X36593243Y-39293617D01*
X36435214Y-38997962D01*
X36119653Y-38841952D01*
X34807605Y-40154000D01*
X34821748Y-40168143D01*
X34642143Y-40347748D01*
X34628000Y-40333605D01*
X34613858Y-40347748D01*
X34434253Y-40168143D01*
X34448395Y-40154000D01*
X34434253Y-40139858D01*
X34613858Y-39960253D01*
X34628000Y-39974395D01*
X35940048Y-38662347D01*
X35784038Y-38346786D01*
X35409255Y-38155980D01*
X35187023Y-38093383D01*
X35188377Y-38090878D01*
X35225235Y-37971348D01*
X35235000Y-37849750D01*
X35076250Y-37691000D01*
X34417000Y-37691000D01*
X34417000Y-37711000D01*
X34163000Y-37711000D01*
X34163000Y-37707971D01*
X34173689Y-37706918D01*
X34331087Y-37659172D01*
X34476146Y-37581636D01*
X34560825Y-37512142D01*
X34611794Y-37507122D01*
X34757755Y-37462845D01*
X34806108Y-37437000D01*
X35076250Y-37437000D01*
X35235000Y-37278250D01*
X35225235Y-37156652D01*
X35188377Y-37037122D01*
X35183172Y-37027491D01*
X35223122Y-36895794D01*
X35227934Y-36846933D01*
X35359421Y-36715446D01*
X35391291Y-36689291D01*
X35495636Y-36562146D01*
X35544277Y-36471145D01*
X35949928Y-36876795D01*
X35949928Y-37884000D01*
X35962188Y-38008482D01*
X35998498Y-38128180D01*
X36057463Y-38238494D01*
X36136815Y-38335185D01*
X36233506Y-38414537D01*
X36343820Y-38473502D01*
X36463518Y-38509812D01*
X36588000Y-38522072D01*
X38088000Y-38522072D01*
X38212482Y-38509812D01*
X38332180Y-38473502D01*
X38442494Y-38414537D01*
X38539185Y-38335185D01*
X38618537Y-38238494D01*
X38677502Y-38128180D01*
X38713812Y-38008482D01*
X38726072Y-37884000D01*
X38726072Y-36284000D01*
X38713812Y-36159518D01*
X38677502Y-36039820D01*
X38618537Y-35929506D01*
X38539185Y-35832815D01*
X38442494Y-35753463D01*
X38332180Y-35694498D01*
X38274419Y-35676977D01*
X38452637Y-35498759D01*
X38582771Y-35304000D01*
X38718907Y-35304000D01*
X38801504Y-35371786D01*
X38935158Y-35443225D01*
X39080181Y-35487218D01*
X39231000Y-35502072D01*
X39501000Y-35502072D01*
X39651819Y-35487218D01*
X39796842Y-35443225D01*
X39876000Y-35400914D01*
X39955158Y-35443225D01*
X40100181Y-35487218D01*
X40251000Y-35502072D01*
X40521000Y-35502072D01*
X40671819Y-35487218D01*
X40816842Y-35443225D01*
X40950496Y-35371786D01*
X41067644Y-35275644D01*
X41163786Y-35158496D01*
X41235225Y-35024842D01*
X41279218Y-34879819D01*
X41294072Y-34729000D01*
X41294072Y-34359000D01*
X41279218Y-34208181D01*
X41260891Y-34147765D01*
X41323155Y-34085501D01*
X41436423Y-33915983D01*
X41514444Y-33727625D01*
X41554218Y-33527666D01*
X41554218Y-33323788D01*
X41514444Y-33123829D01*
X41436423Y-32935471D01*
X41323155Y-32765953D01*
X41178992Y-32621790D01*
X41167964Y-32614421D01*
X41237225Y-32484842D01*
X41281218Y-32339819D01*
X41296072Y-32189000D01*
X41296072Y-31819000D01*
X41281218Y-31668181D01*
X41237225Y-31523158D01*
X41165786Y-31389504D01*
X41069644Y-31272356D01*
X40952496Y-31176214D01*
X40818842Y-31104775D01*
X40673819Y-31060782D01*
X40523000Y-31045928D01*
X40253000Y-31045928D01*
X40102181Y-31060782D01*
X39957158Y-31104775D01*
X39878000Y-31147086D01*
X39798842Y-31104775D01*
X39653819Y-31060782D01*
X39503000Y-31045928D01*
X39233000Y-31045928D01*
X39082181Y-31060782D01*
X38937158Y-31104775D01*
X38803504Y-31176214D01*
X38720907Y-31244000D01*
X38102010Y-31244000D01*
X38151097Y-31076702D01*
X37338000Y-30263605D01*
X36524903Y-31076702D01*
X36596486Y-31320671D01*
X36625341Y-31334324D01*
X36423241Y-31469363D01*
X36223363Y-31669241D01*
X36066320Y-31904273D01*
X36007420Y-32046471D01*
X35936405Y-31913613D01*
X35825962Y-31779038D01*
X35691387Y-31668595D01*
X35537851Y-31586528D01*
X35371255Y-31535992D01*
X35198001Y-31518928D01*
X34397999Y-31518928D01*
X34224745Y-31535992D01*
X34058149Y-31586528D01*
X33904613Y-31668595D01*
X33770038Y-31779038D01*
X33659595Y-31913613D01*
X33577528Y-32067149D01*
X33526992Y-32233745D01*
X33509928Y-32406999D01*
X33509928Y-33032870D01*
X33502939Y-33031480D01*
X33299061Y-33031480D01*
X33099102Y-33071254D01*
X32910744Y-33149275D01*
X32741226Y-33262543D01*
X32597063Y-33406706D01*
X32483795Y-33576224D01*
X32405774Y-33764582D01*
X32366000Y-33964541D01*
X32366000Y-34064660D01*
X32280896Y-34007795D01*
X32092538Y-33929774D01*
X31892579Y-33890000D01*
X31688701Y-33890000D01*
X31488742Y-33929774D01*
X31300384Y-34007795D01*
X31130866Y-34121063D01*
X30986703Y-34265226D01*
X30873435Y-34434744D01*
X30795414Y-34623102D01*
X30766548Y-34768225D01*
X30288845Y-35245928D01*
X29222000Y-35245928D01*
X29097518Y-35258188D01*
X28977820Y-35294498D01*
X28867506Y-35353463D01*
X28822000Y-35390809D01*
X28776494Y-35353463D01*
X28666180Y-35294498D01*
X28546482Y-35258188D01*
X28422000Y-35245928D01*
X27957750Y-35249000D01*
X27799000Y-35407750D01*
X27799000Y-36757000D01*
X27819000Y-36757000D01*
X27819000Y-37011000D01*
X27799000Y-37011000D01*
X27799000Y-37031000D01*
X27545000Y-37031000D01*
X27545000Y-37011000D01*
X26445750Y-37011000D01*
X26287000Y-37169750D01*
X26283928Y-37884000D01*
X26296188Y-38008482D01*
X26332498Y-38128180D01*
X26391463Y-38238494D01*
X26470815Y-38335185D01*
X26567506Y-38414537D01*
X26677820Y-38473502D01*
X26797518Y-38509812D01*
X26922000Y-38522072D01*
X27386250Y-38519000D01*
X27544998Y-38360252D01*
X27544998Y-38519000D01*
X27561307Y-38519000D01*
X27557935Y-38554923D01*
X27561000Y-38576250D01*
X27719750Y-38735000D01*
X28349000Y-38735000D01*
X28349000Y-38715000D01*
X28517928Y-38715000D01*
X28517928Y-39032000D01*
X28532878Y-39183794D01*
X28577155Y-39329755D01*
X28603000Y-39378108D01*
X28603000Y-39648250D01*
X28761750Y-39807000D01*
X28883348Y-39797235D01*
X29002878Y-39760377D01*
X29012509Y-39755172D01*
X29144206Y-39795122D01*
X29296000Y-39810072D01*
X29576000Y-39810072D01*
X29727794Y-39795122D01*
X29873755Y-39750845D01*
X29972000Y-39698332D01*
X30070245Y-39750845D01*
X30216206Y-39795122D01*
X30368000Y-39810072D01*
X30648000Y-39810072D01*
X30799794Y-39795122D01*
X30931491Y-39755172D01*
X30941122Y-39760377D01*
X31060652Y-39797235D01*
X31182250Y-39807000D01*
X31340998Y-39648252D01*
X31340998Y-39807000D01*
X31401868Y-39807000D01*
X30990643Y-40218226D01*
X30909640Y-40210248D01*
X30639640Y-40210248D01*
X30488821Y-40225102D01*
X30343798Y-40269095D01*
X30264640Y-40311406D01*
X30185482Y-40269095D01*
X30040459Y-40225102D01*
X29889640Y-40210248D01*
X29619640Y-40210248D01*
X29468821Y-40225102D01*
X29323798Y-40269095D01*
X29190144Y-40340534D01*
X29072996Y-40436676D01*
X29057847Y-40455134D01*
X29025504Y-40458320D01*
X29025503Y-40458320D01*
X28921196Y-40468593D01*
X28787360Y-40509192D01*
X28671979Y-40570865D01*
X28664015Y-40575121D01*
X28616092Y-40614451D01*
X28555905Y-40663845D01*
X28533672Y-40690936D01*
X27448958Y-41775651D01*
X27449272Y-41755000D01*
X27437012Y-41630518D01*
X27400702Y-41510820D01*
X27341737Y-41400506D01*
X27262385Y-41303815D01*
X27165694Y-41224463D01*
X27055380Y-41165498D01*
X26935682Y-41129188D01*
X26811200Y-41116928D01*
X26396950Y-41120000D01*
X26238200Y-41278750D01*
X26238200Y-42115500D01*
X26258200Y-42115500D01*
X26258200Y-42369500D01*
X26238200Y-42369500D01*
X26238200Y-42389500D01*
X25984200Y-42389500D01*
X25984200Y-42369500D01*
X25964200Y-42369500D01*
X25964200Y-42115500D01*
X25984200Y-42115500D01*
X25984200Y-41278750D01*
X25825450Y-41120000D01*
X25660000Y-41118773D01*
X25660000Y-39169077D01*
X27557935Y-39169077D01*
X27569625Y-39293613D01*
X27605386Y-39413476D01*
X27663844Y-39524059D01*
X27742753Y-39621113D01*
X27839079Y-39700908D01*
X27949122Y-39760377D01*
X28068652Y-39797235D01*
X28190250Y-39807000D01*
X28349000Y-39648250D01*
X28349000Y-38989000D01*
X27719750Y-38989000D01*
X27561000Y-39147750D01*
X27557935Y-39169077D01*
X25660000Y-39169077D01*
X25660000Y-35884000D01*
X26283928Y-35884000D01*
X26287000Y-36598250D01*
X26445750Y-36757000D01*
X27545000Y-36757000D01*
X27545000Y-35407750D01*
X27386250Y-35249000D01*
X26922000Y-35245928D01*
X26797518Y-35258188D01*
X26677820Y-35294498D01*
X26567506Y-35353463D01*
X26470815Y-35432815D01*
X26391463Y-35529506D01*
X26332498Y-35639820D01*
X26296188Y-35759518D01*
X26283928Y-35884000D01*
X25660000Y-35884000D01*
X25660000Y-29584000D01*
X27433928Y-29584000D01*
X27433928Y-31584000D01*
X27446188Y-31708482D01*
X27482498Y-31828180D01*
X27541463Y-31938494D01*
X27620815Y-32035185D01*
X27717506Y-32114537D01*
X27827820Y-32173502D01*
X27947518Y-32209812D01*
X28072000Y-32222072D01*
X29332125Y-32222072D01*
X29312920Y-32318621D01*
X29312920Y-32522499D01*
X29352694Y-32722458D01*
X29430715Y-32910816D01*
X29543983Y-33080334D01*
X29688146Y-33224497D01*
X29857664Y-33337765D01*
X30046022Y-33415786D01*
X30245981Y-33455560D01*
X30449859Y-33455560D01*
X30649818Y-33415786D01*
X30838176Y-33337765D01*
X31007694Y-33224497D01*
X31151857Y-33080334D01*
X31265125Y-32910816D01*
X31343146Y-32722458D01*
X31382920Y-32522499D01*
X31382920Y-32318621D01*
X31363715Y-32222072D01*
X31872000Y-32222072D01*
X31996482Y-32209812D01*
X32116180Y-32173502D01*
X32226494Y-32114537D01*
X32323185Y-32035185D01*
X32402537Y-31938494D01*
X32461502Y-31828180D01*
X32497812Y-31708482D01*
X32510072Y-31584000D01*
X32510072Y-30154512D01*
X35897783Y-30154512D01*
X35939213Y-30434130D01*
X36034397Y-30700292D01*
X36101329Y-30825514D01*
X36345298Y-30897097D01*
X37158395Y-30084000D01*
X37517605Y-30084000D01*
X38330702Y-30897097D01*
X38574671Y-30825514D01*
X38695571Y-30570004D01*
X38764300Y-30295816D01*
X38778217Y-30013488D01*
X38749314Y-29818413D01*
X42787192Y-29818413D01*
X42882956Y-30082814D01*
X43172571Y-30223704D01*
X43484108Y-30305384D01*
X43805595Y-30324718D01*
X44103000Y-30283933D01*
X44103000Y-30352552D01*
X44139892Y-30538022D01*
X44212259Y-30712731D01*
X44317319Y-30869964D01*
X44451036Y-31003681D01*
X44608269Y-31108741D01*
X44782978Y-31181108D01*
X44968448Y-31218000D01*
X45157552Y-31218000D01*
X45343022Y-31181108D01*
X45517731Y-31108741D01*
X45674964Y-31003681D01*
X45808681Y-30869964D01*
X45913741Y-30712731D01*
X45986108Y-30538022D01*
X46023000Y-30352552D01*
X46023000Y-30163448D01*
X45986108Y-29977978D01*
X45920014Y-29818413D01*
X46237192Y-29818413D01*
X46332956Y-30082814D01*
X46622571Y-30223704D01*
X46934108Y-30305384D01*
X47255595Y-30324718D01*
X47574675Y-30280961D01*
X47879088Y-30175795D01*
X48053044Y-30082814D01*
X48148808Y-29818413D01*
X47193000Y-28862605D01*
X46237192Y-29818413D01*
X45920014Y-29818413D01*
X45913741Y-29803269D01*
X45808681Y-29646036D01*
X45674964Y-29512319D01*
X45517731Y-29407259D01*
X45343022Y-29334892D01*
X45252804Y-29316947D01*
X45283704Y-29253429D01*
X45365384Y-28941892D01*
X45377189Y-28745595D01*
X45551282Y-28745595D01*
X45595039Y-29064675D01*
X45700205Y-29369088D01*
X45793186Y-29543044D01*
X46057587Y-29638808D01*
X47013395Y-28683000D01*
X47372605Y-28683000D01*
X48328413Y-29638808D01*
X48592814Y-29543044D01*
X48733704Y-29253429D01*
X48815384Y-28941892D01*
X48834718Y-28620405D01*
X48790961Y-28301325D01*
X48685795Y-27996912D01*
X48592814Y-27822956D01*
X48328413Y-27727192D01*
X47372605Y-28683000D01*
X47013395Y-28683000D01*
X46057587Y-27727192D01*
X45793186Y-27822956D01*
X45652296Y-28112571D01*
X45570616Y-28424108D01*
X45551282Y-28745595D01*
X45377189Y-28745595D01*
X45384718Y-28620405D01*
X45340961Y-28301325D01*
X45235795Y-27996912D01*
X45142814Y-27822956D01*
X44878413Y-27727192D01*
X43922605Y-28683000D01*
X43936748Y-28697143D01*
X43757143Y-28876748D01*
X43743000Y-28862605D01*
X42787192Y-29818413D01*
X38749314Y-29818413D01*
X38736787Y-29733870D01*
X38641603Y-29467708D01*
X38574671Y-29342486D01*
X38330702Y-29270903D01*
X37517605Y-30084000D01*
X37158395Y-30084000D01*
X36345298Y-29270903D01*
X36101329Y-29342486D01*
X35980429Y-29597996D01*
X35911700Y-29872184D01*
X35897783Y-30154512D01*
X32510072Y-30154512D01*
X32510072Y-29584000D01*
X32497812Y-29459518D01*
X32461502Y-29339820D01*
X32402537Y-29229506D01*
X32323185Y-29132815D01*
X32226494Y-29053463D01*
X32116180Y-28994498D01*
X31996482Y-28958188D01*
X31872000Y-28945928D01*
X28072000Y-28945928D01*
X27947518Y-28958188D01*
X27827820Y-28994498D01*
X27717506Y-29053463D01*
X27620815Y-29132815D01*
X27541463Y-29229506D01*
X27482498Y-29339820D01*
X27446188Y-29459518D01*
X27433928Y-29584000D01*
X25660000Y-29584000D01*
X25660000Y-28505653D01*
X33315952Y-28505653D01*
X33471962Y-28821214D01*
X33846745Y-29012020D01*
X34251551Y-29126044D01*
X34670824Y-29158902D01*
X35088451Y-29109334D01*
X35143898Y-29091298D01*
X36524903Y-29091298D01*
X37338000Y-29904395D01*
X38151097Y-29091298D01*
X38079514Y-28847329D01*
X37864510Y-28745595D01*
X42101282Y-28745595D01*
X42145039Y-29064675D01*
X42250205Y-29369088D01*
X42343186Y-29543044D01*
X42607587Y-29638808D01*
X43563395Y-28683000D01*
X42607587Y-27727192D01*
X42343186Y-27822956D01*
X42202296Y-28112571D01*
X42120616Y-28424108D01*
X42101282Y-28745595D01*
X37864510Y-28745595D01*
X37824004Y-28726429D01*
X37549816Y-28657700D01*
X37267488Y-28643783D01*
X36987870Y-28685213D01*
X36721708Y-28780397D01*
X36596486Y-28847329D01*
X36524903Y-29091298D01*
X35143898Y-29091298D01*
X35488383Y-28979243D01*
X35784038Y-28821214D01*
X35940048Y-28505653D01*
X34628000Y-27193605D01*
X33315952Y-28505653D01*
X25660000Y-28505653D01*
X25660000Y-25660000D01*
X33094392Y-25660000D01*
X33136345Y-25701953D01*
G37*
%TD.AperFunction*%
D30*
X45210354Y-43101644D02*
X45231998Y-43119407D01*
X45231998Y-43154914D01*
X44987911Y-43399002D01*
X44928090Y-43399002D01*
X44794665Y-43265578D01*
X44921495Y-43197786D01*
X45038643Y-43101644D01*
X45124498Y-42997030D01*
X45210354Y-43101644D01*
%TA.AperFunction,Conductor*%
D31*
G36*
X45210354Y-43101644D02*
G01*
X45231998Y-43119407D01*
X45231998Y-43154914D01*
X44987911Y-43399002D01*
X44928090Y-43399002D01*
X44794665Y-43265578D01*
X44921495Y-43197786D01*
X45038643Y-43101644D01*
X45124498Y-42997030D01*
X45210354Y-43101644D01*
G37*
%TD.AperFunction*%
D30*
X31595000Y-38735000D02*
X31615000Y-38735000D01*
X31615000Y-38989000D01*
X31595000Y-38989000D01*
X31595000Y-39009000D01*
X31426072Y-39009000D01*
X31426072Y-38715000D01*
X31595000Y-38715000D01*
X31595000Y-38735000D01*
%TA.AperFunction,Conductor*%
D31*
G36*
X31595000Y-38735000D02*
G01*
X31615000Y-38735000D01*
X31615000Y-38989000D01*
X31595000Y-38989000D01*
X31595000Y-39009000D01*
X31426072Y-39009000D01*
X31426072Y-38715000D01*
X31595000Y-38715000D01*
X31595000Y-38735000D01*
G37*
%TD.AperFunction*%
%TD*%
M02*
