M48
; DRILL file {KiCad (5.1.9-16-g1737927814)-1} date 07/25/21 19:14:54
; FORMAT={-:-/ absolute / inch / decimal}
; #@! TF.CreationDate,2021-07-25T19:14:54-05:00
; #@! TF.GenerationSoftware,Kicad,Pcbnew,(5.1.9-16-g1737927814)-1
; #@! TF.FileFunction,Plated,1,2,PTH
FMAT,2
INCH
T1C0.0157
T2C0.0374
T3C0.0394
T4C0.0523
T5C0.0906
%
G90
G05
T1
X1.06Y-1.58
X1.08Y-2.77
X1.12Y-1.74
X1.12Y-1.95
X1.1421Y-2.7487
X1.16Y-2.15
X1.17Y-2.45
X1.1948Y-1.2764
X1.2Y-1.71
X1.2002Y-2.5898
X1.2268Y-2.717
X1.2323Y-2.4182
X1.2486Y-2.6214
X1.2515Y-1.6565
X1.2516Y-1.375
X1.2516Y-2.0894
X1.2586Y-2.7402
X1.27Y-1.53
X1.31Y-1.72
X1.315Y-1.3412
X1.3295Y-2.3005
X1.3499Y-1.6773
X1.35Y-1.82
X1.36Y-1.88
X1.3794Y-2.8998
X1.3908Y-2.7908
X1.3926Y-2.8627
X1.3998Y-2.6002
X1.4008Y-2.4368
X1.4048Y-2.5293
X1.428Y-2.8455
X1.44Y-2.44
X1.4485Y-2.7959
X1.45Y-1.68
X1.4516Y-2.8771
X1.4704Y-2.3696
X1.4743Y-2.5743
X1.48Y-2.76
X1.486Y-2.4693
X1.5131Y-2.8525
X1.5165Y-1.6465
X1.5225Y-2.4874
X1.5342Y-1.8135
X1.5383Y-2.4502
X1.5403Y-2.8241
X1.5471Y-2.5485
X1.5481Y-2.6066
X1.5568Y-2.8608
X1.56Y-1.89
X1.5612Y-1.2962
X1.5652Y-1.7854
X1.57Y-1.83
X1.5809Y-2.8243
X1.5861Y-2.887
X1.5952Y-1.316
X1.6Y-2.5142
X1.6054Y-2.7072
X1.62Y-1.47
X1.6464Y-2.7168
X1.68Y-1.47
X1.6858Y-2.6319
X1.7549Y-2.5579
X1.7565Y-2.4096
X1.77Y-1.71
X1.78Y-1.48
X1.79Y-2.75
X1.8Y-2.06
X1.8071Y-2.538
X1.8361Y-1.4698
X1.86Y-2.77
T2
X1.47Y-1.1844
X1.47Y-1.2828
X1.47Y-1.3616
X1.47Y-1.46
T3
X1.8898Y-1.7717
X1.8898Y-1.8717
X1.8898Y-1.9717
X1.8898Y-2.0717
X1.8898Y-2.1717
X1.8898Y-2.2717
T4
X1.7222Y-1.1293
X1.7222Y-1.4107
X1.858Y-1.1293
X1.858Y-1.4107
T5
X1.1046Y-2.65
X1.3633Y-1.0635
X1.3633Y-1.5809
X1.8454Y-2.65
T3
G00X1.1006Y-2.398
M15
G01X1.0534Y-2.398
M16
G05
G00X1.1006Y-2.902
M15
G01X1.0534Y-2.902
M16
G05
G00X1.8494Y-2.398
M15
G01X1.8966Y-2.398
M16
G05
G00X1.8494Y-2.902
M15
G01X1.8966Y-2.902
M16
G05
T0
M30
