%TF.GenerationSoftware,KiCad,Pcbnew,(5.1.9-16-g1737927814)-1*%
%TF.CreationDate,2021-07-07T14:31:43-05:00*%
%TF.ProjectId,adbuino,61646275-696e-46f2-9e6b-696361645f70,rev?*%
%TF.SameCoordinates,Original*%
%TF.FileFunction,Legend,Top*%
%TF.FilePolarity,Positive*%
%FSLAX46Y46*%
G04 Gerber Fmt 4.6, Leading zero omitted, Abs format (unit mm)*
G04 Created by KiCad (PCBNEW (5.1.9-16-g1737927814)-1) date 2021-07-07 14:31:43*
%MOMM*%
%LPD*%
G01*
G04 APERTURE LIST*
%ADD10C,0.120000*%
%ADD11C,0.150000*%
%ADD12C,0.200000*%
%ADD13C,0.100000*%
%ADD14C,0.250000*%
%ADD15C,0.127000*%
%ADD16C,0.254000*%
%ADD17C,0.015000*%
G04 APERTURE END LIST*
D10*
X179324000Y-81788000D02*
X179578000Y-81788000D01*
X179070000Y-81534000D02*
X179070000Y-88900000D01*
X183642000Y-81534000D02*
X179070000Y-81534000D01*
X183642000Y-88900000D02*
X183642000Y-81534000D01*
X179070000Y-88900000D02*
X183642000Y-88900000D01*
X179324000Y-88646000D02*
X179324000Y-81788000D01*
X183388000Y-88646000D02*
X179324000Y-88646000D01*
X183388000Y-81788000D02*
X183388000Y-88646000D01*
X179578000Y-81788000D02*
X183388000Y-81788000D01*
D11*
X180951666Y-87923333D02*
X180951666Y-87447142D01*
X181237380Y-88018571D02*
X180237380Y-87685238D01*
X181237380Y-87351904D01*
X181237380Y-87018571D02*
X180237380Y-87018571D01*
X180237380Y-86780476D01*
X180285000Y-86637619D01*
X180380238Y-86542380D01*
X180475476Y-86494761D01*
X180665952Y-86447142D01*
X180808809Y-86447142D01*
X180999285Y-86494761D01*
X181094523Y-86542380D01*
X181189761Y-86637619D01*
X181237380Y-86780476D01*
X181237380Y-87018571D01*
X180713571Y-85685238D02*
X180761190Y-85542380D01*
X180808809Y-85494761D01*
X180904047Y-85447142D01*
X181046904Y-85447142D01*
X181142142Y-85494761D01*
X181189761Y-85542380D01*
X181237380Y-85637619D01*
X181237380Y-86018571D01*
X180237380Y-86018571D01*
X180237380Y-85685238D01*
X180285000Y-85590000D01*
X180332619Y-85542380D01*
X180427857Y-85494761D01*
X180523095Y-85494761D01*
X180618333Y-85542380D01*
X180665952Y-85590000D01*
X180713571Y-85685238D01*
X180713571Y-86018571D01*
X180570714Y-84590000D02*
X181237380Y-84590000D01*
X180570714Y-85018571D02*
X181094523Y-85018571D01*
X181189761Y-84970952D01*
X181237380Y-84875714D01*
X181237380Y-84732857D01*
X181189761Y-84637619D01*
X181142142Y-84590000D01*
X181237380Y-84113809D02*
X180570714Y-84113809D01*
X180237380Y-84113809D02*
X180285000Y-84161428D01*
X180332619Y-84113809D01*
X180285000Y-84066190D01*
X180237380Y-84113809D01*
X180332619Y-84113809D01*
X180570714Y-83637619D02*
X181237380Y-83637619D01*
X180665952Y-83637619D02*
X180618333Y-83590000D01*
X180570714Y-83494761D01*
X180570714Y-83351904D01*
X180618333Y-83256666D01*
X180713571Y-83209047D01*
X181237380Y-83209047D01*
X181237380Y-82590000D02*
X181189761Y-82685238D01*
X181142142Y-82732857D01*
X181046904Y-82780476D01*
X180761190Y-82780476D01*
X180665952Y-82732857D01*
X180618333Y-82685238D01*
X180570714Y-82590000D01*
X180570714Y-82447142D01*
X180618333Y-82351904D01*
X180665952Y-82304285D01*
X180761190Y-82256666D01*
X181046904Y-82256666D01*
X181142142Y-82304285D01*
X181189761Y-82351904D01*
X181237380Y-82447142D01*
X181237380Y-82590000D01*
X182220714Y-86518571D02*
X182887380Y-86280476D01*
X182220714Y-86042380D01*
X181887380Y-85470952D02*
X181887380Y-85375714D01*
X181935000Y-85280476D01*
X181982619Y-85232857D01*
X182077857Y-85185238D01*
X182268333Y-85137619D01*
X182506428Y-85137619D01*
X182696904Y-85185238D01*
X182792142Y-85232857D01*
X182839761Y-85280476D01*
X182887380Y-85375714D01*
X182887380Y-85470952D01*
X182839761Y-85566190D01*
X182792142Y-85613809D01*
X182696904Y-85661428D01*
X182506428Y-85709047D01*
X182268333Y-85709047D01*
X182077857Y-85661428D01*
X181982619Y-85613809D01*
X181935000Y-85566190D01*
X181887380Y-85470952D01*
X182792142Y-84709047D02*
X182839761Y-84661428D01*
X182887380Y-84709047D01*
X182839761Y-84756666D01*
X182792142Y-84709047D01*
X182887380Y-84709047D01*
X182887380Y-84185238D02*
X182887380Y-83994761D01*
X182839761Y-83899523D01*
X182792142Y-83851904D01*
X182649285Y-83756666D01*
X182458809Y-83709047D01*
X182077857Y-83709047D01*
X181982619Y-83756666D01*
X181935000Y-83804285D01*
X181887380Y-83899523D01*
X181887380Y-84090000D01*
X181935000Y-84185238D01*
X181982619Y-84232857D01*
X182077857Y-84280476D01*
X182315952Y-84280476D01*
X182411190Y-84232857D01*
X182458809Y-84185238D01*
X182506428Y-84090000D01*
X182506428Y-83899523D01*
X182458809Y-83804285D01*
X182411190Y-83756666D01*
X182315952Y-83709047D01*
D10*
X160376000Y-70358000D02*
X162306000Y-70358000D01*
X160376000Y-68508000D02*
X160376000Y-70358000D01*
X162306000Y-70358000D02*
X166624000Y-70358000D01*
X162306000Y-71882000D02*
X162306000Y-70358000D01*
X166806000Y-71882000D02*
X162306000Y-71882000D01*
X166806000Y-68508000D02*
X166806000Y-71882000D01*
D11*
X163330095Y-71572380D02*
X163330095Y-70572380D01*
X163568190Y-70572380D01*
X163711047Y-70620000D01*
X163806285Y-70715238D01*
X163853904Y-70810476D01*
X163901523Y-71000952D01*
X163901523Y-71143809D01*
X163853904Y-71334285D01*
X163806285Y-71429523D01*
X163711047Y-71524761D01*
X163568190Y-71572380D01*
X163330095Y-71572380D01*
X164663428Y-71048571D02*
X164806285Y-71096190D01*
X164853904Y-71143809D01*
X164901523Y-71239047D01*
X164901523Y-71381904D01*
X164853904Y-71477142D01*
X164806285Y-71524761D01*
X164711047Y-71572380D01*
X164330095Y-71572380D01*
X164330095Y-70572380D01*
X164663428Y-70572380D01*
X164758666Y-70620000D01*
X164806285Y-70667619D01*
X164853904Y-70762857D01*
X164853904Y-70858095D01*
X164806285Y-70953333D01*
X164758666Y-71000952D01*
X164663428Y-71048571D01*
X164330095Y-71048571D01*
X165853904Y-70620000D02*
X165758666Y-70572380D01*
X165615809Y-70572380D01*
X165472952Y-70620000D01*
X165377714Y-70715238D01*
X165330095Y-70810476D01*
X165282476Y-71000952D01*
X165282476Y-71143809D01*
X165330095Y-71334285D01*
X165377714Y-71429523D01*
X165472952Y-71524761D01*
X165615809Y-71572380D01*
X165711047Y-71572380D01*
X165853904Y-71524761D01*
X165901523Y-71477142D01*
X165901523Y-71143809D01*
X165711047Y-71143809D01*
D10*
X173736000Y-55372000D02*
X179832000Y-55372000D01*
X179984000Y-54102000D02*
X173554000Y-54102000D01*
X179984000Y-57222000D02*
X179984000Y-54102000D01*
X173554000Y-57222000D02*
X173554000Y-54102000D01*
D11*
X175331619Y-55316380D02*
X174998285Y-54840190D01*
X174760190Y-55316380D02*
X174760190Y-54316380D01*
X175141142Y-54316380D01*
X175236380Y-54364000D01*
X175284000Y-54411619D01*
X175331619Y-54506857D01*
X175331619Y-54649714D01*
X175284000Y-54744952D01*
X175236380Y-54792571D01*
X175141142Y-54840190D01*
X174760190Y-54840190D01*
X175760190Y-54792571D02*
X176093523Y-54792571D01*
X176236380Y-55316380D02*
X175760190Y-55316380D01*
X175760190Y-54316380D01*
X176236380Y-54316380D01*
X176617333Y-55268761D02*
X176760190Y-55316380D01*
X176998285Y-55316380D01*
X177093523Y-55268761D01*
X177141142Y-55221142D01*
X177188761Y-55125904D01*
X177188761Y-55030666D01*
X177141142Y-54935428D01*
X177093523Y-54887809D01*
X176998285Y-54840190D01*
X176807809Y-54792571D01*
X176712571Y-54744952D01*
X176664952Y-54697333D01*
X176617333Y-54602095D01*
X176617333Y-54506857D01*
X176664952Y-54411619D01*
X176712571Y-54364000D01*
X176807809Y-54316380D01*
X177045904Y-54316380D01*
X177188761Y-54364000D01*
X177617333Y-54792571D02*
X177950666Y-54792571D01*
X178093523Y-55316380D02*
X177617333Y-55316380D01*
X177617333Y-54316380D01*
X178093523Y-54316380D01*
X178379238Y-54316380D02*
X178950666Y-54316380D01*
X178664952Y-55316380D02*
X178664952Y-54316380D01*
D12*
%TO.C,J2*%
X178591000Y-43921000D02*
G75*
G02*
X178591000Y-44121000I0J-100000D01*
G01*
X178591000Y-44121000D02*
G75*
G02*
X178591000Y-43921000I0J100000D01*
G01*
D13*
X181216000Y-36651000D02*
X173217000Y-36651000D01*
D12*
X178591000Y-43921000D02*
X178591000Y-43921000D01*
X178591000Y-44121000D02*
X178591000Y-44121000D01*
%TO.C,IC1*%
X168148000Y-57650559D02*
X165107441Y-54610000D01*
X165107441Y-54610000D02*
X168148000Y-51569441D01*
X168148000Y-51569441D02*
X171188559Y-54610000D01*
X171188559Y-54610000D02*
X168148000Y-57650559D01*
D14*
X169139206Y-59011740D02*
G75*
G03*
X169139206Y-59011740I-125000J0D01*
G01*
D10*
%TO.C,C16*%
X171060748Y-71655000D02*
X171583252Y-71655000D01*
X171060748Y-73125000D02*
X171583252Y-73125000D01*
%TO.C,C15*%
X170695252Y-85825000D02*
X170172748Y-85825000D01*
X170695252Y-84355000D02*
X170172748Y-84355000D01*
%TO.C,C14*%
X174556748Y-71655000D02*
X175079252Y-71655000D01*
X174556748Y-73125000D02*
X175079252Y-73125000D01*
%TO.C,Y2*%
X160030000Y-65590000D02*
X160030000Y-52990000D01*
X160030000Y-52990000D02*
X154930000Y-52990000D01*
X154930000Y-52990000D02*
X154930000Y-65590000D01*
%TO.C,J1*%
X180788000Y-72958000D02*
X183448000Y-72958000D01*
X180788000Y-60198000D02*
X180788000Y-72958000D01*
X183448000Y-60198000D02*
X183448000Y-72958000D01*
X180788000Y-60198000D02*
X183448000Y-60198000D01*
X180788000Y-58928000D02*
X180788000Y-57598000D01*
X180788000Y-57598000D02*
X182118000Y-57598000D01*
%TO.C,IC2*%
X158346000Y-81360000D02*
X160296000Y-81360000D01*
X158346000Y-81360000D02*
X156396000Y-81360000D01*
X158346000Y-71240000D02*
X160296000Y-71240000D01*
X158346000Y-71240000D02*
X154846000Y-71240000D01*
%TO.C,F1*%
X169724000Y-39007031D02*
X169724000Y-38716969D01*
X171144000Y-39007031D02*
X171144000Y-38716969D01*
%TO.C,C13*%
X156437000Y-68892748D02*
X156437000Y-69415252D01*
X154967000Y-68892748D02*
X154967000Y-69415252D01*
%TO.C,Y1*%
X174543332Y-65902999D02*
X171243332Y-65902999D01*
X171243332Y-65902999D02*
X171243332Y-69902999D01*
%TO.C,SW1*%
X180014000Y-63682000D02*
X179984000Y-63682000D01*
X173554000Y-63682000D02*
X173584000Y-63682000D01*
X173554000Y-57222000D02*
X173584000Y-57222000D01*
X179984000Y-57222000D02*
X180014000Y-57222000D01*
X178084000Y-63682000D02*
X175484000Y-63682000D01*
X180014000Y-57222000D02*
X180014000Y-63682000D01*
X178084000Y-57222000D02*
X175484000Y-57222000D01*
X173554000Y-57222000D02*
X173554000Y-63682000D01*
%TO.C,SW2*%
X166806000Y-68508000D02*
X166776000Y-68508000D01*
X160346000Y-68508000D02*
X160376000Y-68508000D01*
X160346000Y-62048000D02*
X160376000Y-62048000D01*
X166776000Y-62048000D02*
X166806000Y-62048000D01*
X164876000Y-68508000D02*
X162276000Y-68508000D01*
X166806000Y-62048000D02*
X166806000Y-68508000D01*
X164876000Y-62048000D02*
X162276000Y-62048000D01*
X160346000Y-62048000D02*
X160346000Y-68508000D01*
%TO.C,R11*%
X175795000Y-89277564D02*
X175795000Y-88823436D01*
X177265000Y-89277564D02*
X177265000Y-88823436D01*
%TO.C,R10*%
X171677000Y-88823436D02*
X171677000Y-89277564D01*
X170207000Y-88823436D02*
X170207000Y-89277564D01*
%TO.C,R9*%
X160555000Y-89277564D02*
X160555000Y-88823436D01*
X162025000Y-89277564D02*
X162025000Y-88823436D01*
%TO.C,R8*%
X156437000Y-88823436D02*
X156437000Y-89277564D01*
X154967000Y-88823436D02*
X154967000Y-89277564D01*
%TO.C,R3*%
X164468436Y-78259000D02*
X164922564Y-78259000D01*
X164468436Y-79729000D02*
X164922564Y-79729000D01*
%TO.C,R2*%
X171476936Y-62003000D02*
X171931064Y-62003000D01*
X171476936Y-63473000D02*
X171931064Y-63473000D01*
%TO.C,R1*%
X171931064Y-65505000D02*
X171476936Y-65505000D01*
X171931064Y-64035000D02*
X171476936Y-64035000D01*
%TO.C,Q2*%
X175316000Y-88315500D02*
X174386000Y-88315500D01*
X172156000Y-88315500D02*
X173086000Y-88315500D01*
X172156000Y-88315500D02*
X172156000Y-90475500D01*
X175316000Y-88315500D02*
X175316000Y-89775500D01*
%TO.C,Q1*%
X160076000Y-88315500D02*
X159146000Y-88315500D01*
X156916000Y-88315500D02*
X157846000Y-88315500D01*
X156916000Y-88315500D02*
X156916000Y-90475500D01*
X160076000Y-88315500D02*
X160076000Y-89775500D01*
%TO.C,C12*%
X163903000Y-58158748D02*
X163903000Y-58681252D01*
X162433000Y-58158748D02*
X162433000Y-58681252D01*
%TO.C,C11*%
X161885000Y-54282748D02*
X161885000Y-54805252D01*
X160415000Y-54282748D02*
X160415000Y-54805252D01*
%TO.C,C10*%
X161885000Y-58158748D02*
X161885000Y-58681252D01*
X160415000Y-58158748D02*
X160415000Y-58681252D01*
%TO.C,C7*%
X169283666Y-68564251D02*
X169283666Y-68041747D01*
X170753666Y-68564251D02*
X170753666Y-68041747D01*
%TO.C,C6*%
X175033000Y-68564251D02*
X175033000Y-68041747D01*
X176503000Y-68564251D02*
X176503000Y-68041747D01*
%TO.C,C5*%
X177827000Y-68587252D02*
X177827000Y-68064748D01*
X179297000Y-68587252D02*
X179297000Y-68064748D01*
%TO.C,C2*%
X173662748Y-84355000D02*
X174185252Y-84355000D01*
X173662748Y-85825000D02*
X174185252Y-85825000D01*
%TO.C,U1*%
X175914000Y-53630000D02*
X175914000Y-47620000D01*
X182734000Y-51380000D02*
X182734000Y-47620000D01*
X175914000Y-47620000D02*
X177174000Y-47620000D01*
X182734000Y-47620000D02*
X181474000Y-47620000D01*
%TO.C,C4*%
X174018253Y-50319000D02*
X173495749Y-50319000D01*
X174018253Y-51789000D02*
X173495749Y-51789000D01*
%TO.C,C3*%
X174018253Y-48033000D02*
X173495749Y-48033000D01*
X174018253Y-49503000D02*
X173495749Y-49503000D01*
%TO.C,C1*%
X174018253Y-45747000D02*
X173495749Y-45747000D01*
X174018253Y-47217000D02*
X173495749Y-47217000D01*
D11*
%TO.C,U2*%
X176628000Y-75115000D02*
X176628000Y-73690000D01*
X176853000Y-82365000D02*
X176853000Y-82040000D01*
X169603000Y-82365000D02*
X169603000Y-82040000D01*
X169603000Y-75115000D02*
X169603000Y-75440000D01*
X176853000Y-75115000D02*
X176853000Y-75440000D01*
X169603000Y-75115000D02*
X169928000Y-75115000D01*
X169603000Y-82365000D02*
X169928000Y-82365000D01*
X176853000Y-82365000D02*
X176528000Y-82365000D01*
X176853000Y-75115000D02*
X176628000Y-75115000D01*
D10*
%TO.C,R7*%
X159485000Y-50519064D02*
X159485000Y-50064936D01*
X158015000Y-50519064D02*
X158015000Y-50064936D01*
%TO.C,R6*%
X160047000Y-50064936D02*
X160047000Y-50519064D01*
X161517000Y-50064936D02*
X161517000Y-50519064D01*
%TO.C,R5*%
X167159000Y-68095935D02*
X167159000Y-68550063D01*
X168629000Y-68095935D02*
X168629000Y-68550063D01*
%TO.C,R4*%
X167159000Y-62256936D02*
X167159000Y-62711064D01*
X168629000Y-62256936D02*
X168629000Y-62711064D01*
D13*
%TO.C,J5*%
X164484000Y-90714000D02*
G75*
G03*
X164484000Y-90714000I-200000J0D01*
G01*
D15*
X168094000Y-99404000D02*
X168094000Y-99164000D01*
X168094000Y-91604000D02*
X168094000Y-95034000D01*
X154994000Y-91604000D02*
X154994000Y-95044000D01*
X154994000Y-99404000D02*
X154994000Y-99164000D01*
X168094000Y-99404000D02*
X154994000Y-99404000D01*
D13*
%TO.C,J4*%
X179724000Y-90714000D02*
G75*
G03*
X179724000Y-90714000I-200000J0D01*
G01*
D15*
X183334000Y-99404000D02*
X183334000Y-99164000D01*
X183334000Y-91604000D02*
X183334000Y-95034000D01*
X170234000Y-91604000D02*
X170234000Y-95044000D01*
X170234000Y-99404000D02*
X170234000Y-99164000D01*
X183334000Y-99404000D02*
X170234000Y-99404000D01*
D10*
%TO.C,J3*%
X166508000Y-48320000D02*
X164708000Y-48320000D01*
X154798000Y-33140000D02*
X155448000Y-33140000D01*
X169418000Y-33140000D02*
X169418000Y-32620000D01*
X155448000Y-41250000D02*
X155448000Y-33140000D01*
X169418000Y-32620000D02*
X154798000Y-32620000D01*
X154798000Y-32620000D02*
X154798000Y-33140000D01*
X155448000Y-48100000D02*
X155448000Y-44770000D01*
X168768000Y-48100000D02*
X168768000Y-44770000D01*
X168768000Y-48100000D02*
X155448000Y-48100000D01*
X168768000Y-33140000D02*
X169418000Y-33140000D01*
X168768000Y-33140000D02*
X168768000Y-41250000D01*
%TO.C,C9*%
X171367239Y-60050208D02*
X171736706Y-59680741D01*
X170327792Y-59010761D02*
X170697259Y-58641294D01*
%TO.C,C8*%
X164001239Y-51160208D02*
X164370706Y-50790741D01*
X162961792Y-50120761D02*
X163331259Y-49751294D01*
%TO.C,J2*%
D16*
X176614666Y-37404523D02*
X176614666Y-38311666D01*
X176554190Y-38493095D01*
X176433238Y-38614047D01*
X176251809Y-38674523D01*
X176130857Y-38674523D01*
X177158952Y-37525476D02*
X177219428Y-37465000D01*
X177340380Y-37404523D01*
X177642761Y-37404523D01*
X177763714Y-37465000D01*
X177824190Y-37525476D01*
X177884666Y-37646428D01*
X177884666Y-37767380D01*
X177824190Y-37948809D01*
X177098476Y-38674523D01*
X177884666Y-38674523D01*
%TO.C,IC1*%
X166865106Y-54139605D02*
X167763131Y-53241580D01*
X167891421Y-54994868D02*
X167805895Y-54994868D01*
X167634842Y-54909341D01*
X167549316Y-54823815D01*
X167463790Y-54652763D01*
X167463790Y-54481710D01*
X167506553Y-54353421D01*
X167634842Y-54139605D01*
X167763131Y-54011316D01*
X167976947Y-53883026D01*
X168105236Y-53840263D01*
X168276289Y-53840263D01*
X168447341Y-53925790D01*
X168532868Y-54011316D01*
X168618394Y-54182368D01*
X168618394Y-54267895D01*
X168661157Y-55935656D02*
X168148000Y-55422499D01*
X168404578Y-55679078D02*
X169302604Y-54781052D01*
X169088788Y-54823815D01*
X168917736Y-54823815D01*
X168789446Y-54781052D01*
%TO.C,C16*%
D11*
X167759142Y-72747142D02*
X167711523Y-72794761D01*
X167568666Y-72842380D01*
X167473428Y-72842380D01*
X167330571Y-72794761D01*
X167235333Y-72699523D01*
X167187714Y-72604285D01*
X167140095Y-72413809D01*
X167140095Y-72270952D01*
X167187714Y-72080476D01*
X167235333Y-71985238D01*
X167330571Y-71890000D01*
X167473428Y-71842380D01*
X167568666Y-71842380D01*
X167711523Y-71890000D01*
X167759142Y-71937619D01*
X168711523Y-72842380D02*
X168140095Y-72842380D01*
X168425809Y-72842380D02*
X168425809Y-71842380D01*
X168330571Y-71985238D01*
X168235333Y-72080476D01*
X168140095Y-72128095D01*
X169568666Y-71842380D02*
X169378190Y-71842380D01*
X169282952Y-71890000D01*
X169235333Y-71937619D01*
X169140095Y-72080476D01*
X169092476Y-72270952D01*
X169092476Y-72651904D01*
X169140095Y-72747142D01*
X169187714Y-72794761D01*
X169282952Y-72842380D01*
X169473428Y-72842380D01*
X169568666Y-72794761D01*
X169616285Y-72747142D01*
X169663904Y-72651904D01*
X169663904Y-72413809D01*
X169616285Y-72318571D01*
X169568666Y-72270952D01*
X169473428Y-72223333D01*
X169282952Y-72223333D01*
X169187714Y-72270952D01*
X169140095Y-72318571D01*
X169092476Y-72413809D01*
%TO.C,C15*%
X166743142Y-85701142D02*
X166695523Y-85748761D01*
X166552666Y-85796380D01*
X166457428Y-85796380D01*
X166314571Y-85748761D01*
X166219333Y-85653523D01*
X166171714Y-85558285D01*
X166124095Y-85367809D01*
X166124095Y-85224952D01*
X166171714Y-85034476D01*
X166219333Y-84939238D01*
X166314571Y-84844000D01*
X166457428Y-84796380D01*
X166552666Y-84796380D01*
X166695523Y-84844000D01*
X166743142Y-84891619D01*
X167695523Y-85796380D02*
X167124095Y-85796380D01*
X167409809Y-85796380D02*
X167409809Y-84796380D01*
X167314571Y-84939238D01*
X167219333Y-85034476D01*
X167124095Y-85082095D01*
X168600285Y-84796380D02*
X168124095Y-84796380D01*
X168076476Y-85272571D01*
X168124095Y-85224952D01*
X168219333Y-85177333D01*
X168457428Y-85177333D01*
X168552666Y-85224952D01*
X168600285Y-85272571D01*
X168647904Y-85367809D01*
X168647904Y-85605904D01*
X168600285Y-85701142D01*
X168552666Y-85748761D01*
X168457428Y-85796380D01*
X168219333Y-85796380D01*
X168124095Y-85748761D01*
X168076476Y-85701142D01*
%TO.C,C14*%
X177157142Y-72747142D02*
X177109523Y-72794761D01*
X176966666Y-72842380D01*
X176871428Y-72842380D01*
X176728571Y-72794761D01*
X176633333Y-72699523D01*
X176585714Y-72604285D01*
X176538095Y-72413809D01*
X176538095Y-72270952D01*
X176585714Y-72080476D01*
X176633333Y-71985238D01*
X176728571Y-71890000D01*
X176871428Y-71842380D01*
X176966666Y-71842380D01*
X177109523Y-71890000D01*
X177157142Y-71937619D01*
X178109523Y-72842380D02*
X177538095Y-72842380D01*
X177823809Y-72842380D02*
X177823809Y-71842380D01*
X177728571Y-71985238D01*
X177633333Y-72080476D01*
X177538095Y-72128095D01*
X178966666Y-72175714D02*
X178966666Y-72842380D01*
X178728571Y-71794761D02*
X178490476Y-72509047D01*
X179109523Y-72509047D01*
%TO.C,Y2*%
X155424190Y-52546190D02*
X155900380Y-52546190D01*
X154900380Y-52879523D02*
X155424190Y-52546190D01*
X154900380Y-52212857D01*
X154995619Y-51927142D02*
X154948000Y-51879523D01*
X154900380Y-51784285D01*
X154900380Y-51546190D01*
X154948000Y-51450952D01*
X154995619Y-51403333D01*
X155090857Y-51355714D01*
X155186095Y-51355714D01*
X155328952Y-51403333D01*
X155900380Y-51974761D01*
X155900380Y-51355714D01*
%TO.C,J1*%
X181784666Y-56050380D02*
X181784666Y-56764666D01*
X181737047Y-56907523D01*
X181641809Y-57002761D01*
X181498952Y-57050380D01*
X181403714Y-57050380D01*
X182784666Y-57050380D02*
X182213238Y-57050380D01*
X182498952Y-57050380D02*
X182498952Y-56050380D01*
X182403714Y-56193238D01*
X182308476Y-56288476D01*
X182213238Y-56336095D01*
%TO.C,IC2*%
X157369809Y-70852380D02*
X157369809Y-69852380D01*
X158417428Y-70757142D02*
X158369809Y-70804761D01*
X158226952Y-70852380D01*
X158131714Y-70852380D01*
X157988857Y-70804761D01*
X157893619Y-70709523D01*
X157846000Y-70614285D01*
X157798380Y-70423809D01*
X157798380Y-70280952D01*
X157846000Y-70090476D01*
X157893619Y-69995238D01*
X157988857Y-69900000D01*
X158131714Y-69852380D01*
X158226952Y-69852380D01*
X158369809Y-69900000D01*
X158417428Y-69947619D01*
X158798380Y-69947619D02*
X158846000Y-69900000D01*
X158941238Y-69852380D01*
X159179333Y-69852380D01*
X159274571Y-69900000D01*
X159322190Y-69947619D01*
X159369809Y-70042857D01*
X159369809Y-70138095D01*
X159322190Y-70280952D01*
X158750761Y-70852380D01*
X159369809Y-70852380D01*
%TO.C,F1*%
X170870571Y-42243333D02*
X170870571Y-42576666D01*
X171394380Y-42576666D02*
X170394380Y-42576666D01*
X170394380Y-42100476D01*
X171394380Y-41195714D02*
X171394380Y-41767142D01*
X171394380Y-41481428D02*
X170394380Y-41481428D01*
X170537238Y-41576666D01*
X170632476Y-41671904D01*
X170680095Y-41767142D01*
%TO.C,C13*%
X157739142Y-68968857D02*
X157786761Y-69016476D01*
X157834380Y-69159333D01*
X157834380Y-69254571D01*
X157786761Y-69397428D01*
X157691523Y-69492666D01*
X157596285Y-69540285D01*
X157405809Y-69587904D01*
X157262952Y-69587904D01*
X157072476Y-69540285D01*
X156977238Y-69492666D01*
X156882000Y-69397428D01*
X156834380Y-69254571D01*
X156834380Y-69159333D01*
X156882000Y-69016476D01*
X156929619Y-68968857D01*
X157834380Y-68016476D02*
X157834380Y-68587904D01*
X157834380Y-68302190D02*
X156834380Y-68302190D01*
X156977238Y-68397428D01*
X157072476Y-68492666D01*
X157120095Y-68587904D01*
X156834380Y-67683142D02*
X156834380Y-67064095D01*
X157215333Y-67397428D01*
X157215333Y-67254571D01*
X157262952Y-67159333D01*
X157310571Y-67111714D01*
X157405809Y-67064095D01*
X157643904Y-67064095D01*
X157739142Y-67111714D01*
X157786761Y-67159333D01*
X157834380Y-67254571D01*
X157834380Y-67540285D01*
X157786761Y-67635523D01*
X157739142Y-67683142D01*
%TO.C,Y1*%
X172751809Y-70588190D02*
X172751809Y-71064380D01*
X172418476Y-70064380D02*
X172751809Y-70588190D01*
X173085142Y-70064380D01*
X173942285Y-71064380D02*
X173370857Y-71064380D01*
X173656571Y-71064380D02*
X173656571Y-70064380D01*
X173561333Y-70207238D01*
X173466095Y-70302476D01*
X173370857Y-70350095D01*
%TO.C,SW1*%
X175450666Y-58824761D02*
X175593523Y-58872380D01*
X175831619Y-58872380D01*
X175926857Y-58824761D01*
X175974476Y-58777142D01*
X176022095Y-58681904D01*
X176022095Y-58586666D01*
X175974476Y-58491428D01*
X175926857Y-58443809D01*
X175831619Y-58396190D01*
X175641142Y-58348571D01*
X175545904Y-58300952D01*
X175498285Y-58253333D01*
X175450666Y-58158095D01*
X175450666Y-58062857D01*
X175498285Y-57967619D01*
X175545904Y-57920000D01*
X175641142Y-57872380D01*
X175879238Y-57872380D01*
X176022095Y-57920000D01*
X176355428Y-57872380D02*
X176593523Y-58872380D01*
X176784000Y-58158095D01*
X176974476Y-58872380D01*
X177212571Y-57872380D01*
X178117333Y-58872380D02*
X177545904Y-58872380D01*
X177831619Y-58872380D02*
X177831619Y-57872380D01*
X177736380Y-58015238D01*
X177641142Y-58110476D01*
X177545904Y-58158095D01*
%TO.C,SW2*%
X164234761Y-66103333D02*
X164282380Y-65960476D01*
X164282380Y-65722380D01*
X164234761Y-65627142D01*
X164187142Y-65579523D01*
X164091904Y-65531904D01*
X163996666Y-65531904D01*
X163901428Y-65579523D01*
X163853809Y-65627142D01*
X163806190Y-65722380D01*
X163758571Y-65912857D01*
X163710952Y-66008095D01*
X163663333Y-66055714D01*
X163568095Y-66103333D01*
X163472857Y-66103333D01*
X163377619Y-66055714D01*
X163330000Y-66008095D01*
X163282380Y-65912857D01*
X163282380Y-65674761D01*
X163330000Y-65531904D01*
X163282380Y-65198571D02*
X164282380Y-64960476D01*
X163568095Y-64770000D01*
X164282380Y-64579523D01*
X163282380Y-64341428D01*
X163377619Y-64008095D02*
X163330000Y-63960476D01*
X163282380Y-63865238D01*
X163282380Y-63627142D01*
X163330000Y-63531904D01*
X163377619Y-63484285D01*
X163472857Y-63436666D01*
X163568095Y-63436666D01*
X163710952Y-63484285D01*
X164282380Y-64055714D01*
X164282380Y-63436666D01*
%TO.C,R11*%
X178760380Y-89542857D02*
X178284190Y-89876190D01*
X178760380Y-90114285D02*
X177760380Y-90114285D01*
X177760380Y-89733333D01*
X177808000Y-89638095D01*
X177855619Y-89590476D01*
X177950857Y-89542857D01*
X178093714Y-89542857D01*
X178188952Y-89590476D01*
X178236571Y-89638095D01*
X178284190Y-89733333D01*
X178284190Y-90114285D01*
X178760380Y-88590476D02*
X178760380Y-89161904D01*
X178760380Y-88876190D02*
X177760380Y-88876190D01*
X177903238Y-88971428D01*
X177998476Y-89066666D01*
X178046095Y-89161904D01*
X178760380Y-87638095D02*
X178760380Y-88209523D01*
X178760380Y-87923809D02*
X177760380Y-87923809D01*
X177903238Y-88019047D01*
X177998476Y-88114285D01*
X178046095Y-88209523D01*
%TO.C,R10*%
X169870380Y-89542857D02*
X169394190Y-89876190D01*
X169870380Y-90114285D02*
X168870380Y-90114285D01*
X168870380Y-89733333D01*
X168918000Y-89638095D01*
X168965619Y-89590476D01*
X169060857Y-89542857D01*
X169203714Y-89542857D01*
X169298952Y-89590476D01*
X169346571Y-89638095D01*
X169394190Y-89733333D01*
X169394190Y-90114285D01*
X169870380Y-88590476D02*
X169870380Y-89161904D01*
X169870380Y-88876190D02*
X168870380Y-88876190D01*
X169013238Y-88971428D01*
X169108476Y-89066666D01*
X169156095Y-89161904D01*
X168870380Y-87971428D02*
X168870380Y-87876190D01*
X168918000Y-87780952D01*
X168965619Y-87733333D01*
X169060857Y-87685714D01*
X169251333Y-87638095D01*
X169489428Y-87638095D01*
X169679904Y-87685714D01*
X169775142Y-87733333D01*
X169822761Y-87780952D01*
X169870380Y-87876190D01*
X169870380Y-87971428D01*
X169822761Y-88066666D01*
X169775142Y-88114285D01*
X169679904Y-88161904D01*
X169489428Y-88209523D01*
X169251333Y-88209523D01*
X169060857Y-88161904D01*
X168965619Y-88114285D01*
X168918000Y-88066666D01*
X168870380Y-87971428D01*
%TO.C,R9*%
X161742380Y-86526666D02*
X161266190Y-86860000D01*
X161742380Y-87098095D02*
X160742380Y-87098095D01*
X160742380Y-86717142D01*
X160790000Y-86621904D01*
X160837619Y-86574285D01*
X160932857Y-86526666D01*
X161075714Y-86526666D01*
X161170952Y-86574285D01*
X161218571Y-86621904D01*
X161266190Y-86717142D01*
X161266190Y-87098095D01*
X161742380Y-86050476D02*
X161742380Y-85860000D01*
X161694761Y-85764761D01*
X161647142Y-85717142D01*
X161504285Y-85621904D01*
X161313809Y-85574285D01*
X160932857Y-85574285D01*
X160837619Y-85621904D01*
X160790000Y-85669523D01*
X160742380Y-85764761D01*
X160742380Y-85955238D01*
X160790000Y-86050476D01*
X160837619Y-86098095D01*
X160932857Y-86145714D01*
X161170952Y-86145714D01*
X161266190Y-86098095D01*
X161313809Y-86050476D01*
X161361428Y-85955238D01*
X161361428Y-85764761D01*
X161313809Y-85669523D01*
X161266190Y-85621904D01*
X161170952Y-85574285D01*
%TO.C,R8*%
X156154380Y-86526666D02*
X155678190Y-86860000D01*
X156154380Y-87098095D02*
X155154380Y-87098095D01*
X155154380Y-86717142D01*
X155202000Y-86621904D01*
X155249619Y-86574285D01*
X155344857Y-86526666D01*
X155487714Y-86526666D01*
X155582952Y-86574285D01*
X155630571Y-86621904D01*
X155678190Y-86717142D01*
X155678190Y-87098095D01*
X155582952Y-85955238D02*
X155535333Y-86050476D01*
X155487714Y-86098095D01*
X155392476Y-86145714D01*
X155344857Y-86145714D01*
X155249619Y-86098095D01*
X155202000Y-86050476D01*
X155154380Y-85955238D01*
X155154380Y-85764761D01*
X155202000Y-85669523D01*
X155249619Y-85621904D01*
X155344857Y-85574285D01*
X155392476Y-85574285D01*
X155487714Y-85621904D01*
X155535333Y-85669523D01*
X155582952Y-85764761D01*
X155582952Y-85955238D01*
X155630571Y-86050476D01*
X155678190Y-86098095D01*
X155773428Y-86145714D01*
X155963904Y-86145714D01*
X156059142Y-86098095D01*
X156106761Y-86050476D01*
X156154380Y-85955238D01*
X156154380Y-85764761D01*
X156106761Y-85669523D01*
X156059142Y-85621904D01*
X155963904Y-85574285D01*
X155773428Y-85574285D01*
X155678190Y-85621904D01*
X155630571Y-85669523D01*
X155582952Y-85764761D01*
%TO.C,R3*%
X164528833Y-77796380D02*
X164195500Y-77320190D01*
X163957404Y-77796380D02*
X163957404Y-76796380D01*
X164338357Y-76796380D01*
X164433595Y-76844000D01*
X164481214Y-76891619D01*
X164528833Y-76986857D01*
X164528833Y-77129714D01*
X164481214Y-77224952D01*
X164433595Y-77272571D01*
X164338357Y-77320190D01*
X163957404Y-77320190D01*
X164862166Y-76796380D02*
X165481214Y-76796380D01*
X165147880Y-77177333D01*
X165290738Y-77177333D01*
X165385976Y-77224952D01*
X165433595Y-77272571D01*
X165481214Y-77367809D01*
X165481214Y-77605904D01*
X165433595Y-77701142D01*
X165385976Y-77748761D01*
X165290738Y-77796380D01*
X165005023Y-77796380D01*
X164909785Y-77748761D01*
X164862166Y-77701142D01*
%TO.C,R2*%
X171537333Y-61540380D02*
X171204000Y-61064190D01*
X170965904Y-61540380D02*
X170965904Y-60540380D01*
X171346857Y-60540380D01*
X171442095Y-60588000D01*
X171489714Y-60635619D01*
X171537333Y-60730857D01*
X171537333Y-60873714D01*
X171489714Y-60968952D01*
X171442095Y-61016571D01*
X171346857Y-61064190D01*
X170965904Y-61064190D01*
X171918285Y-60635619D02*
X171965904Y-60588000D01*
X172061142Y-60540380D01*
X172299238Y-60540380D01*
X172394476Y-60588000D01*
X172442095Y-60635619D01*
X172489714Y-60730857D01*
X172489714Y-60826095D01*
X172442095Y-60968952D01*
X171870666Y-61540380D01*
X172489714Y-61540380D01*
%TO.C,R1*%
X169870380Y-63920666D02*
X169394190Y-64254000D01*
X169870380Y-64492095D02*
X168870380Y-64492095D01*
X168870380Y-64111142D01*
X168918000Y-64015904D01*
X168965619Y-63968285D01*
X169060857Y-63920666D01*
X169203714Y-63920666D01*
X169298952Y-63968285D01*
X169346571Y-64015904D01*
X169394190Y-64111142D01*
X169394190Y-64492095D01*
X169870380Y-62968285D02*
X169870380Y-63539714D01*
X169870380Y-63254000D02*
X168870380Y-63254000D01*
X169013238Y-63349238D01*
X169108476Y-63444476D01*
X169156095Y-63539714D01*
%TO.C,Q2*%
X173386761Y-87161619D02*
X173291523Y-87114000D01*
X173196285Y-87018761D01*
X173053428Y-86875904D01*
X172958190Y-86828285D01*
X172862952Y-86828285D01*
X172910571Y-87066380D02*
X172815333Y-87018761D01*
X172720095Y-86923523D01*
X172672476Y-86733047D01*
X172672476Y-86399714D01*
X172720095Y-86209238D01*
X172815333Y-86114000D01*
X172910571Y-86066380D01*
X173101047Y-86066380D01*
X173196285Y-86114000D01*
X173291523Y-86209238D01*
X173339142Y-86399714D01*
X173339142Y-86733047D01*
X173291523Y-86923523D01*
X173196285Y-87018761D01*
X173101047Y-87066380D01*
X172910571Y-87066380D01*
X173720095Y-86161619D02*
X173767714Y-86114000D01*
X173862952Y-86066380D01*
X174101047Y-86066380D01*
X174196285Y-86114000D01*
X174243904Y-86161619D01*
X174291523Y-86256857D01*
X174291523Y-86352095D01*
X174243904Y-86494952D01*
X173672476Y-87066380D01*
X174291523Y-87066380D01*
%TO.C,Q1*%
X159043619Y-86455238D02*
X158996000Y-86550476D01*
X158900761Y-86645714D01*
X158757904Y-86788571D01*
X158710285Y-86883809D01*
X158710285Y-86979047D01*
X158948380Y-86931428D02*
X158900761Y-87026666D01*
X158805523Y-87121904D01*
X158615047Y-87169523D01*
X158281714Y-87169523D01*
X158091238Y-87121904D01*
X157996000Y-87026666D01*
X157948380Y-86931428D01*
X157948380Y-86740952D01*
X157996000Y-86645714D01*
X158091238Y-86550476D01*
X158281714Y-86502857D01*
X158615047Y-86502857D01*
X158805523Y-86550476D01*
X158900761Y-86645714D01*
X158948380Y-86740952D01*
X158948380Y-86931428D01*
X158948380Y-85550476D02*
X158948380Y-86121904D01*
X158948380Y-85836190D02*
X157948380Y-85836190D01*
X158091238Y-85931428D01*
X158186476Y-86026666D01*
X158234095Y-86121904D01*
%TO.C,C12*%
X165205142Y-59062857D02*
X165252761Y-59110476D01*
X165300380Y-59253333D01*
X165300380Y-59348571D01*
X165252761Y-59491428D01*
X165157523Y-59586666D01*
X165062285Y-59634285D01*
X164871809Y-59681904D01*
X164728952Y-59681904D01*
X164538476Y-59634285D01*
X164443238Y-59586666D01*
X164348000Y-59491428D01*
X164300380Y-59348571D01*
X164300380Y-59253333D01*
X164348000Y-59110476D01*
X164395619Y-59062857D01*
X165300380Y-58110476D02*
X165300380Y-58681904D01*
X165300380Y-58396190D02*
X164300380Y-58396190D01*
X164443238Y-58491428D01*
X164538476Y-58586666D01*
X164586095Y-58681904D01*
X164395619Y-57729523D02*
X164348000Y-57681904D01*
X164300380Y-57586666D01*
X164300380Y-57348571D01*
X164348000Y-57253333D01*
X164395619Y-57205714D01*
X164490857Y-57158095D01*
X164586095Y-57158095D01*
X164728952Y-57205714D01*
X165300380Y-57777142D01*
X165300380Y-57158095D01*
%TO.C,C11*%
X163187142Y-55186857D02*
X163234761Y-55234476D01*
X163282380Y-55377333D01*
X163282380Y-55472571D01*
X163234761Y-55615428D01*
X163139523Y-55710666D01*
X163044285Y-55758285D01*
X162853809Y-55805904D01*
X162710952Y-55805904D01*
X162520476Y-55758285D01*
X162425238Y-55710666D01*
X162330000Y-55615428D01*
X162282380Y-55472571D01*
X162282380Y-55377333D01*
X162330000Y-55234476D01*
X162377619Y-55186857D01*
X163282380Y-54234476D02*
X163282380Y-54805904D01*
X163282380Y-54520190D02*
X162282380Y-54520190D01*
X162425238Y-54615428D01*
X162520476Y-54710666D01*
X162568095Y-54805904D01*
X163282380Y-53282095D02*
X163282380Y-53853523D01*
X163282380Y-53567809D02*
X162282380Y-53567809D01*
X162425238Y-53663047D01*
X162520476Y-53758285D01*
X162568095Y-53853523D01*
%TO.C,C10*%
X159869142Y-58808857D02*
X159916761Y-58856476D01*
X159964380Y-58999333D01*
X159964380Y-59094571D01*
X159916761Y-59237428D01*
X159821523Y-59332666D01*
X159726285Y-59380285D01*
X159535809Y-59427904D01*
X159392952Y-59427904D01*
X159202476Y-59380285D01*
X159107238Y-59332666D01*
X159012000Y-59237428D01*
X158964380Y-59094571D01*
X158964380Y-58999333D01*
X159012000Y-58856476D01*
X159059619Y-58808857D01*
X159964380Y-57856476D02*
X159964380Y-58427904D01*
X159964380Y-58142190D02*
X158964380Y-58142190D01*
X159107238Y-58237428D01*
X159202476Y-58332666D01*
X159250095Y-58427904D01*
X158964380Y-57237428D02*
X158964380Y-57142190D01*
X159012000Y-57046952D01*
X159059619Y-56999333D01*
X159154857Y-56951714D01*
X159345333Y-56904095D01*
X159583428Y-56904095D01*
X159773904Y-56951714D01*
X159869142Y-56999333D01*
X159916761Y-57046952D01*
X159964380Y-57142190D01*
X159964380Y-57237428D01*
X159916761Y-57332666D01*
X159869142Y-57380285D01*
X159773904Y-57427904D01*
X159583428Y-57475523D01*
X159345333Y-57475523D01*
X159154857Y-57427904D01*
X159059619Y-57380285D01*
X159012000Y-57332666D01*
X158964380Y-57237428D01*
%TO.C,C7*%
X169251333Y-66397142D02*
X169203714Y-66444761D01*
X169060857Y-66492380D01*
X168965619Y-66492380D01*
X168822761Y-66444761D01*
X168727523Y-66349523D01*
X168679904Y-66254285D01*
X168632285Y-66063809D01*
X168632285Y-65920952D01*
X168679904Y-65730476D01*
X168727523Y-65635238D01*
X168822761Y-65540000D01*
X168965619Y-65492380D01*
X169060857Y-65492380D01*
X169203714Y-65540000D01*
X169251333Y-65587619D01*
X169584666Y-65492380D02*
X170251333Y-65492380D01*
X169822761Y-66492380D01*
%TO.C,C6*%
X175601333Y-66397142D02*
X175553714Y-66444761D01*
X175410857Y-66492380D01*
X175315619Y-66492380D01*
X175172761Y-66444761D01*
X175077523Y-66349523D01*
X175029904Y-66254285D01*
X174982285Y-66063809D01*
X174982285Y-65920952D01*
X175029904Y-65730476D01*
X175077523Y-65635238D01*
X175172761Y-65540000D01*
X175315619Y-65492380D01*
X175410857Y-65492380D01*
X175553714Y-65540000D01*
X175601333Y-65587619D01*
X176458476Y-65492380D02*
X176268000Y-65492380D01*
X176172761Y-65540000D01*
X176125142Y-65587619D01*
X176029904Y-65730476D01*
X175982285Y-65920952D01*
X175982285Y-66301904D01*
X176029904Y-66397142D01*
X176077523Y-66444761D01*
X176172761Y-66492380D01*
X176363238Y-66492380D01*
X176458476Y-66444761D01*
X176506095Y-66397142D01*
X176553714Y-66301904D01*
X176553714Y-66063809D01*
X176506095Y-65968571D01*
X176458476Y-65920952D01*
X176363238Y-65873333D01*
X176172761Y-65873333D01*
X176077523Y-65920952D01*
X176029904Y-65968571D01*
X175982285Y-66063809D01*
%TO.C,C5*%
X178395333Y-66397142D02*
X178347714Y-66444761D01*
X178204857Y-66492380D01*
X178109619Y-66492380D01*
X177966761Y-66444761D01*
X177871523Y-66349523D01*
X177823904Y-66254285D01*
X177776285Y-66063809D01*
X177776285Y-65920952D01*
X177823904Y-65730476D01*
X177871523Y-65635238D01*
X177966761Y-65540000D01*
X178109619Y-65492380D01*
X178204857Y-65492380D01*
X178347714Y-65540000D01*
X178395333Y-65587619D01*
X179300095Y-65492380D02*
X178823904Y-65492380D01*
X178776285Y-65968571D01*
X178823904Y-65920952D01*
X178919142Y-65873333D01*
X179157238Y-65873333D01*
X179252476Y-65920952D01*
X179300095Y-65968571D01*
X179347714Y-66063809D01*
X179347714Y-66301904D01*
X179300095Y-66397142D01*
X179252476Y-66444761D01*
X179157238Y-66492380D01*
X178919142Y-66492380D01*
X178823904Y-66444761D01*
X178776285Y-66397142D01*
%TO.C,C2*%
X176617333Y-85447142D02*
X176569714Y-85494761D01*
X176426857Y-85542380D01*
X176331619Y-85542380D01*
X176188761Y-85494761D01*
X176093523Y-85399523D01*
X176045904Y-85304285D01*
X175998285Y-85113809D01*
X175998285Y-84970952D01*
X176045904Y-84780476D01*
X176093523Y-84685238D01*
X176188761Y-84590000D01*
X176331619Y-84542380D01*
X176426857Y-84542380D01*
X176569714Y-84590000D01*
X176617333Y-84637619D01*
X176998285Y-84637619D02*
X177045904Y-84590000D01*
X177141142Y-84542380D01*
X177379238Y-84542380D01*
X177474476Y-84590000D01*
X177522095Y-84637619D01*
X177569714Y-84732857D01*
X177569714Y-84828095D01*
X177522095Y-84970952D01*
X176950666Y-85542380D01*
X177569714Y-85542380D01*
%TO.C,U1*%
X181570380Y-46989904D02*
X182379904Y-46989904D01*
X182475142Y-46942285D01*
X182522761Y-46894666D01*
X182570380Y-46799428D01*
X182570380Y-46608952D01*
X182522761Y-46513714D01*
X182475142Y-46466095D01*
X182379904Y-46418476D01*
X181570380Y-46418476D01*
X182570380Y-45418476D02*
X182570380Y-45989904D01*
X182570380Y-45704190D02*
X181570380Y-45704190D01*
X181713238Y-45799428D01*
X181808476Y-45894666D01*
X181856095Y-45989904D01*
%TO.C,C4*%
X170775333Y-51157142D02*
X170727714Y-51204761D01*
X170584857Y-51252380D01*
X170489619Y-51252380D01*
X170346761Y-51204761D01*
X170251523Y-51109523D01*
X170203904Y-51014285D01*
X170156285Y-50823809D01*
X170156285Y-50680952D01*
X170203904Y-50490476D01*
X170251523Y-50395238D01*
X170346761Y-50300000D01*
X170489619Y-50252380D01*
X170584857Y-50252380D01*
X170727714Y-50300000D01*
X170775333Y-50347619D01*
X171632476Y-50585714D02*
X171632476Y-51252380D01*
X171394380Y-50204761D02*
X171156285Y-50919047D01*
X171775333Y-50919047D01*
%TO.C,C3*%
X170775333Y-49125142D02*
X170727714Y-49172761D01*
X170584857Y-49220380D01*
X170489619Y-49220380D01*
X170346761Y-49172761D01*
X170251523Y-49077523D01*
X170203904Y-48982285D01*
X170156285Y-48791809D01*
X170156285Y-48648952D01*
X170203904Y-48458476D01*
X170251523Y-48363238D01*
X170346761Y-48268000D01*
X170489619Y-48220380D01*
X170584857Y-48220380D01*
X170727714Y-48268000D01*
X170775333Y-48315619D01*
X171108666Y-48220380D02*
X171727714Y-48220380D01*
X171394380Y-48601333D01*
X171537238Y-48601333D01*
X171632476Y-48648952D01*
X171680095Y-48696571D01*
X171727714Y-48791809D01*
X171727714Y-49029904D01*
X171680095Y-49125142D01*
X171632476Y-49172761D01*
X171537238Y-49220380D01*
X171251523Y-49220380D01*
X171156285Y-49172761D01*
X171108666Y-49125142D01*
%TO.C,C1*%
X170775333Y-47093142D02*
X170727714Y-47140761D01*
X170584857Y-47188380D01*
X170489619Y-47188380D01*
X170346761Y-47140761D01*
X170251523Y-47045523D01*
X170203904Y-46950285D01*
X170156285Y-46759809D01*
X170156285Y-46616952D01*
X170203904Y-46426476D01*
X170251523Y-46331238D01*
X170346761Y-46236000D01*
X170489619Y-46188380D01*
X170584857Y-46188380D01*
X170727714Y-46236000D01*
X170775333Y-46283619D01*
X171727714Y-47188380D02*
X171156285Y-47188380D01*
X171442000Y-47188380D02*
X171442000Y-46188380D01*
X171346761Y-46331238D01*
X171251523Y-46426476D01*
X171156285Y-46474095D01*
%TO.C,U2*%
X178730380Y-79501904D02*
X179539904Y-79501904D01*
X179635142Y-79454285D01*
X179682761Y-79406666D01*
X179730380Y-79311428D01*
X179730380Y-79120952D01*
X179682761Y-79025714D01*
X179635142Y-78978095D01*
X179539904Y-78930476D01*
X178730380Y-78930476D01*
X178825619Y-78501904D02*
X178778000Y-78454285D01*
X178730380Y-78359047D01*
X178730380Y-78120952D01*
X178778000Y-78025714D01*
X178825619Y-77978095D01*
X178920857Y-77930476D01*
X179016095Y-77930476D01*
X179158952Y-77978095D01*
X179730380Y-78549523D01*
X179730380Y-77930476D01*
%TO.C,R7*%
X157678380Y-49442666D02*
X157202190Y-49776000D01*
X157678380Y-50014095D02*
X156678380Y-50014095D01*
X156678380Y-49633142D01*
X156726000Y-49537904D01*
X156773619Y-49490285D01*
X156868857Y-49442666D01*
X157011714Y-49442666D01*
X157106952Y-49490285D01*
X157154571Y-49537904D01*
X157202190Y-49633142D01*
X157202190Y-50014095D01*
X156678380Y-49109333D02*
X156678380Y-48442666D01*
X157678380Y-48871238D01*
%TO.C,R6*%
X162758380Y-49188666D02*
X162282190Y-49522000D01*
X162758380Y-49760095D02*
X161758380Y-49760095D01*
X161758380Y-49379142D01*
X161806000Y-49283904D01*
X161853619Y-49236285D01*
X161948857Y-49188666D01*
X162091714Y-49188666D01*
X162186952Y-49236285D01*
X162234571Y-49283904D01*
X162282190Y-49379142D01*
X162282190Y-49760095D01*
X161758380Y-48331523D02*
X161758380Y-48522000D01*
X161806000Y-48617238D01*
X161853619Y-48664857D01*
X161996476Y-48760095D01*
X162186952Y-48807714D01*
X162567904Y-48807714D01*
X162663142Y-48760095D01*
X162710761Y-48712476D01*
X162758380Y-48617238D01*
X162758380Y-48426761D01*
X162710761Y-48331523D01*
X162663142Y-48283904D01*
X162567904Y-48236285D01*
X162329809Y-48236285D01*
X162234571Y-48283904D01*
X162186952Y-48331523D01*
X162139333Y-48426761D01*
X162139333Y-48617238D01*
X162186952Y-48712476D01*
X162234571Y-48760095D01*
X162329809Y-48807714D01*
%TO.C,R5*%
X168092380Y-65698666D02*
X167616190Y-66032000D01*
X168092380Y-66270095D02*
X167092380Y-66270095D01*
X167092380Y-65889142D01*
X167140000Y-65793904D01*
X167187619Y-65746285D01*
X167282857Y-65698666D01*
X167425714Y-65698666D01*
X167520952Y-65746285D01*
X167568571Y-65793904D01*
X167616190Y-65889142D01*
X167616190Y-66270095D01*
X167092380Y-64793904D02*
X167092380Y-65270095D01*
X167568571Y-65317714D01*
X167520952Y-65270095D01*
X167473333Y-65174857D01*
X167473333Y-64936761D01*
X167520952Y-64841523D01*
X167568571Y-64793904D01*
X167663809Y-64746285D01*
X167901904Y-64746285D01*
X167997142Y-64793904D01*
X168044761Y-64841523D01*
X168092380Y-64936761D01*
X168092380Y-65174857D01*
X168044761Y-65270095D01*
X167997142Y-65317714D01*
%TO.C,R4*%
X167727333Y-60650380D02*
X167394000Y-60174190D01*
X167155904Y-60650380D02*
X167155904Y-59650380D01*
X167536857Y-59650380D01*
X167632095Y-59698000D01*
X167679714Y-59745619D01*
X167727333Y-59840857D01*
X167727333Y-59983714D01*
X167679714Y-60078952D01*
X167632095Y-60126571D01*
X167536857Y-60174190D01*
X167155904Y-60174190D01*
X168584476Y-59983714D02*
X168584476Y-60650380D01*
X168346380Y-59602761D02*
X168108285Y-60317047D01*
X168727333Y-60317047D01*
%TO.C,J5*%
D17*
X157654010Y-97749302D02*
X157654010Y-98464994D01*
X157606297Y-98608133D01*
X157510871Y-98703558D01*
X157367733Y-98751271D01*
X157272307Y-98751271D01*
X158608266Y-97749302D02*
X158131138Y-97749302D01*
X158083425Y-98226430D01*
X158131138Y-98178717D01*
X158226564Y-98131005D01*
X158465128Y-98131005D01*
X158560553Y-98178717D01*
X158608266Y-98226430D01*
X158655979Y-98321856D01*
X158655979Y-98560420D01*
X158608266Y-98655846D01*
X158560553Y-98703558D01*
X158465128Y-98751271D01*
X158226564Y-98751271D01*
X158131138Y-98703558D01*
X158083425Y-98655846D01*
%TO.C,J4*%
X172894010Y-97749302D02*
X172894010Y-98464994D01*
X172846297Y-98608133D01*
X172750871Y-98703558D01*
X172607733Y-98751271D01*
X172512307Y-98751271D01*
X173800553Y-98083292D02*
X173800553Y-98751271D01*
X173561989Y-97701589D02*
X173323425Y-98417282D01*
X173943692Y-98417282D01*
%TO.C,J3*%
D11*
X160956666Y-37552380D02*
X160956666Y-38266666D01*
X160909047Y-38409523D01*
X160813809Y-38504761D01*
X160670952Y-38552380D01*
X160575714Y-38552380D01*
X161337619Y-37552380D02*
X161956666Y-37552380D01*
X161623333Y-37933333D01*
X161766190Y-37933333D01*
X161861428Y-37980952D01*
X161909047Y-38028571D01*
X161956666Y-38123809D01*
X161956666Y-38361904D01*
X161909047Y-38457142D01*
X161861428Y-38504761D01*
X161766190Y-38552380D01*
X161480476Y-38552380D01*
X161385238Y-38504761D01*
X161337619Y-38457142D01*
%TO.C,C9*%
X172854687Y-57520389D02*
X172854687Y-57587732D01*
X172787343Y-57722419D01*
X172720000Y-57789763D01*
X172585312Y-57857106D01*
X172450625Y-57857106D01*
X172349610Y-57823435D01*
X172181251Y-57722419D01*
X172080236Y-57621404D01*
X171979221Y-57453045D01*
X171945549Y-57352030D01*
X171945549Y-57217343D01*
X172012893Y-57082656D01*
X172080236Y-57015312D01*
X172214923Y-56947969D01*
X172282267Y-56947969D01*
X173258748Y-57251015D02*
X173393435Y-57116328D01*
X173427106Y-57015312D01*
X173427106Y-56947969D01*
X173393435Y-56779610D01*
X173292419Y-56611251D01*
X173023045Y-56341877D01*
X172922030Y-56308206D01*
X172854687Y-56308206D01*
X172753671Y-56341877D01*
X172618984Y-56476564D01*
X172585312Y-56577580D01*
X172585312Y-56644923D01*
X172618984Y-56745938D01*
X172787343Y-56914297D01*
X172888358Y-56947969D01*
X172955702Y-56947969D01*
X173056717Y-56914297D01*
X173191404Y-56779610D01*
X173225076Y-56678595D01*
X173225076Y-56611251D01*
X173191404Y-56510236D01*
%TO.C,C8*%
X166250687Y-49646389D02*
X166250687Y-49713732D01*
X166183343Y-49848419D01*
X166116000Y-49915763D01*
X165981312Y-49983106D01*
X165846625Y-49983106D01*
X165745610Y-49949435D01*
X165577251Y-49848419D01*
X165476236Y-49747404D01*
X165375221Y-49579045D01*
X165341549Y-49478030D01*
X165341549Y-49343343D01*
X165408893Y-49208656D01*
X165476236Y-49141312D01*
X165610923Y-49073969D01*
X165678267Y-49073969D01*
X166318030Y-48905610D02*
X166217015Y-48939282D01*
X166149671Y-48939282D01*
X166048656Y-48905610D01*
X166014984Y-48871938D01*
X165981312Y-48770923D01*
X165981312Y-48703580D01*
X166014984Y-48602564D01*
X166149671Y-48467877D01*
X166250687Y-48434206D01*
X166318030Y-48434206D01*
X166419045Y-48467877D01*
X166452717Y-48501549D01*
X166486389Y-48602564D01*
X166486389Y-48669908D01*
X166452717Y-48770923D01*
X166318030Y-48905610D01*
X166284358Y-49006625D01*
X166284358Y-49073969D01*
X166318030Y-49174984D01*
X166452717Y-49309671D01*
X166553732Y-49343343D01*
X166621076Y-49343343D01*
X166722091Y-49309671D01*
X166856778Y-49174984D01*
X166890450Y-49073969D01*
X166890450Y-49006625D01*
X166856778Y-48905610D01*
X166722091Y-48770923D01*
X166621076Y-48737251D01*
X166553732Y-48737251D01*
X166452717Y-48770923D01*
%TD*%
M02*
