%TF.GenerationSoftware,KiCad,Pcbnew,(5.1.9-16-g1737927814)-1*%
%TF.CreationDate,2021-08-21T22:04:47-05:00*%
%TF.ProjectId,adbuino,61646275-696e-46f2-9e6b-696361645f70,rev?*%
%TF.SameCoordinates,Original*%
%TF.FileFunction,Legend,Bot*%
%TF.FilePolarity,Positive*%
%FSLAX46Y46*%
G04 Gerber Fmt 4.6, Leading zero omitted, Abs format (unit mm)*
G04 Created by KiCad (PCBNEW (5.1.9-16-g1737927814)-1) date 2021-08-21 22:04:47*
%MOMM*%
%LPD*%
G01*
G04 APERTURE LIST*
%ADD10C,0.100000*%
%ADD11C,0.120000*%
%ADD12C,0.150000*%
G04 APERTURE END LIST*
D10*
X42642666Y-70549333D02*
X42409333Y-70882666D01*
X42242666Y-70549333D02*
X42242666Y-71249333D01*
X42509333Y-71249333D01*
X42576000Y-71216000D01*
X42609333Y-71182666D01*
X42642666Y-71116000D01*
X42642666Y-71016000D01*
X42609333Y-70949333D01*
X42576000Y-70916000D01*
X42509333Y-70882666D01*
X42242666Y-70882666D01*
X42876000Y-71249333D02*
X43342666Y-70549333D01*
X43342666Y-71249333D02*
X42876000Y-70549333D01*
X43609333Y-70549333D02*
X43609333Y-71249333D01*
X34772666Y-71216000D02*
X34706000Y-71249333D01*
X34606000Y-71249333D01*
X34506000Y-71216000D01*
X34439333Y-71149333D01*
X34406000Y-71082666D01*
X34372666Y-70949333D01*
X34372666Y-70849333D01*
X34406000Y-70716000D01*
X34439333Y-70649333D01*
X34506000Y-70582666D01*
X34606000Y-70549333D01*
X34672666Y-70549333D01*
X34772666Y-70582666D01*
X34806000Y-70616000D01*
X34806000Y-70849333D01*
X34672666Y-70849333D01*
X35106000Y-70549333D02*
X35106000Y-71249333D01*
X35506000Y-70549333D01*
X35506000Y-71249333D01*
X35839333Y-70549333D02*
X35839333Y-71249333D01*
X36006000Y-71249333D01*
X36106000Y-71216000D01*
X36172666Y-71149333D01*
X36206000Y-71082666D01*
X36239333Y-70949333D01*
X36239333Y-70849333D01*
X36206000Y-70716000D01*
X36172666Y-70649333D01*
X36106000Y-70582666D01*
X36006000Y-70549333D01*
X35839333Y-70549333D01*
X37296000Y-70549333D02*
X37296000Y-71249333D01*
X37696000Y-70549333D01*
X37696000Y-71249333D01*
X38429333Y-70616000D02*
X38396000Y-70582666D01*
X38296000Y-70549333D01*
X38229333Y-70549333D01*
X38129333Y-70582666D01*
X38062666Y-70649333D01*
X38029333Y-70716000D01*
X37996000Y-70849333D01*
X37996000Y-70949333D01*
X38029333Y-71082666D01*
X38062666Y-71149333D01*
X38129333Y-71216000D01*
X38229333Y-71249333D01*
X38296000Y-71249333D01*
X38396000Y-71216000D01*
X38429333Y-71182666D01*
X39452666Y-70549333D02*
X39452666Y-71249333D01*
X39719333Y-71249333D01*
X39786000Y-71216000D01*
X39819333Y-71182666D01*
X39852666Y-71116000D01*
X39852666Y-71016000D01*
X39819333Y-70949333D01*
X39786000Y-70916000D01*
X39719333Y-70882666D01*
X39452666Y-70882666D01*
X40086000Y-71249333D02*
X40252666Y-70549333D01*
X40386000Y-71049333D01*
X40519333Y-70549333D01*
X40686000Y-71249333D01*
X41352666Y-70549333D02*
X41119333Y-70882666D01*
X40952666Y-70549333D02*
X40952666Y-71249333D01*
X41219333Y-71249333D01*
X41286000Y-71216000D01*
X41319333Y-71182666D01*
X41352666Y-71116000D01*
X41352666Y-71016000D01*
X41319333Y-70949333D01*
X41286000Y-70916000D01*
X41219333Y-70882666D01*
X40952666Y-70882666D01*
X47206000Y-70549333D02*
X47206000Y-71249333D01*
X47372666Y-71249333D01*
X47472666Y-71216000D01*
X47539333Y-71149333D01*
X47572666Y-71082666D01*
X47606000Y-70949333D01*
X47606000Y-70849333D01*
X47572666Y-70716000D01*
X47539333Y-70649333D01*
X47472666Y-70582666D01*
X47372666Y-70549333D01*
X47206000Y-70549333D01*
X47806000Y-71249333D02*
X48206000Y-71249333D01*
X48006000Y-70549333D02*
X48006000Y-71249333D01*
X48839333Y-70549333D02*
X48606000Y-70882666D01*
X48439333Y-70549333D02*
X48439333Y-71249333D01*
X48706000Y-71249333D01*
X48772666Y-71216000D01*
X48806000Y-71182666D01*
X48839333Y-71116000D01*
X48839333Y-71016000D01*
X48806000Y-70949333D01*
X48772666Y-70916000D01*
X48706000Y-70882666D01*
X48439333Y-70882666D01*
X44566000Y-71249333D02*
X44966000Y-71249333D01*
X44766000Y-70549333D02*
X44766000Y-71249333D01*
X45132666Y-71249333D02*
X45599333Y-70549333D01*
X45599333Y-71249333D02*
X45132666Y-70549333D01*
X45999333Y-71249333D02*
X46132666Y-71249333D01*
X46199333Y-71216000D01*
X46266000Y-71149333D01*
X46299333Y-71016000D01*
X46299333Y-70782666D01*
X46266000Y-70649333D01*
X46199333Y-70582666D01*
X46132666Y-70549333D01*
X45999333Y-70549333D01*
X45932666Y-70582666D01*
X45866000Y-70649333D01*
X45832666Y-70782666D01*
X45832666Y-71016000D01*
X45866000Y-71149333D01*
X45932666Y-71216000D01*
X45999333Y-71249333D01*
X31625333Y-68905333D02*
X31625333Y-68472000D01*
X31358666Y-68705333D01*
X31358666Y-68605333D01*
X31325333Y-68538666D01*
X31292000Y-68505333D01*
X31225333Y-68472000D01*
X31058666Y-68472000D01*
X30992000Y-68505333D01*
X30958666Y-68538666D01*
X30925333Y-68605333D01*
X30925333Y-68805333D01*
X30958666Y-68872000D01*
X30992000Y-68905333D01*
X31392000Y-68238666D02*
X30925333Y-68072000D01*
X31392000Y-67905333D01*
X31625333Y-67705333D02*
X31625333Y-67272000D01*
X31358666Y-67505333D01*
X31358666Y-67405333D01*
X31325333Y-67338666D01*
X31292000Y-67305333D01*
X31225333Y-67272000D01*
X31058666Y-67272000D01*
X30992000Y-67305333D01*
X30958666Y-67338666D01*
X30925333Y-67405333D01*
X30925333Y-67605333D01*
X30958666Y-67672000D01*
X30992000Y-67705333D01*
X25970666Y-66972000D02*
X25270666Y-66972000D01*
X25770666Y-67205333D01*
X25270666Y-67438666D01*
X25970666Y-67438666D01*
X25970666Y-67772000D02*
X25270666Y-67772000D01*
X25937333Y-68072000D02*
X25970666Y-68172000D01*
X25970666Y-68338666D01*
X25937333Y-68405333D01*
X25904000Y-68438666D01*
X25837333Y-68472000D01*
X25770666Y-68472000D01*
X25704000Y-68438666D01*
X25670666Y-68405333D01*
X25637333Y-68338666D01*
X25604000Y-68205333D01*
X25570666Y-68138666D01*
X25537333Y-68105333D01*
X25470666Y-68072000D01*
X25404000Y-68072000D01*
X25337333Y-68105333D01*
X25304000Y-68138666D01*
X25270666Y-68205333D01*
X25270666Y-68372000D01*
X25304000Y-68472000D01*
X25270666Y-68905333D02*
X25270666Y-69038666D01*
X25304000Y-69105333D01*
X25370666Y-69172000D01*
X25504000Y-69205333D01*
X25737333Y-69205333D01*
X25870666Y-69172000D01*
X25937333Y-69105333D01*
X25970666Y-69038666D01*
X25970666Y-68905333D01*
X25937333Y-68838666D01*
X25870666Y-68772000D01*
X25737333Y-68738666D01*
X25504000Y-68738666D01*
X25370666Y-68772000D01*
X25304000Y-68838666D01*
X25270666Y-68905333D01*
X30925333Y-71966000D02*
X31625333Y-71966000D01*
X31125333Y-71732666D01*
X31625333Y-71499333D01*
X30925333Y-71499333D01*
X31625333Y-71032666D02*
X31625333Y-70899333D01*
X31592000Y-70832666D01*
X31525333Y-70766000D01*
X31392000Y-70732666D01*
X31158666Y-70732666D01*
X31025333Y-70766000D01*
X30958666Y-70832666D01*
X30925333Y-70899333D01*
X30925333Y-71032666D01*
X30958666Y-71099333D01*
X31025333Y-71166000D01*
X31158666Y-71199333D01*
X31392000Y-71199333D01*
X31525333Y-71166000D01*
X31592000Y-71099333D01*
X31625333Y-71032666D01*
X30958666Y-70466000D02*
X30925333Y-70366000D01*
X30925333Y-70199333D01*
X30958666Y-70132666D01*
X30992000Y-70099333D01*
X31058666Y-70066000D01*
X31125333Y-70066000D01*
X31192000Y-70099333D01*
X31225333Y-70132666D01*
X31258666Y-70199333D01*
X31292000Y-70332666D01*
X31325333Y-70399333D01*
X31358666Y-70432666D01*
X31425333Y-70466000D01*
X31492000Y-70466000D01*
X31558666Y-70432666D01*
X31592000Y-70399333D01*
X31625333Y-70332666D01*
X31625333Y-70166000D01*
X31592000Y-70066000D01*
X30925333Y-69766000D02*
X31625333Y-69766000D01*
X25404000Y-71028666D02*
X25370666Y-71062000D01*
X25337333Y-71162000D01*
X25337333Y-71228666D01*
X25370666Y-71328666D01*
X25437333Y-71395333D01*
X25504000Y-71428666D01*
X25637333Y-71462000D01*
X25737333Y-71462000D01*
X25870666Y-71428666D01*
X25937333Y-71395333D01*
X26004000Y-71328666D01*
X26037333Y-71228666D01*
X26037333Y-71162000D01*
X26004000Y-71062000D01*
X25970666Y-71028666D01*
X25337333Y-70395333D02*
X25337333Y-70728666D01*
X26037333Y-70728666D01*
X25337333Y-70162000D02*
X26037333Y-70162000D01*
X25337333Y-69762000D02*
X25737333Y-70062000D01*
X26037333Y-69762000D02*
X25637333Y-70162000D01*
X25337333Y-73535333D02*
X25670666Y-73768666D01*
X25337333Y-73935333D02*
X26037333Y-73935333D01*
X26037333Y-73668666D01*
X26004000Y-73602000D01*
X25970666Y-73568666D01*
X25904000Y-73535333D01*
X25804000Y-73535333D01*
X25737333Y-73568666D01*
X25704000Y-73602000D01*
X25670666Y-73668666D01*
X25670666Y-73935333D01*
X25370666Y-73268666D02*
X25337333Y-73168666D01*
X25337333Y-73002000D01*
X25370666Y-72935333D01*
X25404000Y-72902000D01*
X25470666Y-72868666D01*
X25537333Y-72868666D01*
X25604000Y-72902000D01*
X25637333Y-72935333D01*
X25670666Y-73002000D01*
X25704000Y-73135333D01*
X25737333Y-73202000D01*
X25770666Y-73235333D01*
X25837333Y-73268666D01*
X25904000Y-73268666D01*
X25970666Y-73235333D01*
X26004000Y-73202000D01*
X26037333Y-73135333D01*
X26037333Y-72968666D01*
X26004000Y-72868666D01*
X26037333Y-72668666D02*
X26037333Y-72268666D01*
X25337333Y-72468666D02*
X26037333Y-72468666D01*
X31592000Y-73939333D02*
X31625333Y-74006000D01*
X31625333Y-74106000D01*
X31592000Y-74206000D01*
X31525333Y-74272666D01*
X31458666Y-74306000D01*
X31325333Y-74339333D01*
X31225333Y-74339333D01*
X31092000Y-74306000D01*
X31025333Y-74272666D01*
X30958666Y-74206000D01*
X30925333Y-74106000D01*
X30925333Y-74039333D01*
X30958666Y-73939333D01*
X30992000Y-73906000D01*
X31225333Y-73906000D01*
X31225333Y-74039333D01*
X30925333Y-73606000D02*
X31625333Y-73606000D01*
X30925333Y-73206000D01*
X31625333Y-73206000D01*
X30925333Y-72872666D02*
X31625333Y-72872666D01*
X31625333Y-72706000D01*
X31592000Y-72606000D01*
X31525333Y-72539333D01*
X31458666Y-72506000D01*
X31325333Y-72472666D01*
X31225333Y-72472666D01*
X31092000Y-72506000D01*
X31025333Y-72539333D01*
X30958666Y-72606000D01*
X30925333Y-72706000D01*
X30925333Y-72872666D01*
D11*
X31242000Y-36322000D02*
X44450000Y-36322000D01*
X31242000Y-30226000D02*
X31242000Y-36322000D01*
X44450000Y-30226000D02*
X31242000Y-30226000D01*
X44450000Y-36322000D02*
X44450000Y-30226000D01*
X44196000Y-30480000D02*
X44196000Y-36068000D01*
X31496000Y-30480000D02*
X44196000Y-30480000D01*
X31496000Y-36068000D02*
X31496000Y-30480000D01*
X44196000Y-36068000D02*
X31496000Y-36068000D01*
D12*
X40679333Y-31790666D02*
X40203142Y-31790666D01*
X40774571Y-32076380D02*
X40441238Y-31076380D01*
X40107904Y-32076380D01*
X39774571Y-32076380D02*
X39774571Y-31076380D01*
X39536476Y-31076380D01*
X39393619Y-31124000D01*
X39298380Y-31219238D01*
X39250761Y-31314476D01*
X39203142Y-31504952D01*
X39203142Y-31647809D01*
X39250761Y-31838285D01*
X39298380Y-31933523D01*
X39393619Y-32028761D01*
X39536476Y-32076380D01*
X39774571Y-32076380D01*
X38441238Y-31552571D02*
X38298380Y-31600190D01*
X38250761Y-31647809D01*
X38203142Y-31743047D01*
X38203142Y-31885904D01*
X38250761Y-31981142D01*
X38298380Y-32028761D01*
X38393619Y-32076380D01*
X38774571Y-32076380D01*
X38774571Y-31076380D01*
X38441238Y-31076380D01*
X38346000Y-31124000D01*
X38298380Y-31171619D01*
X38250761Y-31266857D01*
X38250761Y-31362095D01*
X38298380Y-31457333D01*
X38346000Y-31504952D01*
X38441238Y-31552571D01*
X38774571Y-31552571D01*
X37346000Y-31409714D02*
X37346000Y-32076380D01*
X37774571Y-31409714D02*
X37774571Y-31933523D01*
X37726952Y-32028761D01*
X37631714Y-32076380D01*
X37488857Y-32076380D01*
X37393619Y-32028761D01*
X37346000Y-31981142D01*
X36869809Y-32076380D02*
X36869809Y-31409714D01*
X36869809Y-31076380D02*
X36917428Y-31124000D01*
X36869809Y-31171619D01*
X36822190Y-31124000D01*
X36869809Y-31076380D01*
X36869809Y-31171619D01*
X36393619Y-31409714D02*
X36393619Y-32076380D01*
X36393619Y-31504952D02*
X36346000Y-31457333D01*
X36250761Y-31409714D01*
X36107904Y-31409714D01*
X36012666Y-31457333D01*
X35965047Y-31552571D01*
X35965047Y-32076380D01*
X35346000Y-32076380D02*
X35441238Y-32028761D01*
X35488857Y-31981142D01*
X35536476Y-31885904D01*
X35536476Y-31600190D01*
X35488857Y-31504952D01*
X35441238Y-31457333D01*
X35346000Y-31409714D01*
X35203142Y-31409714D01*
X35107904Y-31457333D01*
X35060285Y-31504952D01*
X35012666Y-31600190D01*
X35012666Y-31885904D01*
X35060285Y-31981142D01*
X35107904Y-32028761D01*
X35203142Y-32076380D01*
X35346000Y-32076380D01*
X39274571Y-33059714D02*
X39036476Y-33726380D01*
X38798380Y-33059714D01*
X37893619Y-33726380D02*
X38465047Y-33726380D01*
X38179333Y-33726380D02*
X38179333Y-32726380D01*
X38274571Y-32869238D01*
X38369809Y-32964476D01*
X38465047Y-33012095D01*
X37465047Y-33631142D02*
X37417428Y-33678761D01*
X37465047Y-33726380D01*
X37512666Y-33678761D01*
X37465047Y-33631142D01*
X37465047Y-33726380D01*
X36798380Y-32726380D02*
X36703142Y-32726380D01*
X36607904Y-32774000D01*
X36560285Y-32821619D01*
X36512666Y-32916857D01*
X36465047Y-33107333D01*
X36465047Y-33345428D01*
X36512666Y-33535904D01*
X36560285Y-33631142D01*
X36607904Y-33678761D01*
X36703142Y-33726380D01*
X36798380Y-33726380D01*
X36893619Y-33678761D01*
X36941238Y-33631142D01*
X36988857Y-33535904D01*
X37036476Y-33345428D01*
X37036476Y-33107333D01*
X36988857Y-32916857D01*
X36941238Y-32821619D01*
X36893619Y-32774000D01*
X36798380Y-32726380D01*
X43846000Y-35376380D02*
X43846000Y-34376380D01*
X43465047Y-34376380D01*
X43369809Y-34424000D01*
X43322190Y-34471619D01*
X43274571Y-34566857D01*
X43274571Y-34709714D01*
X43322190Y-34804952D01*
X43369809Y-34852571D01*
X43465047Y-34900190D01*
X43846000Y-34900190D01*
X42703142Y-35376380D02*
X42798380Y-35328761D01*
X42846000Y-35281142D01*
X42893619Y-35185904D01*
X42893619Y-34900190D01*
X42846000Y-34804952D01*
X42798380Y-34757333D01*
X42703142Y-34709714D01*
X42560285Y-34709714D01*
X42465047Y-34757333D01*
X42417428Y-34804952D01*
X42369809Y-34900190D01*
X42369809Y-35185904D01*
X42417428Y-35281142D01*
X42465047Y-35328761D01*
X42560285Y-35376380D01*
X42703142Y-35376380D01*
X41512666Y-34709714D02*
X41512666Y-35519238D01*
X41560285Y-35614476D01*
X41607904Y-35662095D01*
X41703142Y-35709714D01*
X41846000Y-35709714D01*
X41941238Y-35662095D01*
X41512666Y-35328761D02*
X41607904Y-35376380D01*
X41798380Y-35376380D01*
X41893619Y-35328761D01*
X41941238Y-35281142D01*
X41988857Y-35185904D01*
X41988857Y-34900190D01*
X41941238Y-34804952D01*
X41893619Y-34757333D01*
X41798380Y-34709714D01*
X41607904Y-34709714D01*
X41512666Y-34757333D01*
X40893619Y-35376380D02*
X40988857Y-35328761D01*
X41036476Y-35281142D01*
X41084095Y-35185904D01*
X41084095Y-34900190D01*
X41036476Y-34804952D01*
X40988857Y-34757333D01*
X40893619Y-34709714D01*
X40750761Y-34709714D01*
X40655523Y-34757333D01*
X40607904Y-34804952D01*
X40560285Y-34900190D01*
X40560285Y-35185904D01*
X40607904Y-35281142D01*
X40655523Y-35328761D01*
X40750761Y-35376380D01*
X40893619Y-35376380D01*
X39369809Y-35376380D02*
X39369809Y-34376380D01*
X38988857Y-34376380D01*
X38893619Y-34424000D01*
X38846000Y-34471619D01*
X38798380Y-34566857D01*
X38798380Y-34709714D01*
X38846000Y-34804952D01*
X38893619Y-34852571D01*
X38988857Y-34900190D01*
X39369809Y-34900190D01*
X38369809Y-35376380D02*
X38369809Y-34709714D01*
X38369809Y-34376380D02*
X38417428Y-34424000D01*
X38369809Y-34471619D01*
X38322190Y-34424000D01*
X38369809Y-34376380D01*
X38369809Y-34471619D01*
X37893619Y-34709714D02*
X37893619Y-35376380D01*
X37893619Y-34804952D02*
X37846000Y-34757333D01*
X37750761Y-34709714D01*
X37607904Y-34709714D01*
X37512666Y-34757333D01*
X37465047Y-34852571D01*
X37465047Y-35376380D01*
X36226952Y-35376380D02*
X36226952Y-34376380D01*
X36226952Y-34852571D02*
X35655523Y-34852571D01*
X35655523Y-35376380D02*
X35655523Y-34376380D01*
X35036476Y-35376380D02*
X35131714Y-35328761D01*
X35179333Y-35281142D01*
X35226952Y-35185904D01*
X35226952Y-34900190D01*
X35179333Y-34804952D01*
X35131714Y-34757333D01*
X35036476Y-34709714D01*
X34893619Y-34709714D01*
X34798380Y-34757333D01*
X34750761Y-34804952D01*
X34703142Y-34900190D01*
X34703142Y-35185904D01*
X34750761Y-35281142D01*
X34798380Y-35328761D01*
X34893619Y-35376380D01*
X35036476Y-35376380D01*
X34131714Y-35376380D02*
X34226952Y-35328761D01*
X34274571Y-35233523D01*
X34274571Y-34376380D01*
X33322190Y-35376380D02*
X33322190Y-34376380D01*
X33322190Y-35328761D02*
X33417428Y-35376380D01*
X33607904Y-35376380D01*
X33703142Y-35328761D01*
X33750761Y-35281142D01*
X33798380Y-35185904D01*
X33798380Y-34900190D01*
X33750761Y-34804952D01*
X33703142Y-34757333D01*
X33607904Y-34709714D01*
X33417428Y-34709714D01*
X33322190Y-34757333D01*
X32465047Y-35328761D02*
X32560285Y-35376380D01*
X32750761Y-35376380D01*
X32846000Y-35328761D01*
X32893619Y-35233523D01*
X32893619Y-34852571D01*
X32846000Y-34757333D01*
X32750761Y-34709714D01*
X32560285Y-34709714D01*
X32465047Y-34757333D01*
X32417428Y-34852571D01*
X32417428Y-34947809D01*
X32893619Y-35043047D01*
X31988857Y-35376380D02*
X31988857Y-34709714D01*
X31988857Y-34900190D02*
X31941238Y-34804952D01*
X31893619Y-34757333D01*
X31798380Y-34709714D01*
X31703142Y-34709714D01*
D10*
X29018666Y-49954000D02*
X28318666Y-49954000D01*
X28818666Y-50187333D01*
X28318666Y-50420666D01*
X29018666Y-50420666D01*
X29018666Y-50754000D02*
X28318666Y-50754000D01*
X28985333Y-51054000D02*
X29018666Y-51154000D01*
X29018666Y-51320666D01*
X28985333Y-51387333D01*
X28952000Y-51420666D01*
X28885333Y-51454000D01*
X28818666Y-51454000D01*
X28752000Y-51420666D01*
X28718666Y-51387333D01*
X28685333Y-51320666D01*
X28652000Y-51187333D01*
X28618666Y-51120666D01*
X28585333Y-51087333D01*
X28518666Y-51054000D01*
X28452000Y-51054000D01*
X28385333Y-51087333D01*
X28352000Y-51120666D01*
X28318666Y-51187333D01*
X28318666Y-51354000D01*
X28352000Y-51454000D01*
X28318666Y-51887333D02*
X28318666Y-52020666D01*
X28352000Y-52087333D01*
X28418666Y-52154000D01*
X28552000Y-52187333D01*
X28785333Y-52187333D01*
X28918666Y-52154000D01*
X28985333Y-52087333D01*
X29018666Y-52020666D01*
X29018666Y-51887333D01*
X28985333Y-51820666D01*
X28918666Y-51754000D01*
X28785333Y-51720666D01*
X28552000Y-51720666D01*
X28418666Y-51754000D01*
X28352000Y-51820666D01*
X28318666Y-51887333D01*
X29018666Y-55750666D02*
X28685333Y-55517333D01*
X29018666Y-55350666D02*
X28318666Y-55350666D01*
X28318666Y-55617333D01*
X28352000Y-55684000D01*
X28385333Y-55717333D01*
X28452000Y-55750666D01*
X28552000Y-55750666D01*
X28618666Y-55717333D01*
X28652000Y-55684000D01*
X28685333Y-55617333D01*
X28685333Y-55350666D01*
X28985333Y-56017333D02*
X29018666Y-56117333D01*
X29018666Y-56284000D01*
X28985333Y-56350666D01*
X28952000Y-56384000D01*
X28885333Y-56417333D01*
X28818666Y-56417333D01*
X28752000Y-56384000D01*
X28718666Y-56350666D01*
X28685333Y-56284000D01*
X28652000Y-56150666D01*
X28618666Y-56084000D01*
X28585333Y-56050666D01*
X28518666Y-56017333D01*
X28452000Y-56017333D01*
X28385333Y-56050666D01*
X28352000Y-56084000D01*
X28318666Y-56150666D01*
X28318666Y-56317333D01*
X28352000Y-56417333D01*
X28318666Y-56617333D02*
X28318666Y-57017333D01*
X29018666Y-56817333D02*
X28318666Y-56817333D01*
X35114666Y-52494000D02*
X34414666Y-52494000D01*
X34914666Y-52727333D01*
X34414666Y-52960666D01*
X35114666Y-52960666D01*
X34414666Y-53427333D02*
X34414666Y-53560666D01*
X34448000Y-53627333D01*
X34514666Y-53694000D01*
X34648000Y-53727333D01*
X34881333Y-53727333D01*
X35014666Y-53694000D01*
X35081333Y-53627333D01*
X35114666Y-53560666D01*
X35114666Y-53427333D01*
X35081333Y-53360666D01*
X35014666Y-53294000D01*
X34881333Y-53260666D01*
X34648000Y-53260666D01*
X34514666Y-53294000D01*
X34448000Y-53360666D01*
X34414666Y-53427333D01*
X35081333Y-53994000D02*
X35114666Y-54094000D01*
X35114666Y-54260666D01*
X35081333Y-54327333D01*
X35048000Y-54360666D01*
X34981333Y-54394000D01*
X34914666Y-54394000D01*
X34848000Y-54360666D01*
X34814666Y-54327333D01*
X34781333Y-54260666D01*
X34748000Y-54127333D01*
X34714666Y-54060666D01*
X34681333Y-54027333D01*
X34614666Y-53994000D01*
X34548000Y-53994000D01*
X34481333Y-54027333D01*
X34448000Y-54060666D01*
X34414666Y-54127333D01*
X34414666Y-54294000D01*
X34448000Y-54394000D01*
X35114666Y-54694000D02*
X34414666Y-54694000D01*
X34414666Y-50220666D02*
X34414666Y-50654000D01*
X34681333Y-50420666D01*
X34681333Y-50520666D01*
X34714666Y-50587333D01*
X34748000Y-50620666D01*
X34814666Y-50654000D01*
X34981333Y-50654000D01*
X35048000Y-50620666D01*
X35081333Y-50587333D01*
X35114666Y-50520666D01*
X35114666Y-50320666D01*
X35081333Y-50254000D01*
X35048000Y-50220666D01*
X34648000Y-50887333D02*
X35114666Y-51054000D01*
X34648000Y-51220666D01*
X34414666Y-51420666D02*
X34414666Y-51854000D01*
X34681333Y-51620666D01*
X34681333Y-51720666D01*
X34714666Y-51787333D01*
X34748000Y-51820666D01*
X34814666Y-51854000D01*
X34981333Y-51854000D01*
X35048000Y-51820666D01*
X35081333Y-51787333D01*
X35114666Y-51720666D01*
X35114666Y-51520666D01*
X35081333Y-51454000D01*
X35048000Y-51420666D01*
X34448000Y-55600666D02*
X34414666Y-55534000D01*
X34414666Y-55434000D01*
X34448000Y-55334000D01*
X34514666Y-55267333D01*
X34581333Y-55234000D01*
X34714666Y-55200666D01*
X34814666Y-55200666D01*
X34948000Y-55234000D01*
X35014666Y-55267333D01*
X35081333Y-55334000D01*
X35114666Y-55434000D01*
X35114666Y-55500666D01*
X35081333Y-55600666D01*
X35048000Y-55634000D01*
X34814666Y-55634000D01*
X34814666Y-55500666D01*
X35114666Y-55934000D02*
X34414666Y-55934000D01*
X35114666Y-56334000D01*
X34414666Y-56334000D01*
X35114666Y-56667333D02*
X34414666Y-56667333D01*
X34414666Y-56834000D01*
X34448000Y-56934000D01*
X34514666Y-57000666D01*
X34581333Y-57034000D01*
X34714666Y-57067333D01*
X34814666Y-57067333D01*
X34948000Y-57034000D01*
X35014666Y-57000666D01*
X35081333Y-56934000D01*
X35114666Y-56834000D01*
X35114666Y-56667333D01*
X28952000Y-53177333D02*
X28985333Y-53144000D01*
X29018666Y-53044000D01*
X29018666Y-52977333D01*
X28985333Y-52877333D01*
X28918666Y-52810666D01*
X28852000Y-52777333D01*
X28718666Y-52744000D01*
X28618666Y-52744000D01*
X28485333Y-52777333D01*
X28418666Y-52810666D01*
X28352000Y-52877333D01*
X28318666Y-52977333D01*
X28318666Y-53044000D01*
X28352000Y-53144000D01*
X28385333Y-53177333D01*
X29018666Y-53810666D02*
X29018666Y-53477333D01*
X28318666Y-53477333D01*
X29018666Y-54044000D02*
X28318666Y-54044000D01*
X29018666Y-54444000D02*
X28618666Y-54144000D01*
X28318666Y-54444000D02*
X28718666Y-54044000D01*
X46798666Y-56858000D02*
X46098666Y-56858000D01*
X46098666Y-57024666D01*
X46132000Y-57124666D01*
X46198666Y-57191333D01*
X46265333Y-57224666D01*
X46398666Y-57258000D01*
X46498666Y-57258000D01*
X46632000Y-57224666D01*
X46698666Y-57191333D01*
X46765333Y-57124666D01*
X46798666Y-57024666D01*
X46798666Y-56858000D01*
X46098666Y-57458000D02*
X46098666Y-57858000D01*
X46798666Y-57658000D02*
X46098666Y-57658000D01*
X46798666Y-58491333D02*
X46465333Y-58258000D01*
X46798666Y-58091333D02*
X46098666Y-58091333D01*
X46098666Y-58358000D01*
X46132000Y-58424666D01*
X46165333Y-58458000D01*
X46232000Y-58491333D01*
X46332000Y-58491333D01*
X46398666Y-58458000D01*
X46432000Y-58424666D01*
X46465333Y-58358000D01*
X46465333Y-58091333D01*
X46798666Y-49104666D02*
X46098666Y-49104666D01*
X46098666Y-49371333D01*
X46132000Y-49438000D01*
X46165333Y-49471333D01*
X46232000Y-49504666D01*
X46332000Y-49504666D01*
X46398666Y-49471333D01*
X46432000Y-49438000D01*
X46465333Y-49371333D01*
X46465333Y-49104666D01*
X46098666Y-49738000D02*
X46798666Y-49904666D01*
X46298666Y-50038000D01*
X46798666Y-50171333D01*
X46098666Y-50338000D01*
X46798666Y-51004666D02*
X46465333Y-50771333D01*
X46798666Y-50604666D02*
X46098666Y-50604666D01*
X46098666Y-50871333D01*
X46132000Y-50938000D01*
X46165333Y-50971333D01*
X46232000Y-51004666D01*
X46332000Y-51004666D01*
X46398666Y-50971333D01*
X46432000Y-50938000D01*
X46465333Y-50871333D01*
X46465333Y-50604666D01*
X46132000Y-44424666D02*
X46098666Y-44358000D01*
X46098666Y-44258000D01*
X46132000Y-44158000D01*
X46198666Y-44091333D01*
X46265333Y-44058000D01*
X46398666Y-44024666D01*
X46498666Y-44024666D01*
X46632000Y-44058000D01*
X46698666Y-44091333D01*
X46765333Y-44158000D01*
X46798666Y-44258000D01*
X46798666Y-44324666D01*
X46765333Y-44424666D01*
X46732000Y-44458000D01*
X46498666Y-44458000D01*
X46498666Y-44324666D01*
X46798666Y-44758000D02*
X46098666Y-44758000D01*
X46798666Y-45158000D01*
X46098666Y-45158000D01*
X46798666Y-45491333D02*
X46098666Y-45491333D01*
X46098666Y-45658000D01*
X46132000Y-45758000D01*
X46198666Y-45824666D01*
X46265333Y-45858000D01*
X46398666Y-45891333D01*
X46498666Y-45891333D01*
X46632000Y-45858000D01*
X46698666Y-45824666D01*
X46765333Y-45758000D01*
X46798666Y-45658000D01*
X46798666Y-45491333D01*
X46798666Y-46948000D02*
X46098666Y-46948000D01*
X46798666Y-47348000D01*
X46098666Y-47348000D01*
X46732000Y-48081333D02*
X46765333Y-48048000D01*
X46798666Y-47948000D01*
X46798666Y-47881333D01*
X46765333Y-47781333D01*
X46698666Y-47714666D01*
X46632000Y-47681333D01*
X46498666Y-47648000D01*
X46398666Y-47648000D01*
X46265333Y-47681333D01*
X46198666Y-47714666D01*
X46132000Y-47781333D01*
X46098666Y-47881333D01*
X46098666Y-47948000D01*
X46132000Y-48048000D01*
X46165333Y-48081333D01*
X46798666Y-52294666D02*
X46465333Y-52061333D01*
X46798666Y-51894666D02*
X46098666Y-51894666D01*
X46098666Y-52161333D01*
X46132000Y-52228000D01*
X46165333Y-52261333D01*
X46232000Y-52294666D01*
X46332000Y-52294666D01*
X46398666Y-52261333D01*
X46432000Y-52228000D01*
X46465333Y-52161333D01*
X46465333Y-51894666D01*
X46098666Y-52528000D02*
X46798666Y-52994666D01*
X46098666Y-52994666D02*
X46798666Y-52528000D01*
X46798666Y-53261333D02*
X46098666Y-53261333D01*
X46098666Y-54218000D02*
X46098666Y-54618000D01*
X46798666Y-54418000D02*
X46098666Y-54418000D01*
X46098666Y-54784666D02*
X46798666Y-55251333D01*
X46098666Y-55251333D02*
X46798666Y-54784666D01*
X46098666Y-55651333D02*
X46098666Y-55784666D01*
X46132000Y-55851333D01*
X46198666Y-55918000D01*
X46332000Y-55951333D01*
X46565333Y-55951333D01*
X46698666Y-55918000D01*
X46765333Y-55851333D01*
X46798666Y-55784666D01*
X46798666Y-55651333D01*
X46765333Y-55584666D01*
X46698666Y-55518000D01*
X46565333Y-55484666D01*
X46332000Y-55484666D01*
X46198666Y-55518000D01*
X46132000Y-55584666D01*
X46098666Y-55651333D01*
M02*
