M48
INCH,TZ
T1C0.0394
%
G90
G05
T1
X10600Y-26800
X10600Y-27800
X10600Y-28800
X11600Y-26800
X11600Y-27800
X11600Y-28800
X12000Y-20100
X12000Y-21100
X12000Y-22100
X13000Y-20100
X13000Y-21100
X13000Y-22100
X13900Y-28700
X14900Y-28700
X15900Y-28700
X16900Y-28700
X17900Y-28700
X18898Y-17717
X18898Y-18717
X18898Y-19717
X18898Y-20717
X18898Y-21717
X18898Y-22717
X18900Y-28700
T0
M30
