%TF.GenerationSoftware,KiCad,Pcbnew,(5.1.9-16-g1737927814)-1*%
%TF.CreationDate,2021-07-07T14:31:42-05:00*%
%TF.ProjectId,adbuino,61646275-696e-46f2-9e6b-696361645f70,rev?*%
%TF.SameCoordinates,Original*%
%TF.FileFunction,Copper,L2,Bot*%
%TF.FilePolarity,Positive*%
%FSLAX46Y46*%
G04 Gerber Fmt 4.6, Leading zero omitted, Abs format (unit mm)*
G04 Created by KiCad (PCBNEW (5.1.9-16-g1737927814)-1) date 2021-07-07 14:31:42*
%MOMM*%
%LPD*%
G01*
G04 APERTURE LIST*
%TA.AperFunction,NonConductor*%
%ADD10C,0.300000*%
%TD*%
%TA.AperFunction,EtchedComponent*%
%ADD11C,0.100000*%
%TD*%
%TA.AperFunction,ComponentPad*%
%ADD12C,2.000000*%
%TD*%
%TA.AperFunction,SMDPad,CuDef*%
%ADD13C,0.100000*%
%TD*%
%TA.AperFunction,SMDPad,CuDef*%
%ADD14R,1.500000X1.000000*%
%TD*%
%TA.AperFunction,ComponentPad*%
%ADD15O,1.700000X1.700000*%
%TD*%
%TA.AperFunction,ComponentPad*%
%ADD16R,1.700000X1.700000*%
%TD*%
%TA.AperFunction,SMDPad,CuDef*%
%ADD17C,1.000000*%
%TD*%
%TA.AperFunction,ComponentPad*%
%ADD18O,1.800000X3.600000*%
%TD*%
%TA.AperFunction,ComponentPad*%
%ADD19C,1.408000*%
%TD*%
%TA.AperFunction,ComponentPad*%
%ADD20C,3.216000*%
%TD*%
%TA.AperFunction,ComponentPad*%
%ADD21C,1.600000*%
%TD*%
%TA.AperFunction,ComponentPad*%
%ADD22R,1.600000X1.500000*%
%TD*%
%TA.AperFunction,ComponentPad*%
%ADD23C,3.000000*%
%TD*%
%TA.AperFunction,ViaPad*%
%ADD24C,0.800000*%
%TD*%
%TA.AperFunction,Conductor*%
%ADD25C,0.250000*%
%TD*%
%TA.AperFunction,Conductor*%
%ADD26C,0.254000*%
%TD*%
%TA.AperFunction,Conductor*%
%ADD27C,0.100000*%
%TD*%
G04 APERTURE END LIST*
D10*
X155594857Y-46558000D02*
X155666285Y-46772285D01*
X155737714Y-46843714D01*
X155880571Y-46915142D01*
X156094857Y-46915142D01*
X156237714Y-46843714D01*
X156309142Y-46772285D01*
X156380571Y-46629428D01*
X156380571Y-46058000D01*
X154880571Y-46058000D01*
X154880571Y-46558000D01*
X154952000Y-46700857D01*
X155023428Y-46772285D01*
X155166285Y-46843714D01*
X155309142Y-46843714D01*
X155452000Y-46772285D01*
X155523428Y-46700857D01*
X155594857Y-46558000D01*
X155594857Y-46058000D01*
X155952000Y-47486571D02*
X155952000Y-48200857D01*
X156380571Y-47343714D02*
X154880571Y-47843714D01*
X156380571Y-48343714D01*
X156380571Y-48843714D02*
X154880571Y-48843714D01*
X154880571Y-49200857D01*
X154952000Y-49415142D01*
X155094857Y-49558000D01*
X155237714Y-49629428D01*
X155523428Y-49700857D01*
X155737714Y-49700857D01*
X156023428Y-49629428D01*
X156166285Y-49558000D01*
X156309142Y-49415142D01*
X156380571Y-49200857D01*
X156380571Y-48843714D01*
X154880571Y-51343714D02*
X156380571Y-51700857D01*
X155309142Y-51986571D01*
X156380571Y-52272285D01*
X154880571Y-52629428D01*
X154880571Y-53486571D02*
X154880571Y-53772285D01*
X154952000Y-53915142D01*
X155094857Y-54058000D01*
X155380571Y-54129428D01*
X155880571Y-54129428D01*
X156166285Y-54058000D01*
X156309142Y-53915142D01*
X156380571Y-53772285D01*
X156380571Y-53486571D01*
X156309142Y-53343714D01*
X156166285Y-53200857D01*
X155880571Y-53129428D01*
X155380571Y-53129428D01*
X155094857Y-53200857D01*
X154952000Y-53343714D01*
X154880571Y-53486571D01*
X156380571Y-55486571D02*
X156380571Y-54772285D01*
X154880571Y-54772285D01*
X155594857Y-56486571D02*
X155594857Y-55986571D01*
X156380571Y-55986571D02*
X154880571Y-55986571D01*
X154880571Y-56700857D01*
D11*
%TO.C,JP11*%
G36*
X179532000Y-87746000D02*
G01*
X179532000Y-88246000D01*
X180132000Y-88246000D01*
X180132000Y-87746000D01*
X179532000Y-87746000D01*
G37*
%TO.C,JP10*%
G36*
X182072000Y-87746000D02*
G01*
X182072000Y-88246000D01*
X182672000Y-88246000D01*
X182672000Y-87746000D01*
X182072000Y-87746000D01*
G37*
%TO.C,JP6*%
G36*
X155656000Y-80148000D02*
G01*
X155656000Y-79648000D01*
X156256000Y-79648000D01*
X156256000Y-80148000D01*
X155656000Y-80148000D01*
G37*
%TO.C,JP5*%
G36*
X155656000Y-76831000D02*
G01*
X155656000Y-76331000D01*
X156256000Y-76331000D01*
X156256000Y-76831000D01*
X155656000Y-76831000D01*
G37*
%TO.C,JP4*%
G36*
X155656000Y-73514000D02*
G01*
X155656000Y-73014000D01*
X156256000Y-73014000D01*
X156256000Y-73514000D01*
X155656000Y-73514000D01*
G37*
%TO.C,JP3*%
G36*
X160482000Y-80148000D02*
G01*
X160482000Y-79648000D01*
X161082000Y-79648000D01*
X161082000Y-80148000D01*
X160482000Y-80148000D01*
G37*
%TO.C,JP9*%
G36*
X166832000Y-87802000D02*
G01*
X166832000Y-88302000D01*
X167432000Y-88302000D01*
X167432000Y-87802000D01*
X166832000Y-87802000D01*
G37*
%TO.C,JP8*%
G36*
X164292000Y-87802000D02*
G01*
X164292000Y-88302000D01*
X164892000Y-88302000D01*
X164892000Y-87802000D01*
X164292000Y-87802000D01*
G37*
%TO.C,JP2*%
G36*
X183180000Y-47890000D02*
G01*
X183180000Y-47390000D01*
X182580000Y-47390000D01*
X182580000Y-47890000D01*
X183180000Y-47890000D01*
G37*
%TO.C,JP1*%
G36*
X179532000Y-63108000D02*
G01*
X179532000Y-63608000D01*
X180132000Y-63608000D01*
X180132000Y-63108000D01*
X179532000Y-63108000D01*
G37*
%TO.C,JP7*%
G36*
X169810000Y-92756000D02*
G01*
X169310000Y-92756000D01*
X169310000Y-92156000D01*
X169810000Y-92156000D01*
X169810000Y-92756000D01*
G37*
%TD*%
D12*
%TO.P,J2,MH4*%
%TO.N,GND*%
X180867000Y-42871000D03*
%TO.P,J2,MH3*%
X173717000Y-42871000D03*
%TO.P,J2,MH2*%
X173717000Y-39421000D03*
%TO.P,J2,MH1*%
X180867000Y-39421000D03*
%TD*%
%TA.AperFunction,SMDPad,CuDef*%
D13*
%TO.P,JP11,1*%
%TO.N,Net-(JP11-Pad1)*%
G36*
X179082000Y-87896000D02*
G01*
X179082000Y-87346000D01*
X179082602Y-87346000D01*
X179082602Y-87321466D01*
X179087412Y-87272635D01*
X179096984Y-87224510D01*
X179111228Y-87177555D01*
X179130005Y-87132222D01*
X179153136Y-87088949D01*
X179180396Y-87048150D01*
X179211524Y-87010221D01*
X179246221Y-86975524D01*
X179284150Y-86944396D01*
X179324949Y-86917136D01*
X179368222Y-86894005D01*
X179413555Y-86875228D01*
X179460510Y-86860984D01*
X179508635Y-86851412D01*
X179557466Y-86846602D01*
X179582000Y-86846602D01*
X179582000Y-86846000D01*
X180082000Y-86846000D01*
X180082000Y-86846602D01*
X180106534Y-86846602D01*
X180155365Y-86851412D01*
X180203490Y-86860984D01*
X180250445Y-86875228D01*
X180295778Y-86894005D01*
X180339051Y-86917136D01*
X180379850Y-86944396D01*
X180417779Y-86975524D01*
X180452476Y-87010221D01*
X180483604Y-87048150D01*
X180510864Y-87088949D01*
X180533995Y-87132222D01*
X180552772Y-87177555D01*
X180567016Y-87224510D01*
X180576588Y-87272635D01*
X180581398Y-87321466D01*
X180581398Y-87346000D01*
X180582000Y-87346000D01*
X180582000Y-87896000D01*
X179082000Y-87896000D01*
G37*
%TD.AperFunction*%
D14*
%TO.P,JP11,2*%
%TO.N,ADB_1_PWR_ON*%
X179832000Y-88646000D03*
%TA.AperFunction,SMDPad,CuDef*%
D13*
%TO.P,JP11,3*%
%TO.N,Net-(JP10-Pad3)*%
G36*
X180581398Y-89946000D02*
G01*
X180581398Y-89970534D01*
X180576588Y-90019365D01*
X180567016Y-90067490D01*
X180552772Y-90114445D01*
X180533995Y-90159778D01*
X180510864Y-90203051D01*
X180483604Y-90243850D01*
X180452476Y-90281779D01*
X180417779Y-90316476D01*
X180379850Y-90347604D01*
X180339051Y-90374864D01*
X180295778Y-90397995D01*
X180250445Y-90416772D01*
X180203490Y-90431016D01*
X180155365Y-90440588D01*
X180106534Y-90445398D01*
X180082000Y-90445398D01*
X180082000Y-90446000D01*
X179582000Y-90446000D01*
X179582000Y-90445398D01*
X179557466Y-90445398D01*
X179508635Y-90440588D01*
X179460510Y-90431016D01*
X179413555Y-90416772D01*
X179368222Y-90397995D01*
X179324949Y-90374864D01*
X179284150Y-90347604D01*
X179246221Y-90316476D01*
X179211524Y-90281779D01*
X179180396Y-90243850D01*
X179153136Y-90203051D01*
X179130005Y-90159778D01*
X179111228Y-90114445D01*
X179096984Y-90067490D01*
X179087412Y-90019365D01*
X179082602Y-89970534D01*
X179082602Y-89946000D01*
X179082000Y-89946000D01*
X179082000Y-89396000D01*
X180582000Y-89396000D01*
X180582000Y-89946000D01*
X180581398Y-89946000D01*
G37*
%TD.AperFunction*%
%TD*%
%TA.AperFunction,SMDPad,CuDef*%
%TO.P,JP10,1*%
%TO.N,Net-(JP10-Pad1)*%
G36*
X181622000Y-87896000D02*
G01*
X181622000Y-87346000D01*
X181622602Y-87346000D01*
X181622602Y-87321466D01*
X181627412Y-87272635D01*
X181636984Y-87224510D01*
X181651228Y-87177555D01*
X181670005Y-87132222D01*
X181693136Y-87088949D01*
X181720396Y-87048150D01*
X181751524Y-87010221D01*
X181786221Y-86975524D01*
X181824150Y-86944396D01*
X181864949Y-86917136D01*
X181908222Y-86894005D01*
X181953555Y-86875228D01*
X182000510Y-86860984D01*
X182048635Y-86851412D01*
X182097466Y-86846602D01*
X182122000Y-86846602D01*
X182122000Y-86846000D01*
X182622000Y-86846000D01*
X182622000Y-86846602D01*
X182646534Y-86846602D01*
X182695365Y-86851412D01*
X182743490Y-86860984D01*
X182790445Y-86875228D01*
X182835778Y-86894005D01*
X182879051Y-86917136D01*
X182919850Y-86944396D01*
X182957779Y-86975524D01*
X182992476Y-87010221D01*
X183023604Y-87048150D01*
X183050864Y-87088949D01*
X183073995Y-87132222D01*
X183092772Y-87177555D01*
X183107016Y-87224510D01*
X183116588Y-87272635D01*
X183121398Y-87321466D01*
X183121398Y-87346000D01*
X183122000Y-87346000D01*
X183122000Y-87896000D01*
X181622000Y-87896000D01*
G37*
%TD.AperFunction*%
D14*
%TO.P,JP10,2*%
%TO.N,ADB_PWR_ON_LV*%
X182372000Y-88646000D03*
%TA.AperFunction,SMDPad,CuDef*%
D13*
%TO.P,JP10,3*%
%TO.N,Net-(JP10-Pad3)*%
G36*
X183121398Y-89946000D02*
G01*
X183121398Y-89970534D01*
X183116588Y-90019365D01*
X183107016Y-90067490D01*
X183092772Y-90114445D01*
X183073995Y-90159778D01*
X183050864Y-90203051D01*
X183023604Y-90243850D01*
X182992476Y-90281779D01*
X182957779Y-90316476D01*
X182919850Y-90347604D01*
X182879051Y-90374864D01*
X182835778Y-90397995D01*
X182790445Y-90416772D01*
X182743490Y-90431016D01*
X182695365Y-90440588D01*
X182646534Y-90445398D01*
X182622000Y-90445398D01*
X182622000Y-90446000D01*
X182122000Y-90446000D01*
X182122000Y-90445398D01*
X182097466Y-90445398D01*
X182048635Y-90440588D01*
X182000510Y-90431016D01*
X181953555Y-90416772D01*
X181908222Y-90397995D01*
X181864949Y-90374864D01*
X181824150Y-90347604D01*
X181786221Y-90316476D01*
X181751524Y-90281779D01*
X181720396Y-90243850D01*
X181693136Y-90203051D01*
X181670005Y-90159778D01*
X181651228Y-90114445D01*
X181636984Y-90067490D01*
X181627412Y-90019365D01*
X181622602Y-89970534D01*
X181622602Y-89946000D01*
X181622000Y-89946000D01*
X181622000Y-89396000D01*
X183122000Y-89396000D01*
X183122000Y-89946000D01*
X183121398Y-89946000D01*
G37*
%TD.AperFunction*%
%TD*%
%TA.AperFunction,SMDPad,CuDef*%
%TO.P,JP6,1*%
%TO.N,SPI_MOSI*%
G36*
X155206000Y-79748000D02*
G01*
X155206000Y-79248000D01*
X155206602Y-79248000D01*
X155206602Y-79223466D01*
X155211412Y-79174635D01*
X155220984Y-79126510D01*
X155235228Y-79079555D01*
X155254005Y-79034222D01*
X155277136Y-78990949D01*
X155304396Y-78950150D01*
X155335524Y-78912221D01*
X155370221Y-78877524D01*
X155408150Y-78846396D01*
X155448949Y-78819136D01*
X155492222Y-78796005D01*
X155537555Y-78777228D01*
X155584510Y-78762984D01*
X155632635Y-78753412D01*
X155681466Y-78748602D01*
X155706000Y-78748602D01*
X155706000Y-78748000D01*
X156206000Y-78748000D01*
X156206000Y-78748602D01*
X156230534Y-78748602D01*
X156279365Y-78753412D01*
X156327490Y-78762984D01*
X156374445Y-78777228D01*
X156419778Y-78796005D01*
X156463051Y-78819136D01*
X156503850Y-78846396D01*
X156541779Y-78877524D01*
X156576476Y-78912221D01*
X156607604Y-78950150D01*
X156634864Y-78990949D01*
X156657995Y-79034222D01*
X156676772Y-79079555D01*
X156691016Y-79126510D01*
X156700588Y-79174635D01*
X156705398Y-79223466D01*
X156705398Y-79248000D01*
X156706000Y-79248000D01*
X156706000Y-79748000D01*
X155206000Y-79748000D01*
G37*
%TD.AperFunction*%
%TA.AperFunction,SMDPad,CuDef*%
%TO.P,JP6,2*%
%TO.N,TTL_SPI_MOSI*%
G36*
X156705398Y-80548000D02*
G01*
X156705398Y-80572534D01*
X156700588Y-80621365D01*
X156691016Y-80669490D01*
X156676772Y-80716445D01*
X156657995Y-80761778D01*
X156634864Y-80805051D01*
X156607604Y-80845850D01*
X156576476Y-80883779D01*
X156541779Y-80918476D01*
X156503850Y-80949604D01*
X156463051Y-80976864D01*
X156419778Y-80999995D01*
X156374445Y-81018772D01*
X156327490Y-81033016D01*
X156279365Y-81042588D01*
X156230534Y-81047398D01*
X156206000Y-81047398D01*
X156206000Y-81048000D01*
X155706000Y-81048000D01*
X155706000Y-81047398D01*
X155681466Y-81047398D01*
X155632635Y-81042588D01*
X155584510Y-81033016D01*
X155537555Y-81018772D01*
X155492222Y-80999995D01*
X155448949Y-80976864D01*
X155408150Y-80949604D01*
X155370221Y-80918476D01*
X155335524Y-80883779D01*
X155304396Y-80845850D01*
X155277136Y-80805051D01*
X155254005Y-80761778D01*
X155235228Y-80716445D01*
X155220984Y-80669490D01*
X155211412Y-80621365D01*
X155206602Y-80572534D01*
X155206602Y-80548000D01*
X155206000Y-80548000D01*
X155206000Y-80048000D01*
X156706000Y-80048000D01*
X156706000Y-80548000D01*
X156705398Y-80548000D01*
G37*
%TD.AperFunction*%
%TD*%
%TA.AperFunction,SMDPad,CuDef*%
%TO.P,JP5,1*%
%TO.N,MAX3421_SS*%
G36*
X155206000Y-76431000D02*
G01*
X155206000Y-75931000D01*
X155206602Y-75931000D01*
X155206602Y-75906466D01*
X155211412Y-75857635D01*
X155220984Y-75809510D01*
X155235228Y-75762555D01*
X155254005Y-75717222D01*
X155277136Y-75673949D01*
X155304396Y-75633150D01*
X155335524Y-75595221D01*
X155370221Y-75560524D01*
X155408150Y-75529396D01*
X155448949Y-75502136D01*
X155492222Y-75479005D01*
X155537555Y-75460228D01*
X155584510Y-75445984D01*
X155632635Y-75436412D01*
X155681466Y-75431602D01*
X155706000Y-75431602D01*
X155706000Y-75431000D01*
X156206000Y-75431000D01*
X156206000Y-75431602D01*
X156230534Y-75431602D01*
X156279365Y-75436412D01*
X156327490Y-75445984D01*
X156374445Y-75460228D01*
X156419778Y-75479005D01*
X156463051Y-75502136D01*
X156503850Y-75529396D01*
X156541779Y-75560524D01*
X156576476Y-75595221D01*
X156607604Y-75633150D01*
X156634864Y-75673949D01*
X156657995Y-75717222D01*
X156676772Y-75762555D01*
X156691016Y-75809510D01*
X156700588Y-75857635D01*
X156705398Y-75906466D01*
X156705398Y-75931000D01*
X156706000Y-75931000D01*
X156706000Y-76431000D01*
X155206000Y-76431000D01*
G37*
%TD.AperFunction*%
%TA.AperFunction,SMDPad,CuDef*%
%TO.P,JP5,2*%
%TO.N,TTL_SS*%
G36*
X156705398Y-77231000D02*
G01*
X156705398Y-77255534D01*
X156700588Y-77304365D01*
X156691016Y-77352490D01*
X156676772Y-77399445D01*
X156657995Y-77444778D01*
X156634864Y-77488051D01*
X156607604Y-77528850D01*
X156576476Y-77566779D01*
X156541779Y-77601476D01*
X156503850Y-77632604D01*
X156463051Y-77659864D01*
X156419778Y-77682995D01*
X156374445Y-77701772D01*
X156327490Y-77716016D01*
X156279365Y-77725588D01*
X156230534Y-77730398D01*
X156206000Y-77730398D01*
X156206000Y-77731000D01*
X155706000Y-77731000D01*
X155706000Y-77730398D01*
X155681466Y-77730398D01*
X155632635Y-77725588D01*
X155584510Y-77716016D01*
X155537555Y-77701772D01*
X155492222Y-77682995D01*
X155448949Y-77659864D01*
X155408150Y-77632604D01*
X155370221Y-77601476D01*
X155335524Y-77566779D01*
X155304396Y-77528850D01*
X155277136Y-77488051D01*
X155254005Y-77444778D01*
X155235228Y-77399445D01*
X155220984Y-77352490D01*
X155211412Y-77304365D01*
X155206602Y-77255534D01*
X155206602Y-77231000D01*
X155206000Y-77231000D01*
X155206000Y-76731000D01*
X156706000Y-76731000D01*
X156706000Y-77231000D01*
X156705398Y-77231000D01*
G37*
%TD.AperFunction*%
%TD*%
%TA.AperFunction,SMDPad,CuDef*%
%TO.P,JP4,1*%
%TO.N,SPI_SCLK*%
G36*
X155206000Y-73114000D02*
G01*
X155206000Y-72614000D01*
X155206602Y-72614000D01*
X155206602Y-72589466D01*
X155211412Y-72540635D01*
X155220984Y-72492510D01*
X155235228Y-72445555D01*
X155254005Y-72400222D01*
X155277136Y-72356949D01*
X155304396Y-72316150D01*
X155335524Y-72278221D01*
X155370221Y-72243524D01*
X155408150Y-72212396D01*
X155448949Y-72185136D01*
X155492222Y-72162005D01*
X155537555Y-72143228D01*
X155584510Y-72128984D01*
X155632635Y-72119412D01*
X155681466Y-72114602D01*
X155706000Y-72114602D01*
X155706000Y-72114000D01*
X156206000Y-72114000D01*
X156206000Y-72114602D01*
X156230534Y-72114602D01*
X156279365Y-72119412D01*
X156327490Y-72128984D01*
X156374445Y-72143228D01*
X156419778Y-72162005D01*
X156463051Y-72185136D01*
X156503850Y-72212396D01*
X156541779Y-72243524D01*
X156576476Y-72278221D01*
X156607604Y-72316150D01*
X156634864Y-72356949D01*
X156657995Y-72400222D01*
X156676772Y-72445555D01*
X156691016Y-72492510D01*
X156700588Y-72540635D01*
X156705398Y-72589466D01*
X156705398Y-72614000D01*
X156706000Y-72614000D01*
X156706000Y-73114000D01*
X155206000Y-73114000D01*
G37*
%TD.AperFunction*%
%TA.AperFunction,SMDPad,CuDef*%
%TO.P,JP4,2*%
%TO.N,TTL_SPI_SCLK*%
G36*
X156705398Y-73914000D02*
G01*
X156705398Y-73938534D01*
X156700588Y-73987365D01*
X156691016Y-74035490D01*
X156676772Y-74082445D01*
X156657995Y-74127778D01*
X156634864Y-74171051D01*
X156607604Y-74211850D01*
X156576476Y-74249779D01*
X156541779Y-74284476D01*
X156503850Y-74315604D01*
X156463051Y-74342864D01*
X156419778Y-74365995D01*
X156374445Y-74384772D01*
X156327490Y-74399016D01*
X156279365Y-74408588D01*
X156230534Y-74413398D01*
X156206000Y-74413398D01*
X156206000Y-74414000D01*
X155706000Y-74414000D01*
X155706000Y-74413398D01*
X155681466Y-74413398D01*
X155632635Y-74408588D01*
X155584510Y-74399016D01*
X155537555Y-74384772D01*
X155492222Y-74365995D01*
X155448949Y-74342864D01*
X155408150Y-74315604D01*
X155370221Y-74284476D01*
X155335524Y-74249779D01*
X155304396Y-74211850D01*
X155277136Y-74171051D01*
X155254005Y-74127778D01*
X155235228Y-74082445D01*
X155220984Y-74035490D01*
X155211412Y-73987365D01*
X155206602Y-73938534D01*
X155206602Y-73914000D01*
X155206000Y-73914000D01*
X155206000Y-73414000D01*
X156706000Y-73414000D01*
X156706000Y-73914000D01*
X156705398Y-73914000D01*
G37*
%TD.AperFunction*%
%TD*%
%TA.AperFunction,SMDPad,CuDef*%
%TO.P,JP3,1*%
%TO.N,MAX3421_RESET*%
G36*
X160032000Y-79748000D02*
G01*
X160032000Y-79248000D01*
X160032602Y-79248000D01*
X160032602Y-79223466D01*
X160037412Y-79174635D01*
X160046984Y-79126510D01*
X160061228Y-79079555D01*
X160080005Y-79034222D01*
X160103136Y-78990949D01*
X160130396Y-78950150D01*
X160161524Y-78912221D01*
X160196221Y-78877524D01*
X160234150Y-78846396D01*
X160274949Y-78819136D01*
X160318222Y-78796005D01*
X160363555Y-78777228D01*
X160410510Y-78762984D01*
X160458635Y-78753412D01*
X160507466Y-78748602D01*
X160532000Y-78748602D01*
X160532000Y-78748000D01*
X161032000Y-78748000D01*
X161032000Y-78748602D01*
X161056534Y-78748602D01*
X161105365Y-78753412D01*
X161153490Y-78762984D01*
X161200445Y-78777228D01*
X161245778Y-78796005D01*
X161289051Y-78819136D01*
X161329850Y-78846396D01*
X161367779Y-78877524D01*
X161402476Y-78912221D01*
X161433604Y-78950150D01*
X161460864Y-78990949D01*
X161483995Y-79034222D01*
X161502772Y-79079555D01*
X161517016Y-79126510D01*
X161526588Y-79174635D01*
X161531398Y-79223466D01*
X161531398Y-79248000D01*
X161532000Y-79248000D01*
X161532000Y-79748000D01*
X160032000Y-79748000D01*
G37*
%TD.AperFunction*%
%TA.AperFunction,SMDPad,CuDef*%
%TO.P,JP3,2*%
%TO.N,TTL_MAX3421_RESET*%
G36*
X161531398Y-80548000D02*
G01*
X161531398Y-80572534D01*
X161526588Y-80621365D01*
X161517016Y-80669490D01*
X161502772Y-80716445D01*
X161483995Y-80761778D01*
X161460864Y-80805051D01*
X161433604Y-80845850D01*
X161402476Y-80883779D01*
X161367779Y-80918476D01*
X161329850Y-80949604D01*
X161289051Y-80976864D01*
X161245778Y-80999995D01*
X161200445Y-81018772D01*
X161153490Y-81033016D01*
X161105365Y-81042588D01*
X161056534Y-81047398D01*
X161032000Y-81047398D01*
X161032000Y-81048000D01*
X160532000Y-81048000D01*
X160532000Y-81047398D01*
X160507466Y-81047398D01*
X160458635Y-81042588D01*
X160410510Y-81033016D01*
X160363555Y-81018772D01*
X160318222Y-80999995D01*
X160274949Y-80976864D01*
X160234150Y-80949604D01*
X160196221Y-80918476D01*
X160161524Y-80883779D01*
X160130396Y-80845850D01*
X160103136Y-80805051D01*
X160080005Y-80761778D01*
X160061228Y-80716445D01*
X160046984Y-80669490D01*
X160037412Y-80621365D01*
X160032602Y-80572534D01*
X160032602Y-80548000D01*
X160032000Y-80548000D01*
X160032000Y-80048000D01*
X161532000Y-80048000D01*
X161532000Y-80548000D01*
X161531398Y-80548000D01*
G37*
%TD.AperFunction*%
%TD*%
D15*
%TO.P,J1,6*%
%TO.N,FTDI_DTR*%
X182118000Y-71628000D03*
%TO.P,J1,5*%
%TO.N,FTDI_TXO*%
X182118000Y-69088000D03*
%TO.P,J1,4*%
%TO.N,FTDI_RXI*%
X182118000Y-66548000D03*
%TO.P,J1,3*%
%TO.N,Net-(J1-Pad3)*%
X182118000Y-64008000D03*
%TO.P,J1,2*%
%TO.N,GND*%
X182118000Y-61468000D03*
D16*
%TO.P,J1,1*%
X182118000Y-58928000D03*
%TD*%
D17*
%TO.P,TP17,1*%
%TO.N,Net-(TP17-Pad1)*%
X171704000Y-76708000D03*
%TD*%
%TO.P,TP16,1*%
%TO.N,Net-(TP16-Pad1)*%
X166624000Y-73660000D03*
%TD*%
%TO.P,TP15,1*%
%TO.N,Net-(TP15-Pad1)*%
X174244000Y-76708000D03*
%TD*%
%TO.P,TP14,1*%
%TO.N,Net-(TP14-Pad1)*%
X179578000Y-76962000D03*
%TD*%
%TO.P,TP13,1*%
%TO.N,Net-(TP13-Pad1)*%
X179578000Y-78994000D03*
%TD*%
%TO.P,TP12,1*%
%TO.N,Net-(TP12-Pad1)*%
X179578000Y-81026000D03*
%TD*%
%TO.P,TP11,1*%
%TO.N,Net-(TP11-Pad1)*%
X179578000Y-83058000D03*
%TD*%
%TO.P,TP10,1*%
%TO.N,Net-(TP10-Pad1)*%
X176530000Y-85090000D03*
%TD*%
%TO.P,TP9,1*%
%TO.N,Net-(TP9-Pad1)*%
X175260000Y-80772000D03*
%TD*%
%TO.P,TP8,1*%
%TO.N,TTL_SPI_SCLK*%
X163322000Y-84836000D03*
%TD*%
%TO.P,TP7,1*%
%TO.N,SPI_MISO*%
X167132000Y-83566000D03*
%TD*%
%TO.P,TP6,1*%
%TO.N,TTL_SPI_MOSI*%
X155956000Y-82550000D03*
%TD*%
%TO.P,TP5,1*%
%TO.N,TTL_SS*%
X158750000Y-75438000D03*
%TD*%
%TO.P,TP4,1*%
%TO.N,MAX3421_INT*%
X164338000Y-79248000D03*
%TD*%
%TO.P,TP3,1*%
%TO.N,MAX3421_GPX*%
X166624000Y-75692000D03*
%TD*%
%TO.P,TP2,1*%
%TO.N,Net-(TP2-Pad1)*%
X173228000Y-85090000D03*
%TD*%
%TO.P,TP1,1*%
%TO.N,Net-(TP1-Pad1)*%
X172212000Y-80772000D03*
%TD*%
%TA.AperFunction,SMDPad,CuDef*%
D13*
%TO.P,JP9,1*%
%TO.N,Net-(JP9-Pad1)*%
G36*
X166382000Y-87952000D02*
G01*
X166382000Y-87402000D01*
X166382602Y-87402000D01*
X166382602Y-87377466D01*
X166387412Y-87328635D01*
X166396984Y-87280510D01*
X166411228Y-87233555D01*
X166430005Y-87188222D01*
X166453136Y-87144949D01*
X166480396Y-87104150D01*
X166511524Y-87066221D01*
X166546221Y-87031524D01*
X166584150Y-87000396D01*
X166624949Y-86973136D01*
X166668222Y-86950005D01*
X166713555Y-86931228D01*
X166760510Y-86916984D01*
X166808635Y-86907412D01*
X166857466Y-86902602D01*
X166882000Y-86902602D01*
X166882000Y-86902000D01*
X167382000Y-86902000D01*
X167382000Y-86902602D01*
X167406534Y-86902602D01*
X167455365Y-86907412D01*
X167503490Y-86916984D01*
X167550445Y-86931228D01*
X167595778Y-86950005D01*
X167639051Y-86973136D01*
X167679850Y-87000396D01*
X167717779Y-87031524D01*
X167752476Y-87066221D01*
X167783604Y-87104150D01*
X167810864Y-87144949D01*
X167833995Y-87188222D01*
X167852772Y-87233555D01*
X167867016Y-87280510D01*
X167876588Y-87328635D01*
X167881398Y-87377466D01*
X167881398Y-87402000D01*
X167882000Y-87402000D01*
X167882000Y-87952000D01*
X166382000Y-87952000D01*
G37*
%TD.AperFunction*%
D14*
%TO.P,JP9,2*%
%TO.N,ADB_1_DATA*%
X167132000Y-88702000D03*
%TA.AperFunction,SMDPad,CuDef*%
D13*
%TO.P,JP9,3*%
%TO.N,Net-(JP8-Pad3)*%
G36*
X167881398Y-90002000D02*
G01*
X167881398Y-90026534D01*
X167876588Y-90075365D01*
X167867016Y-90123490D01*
X167852772Y-90170445D01*
X167833995Y-90215778D01*
X167810864Y-90259051D01*
X167783604Y-90299850D01*
X167752476Y-90337779D01*
X167717779Y-90372476D01*
X167679850Y-90403604D01*
X167639051Y-90430864D01*
X167595778Y-90453995D01*
X167550445Y-90472772D01*
X167503490Y-90487016D01*
X167455365Y-90496588D01*
X167406534Y-90501398D01*
X167382000Y-90501398D01*
X167382000Y-90502000D01*
X166882000Y-90502000D01*
X166882000Y-90501398D01*
X166857466Y-90501398D01*
X166808635Y-90496588D01*
X166760510Y-90487016D01*
X166713555Y-90472772D01*
X166668222Y-90453995D01*
X166624949Y-90430864D01*
X166584150Y-90403604D01*
X166546221Y-90372476D01*
X166511524Y-90337779D01*
X166480396Y-90299850D01*
X166453136Y-90259051D01*
X166430005Y-90215778D01*
X166411228Y-90170445D01*
X166396984Y-90123490D01*
X166387412Y-90075365D01*
X166382602Y-90026534D01*
X166382602Y-90002000D01*
X166382000Y-90002000D01*
X166382000Y-89452000D01*
X167882000Y-89452000D01*
X167882000Y-90002000D01*
X167881398Y-90002000D01*
G37*
%TD.AperFunction*%
%TD*%
%TA.AperFunction,SMDPad,CuDef*%
%TO.P,JP8,1*%
%TO.N,Net-(JP8-Pad1)*%
G36*
X163842000Y-87952000D02*
G01*
X163842000Y-87402000D01*
X163842602Y-87402000D01*
X163842602Y-87377466D01*
X163847412Y-87328635D01*
X163856984Y-87280510D01*
X163871228Y-87233555D01*
X163890005Y-87188222D01*
X163913136Y-87144949D01*
X163940396Y-87104150D01*
X163971524Y-87066221D01*
X164006221Y-87031524D01*
X164044150Y-87000396D01*
X164084949Y-86973136D01*
X164128222Y-86950005D01*
X164173555Y-86931228D01*
X164220510Y-86916984D01*
X164268635Y-86907412D01*
X164317466Y-86902602D01*
X164342000Y-86902602D01*
X164342000Y-86902000D01*
X164842000Y-86902000D01*
X164842000Y-86902602D01*
X164866534Y-86902602D01*
X164915365Y-86907412D01*
X164963490Y-86916984D01*
X165010445Y-86931228D01*
X165055778Y-86950005D01*
X165099051Y-86973136D01*
X165139850Y-87000396D01*
X165177779Y-87031524D01*
X165212476Y-87066221D01*
X165243604Y-87104150D01*
X165270864Y-87144949D01*
X165293995Y-87188222D01*
X165312772Y-87233555D01*
X165327016Y-87280510D01*
X165336588Y-87328635D01*
X165341398Y-87377466D01*
X165341398Y-87402000D01*
X165342000Y-87402000D01*
X165342000Y-87952000D01*
X163842000Y-87952000D01*
G37*
%TD.AperFunction*%
D14*
%TO.P,JP8,2*%
%TO.N,ADB_DATA_LV*%
X164592000Y-88702000D03*
%TA.AperFunction,SMDPad,CuDef*%
D13*
%TO.P,JP8,3*%
%TO.N,Net-(JP8-Pad3)*%
G36*
X165341398Y-90002000D02*
G01*
X165341398Y-90026534D01*
X165336588Y-90075365D01*
X165327016Y-90123490D01*
X165312772Y-90170445D01*
X165293995Y-90215778D01*
X165270864Y-90259051D01*
X165243604Y-90299850D01*
X165212476Y-90337779D01*
X165177779Y-90372476D01*
X165139850Y-90403604D01*
X165099051Y-90430864D01*
X165055778Y-90453995D01*
X165010445Y-90472772D01*
X164963490Y-90487016D01*
X164915365Y-90496588D01*
X164866534Y-90501398D01*
X164842000Y-90501398D01*
X164842000Y-90502000D01*
X164342000Y-90502000D01*
X164342000Y-90501398D01*
X164317466Y-90501398D01*
X164268635Y-90496588D01*
X164220510Y-90487016D01*
X164173555Y-90472772D01*
X164128222Y-90453995D01*
X164084949Y-90430864D01*
X164044150Y-90403604D01*
X164006221Y-90372476D01*
X163971524Y-90337779D01*
X163940396Y-90299850D01*
X163913136Y-90259051D01*
X163890005Y-90215778D01*
X163871228Y-90170445D01*
X163856984Y-90123490D01*
X163847412Y-90075365D01*
X163842602Y-90026534D01*
X163842602Y-90002000D01*
X163842000Y-90002000D01*
X163842000Y-89452000D01*
X165342000Y-89452000D01*
X165342000Y-90002000D01*
X165341398Y-90002000D01*
G37*
%TD.AperFunction*%
%TD*%
%TA.AperFunction,SMDPad,CuDef*%
%TO.P,JP2,1*%
%TO.N,+3V3*%
G36*
X183630000Y-47740000D02*
G01*
X183630000Y-48290000D01*
X183629398Y-48290000D01*
X183629398Y-48314534D01*
X183624588Y-48363365D01*
X183615016Y-48411490D01*
X183600772Y-48458445D01*
X183581995Y-48503778D01*
X183558864Y-48547051D01*
X183531604Y-48587850D01*
X183500476Y-48625779D01*
X183465779Y-48660476D01*
X183427850Y-48691604D01*
X183387051Y-48718864D01*
X183343778Y-48741995D01*
X183298445Y-48760772D01*
X183251490Y-48775016D01*
X183203365Y-48784588D01*
X183154534Y-48789398D01*
X183130000Y-48789398D01*
X183130000Y-48790000D01*
X182630000Y-48790000D01*
X182630000Y-48789398D01*
X182605466Y-48789398D01*
X182556635Y-48784588D01*
X182508510Y-48775016D01*
X182461555Y-48760772D01*
X182416222Y-48741995D01*
X182372949Y-48718864D01*
X182332150Y-48691604D01*
X182294221Y-48660476D01*
X182259524Y-48625779D01*
X182228396Y-48587850D01*
X182201136Y-48547051D01*
X182178005Y-48503778D01*
X182159228Y-48458445D01*
X182144984Y-48411490D01*
X182135412Y-48363365D01*
X182130602Y-48314534D01*
X182130602Y-48290000D01*
X182130000Y-48290000D01*
X182130000Y-47740000D01*
X183630000Y-47740000D01*
G37*
%TD.AperFunction*%
D14*
%TO.P,JP2,2*%
%TO.N,VCC*%
X182880000Y-46990000D03*
%TA.AperFunction,SMDPad,CuDef*%
D13*
%TO.P,JP2,3*%
%TO.N,VBUS*%
G36*
X182130602Y-45690000D02*
G01*
X182130602Y-45665466D01*
X182135412Y-45616635D01*
X182144984Y-45568510D01*
X182159228Y-45521555D01*
X182178005Y-45476222D01*
X182201136Y-45432949D01*
X182228396Y-45392150D01*
X182259524Y-45354221D01*
X182294221Y-45319524D01*
X182332150Y-45288396D01*
X182372949Y-45261136D01*
X182416222Y-45238005D01*
X182461555Y-45219228D01*
X182508510Y-45204984D01*
X182556635Y-45195412D01*
X182605466Y-45190602D01*
X182630000Y-45190602D01*
X182630000Y-45190000D01*
X183130000Y-45190000D01*
X183130000Y-45190602D01*
X183154534Y-45190602D01*
X183203365Y-45195412D01*
X183251490Y-45204984D01*
X183298445Y-45219228D01*
X183343778Y-45238005D01*
X183387051Y-45261136D01*
X183427850Y-45288396D01*
X183465779Y-45319524D01*
X183500476Y-45354221D01*
X183531604Y-45392150D01*
X183558864Y-45432949D01*
X183581995Y-45476222D01*
X183600772Y-45521555D01*
X183615016Y-45568510D01*
X183624588Y-45616635D01*
X183629398Y-45665466D01*
X183629398Y-45690000D01*
X183630000Y-45690000D01*
X183630000Y-46240000D01*
X182130000Y-46240000D01*
X182130000Y-45690000D01*
X182130602Y-45690000D01*
G37*
%TD.AperFunction*%
%TD*%
%TA.AperFunction,SMDPad,CuDef*%
%TO.P,JP1,1*%
%TO.N,+3V3*%
G36*
X179082000Y-63258000D02*
G01*
X179082000Y-62708000D01*
X179082602Y-62708000D01*
X179082602Y-62683466D01*
X179087412Y-62634635D01*
X179096984Y-62586510D01*
X179111228Y-62539555D01*
X179130005Y-62494222D01*
X179153136Y-62450949D01*
X179180396Y-62410150D01*
X179211524Y-62372221D01*
X179246221Y-62337524D01*
X179284150Y-62306396D01*
X179324949Y-62279136D01*
X179368222Y-62256005D01*
X179413555Y-62237228D01*
X179460510Y-62222984D01*
X179508635Y-62213412D01*
X179557466Y-62208602D01*
X179582000Y-62208602D01*
X179582000Y-62208000D01*
X180082000Y-62208000D01*
X180082000Y-62208602D01*
X180106534Y-62208602D01*
X180155365Y-62213412D01*
X180203490Y-62222984D01*
X180250445Y-62237228D01*
X180295778Y-62256005D01*
X180339051Y-62279136D01*
X180379850Y-62306396D01*
X180417779Y-62337524D01*
X180452476Y-62372221D01*
X180483604Y-62410150D01*
X180510864Y-62450949D01*
X180533995Y-62494222D01*
X180552772Y-62539555D01*
X180567016Y-62586510D01*
X180576588Y-62634635D01*
X180581398Y-62683466D01*
X180581398Y-62708000D01*
X180582000Y-62708000D01*
X180582000Y-63258000D01*
X179082000Y-63258000D01*
G37*
%TD.AperFunction*%
D14*
%TO.P,JP1,2*%
%TO.N,Net-(J1-Pad3)*%
X179832000Y-64008000D03*
%TA.AperFunction,SMDPad,CuDef*%
D13*
%TO.P,JP1,3*%
%TO.N,VBUS*%
G36*
X180581398Y-65308000D02*
G01*
X180581398Y-65332534D01*
X180576588Y-65381365D01*
X180567016Y-65429490D01*
X180552772Y-65476445D01*
X180533995Y-65521778D01*
X180510864Y-65565051D01*
X180483604Y-65605850D01*
X180452476Y-65643779D01*
X180417779Y-65678476D01*
X180379850Y-65709604D01*
X180339051Y-65736864D01*
X180295778Y-65759995D01*
X180250445Y-65778772D01*
X180203490Y-65793016D01*
X180155365Y-65802588D01*
X180106534Y-65807398D01*
X180082000Y-65807398D01*
X180082000Y-65808000D01*
X179582000Y-65808000D01*
X179582000Y-65807398D01*
X179557466Y-65807398D01*
X179508635Y-65802588D01*
X179460510Y-65793016D01*
X179413555Y-65778772D01*
X179368222Y-65759995D01*
X179324949Y-65736864D01*
X179284150Y-65709604D01*
X179246221Y-65678476D01*
X179211524Y-65643779D01*
X179180396Y-65605850D01*
X179153136Y-65565051D01*
X179130005Y-65521778D01*
X179111228Y-65476445D01*
X179096984Y-65429490D01*
X179087412Y-65381365D01*
X179082602Y-65332534D01*
X179082602Y-65308000D01*
X179082000Y-65308000D01*
X179082000Y-64758000D01*
X180582000Y-64758000D01*
X180582000Y-65308000D01*
X180581398Y-65308000D01*
G37*
%TD.AperFunction*%
%TD*%
D17*
%TO.P,TP21,1*%
%TO.N,ADB_1_GND*%
X173228000Y-95758000D03*
%TD*%
%TO.P,TP20,1*%
%TO.N,ADB_1_5v*%
X182626000Y-93726000D03*
%TD*%
%TO.P,TP19,1*%
%TO.N,ADB_1_PWR_ON*%
X180340000Y-94996000D03*
%TD*%
%TO.P,TP18,1*%
%TO.N,ADB_1_DATA*%
X162052000Y-92202000D03*
%TD*%
%TA.AperFunction,SMDPad,CuDef*%
D13*
%TO.P,JP7,1*%
%TO.N,GND*%
G36*
X169410000Y-93206000D02*
G01*
X168910000Y-93206000D01*
X168910000Y-93205398D01*
X168885466Y-93205398D01*
X168836635Y-93200588D01*
X168788510Y-93191016D01*
X168741555Y-93176772D01*
X168696222Y-93157995D01*
X168652949Y-93134864D01*
X168612150Y-93107604D01*
X168574221Y-93076476D01*
X168539524Y-93041779D01*
X168508396Y-93003850D01*
X168481136Y-92963051D01*
X168458005Y-92919778D01*
X168439228Y-92874445D01*
X168424984Y-92827490D01*
X168415412Y-92779365D01*
X168410602Y-92730534D01*
X168410602Y-92706000D01*
X168410000Y-92706000D01*
X168410000Y-92206000D01*
X168410602Y-92206000D01*
X168410602Y-92181466D01*
X168415412Y-92132635D01*
X168424984Y-92084510D01*
X168439228Y-92037555D01*
X168458005Y-91992222D01*
X168481136Y-91948949D01*
X168508396Y-91908150D01*
X168539524Y-91870221D01*
X168574221Y-91835524D01*
X168612150Y-91804396D01*
X168652949Y-91777136D01*
X168696222Y-91754005D01*
X168741555Y-91735228D01*
X168788510Y-91720984D01*
X168836635Y-91711412D01*
X168885466Y-91706602D01*
X168910000Y-91706602D01*
X168910000Y-91706000D01*
X169410000Y-91706000D01*
X169410000Y-93206000D01*
G37*
%TD.AperFunction*%
%TA.AperFunction,SMDPad,CuDef*%
%TO.P,JP7,2*%
%TO.N,ADB_1_GND*%
G36*
X170210000Y-91706602D02*
G01*
X170234534Y-91706602D01*
X170283365Y-91711412D01*
X170331490Y-91720984D01*
X170378445Y-91735228D01*
X170423778Y-91754005D01*
X170467051Y-91777136D01*
X170507850Y-91804396D01*
X170545779Y-91835524D01*
X170580476Y-91870221D01*
X170611604Y-91908150D01*
X170638864Y-91948949D01*
X170661995Y-91992222D01*
X170680772Y-92037555D01*
X170695016Y-92084510D01*
X170704588Y-92132635D01*
X170709398Y-92181466D01*
X170709398Y-92206000D01*
X170710000Y-92206000D01*
X170710000Y-92706000D01*
X170709398Y-92706000D01*
X170709398Y-92730534D01*
X170704588Y-92779365D01*
X170695016Y-92827490D01*
X170680772Y-92874445D01*
X170661995Y-92919778D01*
X170638864Y-92963051D01*
X170611604Y-93003850D01*
X170580476Y-93041779D01*
X170545779Y-93076476D01*
X170507850Y-93107604D01*
X170467051Y-93134864D01*
X170423778Y-93157995D01*
X170378445Y-93176772D01*
X170331490Y-93191016D01*
X170283365Y-93200588D01*
X170234534Y-93205398D01*
X170210000Y-93205398D01*
X170210000Y-93206000D01*
X169710000Y-93206000D01*
X169710000Y-91706000D01*
X170210000Y-91706000D01*
X170210000Y-91706602D01*
G37*
%TD.AperFunction*%
%TD*%
D18*
%TO.P,J5,S3*%
%TO.N,N/C*%
X155144000Y-97104000D03*
%TO.P,J5,S2*%
X167944000Y-97104000D03*
D19*
%TO.P,J5,3*%
%TO.N,ADB_1_5v*%
X166044000Y-92204000D03*
%TO.P,J5,1*%
%TO.N,ADB_1_DATA*%
X164244000Y-92204000D03*
%TO.P,J5,2*%
%TO.N,ADB_1_PWR_ON*%
X158844000Y-92204000D03*
%TO.P,J5,4*%
%TO.N,ADB_1_GND*%
X157044000Y-92204000D03*
D20*
%TO.P,J5,S1*%
%TO.N,N/C*%
X161544000Y-96404000D03*
%TD*%
D18*
%TO.P,J4,S3*%
%TO.N,N/C*%
X170384000Y-97104000D03*
%TO.P,J4,S2*%
X183184000Y-97104000D03*
D19*
%TO.P,J4,3*%
%TO.N,ADB_1_5v*%
X181284000Y-92204000D03*
%TO.P,J4,1*%
%TO.N,ADB_1_DATA*%
X179484000Y-92204000D03*
%TO.P,J4,2*%
%TO.N,ADB_1_PWR_ON*%
X174084000Y-92204000D03*
%TO.P,J4,4*%
%TO.N,ADB_1_GND*%
X172284000Y-92204000D03*
D20*
%TO.P,J4,S1*%
%TO.N,N/C*%
X176784000Y-96404000D03*
%TD*%
D21*
%TO.P,J3,4*%
%TO.N,GND*%
X158608000Y-45720000D03*
%TO.P,J3,3*%
%TO.N,Net-(J3-Pad3)*%
X161108000Y-45720000D03*
%TO.P,J3,2*%
%TO.N,Net-(J3-Pad2)*%
X163108000Y-45720000D03*
D22*
%TO.P,J3,1*%
%TO.N,Net-(F1-Pad1)*%
X165608000Y-45720000D03*
D23*
%TO.P,J3,5*%
%TO.N,GND*%
X155538000Y-43010000D03*
X168678000Y-43010000D03*
%TD*%
D24*
%TO.N,ADB_1_5v*%
X177800000Y-89662000D03*
X177299787Y-93000990D03*
%TO.N,ADB_1_GND*%
X172524644Y-94901021D03*
X170455351Y-94647019D03*
%TO.N,ADB_1_DATA*%
X179106097Y-93958012D03*
X167559034Y-92959340D03*
%TO.N,ADB_1_PWR_ON*%
X178278846Y-91705979D03*
X178259750Y-94490665D03*
%TO.N,GND*%
X165354000Y-97028000D03*
X162560696Y-60393343D03*
X168148000Y-55880000D03*
X162814000Y-54864000D03*
X173506499Y-80239501D03*
X174752000Y-62992000D03*
X165354000Y-49022000D03*
X169926000Y-86868000D03*
X175006000Y-86614000D03*
X174498000Y-71120000D03*
X171450000Y-71374000D03*
X175689317Y-65202021D03*
X174824383Y-66435410D03*
X173252979Y-76026167D03*
X175006000Y-77724000D03*
X180086000Y-73406000D03*
X182372000Y-83058000D03*
X166370000Y-71374000D03*
%TO.N,+3V3*%
X163576000Y-80518000D03*
X162675837Y-50609964D03*
X183134000Y-54610000D03*
X181102000Y-49276000D03*
X183134000Y-56642000D03*
X162814000Y-70866000D03*
X163285697Y-56351697D03*
X163285697Y-52963977D03*
%TO.N,VBUS*%
X183605010Y-52912795D03*
X183642000Y-44196000D03*
%TO.N,Net-(IC1-Pad26)*%
X166813019Y-55683226D03*
X166192213Y-68878009D03*
X166045879Y-60391200D03*
%TO.N,Net-(C6-Pad1)*%
X172556244Y-78711068D03*
X177038000Y-69342000D03*
X177139337Y-65641280D03*
X173278079Y-70241597D03*
%TO.N,Net-(C7-Pad1)*%
X169164000Y-70358000D03*
X169164000Y-74676000D03*
%TO.N,Net-(C12-Pad1)*%
X167132000Y-54102000D03*
X165338765Y-59684084D03*
%TO.N,MAX3421_INT*%
X166116000Y-50038000D03*
X164163706Y-77654874D03*
%TO.N,MAX3421_GPX*%
X166116000Y-77216000D03*
X167898660Y-52573340D03*
%TO.N,SPI_MOSI*%
X169672000Y-49784000D03*
X157226000Y-78486000D03*
X162695725Y-48387594D03*
%TO.N,SPI_MISO*%
X167680155Y-82013165D03*
X170418155Y-50476627D03*
%TO.N,MAX3421_SS*%
X157480000Y-75946000D03*
X163285010Y-47144524D03*
%TO.N,SPI_SCLK*%
X157226000Y-72644000D03*
X159073746Y-72761250D03*
X159701967Y-54610000D03*
%TO.N,MAX3421_RESET*%
X159258000Y-78994000D03*
X164274135Y-46997366D03*
%TO.N,ADB_DATA_LV*%
X167894000Y-73152000D03*
%TO.N,ADB_PWR_ON_LV*%
X182112000Y-75940000D03*
%TO.N,Net-(TP1-Pad1)*%
X171394278Y-81225952D03*
%TO.N,Net-(TP2-Pad1)*%
X174231509Y-81583828D03*
%TO.N,Net-(TP13-Pad1)*%
X180848000Y-79502000D03*
%TO.N,Net-(TP14-Pad1)*%
X180594000Y-78486000D03*
%TO.N,Net-(TP15-Pad1)*%
X175153010Y-75946000D03*
%TO.N,Net-(TP16-Pad1)*%
X167640000Y-74676000D03*
%TO.N,Net-(TP17-Pad1)*%
X171196000Y-77470000D03*
%TO.N,FTDI_TXO*%
X182668204Y-76771060D03*
%TO.N,FTDI_RXI*%
X182534385Y-77762078D03*
%TO.N,Net-(C5-Pad1)*%
X177800000Y-62992000D03*
X178308000Y-70612000D03*
X178967829Y-78078743D03*
X177546000Y-56896000D03*
%TO.N,TTL_MAX3421_RESET*%
X159330522Y-80264000D03*
%TO.N,TTL_SPI_MOSI*%
X157430500Y-80059500D03*
%TO.N,TTL_SS*%
X157047518Y-77131163D03*
%TO.N,TTL_SPI_SCLK*%
X164338000Y-82296000D03*
X164846000Y-84328000D03*
X157480000Y-74168000D03*
%TO.N,Net-(JP8-Pad1)*%
X162814000Y-87122000D03*
X159766000Y-87122000D03*
X160020000Y-91186000D03*
%TO.N,Net-(JP9-Pad1)*%
X168656000Y-88138000D03*
%TO.N,Net-(JP10-Pad1)*%
X183779000Y-90678000D03*
%TO.N,Net-(JP11-Pad1)*%
X178562000Y-86868000D03*
%TO.N,Net-(R5-Pad2)*%
X162560000Y-62230000D03*
X162426001Y-68152999D03*
%TO.N,Net-(TP9-Pad1)*%
X175359991Y-81534000D03*
%TO.N,Net-(TP10-Pad1)*%
X177038000Y-84074000D03*
%TO.N,Net-(TP11-Pad1)*%
X178054000Y-82804000D03*
%TO.N,Net-(TP12-Pad1)*%
X180629924Y-80630850D03*
%TO.N,VCC*%
X170688000Y-80518000D03*
X171450000Y-78994000D03*
X175768000Y-78994000D03*
X175954182Y-77124264D03*
%TD*%
D25*
%TO.N,ADB_1_5v*%
X181284000Y-92384000D02*
X182626000Y-93726000D01*
X181284000Y-92204000D02*
X181284000Y-92384000D01*
X177800000Y-89662000D02*
X177299787Y-90162213D01*
X177299787Y-90162213D02*
X177299787Y-93000990D01*
%TO.N,ADB_1_GND*%
X172032000Y-92456000D02*
X172284000Y-92204000D01*
X170210000Y-92456000D02*
X172032000Y-92456000D01*
X172524644Y-95054644D02*
X172524644Y-94901021D01*
X172284000Y-94660377D02*
X172524644Y-94901021D01*
X172284000Y-92204000D02*
X172284000Y-94660377D01*
X170210000Y-94401668D02*
X170455351Y-94647019D01*
X170210000Y-92456000D02*
X170210000Y-94401668D01*
X173228000Y-95758000D02*
X172524644Y-95054644D01*
%TO.N,ADB_1_DATA*%
X162054000Y-92204000D02*
X162052000Y-92202000D01*
X164244000Y-92204000D02*
X162054000Y-92204000D01*
X179106097Y-92581903D02*
X179484000Y-92204000D01*
X179106097Y-93958012D02*
X179106097Y-92581903D01*
X167559034Y-92393628D02*
X167559034Y-92959340D01*
X168402000Y-91550662D02*
X167559034Y-92393628D01*
X168132000Y-88702000D02*
X168402000Y-88972000D01*
X168402000Y-88972000D02*
X168402000Y-91550662D01*
X167132000Y-88702000D02*
X168132000Y-88702000D01*
%TO.N,ADB_1_PWR_ON*%
X178765085Y-94996000D02*
X178259750Y-94490665D01*
X178525001Y-90010001D02*
X178259750Y-90275252D01*
X178525001Y-88952999D02*
X178525001Y-90010001D01*
X179832000Y-88646000D02*
X178832000Y-88646000D01*
X180340000Y-94996000D02*
X178765085Y-94996000D01*
X178259750Y-90275252D02*
X178259750Y-94490665D01*
X178832000Y-88646000D02*
X178525001Y-88952999D01*
%TO.N,GND*%
X168284044Y-92581956D02*
X168284044Y-94097956D01*
X168410000Y-92456000D02*
X168284044Y-92581956D01*
X168910000Y-92456000D02*
X168410000Y-92456000D01*
X168284044Y-94097956D02*
X165354000Y-97028000D01*
X162560696Y-55117304D02*
X162560696Y-60393343D01*
X162814000Y-54864000D02*
X162560696Y-55117304D01*
X173506499Y-80239501D02*
X173777825Y-80239501D01*
X169926000Y-86868000D02*
X174752000Y-86868000D01*
X174752000Y-86868000D02*
X175006000Y-86614000D01*
X173281254Y-80014256D02*
X173281254Y-76054442D01*
X173281254Y-76054442D02*
X173252979Y-76026167D01*
X173506499Y-80239501D02*
X173281254Y-80014256D01*
X176085001Y-84313997D02*
X175006000Y-85392998D01*
X175006000Y-85392998D02*
X175006000Y-86614000D01*
X175006000Y-79296998D02*
X176085001Y-80375999D01*
X176085001Y-80375999D02*
X176085001Y-84313997D01*
X175006000Y-77724000D02*
X175006000Y-79296998D01*
X173506499Y-83287501D02*
X169926000Y-86868000D01*
X173506499Y-80239501D02*
X173506499Y-83287501D01*
%TO.N,+3V3*%
X182617002Y-62708000D02*
X183388000Y-61937002D01*
X179832000Y-62708000D02*
X182617002Y-62708000D01*
X183388000Y-54864000D02*
X183134000Y-54610000D01*
X183388000Y-61937002D02*
X183388000Y-54864000D01*
X182880000Y-48290000D02*
X182880000Y-54356000D01*
X182880000Y-54356000D02*
X183134000Y-54610000D01*
X182088000Y-48290000D02*
X181102000Y-49276000D01*
X182880000Y-48290000D02*
X182088000Y-48290000D01*
X183134000Y-56642000D02*
X183388000Y-56388000D01*
X183328980Y-61996022D02*
X183388000Y-61937002D01*
X162814000Y-70866000D02*
X163285697Y-70394303D01*
X163576000Y-80518000D02*
X162814000Y-79756000D01*
X162814000Y-79756000D02*
X162814000Y-70866000D01*
X163285697Y-70394303D02*
X163285697Y-56351697D01*
X163285697Y-51219824D02*
X163285697Y-52963977D01*
X163285697Y-56351697D02*
X163685696Y-55951698D01*
X163685696Y-55951698D02*
X163685696Y-53363976D01*
X162675837Y-50609964D02*
X163285697Y-51219824D01*
X163685696Y-53363976D02*
X163285697Y-52963977D01*
%TO.N,VBUS*%
X183955010Y-52562795D02*
X183605010Y-52912795D01*
X183955010Y-46017418D02*
X183955010Y-52562795D01*
X183627592Y-45690000D02*
X183955010Y-46017418D01*
X182880000Y-45690000D02*
X183627592Y-45690000D01*
X183642000Y-45704408D02*
X183955010Y-46017418D01*
X183642000Y-44196000D02*
X183642000Y-45704408D01*
X179832000Y-65308000D02*
X182557002Y-65308000D01*
X182557002Y-65308000D02*
X184053990Y-63811012D01*
X184053990Y-63811012D02*
X184053990Y-53361775D01*
X184053990Y-53361775D02*
X183605010Y-52912795D01*
%TO.N,Net-(IC1-Pad26)*%
X166813019Y-59624060D02*
X166045879Y-60391200D01*
X166192213Y-60537534D02*
X166045879Y-60391200D01*
X166813019Y-55683226D02*
X166813019Y-59624060D01*
X166192213Y-68878009D02*
X166192213Y-60537534D01*
%TO.N,Net-(C6-Pad1)*%
X177038000Y-69342000D02*
X177038000Y-65742617D01*
X177038000Y-65742617D02*
X177139337Y-65641280D01*
X172556244Y-76402434D02*
X172527978Y-76374168D01*
X172527978Y-76374168D02*
X172527978Y-70991698D01*
X172527978Y-70991698D02*
X173278079Y-70241597D01*
X172556244Y-78711068D02*
X172556244Y-76402434D01*
%TO.N,Net-(C7-Pad1)*%
X169164000Y-70358000D02*
X169164000Y-74676000D01*
%TO.N,Net-(C12-Pad1)*%
X165338765Y-55895235D02*
X165338765Y-59684084D01*
X167132000Y-54102000D02*
X165338765Y-55895235D01*
%TO.N,MAX3421_INT*%
X164338000Y-77829168D02*
X164163706Y-77654874D01*
X164338000Y-79248000D02*
X164338000Y-77829168D01*
X166116000Y-50038000D02*
X164163706Y-51990294D01*
X164163706Y-51990294D02*
X164163706Y-77654874D01*
%TO.N,MAX3421_GPX*%
X166624000Y-76708000D02*
X166116000Y-77216000D01*
X166624000Y-75692000D02*
X166624000Y-76708000D01*
X164613763Y-55292552D02*
X167332975Y-52573340D01*
X164613763Y-75713763D02*
X164613763Y-55292552D01*
X166116000Y-77216000D02*
X164613763Y-75713763D01*
X167332975Y-52573340D02*
X167898660Y-52573340D01*
%TO.N,SPI_MOSI*%
X156464000Y-79248000D02*
X157226000Y-78486000D01*
X155956000Y-79248000D02*
X156464000Y-79248000D01*
X157226000Y-78486000D02*
X160876988Y-74835012D01*
X160876988Y-74835012D02*
X160876988Y-50206331D01*
X160876988Y-50206331D02*
X162695725Y-48387594D01*
%TO.N,SPI_MISO*%
X167680155Y-82013165D02*
X170418155Y-79275165D01*
X170418155Y-79275165D02*
X170418155Y-50476627D01*
X167132000Y-82561320D02*
X167680155Y-82013165D01*
X167132000Y-83566000D02*
X167132000Y-82561320D01*
%TO.N,MAX3421_SS*%
X157465000Y-75931000D02*
X157480000Y-75946000D01*
X155956000Y-75931000D02*
X157465000Y-75931000D01*
X160426977Y-72433338D02*
X160426977Y-49436872D01*
X160426977Y-49436872D02*
X162719325Y-47144524D01*
X157480000Y-75380315D02*
X160426977Y-72433338D01*
X162719325Y-47144524D02*
X163285010Y-47144524D01*
X157480000Y-75946000D02*
X157480000Y-75380315D01*
%TO.N,SPI_SCLK*%
X157196000Y-72614000D02*
X157226000Y-72644000D01*
X155956000Y-72614000D02*
X157196000Y-72614000D01*
X159073746Y-72761250D02*
X159073746Y-55238221D01*
X159073746Y-55238221D02*
X159701967Y-54610000D01*
%TO.N,MAX3421_RESET*%
X160528000Y-78994000D02*
X160782000Y-79248000D01*
X159258000Y-78994000D02*
X160528000Y-78994000D01*
X161326999Y-76925001D02*
X161326999Y-50795248D01*
X164274135Y-47848112D02*
X164274135Y-46997366D01*
X161326999Y-50795248D02*
X164274135Y-47848112D01*
X159258000Y-78994000D02*
X161326999Y-76925001D01*
%TO.N,Net-(J1-Pad3)*%
X179832000Y-64008000D02*
X182118000Y-64008000D01*
%TO.N,ADB_DATA_LV*%
X164592000Y-88702000D02*
X165592000Y-88702000D01*
X165592000Y-88702000D02*
X165767999Y-88526001D01*
X165767999Y-88526001D02*
X165767999Y-78637003D01*
X165767999Y-78637003D02*
X168365001Y-76040001D01*
X168365001Y-76040001D02*
X168365001Y-73623001D01*
X168365001Y-73623001D02*
X167894000Y-73152000D01*
%TO.N,ADB_PWR_ON_LV*%
X181372000Y-88646000D02*
X182372000Y-88646000D01*
X181712001Y-80621777D02*
X181296990Y-81036788D01*
X181296990Y-81036788D02*
X181296990Y-88570990D01*
X181296990Y-88570990D02*
X181372000Y-88646000D01*
X182112000Y-75940000D02*
X181712001Y-76339999D01*
X181712001Y-76339999D02*
X181712001Y-80621777D01*
%TO.N,Net-(TP1-Pad1)*%
X172212000Y-80772000D02*
X171758048Y-81225952D01*
X171758048Y-81225952D02*
X171394278Y-81225952D01*
%TO.N,Net-(TP2-Pad1)*%
X174231509Y-84086491D02*
X174231509Y-81583828D01*
X173228000Y-85090000D02*
X174231509Y-84086491D01*
%TO.N,Net-(TP13-Pad1)*%
X180086000Y-79502000D02*
X179578000Y-78994000D01*
X180848000Y-79502000D02*
X180086000Y-79502000D01*
%TO.N,Net-(TP14-Pad1)*%
X180594000Y-77978000D02*
X179578000Y-76962000D01*
X180594000Y-78486000D02*
X180594000Y-77978000D01*
%TO.N,Net-(TP15-Pad1)*%
X174244000Y-76708000D02*
X175006000Y-75946000D01*
X175006000Y-75946000D02*
X175153010Y-75946000D01*
%TO.N,Net-(TP16-Pad1)*%
X167640000Y-74676000D02*
X166624000Y-73660000D01*
%TO.N,Net-(TP17-Pad1)*%
X171704000Y-76708000D02*
X171196000Y-77216000D01*
X171196000Y-77216000D02*
X171196000Y-77470000D01*
%TO.N,FTDI_TXO*%
X183293001Y-76146263D02*
X182668204Y-76771060D01*
X183293001Y-70263001D02*
X183293001Y-76146263D01*
X182118000Y-69088000D02*
X183293001Y-70263001D01*
%TO.N,FTDI_RXI*%
X183100070Y-77762078D02*
X182534385Y-77762078D01*
X183743012Y-77119136D02*
X183100070Y-77762078D01*
X183743012Y-68173012D02*
X183743012Y-77119136D01*
X182118000Y-66548000D02*
X183743012Y-68173012D01*
%TO.N,Net-(C5-Pad1)*%
X178567830Y-70871830D02*
X178308000Y-70612000D01*
X178567830Y-77678744D02*
X178567830Y-70871830D01*
X178967829Y-78078743D02*
X178567830Y-77678744D01*
X177800000Y-62992000D02*
X177800000Y-57150000D01*
X177800000Y-57150000D02*
X177546000Y-56896000D01*
X177800000Y-62992000D02*
X178308000Y-63500000D01*
X178308000Y-63500000D02*
X178308000Y-70612000D01*
%TO.N,TTL_MAX3421_RESET*%
X159614522Y-80548000D02*
X159330522Y-80264000D01*
X160782000Y-80548000D02*
X159614522Y-80548000D01*
%TO.N,TTL_SPI_MOSI*%
X155956000Y-80548000D02*
X156942000Y-80548000D01*
X156942000Y-80548000D02*
X157430500Y-80059500D01*
X155956000Y-82550000D02*
X155956000Y-80548000D01*
%TO.N,TTL_SS*%
X156947681Y-77231000D02*
X157047518Y-77131163D01*
X155956000Y-77231000D02*
X156947681Y-77231000D01*
X157047518Y-77131163D02*
X157564837Y-77131163D01*
X158750000Y-75946000D02*
X158750000Y-75438000D01*
X157564837Y-77131163D02*
X158750000Y-75946000D01*
%TO.N,TTL_SPI_SCLK*%
X164338000Y-82296000D02*
X164338000Y-83820000D01*
X164338000Y-83820000D02*
X164846000Y-84328000D01*
X156210000Y-74168000D02*
X155956000Y-73914000D01*
X157480000Y-74168000D02*
X156210000Y-74168000D01*
X164338000Y-84836000D02*
X164846000Y-84328000D01*
X163322000Y-84836000D02*
X164338000Y-84836000D01*
%TO.N,Net-(JP8-Pad1)*%
X163094000Y-87402000D02*
X162814000Y-87122000D01*
X164592000Y-87402000D02*
X163094000Y-87402000D01*
X159766000Y-87122000D02*
X159766000Y-90932000D01*
X159766000Y-90932000D02*
X160020000Y-91186000D01*
%TO.N,Net-(JP8-Pad3)*%
X166972000Y-89890000D02*
X167719592Y-89890000D01*
X167132000Y-90002000D02*
X164592000Y-90002000D01*
%TO.N,Net-(JP9-Pad1)*%
X167920000Y-87402000D02*
X168656000Y-88138000D01*
X167132000Y-87402000D02*
X167920000Y-87402000D01*
%TO.N,Net-(JP10-Pad1)*%
X183779000Y-88035408D02*
X183779000Y-90678000D01*
X183119592Y-87376000D02*
X183779000Y-88035408D01*
X182372000Y-87376000D02*
X183119592Y-87376000D01*
%TO.N,Net-(JP10-Pad3)*%
X179862000Y-89976000D02*
X179832000Y-89946000D01*
X182372000Y-89976000D02*
X179862000Y-89976000D01*
%TO.N,Net-(JP11-Pad1)*%
X179354000Y-86868000D02*
X179832000Y-87346000D01*
X178562000Y-86868000D02*
X179354000Y-86868000D01*
%TO.N,Net-(R5-Pad2)*%
X162426001Y-62363999D02*
X162560000Y-62230000D01*
X162426001Y-68152999D02*
X162426001Y-62363999D01*
%TO.N,Net-(TP9-Pad1)*%
X175260000Y-80772000D02*
X175359991Y-80871991D01*
X175359991Y-80871991D02*
X175359991Y-81534000D01*
%TO.N,Net-(TP10-Pad1)*%
X176530000Y-84582000D02*
X177038000Y-84074000D01*
X176530000Y-85090000D02*
X176530000Y-84582000D01*
%TO.N,Net-(TP11-Pad1)*%
X179324000Y-82804000D02*
X179578000Y-83058000D01*
X178054000Y-82804000D02*
X179324000Y-82804000D01*
%TO.N,Net-(TP12-Pad1)*%
X179973150Y-80630850D02*
X180629924Y-80630850D01*
X179578000Y-81026000D02*
X179973150Y-80630850D01*
%TO.N,VCC*%
X170688000Y-80518000D02*
X171450000Y-79756000D01*
X171450000Y-79756000D02*
X171450000Y-78994000D01*
X175768000Y-77310446D02*
X175954182Y-77124264D01*
X175768000Y-78994000D02*
X175768000Y-77310446D01*
X176414327Y-65735003D02*
X175954182Y-66195148D01*
X175954182Y-66195148D02*
X175954182Y-77124264D01*
X176414327Y-52455673D02*
X176414327Y-65735003D01*
X181880000Y-46990000D02*
X176414327Y-52455673D01*
X182880000Y-46990000D02*
X181880000Y-46990000D01*
%TD*%
D26*
%TO.N,GND*%
X162179026Y-80180276D02*
X162208428Y-80216102D01*
X162273999Y-80296001D01*
X162303002Y-80319803D01*
X162541000Y-80557801D01*
X162541000Y-80619939D01*
X162580774Y-80819898D01*
X162658795Y-81008256D01*
X162772063Y-81177774D01*
X162916226Y-81321937D01*
X163085744Y-81435205D01*
X163274102Y-81513226D01*
X163474061Y-81553000D01*
X163617289Y-81553000D01*
X163534063Y-81636226D01*
X163420795Y-81805744D01*
X163342774Y-81994102D01*
X163303000Y-82194061D01*
X163303000Y-82397939D01*
X163342774Y-82597898D01*
X163420795Y-82786256D01*
X163534063Y-82955774D01*
X163578000Y-82999711D01*
X163578001Y-83729686D01*
X163433788Y-83701000D01*
X163210212Y-83701000D01*
X162990933Y-83744617D01*
X162784376Y-83830176D01*
X162598480Y-83954388D01*
X162440388Y-84112480D01*
X162316176Y-84298376D01*
X162230617Y-84504933D01*
X162187000Y-84724212D01*
X162187000Y-84947788D01*
X162230617Y-85167067D01*
X162316176Y-85373624D01*
X162440388Y-85559520D01*
X162598480Y-85717612D01*
X162784376Y-85841824D01*
X162990933Y-85927383D01*
X163210212Y-85971000D01*
X163433788Y-85971000D01*
X163653067Y-85927383D01*
X163859624Y-85841824D01*
X164045520Y-85717612D01*
X164167132Y-85596000D01*
X164300678Y-85596000D01*
X164338000Y-85599676D01*
X164375322Y-85596000D01*
X164375333Y-85596000D01*
X164486986Y-85585003D01*
X164630247Y-85541546D01*
X164762276Y-85470974D01*
X164878001Y-85376001D01*
X164888671Y-85363000D01*
X164947939Y-85363000D01*
X165007999Y-85351053D01*
X165007999Y-86277858D01*
X164891009Y-86266336D01*
X164866450Y-86266336D01*
X164842000Y-86263928D01*
X164342000Y-86263928D01*
X164317550Y-86266336D01*
X164292991Y-86266336D01*
X164168510Y-86278596D01*
X164072377Y-86297718D01*
X163952681Y-86334027D01*
X163862125Y-86371536D01*
X163751808Y-86430502D01*
X163670309Y-86484958D01*
X163646295Y-86504666D01*
X163617937Y-86462226D01*
X163473774Y-86318063D01*
X163304256Y-86204795D01*
X163115898Y-86126774D01*
X162915939Y-86087000D01*
X162712061Y-86087000D01*
X162512102Y-86126774D01*
X162323744Y-86204795D01*
X162154226Y-86318063D01*
X162010063Y-86462226D01*
X161896795Y-86631744D01*
X161818774Y-86820102D01*
X161779000Y-87020061D01*
X161779000Y-87223939D01*
X161818774Y-87423898D01*
X161896795Y-87612256D01*
X162010063Y-87781774D01*
X162154226Y-87925937D01*
X162323744Y-88039205D01*
X162512102Y-88117226D01*
X162712061Y-88157000D01*
X162915939Y-88157000D01*
X162945732Y-88151074D01*
X163056667Y-88162000D01*
X163056675Y-88162000D01*
X163094000Y-88165676D01*
X163131325Y-88162000D01*
X163207868Y-88162000D01*
X163203928Y-88202000D01*
X163203928Y-89202000D01*
X163216188Y-89326482D01*
X163216345Y-89327000D01*
X163216188Y-89327518D01*
X163203928Y-89452000D01*
X163203928Y-90002000D01*
X163206336Y-90026450D01*
X163206336Y-90051009D01*
X163218596Y-90175490D01*
X163237718Y-90271623D01*
X163274027Y-90391319D01*
X163311536Y-90481875D01*
X163370502Y-90592192D01*
X163424958Y-90673691D01*
X163504310Y-90770382D01*
X163573618Y-90839690D01*
X163670309Y-90919042D01*
X163737997Y-90964270D01*
X163609746Y-91017393D01*
X163390437Y-91163931D01*
X163203931Y-91350437D01*
X163141414Y-91444000D01*
X162899132Y-91444000D01*
X162775520Y-91320388D01*
X162589624Y-91196176D01*
X162383067Y-91110617D01*
X162163788Y-91067000D01*
X161940212Y-91067000D01*
X161720933Y-91110617D01*
X161514376Y-91196176D01*
X161328480Y-91320388D01*
X161170388Y-91478480D01*
X161046176Y-91664376D01*
X160960617Y-91870933D01*
X160917000Y-92090212D01*
X160917000Y-92313788D01*
X160960617Y-92533067D01*
X161046176Y-92739624D01*
X161170388Y-92925520D01*
X161328480Y-93083612D01*
X161514376Y-93207824D01*
X161720933Y-93293383D01*
X161940212Y-93337000D01*
X162163788Y-93337000D01*
X162383067Y-93293383D01*
X162589624Y-93207824D01*
X162775520Y-93083612D01*
X162895132Y-92964000D01*
X163141414Y-92964000D01*
X163203931Y-93057563D01*
X163390437Y-93244069D01*
X163609746Y-93390607D01*
X163853428Y-93491543D01*
X164112120Y-93543000D01*
X164375880Y-93543000D01*
X164634572Y-93491543D01*
X164878254Y-93390607D01*
X165097563Y-93244069D01*
X165144000Y-93197632D01*
X165190437Y-93244069D01*
X165409746Y-93390607D01*
X165653428Y-93491543D01*
X165912120Y-93543000D01*
X166175880Y-93543000D01*
X166434572Y-93491543D01*
X166626307Y-93412124D01*
X166641829Y-93449596D01*
X166755097Y-93619114D01*
X166899260Y-93763277D01*
X167068778Y-93876545D01*
X167257136Y-93954566D01*
X167457095Y-93994340D01*
X167660973Y-93994340D01*
X167860932Y-93954566D01*
X168049290Y-93876545D01*
X168218808Y-93763277D01*
X168362971Y-93619114D01*
X168476239Y-93449596D01*
X168554260Y-93261238D01*
X168594034Y-93061279D01*
X168594034Y-92857401D01*
X168554260Y-92657442D01*
X168500298Y-92527166D01*
X168675000Y-92352464D01*
X168675000Y-92756000D01*
X168680834Y-92815505D01*
X168686248Y-92874987D01*
X168686875Y-92877118D01*
X168687093Y-92879339D01*
X168704388Y-92936621D01*
X168721238Y-92993875D01*
X168722269Y-92995847D01*
X168722913Y-92997980D01*
X168750988Y-93050781D01*
X168778655Y-93103703D01*
X168780049Y-93105437D01*
X168781095Y-93107404D01*
X168818883Y-93153737D01*
X168856310Y-93200286D01*
X168858015Y-93201717D01*
X168859423Y-93203443D01*
X168905473Y-93241539D01*
X168951246Y-93279947D01*
X168953198Y-93281020D01*
X168954913Y-93282439D01*
X169007461Y-93310851D01*
X169059847Y-93339651D01*
X169061971Y-93340325D01*
X169063928Y-93341383D01*
X169089937Y-93349434D01*
X169120498Y-93450180D01*
X169179463Y-93560494D01*
X169258815Y-93657185D01*
X169355506Y-93736537D01*
X169450001Y-93787046D01*
X169450001Y-94364336D01*
X169446324Y-94401668D01*
X169447170Y-94410253D01*
X169420351Y-94545080D01*
X169420351Y-94748958D01*
X169460125Y-94948917D01*
X169468640Y-94969474D01*
X169293340Y-95113339D01*
X169164001Y-95270940D01*
X169034661Y-95113339D01*
X168800927Y-94921519D01*
X168534261Y-94778983D01*
X168244913Y-94691210D01*
X167944000Y-94661573D01*
X167643088Y-94691210D01*
X167353740Y-94778983D01*
X167087074Y-94921519D01*
X166853340Y-95113339D01*
X166661520Y-95347073D01*
X166518984Y-95613739D01*
X166431211Y-95903087D01*
X166409000Y-96128592D01*
X166409000Y-98079407D01*
X166431210Y-98304912D01*
X166518983Y-98594260D01*
X166661519Y-98860926D01*
X166700151Y-98908000D01*
X156387849Y-98908000D01*
X156426481Y-98860927D01*
X156569017Y-98594261D01*
X156656790Y-98304913D01*
X156679000Y-98079408D01*
X156679000Y-96183084D01*
X159301000Y-96183084D01*
X159301000Y-96624916D01*
X159387197Y-97058259D01*
X159556279Y-97466459D01*
X159801748Y-97833829D01*
X160114171Y-98146252D01*
X160481541Y-98391721D01*
X160889741Y-98560803D01*
X161323084Y-98647000D01*
X161764916Y-98647000D01*
X162198259Y-98560803D01*
X162606459Y-98391721D01*
X162973829Y-98146252D01*
X163286252Y-97833829D01*
X163531721Y-97466459D01*
X163700803Y-97058259D01*
X163787000Y-96624916D01*
X163787000Y-96183084D01*
X163700803Y-95749741D01*
X163531721Y-95341541D01*
X163286252Y-94974171D01*
X162973829Y-94661748D01*
X162606459Y-94416279D01*
X162198259Y-94247197D01*
X161764916Y-94161000D01*
X161323084Y-94161000D01*
X160889741Y-94247197D01*
X160481541Y-94416279D01*
X160114171Y-94661748D01*
X159801748Y-94974171D01*
X159556279Y-95341541D01*
X159387197Y-95749741D01*
X159301000Y-96183084D01*
X156679000Y-96183084D01*
X156679000Y-96128592D01*
X156656790Y-95903087D01*
X156569017Y-95613739D01*
X156426481Y-95347073D01*
X156234661Y-95113339D01*
X156000927Y-94921519D01*
X155734261Y-94778983D01*
X155444913Y-94691210D01*
X155144000Y-94661573D01*
X154843088Y-94691210D01*
X154584000Y-94769804D01*
X154584000Y-92072120D01*
X155705000Y-92072120D01*
X155705000Y-92335880D01*
X155756457Y-92594572D01*
X155857393Y-92838254D01*
X156003931Y-93057563D01*
X156190437Y-93244069D01*
X156409746Y-93390607D01*
X156653428Y-93491543D01*
X156912120Y-93543000D01*
X157175880Y-93543000D01*
X157434572Y-93491543D01*
X157678254Y-93390607D01*
X157897563Y-93244069D01*
X157944000Y-93197632D01*
X157990437Y-93244069D01*
X158209746Y-93390607D01*
X158453428Y-93491543D01*
X158712120Y-93543000D01*
X158975880Y-93543000D01*
X159234572Y-93491543D01*
X159478254Y-93390607D01*
X159697563Y-93244069D01*
X159884069Y-93057563D01*
X160030607Y-92838254D01*
X160131543Y-92594572D01*
X160183000Y-92335880D01*
X160183000Y-92208854D01*
X160321898Y-92181226D01*
X160510256Y-92103205D01*
X160679774Y-91989937D01*
X160823937Y-91845774D01*
X160937205Y-91676256D01*
X161015226Y-91487898D01*
X161055000Y-91287939D01*
X161055000Y-91084061D01*
X161015226Y-90884102D01*
X160937205Y-90695744D01*
X160823937Y-90526226D01*
X160679774Y-90382063D01*
X160526000Y-90279315D01*
X160526000Y-87825711D01*
X160569937Y-87781774D01*
X160683205Y-87612256D01*
X160761226Y-87423898D01*
X160801000Y-87223939D01*
X160801000Y-87020061D01*
X160761226Y-86820102D01*
X160683205Y-86631744D01*
X160569937Y-86462226D01*
X160425774Y-86318063D01*
X160256256Y-86204795D01*
X160067898Y-86126774D01*
X159867939Y-86087000D01*
X159664061Y-86087000D01*
X159464102Y-86126774D01*
X159275744Y-86204795D01*
X159106226Y-86318063D01*
X158962063Y-86462226D01*
X158848795Y-86631744D01*
X158770774Y-86820102D01*
X158731000Y-87020061D01*
X158731000Y-87223939D01*
X158770774Y-87423898D01*
X158848795Y-87612256D01*
X158962063Y-87781774D01*
X159006000Y-87825711D01*
X159006001Y-90870991D01*
X158975880Y-90865000D01*
X158712120Y-90865000D01*
X158453428Y-90916457D01*
X158209746Y-91017393D01*
X157990437Y-91163931D01*
X157944000Y-91210368D01*
X157897563Y-91163931D01*
X157678254Y-91017393D01*
X157434572Y-90916457D01*
X157175880Y-90865000D01*
X156912120Y-90865000D01*
X156653428Y-90916457D01*
X156409746Y-91017393D01*
X156190437Y-91163931D01*
X156003931Y-91350437D01*
X155857393Y-91569746D01*
X155756457Y-91813428D01*
X155705000Y-92072120D01*
X154584000Y-92072120D01*
X154584000Y-80728548D01*
X154601718Y-80817623D01*
X154638027Y-80937319D01*
X154675536Y-81027875D01*
X154734502Y-81138192D01*
X154788958Y-81219691D01*
X154868310Y-81316382D01*
X154937618Y-81385690D01*
X155034309Y-81465042D01*
X155115808Y-81519498D01*
X155196000Y-81562362D01*
X155196000Y-81704868D01*
X155074388Y-81826480D01*
X154950176Y-82012376D01*
X154864617Y-82218933D01*
X154821000Y-82438212D01*
X154821000Y-82661788D01*
X154864617Y-82881067D01*
X154950176Y-83087624D01*
X155074388Y-83273520D01*
X155232480Y-83431612D01*
X155418376Y-83555824D01*
X155624933Y-83641383D01*
X155844212Y-83685000D01*
X156067788Y-83685000D01*
X156287067Y-83641383D01*
X156493624Y-83555824D01*
X156679520Y-83431612D01*
X156837612Y-83273520D01*
X156961824Y-83087624D01*
X157047383Y-82881067D01*
X157091000Y-82661788D01*
X157091000Y-82438212D01*
X157047383Y-82218933D01*
X156961824Y-82012376D01*
X156837612Y-81826480D01*
X156716000Y-81704868D01*
X156716000Y-81562362D01*
X156796192Y-81519498D01*
X156877691Y-81465042D01*
X156974382Y-81385690D01*
X157043690Y-81316382D01*
X157056833Y-81300367D01*
X157090986Y-81297003D01*
X157234247Y-81253546D01*
X157366276Y-81182974D01*
X157474082Y-81094500D01*
X157532439Y-81094500D01*
X157732398Y-81054726D01*
X157920756Y-80976705D01*
X158090274Y-80863437D01*
X158234437Y-80719274D01*
X158335917Y-80567398D01*
X158413317Y-80754256D01*
X158526585Y-80923774D01*
X158670748Y-81067937D01*
X158840266Y-81181205D01*
X159028624Y-81259226D01*
X159228583Y-81299000D01*
X159432461Y-81299000D01*
X159456413Y-81294236D01*
X159465536Y-81297003D01*
X159577189Y-81308000D01*
X159577197Y-81308000D01*
X159614522Y-81311676D01*
X159651847Y-81308000D01*
X159687431Y-81308000D01*
X159694310Y-81316382D01*
X159763618Y-81385690D01*
X159860309Y-81465042D01*
X159941808Y-81519498D01*
X160052125Y-81578464D01*
X160142681Y-81615973D01*
X160262377Y-81652282D01*
X160358510Y-81671404D01*
X160482991Y-81683664D01*
X160507550Y-81683664D01*
X160532000Y-81686072D01*
X161032000Y-81686072D01*
X161056450Y-81683664D01*
X161081009Y-81683664D01*
X161205490Y-81671404D01*
X161301623Y-81652282D01*
X161421319Y-81615973D01*
X161511875Y-81578464D01*
X161622192Y-81519498D01*
X161703691Y-81465042D01*
X161800382Y-81385690D01*
X161869690Y-81316382D01*
X161949042Y-81219691D01*
X162003498Y-81138192D01*
X162062464Y-81027875D01*
X162099973Y-80937319D01*
X162136282Y-80817623D01*
X162155404Y-80721490D01*
X162167664Y-80597009D01*
X162167664Y-80572450D01*
X162170072Y-80548000D01*
X162170072Y-80163524D01*
X162179026Y-80180276D01*
%TA.AperFunction,Conductor*%
D27*
G36*
X162179026Y-80180276D02*
G01*
X162208428Y-80216102D01*
X162273999Y-80296001D01*
X162303002Y-80319803D01*
X162541000Y-80557801D01*
X162541000Y-80619939D01*
X162580774Y-80819898D01*
X162658795Y-81008256D01*
X162772063Y-81177774D01*
X162916226Y-81321937D01*
X163085744Y-81435205D01*
X163274102Y-81513226D01*
X163474061Y-81553000D01*
X163617289Y-81553000D01*
X163534063Y-81636226D01*
X163420795Y-81805744D01*
X163342774Y-81994102D01*
X163303000Y-82194061D01*
X163303000Y-82397939D01*
X163342774Y-82597898D01*
X163420795Y-82786256D01*
X163534063Y-82955774D01*
X163578000Y-82999711D01*
X163578001Y-83729686D01*
X163433788Y-83701000D01*
X163210212Y-83701000D01*
X162990933Y-83744617D01*
X162784376Y-83830176D01*
X162598480Y-83954388D01*
X162440388Y-84112480D01*
X162316176Y-84298376D01*
X162230617Y-84504933D01*
X162187000Y-84724212D01*
X162187000Y-84947788D01*
X162230617Y-85167067D01*
X162316176Y-85373624D01*
X162440388Y-85559520D01*
X162598480Y-85717612D01*
X162784376Y-85841824D01*
X162990933Y-85927383D01*
X163210212Y-85971000D01*
X163433788Y-85971000D01*
X163653067Y-85927383D01*
X163859624Y-85841824D01*
X164045520Y-85717612D01*
X164167132Y-85596000D01*
X164300678Y-85596000D01*
X164338000Y-85599676D01*
X164375322Y-85596000D01*
X164375333Y-85596000D01*
X164486986Y-85585003D01*
X164630247Y-85541546D01*
X164762276Y-85470974D01*
X164878001Y-85376001D01*
X164888671Y-85363000D01*
X164947939Y-85363000D01*
X165007999Y-85351053D01*
X165007999Y-86277858D01*
X164891009Y-86266336D01*
X164866450Y-86266336D01*
X164842000Y-86263928D01*
X164342000Y-86263928D01*
X164317550Y-86266336D01*
X164292991Y-86266336D01*
X164168510Y-86278596D01*
X164072377Y-86297718D01*
X163952681Y-86334027D01*
X163862125Y-86371536D01*
X163751808Y-86430502D01*
X163670309Y-86484958D01*
X163646295Y-86504666D01*
X163617937Y-86462226D01*
X163473774Y-86318063D01*
X163304256Y-86204795D01*
X163115898Y-86126774D01*
X162915939Y-86087000D01*
X162712061Y-86087000D01*
X162512102Y-86126774D01*
X162323744Y-86204795D01*
X162154226Y-86318063D01*
X162010063Y-86462226D01*
X161896795Y-86631744D01*
X161818774Y-86820102D01*
X161779000Y-87020061D01*
X161779000Y-87223939D01*
X161818774Y-87423898D01*
X161896795Y-87612256D01*
X162010063Y-87781774D01*
X162154226Y-87925937D01*
X162323744Y-88039205D01*
X162512102Y-88117226D01*
X162712061Y-88157000D01*
X162915939Y-88157000D01*
X162945732Y-88151074D01*
X163056667Y-88162000D01*
X163056675Y-88162000D01*
X163094000Y-88165676D01*
X163131325Y-88162000D01*
X163207868Y-88162000D01*
X163203928Y-88202000D01*
X163203928Y-89202000D01*
X163216188Y-89326482D01*
X163216345Y-89327000D01*
X163216188Y-89327518D01*
X163203928Y-89452000D01*
X163203928Y-90002000D01*
X163206336Y-90026450D01*
X163206336Y-90051009D01*
X163218596Y-90175490D01*
X163237718Y-90271623D01*
X163274027Y-90391319D01*
X163311536Y-90481875D01*
X163370502Y-90592192D01*
X163424958Y-90673691D01*
X163504310Y-90770382D01*
X163573618Y-90839690D01*
X163670309Y-90919042D01*
X163737997Y-90964270D01*
X163609746Y-91017393D01*
X163390437Y-91163931D01*
X163203931Y-91350437D01*
X163141414Y-91444000D01*
X162899132Y-91444000D01*
X162775520Y-91320388D01*
X162589624Y-91196176D01*
X162383067Y-91110617D01*
X162163788Y-91067000D01*
X161940212Y-91067000D01*
X161720933Y-91110617D01*
X161514376Y-91196176D01*
X161328480Y-91320388D01*
X161170388Y-91478480D01*
X161046176Y-91664376D01*
X160960617Y-91870933D01*
X160917000Y-92090212D01*
X160917000Y-92313788D01*
X160960617Y-92533067D01*
X161046176Y-92739624D01*
X161170388Y-92925520D01*
X161328480Y-93083612D01*
X161514376Y-93207824D01*
X161720933Y-93293383D01*
X161940212Y-93337000D01*
X162163788Y-93337000D01*
X162383067Y-93293383D01*
X162589624Y-93207824D01*
X162775520Y-93083612D01*
X162895132Y-92964000D01*
X163141414Y-92964000D01*
X163203931Y-93057563D01*
X163390437Y-93244069D01*
X163609746Y-93390607D01*
X163853428Y-93491543D01*
X164112120Y-93543000D01*
X164375880Y-93543000D01*
X164634572Y-93491543D01*
X164878254Y-93390607D01*
X165097563Y-93244069D01*
X165144000Y-93197632D01*
X165190437Y-93244069D01*
X165409746Y-93390607D01*
X165653428Y-93491543D01*
X165912120Y-93543000D01*
X166175880Y-93543000D01*
X166434572Y-93491543D01*
X166626307Y-93412124D01*
X166641829Y-93449596D01*
X166755097Y-93619114D01*
X166899260Y-93763277D01*
X167068778Y-93876545D01*
X167257136Y-93954566D01*
X167457095Y-93994340D01*
X167660973Y-93994340D01*
X167860932Y-93954566D01*
X168049290Y-93876545D01*
X168218808Y-93763277D01*
X168362971Y-93619114D01*
X168476239Y-93449596D01*
X168554260Y-93261238D01*
X168594034Y-93061279D01*
X168594034Y-92857401D01*
X168554260Y-92657442D01*
X168500298Y-92527166D01*
X168675000Y-92352464D01*
X168675000Y-92756000D01*
X168680834Y-92815505D01*
X168686248Y-92874987D01*
X168686875Y-92877118D01*
X168687093Y-92879339D01*
X168704388Y-92936621D01*
X168721238Y-92993875D01*
X168722269Y-92995847D01*
X168722913Y-92997980D01*
X168750988Y-93050781D01*
X168778655Y-93103703D01*
X168780049Y-93105437D01*
X168781095Y-93107404D01*
X168818883Y-93153737D01*
X168856310Y-93200286D01*
X168858015Y-93201717D01*
X168859423Y-93203443D01*
X168905473Y-93241539D01*
X168951246Y-93279947D01*
X168953198Y-93281020D01*
X168954913Y-93282439D01*
X169007461Y-93310851D01*
X169059847Y-93339651D01*
X169061971Y-93340325D01*
X169063928Y-93341383D01*
X169089937Y-93349434D01*
X169120498Y-93450180D01*
X169179463Y-93560494D01*
X169258815Y-93657185D01*
X169355506Y-93736537D01*
X169450001Y-93787046D01*
X169450001Y-94364336D01*
X169446324Y-94401668D01*
X169447170Y-94410253D01*
X169420351Y-94545080D01*
X169420351Y-94748958D01*
X169460125Y-94948917D01*
X169468640Y-94969474D01*
X169293340Y-95113339D01*
X169164001Y-95270940D01*
X169034661Y-95113339D01*
X168800927Y-94921519D01*
X168534261Y-94778983D01*
X168244913Y-94691210D01*
X167944000Y-94661573D01*
X167643088Y-94691210D01*
X167353740Y-94778983D01*
X167087074Y-94921519D01*
X166853340Y-95113339D01*
X166661520Y-95347073D01*
X166518984Y-95613739D01*
X166431211Y-95903087D01*
X166409000Y-96128592D01*
X166409000Y-98079407D01*
X166431210Y-98304912D01*
X166518983Y-98594260D01*
X166661519Y-98860926D01*
X166700151Y-98908000D01*
X156387849Y-98908000D01*
X156426481Y-98860927D01*
X156569017Y-98594261D01*
X156656790Y-98304913D01*
X156679000Y-98079408D01*
X156679000Y-96183084D01*
X159301000Y-96183084D01*
X159301000Y-96624916D01*
X159387197Y-97058259D01*
X159556279Y-97466459D01*
X159801748Y-97833829D01*
X160114171Y-98146252D01*
X160481541Y-98391721D01*
X160889741Y-98560803D01*
X161323084Y-98647000D01*
X161764916Y-98647000D01*
X162198259Y-98560803D01*
X162606459Y-98391721D01*
X162973829Y-98146252D01*
X163286252Y-97833829D01*
X163531721Y-97466459D01*
X163700803Y-97058259D01*
X163787000Y-96624916D01*
X163787000Y-96183084D01*
X163700803Y-95749741D01*
X163531721Y-95341541D01*
X163286252Y-94974171D01*
X162973829Y-94661748D01*
X162606459Y-94416279D01*
X162198259Y-94247197D01*
X161764916Y-94161000D01*
X161323084Y-94161000D01*
X160889741Y-94247197D01*
X160481541Y-94416279D01*
X160114171Y-94661748D01*
X159801748Y-94974171D01*
X159556279Y-95341541D01*
X159387197Y-95749741D01*
X159301000Y-96183084D01*
X156679000Y-96183084D01*
X156679000Y-96128592D01*
X156656790Y-95903087D01*
X156569017Y-95613739D01*
X156426481Y-95347073D01*
X156234661Y-95113339D01*
X156000927Y-94921519D01*
X155734261Y-94778983D01*
X155444913Y-94691210D01*
X155144000Y-94661573D01*
X154843088Y-94691210D01*
X154584000Y-94769804D01*
X154584000Y-92072120D01*
X155705000Y-92072120D01*
X155705000Y-92335880D01*
X155756457Y-92594572D01*
X155857393Y-92838254D01*
X156003931Y-93057563D01*
X156190437Y-93244069D01*
X156409746Y-93390607D01*
X156653428Y-93491543D01*
X156912120Y-93543000D01*
X157175880Y-93543000D01*
X157434572Y-93491543D01*
X157678254Y-93390607D01*
X157897563Y-93244069D01*
X157944000Y-93197632D01*
X157990437Y-93244069D01*
X158209746Y-93390607D01*
X158453428Y-93491543D01*
X158712120Y-93543000D01*
X158975880Y-93543000D01*
X159234572Y-93491543D01*
X159478254Y-93390607D01*
X159697563Y-93244069D01*
X159884069Y-93057563D01*
X160030607Y-92838254D01*
X160131543Y-92594572D01*
X160183000Y-92335880D01*
X160183000Y-92208854D01*
X160321898Y-92181226D01*
X160510256Y-92103205D01*
X160679774Y-91989937D01*
X160823937Y-91845774D01*
X160937205Y-91676256D01*
X161015226Y-91487898D01*
X161055000Y-91287939D01*
X161055000Y-91084061D01*
X161015226Y-90884102D01*
X160937205Y-90695744D01*
X160823937Y-90526226D01*
X160679774Y-90382063D01*
X160526000Y-90279315D01*
X160526000Y-87825711D01*
X160569937Y-87781774D01*
X160683205Y-87612256D01*
X160761226Y-87423898D01*
X160801000Y-87223939D01*
X160801000Y-87020061D01*
X160761226Y-86820102D01*
X160683205Y-86631744D01*
X160569937Y-86462226D01*
X160425774Y-86318063D01*
X160256256Y-86204795D01*
X160067898Y-86126774D01*
X159867939Y-86087000D01*
X159664061Y-86087000D01*
X159464102Y-86126774D01*
X159275744Y-86204795D01*
X159106226Y-86318063D01*
X158962063Y-86462226D01*
X158848795Y-86631744D01*
X158770774Y-86820102D01*
X158731000Y-87020061D01*
X158731000Y-87223939D01*
X158770774Y-87423898D01*
X158848795Y-87612256D01*
X158962063Y-87781774D01*
X159006000Y-87825711D01*
X159006001Y-90870991D01*
X158975880Y-90865000D01*
X158712120Y-90865000D01*
X158453428Y-90916457D01*
X158209746Y-91017393D01*
X157990437Y-91163931D01*
X157944000Y-91210368D01*
X157897563Y-91163931D01*
X157678254Y-91017393D01*
X157434572Y-90916457D01*
X157175880Y-90865000D01*
X156912120Y-90865000D01*
X156653428Y-90916457D01*
X156409746Y-91017393D01*
X156190437Y-91163931D01*
X156003931Y-91350437D01*
X155857393Y-91569746D01*
X155756457Y-91813428D01*
X155705000Y-92072120D01*
X154584000Y-92072120D01*
X154584000Y-80728548D01*
X154601718Y-80817623D01*
X154638027Y-80937319D01*
X154675536Y-81027875D01*
X154734502Y-81138192D01*
X154788958Y-81219691D01*
X154868310Y-81316382D01*
X154937618Y-81385690D01*
X155034309Y-81465042D01*
X155115808Y-81519498D01*
X155196000Y-81562362D01*
X155196000Y-81704868D01*
X155074388Y-81826480D01*
X154950176Y-82012376D01*
X154864617Y-82218933D01*
X154821000Y-82438212D01*
X154821000Y-82661788D01*
X154864617Y-82881067D01*
X154950176Y-83087624D01*
X155074388Y-83273520D01*
X155232480Y-83431612D01*
X155418376Y-83555824D01*
X155624933Y-83641383D01*
X155844212Y-83685000D01*
X156067788Y-83685000D01*
X156287067Y-83641383D01*
X156493624Y-83555824D01*
X156679520Y-83431612D01*
X156837612Y-83273520D01*
X156961824Y-83087624D01*
X157047383Y-82881067D01*
X157091000Y-82661788D01*
X157091000Y-82438212D01*
X157047383Y-82218933D01*
X156961824Y-82012376D01*
X156837612Y-81826480D01*
X156716000Y-81704868D01*
X156716000Y-81562362D01*
X156796192Y-81519498D01*
X156877691Y-81465042D01*
X156974382Y-81385690D01*
X157043690Y-81316382D01*
X157056833Y-81300367D01*
X157090986Y-81297003D01*
X157234247Y-81253546D01*
X157366276Y-81182974D01*
X157474082Y-81094500D01*
X157532439Y-81094500D01*
X157732398Y-81054726D01*
X157920756Y-80976705D01*
X158090274Y-80863437D01*
X158234437Y-80719274D01*
X158335917Y-80567398D01*
X158413317Y-80754256D01*
X158526585Y-80923774D01*
X158670748Y-81067937D01*
X158840266Y-81181205D01*
X159028624Y-81259226D01*
X159228583Y-81299000D01*
X159432461Y-81299000D01*
X159456413Y-81294236D01*
X159465536Y-81297003D01*
X159577189Y-81308000D01*
X159577197Y-81308000D01*
X159614522Y-81311676D01*
X159651847Y-81308000D01*
X159687431Y-81308000D01*
X159694310Y-81316382D01*
X159763618Y-81385690D01*
X159860309Y-81465042D01*
X159941808Y-81519498D01*
X160052125Y-81578464D01*
X160142681Y-81615973D01*
X160262377Y-81652282D01*
X160358510Y-81671404D01*
X160482991Y-81683664D01*
X160507550Y-81683664D01*
X160532000Y-81686072D01*
X161032000Y-81686072D01*
X161056450Y-81683664D01*
X161081009Y-81683664D01*
X161205490Y-81671404D01*
X161301623Y-81652282D01*
X161421319Y-81615973D01*
X161511875Y-81578464D01*
X161622192Y-81519498D01*
X161703691Y-81465042D01*
X161800382Y-81385690D01*
X161869690Y-81316382D01*
X161949042Y-81219691D01*
X162003498Y-81138192D01*
X162062464Y-81027875D01*
X162099973Y-80937319D01*
X162136282Y-80817623D01*
X162155404Y-80721490D01*
X162167664Y-80597009D01*
X162167664Y-80572450D01*
X162170072Y-80548000D01*
X162170072Y-80163524D01*
X162179026Y-80180276D01*
G37*
%TD.AperFunction*%
D26*
X176736102Y-70337226D02*
X176936061Y-70377000D01*
X177139939Y-70377000D01*
X177306039Y-70343961D01*
X177273000Y-70510061D01*
X177273000Y-70713939D01*
X177312774Y-70913898D01*
X177390795Y-71102256D01*
X177504063Y-71271774D01*
X177648226Y-71415937D01*
X177807831Y-71522581D01*
X177807830Y-77641421D01*
X177804154Y-77678744D01*
X177807830Y-77716066D01*
X177807830Y-77716076D01*
X177818827Y-77827729D01*
X177850292Y-77931457D01*
X177862284Y-77970990D01*
X177932829Y-78102969D01*
X177932829Y-78180682D01*
X177972603Y-78380641D01*
X178050624Y-78568999D01*
X178163892Y-78738517D01*
X178308055Y-78882680D01*
X178443000Y-78972847D01*
X178443000Y-79105788D01*
X178486617Y-79325067D01*
X178572176Y-79531624D01*
X178696388Y-79717520D01*
X178854480Y-79875612D01*
X179040376Y-79999824D01*
X179064943Y-80010000D01*
X179040376Y-80020176D01*
X178854480Y-80144388D01*
X178696388Y-80302480D01*
X178572176Y-80488376D01*
X178486617Y-80694933D01*
X178443000Y-80914212D01*
X178443000Y-81137788D01*
X178486617Y-81357067D01*
X178572176Y-81563624D01*
X178696388Y-81749520D01*
X178854480Y-81907612D01*
X179040376Y-82031824D01*
X179064943Y-82042000D01*
X179060115Y-82044000D01*
X178757711Y-82044000D01*
X178713774Y-82000063D01*
X178544256Y-81886795D01*
X178355898Y-81808774D01*
X178155939Y-81769000D01*
X177952061Y-81769000D01*
X177752102Y-81808774D01*
X177563744Y-81886795D01*
X177394226Y-82000063D01*
X177250063Y-82144226D01*
X177136795Y-82313744D01*
X177058774Y-82502102D01*
X177019000Y-82702061D01*
X177019000Y-82905939D01*
X177045467Y-83039000D01*
X176936061Y-83039000D01*
X176736102Y-83078774D01*
X176547744Y-83156795D01*
X176378226Y-83270063D01*
X176234063Y-83414226D01*
X176120795Y-83583744D01*
X176042774Y-83772102D01*
X176003000Y-83972061D01*
X176003000Y-84031330D01*
X175990000Y-84041999D01*
X175910473Y-84138902D01*
X175806480Y-84208388D01*
X175648388Y-84366480D01*
X175524176Y-84552376D01*
X175438617Y-84758933D01*
X175395000Y-84978212D01*
X175395000Y-85201788D01*
X175438617Y-85421067D01*
X175524176Y-85627624D01*
X175648388Y-85813520D01*
X175806480Y-85971612D01*
X175992376Y-86095824D01*
X176198933Y-86181383D01*
X176418212Y-86225000D01*
X176641788Y-86225000D01*
X176861067Y-86181383D01*
X177067624Y-86095824D01*
X177253520Y-85971612D01*
X177411612Y-85813520D01*
X177535824Y-85627624D01*
X177621383Y-85421067D01*
X177665000Y-85201788D01*
X177665000Y-84978212D01*
X177651239Y-84909031D01*
X177697774Y-84877937D01*
X177841937Y-84733774D01*
X177955205Y-84564256D01*
X178033226Y-84375898D01*
X178073000Y-84175939D01*
X178073000Y-83972061D01*
X178046533Y-83839000D01*
X178155939Y-83839000D01*
X178355898Y-83799226D01*
X178544256Y-83721205D01*
X178621569Y-83669546D01*
X178696388Y-83781520D01*
X178854480Y-83939612D01*
X179040376Y-84063824D01*
X179246933Y-84149383D01*
X179466212Y-84193000D01*
X179689788Y-84193000D01*
X179909067Y-84149383D01*
X180115624Y-84063824D01*
X180301520Y-83939612D01*
X180459612Y-83781520D01*
X180536990Y-83665715D01*
X180536991Y-86305229D01*
X180471319Y-86278027D01*
X180351623Y-86241718D01*
X180255490Y-86222596D01*
X180131009Y-86210336D01*
X180106450Y-86210336D01*
X180082000Y-86207928D01*
X179731322Y-86207928D01*
X179646247Y-86162454D01*
X179502986Y-86118997D01*
X179391333Y-86108000D01*
X179391322Y-86108000D01*
X179354000Y-86104324D01*
X179316678Y-86108000D01*
X179265711Y-86108000D01*
X179221774Y-86064063D01*
X179052256Y-85950795D01*
X178863898Y-85872774D01*
X178663939Y-85833000D01*
X178460061Y-85833000D01*
X178260102Y-85872774D01*
X178071744Y-85950795D01*
X177902226Y-86064063D01*
X177758063Y-86208226D01*
X177644795Y-86377744D01*
X177566774Y-86566102D01*
X177527000Y-86766061D01*
X177527000Y-86969939D01*
X177566774Y-87169898D01*
X177644795Y-87358256D01*
X177758063Y-87527774D01*
X177902226Y-87671937D01*
X178071744Y-87785205D01*
X178260102Y-87863226D01*
X178444309Y-87899867D01*
X178452880Y-87986890D01*
X178407724Y-88011026D01*
X178291999Y-88105999D01*
X178268196Y-88135003D01*
X178014004Y-88389195D01*
X177985000Y-88412998D01*
X177946686Y-88459684D01*
X177890027Y-88528723D01*
X177837496Y-88627000D01*
X177698061Y-88627000D01*
X177498102Y-88666774D01*
X177309744Y-88744795D01*
X177140226Y-88858063D01*
X176996063Y-89002226D01*
X176882795Y-89171744D01*
X176804774Y-89360102D01*
X176765000Y-89560061D01*
X176765000Y-89617933D01*
X176759786Y-89622212D01*
X176715203Y-89676537D01*
X176664813Y-89737937D01*
X176603303Y-89853014D01*
X176594241Y-89869967D01*
X176550784Y-90013228D01*
X176539787Y-90124881D01*
X176539787Y-90124891D01*
X176536111Y-90162213D01*
X176539787Y-90199536D01*
X176539788Y-92297278D01*
X176495850Y-92341216D01*
X176382582Y-92510734D01*
X176304561Y-92699092D01*
X176264787Y-92899051D01*
X176264787Y-93102929D01*
X176304561Y-93302888D01*
X176382582Y-93491246D01*
X176495850Y-93660764D01*
X176640013Y-93804927D01*
X176809531Y-93918195D01*
X176997889Y-93996216D01*
X177197848Y-94035990D01*
X177327807Y-94035990D01*
X177264524Y-94188767D01*
X177259956Y-94211731D01*
X177004916Y-94161000D01*
X176563084Y-94161000D01*
X176129741Y-94247197D01*
X175721541Y-94416279D01*
X175354171Y-94661748D01*
X175041748Y-94974171D01*
X174796279Y-95341541D01*
X174627197Y-95749741D01*
X174541000Y-96183084D01*
X174541000Y-96624916D01*
X174627197Y-97058259D01*
X174796279Y-97466459D01*
X175041748Y-97833829D01*
X175354171Y-98146252D01*
X175721541Y-98391721D01*
X176129741Y-98560803D01*
X176563084Y-98647000D01*
X177004916Y-98647000D01*
X177438259Y-98560803D01*
X177846459Y-98391721D01*
X178213829Y-98146252D01*
X178526252Y-97833829D01*
X178771721Y-97466459D01*
X178940803Y-97058259D01*
X179027000Y-96624916D01*
X179027000Y-96183084D01*
X178942048Y-95756000D01*
X179494868Y-95756000D01*
X179616480Y-95877612D01*
X179802376Y-96001824D01*
X180008933Y-96087383D01*
X180228212Y-96131000D01*
X180451788Y-96131000D01*
X180671067Y-96087383D01*
X180877624Y-96001824D01*
X181063520Y-95877612D01*
X181221612Y-95719520D01*
X181345824Y-95533624D01*
X181431383Y-95327067D01*
X181475000Y-95107788D01*
X181475000Y-94884212D01*
X181431383Y-94664933D01*
X181345824Y-94458376D01*
X181221612Y-94272480D01*
X181063520Y-94114388D01*
X180877624Y-93990176D01*
X180671067Y-93904617D01*
X180451788Y-93861000D01*
X180228212Y-93861000D01*
X180141097Y-93878328D01*
X180141097Y-93856073D01*
X180101323Y-93656114D01*
X180023302Y-93467756D01*
X180003510Y-93438135D01*
X180118254Y-93390607D01*
X180337563Y-93244069D01*
X180384000Y-93197632D01*
X180430437Y-93244069D01*
X180649746Y-93390607D01*
X180893428Y-93491543D01*
X181152120Y-93543000D01*
X181368199Y-93543000D01*
X181491000Y-93665802D01*
X181491000Y-93837788D01*
X181534617Y-94057067D01*
X181620176Y-94263624D01*
X181744388Y-94449520D01*
X181902480Y-94607612D01*
X182088376Y-94731824D01*
X182294933Y-94817383D01*
X182460343Y-94850285D01*
X182327074Y-94921519D01*
X182093340Y-95113339D01*
X181901520Y-95347073D01*
X181758984Y-95613739D01*
X181671211Y-95903087D01*
X181649000Y-96128592D01*
X181649000Y-98079407D01*
X181671210Y-98304912D01*
X181758983Y-98594260D01*
X181901519Y-98860926D01*
X181940151Y-98908000D01*
X171627849Y-98908000D01*
X171666481Y-98860927D01*
X171809017Y-98594261D01*
X171896790Y-98304913D01*
X171919000Y-98079408D01*
X171919000Y-96128592D01*
X171896790Y-95903087D01*
X171824417Y-95664505D01*
X171864870Y-95704958D01*
X172034388Y-95818226D01*
X172093000Y-95842504D01*
X172093000Y-95869788D01*
X172136617Y-96089067D01*
X172222176Y-96295624D01*
X172346388Y-96481520D01*
X172504480Y-96639612D01*
X172690376Y-96763824D01*
X172896933Y-96849383D01*
X173116212Y-96893000D01*
X173339788Y-96893000D01*
X173559067Y-96849383D01*
X173765624Y-96763824D01*
X173951520Y-96639612D01*
X174109612Y-96481520D01*
X174233824Y-96295624D01*
X174319383Y-96089067D01*
X174363000Y-95869788D01*
X174363000Y-95646212D01*
X174319383Y-95426933D01*
X174233824Y-95220376D01*
X174109612Y-95034480D01*
X173951520Y-94876388D01*
X173765624Y-94752176D01*
X173559067Y-94666617D01*
X173532234Y-94661280D01*
X173519870Y-94599123D01*
X173441849Y-94410765D01*
X173328581Y-94241247D01*
X173184418Y-94097084D01*
X173044000Y-94003260D01*
X173044000Y-93306586D01*
X173137563Y-93244069D01*
X173184000Y-93197632D01*
X173230437Y-93244069D01*
X173449746Y-93390607D01*
X173693428Y-93491543D01*
X173952120Y-93543000D01*
X174215880Y-93543000D01*
X174474572Y-93491543D01*
X174718254Y-93390607D01*
X174937563Y-93244069D01*
X175124069Y-93057563D01*
X175270607Y-92838254D01*
X175371543Y-92594572D01*
X175423000Y-92335880D01*
X175423000Y-92072120D01*
X175371543Y-91813428D01*
X175270607Y-91569746D01*
X175124069Y-91350437D01*
X174937563Y-91163931D01*
X174718254Y-91017393D01*
X174474572Y-90916457D01*
X174215880Y-90865000D01*
X173952120Y-90865000D01*
X173693428Y-90916457D01*
X173449746Y-91017393D01*
X173230437Y-91163931D01*
X173184000Y-91210368D01*
X173137563Y-91163931D01*
X172918254Y-91017393D01*
X172674572Y-90916457D01*
X172415880Y-90865000D01*
X172152120Y-90865000D01*
X171893428Y-90916457D01*
X171649746Y-91017393D01*
X171430437Y-91163931D01*
X171243931Y-91350437D01*
X171123751Y-91530299D01*
X171047690Y-91437618D01*
X170978382Y-91368310D01*
X170881691Y-91288958D01*
X170800192Y-91234502D01*
X170689875Y-91175536D01*
X170599319Y-91138027D01*
X170479623Y-91101718D01*
X170383490Y-91082596D01*
X170259009Y-91070336D01*
X170234450Y-91070336D01*
X170210000Y-91067928D01*
X169710000Y-91067928D01*
X169585518Y-91080188D01*
X169465820Y-91116498D01*
X169355506Y-91175463D01*
X169258815Y-91254815D01*
X169179463Y-91351506D01*
X169162000Y-91384176D01*
X169162000Y-89044685D01*
X169315774Y-88941937D01*
X169459937Y-88797774D01*
X169573205Y-88628256D01*
X169651226Y-88439898D01*
X169691000Y-88239939D01*
X169691000Y-88036061D01*
X169651226Y-87836102D01*
X169573205Y-87647744D01*
X169459937Y-87478226D01*
X169315774Y-87334063D01*
X169146256Y-87220795D01*
X168957898Y-87142774D01*
X168757939Y-87103000D01*
X168695801Y-87103000D01*
X168483803Y-86891002D01*
X168460001Y-86861999D01*
X168344276Y-86767026D01*
X168312075Y-86749814D01*
X168299042Y-86730309D01*
X168219690Y-86633618D01*
X168150382Y-86564310D01*
X168053691Y-86484958D01*
X167972192Y-86430502D01*
X167861875Y-86371536D01*
X167771319Y-86334027D01*
X167651623Y-86297718D01*
X167555490Y-86278596D01*
X167431009Y-86266336D01*
X167406450Y-86266336D01*
X167382000Y-86263928D01*
X166882000Y-86263928D01*
X166857550Y-86266336D01*
X166832991Y-86266336D01*
X166708510Y-86278596D01*
X166612377Y-86297718D01*
X166527999Y-86323314D01*
X166527999Y-84527472D01*
X166594376Y-84571824D01*
X166800933Y-84657383D01*
X167020212Y-84701000D01*
X167243788Y-84701000D01*
X167463067Y-84657383D01*
X167669624Y-84571824D01*
X167855520Y-84447612D01*
X168013612Y-84289520D01*
X168137824Y-84103624D01*
X168223383Y-83897067D01*
X168267000Y-83677788D01*
X168267000Y-83454212D01*
X168223383Y-83234933D01*
X168137824Y-83028376D01*
X168093598Y-82962187D01*
X168170411Y-82930370D01*
X168339929Y-82817102D01*
X168484092Y-82672939D01*
X168597360Y-82503421D01*
X168675381Y-82315063D01*
X168715155Y-82115104D01*
X168715155Y-82052966D01*
X169767594Y-81000528D01*
X169770795Y-81008256D01*
X169884063Y-81177774D01*
X170028226Y-81321937D01*
X170197744Y-81435205D01*
X170386102Y-81513226D01*
X170396557Y-81515306D01*
X170399052Y-81527850D01*
X170477073Y-81716208D01*
X170590341Y-81885726D01*
X170734504Y-82029889D01*
X170904022Y-82143157D01*
X171092380Y-82221178D01*
X171292339Y-82260952D01*
X171496217Y-82260952D01*
X171696176Y-82221178D01*
X171884534Y-82143157D01*
X172054052Y-82029889D01*
X172176941Y-81907000D01*
X172323788Y-81907000D01*
X172543067Y-81863383D01*
X172749624Y-81777824D01*
X172935520Y-81653612D01*
X173093612Y-81495520D01*
X173217824Y-81309624D01*
X173303383Y-81103067D01*
X173347000Y-80883788D01*
X173347000Y-80660212D01*
X173303383Y-80440933D01*
X173217824Y-80234376D01*
X173093612Y-80048480D01*
X172935520Y-79890388D01*
X172749624Y-79766176D01*
X172687163Y-79740304D01*
X172858142Y-79706294D01*
X173046500Y-79628273D01*
X173216018Y-79515005D01*
X173360181Y-79370842D01*
X173473449Y-79201324D01*
X173551470Y-79012966D01*
X173591244Y-78813007D01*
X173591244Y-78609129D01*
X173551470Y-78409170D01*
X173473449Y-78220812D01*
X173360181Y-78051294D01*
X173316244Y-78007357D01*
X173316244Y-77362461D01*
X173362388Y-77431520D01*
X173520480Y-77589612D01*
X173706376Y-77713824D01*
X173912933Y-77799383D01*
X174132212Y-77843000D01*
X174355788Y-77843000D01*
X174575067Y-77799383D01*
X174781624Y-77713824D01*
X174967520Y-77589612D01*
X175008001Y-77549131D01*
X175008000Y-78290289D01*
X174964063Y-78334226D01*
X174850795Y-78503744D01*
X174772774Y-78692102D01*
X174733000Y-78892061D01*
X174733000Y-79095939D01*
X174772774Y-79295898D01*
X174850795Y-79484256D01*
X174964063Y-79653774D01*
X174980624Y-79670335D01*
X174928933Y-79680617D01*
X174722376Y-79766176D01*
X174536480Y-79890388D01*
X174378388Y-80048480D01*
X174254176Y-80234376D01*
X174168617Y-80440933D01*
X174147156Y-80548828D01*
X174129570Y-80548828D01*
X173929611Y-80588602D01*
X173741253Y-80666623D01*
X173571735Y-80779891D01*
X173427572Y-80924054D01*
X173314304Y-81093572D01*
X173236283Y-81281930D01*
X173196509Y-81481889D01*
X173196509Y-81685767D01*
X173236283Y-81885726D01*
X173314304Y-82074084D01*
X173427572Y-82243602D01*
X173471510Y-82287540D01*
X173471509Y-83771689D01*
X173288198Y-83955000D01*
X173116212Y-83955000D01*
X172896933Y-83998617D01*
X172690376Y-84084176D01*
X172504480Y-84208388D01*
X172346388Y-84366480D01*
X172222176Y-84552376D01*
X172136617Y-84758933D01*
X172093000Y-84978212D01*
X172093000Y-85201788D01*
X172136617Y-85421067D01*
X172222176Y-85627624D01*
X172346388Y-85813520D01*
X172504480Y-85971612D01*
X172690376Y-86095824D01*
X172896933Y-86181383D01*
X173116212Y-86225000D01*
X173339788Y-86225000D01*
X173559067Y-86181383D01*
X173765624Y-86095824D01*
X173951520Y-85971612D01*
X174109612Y-85813520D01*
X174233824Y-85627624D01*
X174319383Y-85421067D01*
X174363000Y-85201788D01*
X174363000Y-85029802D01*
X174742513Y-84650289D01*
X174771510Y-84626492D01*
X174822586Y-84564256D01*
X174866483Y-84510768D01*
X174937055Y-84378738D01*
X174951937Y-84329677D01*
X174980512Y-84235477D01*
X174991509Y-84123824D01*
X174991509Y-84123815D01*
X174995185Y-84086492D01*
X174991509Y-84049169D01*
X174991509Y-82501646D01*
X175058093Y-82529226D01*
X175258052Y-82569000D01*
X175461930Y-82569000D01*
X175661889Y-82529226D01*
X175850247Y-82451205D01*
X176019765Y-82337937D01*
X176163928Y-82193774D01*
X176277196Y-82024256D01*
X176355217Y-81835898D01*
X176394991Y-81635939D01*
X176394991Y-81432061D01*
X176355217Y-81232102D01*
X176326576Y-81162957D01*
X176351383Y-81103067D01*
X176395000Y-80883788D01*
X176395000Y-80660212D01*
X176351383Y-80440933D01*
X176265824Y-80234376D01*
X176141612Y-80048480D01*
X176078709Y-79985577D01*
X176258256Y-79911205D01*
X176427774Y-79797937D01*
X176571937Y-79653774D01*
X176685205Y-79484256D01*
X176763226Y-79295898D01*
X176803000Y-79095939D01*
X176803000Y-78892061D01*
X176763226Y-78692102D01*
X176685205Y-78503744D01*
X176571937Y-78334226D01*
X176528000Y-78290289D01*
X176528000Y-77985635D01*
X176613956Y-77928201D01*
X176758119Y-77784038D01*
X176871387Y-77614520D01*
X176949408Y-77426162D01*
X176989182Y-77226203D01*
X176989182Y-77022325D01*
X176949408Y-76822366D01*
X176871387Y-76634008D01*
X176758119Y-76464490D01*
X176714182Y-76420553D01*
X176714182Y-70328146D01*
X176736102Y-70337226D01*
%TA.AperFunction,Conductor*%
D27*
G36*
X176736102Y-70337226D02*
G01*
X176936061Y-70377000D01*
X177139939Y-70377000D01*
X177306039Y-70343961D01*
X177273000Y-70510061D01*
X177273000Y-70713939D01*
X177312774Y-70913898D01*
X177390795Y-71102256D01*
X177504063Y-71271774D01*
X177648226Y-71415937D01*
X177807831Y-71522581D01*
X177807830Y-77641421D01*
X177804154Y-77678744D01*
X177807830Y-77716066D01*
X177807830Y-77716076D01*
X177818827Y-77827729D01*
X177850292Y-77931457D01*
X177862284Y-77970990D01*
X177932829Y-78102969D01*
X177932829Y-78180682D01*
X177972603Y-78380641D01*
X178050624Y-78568999D01*
X178163892Y-78738517D01*
X178308055Y-78882680D01*
X178443000Y-78972847D01*
X178443000Y-79105788D01*
X178486617Y-79325067D01*
X178572176Y-79531624D01*
X178696388Y-79717520D01*
X178854480Y-79875612D01*
X179040376Y-79999824D01*
X179064943Y-80010000D01*
X179040376Y-80020176D01*
X178854480Y-80144388D01*
X178696388Y-80302480D01*
X178572176Y-80488376D01*
X178486617Y-80694933D01*
X178443000Y-80914212D01*
X178443000Y-81137788D01*
X178486617Y-81357067D01*
X178572176Y-81563624D01*
X178696388Y-81749520D01*
X178854480Y-81907612D01*
X179040376Y-82031824D01*
X179064943Y-82042000D01*
X179060115Y-82044000D01*
X178757711Y-82044000D01*
X178713774Y-82000063D01*
X178544256Y-81886795D01*
X178355898Y-81808774D01*
X178155939Y-81769000D01*
X177952061Y-81769000D01*
X177752102Y-81808774D01*
X177563744Y-81886795D01*
X177394226Y-82000063D01*
X177250063Y-82144226D01*
X177136795Y-82313744D01*
X177058774Y-82502102D01*
X177019000Y-82702061D01*
X177019000Y-82905939D01*
X177045467Y-83039000D01*
X176936061Y-83039000D01*
X176736102Y-83078774D01*
X176547744Y-83156795D01*
X176378226Y-83270063D01*
X176234063Y-83414226D01*
X176120795Y-83583744D01*
X176042774Y-83772102D01*
X176003000Y-83972061D01*
X176003000Y-84031330D01*
X175990000Y-84041999D01*
X175910473Y-84138902D01*
X175806480Y-84208388D01*
X175648388Y-84366480D01*
X175524176Y-84552376D01*
X175438617Y-84758933D01*
X175395000Y-84978212D01*
X175395000Y-85201788D01*
X175438617Y-85421067D01*
X175524176Y-85627624D01*
X175648388Y-85813520D01*
X175806480Y-85971612D01*
X175992376Y-86095824D01*
X176198933Y-86181383D01*
X176418212Y-86225000D01*
X176641788Y-86225000D01*
X176861067Y-86181383D01*
X177067624Y-86095824D01*
X177253520Y-85971612D01*
X177411612Y-85813520D01*
X177535824Y-85627624D01*
X177621383Y-85421067D01*
X177665000Y-85201788D01*
X177665000Y-84978212D01*
X177651239Y-84909031D01*
X177697774Y-84877937D01*
X177841937Y-84733774D01*
X177955205Y-84564256D01*
X178033226Y-84375898D01*
X178073000Y-84175939D01*
X178073000Y-83972061D01*
X178046533Y-83839000D01*
X178155939Y-83839000D01*
X178355898Y-83799226D01*
X178544256Y-83721205D01*
X178621569Y-83669546D01*
X178696388Y-83781520D01*
X178854480Y-83939612D01*
X179040376Y-84063824D01*
X179246933Y-84149383D01*
X179466212Y-84193000D01*
X179689788Y-84193000D01*
X179909067Y-84149383D01*
X180115624Y-84063824D01*
X180301520Y-83939612D01*
X180459612Y-83781520D01*
X180536990Y-83665715D01*
X180536991Y-86305229D01*
X180471319Y-86278027D01*
X180351623Y-86241718D01*
X180255490Y-86222596D01*
X180131009Y-86210336D01*
X180106450Y-86210336D01*
X180082000Y-86207928D01*
X179731322Y-86207928D01*
X179646247Y-86162454D01*
X179502986Y-86118997D01*
X179391333Y-86108000D01*
X179391322Y-86108000D01*
X179354000Y-86104324D01*
X179316678Y-86108000D01*
X179265711Y-86108000D01*
X179221774Y-86064063D01*
X179052256Y-85950795D01*
X178863898Y-85872774D01*
X178663939Y-85833000D01*
X178460061Y-85833000D01*
X178260102Y-85872774D01*
X178071744Y-85950795D01*
X177902226Y-86064063D01*
X177758063Y-86208226D01*
X177644795Y-86377744D01*
X177566774Y-86566102D01*
X177527000Y-86766061D01*
X177527000Y-86969939D01*
X177566774Y-87169898D01*
X177644795Y-87358256D01*
X177758063Y-87527774D01*
X177902226Y-87671937D01*
X178071744Y-87785205D01*
X178260102Y-87863226D01*
X178444309Y-87899867D01*
X178452880Y-87986890D01*
X178407724Y-88011026D01*
X178291999Y-88105999D01*
X178268196Y-88135003D01*
X178014004Y-88389195D01*
X177985000Y-88412998D01*
X177946686Y-88459684D01*
X177890027Y-88528723D01*
X177837496Y-88627000D01*
X177698061Y-88627000D01*
X177498102Y-88666774D01*
X177309744Y-88744795D01*
X177140226Y-88858063D01*
X176996063Y-89002226D01*
X176882795Y-89171744D01*
X176804774Y-89360102D01*
X176765000Y-89560061D01*
X176765000Y-89617933D01*
X176759786Y-89622212D01*
X176715203Y-89676537D01*
X176664813Y-89737937D01*
X176603303Y-89853014D01*
X176594241Y-89869967D01*
X176550784Y-90013228D01*
X176539787Y-90124881D01*
X176539787Y-90124891D01*
X176536111Y-90162213D01*
X176539787Y-90199536D01*
X176539788Y-92297278D01*
X176495850Y-92341216D01*
X176382582Y-92510734D01*
X176304561Y-92699092D01*
X176264787Y-92899051D01*
X176264787Y-93102929D01*
X176304561Y-93302888D01*
X176382582Y-93491246D01*
X176495850Y-93660764D01*
X176640013Y-93804927D01*
X176809531Y-93918195D01*
X176997889Y-93996216D01*
X177197848Y-94035990D01*
X177327807Y-94035990D01*
X177264524Y-94188767D01*
X177259956Y-94211731D01*
X177004916Y-94161000D01*
X176563084Y-94161000D01*
X176129741Y-94247197D01*
X175721541Y-94416279D01*
X175354171Y-94661748D01*
X175041748Y-94974171D01*
X174796279Y-95341541D01*
X174627197Y-95749741D01*
X174541000Y-96183084D01*
X174541000Y-96624916D01*
X174627197Y-97058259D01*
X174796279Y-97466459D01*
X175041748Y-97833829D01*
X175354171Y-98146252D01*
X175721541Y-98391721D01*
X176129741Y-98560803D01*
X176563084Y-98647000D01*
X177004916Y-98647000D01*
X177438259Y-98560803D01*
X177846459Y-98391721D01*
X178213829Y-98146252D01*
X178526252Y-97833829D01*
X178771721Y-97466459D01*
X178940803Y-97058259D01*
X179027000Y-96624916D01*
X179027000Y-96183084D01*
X178942048Y-95756000D01*
X179494868Y-95756000D01*
X179616480Y-95877612D01*
X179802376Y-96001824D01*
X180008933Y-96087383D01*
X180228212Y-96131000D01*
X180451788Y-96131000D01*
X180671067Y-96087383D01*
X180877624Y-96001824D01*
X181063520Y-95877612D01*
X181221612Y-95719520D01*
X181345824Y-95533624D01*
X181431383Y-95327067D01*
X181475000Y-95107788D01*
X181475000Y-94884212D01*
X181431383Y-94664933D01*
X181345824Y-94458376D01*
X181221612Y-94272480D01*
X181063520Y-94114388D01*
X180877624Y-93990176D01*
X180671067Y-93904617D01*
X180451788Y-93861000D01*
X180228212Y-93861000D01*
X180141097Y-93878328D01*
X180141097Y-93856073D01*
X180101323Y-93656114D01*
X180023302Y-93467756D01*
X180003510Y-93438135D01*
X180118254Y-93390607D01*
X180337563Y-93244069D01*
X180384000Y-93197632D01*
X180430437Y-93244069D01*
X180649746Y-93390607D01*
X180893428Y-93491543D01*
X181152120Y-93543000D01*
X181368199Y-93543000D01*
X181491000Y-93665802D01*
X181491000Y-93837788D01*
X181534617Y-94057067D01*
X181620176Y-94263624D01*
X181744388Y-94449520D01*
X181902480Y-94607612D01*
X182088376Y-94731824D01*
X182294933Y-94817383D01*
X182460343Y-94850285D01*
X182327074Y-94921519D01*
X182093340Y-95113339D01*
X181901520Y-95347073D01*
X181758984Y-95613739D01*
X181671211Y-95903087D01*
X181649000Y-96128592D01*
X181649000Y-98079407D01*
X181671210Y-98304912D01*
X181758983Y-98594260D01*
X181901519Y-98860926D01*
X181940151Y-98908000D01*
X171627849Y-98908000D01*
X171666481Y-98860927D01*
X171809017Y-98594261D01*
X171896790Y-98304913D01*
X171919000Y-98079408D01*
X171919000Y-96128592D01*
X171896790Y-95903087D01*
X171824417Y-95664505D01*
X171864870Y-95704958D01*
X172034388Y-95818226D01*
X172093000Y-95842504D01*
X172093000Y-95869788D01*
X172136617Y-96089067D01*
X172222176Y-96295624D01*
X172346388Y-96481520D01*
X172504480Y-96639612D01*
X172690376Y-96763824D01*
X172896933Y-96849383D01*
X173116212Y-96893000D01*
X173339788Y-96893000D01*
X173559067Y-96849383D01*
X173765624Y-96763824D01*
X173951520Y-96639612D01*
X174109612Y-96481520D01*
X174233824Y-96295624D01*
X174319383Y-96089067D01*
X174363000Y-95869788D01*
X174363000Y-95646212D01*
X174319383Y-95426933D01*
X174233824Y-95220376D01*
X174109612Y-95034480D01*
X173951520Y-94876388D01*
X173765624Y-94752176D01*
X173559067Y-94666617D01*
X173532234Y-94661280D01*
X173519870Y-94599123D01*
X173441849Y-94410765D01*
X173328581Y-94241247D01*
X173184418Y-94097084D01*
X173044000Y-94003260D01*
X173044000Y-93306586D01*
X173137563Y-93244069D01*
X173184000Y-93197632D01*
X173230437Y-93244069D01*
X173449746Y-93390607D01*
X173693428Y-93491543D01*
X173952120Y-93543000D01*
X174215880Y-93543000D01*
X174474572Y-93491543D01*
X174718254Y-93390607D01*
X174937563Y-93244069D01*
X175124069Y-93057563D01*
X175270607Y-92838254D01*
X175371543Y-92594572D01*
X175423000Y-92335880D01*
X175423000Y-92072120D01*
X175371543Y-91813428D01*
X175270607Y-91569746D01*
X175124069Y-91350437D01*
X174937563Y-91163931D01*
X174718254Y-91017393D01*
X174474572Y-90916457D01*
X174215880Y-90865000D01*
X173952120Y-90865000D01*
X173693428Y-90916457D01*
X173449746Y-91017393D01*
X173230437Y-91163931D01*
X173184000Y-91210368D01*
X173137563Y-91163931D01*
X172918254Y-91017393D01*
X172674572Y-90916457D01*
X172415880Y-90865000D01*
X172152120Y-90865000D01*
X171893428Y-90916457D01*
X171649746Y-91017393D01*
X171430437Y-91163931D01*
X171243931Y-91350437D01*
X171123751Y-91530299D01*
X171047690Y-91437618D01*
X170978382Y-91368310D01*
X170881691Y-91288958D01*
X170800192Y-91234502D01*
X170689875Y-91175536D01*
X170599319Y-91138027D01*
X170479623Y-91101718D01*
X170383490Y-91082596D01*
X170259009Y-91070336D01*
X170234450Y-91070336D01*
X170210000Y-91067928D01*
X169710000Y-91067928D01*
X169585518Y-91080188D01*
X169465820Y-91116498D01*
X169355506Y-91175463D01*
X169258815Y-91254815D01*
X169179463Y-91351506D01*
X169162000Y-91384176D01*
X169162000Y-89044685D01*
X169315774Y-88941937D01*
X169459937Y-88797774D01*
X169573205Y-88628256D01*
X169651226Y-88439898D01*
X169691000Y-88239939D01*
X169691000Y-88036061D01*
X169651226Y-87836102D01*
X169573205Y-87647744D01*
X169459937Y-87478226D01*
X169315774Y-87334063D01*
X169146256Y-87220795D01*
X168957898Y-87142774D01*
X168757939Y-87103000D01*
X168695801Y-87103000D01*
X168483803Y-86891002D01*
X168460001Y-86861999D01*
X168344276Y-86767026D01*
X168312075Y-86749814D01*
X168299042Y-86730309D01*
X168219690Y-86633618D01*
X168150382Y-86564310D01*
X168053691Y-86484958D01*
X167972192Y-86430502D01*
X167861875Y-86371536D01*
X167771319Y-86334027D01*
X167651623Y-86297718D01*
X167555490Y-86278596D01*
X167431009Y-86266336D01*
X167406450Y-86266336D01*
X167382000Y-86263928D01*
X166882000Y-86263928D01*
X166857550Y-86266336D01*
X166832991Y-86266336D01*
X166708510Y-86278596D01*
X166612377Y-86297718D01*
X166527999Y-86323314D01*
X166527999Y-84527472D01*
X166594376Y-84571824D01*
X166800933Y-84657383D01*
X167020212Y-84701000D01*
X167243788Y-84701000D01*
X167463067Y-84657383D01*
X167669624Y-84571824D01*
X167855520Y-84447612D01*
X168013612Y-84289520D01*
X168137824Y-84103624D01*
X168223383Y-83897067D01*
X168267000Y-83677788D01*
X168267000Y-83454212D01*
X168223383Y-83234933D01*
X168137824Y-83028376D01*
X168093598Y-82962187D01*
X168170411Y-82930370D01*
X168339929Y-82817102D01*
X168484092Y-82672939D01*
X168597360Y-82503421D01*
X168675381Y-82315063D01*
X168715155Y-82115104D01*
X168715155Y-82052966D01*
X169767594Y-81000528D01*
X169770795Y-81008256D01*
X169884063Y-81177774D01*
X170028226Y-81321937D01*
X170197744Y-81435205D01*
X170386102Y-81513226D01*
X170396557Y-81515306D01*
X170399052Y-81527850D01*
X170477073Y-81716208D01*
X170590341Y-81885726D01*
X170734504Y-82029889D01*
X170904022Y-82143157D01*
X171092380Y-82221178D01*
X171292339Y-82260952D01*
X171496217Y-82260952D01*
X171696176Y-82221178D01*
X171884534Y-82143157D01*
X172054052Y-82029889D01*
X172176941Y-81907000D01*
X172323788Y-81907000D01*
X172543067Y-81863383D01*
X172749624Y-81777824D01*
X172935520Y-81653612D01*
X173093612Y-81495520D01*
X173217824Y-81309624D01*
X173303383Y-81103067D01*
X173347000Y-80883788D01*
X173347000Y-80660212D01*
X173303383Y-80440933D01*
X173217824Y-80234376D01*
X173093612Y-80048480D01*
X172935520Y-79890388D01*
X172749624Y-79766176D01*
X172687163Y-79740304D01*
X172858142Y-79706294D01*
X173046500Y-79628273D01*
X173216018Y-79515005D01*
X173360181Y-79370842D01*
X173473449Y-79201324D01*
X173551470Y-79012966D01*
X173591244Y-78813007D01*
X173591244Y-78609129D01*
X173551470Y-78409170D01*
X173473449Y-78220812D01*
X173360181Y-78051294D01*
X173316244Y-78007357D01*
X173316244Y-77362461D01*
X173362388Y-77431520D01*
X173520480Y-77589612D01*
X173706376Y-77713824D01*
X173912933Y-77799383D01*
X174132212Y-77843000D01*
X174355788Y-77843000D01*
X174575067Y-77799383D01*
X174781624Y-77713824D01*
X174967520Y-77589612D01*
X175008001Y-77549131D01*
X175008000Y-78290289D01*
X174964063Y-78334226D01*
X174850795Y-78503744D01*
X174772774Y-78692102D01*
X174733000Y-78892061D01*
X174733000Y-79095939D01*
X174772774Y-79295898D01*
X174850795Y-79484256D01*
X174964063Y-79653774D01*
X174980624Y-79670335D01*
X174928933Y-79680617D01*
X174722376Y-79766176D01*
X174536480Y-79890388D01*
X174378388Y-80048480D01*
X174254176Y-80234376D01*
X174168617Y-80440933D01*
X174147156Y-80548828D01*
X174129570Y-80548828D01*
X173929611Y-80588602D01*
X173741253Y-80666623D01*
X173571735Y-80779891D01*
X173427572Y-80924054D01*
X173314304Y-81093572D01*
X173236283Y-81281930D01*
X173196509Y-81481889D01*
X173196509Y-81685767D01*
X173236283Y-81885726D01*
X173314304Y-82074084D01*
X173427572Y-82243602D01*
X173471510Y-82287540D01*
X173471509Y-83771689D01*
X173288198Y-83955000D01*
X173116212Y-83955000D01*
X172896933Y-83998617D01*
X172690376Y-84084176D01*
X172504480Y-84208388D01*
X172346388Y-84366480D01*
X172222176Y-84552376D01*
X172136617Y-84758933D01*
X172093000Y-84978212D01*
X172093000Y-85201788D01*
X172136617Y-85421067D01*
X172222176Y-85627624D01*
X172346388Y-85813520D01*
X172504480Y-85971612D01*
X172690376Y-86095824D01*
X172896933Y-86181383D01*
X173116212Y-86225000D01*
X173339788Y-86225000D01*
X173559067Y-86181383D01*
X173765624Y-86095824D01*
X173951520Y-85971612D01*
X174109612Y-85813520D01*
X174233824Y-85627624D01*
X174319383Y-85421067D01*
X174363000Y-85201788D01*
X174363000Y-85029802D01*
X174742513Y-84650289D01*
X174771510Y-84626492D01*
X174822586Y-84564256D01*
X174866483Y-84510768D01*
X174937055Y-84378738D01*
X174951937Y-84329677D01*
X174980512Y-84235477D01*
X174991509Y-84123824D01*
X174991509Y-84123815D01*
X174995185Y-84086492D01*
X174991509Y-84049169D01*
X174991509Y-82501646D01*
X175058093Y-82529226D01*
X175258052Y-82569000D01*
X175461930Y-82569000D01*
X175661889Y-82529226D01*
X175850247Y-82451205D01*
X176019765Y-82337937D01*
X176163928Y-82193774D01*
X176277196Y-82024256D01*
X176355217Y-81835898D01*
X176394991Y-81635939D01*
X176394991Y-81432061D01*
X176355217Y-81232102D01*
X176326576Y-81162957D01*
X176351383Y-81103067D01*
X176395000Y-80883788D01*
X176395000Y-80660212D01*
X176351383Y-80440933D01*
X176265824Y-80234376D01*
X176141612Y-80048480D01*
X176078709Y-79985577D01*
X176258256Y-79911205D01*
X176427774Y-79797937D01*
X176571937Y-79653774D01*
X176685205Y-79484256D01*
X176763226Y-79295898D01*
X176803000Y-79095939D01*
X176803000Y-78892061D01*
X176763226Y-78692102D01*
X176685205Y-78503744D01*
X176571937Y-78334226D01*
X176528000Y-78290289D01*
X176528000Y-77985635D01*
X176613956Y-77928201D01*
X176758119Y-77784038D01*
X176871387Y-77614520D01*
X176949408Y-77426162D01*
X176989182Y-77226203D01*
X176989182Y-77022325D01*
X176949408Y-76822366D01*
X176871387Y-76634008D01*
X176758119Y-76464490D01*
X176714182Y-76420553D01*
X176714182Y-70328146D01*
X176736102Y-70337226D01*
G37*
%TD.AperFunction*%
D26*
X183744000Y-86925607D02*
X183683395Y-86865002D01*
X183659593Y-86835999D01*
X183618206Y-86802034D01*
X183593498Y-86755808D01*
X183539042Y-86674309D01*
X183459690Y-86577618D01*
X183390382Y-86508310D01*
X183293691Y-86428958D01*
X183212192Y-86374502D01*
X183101875Y-86315536D01*
X183011319Y-86278027D01*
X182891623Y-86241718D01*
X182795490Y-86222596D01*
X182671009Y-86210336D01*
X182646450Y-86210336D01*
X182622000Y-86207928D01*
X182122000Y-86207928D01*
X182097550Y-86210336D01*
X182072991Y-86210336D01*
X182056990Y-86211912D01*
X182056990Y-81351589D01*
X182222998Y-81185581D01*
X182252002Y-81161778D01*
X182346975Y-81046053D01*
X182417547Y-80914024D01*
X182461004Y-80770763D01*
X182472001Y-80659110D01*
X182472001Y-80659101D01*
X182475677Y-80621778D01*
X182472001Y-80584455D01*
X182472001Y-78797078D01*
X182636324Y-78797078D01*
X182836283Y-78757304D01*
X183024641Y-78679283D01*
X183194159Y-78566015D01*
X183249109Y-78511065D01*
X183392317Y-78467624D01*
X183524346Y-78397052D01*
X183640071Y-78302079D01*
X183663873Y-78273076D01*
X183744000Y-78192949D01*
X183744000Y-86925607D01*
%TA.AperFunction,Conductor*%
D27*
G36*
X183744000Y-86925607D02*
G01*
X183683395Y-86865002D01*
X183659593Y-86835999D01*
X183618206Y-86802034D01*
X183593498Y-86755808D01*
X183539042Y-86674309D01*
X183459690Y-86577618D01*
X183390382Y-86508310D01*
X183293691Y-86428958D01*
X183212192Y-86374502D01*
X183101875Y-86315536D01*
X183011319Y-86278027D01*
X182891623Y-86241718D01*
X182795490Y-86222596D01*
X182671009Y-86210336D01*
X182646450Y-86210336D01*
X182622000Y-86207928D01*
X182122000Y-86207928D01*
X182097550Y-86210336D01*
X182072991Y-86210336D01*
X182056990Y-86211912D01*
X182056990Y-81351589D01*
X182222998Y-81185581D01*
X182252002Y-81161778D01*
X182346975Y-81046053D01*
X182417547Y-80914024D01*
X182461004Y-80770763D01*
X182472001Y-80659110D01*
X182472001Y-80659101D01*
X182475677Y-80621778D01*
X182472001Y-80584455D01*
X182472001Y-78797078D01*
X182636324Y-78797078D01*
X182836283Y-78757304D01*
X183024641Y-78679283D01*
X183194159Y-78566015D01*
X183249109Y-78511065D01*
X183392317Y-78467624D01*
X183524346Y-78397052D01*
X183640071Y-78302079D01*
X183663873Y-78273076D01*
X183744000Y-78192949D01*
X183744000Y-86925607D01*
G37*
%TD.AperFunction*%
D26*
X180633000Y-66401740D02*
X180633000Y-66694260D01*
X180690068Y-66981158D01*
X180802010Y-67251411D01*
X180964525Y-67494632D01*
X181171368Y-67701475D01*
X181345760Y-67818000D01*
X181171368Y-67934525D01*
X180964525Y-68141368D01*
X180802010Y-68384589D01*
X180690068Y-68654842D01*
X180633000Y-68941740D01*
X180633000Y-69234260D01*
X180690068Y-69521158D01*
X180802010Y-69791411D01*
X180964525Y-70034632D01*
X181171368Y-70241475D01*
X181345760Y-70358000D01*
X181171368Y-70474525D01*
X180964525Y-70681368D01*
X180802010Y-70924589D01*
X180690068Y-71194842D01*
X180633000Y-71481740D01*
X180633000Y-71774260D01*
X180690068Y-72061158D01*
X180802010Y-72331411D01*
X180964525Y-72574632D01*
X181171368Y-72781475D01*
X181414589Y-72943990D01*
X181684842Y-73055932D01*
X181971740Y-73113000D01*
X182264260Y-73113000D01*
X182533001Y-73059544D01*
X182533002Y-74994109D01*
X182413898Y-74944774D01*
X182213939Y-74905000D01*
X182010061Y-74905000D01*
X181810102Y-74944774D01*
X181621744Y-75022795D01*
X181452226Y-75136063D01*
X181308063Y-75280226D01*
X181194795Y-75449744D01*
X181116774Y-75638102D01*
X181077000Y-75838061D01*
X181077000Y-75915774D01*
X181019650Y-76023067D01*
X181006455Y-76047753D01*
X180962998Y-76191014D01*
X180952001Y-76302667D01*
X180952001Y-76302677D01*
X180948325Y-76339999D01*
X180952001Y-76377322D01*
X180952001Y-77261199D01*
X180713000Y-77022198D01*
X180713000Y-76850212D01*
X180669383Y-76630933D01*
X180583824Y-76424376D01*
X180459612Y-76238480D01*
X180301520Y-76080388D01*
X180115624Y-75956176D01*
X179909067Y-75870617D01*
X179689788Y-75827000D01*
X179466212Y-75827000D01*
X179327830Y-75854526D01*
X179327830Y-70909152D01*
X179331506Y-70871829D01*
X179327830Y-70834506D01*
X179327830Y-70834497D01*
X179324912Y-70804873D01*
X179343000Y-70713939D01*
X179343000Y-70510061D01*
X179303226Y-70310102D01*
X179225205Y-70121744D01*
X179111937Y-69952226D01*
X179068000Y-69908289D01*
X179068000Y-66320224D01*
X179102125Y-66338464D01*
X179192681Y-66375973D01*
X179312377Y-66412282D01*
X179408510Y-66431404D01*
X179532991Y-66443664D01*
X179557550Y-66443664D01*
X179582000Y-66446072D01*
X180082000Y-66446072D01*
X180106450Y-66443664D01*
X180131009Y-66443664D01*
X180255490Y-66431404D01*
X180351623Y-66412282D01*
X180471319Y-66375973D01*
X180561875Y-66338464D01*
X180655546Y-66288396D01*
X180633000Y-66401740D01*
%TA.AperFunction,Conductor*%
D27*
G36*
X180633000Y-66401740D02*
G01*
X180633000Y-66694260D01*
X180690068Y-66981158D01*
X180802010Y-67251411D01*
X180964525Y-67494632D01*
X181171368Y-67701475D01*
X181345760Y-67818000D01*
X181171368Y-67934525D01*
X180964525Y-68141368D01*
X180802010Y-68384589D01*
X180690068Y-68654842D01*
X180633000Y-68941740D01*
X180633000Y-69234260D01*
X180690068Y-69521158D01*
X180802010Y-69791411D01*
X180964525Y-70034632D01*
X181171368Y-70241475D01*
X181345760Y-70358000D01*
X181171368Y-70474525D01*
X180964525Y-70681368D01*
X180802010Y-70924589D01*
X180690068Y-71194842D01*
X180633000Y-71481740D01*
X180633000Y-71774260D01*
X180690068Y-72061158D01*
X180802010Y-72331411D01*
X180964525Y-72574632D01*
X181171368Y-72781475D01*
X181414589Y-72943990D01*
X181684842Y-73055932D01*
X181971740Y-73113000D01*
X182264260Y-73113000D01*
X182533001Y-73059544D01*
X182533002Y-74994109D01*
X182413898Y-74944774D01*
X182213939Y-74905000D01*
X182010061Y-74905000D01*
X181810102Y-74944774D01*
X181621744Y-75022795D01*
X181452226Y-75136063D01*
X181308063Y-75280226D01*
X181194795Y-75449744D01*
X181116774Y-75638102D01*
X181077000Y-75838061D01*
X181077000Y-75915774D01*
X181019650Y-76023067D01*
X181006455Y-76047753D01*
X180962998Y-76191014D01*
X180952001Y-76302667D01*
X180952001Y-76302677D01*
X180948325Y-76339999D01*
X180952001Y-76377322D01*
X180952001Y-77261199D01*
X180713000Y-77022198D01*
X180713000Y-76850212D01*
X180669383Y-76630933D01*
X180583824Y-76424376D01*
X180459612Y-76238480D01*
X180301520Y-76080388D01*
X180115624Y-75956176D01*
X179909067Y-75870617D01*
X179689788Y-75827000D01*
X179466212Y-75827000D01*
X179327830Y-75854526D01*
X179327830Y-70909152D01*
X179331506Y-70871829D01*
X179327830Y-70834506D01*
X179327830Y-70834497D01*
X179324912Y-70804873D01*
X179343000Y-70713939D01*
X179343000Y-70510061D01*
X179303226Y-70310102D01*
X179225205Y-70121744D01*
X179111937Y-69952226D01*
X179068000Y-69908289D01*
X179068000Y-66320224D01*
X179102125Y-66338464D01*
X179192681Y-66375973D01*
X179312377Y-66412282D01*
X179408510Y-66431404D01*
X179532991Y-66443664D01*
X179557550Y-66443664D01*
X179582000Y-66446072D01*
X180082000Y-66446072D01*
X180106450Y-66443664D01*
X180131009Y-66443664D01*
X180255490Y-66431404D01*
X180351623Y-66412282D01*
X180471319Y-66375973D01*
X180561875Y-66338464D01*
X180655546Y-66288396D01*
X180633000Y-66401740D01*
G37*
%TD.AperFunction*%
D26*
X183744001Y-43161012D02*
X183743939Y-43161000D01*
X183540061Y-43161000D01*
X183340102Y-43200774D01*
X183151744Y-43278795D01*
X182982226Y-43392063D01*
X182838063Y-43536226D01*
X182724795Y-43705744D01*
X182646774Y-43894102D01*
X182607000Y-44094061D01*
X182607000Y-44297939D01*
X182646774Y-44497898D01*
X182669154Y-44551928D01*
X182630000Y-44551928D01*
X182605550Y-44554336D01*
X182580991Y-44554336D01*
X182456510Y-44566596D01*
X182360377Y-44585718D01*
X182240681Y-44622027D01*
X182150125Y-44659536D01*
X182039808Y-44718502D01*
X181958309Y-44772958D01*
X181861618Y-44852310D01*
X181792310Y-44921618D01*
X181712958Y-45018309D01*
X181658502Y-45099808D01*
X181599536Y-45210125D01*
X181562027Y-45300681D01*
X181525718Y-45420377D01*
X181506596Y-45516510D01*
X181494336Y-45640991D01*
X181494336Y-45665550D01*
X181491928Y-45690000D01*
X181491928Y-46240000D01*
X181500880Y-46330889D01*
X181455723Y-46355026D01*
X181388794Y-46409954D01*
X181339999Y-46449999D01*
X181316201Y-46478997D01*
X175903330Y-51891869D01*
X175874326Y-51915672D01*
X175830766Y-51968751D01*
X175779353Y-52031397D01*
X175716458Y-52149064D01*
X175708781Y-52163427D01*
X175665324Y-52306688D01*
X175654327Y-52418341D01*
X175654327Y-52418351D01*
X175650651Y-52455673D01*
X175654327Y-52492995D01*
X175654328Y-65420201D01*
X175443185Y-65631344D01*
X175414181Y-65655147D01*
X175379572Y-65697319D01*
X175319208Y-65770872D01*
X175265261Y-65871799D01*
X175248636Y-65902902D01*
X175205179Y-66046163D01*
X175194182Y-66157816D01*
X175194182Y-66157826D01*
X175190506Y-66195148D01*
X175194182Y-66232470D01*
X175194183Y-74911000D01*
X175051071Y-74911000D01*
X174851112Y-74950774D01*
X174662754Y-75028795D01*
X174493236Y-75142063D01*
X174349073Y-75286226D01*
X174235805Y-75455744D01*
X174187236Y-75573000D01*
X174132212Y-75573000D01*
X173912933Y-75616617D01*
X173706376Y-75702176D01*
X173520480Y-75826388D01*
X173362388Y-75984480D01*
X173287978Y-76095842D01*
X173287978Y-71306499D01*
X173317880Y-71276597D01*
X173380018Y-71276597D01*
X173579977Y-71236823D01*
X173768335Y-71158802D01*
X173937853Y-71045534D01*
X174082016Y-70901371D01*
X174195284Y-70731853D01*
X174273305Y-70543495D01*
X174313079Y-70343536D01*
X174313079Y-70139658D01*
X174273305Y-69939699D01*
X174195284Y-69751341D01*
X174082016Y-69581823D01*
X173937853Y-69437660D01*
X173768335Y-69324392D01*
X173579977Y-69246371D01*
X173380018Y-69206597D01*
X173176140Y-69206597D01*
X172976181Y-69246371D01*
X172787823Y-69324392D01*
X172618305Y-69437660D01*
X172474142Y-69581823D01*
X172360874Y-69751341D01*
X172282853Y-69939699D01*
X172243079Y-70139658D01*
X172243079Y-70201796D01*
X172016976Y-70427899D01*
X171987978Y-70451697D01*
X171964180Y-70480695D01*
X171964179Y-70480696D01*
X171893004Y-70567422D01*
X171822432Y-70699452D01*
X171803767Y-70760985D01*
X171783237Y-70828667D01*
X171778976Y-70842713D01*
X171764302Y-70991698D01*
X171767979Y-71029030D01*
X171767978Y-75573000D01*
X171592212Y-75573000D01*
X171372933Y-75616617D01*
X171178155Y-75697297D01*
X171178155Y-51180338D01*
X171222092Y-51136401D01*
X171335360Y-50966883D01*
X171413381Y-50778525D01*
X171453155Y-50578566D01*
X171453155Y-50374688D01*
X171413381Y-50174729D01*
X171335360Y-49986371D01*
X171222092Y-49816853D01*
X171077929Y-49672690D01*
X170908411Y-49559422D01*
X170720053Y-49481401D01*
X170662166Y-49469887D01*
X170589205Y-49293744D01*
X170475937Y-49124226D01*
X170331774Y-48980063D01*
X170162256Y-48866795D01*
X169973898Y-48788774D01*
X169773939Y-48749000D01*
X169570061Y-48749000D01*
X169370102Y-48788774D01*
X169181744Y-48866795D01*
X169012226Y-48980063D01*
X168868063Y-49124226D01*
X168754795Y-49293744D01*
X168676774Y-49482102D01*
X168637000Y-49682061D01*
X168637000Y-49885939D01*
X168676774Y-50085898D01*
X168754795Y-50274256D01*
X168868063Y-50443774D01*
X169012226Y-50587937D01*
X169181744Y-50701205D01*
X169370102Y-50779226D01*
X169427989Y-50790740D01*
X169500950Y-50966883D01*
X169614218Y-51136401D01*
X169658156Y-51180339D01*
X169658155Y-69443400D01*
X169654256Y-69440795D01*
X169465898Y-69362774D01*
X169265939Y-69323000D01*
X169062061Y-69323000D01*
X168862102Y-69362774D01*
X168673744Y-69440795D01*
X168504226Y-69554063D01*
X168360063Y-69698226D01*
X168246795Y-69867744D01*
X168168774Y-70056102D01*
X168129000Y-70256061D01*
X168129000Y-70459939D01*
X168168774Y-70659898D01*
X168246795Y-70848256D01*
X168360063Y-71017774D01*
X168404000Y-71061711D01*
X168404000Y-72247988D01*
X168384256Y-72234795D01*
X168195898Y-72156774D01*
X167995939Y-72117000D01*
X167792061Y-72117000D01*
X167592102Y-72156774D01*
X167403744Y-72234795D01*
X167234226Y-72348063D01*
X167090063Y-72492226D01*
X167020822Y-72595854D01*
X166955067Y-72568617D01*
X166735788Y-72525000D01*
X166512212Y-72525000D01*
X166292933Y-72568617D01*
X166086376Y-72654176D01*
X165900480Y-72778388D01*
X165742388Y-72936480D01*
X165618176Y-73122376D01*
X165532617Y-73328933D01*
X165489000Y-73548212D01*
X165489000Y-73771788D01*
X165532617Y-73991067D01*
X165618176Y-74197624D01*
X165742388Y-74383520D01*
X165900480Y-74541612D01*
X166086376Y-74665824D01*
X166110943Y-74676000D01*
X166086376Y-74686176D01*
X165900480Y-74810388D01*
X165742388Y-74968480D01*
X165618176Y-75154376D01*
X165532617Y-75360933D01*
X165499952Y-75525151D01*
X165373763Y-75398962D01*
X165373763Y-69516063D01*
X165388276Y-69537783D01*
X165532439Y-69681946D01*
X165701957Y-69795214D01*
X165890315Y-69873235D01*
X166090274Y-69913009D01*
X166294152Y-69913009D01*
X166494111Y-69873235D01*
X166682469Y-69795214D01*
X166851987Y-69681946D01*
X166996150Y-69537783D01*
X167109418Y-69368265D01*
X167187439Y-69179907D01*
X167227213Y-68979948D01*
X167227213Y-68776070D01*
X167187439Y-68576111D01*
X167109418Y-68387753D01*
X166996150Y-68218235D01*
X166952213Y-68174298D01*
X166952213Y-60897726D01*
X166963084Y-60881456D01*
X167041105Y-60693098D01*
X167080879Y-60493139D01*
X167080879Y-60431002D01*
X167324021Y-60187859D01*
X167353020Y-60164061D01*
X167447993Y-60048336D01*
X167518565Y-59916307D01*
X167562022Y-59773046D01*
X167573019Y-59661393D01*
X167573019Y-59661385D01*
X167576695Y-59624060D01*
X167573019Y-59586735D01*
X167573019Y-56386937D01*
X167616956Y-56343000D01*
X167730224Y-56173482D01*
X167808245Y-55985124D01*
X167848019Y-55785165D01*
X167848019Y-55581287D01*
X167808245Y-55381328D01*
X167730224Y-55192970D01*
X167616956Y-55023452D01*
X167615505Y-55022001D01*
X167622256Y-55019205D01*
X167791774Y-54905937D01*
X167935937Y-54761774D01*
X168049205Y-54592256D01*
X168127226Y-54403898D01*
X168167000Y-54203939D01*
X168167000Y-54000061D01*
X168127226Y-53800102D01*
X168049205Y-53611744D01*
X168041495Y-53600205D01*
X168200558Y-53568566D01*
X168388916Y-53490545D01*
X168558434Y-53377277D01*
X168702597Y-53233114D01*
X168815865Y-53063596D01*
X168893886Y-52875238D01*
X168933660Y-52675279D01*
X168933660Y-52471401D01*
X168893886Y-52271442D01*
X168815865Y-52083084D01*
X168702597Y-51913566D01*
X168558434Y-51769403D01*
X168388916Y-51656135D01*
X168200558Y-51578114D01*
X168000599Y-51538340D01*
X167796721Y-51538340D01*
X167596762Y-51578114D01*
X167408404Y-51656135D01*
X167238886Y-51769403D01*
X167183936Y-51824353D01*
X167040728Y-51867794D01*
X166908699Y-51938366D01*
X166908697Y-51938367D01*
X166908698Y-51938367D01*
X166821971Y-52009541D01*
X166821967Y-52009545D01*
X166792974Y-52033339D01*
X166769180Y-52062332D01*
X164923706Y-53907807D01*
X164923706Y-52305095D01*
X166155802Y-51073000D01*
X166217939Y-51073000D01*
X166417898Y-51033226D01*
X166606256Y-50955205D01*
X166775774Y-50841937D01*
X166919937Y-50697774D01*
X167033205Y-50528256D01*
X167111226Y-50339898D01*
X167151000Y-50139939D01*
X167151000Y-49936061D01*
X167111226Y-49736102D01*
X167033205Y-49547744D01*
X166919937Y-49378226D01*
X166775774Y-49234063D01*
X166606256Y-49120795D01*
X166417898Y-49042774D01*
X166217939Y-49003000D01*
X166014061Y-49003000D01*
X165814102Y-49042774D01*
X165625744Y-49120795D01*
X165456226Y-49234063D01*
X165312063Y-49378226D01*
X165198795Y-49547744D01*
X165120774Y-49736102D01*
X165081000Y-49936061D01*
X165081000Y-49998198D01*
X164028570Y-51050629D01*
X163991243Y-50927577D01*
X163920671Y-50795548D01*
X163825698Y-50679823D01*
X163796701Y-50656026D01*
X163710837Y-50570162D01*
X163710837Y-50508025D01*
X163671063Y-50308066D01*
X163593042Y-50119708D01*
X163479774Y-49950190D01*
X163363316Y-49833732D01*
X164785139Y-48411910D01*
X164814136Y-48388113D01*
X164909109Y-48272388D01*
X164979681Y-48140359D01*
X165023138Y-47997098D01*
X165034135Y-47885445D01*
X165034135Y-47885437D01*
X165037811Y-47848112D01*
X165034135Y-47810787D01*
X165034135Y-47701077D01*
X165078072Y-47657140D01*
X165191340Y-47487622D01*
X165269361Y-47299264D01*
X165307391Y-47108072D01*
X166408000Y-47108072D01*
X166532482Y-47095812D01*
X166652180Y-47059502D01*
X166762494Y-47000537D01*
X166859185Y-46921185D01*
X166938537Y-46824494D01*
X166997502Y-46714180D01*
X167033812Y-46594482D01*
X167046072Y-46470000D01*
X167046072Y-44970000D01*
X167033812Y-44845518D01*
X166997502Y-44725820D01*
X166938537Y-44615506D01*
X166859185Y-44518815D01*
X166838273Y-44501653D01*
X167365952Y-44501653D01*
X167521962Y-44817214D01*
X167896745Y-45008020D01*
X168301551Y-45122044D01*
X168720824Y-45154902D01*
X169138451Y-45105334D01*
X169538383Y-44975243D01*
X169834038Y-44817214D01*
X169990048Y-44501653D01*
X168678000Y-43189605D01*
X167365952Y-44501653D01*
X166838273Y-44501653D01*
X166762494Y-44439463D01*
X166652180Y-44380498D01*
X166532482Y-44344188D01*
X166408000Y-44331928D01*
X164808000Y-44331928D01*
X164683518Y-44344188D01*
X164563820Y-44380498D01*
X164453506Y-44439463D01*
X164356815Y-44518815D01*
X164277463Y-44615506D01*
X164218498Y-44725820D01*
X164200977Y-44783581D01*
X164022759Y-44605363D01*
X163787727Y-44448320D01*
X163526574Y-44340147D01*
X163249335Y-44285000D01*
X162966665Y-44285000D01*
X162689426Y-44340147D01*
X162428273Y-44448320D01*
X162193241Y-44605363D01*
X162108000Y-44690604D01*
X162022759Y-44605363D01*
X161787727Y-44448320D01*
X161526574Y-44340147D01*
X161249335Y-44285000D01*
X160966665Y-44285000D01*
X160689426Y-44340147D01*
X160428273Y-44448320D01*
X160193241Y-44605363D01*
X159993363Y-44805241D01*
X159859308Y-45005869D01*
X159844671Y-44978486D01*
X159600702Y-44906903D01*
X158787605Y-45720000D01*
X159600702Y-46533097D01*
X159844671Y-46461514D01*
X159858324Y-46432659D01*
X159993363Y-46634759D01*
X160193241Y-46834637D01*
X160428273Y-46991680D01*
X160689426Y-47099853D01*
X160966665Y-47155000D01*
X161249335Y-47155000D01*
X161526574Y-47099853D01*
X161787727Y-46991680D01*
X161816779Y-46972268D01*
X159915975Y-48873073D01*
X159886977Y-48896871D01*
X159863179Y-48925869D01*
X159863178Y-48925870D01*
X159792003Y-49012596D01*
X159721431Y-49144626D01*
X159677975Y-49287887D01*
X159663301Y-49436872D01*
X159666978Y-49474201D01*
X159666978Y-53575000D01*
X159600028Y-53575000D01*
X159400069Y-53614774D01*
X159211711Y-53692795D01*
X159042193Y-53806063D01*
X158898030Y-53950226D01*
X158784762Y-54119744D01*
X158706741Y-54308102D01*
X158666967Y-54508061D01*
X158666967Y-54570199D01*
X158562744Y-54674422D01*
X158533746Y-54698220D01*
X158509948Y-54727218D01*
X158509947Y-54727219D01*
X158438772Y-54813945D01*
X158368200Y-54945975D01*
X158351720Y-55000305D01*
X158324744Y-55089235D01*
X158319426Y-55143225D01*
X158310070Y-55238221D01*
X158313747Y-55275554D01*
X158313746Y-72057539D01*
X158269809Y-72101476D01*
X158178290Y-72238445D01*
X158143205Y-72153744D01*
X158029937Y-71984226D01*
X157885774Y-71840063D01*
X157716256Y-71726795D01*
X157527898Y-71648774D01*
X157327939Y-71609000D01*
X157124061Y-71609000D01*
X156924102Y-71648774D01*
X156850936Y-71679081D01*
X156796192Y-71642502D01*
X156685875Y-71583536D01*
X156595319Y-71546027D01*
X156475623Y-71509718D01*
X156379490Y-71490596D01*
X156255009Y-71478336D01*
X156230450Y-71478336D01*
X156206000Y-71475928D01*
X155706000Y-71475928D01*
X155681550Y-71478336D01*
X155656991Y-71478336D01*
X155532510Y-71490596D01*
X155436377Y-71509718D01*
X155316681Y-71546027D01*
X155226125Y-71583536D01*
X155115808Y-71642502D01*
X155034309Y-71696958D01*
X154937618Y-71776310D01*
X154868310Y-71845618D01*
X154788958Y-71942309D01*
X154734502Y-72023808D01*
X154675536Y-72134125D01*
X154638027Y-72224681D01*
X154601718Y-72344377D01*
X154584000Y-72433452D01*
X154584000Y-57700143D01*
X157732000Y-57700143D01*
X157732000Y-46775607D01*
X157794903Y-46712704D01*
X157866486Y-46956671D01*
X158121996Y-47077571D01*
X158396184Y-47146300D01*
X158678512Y-47160217D01*
X158958130Y-47118787D01*
X159224292Y-47023603D01*
X159349514Y-46956671D01*
X159421097Y-46712702D01*
X158608000Y-45899605D01*
X158593858Y-45913748D01*
X158414253Y-45734143D01*
X158428395Y-45720000D01*
X157732000Y-45023605D01*
X157732000Y-44915857D01*
X157624252Y-44915857D01*
X157615298Y-44906903D01*
X157584781Y-44915857D01*
X156509488Y-44915857D01*
X156694038Y-44817214D01*
X156738491Y-44727298D01*
X157794903Y-44727298D01*
X158608000Y-45540395D01*
X159421097Y-44727298D01*
X159349514Y-44483329D01*
X159094004Y-44362429D01*
X158819816Y-44293700D01*
X158537488Y-44279783D01*
X158257870Y-44321213D01*
X157991708Y-44416397D01*
X157866486Y-44483329D01*
X157794903Y-44727298D01*
X156738491Y-44727298D01*
X156850048Y-44501653D01*
X155538000Y-43189605D01*
X155523858Y-43203748D01*
X155344253Y-43024143D01*
X155358395Y-43010000D01*
X155717605Y-43010000D01*
X157029653Y-44322048D01*
X157345214Y-44166038D01*
X157536020Y-43791255D01*
X157650044Y-43386449D01*
X157676189Y-43052824D01*
X166533098Y-43052824D01*
X166582666Y-43470451D01*
X166712757Y-43870383D01*
X166870786Y-44166038D01*
X167186347Y-44322048D01*
X168498395Y-43010000D01*
X168857605Y-43010000D01*
X170169653Y-44322048D01*
X170485214Y-44166038D01*
X170566480Y-44006413D01*
X172761192Y-44006413D01*
X172856956Y-44270814D01*
X173146571Y-44411704D01*
X173458108Y-44493384D01*
X173779595Y-44512718D01*
X174098675Y-44468961D01*
X174403088Y-44363795D01*
X174577044Y-44270814D01*
X174672808Y-44006413D01*
X179911192Y-44006413D01*
X180006956Y-44270814D01*
X180296571Y-44411704D01*
X180608108Y-44493384D01*
X180929595Y-44512718D01*
X181248675Y-44468961D01*
X181553088Y-44363795D01*
X181727044Y-44270814D01*
X181822808Y-44006413D01*
X180867000Y-43050605D01*
X179911192Y-44006413D01*
X174672808Y-44006413D01*
X173717000Y-43050605D01*
X172761192Y-44006413D01*
X170566480Y-44006413D01*
X170676020Y-43791255D01*
X170790044Y-43386449D01*
X170822902Y-42967176D01*
X170818917Y-42933595D01*
X172075282Y-42933595D01*
X172119039Y-43252675D01*
X172224205Y-43557088D01*
X172317186Y-43731044D01*
X172581587Y-43826808D01*
X173537395Y-42871000D01*
X172581587Y-41915192D01*
X172317186Y-42010956D01*
X172176296Y-42300571D01*
X172094616Y-42612108D01*
X172075282Y-42933595D01*
X170818917Y-42933595D01*
X170773334Y-42549549D01*
X170643243Y-42149617D01*
X170485214Y-41853962D01*
X170245778Y-41735587D01*
X172761192Y-41735587D01*
X173717000Y-42691395D01*
X173731143Y-42677253D01*
X173910748Y-42856858D01*
X173896605Y-42871000D01*
X174852413Y-43826808D01*
X175116814Y-43731044D01*
X175257704Y-43441429D01*
X175339384Y-43129892D01*
X175358718Y-42808405D01*
X175317933Y-42511000D01*
X175386552Y-42511000D01*
X175572022Y-42474108D01*
X175746731Y-42401741D01*
X175903964Y-42296681D01*
X176037681Y-42162964D01*
X176142741Y-42005731D01*
X176215108Y-41831022D01*
X176252000Y-41645552D01*
X176252000Y-41456448D01*
X178332000Y-41456448D01*
X178332000Y-41645552D01*
X178368892Y-41831022D01*
X178441259Y-42005731D01*
X178546319Y-42162964D01*
X178680036Y-42296681D01*
X178837269Y-42401741D01*
X179011978Y-42474108D01*
X179197448Y-42511000D01*
X179271125Y-42511000D01*
X179244616Y-42612108D01*
X179225282Y-42933595D01*
X179269039Y-43252675D01*
X179374205Y-43557088D01*
X179467186Y-43731044D01*
X179731587Y-43826808D01*
X180687395Y-42871000D01*
X181046605Y-42871000D01*
X182002413Y-43826808D01*
X182266814Y-43731044D01*
X182407704Y-43441429D01*
X182489384Y-43129892D01*
X182508718Y-42808405D01*
X182464961Y-42489325D01*
X182359795Y-42184912D01*
X182266814Y-42010956D01*
X182002413Y-41915192D01*
X181046605Y-42871000D01*
X180687395Y-42871000D01*
X180673253Y-42856858D01*
X180852858Y-42677253D01*
X180867000Y-42691395D01*
X181822808Y-41735587D01*
X181727044Y-41471186D01*
X181437429Y-41330296D01*
X181125892Y-41248616D01*
X180804405Y-41229282D01*
X180485325Y-41273039D01*
X180232866Y-41360256D01*
X180215108Y-41270978D01*
X180142741Y-41096269D01*
X180037681Y-40939036D01*
X179903964Y-40805319D01*
X179746731Y-40700259D01*
X179572022Y-40627892D01*
X179386552Y-40591000D01*
X179197448Y-40591000D01*
X179011978Y-40627892D01*
X178837269Y-40700259D01*
X178680036Y-40805319D01*
X178546319Y-40939036D01*
X178441259Y-41096269D01*
X178368892Y-41270978D01*
X178332000Y-41456448D01*
X176252000Y-41456448D01*
X176215108Y-41270978D01*
X176142741Y-41096269D01*
X176037681Y-40939036D01*
X175903964Y-40805319D01*
X175746731Y-40700259D01*
X175572022Y-40627892D01*
X175386552Y-40591000D01*
X175197448Y-40591000D01*
X175011978Y-40627892D01*
X174837269Y-40700259D01*
X174680036Y-40805319D01*
X174546319Y-40939036D01*
X174441259Y-41096269D01*
X174368892Y-41270978D01*
X174350947Y-41361196D01*
X174287429Y-41330296D01*
X173975892Y-41248616D01*
X173654405Y-41229282D01*
X173335325Y-41273039D01*
X173030912Y-41378205D01*
X172856956Y-41471186D01*
X172761192Y-41735587D01*
X170245778Y-41735587D01*
X170169653Y-41697952D01*
X168857605Y-43010000D01*
X168498395Y-43010000D01*
X167186347Y-41697952D01*
X166870786Y-41853962D01*
X166679980Y-42228745D01*
X166565956Y-42633551D01*
X166533098Y-43052824D01*
X157676189Y-43052824D01*
X157682902Y-42967176D01*
X157633334Y-42549549D01*
X157503243Y-42149617D01*
X157345214Y-41853962D01*
X157029653Y-41697952D01*
X155717605Y-43010000D01*
X155358395Y-43010000D01*
X155344253Y-42995858D01*
X155523858Y-42816253D01*
X155538000Y-42830395D01*
X156850048Y-41518347D01*
X167365952Y-41518347D01*
X168678000Y-42830395D01*
X169990048Y-41518347D01*
X169834038Y-41202786D01*
X169459255Y-41011980D01*
X169054449Y-40897956D01*
X168635176Y-40865098D01*
X168217549Y-40914666D01*
X167817617Y-41044757D01*
X167521962Y-41202786D01*
X167365952Y-41518347D01*
X156850048Y-41518347D01*
X156694038Y-41202786D01*
X156319255Y-41011980D01*
X155914449Y-40897956D01*
X155495176Y-40865098D01*
X155077549Y-40914666D01*
X154677617Y-41044757D01*
X154584000Y-41094796D01*
X154584000Y-40556413D01*
X172761192Y-40556413D01*
X172856956Y-40820814D01*
X173146571Y-40961704D01*
X173458108Y-41043384D01*
X173779595Y-41062718D01*
X174098675Y-41018961D01*
X174403088Y-40913795D01*
X174577044Y-40820814D01*
X174672808Y-40556413D01*
X179911192Y-40556413D01*
X180006956Y-40820814D01*
X180296571Y-40961704D01*
X180608108Y-41043384D01*
X180929595Y-41062718D01*
X181248675Y-41018961D01*
X181553088Y-40913795D01*
X181727044Y-40820814D01*
X181822808Y-40556413D01*
X180867000Y-39600605D01*
X179911192Y-40556413D01*
X174672808Y-40556413D01*
X173717000Y-39600605D01*
X172761192Y-40556413D01*
X154584000Y-40556413D01*
X154584000Y-39483595D01*
X172075282Y-39483595D01*
X172119039Y-39802675D01*
X172224205Y-40107088D01*
X172317186Y-40281044D01*
X172581587Y-40376808D01*
X173537395Y-39421000D01*
X173896605Y-39421000D01*
X174852413Y-40376808D01*
X175116814Y-40281044D01*
X175257704Y-39991429D01*
X175339384Y-39679892D01*
X175351189Y-39483595D01*
X179225282Y-39483595D01*
X179269039Y-39802675D01*
X179374205Y-40107088D01*
X179467186Y-40281044D01*
X179731587Y-40376808D01*
X180687395Y-39421000D01*
X181046605Y-39421000D01*
X182002413Y-40376808D01*
X182266814Y-40281044D01*
X182407704Y-39991429D01*
X182489384Y-39679892D01*
X182508718Y-39358405D01*
X182464961Y-39039325D01*
X182359795Y-38734912D01*
X182266814Y-38560956D01*
X182002413Y-38465192D01*
X181046605Y-39421000D01*
X180687395Y-39421000D01*
X179731587Y-38465192D01*
X179467186Y-38560956D01*
X179326296Y-38850571D01*
X179244616Y-39162108D01*
X179225282Y-39483595D01*
X175351189Y-39483595D01*
X175358718Y-39358405D01*
X175314961Y-39039325D01*
X175209795Y-38734912D01*
X175116814Y-38560956D01*
X174852413Y-38465192D01*
X173896605Y-39421000D01*
X173537395Y-39421000D01*
X172581587Y-38465192D01*
X172317186Y-38560956D01*
X172176296Y-38850571D01*
X172094616Y-39162108D01*
X172075282Y-39483595D01*
X154584000Y-39483595D01*
X154584000Y-38285587D01*
X172761192Y-38285587D01*
X173717000Y-39241395D01*
X174672808Y-38285587D01*
X179911192Y-38285587D01*
X180867000Y-39241395D01*
X181822808Y-38285587D01*
X181727044Y-38021186D01*
X181437429Y-37880296D01*
X181125892Y-37798616D01*
X180804405Y-37779282D01*
X180485325Y-37823039D01*
X180180912Y-37928205D01*
X180006956Y-38021186D01*
X179911192Y-38285587D01*
X174672808Y-38285587D01*
X174577044Y-38021186D01*
X174287429Y-37880296D01*
X173975892Y-37798616D01*
X173654405Y-37779282D01*
X173335325Y-37823039D01*
X173030912Y-37928205D01*
X172856956Y-38021186D01*
X172761192Y-38285587D01*
X154584000Y-38285587D01*
X154584000Y-37236000D01*
X183744001Y-37236000D01*
X183744001Y-43161012D01*
%TA.AperFunction,Conductor*%
D27*
G36*
X183744001Y-43161012D02*
G01*
X183743939Y-43161000D01*
X183540061Y-43161000D01*
X183340102Y-43200774D01*
X183151744Y-43278795D01*
X182982226Y-43392063D01*
X182838063Y-43536226D01*
X182724795Y-43705744D01*
X182646774Y-43894102D01*
X182607000Y-44094061D01*
X182607000Y-44297939D01*
X182646774Y-44497898D01*
X182669154Y-44551928D01*
X182630000Y-44551928D01*
X182605550Y-44554336D01*
X182580991Y-44554336D01*
X182456510Y-44566596D01*
X182360377Y-44585718D01*
X182240681Y-44622027D01*
X182150125Y-44659536D01*
X182039808Y-44718502D01*
X181958309Y-44772958D01*
X181861618Y-44852310D01*
X181792310Y-44921618D01*
X181712958Y-45018309D01*
X181658502Y-45099808D01*
X181599536Y-45210125D01*
X181562027Y-45300681D01*
X181525718Y-45420377D01*
X181506596Y-45516510D01*
X181494336Y-45640991D01*
X181494336Y-45665550D01*
X181491928Y-45690000D01*
X181491928Y-46240000D01*
X181500880Y-46330889D01*
X181455723Y-46355026D01*
X181388794Y-46409954D01*
X181339999Y-46449999D01*
X181316201Y-46478997D01*
X175903330Y-51891869D01*
X175874326Y-51915672D01*
X175830766Y-51968751D01*
X175779353Y-52031397D01*
X175716458Y-52149064D01*
X175708781Y-52163427D01*
X175665324Y-52306688D01*
X175654327Y-52418341D01*
X175654327Y-52418351D01*
X175650651Y-52455673D01*
X175654327Y-52492995D01*
X175654328Y-65420201D01*
X175443185Y-65631344D01*
X175414181Y-65655147D01*
X175379572Y-65697319D01*
X175319208Y-65770872D01*
X175265261Y-65871799D01*
X175248636Y-65902902D01*
X175205179Y-66046163D01*
X175194182Y-66157816D01*
X175194182Y-66157826D01*
X175190506Y-66195148D01*
X175194182Y-66232470D01*
X175194183Y-74911000D01*
X175051071Y-74911000D01*
X174851112Y-74950774D01*
X174662754Y-75028795D01*
X174493236Y-75142063D01*
X174349073Y-75286226D01*
X174235805Y-75455744D01*
X174187236Y-75573000D01*
X174132212Y-75573000D01*
X173912933Y-75616617D01*
X173706376Y-75702176D01*
X173520480Y-75826388D01*
X173362388Y-75984480D01*
X173287978Y-76095842D01*
X173287978Y-71306499D01*
X173317880Y-71276597D01*
X173380018Y-71276597D01*
X173579977Y-71236823D01*
X173768335Y-71158802D01*
X173937853Y-71045534D01*
X174082016Y-70901371D01*
X174195284Y-70731853D01*
X174273305Y-70543495D01*
X174313079Y-70343536D01*
X174313079Y-70139658D01*
X174273305Y-69939699D01*
X174195284Y-69751341D01*
X174082016Y-69581823D01*
X173937853Y-69437660D01*
X173768335Y-69324392D01*
X173579977Y-69246371D01*
X173380018Y-69206597D01*
X173176140Y-69206597D01*
X172976181Y-69246371D01*
X172787823Y-69324392D01*
X172618305Y-69437660D01*
X172474142Y-69581823D01*
X172360874Y-69751341D01*
X172282853Y-69939699D01*
X172243079Y-70139658D01*
X172243079Y-70201796D01*
X172016976Y-70427899D01*
X171987978Y-70451697D01*
X171964180Y-70480695D01*
X171964179Y-70480696D01*
X171893004Y-70567422D01*
X171822432Y-70699452D01*
X171803767Y-70760985D01*
X171783237Y-70828667D01*
X171778976Y-70842713D01*
X171764302Y-70991698D01*
X171767979Y-71029030D01*
X171767978Y-75573000D01*
X171592212Y-75573000D01*
X171372933Y-75616617D01*
X171178155Y-75697297D01*
X171178155Y-51180338D01*
X171222092Y-51136401D01*
X171335360Y-50966883D01*
X171413381Y-50778525D01*
X171453155Y-50578566D01*
X171453155Y-50374688D01*
X171413381Y-50174729D01*
X171335360Y-49986371D01*
X171222092Y-49816853D01*
X171077929Y-49672690D01*
X170908411Y-49559422D01*
X170720053Y-49481401D01*
X170662166Y-49469887D01*
X170589205Y-49293744D01*
X170475937Y-49124226D01*
X170331774Y-48980063D01*
X170162256Y-48866795D01*
X169973898Y-48788774D01*
X169773939Y-48749000D01*
X169570061Y-48749000D01*
X169370102Y-48788774D01*
X169181744Y-48866795D01*
X169012226Y-48980063D01*
X168868063Y-49124226D01*
X168754795Y-49293744D01*
X168676774Y-49482102D01*
X168637000Y-49682061D01*
X168637000Y-49885939D01*
X168676774Y-50085898D01*
X168754795Y-50274256D01*
X168868063Y-50443774D01*
X169012226Y-50587937D01*
X169181744Y-50701205D01*
X169370102Y-50779226D01*
X169427989Y-50790740D01*
X169500950Y-50966883D01*
X169614218Y-51136401D01*
X169658156Y-51180339D01*
X169658155Y-69443400D01*
X169654256Y-69440795D01*
X169465898Y-69362774D01*
X169265939Y-69323000D01*
X169062061Y-69323000D01*
X168862102Y-69362774D01*
X168673744Y-69440795D01*
X168504226Y-69554063D01*
X168360063Y-69698226D01*
X168246795Y-69867744D01*
X168168774Y-70056102D01*
X168129000Y-70256061D01*
X168129000Y-70459939D01*
X168168774Y-70659898D01*
X168246795Y-70848256D01*
X168360063Y-71017774D01*
X168404000Y-71061711D01*
X168404000Y-72247988D01*
X168384256Y-72234795D01*
X168195898Y-72156774D01*
X167995939Y-72117000D01*
X167792061Y-72117000D01*
X167592102Y-72156774D01*
X167403744Y-72234795D01*
X167234226Y-72348063D01*
X167090063Y-72492226D01*
X167020822Y-72595854D01*
X166955067Y-72568617D01*
X166735788Y-72525000D01*
X166512212Y-72525000D01*
X166292933Y-72568617D01*
X166086376Y-72654176D01*
X165900480Y-72778388D01*
X165742388Y-72936480D01*
X165618176Y-73122376D01*
X165532617Y-73328933D01*
X165489000Y-73548212D01*
X165489000Y-73771788D01*
X165532617Y-73991067D01*
X165618176Y-74197624D01*
X165742388Y-74383520D01*
X165900480Y-74541612D01*
X166086376Y-74665824D01*
X166110943Y-74676000D01*
X166086376Y-74686176D01*
X165900480Y-74810388D01*
X165742388Y-74968480D01*
X165618176Y-75154376D01*
X165532617Y-75360933D01*
X165499952Y-75525151D01*
X165373763Y-75398962D01*
X165373763Y-69516063D01*
X165388276Y-69537783D01*
X165532439Y-69681946D01*
X165701957Y-69795214D01*
X165890315Y-69873235D01*
X166090274Y-69913009D01*
X166294152Y-69913009D01*
X166494111Y-69873235D01*
X166682469Y-69795214D01*
X166851987Y-69681946D01*
X166996150Y-69537783D01*
X167109418Y-69368265D01*
X167187439Y-69179907D01*
X167227213Y-68979948D01*
X167227213Y-68776070D01*
X167187439Y-68576111D01*
X167109418Y-68387753D01*
X166996150Y-68218235D01*
X166952213Y-68174298D01*
X166952213Y-60897726D01*
X166963084Y-60881456D01*
X167041105Y-60693098D01*
X167080879Y-60493139D01*
X167080879Y-60431002D01*
X167324021Y-60187859D01*
X167353020Y-60164061D01*
X167447993Y-60048336D01*
X167518565Y-59916307D01*
X167562022Y-59773046D01*
X167573019Y-59661393D01*
X167573019Y-59661385D01*
X167576695Y-59624060D01*
X167573019Y-59586735D01*
X167573019Y-56386937D01*
X167616956Y-56343000D01*
X167730224Y-56173482D01*
X167808245Y-55985124D01*
X167848019Y-55785165D01*
X167848019Y-55581287D01*
X167808245Y-55381328D01*
X167730224Y-55192970D01*
X167616956Y-55023452D01*
X167615505Y-55022001D01*
X167622256Y-55019205D01*
X167791774Y-54905937D01*
X167935937Y-54761774D01*
X168049205Y-54592256D01*
X168127226Y-54403898D01*
X168167000Y-54203939D01*
X168167000Y-54000061D01*
X168127226Y-53800102D01*
X168049205Y-53611744D01*
X168041495Y-53600205D01*
X168200558Y-53568566D01*
X168388916Y-53490545D01*
X168558434Y-53377277D01*
X168702597Y-53233114D01*
X168815865Y-53063596D01*
X168893886Y-52875238D01*
X168933660Y-52675279D01*
X168933660Y-52471401D01*
X168893886Y-52271442D01*
X168815865Y-52083084D01*
X168702597Y-51913566D01*
X168558434Y-51769403D01*
X168388916Y-51656135D01*
X168200558Y-51578114D01*
X168000599Y-51538340D01*
X167796721Y-51538340D01*
X167596762Y-51578114D01*
X167408404Y-51656135D01*
X167238886Y-51769403D01*
X167183936Y-51824353D01*
X167040728Y-51867794D01*
X166908699Y-51938366D01*
X166908697Y-51938367D01*
X166908698Y-51938367D01*
X166821971Y-52009541D01*
X166821967Y-52009545D01*
X166792974Y-52033339D01*
X166769180Y-52062332D01*
X164923706Y-53907807D01*
X164923706Y-52305095D01*
X166155802Y-51073000D01*
X166217939Y-51073000D01*
X166417898Y-51033226D01*
X166606256Y-50955205D01*
X166775774Y-50841937D01*
X166919937Y-50697774D01*
X167033205Y-50528256D01*
X167111226Y-50339898D01*
X167151000Y-50139939D01*
X167151000Y-49936061D01*
X167111226Y-49736102D01*
X167033205Y-49547744D01*
X166919937Y-49378226D01*
X166775774Y-49234063D01*
X166606256Y-49120795D01*
X166417898Y-49042774D01*
X166217939Y-49003000D01*
X166014061Y-49003000D01*
X165814102Y-49042774D01*
X165625744Y-49120795D01*
X165456226Y-49234063D01*
X165312063Y-49378226D01*
X165198795Y-49547744D01*
X165120774Y-49736102D01*
X165081000Y-49936061D01*
X165081000Y-49998198D01*
X164028570Y-51050629D01*
X163991243Y-50927577D01*
X163920671Y-50795548D01*
X163825698Y-50679823D01*
X163796701Y-50656026D01*
X163710837Y-50570162D01*
X163710837Y-50508025D01*
X163671063Y-50308066D01*
X163593042Y-50119708D01*
X163479774Y-49950190D01*
X163363316Y-49833732D01*
X164785139Y-48411910D01*
X164814136Y-48388113D01*
X164909109Y-48272388D01*
X164979681Y-48140359D01*
X165023138Y-47997098D01*
X165034135Y-47885445D01*
X165034135Y-47885437D01*
X165037811Y-47848112D01*
X165034135Y-47810787D01*
X165034135Y-47701077D01*
X165078072Y-47657140D01*
X165191340Y-47487622D01*
X165269361Y-47299264D01*
X165307391Y-47108072D01*
X166408000Y-47108072D01*
X166532482Y-47095812D01*
X166652180Y-47059502D01*
X166762494Y-47000537D01*
X166859185Y-46921185D01*
X166938537Y-46824494D01*
X166997502Y-46714180D01*
X167033812Y-46594482D01*
X167046072Y-46470000D01*
X167046072Y-44970000D01*
X167033812Y-44845518D01*
X166997502Y-44725820D01*
X166938537Y-44615506D01*
X166859185Y-44518815D01*
X166838273Y-44501653D01*
X167365952Y-44501653D01*
X167521962Y-44817214D01*
X167896745Y-45008020D01*
X168301551Y-45122044D01*
X168720824Y-45154902D01*
X169138451Y-45105334D01*
X169538383Y-44975243D01*
X169834038Y-44817214D01*
X169990048Y-44501653D01*
X168678000Y-43189605D01*
X167365952Y-44501653D01*
X166838273Y-44501653D01*
X166762494Y-44439463D01*
X166652180Y-44380498D01*
X166532482Y-44344188D01*
X166408000Y-44331928D01*
X164808000Y-44331928D01*
X164683518Y-44344188D01*
X164563820Y-44380498D01*
X164453506Y-44439463D01*
X164356815Y-44518815D01*
X164277463Y-44615506D01*
X164218498Y-44725820D01*
X164200977Y-44783581D01*
X164022759Y-44605363D01*
X163787727Y-44448320D01*
X163526574Y-44340147D01*
X163249335Y-44285000D01*
X162966665Y-44285000D01*
X162689426Y-44340147D01*
X162428273Y-44448320D01*
X162193241Y-44605363D01*
X162108000Y-44690604D01*
X162022759Y-44605363D01*
X161787727Y-44448320D01*
X161526574Y-44340147D01*
X161249335Y-44285000D01*
X160966665Y-44285000D01*
X160689426Y-44340147D01*
X160428273Y-44448320D01*
X160193241Y-44605363D01*
X159993363Y-44805241D01*
X159859308Y-45005869D01*
X159844671Y-44978486D01*
X159600702Y-44906903D01*
X158787605Y-45720000D01*
X159600702Y-46533097D01*
X159844671Y-46461514D01*
X159858324Y-46432659D01*
X159993363Y-46634759D01*
X160193241Y-46834637D01*
X160428273Y-46991680D01*
X160689426Y-47099853D01*
X160966665Y-47155000D01*
X161249335Y-47155000D01*
X161526574Y-47099853D01*
X161787727Y-46991680D01*
X161816779Y-46972268D01*
X159915975Y-48873073D01*
X159886977Y-48896871D01*
X159863179Y-48925869D01*
X159863178Y-48925870D01*
X159792003Y-49012596D01*
X159721431Y-49144626D01*
X159677975Y-49287887D01*
X159663301Y-49436872D01*
X159666978Y-49474201D01*
X159666978Y-53575000D01*
X159600028Y-53575000D01*
X159400069Y-53614774D01*
X159211711Y-53692795D01*
X159042193Y-53806063D01*
X158898030Y-53950226D01*
X158784762Y-54119744D01*
X158706741Y-54308102D01*
X158666967Y-54508061D01*
X158666967Y-54570199D01*
X158562744Y-54674422D01*
X158533746Y-54698220D01*
X158509948Y-54727218D01*
X158509947Y-54727219D01*
X158438772Y-54813945D01*
X158368200Y-54945975D01*
X158351720Y-55000305D01*
X158324744Y-55089235D01*
X158319426Y-55143225D01*
X158310070Y-55238221D01*
X158313747Y-55275554D01*
X158313746Y-72057539D01*
X158269809Y-72101476D01*
X158178290Y-72238445D01*
X158143205Y-72153744D01*
X158029937Y-71984226D01*
X157885774Y-71840063D01*
X157716256Y-71726795D01*
X157527898Y-71648774D01*
X157327939Y-71609000D01*
X157124061Y-71609000D01*
X156924102Y-71648774D01*
X156850936Y-71679081D01*
X156796192Y-71642502D01*
X156685875Y-71583536D01*
X156595319Y-71546027D01*
X156475623Y-71509718D01*
X156379490Y-71490596D01*
X156255009Y-71478336D01*
X156230450Y-71478336D01*
X156206000Y-71475928D01*
X155706000Y-71475928D01*
X155681550Y-71478336D01*
X155656991Y-71478336D01*
X155532510Y-71490596D01*
X155436377Y-71509718D01*
X155316681Y-71546027D01*
X155226125Y-71583536D01*
X155115808Y-71642502D01*
X155034309Y-71696958D01*
X154937618Y-71776310D01*
X154868310Y-71845618D01*
X154788958Y-71942309D01*
X154734502Y-72023808D01*
X154675536Y-72134125D01*
X154638027Y-72224681D01*
X154601718Y-72344377D01*
X154584000Y-72433452D01*
X154584000Y-57700143D01*
X157732000Y-57700143D01*
X157732000Y-46775607D01*
X157794903Y-46712704D01*
X157866486Y-46956671D01*
X158121996Y-47077571D01*
X158396184Y-47146300D01*
X158678512Y-47160217D01*
X158958130Y-47118787D01*
X159224292Y-47023603D01*
X159349514Y-46956671D01*
X159421097Y-46712702D01*
X158608000Y-45899605D01*
X158593858Y-45913748D01*
X158414253Y-45734143D01*
X158428395Y-45720000D01*
X157732000Y-45023605D01*
X157732000Y-44915857D01*
X157624252Y-44915857D01*
X157615298Y-44906903D01*
X157584781Y-44915857D01*
X156509488Y-44915857D01*
X156694038Y-44817214D01*
X156738491Y-44727298D01*
X157794903Y-44727298D01*
X158608000Y-45540395D01*
X159421097Y-44727298D01*
X159349514Y-44483329D01*
X159094004Y-44362429D01*
X158819816Y-44293700D01*
X158537488Y-44279783D01*
X158257870Y-44321213D01*
X157991708Y-44416397D01*
X157866486Y-44483329D01*
X157794903Y-44727298D01*
X156738491Y-44727298D01*
X156850048Y-44501653D01*
X155538000Y-43189605D01*
X155523858Y-43203748D01*
X155344253Y-43024143D01*
X155358395Y-43010000D01*
X155717605Y-43010000D01*
X157029653Y-44322048D01*
X157345214Y-44166038D01*
X157536020Y-43791255D01*
X157650044Y-43386449D01*
X157676189Y-43052824D01*
X166533098Y-43052824D01*
X166582666Y-43470451D01*
X166712757Y-43870383D01*
X166870786Y-44166038D01*
X167186347Y-44322048D01*
X168498395Y-43010000D01*
X168857605Y-43010000D01*
X170169653Y-44322048D01*
X170485214Y-44166038D01*
X170566480Y-44006413D01*
X172761192Y-44006413D01*
X172856956Y-44270814D01*
X173146571Y-44411704D01*
X173458108Y-44493384D01*
X173779595Y-44512718D01*
X174098675Y-44468961D01*
X174403088Y-44363795D01*
X174577044Y-44270814D01*
X174672808Y-44006413D01*
X179911192Y-44006413D01*
X180006956Y-44270814D01*
X180296571Y-44411704D01*
X180608108Y-44493384D01*
X180929595Y-44512718D01*
X181248675Y-44468961D01*
X181553088Y-44363795D01*
X181727044Y-44270814D01*
X181822808Y-44006413D01*
X180867000Y-43050605D01*
X179911192Y-44006413D01*
X174672808Y-44006413D01*
X173717000Y-43050605D01*
X172761192Y-44006413D01*
X170566480Y-44006413D01*
X170676020Y-43791255D01*
X170790044Y-43386449D01*
X170822902Y-42967176D01*
X170818917Y-42933595D01*
X172075282Y-42933595D01*
X172119039Y-43252675D01*
X172224205Y-43557088D01*
X172317186Y-43731044D01*
X172581587Y-43826808D01*
X173537395Y-42871000D01*
X172581587Y-41915192D01*
X172317186Y-42010956D01*
X172176296Y-42300571D01*
X172094616Y-42612108D01*
X172075282Y-42933595D01*
X170818917Y-42933595D01*
X170773334Y-42549549D01*
X170643243Y-42149617D01*
X170485214Y-41853962D01*
X170245778Y-41735587D01*
X172761192Y-41735587D01*
X173717000Y-42691395D01*
X173731143Y-42677253D01*
X173910748Y-42856858D01*
X173896605Y-42871000D01*
X174852413Y-43826808D01*
X175116814Y-43731044D01*
X175257704Y-43441429D01*
X175339384Y-43129892D01*
X175358718Y-42808405D01*
X175317933Y-42511000D01*
X175386552Y-42511000D01*
X175572022Y-42474108D01*
X175746731Y-42401741D01*
X175903964Y-42296681D01*
X176037681Y-42162964D01*
X176142741Y-42005731D01*
X176215108Y-41831022D01*
X176252000Y-41645552D01*
X176252000Y-41456448D01*
X178332000Y-41456448D01*
X178332000Y-41645552D01*
X178368892Y-41831022D01*
X178441259Y-42005731D01*
X178546319Y-42162964D01*
X178680036Y-42296681D01*
X178837269Y-42401741D01*
X179011978Y-42474108D01*
X179197448Y-42511000D01*
X179271125Y-42511000D01*
X179244616Y-42612108D01*
X179225282Y-42933595D01*
X179269039Y-43252675D01*
X179374205Y-43557088D01*
X179467186Y-43731044D01*
X179731587Y-43826808D01*
X180687395Y-42871000D01*
X181046605Y-42871000D01*
X182002413Y-43826808D01*
X182266814Y-43731044D01*
X182407704Y-43441429D01*
X182489384Y-43129892D01*
X182508718Y-42808405D01*
X182464961Y-42489325D01*
X182359795Y-42184912D01*
X182266814Y-42010956D01*
X182002413Y-41915192D01*
X181046605Y-42871000D01*
X180687395Y-42871000D01*
X180673253Y-42856858D01*
X180852858Y-42677253D01*
X180867000Y-42691395D01*
X181822808Y-41735587D01*
X181727044Y-41471186D01*
X181437429Y-41330296D01*
X181125892Y-41248616D01*
X180804405Y-41229282D01*
X180485325Y-41273039D01*
X180232866Y-41360256D01*
X180215108Y-41270978D01*
X180142741Y-41096269D01*
X180037681Y-40939036D01*
X179903964Y-40805319D01*
X179746731Y-40700259D01*
X179572022Y-40627892D01*
X179386552Y-40591000D01*
X179197448Y-40591000D01*
X179011978Y-40627892D01*
X178837269Y-40700259D01*
X178680036Y-40805319D01*
X178546319Y-40939036D01*
X178441259Y-41096269D01*
X178368892Y-41270978D01*
X178332000Y-41456448D01*
X176252000Y-41456448D01*
X176215108Y-41270978D01*
X176142741Y-41096269D01*
X176037681Y-40939036D01*
X175903964Y-40805319D01*
X175746731Y-40700259D01*
X175572022Y-40627892D01*
X175386552Y-40591000D01*
X175197448Y-40591000D01*
X175011978Y-40627892D01*
X174837269Y-40700259D01*
X174680036Y-40805319D01*
X174546319Y-40939036D01*
X174441259Y-41096269D01*
X174368892Y-41270978D01*
X174350947Y-41361196D01*
X174287429Y-41330296D01*
X173975892Y-41248616D01*
X173654405Y-41229282D01*
X173335325Y-41273039D01*
X173030912Y-41378205D01*
X172856956Y-41471186D01*
X172761192Y-41735587D01*
X170245778Y-41735587D01*
X170169653Y-41697952D01*
X168857605Y-43010000D01*
X168498395Y-43010000D01*
X167186347Y-41697952D01*
X166870786Y-41853962D01*
X166679980Y-42228745D01*
X166565956Y-42633551D01*
X166533098Y-43052824D01*
X157676189Y-43052824D01*
X157682902Y-42967176D01*
X157633334Y-42549549D01*
X157503243Y-42149617D01*
X157345214Y-41853962D01*
X157029653Y-41697952D01*
X155717605Y-43010000D01*
X155358395Y-43010000D01*
X155344253Y-42995858D01*
X155523858Y-42816253D01*
X155538000Y-42830395D01*
X156850048Y-41518347D01*
X167365952Y-41518347D01*
X168678000Y-42830395D01*
X169990048Y-41518347D01*
X169834038Y-41202786D01*
X169459255Y-41011980D01*
X169054449Y-40897956D01*
X168635176Y-40865098D01*
X168217549Y-40914666D01*
X167817617Y-41044757D01*
X167521962Y-41202786D01*
X167365952Y-41518347D01*
X156850048Y-41518347D01*
X156694038Y-41202786D01*
X156319255Y-41011980D01*
X155914449Y-40897956D01*
X155495176Y-40865098D01*
X155077549Y-40914666D01*
X154677617Y-41044757D01*
X154584000Y-41094796D01*
X154584000Y-40556413D01*
X172761192Y-40556413D01*
X172856956Y-40820814D01*
X173146571Y-40961704D01*
X173458108Y-41043384D01*
X173779595Y-41062718D01*
X174098675Y-41018961D01*
X174403088Y-40913795D01*
X174577044Y-40820814D01*
X174672808Y-40556413D01*
X179911192Y-40556413D01*
X180006956Y-40820814D01*
X180296571Y-40961704D01*
X180608108Y-41043384D01*
X180929595Y-41062718D01*
X181248675Y-41018961D01*
X181553088Y-40913795D01*
X181727044Y-40820814D01*
X181822808Y-40556413D01*
X180867000Y-39600605D01*
X179911192Y-40556413D01*
X174672808Y-40556413D01*
X173717000Y-39600605D01*
X172761192Y-40556413D01*
X154584000Y-40556413D01*
X154584000Y-39483595D01*
X172075282Y-39483595D01*
X172119039Y-39802675D01*
X172224205Y-40107088D01*
X172317186Y-40281044D01*
X172581587Y-40376808D01*
X173537395Y-39421000D01*
X173896605Y-39421000D01*
X174852413Y-40376808D01*
X175116814Y-40281044D01*
X175257704Y-39991429D01*
X175339384Y-39679892D01*
X175351189Y-39483595D01*
X179225282Y-39483595D01*
X179269039Y-39802675D01*
X179374205Y-40107088D01*
X179467186Y-40281044D01*
X179731587Y-40376808D01*
X180687395Y-39421000D01*
X181046605Y-39421000D01*
X182002413Y-40376808D01*
X182266814Y-40281044D01*
X182407704Y-39991429D01*
X182489384Y-39679892D01*
X182508718Y-39358405D01*
X182464961Y-39039325D01*
X182359795Y-38734912D01*
X182266814Y-38560956D01*
X182002413Y-38465192D01*
X181046605Y-39421000D01*
X180687395Y-39421000D01*
X179731587Y-38465192D01*
X179467186Y-38560956D01*
X179326296Y-38850571D01*
X179244616Y-39162108D01*
X179225282Y-39483595D01*
X175351189Y-39483595D01*
X175358718Y-39358405D01*
X175314961Y-39039325D01*
X175209795Y-38734912D01*
X175116814Y-38560956D01*
X174852413Y-38465192D01*
X173896605Y-39421000D01*
X173537395Y-39421000D01*
X172581587Y-38465192D01*
X172317186Y-38560956D01*
X172176296Y-38850571D01*
X172094616Y-39162108D01*
X172075282Y-39483595D01*
X154584000Y-39483595D01*
X154584000Y-38285587D01*
X172761192Y-38285587D01*
X173717000Y-39241395D01*
X174672808Y-38285587D01*
X179911192Y-38285587D01*
X180867000Y-39241395D01*
X181822808Y-38285587D01*
X181727044Y-38021186D01*
X181437429Y-37880296D01*
X181125892Y-37798616D01*
X180804405Y-37779282D01*
X180485325Y-37823039D01*
X180180912Y-37928205D01*
X180006956Y-38021186D01*
X179911192Y-38285587D01*
X174672808Y-38285587D01*
X174577044Y-38021186D01*
X174287429Y-37880296D01*
X173975892Y-37798616D01*
X173654405Y-37779282D01*
X173335325Y-37823039D01*
X173030912Y-37928205D01*
X172856956Y-38021186D01*
X172761192Y-38285587D01*
X154584000Y-38285587D01*
X154584000Y-37236000D01*
X183744001Y-37236000D01*
X183744001Y-43161012D01*
G37*
%TD.AperFunction*%
D26*
X182120001Y-54318668D02*
X182116324Y-54356000D01*
X182120001Y-54393333D01*
X182120604Y-54399451D01*
X182099000Y-54508061D01*
X182099000Y-54711939D01*
X182138774Y-54911898D01*
X182216795Y-55100256D01*
X182330063Y-55269774D01*
X182474226Y-55413937D01*
X182628001Y-55516686D01*
X182628001Y-55735314D01*
X182474226Y-55838063D01*
X182330063Y-55982226D01*
X182216795Y-56151744D01*
X182138774Y-56340102D01*
X182099000Y-56540061D01*
X182099000Y-56743939D01*
X182138774Y-56943898D01*
X182216795Y-57132256D01*
X182330063Y-57301774D01*
X182470923Y-57442634D01*
X182403750Y-57443000D01*
X182245000Y-57601750D01*
X182245000Y-58801000D01*
X182265000Y-58801000D01*
X182265000Y-59055000D01*
X182245000Y-59055000D01*
X182245000Y-61341000D01*
X182265000Y-61341000D01*
X182265000Y-61595000D01*
X182245000Y-61595000D01*
X182245000Y-61615000D01*
X181991000Y-61615000D01*
X181991000Y-61595000D01*
X180797845Y-61595000D01*
X180709880Y-61761684D01*
X180672192Y-61736502D01*
X180561875Y-61677536D01*
X180471319Y-61640027D01*
X180351623Y-61603718D01*
X180255490Y-61584596D01*
X180131009Y-61572336D01*
X180106450Y-61572336D01*
X180082000Y-61569928D01*
X179582000Y-61569928D01*
X179557550Y-61572336D01*
X179532991Y-61572336D01*
X179408510Y-61584596D01*
X179312377Y-61603718D01*
X179192681Y-61640027D01*
X179102125Y-61677536D01*
X178991808Y-61736502D01*
X178910309Y-61790958D01*
X178813618Y-61870310D01*
X178744310Y-61939618D01*
X178664958Y-62036309D01*
X178610502Y-62117808D01*
X178560000Y-62212290D01*
X178560000Y-59778000D01*
X180629928Y-59778000D01*
X180642188Y-59902482D01*
X180678498Y-60022180D01*
X180737463Y-60132494D01*
X180816815Y-60229185D01*
X180913506Y-60308537D01*
X181023820Y-60367502D01*
X181104466Y-60391966D01*
X181020412Y-60467731D01*
X180846359Y-60701080D01*
X180721175Y-60963901D01*
X180676524Y-61111110D01*
X180797845Y-61341000D01*
X181991000Y-61341000D01*
X181991000Y-59055000D01*
X180791750Y-59055000D01*
X180633000Y-59213750D01*
X180629928Y-59778000D01*
X178560000Y-59778000D01*
X178560000Y-58078000D01*
X180629928Y-58078000D01*
X180633000Y-58642250D01*
X180791750Y-58801000D01*
X181991000Y-58801000D01*
X181991000Y-57601750D01*
X181832250Y-57443000D01*
X181268000Y-57439928D01*
X181143518Y-57452188D01*
X181023820Y-57488498D01*
X180913506Y-57547463D01*
X180816815Y-57626815D01*
X180737463Y-57723506D01*
X180678498Y-57833820D01*
X180642188Y-57953518D01*
X180629928Y-58078000D01*
X178560000Y-58078000D01*
X178560000Y-57187322D01*
X178563676Y-57149999D01*
X178560000Y-57112676D01*
X178560000Y-57112667D01*
X178559397Y-57106545D01*
X178581000Y-56997939D01*
X178581000Y-56794061D01*
X178541226Y-56594102D01*
X178463205Y-56405744D01*
X178349937Y-56236226D01*
X178205774Y-56092063D01*
X178036256Y-55978795D01*
X177847898Y-55900774D01*
X177647939Y-55861000D01*
X177444061Y-55861000D01*
X177244102Y-55900774D01*
X177174327Y-55929676D01*
X177174327Y-52770474D01*
X180182965Y-49761837D01*
X180184795Y-49766256D01*
X180298063Y-49935774D01*
X180442226Y-50079937D01*
X180611744Y-50193205D01*
X180800102Y-50271226D01*
X181000061Y-50311000D01*
X181203939Y-50311000D01*
X181403898Y-50271226D01*
X181592256Y-50193205D01*
X181761774Y-50079937D01*
X181905937Y-49935774D01*
X182019205Y-49766256D01*
X182097226Y-49577898D01*
X182120000Y-49463403D01*
X182120001Y-54318668D01*
%TA.AperFunction,Conductor*%
D27*
G36*
X182120001Y-54318668D02*
G01*
X182116324Y-54356000D01*
X182120001Y-54393333D01*
X182120604Y-54399451D01*
X182099000Y-54508061D01*
X182099000Y-54711939D01*
X182138774Y-54911898D01*
X182216795Y-55100256D01*
X182330063Y-55269774D01*
X182474226Y-55413937D01*
X182628001Y-55516686D01*
X182628001Y-55735314D01*
X182474226Y-55838063D01*
X182330063Y-55982226D01*
X182216795Y-56151744D01*
X182138774Y-56340102D01*
X182099000Y-56540061D01*
X182099000Y-56743939D01*
X182138774Y-56943898D01*
X182216795Y-57132256D01*
X182330063Y-57301774D01*
X182470923Y-57442634D01*
X182403750Y-57443000D01*
X182245000Y-57601750D01*
X182245000Y-58801000D01*
X182265000Y-58801000D01*
X182265000Y-59055000D01*
X182245000Y-59055000D01*
X182245000Y-61341000D01*
X182265000Y-61341000D01*
X182265000Y-61595000D01*
X182245000Y-61595000D01*
X182245000Y-61615000D01*
X181991000Y-61615000D01*
X181991000Y-61595000D01*
X180797845Y-61595000D01*
X180709880Y-61761684D01*
X180672192Y-61736502D01*
X180561875Y-61677536D01*
X180471319Y-61640027D01*
X180351623Y-61603718D01*
X180255490Y-61584596D01*
X180131009Y-61572336D01*
X180106450Y-61572336D01*
X180082000Y-61569928D01*
X179582000Y-61569928D01*
X179557550Y-61572336D01*
X179532991Y-61572336D01*
X179408510Y-61584596D01*
X179312377Y-61603718D01*
X179192681Y-61640027D01*
X179102125Y-61677536D01*
X178991808Y-61736502D01*
X178910309Y-61790958D01*
X178813618Y-61870310D01*
X178744310Y-61939618D01*
X178664958Y-62036309D01*
X178610502Y-62117808D01*
X178560000Y-62212290D01*
X178560000Y-59778000D01*
X180629928Y-59778000D01*
X180642188Y-59902482D01*
X180678498Y-60022180D01*
X180737463Y-60132494D01*
X180816815Y-60229185D01*
X180913506Y-60308537D01*
X181023820Y-60367502D01*
X181104466Y-60391966D01*
X181020412Y-60467731D01*
X180846359Y-60701080D01*
X180721175Y-60963901D01*
X180676524Y-61111110D01*
X180797845Y-61341000D01*
X181991000Y-61341000D01*
X181991000Y-59055000D01*
X180791750Y-59055000D01*
X180633000Y-59213750D01*
X180629928Y-59778000D01*
X178560000Y-59778000D01*
X178560000Y-58078000D01*
X180629928Y-58078000D01*
X180633000Y-58642250D01*
X180791750Y-58801000D01*
X181991000Y-58801000D01*
X181991000Y-57601750D01*
X181832250Y-57443000D01*
X181268000Y-57439928D01*
X181143518Y-57452188D01*
X181023820Y-57488498D01*
X180913506Y-57547463D01*
X180816815Y-57626815D01*
X180737463Y-57723506D01*
X180678498Y-57833820D01*
X180642188Y-57953518D01*
X180629928Y-58078000D01*
X178560000Y-58078000D01*
X178560000Y-57187322D01*
X178563676Y-57149999D01*
X178560000Y-57112676D01*
X178560000Y-57112667D01*
X178559397Y-57106545D01*
X178581000Y-56997939D01*
X178581000Y-56794061D01*
X178541226Y-56594102D01*
X178463205Y-56405744D01*
X178349937Y-56236226D01*
X178205774Y-56092063D01*
X178036256Y-55978795D01*
X177847898Y-55900774D01*
X177647939Y-55861000D01*
X177444061Y-55861000D01*
X177244102Y-55900774D01*
X177174327Y-55929676D01*
X177174327Y-52770474D01*
X180182965Y-49761837D01*
X180184795Y-49766256D01*
X180298063Y-49935774D01*
X180442226Y-50079937D01*
X180611744Y-50193205D01*
X180800102Y-50271226D01*
X181000061Y-50311000D01*
X181203939Y-50311000D01*
X181403898Y-50271226D01*
X181592256Y-50193205D01*
X181761774Y-50079937D01*
X181905937Y-49935774D01*
X182019205Y-49766256D01*
X182097226Y-49577898D01*
X182120000Y-49463403D01*
X182120001Y-54318668D01*
G37*
%TD.AperFunction*%
D26*
X162185581Y-51527169D02*
X162373939Y-51605190D01*
X162525697Y-51635376D01*
X162525698Y-52260265D01*
X162481760Y-52304203D01*
X162368492Y-52473721D01*
X162290471Y-52662079D01*
X162250697Y-52862038D01*
X162250697Y-53065916D01*
X162290471Y-53265875D01*
X162368492Y-53454233D01*
X162481760Y-53623751D01*
X162625923Y-53767914D01*
X162795441Y-53881182D01*
X162925697Y-53935136D01*
X162925696Y-55380538D01*
X162795441Y-55434492D01*
X162625923Y-55547760D01*
X162481760Y-55691923D01*
X162368492Y-55861441D01*
X162290471Y-56049799D01*
X162250697Y-56249758D01*
X162250697Y-56453636D01*
X162290471Y-56653595D01*
X162368492Y-56841953D01*
X162481760Y-57011471D01*
X162525698Y-57055409D01*
X162525698Y-61195000D01*
X162458061Y-61195000D01*
X162258102Y-61234774D01*
X162086999Y-61305648D01*
X162086999Y-51461299D01*
X162185581Y-51527169D01*
%TA.AperFunction,Conductor*%
D27*
G36*
X162185581Y-51527169D02*
G01*
X162373939Y-51605190D01*
X162525697Y-51635376D01*
X162525698Y-52260265D01*
X162481760Y-52304203D01*
X162368492Y-52473721D01*
X162290471Y-52662079D01*
X162250697Y-52862038D01*
X162250697Y-53065916D01*
X162290471Y-53265875D01*
X162368492Y-53454233D01*
X162481760Y-53623751D01*
X162625923Y-53767914D01*
X162795441Y-53881182D01*
X162925697Y-53935136D01*
X162925696Y-55380538D01*
X162795441Y-55434492D01*
X162625923Y-55547760D01*
X162481760Y-55691923D01*
X162368492Y-55861441D01*
X162290471Y-56049799D01*
X162250697Y-56249758D01*
X162250697Y-56453636D01*
X162290471Y-56653595D01*
X162368492Y-56841953D01*
X162481760Y-57011471D01*
X162525698Y-57055409D01*
X162525698Y-61195000D01*
X162458061Y-61195000D01*
X162258102Y-61234774D01*
X162086999Y-61305648D01*
X162086999Y-51461299D01*
X162185581Y-51527169D01*
G37*
%TD.AperFunction*%
%TD*%
M02*
