%TF.GenerationSoftware,KiCad,Pcbnew,(5.1.9-16-g1737927814)-1*%
%TF.CreationDate,2021-07-07T14:31:42-05:00*%
%TF.ProjectId,adbuino,61646275-696e-46f2-9e6b-696361645f70,rev?*%
%TF.SameCoordinates,Original*%
%TF.FileFunction,Copper,L1,Top*%
%TF.FilePolarity,Positive*%
%FSLAX46Y46*%
G04 Gerber Fmt 4.6, Leading zero omitted, Abs format (unit mm)*
G04 Created by KiCad (PCBNEW (5.1.9-16-g1737927814)-1) date 2021-07-07 14:31:42*
%MOMM*%
%LPD*%
G01*
G04 APERTURE LIST*
%TA.AperFunction,ComponentPad*%
%ADD10C,2.000000*%
%TD*%
%TA.AperFunction,SMDPad,CuDef*%
%ADD11R,0.400000X1.400000*%
%TD*%
%TA.AperFunction,SMDPad,CuDef*%
%ADD12C,0.100000*%
%TD*%
%TA.AperFunction,SMDPad,CuDef*%
%ADD13R,2.000000X4.500000*%
%TD*%
%TA.AperFunction,ComponentPad*%
%ADD14O,1.700000X1.700000*%
%TD*%
%TA.AperFunction,ComponentPad*%
%ADD15R,1.700000X1.700000*%
%TD*%
%TA.AperFunction,SMDPad,CuDef*%
%ADD16R,1.200000X1.400000*%
%TD*%
%TA.AperFunction,SMDPad,CuDef*%
%ADD17R,1.300000X1.550000*%
%TD*%
%TA.AperFunction,SMDPad,CuDef*%
%ADD18R,0.800000X0.900000*%
%TD*%
%TA.AperFunction,SMDPad,CuDef*%
%ADD19R,1.500000X2.000000*%
%TD*%
%TA.AperFunction,SMDPad,CuDef*%
%ADD20R,3.800000X2.000000*%
%TD*%
%TA.AperFunction,SMDPad,CuDef*%
%ADD21R,1.600000X0.550000*%
%TD*%
%TA.AperFunction,SMDPad,CuDef*%
%ADD22R,0.550000X1.600000*%
%TD*%
%TA.AperFunction,ComponentPad*%
%ADD23O,1.800000X3.600000*%
%TD*%
%TA.AperFunction,ComponentPad*%
%ADD24C,1.408000*%
%TD*%
%TA.AperFunction,ComponentPad*%
%ADD25C,3.216000*%
%TD*%
%TA.AperFunction,ComponentPad*%
%ADD26C,1.600000*%
%TD*%
%TA.AperFunction,ComponentPad*%
%ADD27R,1.600000X1.500000*%
%TD*%
%TA.AperFunction,ComponentPad*%
%ADD28C,3.000000*%
%TD*%
%TA.AperFunction,ViaPad*%
%ADD29C,0.800000*%
%TD*%
%TA.AperFunction,Conductor*%
%ADD30C,0.250000*%
%TD*%
%TA.AperFunction,Conductor*%
%ADD31C,0.254000*%
%TD*%
%TA.AperFunction,Conductor*%
%ADD32C,0.100000*%
%TD*%
G04 APERTURE END LIST*
D10*
%TO.P,J2,MH4*%
%TO.N,GND*%
X180867000Y-42871000D03*
%TO.P,J2,MH3*%
X173717000Y-42871000D03*
%TO.P,J2,MH2*%
X173717000Y-39421000D03*
%TO.P,J2,MH1*%
X180867000Y-39421000D03*
D11*
%TO.P,J2,5*%
X175992000Y-42371000D03*
%TO.P,J2,4*%
%TO.N,N/C*%
X176642000Y-42371000D03*
%TO.P,J2,3*%
X177292000Y-42371000D03*
%TO.P,J2,2*%
X177942000Y-42371000D03*
%TO.P,J2,1*%
%TO.N,VBUS*%
X178592000Y-42371000D03*
%TD*%
%TA.AperFunction,SMDPad,CuDef*%
D12*
%TO.P,IC1,32*%
%TO.N,N/C*%
G36*
X167723382Y-57721624D02*
G01*
X166680400Y-58764606D01*
X166468268Y-58552474D01*
X167511250Y-57509492D01*
X167723382Y-57721624D01*
G37*
%TD.AperFunction*%
%TA.AperFunction,SMDPad,CuDef*%
%TO.P,IC1,31*%
G36*
X167369829Y-57368070D02*
G01*
X166326847Y-58411052D01*
X166114715Y-58198920D01*
X167157697Y-57155938D01*
X167369829Y-57368070D01*
G37*
%TD.AperFunction*%
%TA.AperFunction,SMDPad,CuDef*%
%TO.P,IC1,30*%
G36*
X167016275Y-57014517D02*
G01*
X165973293Y-58057499D01*
X165761161Y-57845367D01*
X166804143Y-56802385D01*
X167016275Y-57014517D01*
G37*
%TD.AperFunction*%
%TA.AperFunction,SMDPad,CuDef*%
%TO.P,IC1,29*%
G36*
X166662722Y-56660963D02*
G01*
X165619740Y-57703945D01*
X165407608Y-57491813D01*
X166450590Y-56448831D01*
X166662722Y-56660963D01*
G37*
%TD.AperFunction*%
%TA.AperFunction,SMDPad,CuDef*%
%TO.P,IC1,28*%
G36*
X166309169Y-56307410D02*
G01*
X165266187Y-57350392D01*
X165054055Y-57138260D01*
X166097037Y-56095278D01*
X166309169Y-56307410D01*
G37*
%TD.AperFunction*%
%TA.AperFunction,SMDPad,CuDef*%
%TO.P,IC1,27*%
G36*
X165955615Y-55953857D02*
G01*
X164912633Y-56996839D01*
X164700501Y-56784707D01*
X165743483Y-55741725D01*
X165955615Y-55953857D01*
G37*
%TD.AperFunction*%
%TA.AperFunction,SMDPad,CuDef*%
%TO.P,IC1,26*%
%TO.N,Net-(IC1-Pad26)*%
G36*
X165602062Y-55600303D02*
G01*
X164559080Y-56643285D01*
X164346948Y-56431153D01*
X165389930Y-55388171D01*
X165602062Y-55600303D01*
G37*
%TD.AperFunction*%
%TA.AperFunction,SMDPad,CuDef*%
%TO.P,IC1,25*%
%TO.N,Net-(C10-Pad1)*%
G36*
X165248508Y-55246750D02*
G01*
X164205526Y-56289732D01*
X163993394Y-56077600D01*
X165036376Y-55034618D01*
X165248508Y-55246750D01*
G37*
%TD.AperFunction*%
%TA.AperFunction,SMDPad,CuDef*%
%TO.P,IC1,24*%
%TO.N,Net-(C11-Pad1)*%
G36*
X164205526Y-52930268D02*
G01*
X165248508Y-53973250D01*
X165036376Y-54185382D01*
X163993394Y-53142400D01*
X164205526Y-52930268D01*
G37*
%TD.AperFunction*%
%TA.AperFunction,SMDPad,CuDef*%
%TO.P,IC1,23*%
%TO.N,+3V3*%
G36*
X164559080Y-52576715D02*
G01*
X165602062Y-53619697D01*
X165389930Y-53831829D01*
X164346948Y-52788847D01*
X164559080Y-52576715D01*
G37*
%TD.AperFunction*%
%TA.AperFunction,SMDPad,CuDef*%
%TO.P,IC1,22*%
%TO.N,Net-(C12-Pad1)*%
G36*
X164912633Y-52223161D02*
G01*
X165955615Y-53266143D01*
X165743483Y-53478275D01*
X164700501Y-52435293D01*
X164912633Y-52223161D01*
G37*
%TD.AperFunction*%
%TA.AperFunction,SMDPad,CuDef*%
%TO.P,IC1,21*%
%TO.N,Host_USB_D+*%
G36*
X165266187Y-51869608D02*
G01*
X166309169Y-52912590D01*
X166097037Y-53124722D01*
X165054055Y-52081740D01*
X165266187Y-51869608D01*
G37*
%TD.AperFunction*%
%TA.AperFunction,SMDPad,CuDef*%
%TO.P,IC1,20*%
%TO.N,Host_USB_D-*%
G36*
X165619740Y-51516055D02*
G01*
X166662722Y-52559037D01*
X166450590Y-52771169D01*
X165407608Y-51728187D01*
X165619740Y-51516055D01*
G37*
%TD.AperFunction*%
%TA.AperFunction,SMDPad,CuDef*%
%TO.P,IC1,19*%
%TO.N,GND*%
G36*
X165973293Y-51162501D02*
G01*
X167016275Y-52205483D01*
X166804143Y-52417615D01*
X165761161Y-51374633D01*
X165973293Y-51162501D01*
G37*
%TD.AperFunction*%
%TA.AperFunction,SMDPad,CuDef*%
%TO.P,IC1,18*%
%TO.N,MAX3421_INT*%
G36*
X166326847Y-50808948D02*
G01*
X167369829Y-51851930D01*
X167157697Y-52064062D01*
X166114715Y-51021080D01*
X166326847Y-50808948D01*
G37*
%TD.AperFunction*%
%TA.AperFunction,SMDPad,CuDef*%
%TO.P,IC1,17*%
%TO.N,MAX3421_GPX*%
G36*
X166680400Y-50455394D02*
G01*
X167723382Y-51498376D01*
X167511250Y-51710508D01*
X166468268Y-50667526D01*
X166680400Y-50455394D01*
G37*
%TD.AperFunction*%
%TA.AperFunction,SMDPad,CuDef*%
%TO.P,IC1,16*%
%TO.N,SPI_MOSI*%
G36*
X169827732Y-50667526D02*
G01*
X168784750Y-51710508D01*
X168572618Y-51498376D01*
X169615600Y-50455394D01*
X169827732Y-50667526D01*
G37*
%TD.AperFunction*%
%TA.AperFunction,SMDPad,CuDef*%
%TO.P,IC1,15*%
%TO.N,SPI_MISO*%
G36*
X170181285Y-51021080D02*
G01*
X169138303Y-52064062D01*
X168926171Y-51851930D01*
X169969153Y-50808948D01*
X170181285Y-51021080D01*
G37*
%TD.AperFunction*%
%TA.AperFunction,SMDPad,CuDef*%
%TO.P,IC1,14*%
%TO.N,MAX3421_SS*%
G36*
X170534839Y-51374633D02*
G01*
X169491857Y-52417615D01*
X169279725Y-52205483D01*
X170322707Y-51162501D01*
X170534839Y-51374633D01*
G37*
%TD.AperFunction*%
%TA.AperFunction,SMDPad,CuDef*%
%TO.P,IC1,13*%
%TO.N,SPI_SCLK*%
G36*
X170888392Y-51728187D02*
G01*
X169845410Y-52771169D01*
X169633278Y-52559037D01*
X170676260Y-51516055D01*
X170888392Y-51728187D01*
G37*
%TD.AperFunction*%
%TA.AperFunction,SMDPad,CuDef*%
%TO.P,IC1,12*%
%TO.N,MAX3421_RESET*%
G36*
X171241945Y-52081740D02*
G01*
X170198963Y-53124722D01*
X169986831Y-52912590D01*
X171029813Y-51869608D01*
X171241945Y-52081740D01*
G37*
%TD.AperFunction*%
%TA.AperFunction,SMDPad,CuDef*%
%TO.P,IC1,11*%
%TO.N,N/C*%
G36*
X171595499Y-52435293D02*
G01*
X170552517Y-53478275D01*
X170340385Y-53266143D01*
X171383367Y-52223161D01*
X171595499Y-52435293D01*
G37*
%TD.AperFunction*%
%TA.AperFunction,SMDPad,CuDef*%
%TO.P,IC1,10*%
G36*
X171949052Y-52788847D02*
G01*
X170906070Y-53831829D01*
X170693938Y-53619697D01*
X171736920Y-52576715D01*
X171949052Y-52788847D01*
G37*
%TD.AperFunction*%
%TA.AperFunction,SMDPad,CuDef*%
%TO.P,IC1,9*%
G36*
X172302606Y-53142400D02*
G01*
X171259624Y-54185382D01*
X171047492Y-53973250D01*
X172090474Y-52930268D01*
X172302606Y-53142400D01*
G37*
%TD.AperFunction*%
%TA.AperFunction,SMDPad,CuDef*%
%TO.P,IC1,8*%
G36*
X171259624Y-55034618D02*
G01*
X172302606Y-56077600D01*
X172090474Y-56289732D01*
X171047492Y-55246750D01*
X171259624Y-55034618D01*
G37*
%TD.AperFunction*%
%TA.AperFunction,SMDPad,CuDef*%
%TO.P,IC1,7*%
G36*
X170906070Y-55388171D02*
G01*
X171949052Y-56431153D01*
X171736920Y-56643285D01*
X170693938Y-55600303D01*
X170906070Y-55388171D01*
G37*
%TD.AperFunction*%
%TA.AperFunction,SMDPad,CuDef*%
%TO.P,IC1,6*%
G36*
X170552517Y-55741725D02*
G01*
X171595499Y-56784707D01*
X171383367Y-56996839D01*
X170340385Y-55953857D01*
X170552517Y-55741725D01*
G37*
%TD.AperFunction*%
%TA.AperFunction,SMDPad,CuDef*%
%TO.P,IC1,5*%
G36*
X170198963Y-56095278D02*
G01*
X171241945Y-57138260D01*
X171029813Y-57350392D01*
X169986831Y-56307410D01*
X170198963Y-56095278D01*
G37*
%TD.AperFunction*%
%TA.AperFunction,SMDPad,CuDef*%
%TO.P,IC1,4*%
G36*
X169845410Y-56448831D02*
G01*
X170888392Y-57491813D01*
X170676260Y-57703945D01*
X169633278Y-56660963D01*
X169845410Y-56448831D01*
G37*
%TD.AperFunction*%
%TA.AperFunction,SMDPad,CuDef*%
%TO.P,IC1,3*%
%TO.N,GND*%
G36*
X169491857Y-56802385D02*
G01*
X170534839Y-57845367D01*
X170322707Y-58057499D01*
X169279725Y-57014517D01*
X169491857Y-56802385D01*
G37*
%TD.AperFunction*%
%TA.AperFunction,SMDPad,CuDef*%
%TO.P,IC1,2*%
%TO.N,+3V3*%
G36*
X169138303Y-57155938D02*
G01*
X170181285Y-58198920D01*
X169969153Y-58411052D01*
X168926171Y-57368070D01*
X169138303Y-57155938D01*
G37*
%TD.AperFunction*%
%TA.AperFunction,SMDPad,CuDef*%
%TO.P,IC1,1*%
%TO.N,N/C*%
G36*
X168784750Y-57509492D02*
G01*
X169827732Y-58552474D01*
X169615600Y-58764606D01*
X168572618Y-57721624D01*
X168784750Y-57509492D01*
G37*
%TD.AperFunction*%
%TD*%
%TO.P,C16,2*%
%TO.N,GND*%
%TA.AperFunction,SMDPad,CuDef*%
G36*
G01*
X171772000Y-72865000D02*
X171772000Y-71915000D01*
G75*
G02*
X172022000Y-71665000I250000J0D01*
G01*
X172522000Y-71665000D01*
G75*
G02*
X172772000Y-71915000I0J-250000D01*
G01*
X172772000Y-72865000D01*
G75*
G02*
X172522000Y-73115000I-250000J0D01*
G01*
X172022000Y-73115000D01*
G75*
G02*
X171772000Y-72865000I0J250000D01*
G01*
G37*
%TD.AperFunction*%
%TO.P,C16,1*%
%TO.N,VCC*%
%TA.AperFunction,SMDPad,CuDef*%
G36*
G01*
X169872000Y-72865000D02*
X169872000Y-71915000D01*
G75*
G02*
X170122000Y-71665000I250000J0D01*
G01*
X170622000Y-71665000D01*
G75*
G02*
X170872000Y-71915000I0J-250000D01*
G01*
X170872000Y-72865000D01*
G75*
G02*
X170622000Y-73115000I-250000J0D01*
G01*
X170122000Y-73115000D01*
G75*
G02*
X169872000Y-72865000I0J250000D01*
G01*
G37*
%TD.AperFunction*%
%TD*%
%TO.P,C15,2*%
%TO.N,GND*%
%TA.AperFunction,SMDPad,CuDef*%
G36*
G01*
X169984000Y-84615000D02*
X169984000Y-85565000D01*
G75*
G02*
X169734000Y-85815000I-250000J0D01*
G01*
X169234000Y-85815000D01*
G75*
G02*
X168984000Y-85565000I0J250000D01*
G01*
X168984000Y-84615000D01*
G75*
G02*
X169234000Y-84365000I250000J0D01*
G01*
X169734000Y-84365000D01*
G75*
G02*
X169984000Y-84615000I0J-250000D01*
G01*
G37*
%TD.AperFunction*%
%TO.P,C15,1*%
%TO.N,VCC*%
%TA.AperFunction,SMDPad,CuDef*%
G36*
G01*
X171884000Y-84615000D02*
X171884000Y-85565000D01*
G75*
G02*
X171634000Y-85815000I-250000J0D01*
G01*
X171134000Y-85815000D01*
G75*
G02*
X170884000Y-85565000I0J250000D01*
G01*
X170884000Y-84615000D01*
G75*
G02*
X171134000Y-84365000I250000J0D01*
G01*
X171634000Y-84365000D01*
G75*
G02*
X171884000Y-84615000I0J-250000D01*
G01*
G37*
%TD.AperFunction*%
%TD*%
%TO.P,C14,2*%
%TO.N,GND*%
%TA.AperFunction,SMDPad,CuDef*%
G36*
G01*
X175268000Y-72865000D02*
X175268000Y-71915000D01*
G75*
G02*
X175518000Y-71665000I250000J0D01*
G01*
X176018000Y-71665000D01*
G75*
G02*
X176268000Y-71915000I0J-250000D01*
G01*
X176268000Y-72865000D01*
G75*
G02*
X176018000Y-73115000I-250000J0D01*
G01*
X175518000Y-73115000D01*
G75*
G02*
X175268000Y-72865000I0J250000D01*
G01*
G37*
%TD.AperFunction*%
%TO.P,C14,1*%
%TO.N,VCC*%
%TA.AperFunction,SMDPad,CuDef*%
G36*
G01*
X173368000Y-72865000D02*
X173368000Y-71915000D01*
G75*
G02*
X173618000Y-71665000I250000J0D01*
G01*
X174118000Y-71665000D01*
G75*
G02*
X174368000Y-71915000I0J-250000D01*
G01*
X174368000Y-72865000D01*
G75*
G02*
X174118000Y-73115000I-250000J0D01*
G01*
X173618000Y-73115000D01*
G75*
G02*
X173368000Y-72865000I0J250000D01*
G01*
G37*
%TD.AperFunction*%
%TD*%
D13*
%TO.P,Y2,2*%
%TO.N,Net-(C10-Pad1)*%
X157480000Y-63940000D03*
%TO.P,Y2,1*%
%TO.N,Net-(C11-Pad1)*%
X157480000Y-55440000D03*
%TD*%
D14*
%TO.P,J1,6*%
%TO.N,FTDI_DTR*%
X182118000Y-71628000D03*
%TO.P,J1,5*%
%TO.N,FTDI_TXO*%
X182118000Y-69088000D03*
%TO.P,J1,4*%
%TO.N,FTDI_RXI*%
X182118000Y-66548000D03*
%TO.P,J1,3*%
%TO.N,Net-(J1-Pad3)*%
X182118000Y-64008000D03*
%TO.P,J1,2*%
%TO.N,GND*%
X182118000Y-61468000D03*
D15*
%TO.P,J1,1*%
X182118000Y-58928000D03*
%TD*%
%TO.P,IC2,16*%
%TO.N,N/C*%
%TA.AperFunction,SMDPad,CuDef*%
G36*
G01*
X159846000Y-72005000D02*
X159846000Y-71705000D01*
G75*
G02*
X159996000Y-71555000I150000J0D01*
G01*
X161696000Y-71555000D01*
G75*
G02*
X161846000Y-71705000I0J-150000D01*
G01*
X161846000Y-72005000D01*
G75*
G02*
X161696000Y-72155000I-150000J0D01*
G01*
X159996000Y-72155000D01*
G75*
G02*
X159846000Y-72005000I0J150000D01*
G01*
G37*
%TD.AperFunction*%
%TO.P,IC2,15*%
%TA.AperFunction,SMDPad,CuDef*%
G36*
G01*
X159846000Y-73275000D02*
X159846000Y-72975000D01*
G75*
G02*
X159996000Y-72825000I150000J0D01*
G01*
X161696000Y-72825000D01*
G75*
G02*
X161846000Y-72975000I0J-150000D01*
G01*
X161846000Y-73275000D01*
G75*
G02*
X161696000Y-73425000I-150000J0D01*
G01*
X159996000Y-73425000D01*
G75*
G02*
X159846000Y-73275000I0J150000D01*
G01*
G37*
%TD.AperFunction*%
%TO.P,IC2,14*%
%TA.AperFunction,SMDPad,CuDef*%
G36*
G01*
X159846000Y-74545000D02*
X159846000Y-74245000D01*
G75*
G02*
X159996000Y-74095000I150000J0D01*
G01*
X161696000Y-74095000D01*
G75*
G02*
X161846000Y-74245000I0J-150000D01*
G01*
X161846000Y-74545000D01*
G75*
G02*
X161696000Y-74695000I-150000J0D01*
G01*
X159996000Y-74695000D01*
G75*
G02*
X159846000Y-74545000I0J150000D01*
G01*
G37*
%TD.AperFunction*%
%TO.P,IC2,13*%
%TA.AperFunction,SMDPad,CuDef*%
G36*
G01*
X159846000Y-75815000D02*
X159846000Y-75515000D01*
G75*
G02*
X159996000Y-75365000I150000J0D01*
G01*
X161696000Y-75365000D01*
G75*
G02*
X161846000Y-75515000I0J-150000D01*
G01*
X161846000Y-75815000D01*
G75*
G02*
X161696000Y-75965000I-150000J0D01*
G01*
X159996000Y-75965000D01*
G75*
G02*
X159846000Y-75815000I0J150000D01*
G01*
G37*
%TD.AperFunction*%
%TO.P,IC2,12*%
%TA.AperFunction,SMDPad,CuDef*%
G36*
G01*
X159846000Y-77085000D02*
X159846000Y-76785000D01*
G75*
G02*
X159996000Y-76635000I150000J0D01*
G01*
X161696000Y-76635000D01*
G75*
G02*
X161846000Y-76785000I0J-150000D01*
G01*
X161846000Y-77085000D01*
G75*
G02*
X161696000Y-77235000I-150000J0D01*
G01*
X159996000Y-77235000D01*
G75*
G02*
X159846000Y-77085000I0J150000D01*
G01*
G37*
%TD.AperFunction*%
%TO.P,IC2,11*%
%TA.AperFunction,SMDPad,CuDef*%
G36*
G01*
X159846000Y-78355000D02*
X159846000Y-78055000D01*
G75*
G02*
X159996000Y-77905000I150000J0D01*
G01*
X161696000Y-77905000D01*
G75*
G02*
X161846000Y-78055000I0J-150000D01*
G01*
X161846000Y-78355000D01*
G75*
G02*
X161696000Y-78505000I-150000J0D01*
G01*
X159996000Y-78505000D01*
G75*
G02*
X159846000Y-78355000I0J150000D01*
G01*
G37*
%TD.AperFunction*%
%TO.P,IC2,10*%
%TO.N,MAX3421_RESET*%
%TA.AperFunction,SMDPad,CuDef*%
G36*
G01*
X159846000Y-79625000D02*
X159846000Y-79325000D01*
G75*
G02*
X159996000Y-79175000I150000J0D01*
G01*
X161696000Y-79175000D01*
G75*
G02*
X161846000Y-79325000I0J-150000D01*
G01*
X161846000Y-79625000D01*
G75*
G02*
X161696000Y-79775000I-150000J0D01*
G01*
X159996000Y-79775000D01*
G75*
G02*
X159846000Y-79625000I0J150000D01*
G01*
G37*
%TD.AperFunction*%
%TO.P,IC2,9*%
%TO.N,TTL_MAX3421_RESET*%
%TA.AperFunction,SMDPad,CuDef*%
G36*
G01*
X159846000Y-80895000D02*
X159846000Y-80595000D01*
G75*
G02*
X159996000Y-80445000I150000J0D01*
G01*
X161696000Y-80445000D01*
G75*
G02*
X161846000Y-80595000I0J-150000D01*
G01*
X161846000Y-80895000D01*
G75*
G02*
X161696000Y-81045000I-150000J0D01*
G01*
X159996000Y-81045000D01*
G75*
G02*
X159846000Y-80895000I0J150000D01*
G01*
G37*
%TD.AperFunction*%
%TO.P,IC2,8*%
%TO.N,GND*%
%TA.AperFunction,SMDPad,CuDef*%
G36*
G01*
X154846000Y-80895000D02*
X154846000Y-80595000D01*
G75*
G02*
X154996000Y-80445000I150000J0D01*
G01*
X156696000Y-80445000D01*
G75*
G02*
X156846000Y-80595000I0J-150000D01*
G01*
X156846000Y-80895000D01*
G75*
G02*
X156696000Y-81045000I-150000J0D01*
G01*
X154996000Y-81045000D01*
G75*
G02*
X154846000Y-80895000I0J150000D01*
G01*
G37*
%TD.AperFunction*%
%TO.P,IC2,7*%
%TO.N,TTL_SPI_MOSI*%
%TA.AperFunction,SMDPad,CuDef*%
G36*
G01*
X154846000Y-79625000D02*
X154846000Y-79325000D01*
G75*
G02*
X154996000Y-79175000I150000J0D01*
G01*
X156696000Y-79175000D01*
G75*
G02*
X156846000Y-79325000I0J-150000D01*
G01*
X156846000Y-79625000D01*
G75*
G02*
X156696000Y-79775000I-150000J0D01*
G01*
X154996000Y-79775000D01*
G75*
G02*
X154846000Y-79625000I0J150000D01*
G01*
G37*
%TD.AperFunction*%
%TO.P,IC2,6*%
%TO.N,SPI_MOSI*%
%TA.AperFunction,SMDPad,CuDef*%
G36*
G01*
X154846000Y-78355000D02*
X154846000Y-78055000D01*
G75*
G02*
X154996000Y-77905000I150000J0D01*
G01*
X156696000Y-77905000D01*
G75*
G02*
X156846000Y-78055000I0J-150000D01*
G01*
X156846000Y-78355000D01*
G75*
G02*
X156696000Y-78505000I-150000J0D01*
G01*
X154996000Y-78505000D01*
G75*
G02*
X154846000Y-78355000I0J150000D01*
G01*
G37*
%TD.AperFunction*%
%TO.P,IC2,5*%
%TO.N,TTL_SS*%
%TA.AperFunction,SMDPad,CuDef*%
G36*
G01*
X154846000Y-77085000D02*
X154846000Y-76785000D01*
G75*
G02*
X154996000Y-76635000I150000J0D01*
G01*
X156696000Y-76635000D01*
G75*
G02*
X156846000Y-76785000I0J-150000D01*
G01*
X156846000Y-77085000D01*
G75*
G02*
X156696000Y-77235000I-150000J0D01*
G01*
X154996000Y-77235000D01*
G75*
G02*
X154846000Y-77085000I0J150000D01*
G01*
G37*
%TD.AperFunction*%
%TO.P,IC2,4*%
%TO.N,MAX3421_SS*%
%TA.AperFunction,SMDPad,CuDef*%
G36*
G01*
X154846000Y-75815000D02*
X154846000Y-75515000D01*
G75*
G02*
X154996000Y-75365000I150000J0D01*
G01*
X156696000Y-75365000D01*
G75*
G02*
X156846000Y-75515000I0J-150000D01*
G01*
X156846000Y-75815000D01*
G75*
G02*
X156696000Y-75965000I-150000J0D01*
G01*
X154996000Y-75965000D01*
G75*
G02*
X154846000Y-75815000I0J150000D01*
G01*
G37*
%TD.AperFunction*%
%TO.P,IC2,3*%
%TO.N,TTL_SPI_SCLK*%
%TA.AperFunction,SMDPad,CuDef*%
G36*
G01*
X154846000Y-74545000D02*
X154846000Y-74245000D01*
G75*
G02*
X154996000Y-74095000I150000J0D01*
G01*
X156696000Y-74095000D01*
G75*
G02*
X156846000Y-74245000I0J-150000D01*
G01*
X156846000Y-74545000D01*
G75*
G02*
X156696000Y-74695000I-150000J0D01*
G01*
X154996000Y-74695000D01*
G75*
G02*
X154846000Y-74545000I0J150000D01*
G01*
G37*
%TD.AperFunction*%
%TO.P,IC2,2*%
%TO.N,SPI_SCLK*%
%TA.AperFunction,SMDPad,CuDef*%
G36*
G01*
X154846000Y-73275000D02*
X154846000Y-72975000D01*
G75*
G02*
X154996000Y-72825000I150000J0D01*
G01*
X156696000Y-72825000D01*
G75*
G02*
X156846000Y-72975000I0J-150000D01*
G01*
X156846000Y-73275000D01*
G75*
G02*
X156696000Y-73425000I-150000J0D01*
G01*
X154996000Y-73425000D01*
G75*
G02*
X154846000Y-73275000I0J150000D01*
G01*
G37*
%TD.AperFunction*%
%TO.P,IC2,1*%
%TO.N,+3V3*%
%TA.AperFunction,SMDPad,CuDef*%
G36*
G01*
X154846000Y-72005000D02*
X154846000Y-71705000D01*
G75*
G02*
X154996000Y-71555000I150000J0D01*
G01*
X156696000Y-71555000D01*
G75*
G02*
X156846000Y-71705000I0J-150000D01*
G01*
X156846000Y-72005000D01*
G75*
G02*
X156696000Y-72155000I-150000J0D01*
G01*
X154996000Y-72155000D01*
G75*
G02*
X154846000Y-72005000I0J150000D01*
G01*
G37*
%TD.AperFunction*%
%TD*%
%TO.P,F1,2*%
%TO.N,VBUS*%
%TA.AperFunction,SMDPad,CuDef*%
G36*
G01*
X170834000Y-38562000D02*
X170034000Y-38562000D01*
G75*
G02*
X169784000Y-38312000I0J250000D01*
G01*
X169784000Y-37487000D01*
G75*
G02*
X170034000Y-37237000I250000J0D01*
G01*
X170834000Y-37237000D01*
G75*
G02*
X171084000Y-37487000I0J-250000D01*
G01*
X171084000Y-38312000D01*
G75*
G02*
X170834000Y-38562000I-250000J0D01*
G01*
G37*
%TD.AperFunction*%
%TO.P,F1,1*%
%TO.N,Net-(F1-Pad1)*%
%TA.AperFunction,SMDPad,CuDef*%
G36*
G01*
X170834000Y-40487000D02*
X170034000Y-40487000D01*
G75*
G02*
X169784000Y-40237000I0J250000D01*
G01*
X169784000Y-39412000D01*
G75*
G02*
X170034000Y-39162000I250000J0D01*
G01*
X170834000Y-39162000D01*
G75*
G02*
X171084000Y-39412000I0J-250000D01*
G01*
X171084000Y-40237000D01*
G75*
G02*
X170834000Y-40487000I-250000J0D01*
G01*
G37*
%TD.AperFunction*%
%TD*%
%TO.P,C13,2*%
%TO.N,+3V3*%
%TA.AperFunction,SMDPad,CuDef*%
G36*
G01*
X155227000Y-69604000D02*
X156177000Y-69604000D01*
G75*
G02*
X156427000Y-69854000I0J-250000D01*
G01*
X156427000Y-70354000D01*
G75*
G02*
X156177000Y-70604000I-250000J0D01*
G01*
X155227000Y-70604000D01*
G75*
G02*
X154977000Y-70354000I0J250000D01*
G01*
X154977000Y-69854000D01*
G75*
G02*
X155227000Y-69604000I250000J0D01*
G01*
G37*
%TD.AperFunction*%
%TO.P,C13,1*%
%TO.N,GND*%
%TA.AperFunction,SMDPad,CuDef*%
G36*
G01*
X155227000Y-67704000D02*
X156177000Y-67704000D01*
G75*
G02*
X156427000Y-67954000I0J-250000D01*
G01*
X156427000Y-68454000D01*
G75*
G02*
X156177000Y-68704000I-250000J0D01*
G01*
X155227000Y-68704000D01*
G75*
G02*
X154977000Y-68454000I0J250000D01*
G01*
X154977000Y-67954000D01*
G75*
G02*
X155227000Y-67704000I250000J0D01*
G01*
G37*
%TD.AperFunction*%
%TD*%
D16*
%TO.P,Y1,4*%
%TO.N,GND*%
X173743332Y-66802999D03*
%TO.P,Y1,3*%
%TO.N,Net-(C6-Pad1)*%
X173743332Y-69002999D03*
%TO.P,Y1,2*%
%TO.N,GND*%
X172043332Y-69002999D03*
%TO.P,Y1,1*%
%TO.N,Net-(C7-Pad1)*%
X172043332Y-66802999D03*
%TD*%
D17*
%TO.P,SW1,2*%
%TO.N,GND*%
X174534000Y-64427000D03*
%TO.P,SW1,1*%
%TO.N,Net-(C5-Pad1)*%
X179034000Y-64427000D03*
X179034000Y-56477000D03*
%TO.P,SW1,2*%
%TO.N,GND*%
X174534000Y-56477000D03*
%TD*%
%TO.P,SW2,2*%
%TO.N,Net-(R5-Pad2)*%
X161326000Y-69253000D03*
%TO.P,SW2,1*%
%TO.N,Net-(IC1-Pad26)*%
X165826000Y-69253000D03*
X165826000Y-61303000D03*
%TO.P,SW2,2*%
%TO.N,Net-(R5-Pad2)*%
X161326000Y-61303000D03*
%TD*%
%TO.P,R11,2*%
%TO.N,Net-(JP11-Pad1)*%
%TA.AperFunction,SMDPad,CuDef*%
G36*
G01*
X176980001Y-88650500D02*
X176079999Y-88650500D01*
G75*
G02*
X175830000Y-88400501I0J249999D01*
G01*
X175830000Y-87875499D01*
G75*
G02*
X176079999Y-87625500I249999J0D01*
G01*
X176980001Y-87625500D01*
G75*
G02*
X177230000Y-87875499I0J-249999D01*
G01*
X177230000Y-88400501D01*
G75*
G02*
X176980001Y-88650500I-249999J0D01*
G01*
G37*
%TD.AperFunction*%
%TO.P,R11,1*%
%TO.N,ADB_1_5v*%
%TA.AperFunction,SMDPad,CuDef*%
G36*
G01*
X176980001Y-90475500D02*
X176079999Y-90475500D01*
G75*
G02*
X175830000Y-90225501I0J249999D01*
G01*
X175830000Y-89700499D01*
G75*
G02*
X176079999Y-89450500I249999J0D01*
G01*
X176980001Y-89450500D01*
G75*
G02*
X177230000Y-89700499I0J-249999D01*
G01*
X177230000Y-90225501D01*
G75*
G02*
X176980001Y-90475500I-249999J0D01*
G01*
G37*
%TD.AperFunction*%
%TD*%
%TO.P,R10,2*%
%TO.N,Net-(JP10-Pad1)*%
%TA.AperFunction,SMDPad,CuDef*%
G36*
G01*
X170491999Y-89450500D02*
X171392001Y-89450500D01*
G75*
G02*
X171642000Y-89700499I0J-249999D01*
G01*
X171642000Y-90225501D01*
G75*
G02*
X171392001Y-90475500I-249999J0D01*
G01*
X170491999Y-90475500D01*
G75*
G02*
X170242000Y-90225501I0J249999D01*
G01*
X170242000Y-89700499D01*
G75*
G02*
X170491999Y-89450500I249999J0D01*
G01*
G37*
%TD.AperFunction*%
%TO.P,R10,1*%
%TO.N,VCC*%
%TA.AperFunction,SMDPad,CuDef*%
G36*
G01*
X170491999Y-87625500D02*
X171392001Y-87625500D01*
G75*
G02*
X171642000Y-87875499I0J-249999D01*
G01*
X171642000Y-88400501D01*
G75*
G02*
X171392001Y-88650500I-249999J0D01*
G01*
X170491999Y-88650500D01*
G75*
G02*
X170242000Y-88400501I0J249999D01*
G01*
X170242000Y-87875499D01*
G75*
G02*
X170491999Y-87625500I249999J0D01*
G01*
G37*
%TD.AperFunction*%
%TD*%
%TO.P,R9,2*%
%TO.N,Net-(JP9-Pad1)*%
%TA.AperFunction,SMDPad,CuDef*%
G36*
G01*
X161740001Y-88650500D02*
X160839999Y-88650500D01*
G75*
G02*
X160590000Y-88400501I0J249999D01*
G01*
X160590000Y-87875499D01*
G75*
G02*
X160839999Y-87625500I249999J0D01*
G01*
X161740001Y-87625500D01*
G75*
G02*
X161990000Y-87875499I0J-249999D01*
G01*
X161990000Y-88400501D01*
G75*
G02*
X161740001Y-88650500I-249999J0D01*
G01*
G37*
%TD.AperFunction*%
%TO.P,R9,1*%
%TO.N,ADB_1_5v*%
%TA.AperFunction,SMDPad,CuDef*%
G36*
G01*
X161740001Y-90475500D02*
X160839999Y-90475500D01*
G75*
G02*
X160590000Y-90225501I0J249999D01*
G01*
X160590000Y-89700499D01*
G75*
G02*
X160839999Y-89450500I249999J0D01*
G01*
X161740001Y-89450500D01*
G75*
G02*
X161990000Y-89700499I0J-249999D01*
G01*
X161990000Y-90225501D01*
G75*
G02*
X161740001Y-90475500I-249999J0D01*
G01*
G37*
%TD.AperFunction*%
%TD*%
%TO.P,R8,2*%
%TO.N,Net-(JP8-Pad1)*%
%TA.AperFunction,SMDPad,CuDef*%
G36*
G01*
X155251999Y-89450500D02*
X156152001Y-89450500D01*
G75*
G02*
X156402000Y-89700499I0J-249999D01*
G01*
X156402000Y-90225501D01*
G75*
G02*
X156152001Y-90475500I-249999J0D01*
G01*
X155251999Y-90475500D01*
G75*
G02*
X155002000Y-90225501I0J249999D01*
G01*
X155002000Y-89700499D01*
G75*
G02*
X155251999Y-89450500I249999J0D01*
G01*
G37*
%TD.AperFunction*%
%TO.P,R8,1*%
%TO.N,VCC*%
%TA.AperFunction,SMDPad,CuDef*%
G36*
G01*
X155251999Y-87625500D02*
X156152001Y-87625500D01*
G75*
G02*
X156402000Y-87875499I0J-249999D01*
G01*
X156402000Y-88400501D01*
G75*
G02*
X156152001Y-88650500I-249999J0D01*
G01*
X155251999Y-88650500D01*
G75*
G02*
X155002000Y-88400501I0J249999D01*
G01*
X155002000Y-87875499D01*
G75*
G02*
X155251999Y-87625500I249999J0D01*
G01*
G37*
%TD.AperFunction*%
%TD*%
%TO.P,R3,2*%
%TO.N,MAX3421_INT*%
%TA.AperFunction,SMDPad,CuDef*%
G36*
G01*
X165095500Y-79444001D02*
X165095500Y-78543999D01*
G75*
G02*
X165345499Y-78294000I249999J0D01*
G01*
X165870501Y-78294000D01*
G75*
G02*
X166120500Y-78543999I0J-249999D01*
G01*
X166120500Y-79444001D01*
G75*
G02*
X165870501Y-79694000I-249999J0D01*
G01*
X165345499Y-79694000D01*
G75*
G02*
X165095500Y-79444001I0J249999D01*
G01*
G37*
%TD.AperFunction*%
%TO.P,R3,1*%
%TO.N,+3V3*%
%TA.AperFunction,SMDPad,CuDef*%
G36*
G01*
X163270500Y-79444001D02*
X163270500Y-78543999D01*
G75*
G02*
X163520499Y-78294000I249999J0D01*
G01*
X164045501Y-78294000D01*
G75*
G02*
X164295500Y-78543999I0J-249999D01*
G01*
X164295500Y-79444001D01*
G75*
G02*
X164045501Y-79694000I-249999J0D01*
G01*
X163520499Y-79694000D01*
G75*
G02*
X163270500Y-79444001I0J249999D01*
G01*
G37*
%TD.AperFunction*%
%TD*%
%TO.P,R2,2*%
%TO.N,Net-(C5-Pad1)*%
%TA.AperFunction,SMDPad,CuDef*%
G36*
G01*
X172104000Y-63188001D02*
X172104000Y-62287999D01*
G75*
G02*
X172353999Y-62038000I249999J0D01*
G01*
X172879001Y-62038000D01*
G75*
G02*
X173129000Y-62287999I0J-249999D01*
G01*
X173129000Y-63188001D01*
G75*
G02*
X172879001Y-63438000I-249999J0D01*
G01*
X172353999Y-63438000D01*
G75*
G02*
X172104000Y-63188001I0J249999D01*
G01*
G37*
%TD.AperFunction*%
%TO.P,R2,1*%
%TO.N,+3V3*%
%TA.AperFunction,SMDPad,CuDef*%
G36*
G01*
X170279000Y-63188001D02*
X170279000Y-62287999D01*
G75*
G02*
X170528999Y-62038000I249999J0D01*
G01*
X171054001Y-62038000D01*
G75*
G02*
X171304000Y-62287999I0J-249999D01*
G01*
X171304000Y-63188001D01*
G75*
G02*
X171054001Y-63438000I-249999J0D01*
G01*
X170528999Y-63438000D01*
G75*
G02*
X170279000Y-63188001I0J249999D01*
G01*
G37*
%TD.AperFunction*%
%TD*%
%TO.P,R1,2*%
%TO.N,Net-(C7-Pad1)*%
%TA.AperFunction,SMDPad,CuDef*%
G36*
G01*
X171304000Y-64319999D02*
X171304000Y-65220001D01*
G75*
G02*
X171054001Y-65470000I-249999J0D01*
G01*
X170528999Y-65470000D01*
G75*
G02*
X170279000Y-65220001I0J249999D01*
G01*
X170279000Y-64319999D01*
G75*
G02*
X170528999Y-64070000I249999J0D01*
G01*
X171054001Y-64070000D01*
G75*
G02*
X171304000Y-64319999I0J-249999D01*
G01*
G37*
%TD.AperFunction*%
%TO.P,R1,1*%
%TO.N,Net-(C6-Pad1)*%
%TA.AperFunction,SMDPad,CuDef*%
G36*
G01*
X173129000Y-64319999D02*
X173129000Y-65220001D01*
G75*
G02*
X172879001Y-65470000I-249999J0D01*
G01*
X172353999Y-65470000D01*
G75*
G02*
X172104000Y-65220001I0J249999D01*
G01*
X172104000Y-64319999D01*
G75*
G02*
X172353999Y-64070000I249999J0D01*
G01*
X172879001Y-64070000D01*
G75*
G02*
X173129000Y-64319999I0J-249999D01*
G01*
G37*
%TD.AperFunction*%
%TD*%
D18*
%TO.P,Q2,3*%
%TO.N,Net-(JP11-Pad1)*%
X173736000Y-88075500D03*
%TO.P,Q2,2*%
%TO.N,Net-(JP10-Pad1)*%
X174686000Y-90075500D03*
%TO.P,Q2,1*%
%TO.N,VCC*%
X172786000Y-90075500D03*
%TD*%
%TO.P,Q1,3*%
%TO.N,Net-(JP9-Pad1)*%
X158496000Y-88075500D03*
%TO.P,Q1,2*%
%TO.N,Net-(JP8-Pad1)*%
X159446000Y-90075500D03*
%TO.P,Q1,1*%
%TO.N,VCC*%
X157546000Y-90075500D03*
%TD*%
%TO.P,C12,2*%
%TO.N,GND*%
%TA.AperFunction,SMDPad,CuDef*%
G36*
G01*
X162693000Y-58870000D02*
X163643000Y-58870000D01*
G75*
G02*
X163893000Y-59120000I0J-250000D01*
G01*
X163893000Y-59620000D01*
G75*
G02*
X163643000Y-59870000I-250000J0D01*
G01*
X162693000Y-59870000D01*
G75*
G02*
X162443000Y-59620000I0J250000D01*
G01*
X162443000Y-59120000D01*
G75*
G02*
X162693000Y-58870000I250000J0D01*
G01*
G37*
%TD.AperFunction*%
%TO.P,C12,1*%
%TO.N,Net-(C12-Pad1)*%
%TA.AperFunction,SMDPad,CuDef*%
G36*
G01*
X162693000Y-56970000D02*
X163643000Y-56970000D01*
G75*
G02*
X163893000Y-57220000I0J-250000D01*
G01*
X163893000Y-57720000D01*
G75*
G02*
X163643000Y-57970000I-250000J0D01*
G01*
X162693000Y-57970000D01*
G75*
G02*
X162443000Y-57720000I0J250000D01*
G01*
X162443000Y-57220000D01*
G75*
G02*
X162693000Y-56970000I250000J0D01*
G01*
G37*
%TD.AperFunction*%
%TD*%
%TO.P,C11,2*%
%TO.N,GND*%
%TA.AperFunction,SMDPad,CuDef*%
G36*
G01*
X160675000Y-54994000D02*
X161625000Y-54994000D01*
G75*
G02*
X161875000Y-55244000I0J-250000D01*
G01*
X161875000Y-55744000D01*
G75*
G02*
X161625000Y-55994000I-250000J0D01*
G01*
X160675000Y-55994000D01*
G75*
G02*
X160425000Y-55744000I0J250000D01*
G01*
X160425000Y-55244000D01*
G75*
G02*
X160675000Y-54994000I250000J0D01*
G01*
G37*
%TD.AperFunction*%
%TO.P,C11,1*%
%TO.N,Net-(C11-Pad1)*%
%TA.AperFunction,SMDPad,CuDef*%
G36*
G01*
X160675000Y-53094000D02*
X161625000Y-53094000D01*
G75*
G02*
X161875000Y-53344000I0J-250000D01*
G01*
X161875000Y-53844000D01*
G75*
G02*
X161625000Y-54094000I-250000J0D01*
G01*
X160675000Y-54094000D01*
G75*
G02*
X160425000Y-53844000I0J250000D01*
G01*
X160425000Y-53344000D01*
G75*
G02*
X160675000Y-53094000I250000J0D01*
G01*
G37*
%TD.AperFunction*%
%TD*%
%TO.P,C10,2*%
%TO.N,GND*%
%TA.AperFunction,SMDPad,CuDef*%
G36*
G01*
X160675000Y-58870000D02*
X161625000Y-58870000D01*
G75*
G02*
X161875000Y-59120000I0J-250000D01*
G01*
X161875000Y-59620000D01*
G75*
G02*
X161625000Y-59870000I-250000J0D01*
G01*
X160675000Y-59870000D01*
G75*
G02*
X160425000Y-59620000I0J250000D01*
G01*
X160425000Y-59120000D01*
G75*
G02*
X160675000Y-58870000I250000J0D01*
G01*
G37*
%TD.AperFunction*%
%TO.P,C10,1*%
%TO.N,Net-(C10-Pad1)*%
%TA.AperFunction,SMDPad,CuDef*%
G36*
G01*
X160675000Y-56970000D02*
X161625000Y-56970000D01*
G75*
G02*
X161875000Y-57220000I0J-250000D01*
G01*
X161875000Y-57720000D01*
G75*
G02*
X161625000Y-57970000I-250000J0D01*
G01*
X160675000Y-57970000D01*
G75*
G02*
X160425000Y-57720000I0J250000D01*
G01*
X160425000Y-57220000D01*
G75*
G02*
X160675000Y-56970000I250000J0D01*
G01*
G37*
%TD.AperFunction*%
%TD*%
%TO.P,C7,2*%
%TO.N,GND*%
%TA.AperFunction,SMDPad,CuDef*%
G36*
G01*
X170493666Y-67852999D02*
X169543666Y-67852999D01*
G75*
G02*
X169293666Y-67602999I0J250000D01*
G01*
X169293666Y-67102999D01*
G75*
G02*
X169543666Y-66852999I250000J0D01*
G01*
X170493666Y-66852999D01*
G75*
G02*
X170743666Y-67102999I0J-250000D01*
G01*
X170743666Y-67602999D01*
G75*
G02*
X170493666Y-67852999I-250000J0D01*
G01*
G37*
%TD.AperFunction*%
%TO.P,C7,1*%
%TO.N,Net-(C7-Pad1)*%
%TA.AperFunction,SMDPad,CuDef*%
G36*
G01*
X170493666Y-69752999D02*
X169543666Y-69752999D01*
G75*
G02*
X169293666Y-69502999I0J250000D01*
G01*
X169293666Y-69002999D01*
G75*
G02*
X169543666Y-68752999I250000J0D01*
G01*
X170493666Y-68752999D01*
G75*
G02*
X170743666Y-69002999I0J-250000D01*
G01*
X170743666Y-69502999D01*
G75*
G02*
X170493666Y-69752999I-250000J0D01*
G01*
G37*
%TD.AperFunction*%
%TD*%
%TO.P,C6,2*%
%TO.N,GND*%
%TA.AperFunction,SMDPad,CuDef*%
G36*
G01*
X176243000Y-67852999D02*
X175293000Y-67852999D01*
G75*
G02*
X175043000Y-67602999I0J250000D01*
G01*
X175043000Y-67102999D01*
G75*
G02*
X175293000Y-66852999I250000J0D01*
G01*
X176243000Y-66852999D01*
G75*
G02*
X176493000Y-67102999I0J-250000D01*
G01*
X176493000Y-67602999D01*
G75*
G02*
X176243000Y-67852999I-250000J0D01*
G01*
G37*
%TD.AperFunction*%
%TO.P,C6,1*%
%TO.N,Net-(C6-Pad1)*%
%TA.AperFunction,SMDPad,CuDef*%
G36*
G01*
X176243000Y-69752999D02*
X175293000Y-69752999D01*
G75*
G02*
X175043000Y-69502999I0J250000D01*
G01*
X175043000Y-69002999D01*
G75*
G02*
X175293000Y-68752999I250000J0D01*
G01*
X176243000Y-68752999D01*
G75*
G02*
X176493000Y-69002999I0J-250000D01*
G01*
X176493000Y-69502999D01*
G75*
G02*
X176243000Y-69752999I-250000J0D01*
G01*
G37*
%TD.AperFunction*%
%TD*%
%TO.P,C5,2*%
%TO.N,FTDI_DTR*%
%TA.AperFunction,SMDPad,CuDef*%
G36*
G01*
X179037000Y-67876000D02*
X178087000Y-67876000D01*
G75*
G02*
X177837000Y-67626000I0J250000D01*
G01*
X177837000Y-67126000D01*
G75*
G02*
X178087000Y-66876000I250000J0D01*
G01*
X179037000Y-66876000D01*
G75*
G02*
X179287000Y-67126000I0J-250000D01*
G01*
X179287000Y-67626000D01*
G75*
G02*
X179037000Y-67876000I-250000J0D01*
G01*
G37*
%TD.AperFunction*%
%TO.P,C5,1*%
%TO.N,Net-(C5-Pad1)*%
%TA.AperFunction,SMDPad,CuDef*%
G36*
G01*
X179037000Y-69776000D02*
X178087000Y-69776000D01*
G75*
G02*
X177837000Y-69526000I0J250000D01*
G01*
X177837000Y-69026000D01*
G75*
G02*
X178087000Y-68776000I250000J0D01*
G01*
X179037000Y-68776000D01*
G75*
G02*
X179287000Y-69026000I0J-250000D01*
G01*
X179287000Y-69526000D01*
G75*
G02*
X179037000Y-69776000I-250000J0D01*
G01*
G37*
%TD.AperFunction*%
%TD*%
%TO.P,C2,2*%
%TO.N,GND*%
%TA.AperFunction,SMDPad,CuDef*%
G36*
G01*
X174374000Y-85565000D02*
X174374000Y-84615000D01*
G75*
G02*
X174624000Y-84365000I250000J0D01*
G01*
X175124000Y-84365000D01*
G75*
G02*
X175374000Y-84615000I0J-250000D01*
G01*
X175374000Y-85565000D01*
G75*
G02*
X175124000Y-85815000I-250000J0D01*
G01*
X174624000Y-85815000D01*
G75*
G02*
X174374000Y-85565000I0J250000D01*
G01*
G37*
%TD.AperFunction*%
%TO.P,C2,1*%
%TO.N,Net-(C2-Pad1)*%
%TA.AperFunction,SMDPad,CuDef*%
G36*
G01*
X172474000Y-85565000D02*
X172474000Y-84615000D01*
G75*
G02*
X172724000Y-84365000I250000J0D01*
G01*
X173224000Y-84365000D01*
G75*
G02*
X173474000Y-84615000I0J-250000D01*
G01*
X173474000Y-85565000D01*
G75*
G02*
X173224000Y-85815000I-250000J0D01*
G01*
X172724000Y-85815000D01*
G75*
G02*
X172474000Y-85565000I0J250000D01*
G01*
G37*
%TD.AperFunction*%
%TD*%
D19*
%TO.P,U1,1*%
%TO.N,GND*%
X177024000Y-52680000D03*
%TO.P,U1,3*%
%TO.N,VBUS*%
X181624000Y-52680000D03*
%TO.P,U1,2*%
%TO.N,+3V3*%
X179324000Y-52680000D03*
D20*
X179324000Y-46380000D03*
%TD*%
%TO.P,C4,2*%
%TO.N,GND*%
%TA.AperFunction,SMDPad,CuDef*%
G36*
G01*
X173307001Y-50579000D02*
X173307001Y-51529000D01*
G75*
G02*
X173057001Y-51779000I-250000J0D01*
G01*
X172557001Y-51779000D01*
G75*
G02*
X172307001Y-51529000I0J250000D01*
G01*
X172307001Y-50579000D01*
G75*
G02*
X172557001Y-50329000I250000J0D01*
G01*
X173057001Y-50329000D01*
G75*
G02*
X173307001Y-50579000I0J-250000D01*
G01*
G37*
%TD.AperFunction*%
%TO.P,C4,1*%
%TO.N,+3V3*%
%TA.AperFunction,SMDPad,CuDef*%
G36*
G01*
X175207001Y-50579000D02*
X175207001Y-51529000D01*
G75*
G02*
X174957001Y-51779000I-250000J0D01*
G01*
X174457001Y-51779000D01*
G75*
G02*
X174207001Y-51529000I0J250000D01*
G01*
X174207001Y-50579000D01*
G75*
G02*
X174457001Y-50329000I250000J0D01*
G01*
X174957001Y-50329000D01*
G75*
G02*
X175207001Y-50579000I0J-250000D01*
G01*
G37*
%TD.AperFunction*%
%TD*%
%TO.P,C3,2*%
%TO.N,GND*%
%TA.AperFunction,SMDPad,CuDef*%
G36*
G01*
X173307001Y-48293000D02*
X173307001Y-49243000D01*
G75*
G02*
X173057001Y-49493000I-250000J0D01*
G01*
X172557001Y-49493000D01*
G75*
G02*
X172307001Y-49243000I0J250000D01*
G01*
X172307001Y-48293000D01*
G75*
G02*
X172557001Y-48043000I250000J0D01*
G01*
X173057001Y-48043000D01*
G75*
G02*
X173307001Y-48293000I0J-250000D01*
G01*
G37*
%TD.AperFunction*%
%TO.P,C3,1*%
%TO.N,+3V3*%
%TA.AperFunction,SMDPad,CuDef*%
G36*
G01*
X175207001Y-48293000D02*
X175207001Y-49243000D01*
G75*
G02*
X174957001Y-49493000I-250000J0D01*
G01*
X174457001Y-49493000D01*
G75*
G02*
X174207001Y-49243000I0J250000D01*
G01*
X174207001Y-48293000D01*
G75*
G02*
X174457001Y-48043000I250000J0D01*
G01*
X174957001Y-48043000D01*
G75*
G02*
X175207001Y-48293000I0J-250000D01*
G01*
G37*
%TD.AperFunction*%
%TD*%
%TO.P,C1,2*%
%TO.N,GND*%
%TA.AperFunction,SMDPad,CuDef*%
G36*
G01*
X173307001Y-46007000D02*
X173307001Y-46957000D01*
G75*
G02*
X173057001Y-47207000I-250000J0D01*
G01*
X172557001Y-47207000D01*
G75*
G02*
X172307001Y-46957000I0J250000D01*
G01*
X172307001Y-46007000D01*
G75*
G02*
X172557001Y-45757000I250000J0D01*
G01*
X173057001Y-45757000D01*
G75*
G02*
X173307001Y-46007000I0J-250000D01*
G01*
G37*
%TD.AperFunction*%
%TO.P,C1,1*%
%TO.N,VBUS*%
%TA.AperFunction,SMDPad,CuDef*%
G36*
G01*
X175207001Y-46007000D02*
X175207001Y-46957000D01*
G75*
G02*
X174957001Y-47207000I-250000J0D01*
G01*
X174457001Y-47207000D01*
G75*
G02*
X174207001Y-46957000I0J250000D01*
G01*
X174207001Y-46007000D01*
G75*
G02*
X174457001Y-45757000I250000J0D01*
G01*
X174957001Y-45757000D01*
G75*
G02*
X175207001Y-46007000I0J-250000D01*
G01*
G37*
%TD.AperFunction*%
%TD*%
D21*
%TO.P,U2,32*%
%TO.N,ADB_PWR_ON_LV*%
X177478000Y-75940000D03*
%TO.P,U2,31*%
%TO.N,FTDI_TXO*%
X177478000Y-76740000D03*
%TO.P,U2,30*%
%TO.N,FTDI_RXI*%
X177478000Y-77540000D03*
%TO.P,U2,29*%
%TO.N,Net-(C5-Pad1)*%
X177478000Y-78340000D03*
%TO.P,U2,28*%
%TO.N,Net-(TP14-Pad1)*%
X177478000Y-79140000D03*
%TO.P,U2,27*%
%TO.N,Net-(TP13-Pad1)*%
X177478000Y-79940000D03*
%TO.P,U2,26*%
%TO.N,Net-(TP12-Pad1)*%
X177478000Y-80740000D03*
%TO.P,U2,25*%
%TO.N,Net-(TP11-Pad1)*%
X177478000Y-81540000D03*
D22*
%TO.P,U2,24*%
%TO.N,Net-(TP10-Pad1)*%
X176028000Y-82990000D03*
%TO.P,U2,23*%
%TO.N,Net-(TP9-Pad1)*%
X175228000Y-82990000D03*
%TO.P,U2,22*%
%TO.N,Net-(TP2-Pad1)*%
X174428000Y-82990000D03*
%TO.P,U2,21*%
%TO.N,GND*%
X173628000Y-82990000D03*
%TO.P,U2,20*%
%TO.N,Net-(C2-Pad1)*%
X172828000Y-82990000D03*
%TO.P,U2,19*%
%TO.N,Net-(TP1-Pad1)*%
X172028000Y-82990000D03*
%TO.P,U2,18*%
%TO.N,VCC*%
X171228000Y-82990000D03*
%TO.P,U2,17*%
%TO.N,TTL_SPI_SCLK*%
X170428000Y-82990000D03*
D21*
%TO.P,U2,16*%
%TO.N,SPI_MISO*%
X168978000Y-81540000D03*
%TO.P,U2,15*%
%TO.N,TTL_SPI_MOSI*%
X168978000Y-80740000D03*
%TO.P,U2,14*%
%TO.N,TTL_SS*%
X168978000Y-79940000D03*
%TO.P,U2,13*%
%TO.N,MAX3421_INT*%
X168978000Y-79140000D03*
%TO.P,U2,12*%
%TO.N,MAX3421_GPX*%
X168978000Y-78340000D03*
%TO.P,U2,11*%
%TO.N,TTL_MAX3421_RESET*%
X168978000Y-77540000D03*
%TO.P,U2,10*%
%TO.N,Net-(TP17-Pad1)*%
X168978000Y-76740000D03*
%TO.P,U2,9*%
%TO.N,Net-(TP16-Pad1)*%
X168978000Y-75940000D03*
D22*
%TO.P,U2,8*%
%TO.N,Net-(C7-Pad1)*%
X170428000Y-74490000D03*
%TO.P,U2,7*%
%TO.N,Net-(C6-Pad1)*%
X171228000Y-74490000D03*
%TO.P,U2,6*%
%TO.N,VCC*%
X172028000Y-74490000D03*
%TO.P,U2,5*%
%TO.N,GND*%
X172828000Y-74490000D03*
%TO.P,U2,4*%
%TO.N,VCC*%
X173628000Y-74490000D03*
%TO.P,U2,3*%
%TO.N,GND*%
X174428000Y-74490000D03*
%TO.P,U2,2*%
%TO.N,Net-(TP15-Pad1)*%
X175228000Y-74490000D03*
%TO.P,U2,1*%
%TO.N,ADB_DATA_LV*%
X176028000Y-74490000D03*
%TD*%
%TO.P,R7,2*%
%TO.N,Net-(J3-Pad3)*%
%TA.AperFunction,SMDPad,CuDef*%
G36*
G01*
X159200001Y-49892000D02*
X158299999Y-49892000D01*
G75*
G02*
X158050000Y-49642001I0J249999D01*
G01*
X158050000Y-49116999D01*
G75*
G02*
X158299999Y-48867000I249999J0D01*
G01*
X159200001Y-48867000D01*
G75*
G02*
X159450000Y-49116999I0J-249999D01*
G01*
X159450000Y-49642001D01*
G75*
G02*
X159200001Y-49892000I-249999J0D01*
G01*
G37*
%TD.AperFunction*%
%TO.P,R7,1*%
%TO.N,Host_USB_D+*%
%TA.AperFunction,SMDPad,CuDef*%
G36*
G01*
X159200001Y-51717000D02*
X158299999Y-51717000D01*
G75*
G02*
X158050000Y-51467001I0J249999D01*
G01*
X158050000Y-50941999D01*
G75*
G02*
X158299999Y-50692000I249999J0D01*
G01*
X159200001Y-50692000D01*
G75*
G02*
X159450000Y-50941999I0J-249999D01*
G01*
X159450000Y-51467001D01*
G75*
G02*
X159200001Y-51717000I-249999J0D01*
G01*
G37*
%TD.AperFunction*%
%TD*%
%TO.P,R6,2*%
%TO.N,Host_USB_D-*%
%TA.AperFunction,SMDPad,CuDef*%
G36*
G01*
X160331999Y-50692000D02*
X161232001Y-50692000D01*
G75*
G02*
X161482000Y-50941999I0J-249999D01*
G01*
X161482000Y-51467001D01*
G75*
G02*
X161232001Y-51717000I-249999J0D01*
G01*
X160331999Y-51717000D01*
G75*
G02*
X160082000Y-51467001I0J249999D01*
G01*
X160082000Y-50941999D01*
G75*
G02*
X160331999Y-50692000I249999J0D01*
G01*
G37*
%TD.AperFunction*%
%TO.P,R6,1*%
%TO.N,Net-(J3-Pad2)*%
%TA.AperFunction,SMDPad,CuDef*%
G36*
G01*
X160331999Y-48867000D02*
X161232001Y-48867000D01*
G75*
G02*
X161482000Y-49116999I0J-249999D01*
G01*
X161482000Y-49642001D01*
G75*
G02*
X161232001Y-49892000I-249999J0D01*
G01*
X160331999Y-49892000D01*
G75*
G02*
X160082000Y-49642001I0J249999D01*
G01*
X160082000Y-49116999D01*
G75*
G02*
X160331999Y-48867000I249999J0D01*
G01*
G37*
%TD.AperFunction*%
%TD*%
%TO.P,R5,2*%
%TO.N,Net-(R5-Pad2)*%
%TA.AperFunction,SMDPad,CuDef*%
G36*
G01*
X167443999Y-68722999D02*
X168344001Y-68722999D01*
G75*
G02*
X168594000Y-68972998I0J-249999D01*
G01*
X168594000Y-69498000D01*
G75*
G02*
X168344001Y-69747999I-249999J0D01*
G01*
X167443999Y-69747999D01*
G75*
G02*
X167194000Y-69498000I0J249999D01*
G01*
X167194000Y-68972998D01*
G75*
G02*
X167443999Y-68722999I249999J0D01*
G01*
G37*
%TD.AperFunction*%
%TO.P,R5,1*%
%TO.N,GND*%
%TA.AperFunction,SMDPad,CuDef*%
G36*
G01*
X167443999Y-66897999D02*
X168344001Y-66897999D01*
G75*
G02*
X168594000Y-67147998I0J-249999D01*
G01*
X168594000Y-67673000D01*
G75*
G02*
X168344001Y-67922999I-249999J0D01*
G01*
X167443999Y-67922999D01*
G75*
G02*
X167194000Y-67673000I0J249999D01*
G01*
X167194000Y-67147998D01*
G75*
G02*
X167443999Y-66897999I249999J0D01*
G01*
G37*
%TD.AperFunction*%
%TD*%
%TO.P,R4,2*%
%TO.N,+3V3*%
%TA.AperFunction,SMDPad,CuDef*%
G36*
G01*
X167443999Y-62884000D02*
X168344001Y-62884000D01*
G75*
G02*
X168594000Y-63133999I0J-249999D01*
G01*
X168594000Y-63659001D01*
G75*
G02*
X168344001Y-63909000I-249999J0D01*
G01*
X167443999Y-63909000D01*
G75*
G02*
X167194000Y-63659001I0J249999D01*
G01*
X167194000Y-63133999D01*
G75*
G02*
X167443999Y-62884000I249999J0D01*
G01*
G37*
%TD.AperFunction*%
%TO.P,R4,1*%
%TO.N,Net-(IC1-Pad26)*%
%TA.AperFunction,SMDPad,CuDef*%
G36*
G01*
X167443999Y-61059000D02*
X168344001Y-61059000D01*
G75*
G02*
X168594000Y-61308999I0J-249999D01*
G01*
X168594000Y-61834001D01*
G75*
G02*
X168344001Y-62084000I-249999J0D01*
G01*
X167443999Y-62084000D01*
G75*
G02*
X167194000Y-61834001I0J249999D01*
G01*
X167194000Y-61308999D01*
G75*
G02*
X167443999Y-61059000I249999J0D01*
G01*
G37*
%TD.AperFunction*%
%TD*%
D23*
%TO.P,J5,S3*%
%TO.N,N/C*%
X155144000Y-97104000D03*
%TO.P,J5,S2*%
X167944000Y-97104000D03*
D24*
%TO.P,J5,3*%
%TO.N,ADB_1_5v*%
X166044000Y-92204000D03*
%TO.P,J5,1*%
%TO.N,ADB_1_DATA*%
X164244000Y-92204000D03*
%TO.P,J5,2*%
%TO.N,ADB_1_PWR_ON*%
X158844000Y-92204000D03*
%TO.P,J5,4*%
%TO.N,ADB_1_GND*%
X157044000Y-92204000D03*
D25*
%TO.P,J5,S1*%
%TO.N,N/C*%
X161544000Y-96404000D03*
%TD*%
D23*
%TO.P,J4,S3*%
%TO.N,N/C*%
X170384000Y-97104000D03*
%TO.P,J4,S2*%
X183184000Y-97104000D03*
D24*
%TO.P,J4,3*%
%TO.N,ADB_1_5v*%
X181284000Y-92204000D03*
%TO.P,J4,1*%
%TO.N,ADB_1_DATA*%
X179484000Y-92204000D03*
%TO.P,J4,2*%
%TO.N,ADB_1_PWR_ON*%
X174084000Y-92204000D03*
%TO.P,J4,4*%
%TO.N,ADB_1_GND*%
X172284000Y-92204000D03*
D25*
%TO.P,J4,S1*%
%TO.N,N/C*%
X176784000Y-96404000D03*
%TD*%
D26*
%TO.P,J3,4*%
%TO.N,GND*%
X158608000Y-45720000D03*
%TO.P,J3,3*%
%TO.N,Net-(J3-Pad3)*%
X161108000Y-45720000D03*
%TO.P,J3,2*%
%TO.N,Net-(J3-Pad2)*%
X163108000Y-45720000D03*
D27*
%TO.P,J3,1*%
%TO.N,Net-(F1-Pad1)*%
X165608000Y-45720000D03*
D28*
%TO.P,J3,5*%
%TO.N,GND*%
X155538000Y-43010000D03*
X168678000Y-43010000D03*
%TD*%
%TO.P,C9,2*%
%TO.N,GND*%
%TA.AperFunction,SMDPad,CuDef*%
G36*
G01*
X171686322Y-59363429D02*
X171014571Y-58691678D01*
G75*
G02*
X171014571Y-58338124I176777J176777D01*
G01*
X171368124Y-57984571D01*
G75*
G02*
X171721678Y-57984571I176777J-176777D01*
G01*
X172393429Y-58656322D01*
G75*
G02*
X172393429Y-59009876I-176777J-176777D01*
G01*
X172039876Y-59363429D01*
G75*
G02*
X171686322Y-59363429I-176777J176777D01*
G01*
G37*
%TD.AperFunction*%
%TO.P,C9,1*%
%TO.N,+3V3*%
%TA.AperFunction,SMDPad,CuDef*%
G36*
G01*
X170342820Y-60706931D02*
X169671069Y-60035180D01*
G75*
G02*
X169671069Y-59681626I176777J176777D01*
G01*
X170024622Y-59328073D01*
G75*
G02*
X170378176Y-59328073I176777J-176777D01*
G01*
X171049927Y-59999824D01*
G75*
G02*
X171049927Y-60353378I-176777J-176777D01*
G01*
X170696374Y-60706931D01*
G75*
G02*
X170342820Y-60706931I-176777J176777D01*
G01*
G37*
%TD.AperFunction*%
%TD*%
%TO.P,C8,2*%
%TO.N,GND*%
%TA.AperFunction,SMDPad,CuDef*%
G36*
G01*
X164320322Y-50473429D02*
X163648571Y-49801678D01*
G75*
G02*
X163648571Y-49448124I176777J176777D01*
G01*
X164002124Y-49094571D01*
G75*
G02*
X164355678Y-49094571I176777J-176777D01*
G01*
X165027429Y-49766322D01*
G75*
G02*
X165027429Y-50119876I-176777J-176777D01*
G01*
X164673876Y-50473429D01*
G75*
G02*
X164320322Y-50473429I-176777J176777D01*
G01*
G37*
%TD.AperFunction*%
%TO.P,C8,1*%
%TO.N,+3V3*%
%TA.AperFunction,SMDPad,CuDef*%
G36*
G01*
X162976820Y-51816931D02*
X162305069Y-51145180D01*
G75*
G02*
X162305069Y-50791626I176777J176777D01*
G01*
X162658622Y-50438073D01*
G75*
G02*
X163012176Y-50438073I176777J-176777D01*
G01*
X163683927Y-51109824D01*
G75*
G02*
X163683927Y-51463378I-176777J-176777D01*
G01*
X163330374Y-51816931D01*
G75*
G02*
X162976820Y-51816931I-176777J176777D01*
G01*
G37*
%TD.AperFunction*%
%TD*%
D29*
%TO.N,ADB_1_5v*%
X177800000Y-89662000D03*
X177299787Y-93000990D03*
%TO.N,ADB_1_GND*%
X172524644Y-94901021D03*
X170455351Y-94647019D03*
%TO.N,ADB_1_DATA*%
X179106097Y-93958012D03*
X167559034Y-92959340D03*
%TO.N,ADB_1_PWR_ON*%
X178278846Y-91705979D03*
X178259750Y-94490665D03*
%TO.N,GND*%
X165354000Y-97028000D03*
X162560696Y-60393343D03*
X168148000Y-55880000D03*
X162814000Y-54864000D03*
X173506499Y-80239501D03*
X174752000Y-62992000D03*
X165354000Y-49022000D03*
X169926000Y-86868000D03*
X175006000Y-86614000D03*
X174498000Y-71120000D03*
X171450000Y-71374000D03*
X175689317Y-65202021D03*
X174824383Y-66435410D03*
X173252979Y-76026167D03*
X175006000Y-77724000D03*
X180086000Y-73406000D03*
X182372000Y-83058000D03*
X166370000Y-71374000D03*
%TO.N,+3V3*%
X163576000Y-80518000D03*
X162675837Y-50609964D03*
X183134000Y-54610000D03*
X181102000Y-49276000D03*
X183134000Y-56642000D03*
X162814000Y-70866000D03*
X163285697Y-56351697D03*
X163285697Y-52963977D03*
%TO.N,VBUS*%
X183605010Y-52912795D03*
X183642000Y-44196000D03*
%TO.N,Net-(IC1-Pad26)*%
X166813019Y-55683226D03*
X166192213Y-68878009D03*
X166045879Y-60391200D03*
%TO.N,Net-(C6-Pad1)*%
X172556244Y-78711068D03*
X177038000Y-69342000D03*
X177139337Y-65641280D03*
X173278079Y-70241597D03*
%TO.N,Net-(C7-Pad1)*%
X169164000Y-70358000D03*
X169164000Y-74676000D03*
%TO.N,Net-(C12-Pad1)*%
X167132000Y-54102000D03*
X165338765Y-59684084D03*
%TO.N,MAX3421_INT*%
X166116000Y-50038000D03*
X164163706Y-77654874D03*
%TO.N,MAX3421_GPX*%
X166116000Y-77216000D03*
X167898660Y-52573340D03*
%TO.N,SPI_MOSI*%
X169672000Y-49784000D03*
X157226000Y-78486000D03*
X162695725Y-48387594D03*
%TO.N,SPI_MISO*%
X167680155Y-82013165D03*
X170418155Y-50476627D03*
%TO.N,MAX3421_SS*%
X157480000Y-75946000D03*
X163285010Y-47144524D03*
%TO.N,SPI_SCLK*%
X157226000Y-72644000D03*
X159073746Y-72761250D03*
X159701967Y-54610000D03*
%TO.N,MAX3421_RESET*%
X159258000Y-78994000D03*
X164274135Y-46997366D03*
%TO.N,ADB_DATA_LV*%
X167894000Y-73152000D03*
%TO.N,ADB_PWR_ON_LV*%
X182112000Y-75940000D03*
%TO.N,Net-(TP1-Pad1)*%
X171394278Y-81225952D03*
%TO.N,Net-(TP2-Pad1)*%
X174231509Y-81583828D03*
%TO.N,Net-(TP13-Pad1)*%
X180848000Y-79502000D03*
%TO.N,Net-(TP14-Pad1)*%
X180594000Y-78486000D03*
%TO.N,Net-(TP15-Pad1)*%
X175153010Y-75946000D03*
%TO.N,Net-(TP16-Pad1)*%
X167640000Y-74676000D03*
%TO.N,Net-(TP17-Pad1)*%
X171196000Y-77470000D03*
%TO.N,FTDI_TXO*%
X182668204Y-76771060D03*
%TO.N,FTDI_RXI*%
X182534385Y-77762078D03*
%TO.N,Net-(C5-Pad1)*%
X177800000Y-62992000D03*
X178308000Y-70612000D03*
X178967829Y-78078743D03*
X177546000Y-56896000D03*
%TO.N,TTL_MAX3421_RESET*%
X159330522Y-80264000D03*
%TO.N,TTL_SPI_MOSI*%
X157430500Y-80059500D03*
%TO.N,TTL_SS*%
X157047518Y-77131163D03*
%TO.N,TTL_SPI_SCLK*%
X164338000Y-82296000D03*
X164846000Y-84328000D03*
X157480000Y-74168000D03*
%TO.N,Net-(JP8-Pad1)*%
X162814000Y-87122000D03*
X159766000Y-87122000D03*
X160020000Y-91186000D03*
%TO.N,Net-(JP9-Pad1)*%
X168656000Y-88138000D03*
%TO.N,Net-(JP10-Pad1)*%
X183779000Y-90678000D03*
%TO.N,Net-(JP11-Pad1)*%
X178562000Y-86868000D03*
%TO.N,Net-(R5-Pad2)*%
X162560000Y-62230000D03*
X162426001Y-68152999D03*
%TO.N,Net-(TP9-Pad1)*%
X175359991Y-81534000D03*
%TO.N,Net-(TP10-Pad1)*%
X177038000Y-84074000D03*
%TO.N,Net-(TP11-Pad1)*%
X178054000Y-82804000D03*
%TO.N,Net-(TP12-Pad1)*%
X180629924Y-80630850D03*
%TO.N,VCC*%
X170688000Y-80518000D03*
X171450000Y-78994000D03*
X175768000Y-78994000D03*
X175954182Y-77124264D03*
%TD*%
D30*
%TO.N,ADB_1_5v*%
X163803000Y-89963000D02*
X161290000Y-89963000D01*
X166044000Y-92204000D02*
X163803000Y-89963000D01*
X176530000Y-89963000D02*
X177499000Y-89963000D01*
X177499000Y-89963000D02*
X177800000Y-89662000D01*
X166044000Y-92204000D02*
X170818410Y-92204000D01*
X170818410Y-92204000D02*
X171847411Y-93233001D01*
X180254999Y-93233001D02*
X181284000Y-92204000D01*
X177299787Y-93225787D02*
X177307001Y-93233001D01*
X177299787Y-93000990D02*
X177299787Y-93225787D01*
X177307001Y-93233001D02*
X180254999Y-93233001D01*
X171847411Y-93233001D02*
X177307001Y-93233001D01*
%TO.N,ADB_1_GND*%
X159053009Y-94213009D02*
X167179594Y-94213009D01*
X167867606Y-94901021D02*
X172524644Y-94901021D01*
X157044000Y-92204000D02*
X159053009Y-94213009D01*
X167179594Y-94213009D02*
X167867606Y-94901021D01*
%TO.N,ADB_1_DATA*%
X171646668Y-93726000D02*
X170880008Y-92959340D01*
X178874085Y-93726000D02*
X171646668Y-93726000D01*
X167285373Y-93233001D02*
X167559034Y-92959340D01*
X170880008Y-92959340D02*
X167559034Y-92959340D01*
X179106097Y-93958012D02*
X178874085Y-93726000D01*
X165273001Y-93233001D02*
X167285373Y-93233001D01*
X164244000Y-92204000D02*
X165273001Y-93233001D01*
%TO.N,ADB_1_PWR_ON*%
X177780825Y-92204000D02*
X178278846Y-91705979D01*
X174084000Y-92204000D02*
X177780825Y-92204000D01*
X158844000Y-92204000D02*
X160329002Y-93689002D01*
X160329002Y-93689002D02*
X167291998Y-93689002D01*
X167291998Y-93689002D02*
X167545998Y-93943002D01*
X167545998Y-93943002D02*
X169837408Y-93943002D01*
X169837408Y-93943002D02*
X169858401Y-93922009D01*
X169858401Y-93922009D02*
X171206266Y-93922009D01*
X171206266Y-93922009D02*
X171460268Y-94176011D01*
X171460268Y-94176011D02*
X177945096Y-94176011D01*
X177945096Y-94176011D02*
X178259750Y-94490665D01*
%TO.N,GND*%
X164044999Y-98337001D02*
X160059001Y-98337001D01*
X165354000Y-97028000D02*
X164044999Y-98337001D01*
X154676990Y-81914010D02*
X155846000Y-80745000D01*
X154676990Y-92954990D02*
X154676990Y-81914010D01*
X160059001Y-98337001D02*
X154676990Y-92954990D01*
X173628000Y-83844000D02*
X173628000Y-82990000D01*
X174874000Y-85090000D02*
X173628000Y-83844000D01*
X175478000Y-72390000D02*
X175768000Y-72390000D01*
X174428000Y-73440000D02*
X175478000Y-72390000D01*
X174428000Y-74490000D02*
X174428000Y-73440000D01*
X172828000Y-72818000D02*
X172400000Y-72390000D01*
X172828000Y-74490000D02*
X172828000Y-72818000D01*
X173743332Y-67202999D02*
X173743332Y-66802999D01*
X172043332Y-68902999D02*
X173743332Y-67202999D01*
X172043332Y-69002999D02*
X172043332Y-68902999D01*
X163322000Y-59632039D02*
X162560696Y-60393343D01*
X163322000Y-59370000D02*
X163322000Y-59632039D01*
X164382660Y-49784000D02*
X164338000Y-49784000D01*
X166388718Y-51790058D02*
X164382660Y-49784000D01*
X168357340Y-55880000D02*
X168148000Y-55880000D01*
X169907282Y-57429942D02*
X168357340Y-55880000D01*
X171151340Y-58674000D02*
X171704000Y-58674000D01*
X169907282Y-57429942D02*
X171151340Y-58674000D01*
X161290000Y-55494000D02*
X162184000Y-55494000D01*
X162184000Y-55494000D02*
X162814000Y-54864000D01*
X175992000Y-42371000D02*
X175992000Y-43718000D01*
X175992000Y-43718000D02*
X175514000Y-44196000D01*
X175042000Y-44196000D02*
X173717000Y-42871000D01*
X175514000Y-44196000D02*
X175042000Y-44196000D01*
X175992000Y-41421000D02*
X177027000Y-40386000D01*
X175992000Y-42371000D02*
X175992000Y-41421000D01*
X179902000Y-40386000D02*
X180867000Y-39421000D01*
X177027000Y-40386000D02*
X179902000Y-40386000D01*
X175768000Y-72390000D02*
X175768000Y-71882000D01*
X174293332Y-67352999D02*
X173743332Y-66802999D01*
X175768000Y-67352999D02*
X174293332Y-67352999D01*
X174534000Y-63210000D02*
X174752000Y-62992000D01*
X174534000Y-64427000D02*
X174534000Y-63210000D01*
X164592000Y-49784000D02*
X165354000Y-49022000D01*
X164338000Y-49784000D02*
X164592000Y-49784000D01*
X169484000Y-86426000D02*
X169926000Y-86868000D01*
X169484000Y-85090000D02*
X169484000Y-86426000D01*
X175006000Y-85222000D02*
X174874000Y-85090000D01*
X175006000Y-86614000D02*
X175006000Y-85222000D01*
X175768000Y-72390000D02*
X174498000Y-71120000D01*
X172272000Y-72196000D02*
X171450000Y-71374000D01*
X172272000Y-72390000D02*
X172272000Y-72196000D01*
X174428000Y-74490000D02*
X174428000Y-77400000D01*
X174534000Y-64427000D02*
X174914296Y-64427000D01*
X174428000Y-77400000D02*
X174752000Y-77724000D01*
X174914296Y-64427000D02*
X175689317Y-65202021D01*
X172828000Y-74490000D02*
X172828000Y-75601188D01*
X174850411Y-66435410D02*
X174824383Y-66435410D01*
X175768000Y-67352999D02*
X174850411Y-66435410D01*
X172828000Y-75601188D02*
X173252979Y-76026167D01*
X174752000Y-77724000D02*
X175006000Y-77724000D01*
X173628000Y-82188000D02*
X173106500Y-81666500D01*
X173628000Y-82990000D02*
X173628000Y-82188000D01*
X173106500Y-81666500D02*
X173106500Y-80639500D01*
X173106500Y-80639500D02*
X173506499Y-80239501D01*
%TO.N,+3V3*%
X155846000Y-70248000D02*
X155702000Y-70104000D01*
X155846000Y-71855000D02*
X155846000Y-70248000D01*
X163783000Y-80311000D02*
X163576000Y-80518000D01*
X163783000Y-78994000D02*
X163783000Y-80311000D01*
X162994498Y-51127502D02*
X162994498Y-50928625D01*
X162994498Y-50928625D02*
X162675837Y-50609964D01*
X179324000Y-52969002D02*
X179324000Y-52934000D01*
X180964998Y-54610000D02*
X179324000Y-52969002D01*
X183134000Y-54610000D02*
X180964998Y-54610000D01*
X177190000Y-48768000D02*
X179324000Y-46634000D01*
X174707001Y-48768000D02*
X177190000Y-48768000D01*
X174707001Y-51054000D02*
X174707001Y-48768000D01*
X179324000Y-47498000D02*
X179324000Y-46634000D01*
X181102000Y-49276000D02*
X179324000Y-47498000D01*
X170360498Y-58590265D02*
X170360498Y-60017502D01*
X169553728Y-57783495D02*
X170360498Y-58590265D01*
X182118998Y-56642000D02*
X183134000Y-56642000D01*
X178743496Y-60017502D02*
X182118998Y-56642000D01*
X170360498Y-60017502D02*
X178743496Y-60017502D01*
X170360498Y-60930002D02*
X170360498Y-60017502D01*
X156464000Y-70866000D02*
X162814000Y-70866000D01*
X155702000Y-70104000D02*
X156464000Y-70866000D01*
X170360498Y-60017502D02*
X166697502Y-60017502D01*
X166697502Y-60017502D02*
X165100000Y-58420000D01*
X163741887Y-56351697D02*
X163285697Y-56351697D01*
X165100000Y-57709810D02*
X163741887Y-56351697D01*
X165100000Y-58420000D02*
X165100000Y-57709810D01*
X164974505Y-53204272D02*
X164334211Y-52563978D01*
X164334211Y-52563978D02*
X163685696Y-52563978D01*
X163685696Y-52563978D02*
X163285697Y-52963977D01*
X169672000Y-62738000D02*
X169112250Y-62178250D01*
X170791500Y-62738000D02*
X169672000Y-62738000D01*
X169112250Y-62178250D02*
X170360498Y-60930002D01*
X167894000Y-63396500D02*
X169112250Y-62178250D01*
X179324000Y-51562000D02*
X179324000Y-52680000D01*
X178816000Y-51054000D02*
X179324000Y-51562000D01*
X174707001Y-51054000D02*
X178816000Y-51054000D01*
%TO.N,VBUS*%
X181624000Y-52934000D02*
X183583805Y-52934000D01*
X183583805Y-52934000D02*
X183605010Y-52912795D01*
X179467000Y-44196000D02*
X183642000Y-44196000D01*
X178592000Y-43321000D02*
X179467000Y-44196000D01*
X178592000Y-43321000D02*
X178592000Y-42371000D01*
X175431000Y-46482000D02*
X178592000Y-43321000D01*
X174707001Y-46482000D02*
X175431000Y-46482000D01*
X172391999Y-39857499D02*
X170434000Y-37899500D01*
X172391999Y-44166998D02*
X172391999Y-39857499D01*
X174707001Y-46482000D02*
X172391999Y-44166998D01*
%TO.N,Net-(IC1-Pad26)*%
X166546508Y-55416715D02*
X166813019Y-55683226D01*
X165573518Y-55416715D02*
X166546508Y-55416715D01*
X164974505Y-56015728D02*
X165573518Y-55416715D01*
X166094500Y-61571500D02*
X165826000Y-61303000D01*
X167894000Y-61571500D02*
X166094500Y-61571500D01*
X166192213Y-68886787D02*
X166192213Y-68878009D01*
X165826000Y-69253000D02*
X166192213Y-68886787D01*
X166045879Y-61083121D02*
X166045879Y-60391200D01*
X165826000Y-61303000D02*
X166045879Y-61083121D01*
%TO.N,Host_USB_D-*%
X162101537Y-49884963D02*
X160782000Y-51204500D01*
X165003542Y-51111989D02*
X164250864Y-51111989D01*
X163023838Y-49884963D02*
X162101537Y-49884963D01*
X166035165Y-52143612D02*
X165003542Y-51111989D01*
X164250864Y-51111989D02*
X163023838Y-49884963D01*
%TO.N,Host_USB_D+*%
X164746447Y-51562000D02*
X164051263Y-51562000D01*
X164051263Y-51562000D02*
X163374287Y-52238976D01*
X163374287Y-52238976D02*
X159784476Y-52238976D01*
X159784476Y-52238976D02*
X158813010Y-51267510D01*
X165681612Y-52497165D02*
X164746447Y-51562000D01*
%TO.N,Net-(C6-Pad1)*%
X173993332Y-69252999D02*
X173743332Y-69002999D01*
X175768000Y-69252999D02*
X173993332Y-69252999D01*
X171228000Y-74490000D02*
X171228000Y-76429000D01*
X171228000Y-76429000D02*
X171927978Y-77128978D01*
X171927978Y-77128978D02*
X171927978Y-78082802D01*
X171927978Y-78082802D02*
X172556244Y-78711068D01*
X175857001Y-69342000D02*
X175768000Y-69252999D01*
X177038000Y-69342000D02*
X175857001Y-69342000D01*
X173743332Y-69002999D02*
X173743332Y-69776344D01*
X173743332Y-69776344D02*
X173278079Y-70241597D01*
X174964315Y-65527001D02*
X175478593Y-66041279D01*
X176739338Y-66041279D02*
X177139337Y-65641280D01*
X172616500Y-64770000D02*
X173373501Y-65527001D01*
X175478593Y-66041279D02*
X176739338Y-66041279D01*
X173373501Y-65527001D02*
X174964315Y-65527001D01*
%TO.N,FTDI_DTR*%
X182118000Y-70932000D02*
X182118000Y-71628000D01*
X178562000Y-67376000D02*
X182118000Y-70932000D01*
%TO.N,Net-(C7-Pad1)*%
X170791500Y-65551167D02*
X172043332Y-66802999D01*
X170791500Y-64770000D02*
X170791500Y-65551167D01*
X170018666Y-68927665D02*
X170018666Y-69252999D01*
X172043332Y-66902999D02*
X170018666Y-68927665D01*
X172043332Y-66802999D02*
X172043332Y-66902999D01*
X170018666Y-69503334D02*
X169164000Y-70358000D01*
X170018666Y-69252999D02*
X170018666Y-69503334D01*
X170242000Y-74676000D02*
X170428000Y-74490000D01*
X169164000Y-74676000D02*
X170242000Y-74676000D01*
%TO.N,Net-(C10-Pad1)*%
X157480000Y-61280000D02*
X157480000Y-63940000D01*
X161290000Y-57470000D02*
X157480000Y-61280000D01*
X164547778Y-55589002D02*
X162975388Y-55589002D01*
X162975388Y-55589002D02*
X161290000Y-57274390D01*
X164620951Y-55662175D02*
X164547778Y-55589002D01*
X161290000Y-57274390D02*
X161290000Y-57470000D01*
%TO.N,Net-(C11-Pad1)*%
X159326000Y-53594000D02*
X157480000Y-55440000D01*
X161290000Y-53594000D02*
X159326000Y-53594000D01*
X161384987Y-53688987D02*
X164489789Y-53688987D01*
X164489789Y-53688987D02*
X164620951Y-53557825D01*
X161290000Y-53594000D02*
X161384987Y-53688987D01*
%TO.N,Net-(C12-Pad1)*%
X166579340Y-54102000D02*
X165328058Y-52850718D01*
X167132000Y-54102000D02*
X166579340Y-54102000D01*
X163322000Y-57470000D02*
X163322000Y-57667319D01*
X163322000Y-57667319D02*
X165338765Y-59684084D01*
%TO.N,MAX3421_INT*%
X168832000Y-78994000D02*
X168978000Y-79140000D01*
X165608000Y-78994000D02*
X168832000Y-78994000D01*
X166116000Y-50810233D02*
X166742272Y-51436505D01*
X166116000Y-50038000D02*
X166116000Y-50810233D01*
X164268874Y-77654874D02*
X164163706Y-77654874D01*
X165608000Y-78994000D02*
X164268874Y-77654874D01*
%TO.N,MAX3421_GPX*%
X167928000Y-78340000D02*
X166804000Y-77216000D01*
X168978000Y-78340000D02*
X167928000Y-78340000D01*
X166804000Y-77216000D02*
X166116000Y-77216000D01*
X167898660Y-51885786D02*
X167898660Y-52573340D01*
X167095825Y-51082951D02*
X167898660Y-51885786D01*
%TO.N,SPI_MOSI*%
X169200175Y-51082951D02*
X169200175Y-50509825D01*
X169672000Y-50038000D02*
X169672000Y-49784000D01*
X169200175Y-50509825D02*
X169672000Y-50038000D01*
X156127000Y-78486000D02*
X155846000Y-78205000D01*
X157226000Y-78486000D02*
X156127000Y-78486000D01*
X169672000Y-49784000D02*
X168184998Y-48296998D01*
X168184998Y-48296998D02*
X162786321Y-48296998D01*
X162786321Y-48296998D02*
X162695725Y-48387594D01*
%TO.N,SPI_MISO*%
X168978000Y-81540000D02*
X168153320Y-81540000D01*
X168153320Y-81540000D02*
X167680155Y-82013165D01*
X169553728Y-51436505D02*
X170418155Y-50572078D01*
X170418155Y-50572078D02*
X170418155Y-50476627D01*
%TO.N,MAX3421_SS*%
X156127000Y-75946000D02*
X155846000Y-75665000D01*
X157480000Y-75946000D02*
X156127000Y-75946000D01*
X169942623Y-51790058D02*
X170541636Y-51191045D01*
X169220748Y-48696338D02*
X168334400Y-47809989D01*
X163950475Y-47809989D02*
X163285010Y-47144524D01*
X170804955Y-51191045D02*
X171196000Y-50800000D01*
X170541636Y-51191045D02*
X170804955Y-51191045D01*
X171196000Y-49530000D02*
X170362338Y-48696338D01*
X170362338Y-48696338D02*
X169220748Y-48696338D01*
X168334400Y-47809989D02*
X163950475Y-47809989D01*
X171196000Y-50800000D02*
X171196000Y-49530000D01*
X169907282Y-51790058D02*
X169942623Y-51790058D01*
%TO.N,SPI_SCLK*%
X157226000Y-72644000D02*
X157226000Y-72898000D01*
X156999000Y-73125000D02*
X155846000Y-73125000D01*
X157226000Y-72898000D02*
X156999000Y-73125000D01*
X159124397Y-72811901D02*
X159073746Y-72761250D01*
X157226000Y-72644000D02*
X158956496Y-72644000D01*
X158956496Y-72644000D02*
X159073746Y-72761250D01*
X159344099Y-72811901D02*
X159124397Y-72811901D01*
X163633004Y-54610000D02*
X163162002Y-54138998D01*
X166566998Y-54610000D02*
X163633004Y-54610000D01*
X163162002Y-54138998D02*
X162465998Y-54138998D01*
X170260835Y-52143612D02*
X169127002Y-53277445D01*
X161994996Y-54610000D02*
X159701967Y-54610000D01*
X162465998Y-54138998D02*
X161994996Y-54610000D01*
X168750003Y-54827001D02*
X166783999Y-54827001D01*
X169127002Y-54450002D02*
X168750003Y-54827001D01*
X169127002Y-53277445D02*
X169127002Y-54450002D01*
X166783999Y-54827001D02*
X166566998Y-54610000D01*
%TO.N,MAX3421_RESET*%
X159739000Y-79475000D02*
X159258000Y-78994000D01*
X160846000Y-79475000D02*
X159739000Y-79475000D01*
X171646011Y-51465542D02*
X171646011Y-49343600D01*
X171646011Y-49343600D02*
X170548738Y-48246327D01*
X169407148Y-48246327D02*
X168158187Y-46997366D01*
X168158187Y-46997366D02*
X164274135Y-46997366D01*
X170614388Y-52497165D02*
X171646011Y-51465542D01*
X170548738Y-48246327D02*
X169407148Y-48246327D01*
%TO.N,ADB_DATA_LV*%
X170847013Y-70198987D02*
X167894000Y-73152000D01*
X173461994Y-71083002D02*
X173139603Y-71083002D01*
X175354002Y-70394998D02*
X174149998Y-70394998D01*
X171984402Y-70198987D02*
X170847013Y-70198987D01*
X172675394Y-70889979D02*
X171984402Y-70198987D01*
X172946580Y-70889979D02*
X172675394Y-70889979D01*
X174149998Y-70394998D02*
X173461994Y-71083002D01*
X177038000Y-72078996D02*
X175354002Y-70394998D01*
X177038000Y-73480000D02*
X177038000Y-72078996D01*
X176028000Y-74490000D02*
X177038000Y-73480000D01*
X173139603Y-71083002D02*
X172946580Y-70889979D01*
%TO.N,ADB_PWR_ON_LV*%
X177478000Y-75940000D02*
X182112000Y-75940000D01*
%TO.N,Net-(TP1-Pad1)*%
X172028000Y-82990000D02*
X172028000Y-81859674D01*
X172028000Y-81859674D02*
X171394278Y-81225952D01*
%TO.N,Net-(TP2-Pad1)*%
X174428000Y-82990000D02*
X174428000Y-81780319D01*
X174428000Y-81780319D02*
X174231509Y-81583828D01*
%TO.N,Net-(TP13-Pad1)*%
X180410000Y-79940000D02*
X180848000Y-79502000D01*
X177478000Y-79940000D02*
X180410000Y-79940000D01*
%TO.N,Net-(TP14-Pad1)*%
X179940000Y-79140000D02*
X180594000Y-78486000D01*
X177478000Y-79140000D02*
X179940000Y-79140000D01*
%TO.N,Net-(TP15-Pad1)*%
X175228000Y-74490000D02*
X175228000Y-75871010D01*
X175228000Y-75871010D02*
X175153010Y-75946000D01*
%TO.N,Net-(TP16-Pad1)*%
X168904000Y-75940000D02*
X167640000Y-74676000D01*
X168978000Y-75940000D02*
X168904000Y-75940000D01*
%TO.N,Net-(TP17-Pad1)*%
X170466000Y-76740000D02*
X168978000Y-76740000D01*
X171196000Y-77470000D02*
X170466000Y-76740000D01*
%TO.N,FTDI_TXO*%
X177478000Y-76740000D02*
X182637144Y-76740000D01*
X182637144Y-76740000D02*
X182668204Y-76771060D01*
%TO.N,FTDI_RXI*%
X177478000Y-77540000D02*
X177664259Y-77353741D01*
X177664259Y-77353741D02*
X182126048Y-77353741D01*
X182126048Y-77353741D02*
X182534385Y-77762078D01*
%TO.N,Net-(C2-Pad1)*%
X172974000Y-83136000D02*
X172828000Y-82990000D01*
X172974000Y-85090000D02*
X172974000Y-83136000D01*
%TO.N,Net-(C5-Pad1)*%
X177965000Y-63157000D02*
X177800000Y-62992000D01*
X178308000Y-69530000D02*
X178562000Y-69276000D01*
X178308000Y-70612000D02*
X178308000Y-69530000D01*
X178706572Y-78340000D02*
X178967829Y-78078743D01*
X177478000Y-78340000D02*
X178706572Y-78340000D01*
X172616500Y-62738000D02*
X173087502Y-62266998D01*
X173087502Y-62266998D02*
X177074998Y-62266998D01*
X177074998Y-62266998D02*
X177800000Y-62992000D01*
X179034000Y-64226000D02*
X177800000Y-62992000D01*
X179034000Y-64427000D02*
X179034000Y-64226000D01*
X178615000Y-56896000D02*
X179034000Y-56477000D01*
X177546000Y-56896000D02*
X178615000Y-56896000D01*
%TO.N,Net-(F1-Pad1)*%
X168669002Y-45720000D02*
X165608000Y-45720000D01*
X170503001Y-43886001D02*
X168669002Y-45720000D01*
X170503001Y-39893501D02*
X170503001Y-43886001D01*
X170434000Y-39824500D02*
X170503001Y-39893501D01*
%TO.N,TTL_MAX3421_RESET*%
X159811522Y-80745000D02*
X159330522Y-80264000D01*
X160846000Y-80745000D02*
X159811522Y-80745000D01*
X161846000Y-80745000D02*
X162945490Y-79645510D01*
X160846000Y-80745000D02*
X161846000Y-80745000D01*
X167928000Y-77540000D02*
X168978000Y-77540000D01*
X162945490Y-79645510D02*
X162945490Y-77800088D01*
X166747998Y-76359998D02*
X167928000Y-77540000D01*
X162945490Y-77800088D02*
X164385580Y-76359998D01*
X164385580Y-76359998D02*
X166747998Y-76359998D01*
%TO.N,TTL_SPI_MOSI*%
X168978000Y-80740000D02*
X167797590Y-80740000D01*
X167797590Y-80740000D02*
X164971590Y-83566000D01*
X164971590Y-83566000D02*
X160017178Y-83566000D01*
X160017178Y-83566000D02*
X157595978Y-81144800D01*
X157595978Y-81144800D02*
X157595978Y-80224978D01*
X156846000Y-79475000D02*
X155846000Y-79475000D01*
X157430500Y-80059500D02*
X156846000Y-79475000D01*
X157595978Y-80224978D02*
X157430500Y-80059500D01*
%TO.N,TTL_SS*%
X158045989Y-78129634D02*
X157047518Y-77131163D01*
X158045989Y-79601987D02*
X158045989Y-78129634D01*
X160108591Y-83021002D02*
X158155501Y-81067912D01*
X164686002Y-83021002D02*
X160108591Y-83021002D01*
X156851355Y-76935000D02*
X157047518Y-77131163D01*
X155846000Y-76935000D02*
X156851355Y-76935000D01*
X167767004Y-79940000D02*
X164686002Y-83021002D01*
X168978000Y-79940000D02*
X167767004Y-79940000D01*
X158155501Y-79711499D02*
X158045989Y-79601987D01*
X158155501Y-81067912D02*
X158155501Y-79711499D01*
%TO.N,TTL_SPI_SCLK*%
X166184000Y-82990000D02*
X170428000Y-82990000D01*
X164846000Y-84328000D02*
X166184000Y-82990000D01*
X155846000Y-74395000D02*
X157002002Y-74395000D01*
X157002002Y-74395000D02*
X158532999Y-75925997D01*
X158532999Y-75925997D02*
X158532999Y-79452586D01*
X158532999Y-79452586D02*
X158605512Y-79525099D01*
X158605512Y-80684514D02*
X160216998Y-82296000D01*
X158605512Y-79525099D02*
X158605512Y-80684514D01*
X160216998Y-82296000D02*
X164338000Y-82296000D01*
X157253000Y-74395000D02*
X157480000Y-74168000D01*
X155846000Y-74395000D02*
X157253000Y-74395000D01*
%TO.N,Net-(J3-Pad3)*%
X158750000Y-48078000D02*
X161108000Y-45720000D01*
X158750000Y-49379500D02*
X158750000Y-48078000D01*
%TO.N,Net-(J3-Pad2)*%
X160782000Y-49276000D02*
X162560009Y-47497991D01*
X163108000Y-46248532D02*
X163108000Y-45720000D01*
X160782000Y-49379500D02*
X160782000Y-49276000D01*
X162560009Y-46796523D02*
X163108000Y-46248532D01*
X162560009Y-47497991D02*
X162560009Y-46796523D01*
%TO.N,Net-(JP8-Pad1)*%
X156589501Y-90850501D02*
X155702000Y-89963000D01*
X158670999Y-90850501D02*
X156589501Y-90850501D01*
X159446000Y-90075500D02*
X158670999Y-90850501D01*
X162814000Y-87122000D02*
X159766000Y-87122000D01*
X160020000Y-90649500D02*
X159446000Y-90075500D01*
X160020000Y-91186000D02*
X160020000Y-90649500D01*
%TO.N,Net-(JP9-Pad1)*%
X161227500Y-88075500D02*
X161290000Y-88138000D01*
X158496000Y-88075500D02*
X161227500Y-88075500D01*
X161290000Y-88138000D02*
X168656000Y-88138000D01*
%TO.N,Net-(JP10-Pad1)*%
X175411010Y-90800510D02*
X174686000Y-90075500D01*
X183656490Y-90800510D02*
X175411010Y-90800510D01*
X183779000Y-90678000D02*
X183656490Y-90800510D01*
X171829501Y-90850501D02*
X173910999Y-90850501D01*
X173910999Y-90850501D02*
X174686000Y-90075500D01*
X170942000Y-89963000D02*
X171829501Y-90850501D01*
%TO.N,Net-(JP11-Pad1)*%
X177292000Y-88138000D02*
X178562000Y-86868000D01*
X176530000Y-88138000D02*
X177292000Y-88138000D01*
X176467500Y-88075500D02*
X176530000Y-88138000D01*
X173736000Y-88075500D02*
X176467500Y-88075500D01*
%TO.N,Net-(R5-Pad2)*%
X167818501Y-69235499D02*
X166736001Y-68152999D01*
X162253000Y-62230000D02*
X161326000Y-61303000D01*
X162560000Y-62230000D02*
X162253000Y-62230000D01*
X166736001Y-68152999D02*
X162426001Y-68152999D01*
X162426001Y-68152999D02*
X161326000Y-69253000D01*
X167894000Y-69235499D02*
X167818501Y-69235499D01*
%TO.N,Net-(TP9-Pad1)*%
X175228000Y-82990000D02*
X175228000Y-81665991D01*
X175228000Y-81665991D02*
X175359991Y-81534000D01*
%TO.N,Net-(TP10-Pad1)*%
X177038000Y-84000000D02*
X176028000Y-82990000D01*
X177038000Y-84074000D02*
X177038000Y-84000000D01*
%TO.N,Net-(TP11-Pad1)*%
X177478000Y-82228000D02*
X178054000Y-82804000D01*
X177478000Y-81540000D02*
X177478000Y-82228000D01*
%TO.N,Net-(TP12-Pad1)*%
X180520774Y-80740000D02*
X180629924Y-80630850D01*
X177478000Y-80740000D02*
X180520774Y-80740000D01*
%TO.N,VCC*%
X155702000Y-88231500D02*
X157546000Y-90075500D01*
X155702000Y-88138000D02*
X155702000Y-88231500D01*
X170942000Y-88231500D02*
X172786000Y-90075500D01*
X170942000Y-88138000D02*
X170942000Y-88231500D01*
X157546000Y-90075500D02*
X158496010Y-89125490D01*
X158496010Y-89125490D02*
X169954510Y-89125490D01*
X169954510Y-89125490D02*
X170942000Y-88138000D01*
X171384000Y-83146000D02*
X171228000Y-82990000D01*
X171384000Y-85090000D02*
X171384000Y-83146000D01*
X170942000Y-85532000D02*
X171384000Y-85090000D01*
X170942000Y-88138000D02*
X170942000Y-85532000D01*
X173628000Y-72630000D02*
X173868000Y-72390000D01*
X173628000Y-74490000D02*
X173628000Y-72630000D01*
X171028001Y-81929999D02*
X170434000Y-81335998D01*
X171028001Y-82790001D02*
X171028001Y-81929999D01*
X171228000Y-82990000D02*
X171028001Y-82790001D01*
X170434000Y-81335998D02*
X170434000Y-80772000D01*
X170434000Y-80772000D02*
X170688000Y-80518000D01*
X175325930Y-79436070D02*
X175768000Y-78994000D01*
X171892070Y-79436070D02*
X175325930Y-79436070D01*
X171450000Y-78994000D02*
X171892070Y-79436070D01*
X172028000Y-73684190D02*
X170733810Y-72390000D01*
X172028000Y-74490000D02*
X172028000Y-73684190D01*
X170372000Y-72390000D02*
X170733810Y-72390000D01*
X171798002Y-70648998D02*
X172488994Y-71339990D01*
X172760180Y-71339990D02*
X173810190Y-72390000D01*
X170724998Y-71025998D02*
X171101998Y-70648998D01*
X170733810Y-72390000D02*
X170724998Y-72381188D01*
X170724998Y-72381188D02*
X170724998Y-71025998D01*
X172488994Y-71339990D02*
X172760180Y-71339990D01*
X171101998Y-70648998D02*
X171798002Y-70648998D01*
X173810190Y-72390000D02*
X173868000Y-72390000D01*
X174506169Y-78348259D02*
X172028000Y-75870090D01*
X173628000Y-75350002D02*
X173628000Y-74490000D01*
X173977989Y-77820079D02*
X173977989Y-75699991D01*
X172028000Y-75870090D02*
X172028000Y-74490000D01*
X174506169Y-78348259D02*
X173977989Y-77820079D01*
X173977989Y-75699991D02*
X173628000Y-75350002D01*
X175954182Y-77848822D02*
X175954182Y-77124264D01*
X175354002Y-78449002D02*
X175954182Y-77848822D01*
X174606912Y-78449002D02*
X175354002Y-78449002D01*
X174506169Y-78348259D02*
X174606912Y-78449002D01*
%TD*%
D31*
%TO.N,GND*%
X154624038Y-90853462D02*
X154758613Y-90963905D01*
X154912149Y-91045972D01*
X155078745Y-91096508D01*
X155251999Y-91113572D01*
X155777770Y-91113572D01*
X156009283Y-91345085D01*
X156003931Y-91350437D01*
X155857393Y-91569746D01*
X155756457Y-91813428D01*
X155705000Y-92072120D01*
X155705000Y-92335880D01*
X155756457Y-92594572D01*
X155857393Y-92838254D01*
X156003931Y-93057563D01*
X156190437Y-93244069D01*
X156409746Y-93390607D01*
X156653428Y-93491543D01*
X156912120Y-93543000D01*
X157175880Y-93543000D01*
X157286246Y-93521047D01*
X158489209Y-94724011D01*
X158513008Y-94753010D01*
X158628733Y-94847983D01*
X158760762Y-94918555D01*
X158904023Y-94962012D01*
X159015676Y-94973009D01*
X159015684Y-94973009D01*
X159053009Y-94976685D01*
X159090334Y-94973009D01*
X159802910Y-94973009D01*
X159801748Y-94974171D01*
X159556279Y-95341541D01*
X159387197Y-95749741D01*
X159301000Y-96183084D01*
X159301000Y-96624916D01*
X159387197Y-97058259D01*
X159556279Y-97466459D01*
X159801748Y-97833829D01*
X160114171Y-98146252D01*
X160481541Y-98391721D01*
X160889741Y-98560803D01*
X161323084Y-98647000D01*
X161764916Y-98647000D01*
X162198259Y-98560803D01*
X162606459Y-98391721D01*
X162973829Y-98146252D01*
X163286252Y-97833829D01*
X163531721Y-97466459D01*
X163700803Y-97058259D01*
X163787000Y-96624916D01*
X163787000Y-96183084D01*
X163700803Y-95749741D01*
X163531721Y-95341541D01*
X163286252Y-94974171D01*
X163285090Y-94973009D01*
X166864793Y-94973009D01*
X166936706Y-95044922D01*
X166853340Y-95113339D01*
X166661520Y-95347073D01*
X166518984Y-95613739D01*
X166431211Y-95903087D01*
X166409000Y-96128592D01*
X166409000Y-98079407D01*
X166431210Y-98304912D01*
X166518983Y-98594260D01*
X166661519Y-98860926D01*
X166700151Y-98908000D01*
X156387849Y-98908000D01*
X156426481Y-98860927D01*
X156569017Y-98594261D01*
X156656790Y-98304913D01*
X156679000Y-98079408D01*
X156679000Y-96128592D01*
X156656790Y-95903087D01*
X156569017Y-95613739D01*
X156426481Y-95347073D01*
X156234661Y-95113339D01*
X156000927Y-94921519D01*
X155734261Y-94778983D01*
X155444913Y-94691210D01*
X155144000Y-94661573D01*
X154843088Y-94691210D01*
X154584000Y-94769804D01*
X154584000Y-90804676D01*
X154624038Y-90853462D01*
%TA.AperFunction,Conductor*%
D32*
G36*
X154624038Y-90853462D02*
G01*
X154758613Y-90963905D01*
X154912149Y-91045972D01*
X155078745Y-91096508D01*
X155251999Y-91113572D01*
X155777770Y-91113572D01*
X156009283Y-91345085D01*
X156003931Y-91350437D01*
X155857393Y-91569746D01*
X155756457Y-91813428D01*
X155705000Y-92072120D01*
X155705000Y-92335880D01*
X155756457Y-92594572D01*
X155857393Y-92838254D01*
X156003931Y-93057563D01*
X156190437Y-93244069D01*
X156409746Y-93390607D01*
X156653428Y-93491543D01*
X156912120Y-93543000D01*
X157175880Y-93543000D01*
X157286246Y-93521047D01*
X158489209Y-94724011D01*
X158513008Y-94753010D01*
X158628733Y-94847983D01*
X158760762Y-94918555D01*
X158904023Y-94962012D01*
X159015676Y-94973009D01*
X159015684Y-94973009D01*
X159053009Y-94976685D01*
X159090334Y-94973009D01*
X159802910Y-94973009D01*
X159801748Y-94974171D01*
X159556279Y-95341541D01*
X159387197Y-95749741D01*
X159301000Y-96183084D01*
X159301000Y-96624916D01*
X159387197Y-97058259D01*
X159556279Y-97466459D01*
X159801748Y-97833829D01*
X160114171Y-98146252D01*
X160481541Y-98391721D01*
X160889741Y-98560803D01*
X161323084Y-98647000D01*
X161764916Y-98647000D01*
X162198259Y-98560803D01*
X162606459Y-98391721D01*
X162973829Y-98146252D01*
X163286252Y-97833829D01*
X163531721Y-97466459D01*
X163700803Y-97058259D01*
X163787000Y-96624916D01*
X163787000Y-96183084D01*
X163700803Y-95749741D01*
X163531721Y-95341541D01*
X163286252Y-94974171D01*
X163285090Y-94973009D01*
X166864793Y-94973009D01*
X166936706Y-95044922D01*
X166853340Y-95113339D01*
X166661520Y-95347073D01*
X166518984Y-95613739D01*
X166431211Y-95903087D01*
X166409000Y-96128592D01*
X166409000Y-98079407D01*
X166431210Y-98304912D01*
X166518983Y-98594260D01*
X166661519Y-98860926D01*
X166700151Y-98908000D01*
X156387849Y-98908000D01*
X156426481Y-98860927D01*
X156569017Y-98594261D01*
X156656790Y-98304913D01*
X156679000Y-98079408D01*
X156679000Y-96128592D01*
X156656790Y-95903087D01*
X156569017Y-95613739D01*
X156426481Y-95347073D01*
X156234661Y-95113339D01*
X156000927Y-94921519D01*
X155734261Y-94778983D01*
X155444913Y-94691210D01*
X155144000Y-94661573D01*
X154843088Y-94691210D01*
X154584000Y-94769804D01*
X154584000Y-90804676D01*
X154624038Y-90853462D01*
G37*
%TD.AperFunction*%
D31*
X183744000Y-89643000D02*
X183677061Y-89643000D01*
X183477102Y-89682774D01*
X183288744Y-89760795D01*
X183119226Y-89874063D01*
X182975063Y-90018226D01*
X182960173Y-90040510D01*
X178763492Y-90040510D01*
X178795226Y-89963898D01*
X178835000Y-89763939D01*
X178835000Y-89560061D01*
X178795226Y-89360102D01*
X178717205Y-89171744D01*
X178603937Y-89002226D01*
X178459774Y-88858063D01*
X178290256Y-88744795D01*
X178101898Y-88666774D01*
X177901939Y-88627000D01*
X177877801Y-88627000D01*
X178601802Y-87903000D01*
X178663939Y-87903000D01*
X178863898Y-87863226D01*
X179052256Y-87785205D01*
X179221774Y-87671937D01*
X179365937Y-87527774D01*
X179479205Y-87358256D01*
X179557226Y-87169898D01*
X179597000Y-86969939D01*
X179597000Y-86766061D01*
X179557226Y-86566102D01*
X179479205Y-86377744D01*
X179365937Y-86208226D01*
X179221774Y-86064063D01*
X179052256Y-85950795D01*
X178863898Y-85872774D01*
X178663939Y-85833000D01*
X178460061Y-85833000D01*
X178260102Y-85872774D01*
X178071744Y-85950795D01*
X177902226Y-86064063D01*
X177758063Y-86208226D01*
X177644795Y-86377744D01*
X177566774Y-86566102D01*
X177527000Y-86766061D01*
X177527000Y-86828198D01*
X177304751Y-87050448D01*
X177153255Y-87004492D01*
X176980001Y-86987428D01*
X176079999Y-86987428D01*
X175906745Y-87004492D01*
X175740149Y-87055028D01*
X175586613Y-87137095D01*
X175452038Y-87247538D01*
X175396263Y-87315500D01*
X174690320Y-87315500D01*
X174666537Y-87271006D01*
X174587185Y-87174315D01*
X174490494Y-87094963D01*
X174380180Y-87035998D01*
X174260482Y-86999688D01*
X174136000Y-86987428D01*
X173336000Y-86987428D01*
X173211518Y-86999688D01*
X173091820Y-87035998D01*
X172981506Y-87094963D01*
X172884815Y-87174315D01*
X172805463Y-87271006D01*
X172746498Y-87381320D01*
X172710188Y-87501018D01*
X172697928Y-87625500D01*
X172697928Y-88525500D01*
X172710188Y-88649982D01*
X172746498Y-88769680D01*
X172805463Y-88879994D01*
X172884815Y-88976685D01*
X172897905Y-88987428D01*
X172772730Y-88987428D01*
X172271620Y-88486318D01*
X172280072Y-88400501D01*
X172280072Y-87875499D01*
X172263008Y-87702245D01*
X172212472Y-87535649D01*
X172130405Y-87382113D01*
X172019962Y-87247538D01*
X171885387Y-87137095D01*
X171731851Y-87055028D01*
X171702000Y-87045973D01*
X171702000Y-86446375D01*
X171807254Y-86436008D01*
X171973850Y-86385472D01*
X172127386Y-86303405D01*
X172179000Y-86261047D01*
X172230614Y-86303405D01*
X172384150Y-86385472D01*
X172550746Y-86436008D01*
X172724000Y-86453072D01*
X173224000Y-86453072D01*
X173397254Y-86436008D01*
X173563850Y-86385472D01*
X173717386Y-86303405D01*
X173851962Y-86192962D01*
X173857342Y-86186406D01*
X173922815Y-86266185D01*
X174019506Y-86345537D01*
X174129820Y-86404502D01*
X174249518Y-86440812D01*
X174374000Y-86453072D01*
X174588250Y-86450000D01*
X174747000Y-86291250D01*
X174747000Y-85217000D01*
X175001000Y-85217000D01*
X175001000Y-86291250D01*
X175159750Y-86450000D01*
X175374000Y-86453072D01*
X175498482Y-86440812D01*
X175618180Y-86404502D01*
X175728494Y-86345537D01*
X175825185Y-86266185D01*
X175904537Y-86169494D01*
X175963502Y-86059180D01*
X175999812Y-85939482D01*
X176012072Y-85815000D01*
X176009000Y-85375750D01*
X175850250Y-85217000D01*
X175001000Y-85217000D01*
X174747000Y-85217000D01*
X174727000Y-85217000D01*
X174727000Y-84963000D01*
X174747000Y-84963000D01*
X174747000Y-84943000D01*
X175001000Y-84943000D01*
X175001000Y-84963000D01*
X175850250Y-84963000D01*
X176009000Y-84804250D01*
X176011631Y-84428072D01*
X176064385Y-84428072D01*
X176120795Y-84564256D01*
X176234063Y-84733774D01*
X176378226Y-84877937D01*
X176547744Y-84991205D01*
X176736102Y-85069226D01*
X176936061Y-85109000D01*
X177139939Y-85109000D01*
X177339898Y-85069226D01*
X177528256Y-84991205D01*
X177697774Y-84877937D01*
X177841937Y-84733774D01*
X177955205Y-84564256D01*
X178033226Y-84375898D01*
X178073000Y-84175939D01*
X178073000Y-83972061D01*
X178046533Y-83839000D01*
X178155939Y-83839000D01*
X178355898Y-83799226D01*
X178544256Y-83721205D01*
X178713774Y-83607937D01*
X178857937Y-83463774D01*
X178971205Y-83294256D01*
X179049226Y-83105898D01*
X179089000Y-82905939D01*
X179089000Y-82702061D01*
X179049226Y-82502102D01*
X178971205Y-82313744D01*
X178857937Y-82144226D01*
X178834546Y-82120835D01*
X178867502Y-82059180D01*
X178903812Y-81939482D01*
X178916072Y-81815000D01*
X178916072Y-81500000D01*
X180067748Y-81500000D01*
X180139668Y-81548055D01*
X180328026Y-81626076D01*
X180527985Y-81665850D01*
X180731863Y-81665850D01*
X180931822Y-81626076D01*
X181120180Y-81548055D01*
X181289698Y-81434787D01*
X181433861Y-81290624D01*
X181547129Y-81121106D01*
X181625150Y-80932748D01*
X181664924Y-80732789D01*
X181664924Y-80528911D01*
X181625150Y-80328952D01*
X181584030Y-80229681D01*
X181651937Y-80161774D01*
X181765205Y-79992256D01*
X181843226Y-79803898D01*
X181883000Y-79603939D01*
X181883000Y-79400061D01*
X181843226Y-79200102D01*
X181765205Y-79011744D01*
X181651937Y-78842226D01*
X181590617Y-78780906D01*
X181629000Y-78587939D01*
X181629000Y-78384061D01*
X181589511Y-78185536D01*
X181617180Y-78252334D01*
X181730448Y-78421852D01*
X181874611Y-78566015D01*
X182044129Y-78679283D01*
X182232487Y-78757304D01*
X182432446Y-78797078D01*
X182636324Y-78797078D01*
X182836283Y-78757304D01*
X183024641Y-78679283D01*
X183194159Y-78566015D01*
X183338322Y-78421852D01*
X183451590Y-78252334D01*
X183529611Y-78063976D01*
X183569385Y-77864017D01*
X183569385Y-77660139D01*
X183529611Y-77460180D01*
X183500114Y-77388969D01*
X183585409Y-77261316D01*
X183663430Y-77072958D01*
X183703204Y-76872999D01*
X183703204Y-76669121D01*
X183663430Y-76469162D01*
X183585409Y-76280804D01*
X183472141Y-76111286D01*
X183327978Y-75967123D01*
X183158460Y-75853855D01*
X183147000Y-75849108D01*
X183147000Y-75838061D01*
X183107226Y-75638102D01*
X183029205Y-75449744D01*
X182915937Y-75280226D01*
X182771774Y-75136063D01*
X182602256Y-75022795D01*
X182413898Y-74944774D01*
X182213939Y-74905000D01*
X182010061Y-74905000D01*
X181810102Y-74944774D01*
X181621744Y-75022795D01*
X181452226Y-75136063D01*
X181408289Y-75180000D01*
X178687981Y-75180000D01*
X178632494Y-75134463D01*
X178522180Y-75075498D01*
X178402482Y-75039188D01*
X178278000Y-75026928D01*
X176941072Y-75026928D01*
X176941072Y-74651729D01*
X177549004Y-74043798D01*
X177578001Y-74020001D01*
X177672974Y-73904276D01*
X177743546Y-73772247D01*
X177787003Y-73628986D01*
X177798000Y-73517333D01*
X177798000Y-73517325D01*
X177801676Y-73480000D01*
X177798000Y-73442675D01*
X177798000Y-72116319D01*
X177801676Y-72078996D01*
X177798000Y-72041673D01*
X177798000Y-72041663D01*
X177787003Y-71930010D01*
X177743546Y-71786749D01*
X177672974Y-71654720D01*
X177578001Y-71538995D01*
X177549003Y-71515197D01*
X176408569Y-70374764D01*
X176416254Y-70374007D01*
X176582850Y-70323471D01*
X176635262Y-70295456D01*
X176736102Y-70337226D01*
X176936061Y-70377000D01*
X177139939Y-70377000D01*
X177306039Y-70343961D01*
X177273000Y-70510061D01*
X177273000Y-70713939D01*
X177312774Y-70913898D01*
X177390795Y-71102256D01*
X177504063Y-71271774D01*
X177648226Y-71415937D01*
X177817744Y-71529205D01*
X178006102Y-71607226D01*
X178206061Y-71647000D01*
X178409939Y-71647000D01*
X178609898Y-71607226D01*
X178798256Y-71529205D01*
X178967774Y-71415937D01*
X179111937Y-71271774D01*
X179225205Y-71102256D01*
X179303226Y-70913898D01*
X179343000Y-70713939D01*
X179343000Y-70510061D01*
X179314238Y-70365465D01*
X179376850Y-70346472D01*
X179530386Y-70264405D01*
X179664962Y-70153962D01*
X179775405Y-70019386D01*
X179857472Y-69865850D01*
X179885302Y-69774105D01*
X180895648Y-70784450D01*
X180802010Y-70924589D01*
X180690068Y-71194842D01*
X180633000Y-71481740D01*
X180633000Y-71774260D01*
X180690068Y-72061158D01*
X180802010Y-72331411D01*
X180964525Y-72574632D01*
X181171368Y-72781475D01*
X181414589Y-72943990D01*
X181684842Y-73055932D01*
X181971740Y-73113000D01*
X182264260Y-73113000D01*
X182551158Y-73055932D01*
X182821411Y-72943990D01*
X183064632Y-72781475D01*
X183271475Y-72574632D01*
X183433990Y-72331411D01*
X183545932Y-72061158D01*
X183603000Y-71774260D01*
X183603000Y-71481740D01*
X183545932Y-71194842D01*
X183433990Y-70924589D01*
X183271475Y-70681368D01*
X183064632Y-70474525D01*
X182890240Y-70358000D01*
X183064632Y-70241475D01*
X183271475Y-70034632D01*
X183433990Y-69791411D01*
X183545932Y-69521158D01*
X183603000Y-69234260D01*
X183603000Y-68941740D01*
X183545932Y-68654842D01*
X183433990Y-68384589D01*
X183271475Y-68141368D01*
X183064632Y-67934525D01*
X182890240Y-67818000D01*
X183064632Y-67701475D01*
X183271475Y-67494632D01*
X183433990Y-67251411D01*
X183545932Y-66981158D01*
X183603000Y-66694260D01*
X183603000Y-66401740D01*
X183545932Y-66114842D01*
X183433990Y-65844589D01*
X183271475Y-65601368D01*
X183064632Y-65394525D01*
X182890240Y-65278000D01*
X183064632Y-65161475D01*
X183271475Y-64954632D01*
X183433990Y-64711411D01*
X183545932Y-64441158D01*
X183603000Y-64154260D01*
X183603000Y-63861740D01*
X183545932Y-63574842D01*
X183433990Y-63304589D01*
X183271475Y-63061368D01*
X183064632Y-62854525D01*
X182882466Y-62732805D01*
X182999355Y-62663178D01*
X183215588Y-62468269D01*
X183389641Y-62234920D01*
X183514825Y-61972099D01*
X183559476Y-61824890D01*
X183438155Y-61595000D01*
X182245000Y-61595000D01*
X182245000Y-61615000D01*
X181991000Y-61615000D01*
X181991000Y-61595000D01*
X180797845Y-61595000D01*
X180676524Y-61824890D01*
X180721175Y-61972099D01*
X180846359Y-62234920D01*
X181020412Y-62468269D01*
X181236645Y-62663178D01*
X181353534Y-62732805D01*
X181171368Y-62854525D01*
X180964525Y-63061368D01*
X180802010Y-63304589D01*
X180690068Y-63574842D01*
X180633000Y-63861740D01*
X180633000Y-64154260D01*
X180690068Y-64441158D01*
X180802010Y-64711411D01*
X180964525Y-64954632D01*
X181171368Y-65161475D01*
X181345760Y-65278000D01*
X181171368Y-65394525D01*
X180964525Y-65601368D01*
X180802010Y-65844589D01*
X180690068Y-66114842D01*
X180633000Y-66401740D01*
X180633000Y-66694260D01*
X180690068Y-66981158D01*
X180802010Y-67251411D01*
X180964525Y-67494632D01*
X181171368Y-67701475D01*
X181345760Y-67818000D01*
X181171368Y-67934525D01*
X180964525Y-68141368D01*
X180802010Y-68384589D01*
X180756137Y-68495336D01*
X179921641Y-67660839D01*
X179925072Y-67626000D01*
X179925072Y-67126000D01*
X179908008Y-66952746D01*
X179857472Y-66786150D01*
X179775405Y-66632614D01*
X179664962Y-66498038D01*
X179530386Y-66387595D01*
X179376850Y-66305528D01*
X179210254Y-66254992D01*
X179037000Y-66237928D01*
X178087000Y-66237928D01*
X177978300Y-66248634D01*
X178056542Y-66131536D01*
X178134563Y-65943178D01*
X178163315Y-65798629D01*
X178259518Y-65827812D01*
X178384000Y-65840072D01*
X179684000Y-65840072D01*
X179808482Y-65827812D01*
X179928180Y-65791502D01*
X180038494Y-65732537D01*
X180135185Y-65653185D01*
X180214537Y-65556494D01*
X180273502Y-65446180D01*
X180309812Y-65326482D01*
X180322072Y-65202000D01*
X180322072Y-63652000D01*
X180309812Y-63527518D01*
X180273502Y-63407820D01*
X180214537Y-63297506D01*
X180135185Y-63200815D01*
X180038494Y-63121463D01*
X179928180Y-63062498D01*
X179808482Y-63026188D01*
X179684000Y-63013928D01*
X178896729Y-63013928D01*
X178835000Y-62952199D01*
X178835000Y-62890061D01*
X178795226Y-62690102D01*
X178717205Y-62501744D01*
X178603937Y-62332226D01*
X178459774Y-62188063D01*
X178290256Y-62074795D01*
X178101898Y-61996774D01*
X177901939Y-61957000D01*
X177839801Y-61957000D01*
X177638801Y-61756000D01*
X177614999Y-61726997D01*
X177499274Y-61632024D01*
X177367245Y-61561452D01*
X177223984Y-61517995D01*
X177112331Y-61506998D01*
X177112320Y-61506998D01*
X177074998Y-61503322D01*
X177037676Y-61506998D01*
X173292694Y-61506998D01*
X173218851Y-61467528D01*
X173052255Y-61416992D01*
X172879001Y-61399928D01*
X172353999Y-61399928D01*
X172180745Y-61416992D01*
X172014149Y-61467528D01*
X171860613Y-61549595D01*
X171726038Y-61660038D01*
X171704000Y-61686891D01*
X171681962Y-61660038D01*
X171547387Y-61549595D01*
X171393851Y-61467528D01*
X171227255Y-61416992D01*
X171054001Y-61399928D01*
X170958008Y-61399928D01*
X170995472Y-61354278D01*
X171063412Y-61227173D01*
X171147559Y-61158116D01*
X171501112Y-60804563D01*
X171523320Y-60777502D01*
X178706174Y-60777502D01*
X178743496Y-60781178D01*
X178780818Y-60777502D01*
X178780829Y-60777502D01*
X178892482Y-60766505D01*
X179035743Y-60723048D01*
X179167772Y-60652476D01*
X179283497Y-60557503D01*
X179307300Y-60528499D01*
X180780798Y-59055002D01*
X180791748Y-59055002D01*
X180633000Y-59213750D01*
X180629928Y-59778000D01*
X180642188Y-59902482D01*
X180678498Y-60022180D01*
X180737463Y-60132494D01*
X180816815Y-60229185D01*
X180913506Y-60308537D01*
X181023820Y-60367502D01*
X181104466Y-60391966D01*
X181020412Y-60467731D01*
X180846359Y-60701080D01*
X180721175Y-60963901D01*
X180676524Y-61111110D01*
X180797845Y-61341000D01*
X181991000Y-61341000D01*
X181991000Y-59055000D01*
X182245000Y-59055000D01*
X182245000Y-61341000D01*
X183438155Y-61341000D01*
X183559476Y-61111110D01*
X183514825Y-60963901D01*
X183389641Y-60701080D01*
X183215588Y-60467731D01*
X183131534Y-60391966D01*
X183212180Y-60367502D01*
X183322494Y-60308537D01*
X183419185Y-60229185D01*
X183498537Y-60132494D01*
X183557502Y-60022180D01*
X183593812Y-59902482D01*
X183606072Y-59778000D01*
X183603000Y-59213750D01*
X183444250Y-59055000D01*
X182245000Y-59055000D01*
X181991000Y-59055000D01*
X181971000Y-59055000D01*
X181971000Y-58801000D01*
X181991000Y-58801000D01*
X181991000Y-58781000D01*
X182245000Y-58781000D01*
X182245000Y-58801000D01*
X183444250Y-58801000D01*
X183603000Y-58642250D01*
X183606072Y-58078000D01*
X183593812Y-57953518D01*
X183557502Y-57833820D01*
X183498537Y-57723506D01*
X183428875Y-57638623D01*
X183435898Y-57637226D01*
X183624256Y-57559205D01*
X183744001Y-57479194D01*
X183744000Y-89643000D01*
%TA.AperFunction,Conductor*%
D32*
G36*
X183744000Y-89643000D02*
G01*
X183677061Y-89643000D01*
X183477102Y-89682774D01*
X183288744Y-89760795D01*
X183119226Y-89874063D01*
X182975063Y-90018226D01*
X182960173Y-90040510D01*
X178763492Y-90040510D01*
X178795226Y-89963898D01*
X178835000Y-89763939D01*
X178835000Y-89560061D01*
X178795226Y-89360102D01*
X178717205Y-89171744D01*
X178603937Y-89002226D01*
X178459774Y-88858063D01*
X178290256Y-88744795D01*
X178101898Y-88666774D01*
X177901939Y-88627000D01*
X177877801Y-88627000D01*
X178601802Y-87903000D01*
X178663939Y-87903000D01*
X178863898Y-87863226D01*
X179052256Y-87785205D01*
X179221774Y-87671937D01*
X179365937Y-87527774D01*
X179479205Y-87358256D01*
X179557226Y-87169898D01*
X179597000Y-86969939D01*
X179597000Y-86766061D01*
X179557226Y-86566102D01*
X179479205Y-86377744D01*
X179365937Y-86208226D01*
X179221774Y-86064063D01*
X179052256Y-85950795D01*
X178863898Y-85872774D01*
X178663939Y-85833000D01*
X178460061Y-85833000D01*
X178260102Y-85872774D01*
X178071744Y-85950795D01*
X177902226Y-86064063D01*
X177758063Y-86208226D01*
X177644795Y-86377744D01*
X177566774Y-86566102D01*
X177527000Y-86766061D01*
X177527000Y-86828198D01*
X177304751Y-87050448D01*
X177153255Y-87004492D01*
X176980001Y-86987428D01*
X176079999Y-86987428D01*
X175906745Y-87004492D01*
X175740149Y-87055028D01*
X175586613Y-87137095D01*
X175452038Y-87247538D01*
X175396263Y-87315500D01*
X174690320Y-87315500D01*
X174666537Y-87271006D01*
X174587185Y-87174315D01*
X174490494Y-87094963D01*
X174380180Y-87035998D01*
X174260482Y-86999688D01*
X174136000Y-86987428D01*
X173336000Y-86987428D01*
X173211518Y-86999688D01*
X173091820Y-87035998D01*
X172981506Y-87094963D01*
X172884815Y-87174315D01*
X172805463Y-87271006D01*
X172746498Y-87381320D01*
X172710188Y-87501018D01*
X172697928Y-87625500D01*
X172697928Y-88525500D01*
X172710188Y-88649982D01*
X172746498Y-88769680D01*
X172805463Y-88879994D01*
X172884815Y-88976685D01*
X172897905Y-88987428D01*
X172772730Y-88987428D01*
X172271620Y-88486318D01*
X172280072Y-88400501D01*
X172280072Y-87875499D01*
X172263008Y-87702245D01*
X172212472Y-87535649D01*
X172130405Y-87382113D01*
X172019962Y-87247538D01*
X171885387Y-87137095D01*
X171731851Y-87055028D01*
X171702000Y-87045973D01*
X171702000Y-86446375D01*
X171807254Y-86436008D01*
X171973850Y-86385472D01*
X172127386Y-86303405D01*
X172179000Y-86261047D01*
X172230614Y-86303405D01*
X172384150Y-86385472D01*
X172550746Y-86436008D01*
X172724000Y-86453072D01*
X173224000Y-86453072D01*
X173397254Y-86436008D01*
X173563850Y-86385472D01*
X173717386Y-86303405D01*
X173851962Y-86192962D01*
X173857342Y-86186406D01*
X173922815Y-86266185D01*
X174019506Y-86345537D01*
X174129820Y-86404502D01*
X174249518Y-86440812D01*
X174374000Y-86453072D01*
X174588250Y-86450000D01*
X174747000Y-86291250D01*
X174747000Y-85217000D01*
X175001000Y-85217000D01*
X175001000Y-86291250D01*
X175159750Y-86450000D01*
X175374000Y-86453072D01*
X175498482Y-86440812D01*
X175618180Y-86404502D01*
X175728494Y-86345537D01*
X175825185Y-86266185D01*
X175904537Y-86169494D01*
X175963502Y-86059180D01*
X175999812Y-85939482D01*
X176012072Y-85815000D01*
X176009000Y-85375750D01*
X175850250Y-85217000D01*
X175001000Y-85217000D01*
X174747000Y-85217000D01*
X174727000Y-85217000D01*
X174727000Y-84963000D01*
X174747000Y-84963000D01*
X174747000Y-84943000D01*
X175001000Y-84943000D01*
X175001000Y-84963000D01*
X175850250Y-84963000D01*
X176009000Y-84804250D01*
X176011631Y-84428072D01*
X176064385Y-84428072D01*
X176120795Y-84564256D01*
X176234063Y-84733774D01*
X176378226Y-84877937D01*
X176547744Y-84991205D01*
X176736102Y-85069226D01*
X176936061Y-85109000D01*
X177139939Y-85109000D01*
X177339898Y-85069226D01*
X177528256Y-84991205D01*
X177697774Y-84877937D01*
X177841937Y-84733774D01*
X177955205Y-84564256D01*
X178033226Y-84375898D01*
X178073000Y-84175939D01*
X178073000Y-83972061D01*
X178046533Y-83839000D01*
X178155939Y-83839000D01*
X178355898Y-83799226D01*
X178544256Y-83721205D01*
X178713774Y-83607937D01*
X178857937Y-83463774D01*
X178971205Y-83294256D01*
X179049226Y-83105898D01*
X179089000Y-82905939D01*
X179089000Y-82702061D01*
X179049226Y-82502102D01*
X178971205Y-82313744D01*
X178857937Y-82144226D01*
X178834546Y-82120835D01*
X178867502Y-82059180D01*
X178903812Y-81939482D01*
X178916072Y-81815000D01*
X178916072Y-81500000D01*
X180067748Y-81500000D01*
X180139668Y-81548055D01*
X180328026Y-81626076D01*
X180527985Y-81665850D01*
X180731863Y-81665850D01*
X180931822Y-81626076D01*
X181120180Y-81548055D01*
X181289698Y-81434787D01*
X181433861Y-81290624D01*
X181547129Y-81121106D01*
X181625150Y-80932748D01*
X181664924Y-80732789D01*
X181664924Y-80528911D01*
X181625150Y-80328952D01*
X181584030Y-80229681D01*
X181651937Y-80161774D01*
X181765205Y-79992256D01*
X181843226Y-79803898D01*
X181883000Y-79603939D01*
X181883000Y-79400061D01*
X181843226Y-79200102D01*
X181765205Y-79011744D01*
X181651937Y-78842226D01*
X181590617Y-78780906D01*
X181629000Y-78587939D01*
X181629000Y-78384061D01*
X181589511Y-78185536D01*
X181617180Y-78252334D01*
X181730448Y-78421852D01*
X181874611Y-78566015D01*
X182044129Y-78679283D01*
X182232487Y-78757304D01*
X182432446Y-78797078D01*
X182636324Y-78797078D01*
X182836283Y-78757304D01*
X183024641Y-78679283D01*
X183194159Y-78566015D01*
X183338322Y-78421852D01*
X183451590Y-78252334D01*
X183529611Y-78063976D01*
X183569385Y-77864017D01*
X183569385Y-77660139D01*
X183529611Y-77460180D01*
X183500114Y-77388969D01*
X183585409Y-77261316D01*
X183663430Y-77072958D01*
X183703204Y-76872999D01*
X183703204Y-76669121D01*
X183663430Y-76469162D01*
X183585409Y-76280804D01*
X183472141Y-76111286D01*
X183327978Y-75967123D01*
X183158460Y-75853855D01*
X183147000Y-75849108D01*
X183147000Y-75838061D01*
X183107226Y-75638102D01*
X183029205Y-75449744D01*
X182915937Y-75280226D01*
X182771774Y-75136063D01*
X182602256Y-75022795D01*
X182413898Y-74944774D01*
X182213939Y-74905000D01*
X182010061Y-74905000D01*
X181810102Y-74944774D01*
X181621744Y-75022795D01*
X181452226Y-75136063D01*
X181408289Y-75180000D01*
X178687981Y-75180000D01*
X178632494Y-75134463D01*
X178522180Y-75075498D01*
X178402482Y-75039188D01*
X178278000Y-75026928D01*
X176941072Y-75026928D01*
X176941072Y-74651729D01*
X177549004Y-74043798D01*
X177578001Y-74020001D01*
X177672974Y-73904276D01*
X177743546Y-73772247D01*
X177787003Y-73628986D01*
X177798000Y-73517333D01*
X177798000Y-73517325D01*
X177801676Y-73480000D01*
X177798000Y-73442675D01*
X177798000Y-72116319D01*
X177801676Y-72078996D01*
X177798000Y-72041673D01*
X177798000Y-72041663D01*
X177787003Y-71930010D01*
X177743546Y-71786749D01*
X177672974Y-71654720D01*
X177578001Y-71538995D01*
X177549003Y-71515197D01*
X176408569Y-70374764D01*
X176416254Y-70374007D01*
X176582850Y-70323471D01*
X176635262Y-70295456D01*
X176736102Y-70337226D01*
X176936061Y-70377000D01*
X177139939Y-70377000D01*
X177306039Y-70343961D01*
X177273000Y-70510061D01*
X177273000Y-70713939D01*
X177312774Y-70913898D01*
X177390795Y-71102256D01*
X177504063Y-71271774D01*
X177648226Y-71415937D01*
X177817744Y-71529205D01*
X178006102Y-71607226D01*
X178206061Y-71647000D01*
X178409939Y-71647000D01*
X178609898Y-71607226D01*
X178798256Y-71529205D01*
X178967774Y-71415937D01*
X179111937Y-71271774D01*
X179225205Y-71102256D01*
X179303226Y-70913898D01*
X179343000Y-70713939D01*
X179343000Y-70510061D01*
X179314238Y-70365465D01*
X179376850Y-70346472D01*
X179530386Y-70264405D01*
X179664962Y-70153962D01*
X179775405Y-70019386D01*
X179857472Y-69865850D01*
X179885302Y-69774105D01*
X180895648Y-70784450D01*
X180802010Y-70924589D01*
X180690068Y-71194842D01*
X180633000Y-71481740D01*
X180633000Y-71774260D01*
X180690068Y-72061158D01*
X180802010Y-72331411D01*
X180964525Y-72574632D01*
X181171368Y-72781475D01*
X181414589Y-72943990D01*
X181684842Y-73055932D01*
X181971740Y-73113000D01*
X182264260Y-73113000D01*
X182551158Y-73055932D01*
X182821411Y-72943990D01*
X183064632Y-72781475D01*
X183271475Y-72574632D01*
X183433990Y-72331411D01*
X183545932Y-72061158D01*
X183603000Y-71774260D01*
X183603000Y-71481740D01*
X183545932Y-71194842D01*
X183433990Y-70924589D01*
X183271475Y-70681368D01*
X183064632Y-70474525D01*
X182890240Y-70358000D01*
X183064632Y-70241475D01*
X183271475Y-70034632D01*
X183433990Y-69791411D01*
X183545932Y-69521158D01*
X183603000Y-69234260D01*
X183603000Y-68941740D01*
X183545932Y-68654842D01*
X183433990Y-68384589D01*
X183271475Y-68141368D01*
X183064632Y-67934525D01*
X182890240Y-67818000D01*
X183064632Y-67701475D01*
X183271475Y-67494632D01*
X183433990Y-67251411D01*
X183545932Y-66981158D01*
X183603000Y-66694260D01*
X183603000Y-66401740D01*
X183545932Y-66114842D01*
X183433990Y-65844589D01*
X183271475Y-65601368D01*
X183064632Y-65394525D01*
X182890240Y-65278000D01*
X183064632Y-65161475D01*
X183271475Y-64954632D01*
X183433990Y-64711411D01*
X183545932Y-64441158D01*
X183603000Y-64154260D01*
X183603000Y-63861740D01*
X183545932Y-63574842D01*
X183433990Y-63304589D01*
X183271475Y-63061368D01*
X183064632Y-62854525D01*
X182882466Y-62732805D01*
X182999355Y-62663178D01*
X183215588Y-62468269D01*
X183389641Y-62234920D01*
X183514825Y-61972099D01*
X183559476Y-61824890D01*
X183438155Y-61595000D01*
X182245000Y-61595000D01*
X182245000Y-61615000D01*
X181991000Y-61615000D01*
X181991000Y-61595000D01*
X180797845Y-61595000D01*
X180676524Y-61824890D01*
X180721175Y-61972099D01*
X180846359Y-62234920D01*
X181020412Y-62468269D01*
X181236645Y-62663178D01*
X181353534Y-62732805D01*
X181171368Y-62854525D01*
X180964525Y-63061368D01*
X180802010Y-63304589D01*
X180690068Y-63574842D01*
X180633000Y-63861740D01*
X180633000Y-64154260D01*
X180690068Y-64441158D01*
X180802010Y-64711411D01*
X180964525Y-64954632D01*
X181171368Y-65161475D01*
X181345760Y-65278000D01*
X181171368Y-65394525D01*
X180964525Y-65601368D01*
X180802010Y-65844589D01*
X180690068Y-66114842D01*
X180633000Y-66401740D01*
X180633000Y-66694260D01*
X180690068Y-66981158D01*
X180802010Y-67251411D01*
X180964525Y-67494632D01*
X181171368Y-67701475D01*
X181345760Y-67818000D01*
X181171368Y-67934525D01*
X180964525Y-68141368D01*
X180802010Y-68384589D01*
X180756137Y-68495336D01*
X179921641Y-67660839D01*
X179925072Y-67626000D01*
X179925072Y-67126000D01*
X179908008Y-66952746D01*
X179857472Y-66786150D01*
X179775405Y-66632614D01*
X179664962Y-66498038D01*
X179530386Y-66387595D01*
X179376850Y-66305528D01*
X179210254Y-66254992D01*
X179037000Y-66237928D01*
X178087000Y-66237928D01*
X177978300Y-66248634D01*
X178056542Y-66131536D01*
X178134563Y-65943178D01*
X178163315Y-65798629D01*
X178259518Y-65827812D01*
X178384000Y-65840072D01*
X179684000Y-65840072D01*
X179808482Y-65827812D01*
X179928180Y-65791502D01*
X180038494Y-65732537D01*
X180135185Y-65653185D01*
X180214537Y-65556494D01*
X180273502Y-65446180D01*
X180309812Y-65326482D01*
X180322072Y-65202000D01*
X180322072Y-63652000D01*
X180309812Y-63527518D01*
X180273502Y-63407820D01*
X180214537Y-63297506D01*
X180135185Y-63200815D01*
X180038494Y-63121463D01*
X179928180Y-63062498D01*
X179808482Y-63026188D01*
X179684000Y-63013928D01*
X178896729Y-63013928D01*
X178835000Y-62952199D01*
X178835000Y-62890061D01*
X178795226Y-62690102D01*
X178717205Y-62501744D01*
X178603937Y-62332226D01*
X178459774Y-62188063D01*
X178290256Y-62074795D01*
X178101898Y-61996774D01*
X177901939Y-61957000D01*
X177839801Y-61957000D01*
X177638801Y-61756000D01*
X177614999Y-61726997D01*
X177499274Y-61632024D01*
X177367245Y-61561452D01*
X177223984Y-61517995D01*
X177112331Y-61506998D01*
X177112320Y-61506998D01*
X177074998Y-61503322D01*
X177037676Y-61506998D01*
X173292694Y-61506998D01*
X173218851Y-61467528D01*
X173052255Y-61416992D01*
X172879001Y-61399928D01*
X172353999Y-61399928D01*
X172180745Y-61416992D01*
X172014149Y-61467528D01*
X171860613Y-61549595D01*
X171726038Y-61660038D01*
X171704000Y-61686891D01*
X171681962Y-61660038D01*
X171547387Y-61549595D01*
X171393851Y-61467528D01*
X171227255Y-61416992D01*
X171054001Y-61399928D01*
X170958008Y-61399928D01*
X170995472Y-61354278D01*
X171063412Y-61227173D01*
X171147559Y-61158116D01*
X171501112Y-60804563D01*
X171523320Y-60777502D01*
X178706174Y-60777502D01*
X178743496Y-60781178D01*
X178780818Y-60777502D01*
X178780829Y-60777502D01*
X178892482Y-60766505D01*
X179035743Y-60723048D01*
X179167772Y-60652476D01*
X179283497Y-60557503D01*
X179307300Y-60528499D01*
X180780798Y-59055002D01*
X180791748Y-59055002D01*
X180633000Y-59213750D01*
X180629928Y-59778000D01*
X180642188Y-59902482D01*
X180678498Y-60022180D01*
X180737463Y-60132494D01*
X180816815Y-60229185D01*
X180913506Y-60308537D01*
X181023820Y-60367502D01*
X181104466Y-60391966D01*
X181020412Y-60467731D01*
X180846359Y-60701080D01*
X180721175Y-60963901D01*
X180676524Y-61111110D01*
X180797845Y-61341000D01*
X181991000Y-61341000D01*
X181991000Y-59055000D01*
X182245000Y-59055000D01*
X182245000Y-61341000D01*
X183438155Y-61341000D01*
X183559476Y-61111110D01*
X183514825Y-60963901D01*
X183389641Y-60701080D01*
X183215588Y-60467731D01*
X183131534Y-60391966D01*
X183212180Y-60367502D01*
X183322494Y-60308537D01*
X183419185Y-60229185D01*
X183498537Y-60132494D01*
X183557502Y-60022180D01*
X183593812Y-59902482D01*
X183606072Y-59778000D01*
X183603000Y-59213750D01*
X183444250Y-59055000D01*
X182245000Y-59055000D01*
X181991000Y-59055000D01*
X181971000Y-59055000D01*
X181971000Y-58801000D01*
X181991000Y-58801000D01*
X181991000Y-58781000D01*
X182245000Y-58781000D01*
X182245000Y-58801000D01*
X183444250Y-58801000D01*
X183603000Y-58642250D01*
X183606072Y-58078000D01*
X183593812Y-57953518D01*
X183557502Y-57833820D01*
X183498537Y-57723506D01*
X183428875Y-57638623D01*
X183435898Y-57637226D01*
X183624256Y-57559205D01*
X183744001Y-57479194D01*
X183744000Y-89643000D01*
G37*
%TD.AperFunction*%
D31*
X155973000Y-80618000D02*
X155993000Y-80618000D01*
X155993000Y-80872000D01*
X155973000Y-80872000D01*
X155973000Y-81521250D01*
X156131750Y-81680000D01*
X156846000Y-81683072D01*
X156970482Y-81670812D01*
X157029744Y-81652835D01*
X157055977Y-81684801D01*
X157084981Y-81708604D01*
X159453379Y-84077003D01*
X159477177Y-84106001D01*
X159506175Y-84129799D01*
X159592901Y-84200974D01*
X159668130Y-84241185D01*
X159724931Y-84271546D01*
X159868192Y-84315003D01*
X159979845Y-84326000D01*
X159979855Y-84326000D01*
X160017178Y-84329676D01*
X160054501Y-84326000D01*
X163811000Y-84326000D01*
X163811000Y-84429939D01*
X163850774Y-84629898D01*
X163928795Y-84818256D01*
X164042063Y-84987774D01*
X164186226Y-85131937D01*
X164355744Y-85245205D01*
X164544102Y-85323226D01*
X164744061Y-85363000D01*
X164947939Y-85363000D01*
X165147898Y-85323226D01*
X165336256Y-85245205D01*
X165505774Y-85131937D01*
X165649937Y-84987774D01*
X165763205Y-84818256D01*
X165841226Y-84629898D01*
X165881000Y-84429939D01*
X165881000Y-84367801D01*
X166498802Y-83750000D01*
X168823876Y-83750000D01*
X168739820Y-83775498D01*
X168629506Y-83834463D01*
X168532815Y-83913815D01*
X168453463Y-84010506D01*
X168394498Y-84120820D01*
X168358188Y-84240518D01*
X168345928Y-84365000D01*
X168349000Y-84804250D01*
X168507750Y-84963000D01*
X169357000Y-84963000D01*
X169357000Y-84943000D01*
X169611000Y-84943000D01*
X169611000Y-84963000D01*
X169631000Y-84963000D01*
X169631000Y-85217000D01*
X169611000Y-85217000D01*
X169611000Y-86291250D01*
X169769750Y-86450000D01*
X169984000Y-86453072D01*
X170108482Y-86440812D01*
X170182001Y-86418510D01*
X170182000Y-87045973D01*
X170152149Y-87055028D01*
X169998613Y-87137095D01*
X169864038Y-87247538D01*
X169753595Y-87382113D01*
X169671528Y-87535649D01*
X169620992Y-87702245D01*
X169616149Y-87751419D01*
X169573205Y-87647744D01*
X169459937Y-87478226D01*
X169315774Y-87334063D01*
X169146256Y-87220795D01*
X168957898Y-87142774D01*
X168757939Y-87103000D01*
X168554061Y-87103000D01*
X168354102Y-87142774D01*
X168165744Y-87220795D01*
X167996226Y-87334063D01*
X167952289Y-87378000D01*
X163818356Y-87378000D01*
X163849000Y-87223939D01*
X163849000Y-87020061D01*
X163809226Y-86820102D01*
X163731205Y-86631744D01*
X163617937Y-86462226D01*
X163473774Y-86318063D01*
X163304256Y-86204795D01*
X163115898Y-86126774D01*
X162915939Y-86087000D01*
X162712061Y-86087000D01*
X162512102Y-86126774D01*
X162323744Y-86204795D01*
X162154226Y-86318063D01*
X162110289Y-86362000D01*
X160469711Y-86362000D01*
X160425774Y-86318063D01*
X160256256Y-86204795D01*
X160067898Y-86126774D01*
X159867939Y-86087000D01*
X159664061Y-86087000D01*
X159464102Y-86126774D01*
X159275744Y-86204795D01*
X159106226Y-86318063D01*
X158962063Y-86462226D01*
X158848795Y-86631744D01*
X158770774Y-86820102D01*
X158737491Y-86987428D01*
X158096000Y-86987428D01*
X157971518Y-86999688D01*
X157851820Y-87035998D01*
X157741506Y-87094963D01*
X157644815Y-87174315D01*
X157565463Y-87271006D01*
X157506498Y-87381320D01*
X157470188Y-87501018D01*
X157457928Y-87625500D01*
X157457928Y-88525500D01*
X157470188Y-88649982D01*
X157506498Y-88769680D01*
X157565463Y-88879994D01*
X157611098Y-88935600D01*
X157559270Y-88987428D01*
X157532730Y-88987428D01*
X157031620Y-88486318D01*
X157040072Y-88400501D01*
X157040072Y-87875499D01*
X157023008Y-87702245D01*
X156972472Y-87535649D01*
X156890405Y-87382113D01*
X156779962Y-87247538D01*
X156645387Y-87137095D01*
X156491851Y-87055028D01*
X156325255Y-87004492D01*
X156152001Y-86987428D01*
X155251999Y-86987428D01*
X155078745Y-87004492D01*
X154912149Y-87055028D01*
X154758613Y-87137095D01*
X154624038Y-87247538D01*
X154584000Y-87296324D01*
X154584000Y-85815000D01*
X168345928Y-85815000D01*
X168358188Y-85939482D01*
X168394498Y-86059180D01*
X168453463Y-86169494D01*
X168532815Y-86266185D01*
X168629506Y-86345537D01*
X168739820Y-86404502D01*
X168859518Y-86440812D01*
X168984000Y-86453072D01*
X169198250Y-86450000D01*
X169357000Y-86291250D01*
X169357000Y-85217000D01*
X168507750Y-85217000D01*
X168349000Y-85375750D01*
X168345928Y-85815000D01*
X154584000Y-85815000D01*
X154584000Y-81624977D01*
X154601820Y-81634502D01*
X154721518Y-81670812D01*
X154846000Y-81683072D01*
X155560250Y-81680000D01*
X155719000Y-81521250D01*
X155719000Y-80872000D01*
X155699000Y-80872000D01*
X155699000Y-80618000D01*
X155719000Y-80618000D01*
X155719000Y-80598000D01*
X155973000Y-80598000D01*
X155973000Y-80618000D01*
%TA.AperFunction,Conductor*%
D32*
G36*
X155973000Y-80618000D02*
G01*
X155993000Y-80618000D01*
X155993000Y-80872000D01*
X155973000Y-80872000D01*
X155973000Y-81521250D01*
X156131750Y-81680000D01*
X156846000Y-81683072D01*
X156970482Y-81670812D01*
X157029744Y-81652835D01*
X157055977Y-81684801D01*
X157084981Y-81708604D01*
X159453379Y-84077003D01*
X159477177Y-84106001D01*
X159506175Y-84129799D01*
X159592901Y-84200974D01*
X159668130Y-84241185D01*
X159724931Y-84271546D01*
X159868192Y-84315003D01*
X159979845Y-84326000D01*
X159979855Y-84326000D01*
X160017178Y-84329676D01*
X160054501Y-84326000D01*
X163811000Y-84326000D01*
X163811000Y-84429939D01*
X163850774Y-84629898D01*
X163928795Y-84818256D01*
X164042063Y-84987774D01*
X164186226Y-85131937D01*
X164355744Y-85245205D01*
X164544102Y-85323226D01*
X164744061Y-85363000D01*
X164947939Y-85363000D01*
X165147898Y-85323226D01*
X165336256Y-85245205D01*
X165505774Y-85131937D01*
X165649937Y-84987774D01*
X165763205Y-84818256D01*
X165841226Y-84629898D01*
X165881000Y-84429939D01*
X165881000Y-84367801D01*
X166498802Y-83750000D01*
X168823876Y-83750000D01*
X168739820Y-83775498D01*
X168629506Y-83834463D01*
X168532815Y-83913815D01*
X168453463Y-84010506D01*
X168394498Y-84120820D01*
X168358188Y-84240518D01*
X168345928Y-84365000D01*
X168349000Y-84804250D01*
X168507750Y-84963000D01*
X169357000Y-84963000D01*
X169357000Y-84943000D01*
X169611000Y-84943000D01*
X169611000Y-84963000D01*
X169631000Y-84963000D01*
X169631000Y-85217000D01*
X169611000Y-85217000D01*
X169611000Y-86291250D01*
X169769750Y-86450000D01*
X169984000Y-86453072D01*
X170108482Y-86440812D01*
X170182001Y-86418510D01*
X170182000Y-87045973D01*
X170152149Y-87055028D01*
X169998613Y-87137095D01*
X169864038Y-87247538D01*
X169753595Y-87382113D01*
X169671528Y-87535649D01*
X169620992Y-87702245D01*
X169616149Y-87751419D01*
X169573205Y-87647744D01*
X169459937Y-87478226D01*
X169315774Y-87334063D01*
X169146256Y-87220795D01*
X168957898Y-87142774D01*
X168757939Y-87103000D01*
X168554061Y-87103000D01*
X168354102Y-87142774D01*
X168165744Y-87220795D01*
X167996226Y-87334063D01*
X167952289Y-87378000D01*
X163818356Y-87378000D01*
X163849000Y-87223939D01*
X163849000Y-87020061D01*
X163809226Y-86820102D01*
X163731205Y-86631744D01*
X163617937Y-86462226D01*
X163473774Y-86318063D01*
X163304256Y-86204795D01*
X163115898Y-86126774D01*
X162915939Y-86087000D01*
X162712061Y-86087000D01*
X162512102Y-86126774D01*
X162323744Y-86204795D01*
X162154226Y-86318063D01*
X162110289Y-86362000D01*
X160469711Y-86362000D01*
X160425774Y-86318063D01*
X160256256Y-86204795D01*
X160067898Y-86126774D01*
X159867939Y-86087000D01*
X159664061Y-86087000D01*
X159464102Y-86126774D01*
X159275744Y-86204795D01*
X159106226Y-86318063D01*
X158962063Y-86462226D01*
X158848795Y-86631744D01*
X158770774Y-86820102D01*
X158737491Y-86987428D01*
X158096000Y-86987428D01*
X157971518Y-86999688D01*
X157851820Y-87035998D01*
X157741506Y-87094963D01*
X157644815Y-87174315D01*
X157565463Y-87271006D01*
X157506498Y-87381320D01*
X157470188Y-87501018D01*
X157457928Y-87625500D01*
X157457928Y-88525500D01*
X157470188Y-88649982D01*
X157506498Y-88769680D01*
X157565463Y-88879994D01*
X157611098Y-88935600D01*
X157559270Y-88987428D01*
X157532730Y-88987428D01*
X157031620Y-88486318D01*
X157040072Y-88400501D01*
X157040072Y-87875499D01*
X157023008Y-87702245D01*
X156972472Y-87535649D01*
X156890405Y-87382113D01*
X156779962Y-87247538D01*
X156645387Y-87137095D01*
X156491851Y-87055028D01*
X156325255Y-87004492D01*
X156152001Y-86987428D01*
X155251999Y-86987428D01*
X155078745Y-87004492D01*
X154912149Y-87055028D01*
X154758613Y-87137095D01*
X154624038Y-87247538D01*
X154584000Y-87296324D01*
X154584000Y-85815000D01*
X168345928Y-85815000D01*
X168358188Y-85939482D01*
X168394498Y-86059180D01*
X168453463Y-86169494D01*
X168532815Y-86266185D01*
X168629506Y-86345537D01*
X168739820Y-86404502D01*
X168859518Y-86440812D01*
X168984000Y-86453072D01*
X169198250Y-86450000D01*
X169357000Y-86291250D01*
X169357000Y-85217000D01*
X168507750Y-85217000D01*
X168349000Y-85375750D01*
X168345928Y-85815000D01*
X154584000Y-85815000D01*
X154584000Y-81624977D01*
X154601820Y-81634502D01*
X154721518Y-81670812D01*
X154846000Y-81683072D01*
X155560250Y-81680000D01*
X155719000Y-81521250D01*
X155719000Y-80872000D01*
X155699000Y-80872000D01*
X155699000Y-80618000D01*
X155719000Y-80618000D01*
X155719000Y-80598000D01*
X155973000Y-80598000D01*
X155973000Y-80618000D01*
G37*
%TD.AperFunction*%
D31*
X176039928Y-80215000D02*
X176052188Y-80339482D01*
X176052345Y-80340000D01*
X176052188Y-80340518D01*
X176039928Y-80465000D01*
X176039928Y-80750226D01*
X176019765Y-80730063D01*
X175850247Y-80616795D01*
X175661889Y-80538774D01*
X175461930Y-80499000D01*
X175258052Y-80499000D01*
X175058093Y-80538774D01*
X174869735Y-80616795D01*
X174758463Y-80691144D01*
X174721765Y-80666623D01*
X174533407Y-80588602D01*
X174333448Y-80548828D01*
X174129570Y-80548828D01*
X173929611Y-80588602D01*
X173741253Y-80666623D01*
X173571735Y-80779891D01*
X173427572Y-80924054D01*
X173314304Y-81093572D01*
X173236283Y-81281930D01*
X173196509Y-81481889D01*
X173196509Y-81561138D01*
X173103000Y-81551928D01*
X172725261Y-81551928D01*
X172662974Y-81435398D01*
X172568001Y-81319673D01*
X172539002Y-81295874D01*
X172429278Y-81186150D01*
X172429278Y-81124013D01*
X172389504Y-80924054D01*
X172311483Y-80735696D01*
X172198215Y-80566178D01*
X172054052Y-80422015D01*
X171884534Y-80308747D01*
X171696176Y-80230726D01*
X171685721Y-80228646D01*
X171683226Y-80216102D01*
X171659924Y-80159847D01*
X171743084Y-80185073D01*
X171854737Y-80196070D01*
X171854746Y-80196070D01*
X171892069Y-80199746D01*
X171929392Y-80196070D01*
X175288608Y-80196070D01*
X175325930Y-80199746D01*
X175363252Y-80196070D01*
X175363263Y-80196070D01*
X175474916Y-80185073D01*
X175618177Y-80141616D01*
X175750206Y-80071044D01*
X175801437Y-80029000D01*
X175869939Y-80029000D01*
X176039928Y-79995187D01*
X176039928Y-80215000D01*
%TA.AperFunction,Conductor*%
D32*
G36*
X176039928Y-80215000D02*
G01*
X176052188Y-80339482D01*
X176052345Y-80340000D01*
X176052188Y-80340518D01*
X176039928Y-80465000D01*
X176039928Y-80750226D01*
X176019765Y-80730063D01*
X175850247Y-80616795D01*
X175661889Y-80538774D01*
X175461930Y-80499000D01*
X175258052Y-80499000D01*
X175058093Y-80538774D01*
X174869735Y-80616795D01*
X174758463Y-80691144D01*
X174721765Y-80666623D01*
X174533407Y-80588602D01*
X174333448Y-80548828D01*
X174129570Y-80548828D01*
X173929611Y-80588602D01*
X173741253Y-80666623D01*
X173571735Y-80779891D01*
X173427572Y-80924054D01*
X173314304Y-81093572D01*
X173236283Y-81281930D01*
X173196509Y-81481889D01*
X173196509Y-81561138D01*
X173103000Y-81551928D01*
X172725261Y-81551928D01*
X172662974Y-81435398D01*
X172568001Y-81319673D01*
X172539002Y-81295874D01*
X172429278Y-81186150D01*
X172429278Y-81124013D01*
X172389504Y-80924054D01*
X172311483Y-80735696D01*
X172198215Y-80566178D01*
X172054052Y-80422015D01*
X171884534Y-80308747D01*
X171696176Y-80230726D01*
X171685721Y-80228646D01*
X171683226Y-80216102D01*
X171659924Y-80159847D01*
X171743084Y-80185073D01*
X171854737Y-80196070D01*
X171854746Y-80196070D01*
X171892069Y-80199746D01*
X171929392Y-80196070D01*
X175288608Y-80196070D01*
X175325930Y-80199746D01*
X175363252Y-80196070D01*
X175363263Y-80196070D01*
X175474916Y-80185073D01*
X175618177Y-80141616D01*
X175750206Y-80071044D01*
X175801437Y-80029000D01*
X175869939Y-80029000D01*
X176039928Y-79995187D01*
X176039928Y-80215000D01*
G37*
%TD.AperFunction*%
D31*
X174851112Y-76941226D02*
X174932109Y-76957337D01*
X174919182Y-77022325D01*
X174919182Y-77226203D01*
X174958956Y-77426162D01*
X175036977Y-77614520D01*
X175067701Y-77660502D01*
X175039201Y-77689002D01*
X174921714Y-77689002D01*
X174737989Y-77505277D01*
X174737989Y-76894369D01*
X174851112Y-76941226D01*
%TA.AperFunction,Conductor*%
D32*
G36*
X174851112Y-76941226D02*
G01*
X174932109Y-76957337D01*
X174919182Y-77022325D01*
X174919182Y-77226203D01*
X174958956Y-77426162D01*
X175036977Y-77614520D01*
X175067701Y-77660502D01*
X175039201Y-77689002D01*
X174921714Y-77689002D01*
X174737989Y-77505277D01*
X174737989Y-76894369D01*
X174851112Y-76941226D01*
G37*
%TD.AperFunction*%
D31*
X164537928Y-70028000D02*
X164550188Y-70152482D01*
X164586498Y-70272180D01*
X164645463Y-70382494D01*
X164724815Y-70479185D01*
X164821506Y-70558537D01*
X164931820Y-70617502D01*
X165051518Y-70653812D01*
X165176000Y-70666072D01*
X166476000Y-70666072D01*
X166600482Y-70653812D01*
X166720180Y-70617502D01*
X166830494Y-70558537D01*
X166927185Y-70479185D01*
X167006537Y-70382494D01*
X167054845Y-70292117D01*
X167104149Y-70318471D01*
X167270745Y-70369007D01*
X167443999Y-70386071D01*
X168129000Y-70386071D01*
X168129000Y-70459939D01*
X168168774Y-70659898D01*
X168246795Y-70848256D01*
X168360063Y-71017774D01*
X168504226Y-71161937D01*
X168673744Y-71275205D01*
X168689477Y-71281722D01*
X167854199Y-72117000D01*
X167792061Y-72117000D01*
X167592102Y-72156774D01*
X167403744Y-72234795D01*
X167234226Y-72348063D01*
X167090063Y-72492226D01*
X166976795Y-72661744D01*
X166898774Y-72850102D01*
X166859000Y-73050061D01*
X166859000Y-73253939D01*
X166898774Y-73453898D01*
X166976795Y-73642256D01*
X167084011Y-73802716D01*
X166980226Y-73872063D01*
X166836063Y-74016226D01*
X166722795Y-74185744D01*
X166644774Y-74374102D01*
X166605000Y-74574061D01*
X166605000Y-74777939D01*
X166644774Y-74977898D01*
X166722795Y-75166256D01*
X166836063Y-75335774D01*
X166980226Y-75479937D01*
X167149744Y-75593205D01*
X167338102Y-75671226D01*
X167538061Y-75711000D01*
X167539928Y-75711000D01*
X167539928Y-76077127D01*
X167311802Y-75849001D01*
X167287999Y-75819997D01*
X167172274Y-75725024D01*
X167040245Y-75654452D01*
X166896984Y-75610995D01*
X166785331Y-75599998D01*
X166785320Y-75599998D01*
X166747998Y-75596322D01*
X166710676Y-75599998D01*
X164422903Y-75599998D01*
X164385580Y-75596322D01*
X164348257Y-75599998D01*
X164348247Y-75599998D01*
X164236594Y-75610995D01*
X164093333Y-75654452D01*
X163961304Y-75725024D01*
X163845579Y-75819997D01*
X163821781Y-75848995D01*
X162472960Y-77197817D01*
X162484072Y-77085000D01*
X162484072Y-76785000D01*
X162468929Y-76631255D01*
X162424084Y-76483418D01*
X162351258Y-76347171D01*
X162312546Y-76300000D01*
X162351258Y-76252829D01*
X162424084Y-76116582D01*
X162468929Y-75968745D01*
X162484072Y-75815000D01*
X162484072Y-75515000D01*
X162468929Y-75361255D01*
X162424084Y-75213418D01*
X162351258Y-75077171D01*
X162312546Y-75030000D01*
X162351258Y-74982829D01*
X162424084Y-74846582D01*
X162468929Y-74698745D01*
X162484072Y-74545000D01*
X162484072Y-74245000D01*
X162468929Y-74091255D01*
X162424084Y-73943418D01*
X162351258Y-73807171D01*
X162312546Y-73760000D01*
X162351258Y-73712829D01*
X162424084Y-73576582D01*
X162468929Y-73428745D01*
X162484072Y-73275000D01*
X162484072Y-72975000D01*
X162468929Y-72821255D01*
X162424084Y-72673418D01*
X162351258Y-72537171D01*
X162312546Y-72490000D01*
X162351258Y-72442829D01*
X162424084Y-72306582D01*
X162468929Y-72158745D01*
X162484072Y-72005000D01*
X162484072Y-71849616D01*
X162512102Y-71861226D01*
X162712061Y-71901000D01*
X162915939Y-71901000D01*
X163115898Y-71861226D01*
X163304256Y-71783205D01*
X163473774Y-71669937D01*
X163617937Y-71525774D01*
X163731205Y-71356256D01*
X163809226Y-71167898D01*
X163849000Y-70967939D01*
X163849000Y-70764061D01*
X163809226Y-70564102D01*
X163731205Y-70375744D01*
X163617937Y-70206226D01*
X163473774Y-70062063D01*
X163304256Y-69948795D01*
X163115898Y-69870774D01*
X162915939Y-69831000D01*
X162712061Y-69831000D01*
X162614072Y-69850491D01*
X162614072Y-69170866D01*
X162727899Y-69148225D01*
X162916257Y-69070204D01*
X163085775Y-68956936D01*
X163129712Y-68912999D01*
X164537928Y-68912999D01*
X164537928Y-70028000D01*
%TA.AperFunction,Conductor*%
D32*
G36*
X164537928Y-70028000D02*
G01*
X164550188Y-70152482D01*
X164586498Y-70272180D01*
X164645463Y-70382494D01*
X164724815Y-70479185D01*
X164821506Y-70558537D01*
X164931820Y-70617502D01*
X165051518Y-70653812D01*
X165176000Y-70666072D01*
X166476000Y-70666072D01*
X166600482Y-70653812D01*
X166720180Y-70617502D01*
X166830494Y-70558537D01*
X166927185Y-70479185D01*
X167006537Y-70382494D01*
X167054845Y-70292117D01*
X167104149Y-70318471D01*
X167270745Y-70369007D01*
X167443999Y-70386071D01*
X168129000Y-70386071D01*
X168129000Y-70459939D01*
X168168774Y-70659898D01*
X168246795Y-70848256D01*
X168360063Y-71017774D01*
X168504226Y-71161937D01*
X168673744Y-71275205D01*
X168689477Y-71281722D01*
X167854199Y-72117000D01*
X167792061Y-72117000D01*
X167592102Y-72156774D01*
X167403744Y-72234795D01*
X167234226Y-72348063D01*
X167090063Y-72492226D01*
X166976795Y-72661744D01*
X166898774Y-72850102D01*
X166859000Y-73050061D01*
X166859000Y-73253939D01*
X166898774Y-73453898D01*
X166976795Y-73642256D01*
X167084011Y-73802716D01*
X166980226Y-73872063D01*
X166836063Y-74016226D01*
X166722795Y-74185744D01*
X166644774Y-74374102D01*
X166605000Y-74574061D01*
X166605000Y-74777939D01*
X166644774Y-74977898D01*
X166722795Y-75166256D01*
X166836063Y-75335774D01*
X166980226Y-75479937D01*
X167149744Y-75593205D01*
X167338102Y-75671226D01*
X167538061Y-75711000D01*
X167539928Y-75711000D01*
X167539928Y-76077127D01*
X167311802Y-75849001D01*
X167287999Y-75819997D01*
X167172274Y-75725024D01*
X167040245Y-75654452D01*
X166896984Y-75610995D01*
X166785331Y-75599998D01*
X166785320Y-75599998D01*
X166747998Y-75596322D01*
X166710676Y-75599998D01*
X164422903Y-75599998D01*
X164385580Y-75596322D01*
X164348257Y-75599998D01*
X164348247Y-75599998D01*
X164236594Y-75610995D01*
X164093333Y-75654452D01*
X163961304Y-75725024D01*
X163845579Y-75819997D01*
X163821781Y-75848995D01*
X162472960Y-77197817D01*
X162484072Y-77085000D01*
X162484072Y-76785000D01*
X162468929Y-76631255D01*
X162424084Y-76483418D01*
X162351258Y-76347171D01*
X162312546Y-76300000D01*
X162351258Y-76252829D01*
X162424084Y-76116582D01*
X162468929Y-75968745D01*
X162484072Y-75815000D01*
X162484072Y-75515000D01*
X162468929Y-75361255D01*
X162424084Y-75213418D01*
X162351258Y-75077171D01*
X162312546Y-75030000D01*
X162351258Y-74982829D01*
X162424084Y-74846582D01*
X162468929Y-74698745D01*
X162484072Y-74545000D01*
X162484072Y-74245000D01*
X162468929Y-74091255D01*
X162424084Y-73943418D01*
X162351258Y-73807171D01*
X162312546Y-73760000D01*
X162351258Y-73712829D01*
X162424084Y-73576582D01*
X162468929Y-73428745D01*
X162484072Y-73275000D01*
X162484072Y-72975000D01*
X162468929Y-72821255D01*
X162424084Y-72673418D01*
X162351258Y-72537171D01*
X162312546Y-72490000D01*
X162351258Y-72442829D01*
X162424084Y-72306582D01*
X162468929Y-72158745D01*
X162484072Y-72005000D01*
X162484072Y-71849616D01*
X162512102Y-71861226D01*
X162712061Y-71901000D01*
X162915939Y-71901000D01*
X163115898Y-71861226D01*
X163304256Y-71783205D01*
X163473774Y-71669937D01*
X163617937Y-71525774D01*
X163731205Y-71356256D01*
X163809226Y-71167898D01*
X163849000Y-70967939D01*
X163849000Y-70764061D01*
X163809226Y-70564102D01*
X163731205Y-70375744D01*
X163617937Y-70206226D01*
X163473774Y-70062063D01*
X163304256Y-69948795D01*
X163115898Y-69870774D01*
X162915939Y-69831000D01*
X162712061Y-69831000D01*
X162614072Y-69850491D01*
X162614072Y-69170866D01*
X162727899Y-69148225D01*
X162916257Y-69070204D01*
X163085775Y-68956936D01*
X163129712Y-68912999D01*
X164537928Y-68912999D01*
X164537928Y-70028000D01*
G37*
%TD.AperFunction*%
D31*
X175895000Y-72263000D02*
X175915000Y-72263000D01*
X175915000Y-72517000D01*
X175895000Y-72517000D01*
X175895000Y-72537000D01*
X175641000Y-72537000D01*
X175641000Y-72517000D01*
X175621000Y-72517000D01*
X175621000Y-72263000D01*
X175641000Y-72263000D01*
X175641000Y-72243000D01*
X175895000Y-72243000D01*
X175895000Y-72263000D01*
%TA.AperFunction,Conductor*%
D32*
G36*
X175895000Y-72263000D02*
G01*
X175915000Y-72263000D01*
X175915000Y-72517000D01*
X175895000Y-72517000D01*
X175895000Y-72537000D01*
X175641000Y-72537000D01*
X175641000Y-72517000D01*
X175621000Y-72517000D01*
X175621000Y-72263000D01*
X175641000Y-72263000D01*
X175641000Y-72243000D01*
X175895000Y-72243000D01*
X175895000Y-72263000D01*
G37*
%TD.AperFunction*%
D31*
X172399000Y-72263000D02*
X172419000Y-72263000D01*
X172419000Y-72517000D01*
X172399000Y-72517000D01*
X172399000Y-72537000D01*
X172145000Y-72537000D01*
X172145000Y-72517000D01*
X172125000Y-72517000D01*
X172125000Y-72263000D01*
X172145000Y-72263000D01*
X172145000Y-72243000D01*
X172399000Y-72243000D01*
X172399000Y-72263000D01*
%TA.AperFunction,Conductor*%
D32*
G36*
X172399000Y-72263000D02*
G01*
X172419000Y-72263000D01*
X172419000Y-72517000D01*
X172399000Y-72517000D01*
X172399000Y-72537000D01*
X172145000Y-72537000D01*
X172145000Y-72517000D01*
X172125000Y-72517000D01*
X172125000Y-72263000D01*
X172145000Y-72263000D01*
X172145000Y-72243000D01*
X172399000Y-72243000D01*
X172399000Y-72263000D01*
G37*
%TD.AperFunction*%
D31*
X174816815Y-71213815D02*
X174751342Y-71293594D01*
X174745962Y-71287038D01*
X174611386Y-71176595D01*
X174570981Y-71154998D01*
X174888484Y-71154998D01*
X174816815Y-71213815D01*
%TA.AperFunction,Conductor*%
D32*
G36*
X174816815Y-71213815D02*
G01*
X174751342Y-71293594D01*
X174745962Y-71287038D01*
X174611386Y-71176595D01*
X174570981Y-71154998D01*
X174888484Y-71154998D01*
X174816815Y-71213815D01*
G37*
%TD.AperFunction*%
D31*
X169162992Y-37313746D02*
X169145928Y-37487000D01*
X169145928Y-38312000D01*
X169162992Y-38485254D01*
X169213528Y-38651850D01*
X169295595Y-38805386D01*
X169342057Y-38862000D01*
X169295595Y-38918614D01*
X169213528Y-39072150D01*
X169162992Y-39238746D01*
X169145928Y-39412000D01*
X169145928Y-40237000D01*
X169162992Y-40410254D01*
X169213528Y-40576850D01*
X169295595Y-40730386D01*
X169406038Y-40864962D01*
X169540614Y-40975405D01*
X169694150Y-41057472D01*
X169743001Y-41072291D01*
X169743001Y-41156438D01*
X169459255Y-41011980D01*
X169054449Y-40897956D01*
X168635176Y-40865098D01*
X168217549Y-40914666D01*
X167817617Y-41044757D01*
X167521962Y-41202786D01*
X167365952Y-41518347D01*
X168678000Y-42830395D01*
X168692143Y-42816253D01*
X168871748Y-42995858D01*
X168857605Y-43010000D01*
X168871748Y-43024143D01*
X168692143Y-43203748D01*
X168678000Y-43189605D01*
X167365952Y-44501653D01*
X167521962Y-44817214D01*
X167802424Y-44960000D01*
X167045087Y-44960000D01*
X167033812Y-44845518D01*
X166997502Y-44725820D01*
X166938537Y-44615506D01*
X166859185Y-44518815D01*
X166762494Y-44439463D01*
X166652180Y-44380498D01*
X166532482Y-44344188D01*
X166408000Y-44331928D01*
X164808000Y-44331928D01*
X164683518Y-44344188D01*
X164563820Y-44380498D01*
X164453506Y-44439463D01*
X164356815Y-44518815D01*
X164277463Y-44615506D01*
X164218498Y-44725820D01*
X164200977Y-44783581D01*
X164022759Y-44605363D01*
X163787727Y-44448320D01*
X163526574Y-44340147D01*
X163249335Y-44285000D01*
X162966665Y-44285000D01*
X162689426Y-44340147D01*
X162428273Y-44448320D01*
X162193241Y-44605363D01*
X162108000Y-44690604D01*
X162022759Y-44605363D01*
X161787727Y-44448320D01*
X161526574Y-44340147D01*
X161249335Y-44285000D01*
X160966665Y-44285000D01*
X160689426Y-44340147D01*
X160428273Y-44448320D01*
X160193241Y-44605363D01*
X159993363Y-44805241D01*
X159859308Y-45005869D01*
X159844671Y-44978486D01*
X159600702Y-44906903D01*
X158787605Y-45720000D01*
X158801748Y-45734143D01*
X158622143Y-45913748D01*
X158608000Y-45899605D01*
X157794903Y-46712702D01*
X157866486Y-46956671D01*
X158121996Y-47077571D01*
X158396184Y-47146300D01*
X158597000Y-47156199D01*
X158238998Y-47514201D01*
X158210000Y-47537999D01*
X158186202Y-47566997D01*
X158186201Y-47566998D01*
X158115026Y-47653724D01*
X158044454Y-47785754D01*
X158030180Y-47832812D01*
X158000998Y-47929014D01*
X157990264Y-48038001D01*
X157986324Y-48078000D01*
X157990001Y-48115332D01*
X157990001Y-48287473D01*
X157960149Y-48296528D01*
X157806613Y-48378595D01*
X157672038Y-48489038D01*
X157561595Y-48623613D01*
X157479528Y-48777149D01*
X157428992Y-48943745D01*
X157411928Y-49116999D01*
X157411928Y-49642001D01*
X157428992Y-49815255D01*
X157479528Y-49981851D01*
X157561595Y-50135387D01*
X157672038Y-50269962D01*
X157698891Y-50292000D01*
X157672038Y-50314038D01*
X157561595Y-50448613D01*
X157479528Y-50602149D01*
X157428992Y-50768745D01*
X157411928Y-50941999D01*
X157411928Y-51467001D01*
X157428992Y-51640255D01*
X157479528Y-51806851D01*
X157561595Y-51960387D01*
X157672038Y-52094962D01*
X157806613Y-52205405D01*
X157960149Y-52287472D01*
X158126745Y-52338008D01*
X158299999Y-52355072D01*
X158825770Y-52355072D01*
X159220681Y-52749984D01*
X159244475Y-52778977D01*
X159273468Y-52802771D01*
X159273472Y-52802775D01*
X159309072Y-52831991D01*
X159288676Y-52834000D01*
X159288667Y-52834000D01*
X159177014Y-52844997D01*
X159038129Y-52887127D01*
X159010537Y-52835506D01*
X158931185Y-52738815D01*
X158834494Y-52659463D01*
X158724180Y-52600498D01*
X158604482Y-52564188D01*
X158480000Y-52551928D01*
X156480000Y-52551928D01*
X156355518Y-52564188D01*
X156235820Y-52600498D01*
X156125506Y-52659463D01*
X156028815Y-52738815D01*
X155949463Y-52835506D01*
X155890498Y-52945820D01*
X155854188Y-53065518D01*
X155841928Y-53190000D01*
X155841928Y-57690000D01*
X155854188Y-57814482D01*
X155890498Y-57934180D01*
X155949463Y-58044494D01*
X156028815Y-58141185D01*
X156125506Y-58220537D01*
X156235820Y-58279502D01*
X156355518Y-58315812D01*
X156480000Y-58328072D01*
X158480000Y-58328072D01*
X158604482Y-58315812D01*
X158724180Y-58279502D01*
X158834494Y-58220537D01*
X158931185Y-58141185D01*
X159010537Y-58044494D01*
X159069502Y-57934180D01*
X159105812Y-57814482D01*
X159118072Y-57690000D01*
X159118072Y-55464638D01*
X159211711Y-55527205D01*
X159400069Y-55605226D01*
X159600028Y-55645000D01*
X159803906Y-55645000D01*
X159924553Y-55621002D01*
X159948748Y-55621002D01*
X159790000Y-55779750D01*
X159786928Y-55994000D01*
X159799188Y-56118482D01*
X159835498Y-56238180D01*
X159894463Y-56348494D01*
X159973815Y-56445185D01*
X160070506Y-56524537D01*
X160106103Y-56543565D01*
X160047038Y-56592038D01*
X159936595Y-56726614D01*
X159854528Y-56880150D01*
X159803992Y-57046746D01*
X159786928Y-57220000D01*
X159786928Y-57720000D01*
X159802912Y-57882286D01*
X156969003Y-60716196D01*
X156939999Y-60739999D01*
X156906337Y-60781017D01*
X156845026Y-60855724D01*
X156831272Y-60881456D01*
X156774454Y-60987754D01*
X156754987Y-61051928D01*
X156480000Y-61051928D01*
X156355518Y-61064188D01*
X156235820Y-61100498D01*
X156125506Y-61159463D01*
X156028815Y-61238815D01*
X155949463Y-61335506D01*
X155890498Y-61445820D01*
X155854188Y-61565518D01*
X155841928Y-61690000D01*
X155841928Y-66190000D01*
X155854188Y-66314482D01*
X155890498Y-66434180D01*
X155949463Y-66544494D01*
X156028815Y-66641185D01*
X156125506Y-66720537D01*
X156235820Y-66779502D01*
X156355518Y-66815812D01*
X156480000Y-66828072D01*
X158480000Y-66828072D01*
X158604482Y-66815812D01*
X158724180Y-66779502D01*
X158834494Y-66720537D01*
X158931185Y-66641185D01*
X159010537Y-66544494D01*
X159069502Y-66434180D01*
X159105812Y-66314482D01*
X159118072Y-66190000D01*
X159118072Y-61690000D01*
X159105812Y-61565518D01*
X159069502Y-61445820D01*
X159010537Y-61335506D01*
X158931185Y-61238815D01*
X158834494Y-61159463D01*
X158730777Y-61104024D01*
X159808761Y-60026040D01*
X159835498Y-60114180D01*
X159894463Y-60224494D01*
X159973815Y-60321185D01*
X160054962Y-60387780D01*
X160050188Y-60403518D01*
X160037928Y-60528000D01*
X160037928Y-62078000D01*
X160050188Y-62202482D01*
X160086498Y-62322180D01*
X160145463Y-62432494D01*
X160224815Y-62529185D01*
X160321506Y-62608537D01*
X160431820Y-62667502D01*
X160551518Y-62703812D01*
X160676000Y-62716072D01*
X161641062Y-62716072D01*
X161642795Y-62720256D01*
X161756063Y-62889774D01*
X161900226Y-63033937D01*
X162069744Y-63147205D01*
X162258102Y-63225226D01*
X162458061Y-63265000D01*
X162661939Y-63265000D01*
X162861898Y-63225226D01*
X163050256Y-63147205D01*
X163219774Y-63033937D01*
X163363937Y-62889774D01*
X163477205Y-62720256D01*
X163555226Y-62531898D01*
X163595000Y-62331939D01*
X163595000Y-62128061D01*
X163555226Y-61928102D01*
X163477205Y-61739744D01*
X163363937Y-61570226D01*
X163219774Y-61426063D01*
X163050256Y-61312795D01*
X162861898Y-61234774D01*
X162661939Y-61195000D01*
X162614072Y-61195000D01*
X162614072Y-60528000D01*
X162611993Y-60506890D01*
X162882250Y-60505000D01*
X163041000Y-60346250D01*
X163041000Y-59497000D01*
X161277000Y-59497000D01*
X161277000Y-59517000D01*
X161023000Y-59517000D01*
X161023000Y-59497000D01*
X161003000Y-59497000D01*
X161003000Y-59243000D01*
X161023000Y-59243000D01*
X161023000Y-59223000D01*
X161277000Y-59223000D01*
X161277000Y-59243000D01*
X163041000Y-59243000D01*
X163041000Y-59223000D01*
X163295000Y-59223000D01*
X163295000Y-59243000D01*
X163315000Y-59243000D01*
X163315000Y-59497000D01*
X163295000Y-59497000D01*
X163295000Y-60346250D01*
X163453750Y-60505000D01*
X163893000Y-60508072D01*
X164017482Y-60495812D01*
X164137180Y-60459502D01*
X164247494Y-60400537D01*
X164344185Y-60321185D01*
X164423537Y-60224494D01*
X164437552Y-60198274D01*
X164534828Y-60343858D01*
X164560499Y-60369529D01*
X164550188Y-60403518D01*
X164537928Y-60528000D01*
X164537928Y-62078000D01*
X164550188Y-62202482D01*
X164586498Y-62322180D01*
X164645463Y-62432494D01*
X164724815Y-62529185D01*
X164821506Y-62608537D01*
X164931820Y-62667502D01*
X165051518Y-62703812D01*
X165176000Y-62716072D01*
X166476000Y-62716072D01*
X166600482Y-62703812D01*
X166685619Y-62677986D01*
X166623528Y-62794149D01*
X166572992Y-62960745D01*
X166555928Y-63133999D01*
X166555928Y-63659001D01*
X166572992Y-63832255D01*
X166623528Y-63998851D01*
X166705595Y-64152387D01*
X166816038Y-64286962D01*
X166950613Y-64397405D01*
X167104149Y-64479472D01*
X167270745Y-64530008D01*
X167443999Y-64547072D01*
X168344001Y-64547072D01*
X168517255Y-64530008D01*
X168683851Y-64479472D01*
X168837387Y-64397405D01*
X168971962Y-64286962D01*
X169082405Y-64152387D01*
X169164472Y-63998851D01*
X169215008Y-63832255D01*
X169232072Y-63659001D01*
X169232072Y-63360129D01*
X169247723Y-63372974D01*
X169379753Y-63443546D01*
X169523014Y-63487003D01*
X169634667Y-63498000D01*
X169634676Y-63498000D01*
X169671999Y-63501676D01*
X169699759Y-63498942D01*
X169708528Y-63527851D01*
X169790595Y-63681387D01*
X169850187Y-63754000D01*
X169790595Y-63826613D01*
X169708528Y-63980149D01*
X169657992Y-64146745D01*
X169640928Y-64319999D01*
X169640928Y-65220001D01*
X169657992Y-65393255D01*
X169708528Y-65559851D01*
X169790595Y-65713387D01*
X169901038Y-65847962D01*
X170035613Y-65958405D01*
X170189149Y-66040472D01*
X170216771Y-66048851D01*
X170251500Y-66091168D01*
X170280498Y-66114966D01*
X170382981Y-66217450D01*
X170304416Y-66217999D01*
X170145666Y-66376749D01*
X170145666Y-67225999D01*
X170165666Y-67225999D01*
X170165666Y-67479999D01*
X170145666Y-67479999D01*
X170145666Y-67499999D01*
X169891666Y-67499999D01*
X169891666Y-67479999D01*
X168817416Y-67479999D01*
X168759916Y-67537499D01*
X168021000Y-67537499D01*
X168021000Y-67557499D01*
X167767000Y-67557499D01*
X167767000Y-67537499D01*
X167747000Y-67537499D01*
X167747000Y-67283499D01*
X167767000Y-67283499D01*
X167767000Y-66421749D01*
X168021000Y-66421749D01*
X168021000Y-67283499D01*
X169070250Y-67283499D01*
X169127750Y-67225999D01*
X169891666Y-67225999D01*
X169891666Y-66376749D01*
X169732916Y-66217999D01*
X169293666Y-66214927D01*
X169169184Y-66227187D01*
X169049486Y-66263497D01*
X168939172Y-66322462D01*
X168909643Y-66346696D01*
X168838180Y-66308497D01*
X168718482Y-66272187D01*
X168594000Y-66259927D01*
X168179750Y-66262999D01*
X168021000Y-66421749D01*
X167767000Y-66421749D01*
X167608250Y-66262999D01*
X167194000Y-66259927D01*
X167069518Y-66272187D01*
X166949820Y-66308497D01*
X166839506Y-66367462D01*
X166742815Y-66446814D01*
X166663463Y-66543505D01*
X166604498Y-66653819D01*
X166568188Y-66773517D01*
X166555928Y-66897999D01*
X166559000Y-67124749D01*
X166717748Y-67283497D01*
X166559000Y-67283497D01*
X166559000Y-67392999D01*
X163129712Y-67392999D01*
X163085775Y-67349062D01*
X162916257Y-67235794D01*
X162727899Y-67157773D01*
X162527940Y-67117999D01*
X162324062Y-67117999D01*
X162124103Y-67157773D01*
X161935745Y-67235794D01*
X161766227Y-67349062D01*
X161622064Y-67493225D01*
X161508796Y-67662743D01*
X161435403Y-67839928D01*
X160676000Y-67839928D01*
X160551518Y-67852188D01*
X160431820Y-67888498D01*
X160321506Y-67947463D01*
X160224815Y-68026815D01*
X160145463Y-68123506D01*
X160086498Y-68233820D01*
X160050188Y-68353518D01*
X160037928Y-68478000D01*
X160037928Y-70028000D01*
X160045610Y-70106000D01*
X157065072Y-70106000D01*
X157065072Y-69854000D01*
X157048008Y-69680746D01*
X156997472Y-69514150D01*
X156915405Y-69360614D01*
X156804962Y-69226038D01*
X156798406Y-69220658D01*
X156878185Y-69155185D01*
X156957537Y-69058494D01*
X157016502Y-68948180D01*
X157052812Y-68828482D01*
X157065072Y-68704000D01*
X157062000Y-68489750D01*
X156903250Y-68331000D01*
X155829000Y-68331000D01*
X155829000Y-68351000D01*
X155575000Y-68351000D01*
X155575000Y-68331000D01*
X155555000Y-68331000D01*
X155555000Y-68077000D01*
X155575000Y-68077000D01*
X155575000Y-67227750D01*
X155829000Y-67227750D01*
X155829000Y-68077000D01*
X156903250Y-68077000D01*
X157062000Y-67918250D01*
X157065072Y-67704000D01*
X157052812Y-67579518D01*
X157016502Y-67459820D01*
X156957537Y-67349506D01*
X156878185Y-67252815D01*
X156781494Y-67173463D01*
X156671180Y-67114498D01*
X156551482Y-67078188D01*
X156427000Y-67065928D01*
X155987750Y-67069000D01*
X155829000Y-67227750D01*
X155575000Y-67227750D01*
X155416250Y-67069000D01*
X154977000Y-67065928D01*
X154852518Y-67078188D01*
X154732820Y-67114498D01*
X154622506Y-67173463D01*
X154584000Y-67205064D01*
X154584000Y-45790512D01*
X157167783Y-45790512D01*
X157209213Y-46070130D01*
X157304397Y-46336292D01*
X157371329Y-46461514D01*
X157615298Y-46533097D01*
X158428395Y-45720000D01*
X157615298Y-44906903D01*
X157371329Y-44978486D01*
X157250429Y-45233996D01*
X157181700Y-45508184D01*
X157167783Y-45790512D01*
X154584000Y-45790512D01*
X154584000Y-44920074D01*
X154756745Y-45008020D01*
X155161551Y-45122044D01*
X155580824Y-45154902D01*
X155998451Y-45105334D01*
X156398383Y-44975243D01*
X156694038Y-44817214D01*
X156738491Y-44727298D01*
X157794903Y-44727298D01*
X158608000Y-45540395D01*
X159421097Y-44727298D01*
X159349514Y-44483329D01*
X159094004Y-44362429D01*
X158819816Y-44293700D01*
X158537488Y-44279783D01*
X158257870Y-44321213D01*
X157991708Y-44416397D01*
X157866486Y-44483329D01*
X157794903Y-44727298D01*
X156738491Y-44727298D01*
X156850048Y-44501653D01*
X155538000Y-43189605D01*
X155523858Y-43203748D01*
X155344253Y-43024143D01*
X155358395Y-43010000D01*
X155717605Y-43010000D01*
X157029653Y-44322048D01*
X157345214Y-44166038D01*
X157536020Y-43791255D01*
X157650044Y-43386449D01*
X157676189Y-43052824D01*
X166533098Y-43052824D01*
X166582666Y-43470451D01*
X166712757Y-43870383D01*
X166870786Y-44166038D01*
X167186347Y-44322048D01*
X168498395Y-43010000D01*
X167186347Y-41697952D01*
X166870786Y-41853962D01*
X166679980Y-42228745D01*
X166565956Y-42633551D01*
X166533098Y-43052824D01*
X157676189Y-43052824D01*
X157682902Y-42967176D01*
X157633334Y-42549549D01*
X157503243Y-42149617D01*
X157345214Y-41853962D01*
X157029653Y-41697952D01*
X155717605Y-43010000D01*
X155358395Y-43010000D01*
X155344253Y-42995858D01*
X155523858Y-42816253D01*
X155538000Y-42830395D01*
X156850048Y-41518347D01*
X156694038Y-41202786D01*
X156319255Y-41011980D01*
X155914449Y-40897956D01*
X155495176Y-40865098D01*
X155077549Y-40914666D01*
X154677617Y-41044757D01*
X154584000Y-41094796D01*
X154584000Y-37236000D01*
X169186576Y-37236000D01*
X169162992Y-37313746D01*
%TA.AperFunction,Conductor*%
D32*
G36*
X169162992Y-37313746D02*
G01*
X169145928Y-37487000D01*
X169145928Y-38312000D01*
X169162992Y-38485254D01*
X169213528Y-38651850D01*
X169295595Y-38805386D01*
X169342057Y-38862000D01*
X169295595Y-38918614D01*
X169213528Y-39072150D01*
X169162992Y-39238746D01*
X169145928Y-39412000D01*
X169145928Y-40237000D01*
X169162992Y-40410254D01*
X169213528Y-40576850D01*
X169295595Y-40730386D01*
X169406038Y-40864962D01*
X169540614Y-40975405D01*
X169694150Y-41057472D01*
X169743001Y-41072291D01*
X169743001Y-41156438D01*
X169459255Y-41011980D01*
X169054449Y-40897956D01*
X168635176Y-40865098D01*
X168217549Y-40914666D01*
X167817617Y-41044757D01*
X167521962Y-41202786D01*
X167365952Y-41518347D01*
X168678000Y-42830395D01*
X168692143Y-42816253D01*
X168871748Y-42995858D01*
X168857605Y-43010000D01*
X168871748Y-43024143D01*
X168692143Y-43203748D01*
X168678000Y-43189605D01*
X167365952Y-44501653D01*
X167521962Y-44817214D01*
X167802424Y-44960000D01*
X167045087Y-44960000D01*
X167033812Y-44845518D01*
X166997502Y-44725820D01*
X166938537Y-44615506D01*
X166859185Y-44518815D01*
X166762494Y-44439463D01*
X166652180Y-44380498D01*
X166532482Y-44344188D01*
X166408000Y-44331928D01*
X164808000Y-44331928D01*
X164683518Y-44344188D01*
X164563820Y-44380498D01*
X164453506Y-44439463D01*
X164356815Y-44518815D01*
X164277463Y-44615506D01*
X164218498Y-44725820D01*
X164200977Y-44783581D01*
X164022759Y-44605363D01*
X163787727Y-44448320D01*
X163526574Y-44340147D01*
X163249335Y-44285000D01*
X162966665Y-44285000D01*
X162689426Y-44340147D01*
X162428273Y-44448320D01*
X162193241Y-44605363D01*
X162108000Y-44690604D01*
X162022759Y-44605363D01*
X161787727Y-44448320D01*
X161526574Y-44340147D01*
X161249335Y-44285000D01*
X160966665Y-44285000D01*
X160689426Y-44340147D01*
X160428273Y-44448320D01*
X160193241Y-44605363D01*
X159993363Y-44805241D01*
X159859308Y-45005869D01*
X159844671Y-44978486D01*
X159600702Y-44906903D01*
X158787605Y-45720000D01*
X158801748Y-45734143D01*
X158622143Y-45913748D01*
X158608000Y-45899605D01*
X157794903Y-46712702D01*
X157866486Y-46956671D01*
X158121996Y-47077571D01*
X158396184Y-47146300D01*
X158597000Y-47156199D01*
X158238998Y-47514201D01*
X158210000Y-47537999D01*
X158186202Y-47566997D01*
X158186201Y-47566998D01*
X158115026Y-47653724D01*
X158044454Y-47785754D01*
X158030180Y-47832812D01*
X158000998Y-47929014D01*
X157990264Y-48038001D01*
X157986324Y-48078000D01*
X157990001Y-48115332D01*
X157990001Y-48287473D01*
X157960149Y-48296528D01*
X157806613Y-48378595D01*
X157672038Y-48489038D01*
X157561595Y-48623613D01*
X157479528Y-48777149D01*
X157428992Y-48943745D01*
X157411928Y-49116999D01*
X157411928Y-49642001D01*
X157428992Y-49815255D01*
X157479528Y-49981851D01*
X157561595Y-50135387D01*
X157672038Y-50269962D01*
X157698891Y-50292000D01*
X157672038Y-50314038D01*
X157561595Y-50448613D01*
X157479528Y-50602149D01*
X157428992Y-50768745D01*
X157411928Y-50941999D01*
X157411928Y-51467001D01*
X157428992Y-51640255D01*
X157479528Y-51806851D01*
X157561595Y-51960387D01*
X157672038Y-52094962D01*
X157806613Y-52205405D01*
X157960149Y-52287472D01*
X158126745Y-52338008D01*
X158299999Y-52355072D01*
X158825770Y-52355072D01*
X159220681Y-52749984D01*
X159244475Y-52778977D01*
X159273468Y-52802771D01*
X159273472Y-52802775D01*
X159309072Y-52831991D01*
X159288676Y-52834000D01*
X159288667Y-52834000D01*
X159177014Y-52844997D01*
X159038129Y-52887127D01*
X159010537Y-52835506D01*
X158931185Y-52738815D01*
X158834494Y-52659463D01*
X158724180Y-52600498D01*
X158604482Y-52564188D01*
X158480000Y-52551928D01*
X156480000Y-52551928D01*
X156355518Y-52564188D01*
X156235820Y-52600498D01*
X156125506Y-52659463D01*
X156028815Y-52738815D01*
X155949463Y-52835506D01*
X155890498Y-52945820D01*
X155854188Y-53065518D01*
X155841928Y-53190000D01*
X155841928Y-57690000D01*
X155854188Y-57814482D01*
X155890498Y-57934180D01*
X155949463Y-58044494D01*
X156028815Y-58141185D01*
X156125506Y-58220537D01*
X156235820Y-58279502D01*
X156355518Y-58315812D01*
X156480000Y-58328072D01*
X158480000Y-58328072D01*
X158604482Y-58315812D01*
X158724180Y-58279502D01*
X158834494Y-58220537D01*
X158931185Y-58141185D01*
X159010537Y-58044494D01*
X159069502Y-57934180D01*
X159105812Y-57814482D01*
X159118072Y-57690000D01*
X159118072Y-55464638D01*
X159211711Y-55527205D01*
X159400069Y-55605226D01*
X159600028Y-55645000D01*
X159803906Y-55645000D01*
X159924553Y-55621002D01*
X159948748Y-55621002D01*
X159790000Y-55779750D01*
X159786928Y-55994000D01*
X159799188Y-56118482D01*
X159835498Y-56238180D01*
X159894463Y-56348494D01*
X159973815Y-56445185D01*
X160070506Y-56524537D01*
X160106103Y-56543565D01*
X160047038Y-56592038D01*
X159936595Y-56726614D01*
X159854528Y-56880150D01*
X159803992Y-57046746D01*
X159786928Y-57220000D01*
X159786928Y-57720000D01*
X159802912Y-57882286D01*
X156969003Y-60716196D01*
X156939999Y-60739999D01*
X156906337Y-60781017D01*
X156845026Y-60855724D01*
X156831272Y-60881456D01*
X156774454Y-60987754D01*
X156754987Y-61051928D01*
X156480000Y-61051928D01*
X156355518Y-61064188D01*
X156235820Y-61100498D01*
X156125506Y-61159463D01*
X156028815Y-61238815D01*
X155949463Y-61335506D01*
X155890498Y-61445820D01*
X155854188Y-61565518D01*
X155841928Y-61690000D01*
X155841928Y-66190000D01*
X155854188Y-66314482D01*
X155890498Y-66434180D01*
X155949463Y-66544494D01*
X156028815Y-66641185D01*
X156125506Y-66720537D01*
X156235820Y-66779502D01*
X156355518Y-66815812D01*
X156480000Y-66828072D01*
X158480000Y-66828072D01*
X158604482Y-66815812D01*
X158724180Y-66779502D01*
X158834494Y-66720537D01*
X158931185Y-66641185D01*
X159010537Y-66544494D01*
X159069502Y-66434180D01*
X159105812Y-66314482D01*
X159118072Y-66190000D01*
X159118072Y-61690000D01*
X159105812Y-61565518D01*
X159069502Y-61445820D01*
X159010537Y-61335506D01*
X158931185Y-61238815D01*
X158834494Y-61159463D01*
X158730777Y-61104024D01*
X159808761Y-60026040D01*
X159835498Y-60114180D01*
X159894463Y-60224494D01*
X159973815Y-60321185D01*
X160054962Y-60387780D01*
X160050188Y-60403518D01*
X160037928Y-60528000D01*
X160037928Y-62078000D01*
X160050188Y-62202482D01*
X160086498Y-62322180D01*
X160145463Y-62432494D01*
X160224815Y-62529185D01*
X160321506Y-62608537D01*
X160431820Y-62667502D01*
X160551518Y-62703812D01*
X160676000Y-62716072D01*
X161641062Y-62716072D01*
X161642795Y-62720256D01*
X161756063Y-62889774D01*
X161900226Y-63033937D01*
X162069744Y-63147205D01*
X162258102Y-63225226D01*
X162458061Y-63265000D01*
X162661939Y-63265000D01*
X162861898Y-63225226D01*
X163050256Y-63147205D01*
X163219774Y-63033937D01*
X163363937Y-62889774D01*
X163477205Y-62720256D01*
X163555226Y-62531898D01*
X163595000Y-62331939D01*
X163595000Y-62128061D01*
X163555226Y-61928102D01*
X163477205Y-61739744D01*
X163363937Y-61570226D01*
X163219774Y-61426063D01*
X163050256Y-61312795D01*
X162861898Y-61234774D01*
X162661939Y-61195000D01*
X162614072Y-61195000D01*
X162614072Y-60528000D01*
X162611993Y-60506890D01*
X162882250Y-60505000D01*
X163041000Y-60346250D01*
X163041000Y-59497000D01*
X161277000Y-59497000D01*
X161277000Y-59517000D01*
X161023000Y-59517000D01*
X161023000Y-59497000D01*
X161003000Y-59497000D01*
X161003000Y-59243000D01*
X161023000Y-59243000D01*
X161023000Y-59223000D01*
X161277000Y-59223000D01*
X161277000Y-59243000D01*
X163041000Y-59243000D01*
X163041000Y-59223000D01*
X163295000Y-59223000D01*
X163295000Y-59243000D01*
X163315000Y-59243000D01*
X163315000Y-59497000D01*
X163295000Y-59497000D01*
X163295000Y-60346250D01*
X163453750Y-60505000D01*
X163893000Y-60508072D01*
X164017482Y-60495812D01*
X164137180Y-60459502D01*
X164247494Y-60400537D01*
X164344185Y-60321185D01*
X164423537Y-60224494D01*
X164437552Y-60198274D01*
X164534828Y-60343858D01*
X164560499Y-60369529D01*
X164550188Y-60403518D01*
X164537928Y-60528000D01*
X164537928Y-62078000D01*
X164550188Y-62202482D01*
X164586498Y-62322180D01*
X164645463Y-62432494D01*
X164724815Y-62529185D01*
X164821506Y-62608537D01*
X164931820Y-62667502D01*
X165051518Y-62703812D01*
X165176000Y-62716072D01*
X166476000Y-62716072D01*
X166600482Y-62703812D01*
X166685619Y-62677986D01*
X166623528Y-62794149D01*
X166572992Y-62960745D01*
X166555928Y-63133999D01*
X166555928Y-63659001D01*
X166572992Y-63832255D01*
X166623528Y-63998851D01*
X166705595Y-64152387D01*
X166816038Y-64286962D01*
X166950613Y-64397405D01*
X167104149Y-64479472D01*
X167270745Y-64530008D01*
X167443999Y-64547072D01*
X168344001Y-64547072D01*
X168517255Y-64530008D01*
X168683851Y-64479472D01*
X168837387Y-64397405D01*
X168971962Y-64286962D01*
X169082405Y-64152387D01*
X169164472Y-63998851D01*
X169215008Y-63832255D01*
X169232072Y-63659001D01*
X169232072Y-63360129D01*
X169247723Y-63372974D01*
X169379753Y-63443546D01*
X169523014Y-63487003D01*
X169634667Y-63498000D01*
X169634676Y-63498000D01*
X169671999Y-63501676D01*
X169699759Y-63498942D01*
X169708528Y-63527851D01*
X169790595Y-63681387D01*
X169850187Y-63754000D01*
X169790595Y-63826613D01*
X169708528Y-63980149D01*
X169657992Y-64146745D01*
X169640928Y-64319999D01*
X169640928Y-65220001D01*
X169657992Y-65393255D01*
X169708528Y-65559851D01*
X169790595Y-65713387D01*
X169901038Y-65847962D01*
X170035613Y-65958405D01*
X170189149Y-66040472D01*
X170216771Y-66048851D01*
X170251500Y-66091168D01*
X170280498Y-66114966D01*
X170382981Y-66217450D01*
X170304416Y-66217999D01*
X170145666Y-66376749D01*
X170145666Y-67225999D01*
X170165666Y-67225999D01*
X170165666Y-67479999D01*
X170145666Y-67479999D01*
X170145666Y-67499999D01*
X169891666Y-67499999D01*
X169891666Y-67479999D01*
X168817416Y-67479999D01*
X168759916Y-67537499D01*
X168021000Y-67537499D01*
X168021000Y-67557499D01*
X167767000Y-67557499D01*
X167767000Y-67537499D01*
X167747000Y-67537499D01*
X167747000Y-67283499D01*
X167767000Y-67283499D01*
X167767000Y-66421749D01*
X168021000Y-66421749D01*
X168021000Y-67283499D01*
X169070250Y-67283499D01*
X169127750Y-67225999D01*
X169891666Y-67225999D01*
X169891666Y-66376749D01*
X169732916Y-66217999D01*
X169293666Y-66214927D01*
X169169184Y-66227187D01*
X169049486Y-66263497D01*
X168939172Y-66322462D01*
X168909643Y-66346696D01*
X168838180Y-66308497D01*
X168718482Y-66272187D01*
X168594000Y-66259927D01*
X168179750Y-66262999D01*
X168021000Y-66421749D01*
X167767000Y-66421749D01*
X167608250Y-66262999D01*
X167194000Y-66259927D01*
X167069518Y-66272187D01*
X166949820Y-66308497D01*
X166839506Y-66367462D01*
X166742815Y-66446814D01*
X166663463Y-66543505D01*
X166604498Y-66653819D01*
X166568188Y-66773517D01*
X166555928Y-66897999D01*
X166559000Y-67124749D01*
X166717748Y-67283497D01*
X166559000Y-67283497D01*
X166559000Y-67392999D01*
X163129712Y-67392999D01*
X163085775Y-67349062D01*
X162916257Y-67235794D01*
X162727899Y-67157773D01*
X162527940Y-67117999D01*
X162324062Y-67117999D01*
X162124103Y-67157773D01*
X161935745Y-67235794D01*
X161766227Y-67349062D01*
X161622064Y-67493225D01*
X161508796Y-67662743D01*
X161435403Y-67839928D01*
X160676000Y-67839928D01*
X160551518Y-67852188D01*
X160431820Y-67888498D01*
X160321506Y-67947463D01*
X160224815Y-68026815D01*
X160145463Y-68123506D01*
X160086498Y-68233820D01*
X160050188Y-68353518D01*
X160037928Y-68478000D01*
X160037928Y-70028000D01*
X160045610Y-70106000D01*
X157065072Y-70106000D01*
X157065072Y-69854000D01*
X157048008Y-69680746D01*
X156997472Y-69514150D01*
X156915405Y-69360614D01*
X156804962Y-69226038D01*
X156798406Y-69220658D01*
X156878185Y-69155185D01*
X156957537Y-69058494D01*
X157016502Y-68948180D01*
X157052812Y-68828482D01*
X157065072Y-68704000D01*
X157062000Y-68489750D01*
X156903250Y-68331000D01*
X155829000Y-68331000D01*
X155829000Y-68351000D01*
X155575000Y-68351000D01*
X155575000Y-68331000D01*
X155555000Y-68331000D01*
X155555000Y-68077000D01*
X155575000Y-68077000D01*
X155575000Y-67227750D01*
X155829000Y-67227750D01*
X155829000Y-68077000D01*
X156903250Y-68077000D01*
X157062000Y-67918250D01*
X157065072Y-67704000D01*
X157052812Y-67579518D01*
X157016502Y-67459820D01*
X156957537Y-67349506D01*
X156878185Y-67252815D01*
X156781494Y-67173463D01*
X156671180Y-67114498D01*
X156551482Y-67078188D01*
X156427000Y-67065928D01*
X155987750Y-67069000D01*
X155829000Y-67227750D01*
X155575000Y-67227750D01*
X155416250Y-67069000D01*
X154977000Y-67065928D01*
X154852518Y-67078188D01*
X154732820Y-67114498D01*
X154622506Y-67173463D01*
X154584000Y-67205064D01*
X154584000Y-45790512D01*
X157167783Y-45790512D01*
X157209213Y-46070130D01*
X157304397Y-46336292D01*
X157371329Y-46461514D01*
X157615298Y-46533097D01*
X158428395Y-45720000D01*
X157615298Y-44906903D01*
X157371329Y-44978486D01*
X157250429Y-45233996D01*
X157181700Y-45508184D01*
X157167783Y-45790512D01*
X154584000Y-45790512D01*
X154584000Y-44920074D01*
X154756745Y-45008020D01*
X155161551Y-45122044D01*
X155580824Y-45154902D01*
X155998451Y-45105334D01*
X156398383Y-44975243D01*
X156694038Y-44817214D01*
X156738491Y-44727298D01*
X157794903Y-44727298D01*
X158608000Y-45540395D01*
X159421097Y-44727298D01*
X159349514Y-44483329D01*
X159094004Y-44362429D01*
X158819816Y-44293700D01*
X158537488Y-44279783D01*
X158257870Y-44321213D01*
X157991708Y-44416397D01*
X157866486Y-44483329D01*
X157794903Y-44727298D01*
X156738491Y-44727298D01*
X156850048Y-44501653D01*
X155538000Y-43189605D01*
X155523858Y-43203748D01*
X155344253Y-43024143D01*
X155358395Y-43010000D01*
X155717605Y-43010000D01*
X157029653Y-44322048D01*
X157345214Y-44166038D01*
X157536020Y-43791255D01*
X157650044Y-43386449D01*
X157676189Y-43052824D01*
X166533098Y-43052824D01*
X166582666Y-43470451D01*
X166712757Y-43870383D01*
X166870786Y-44166038D01*
X167186347Y-44322048D01*
X168498395Y-43010000D01*
X167186347Y-41697952D01*
X166870786Y-41853962D01*
X166679980Y-42228745D01*
X166565956Y-42633551D01*
X166533098Y-43052824D01*
X157676189Y-43052824D01*
X157682902Y-42967176D01*
X157633334Y-42549549D01*
X157503243Y-42149617D01*
X157345214Y-41853962D01*
X157029653Y-41697952D01*
X155717605Y-43010000D01*
X155358395Y-43010000D01*
X155344253Y-42995858D01*
X155523858Y-42816253D01*
X155538000Y-42830395D01*
X156850048Y-41518347D01*
X156694038Y-41202786D01*
X156319255Y-41011980D01*
X155914449Y-40897956D01*
X155495176Y-40865098D01*
X155077549Y-40914666D01*
X154677617Y-41044757D01*
X154584000Y-41094796D01*
X154584000Y-37236000D01*
X169186576Y-37236000D01*
X169162992Y-37313746D01*
G37*
%TD.AperFunction*%
D31*
X172170332Y-68875999D02*
X172190332Y-68875999D01*
X172190332Y-69129999D01*
X172170332Y-69129999D01*
X172170332Y-69149999D01*
X171916332Y-69149999D01*
X171916332Y-69129999D01*
X171896332Y-69129999D01*
X171896332Y-68875999D01*
X171916332Y-68875999D01*
X171916332Y-68855999D01*
X172170332Y-68855999D01*
X172170332Y-68875999D01*
%TA.AperFunction,Conductor*%
D32*
G36*
X172170332Y-68875999D02*
G01*
X172190332Y-68875999D01*
X172190332Y-69129999D01*
X172170332Y-69129999D01*
X172170332Y-69149999D01*
X171916332Y-69149999D01*
X171916332Y-69129999D01*
X171896332Y-69129999D01*
X171896332Y-68875999D01*
X171916332Y-68875999D01*
X171916332Y-68855999D01*
X172170332Y-68855999D01*
X172170332Y-68875999D01*
G37*
%TD.AperFunction*%
D31*
X177266528Y-66786150D02*
X177215992Y-66952746D01*
X177198928Y-67126000D01*
X177198928Y-67626000D01*
X177215992Y-67799254D01*
X177266528Y-67965850D01*
X177348595Y-68119386D01*
X177459038Y-68253962D01*
X177546817Y-68326000D01*
X177460588Y-68396766D01*
X177339898Y-68346774D01*
X177139939Y-68307000D01*
X176940754Y-68307000D01*
X176944185Y-68304184D01*
X177023537Y-68207493D01*
X177082502Y-68097179D01*
X177118812Y-67977481D01*
X177131072Y-67852999D01*
X177128000Y-67638749D01*
X176969250Y-67479999D01*
X175895000Y-67479999D01*
X175895000Y-67499999D01*
X175641000Y-67499999D01*
X175641000Y-67479999D01*
X175621000Y-67479999D01*
X175621000Y-67225999D01*
X175641000Y-67225999D01*
X175641000Y-67205999D01*
X175895000Y-67205999D01*
X175895000Y-67225999D01*
X176969250Y-67225999D01*
X177128000Y-67067249D01*
X177131072Y-66852999D01*
X177118812Y-66728517D01*
X177111421Y-66704151D01*
X177163563Y-66676280D01*
X177241276Y-66676280D01*
X177335246Y-66657588D01*
X177266528Y-66786150D01*
%TA.AperFunction,Conductor*%
D32*
G36*
X177266528Y-66786150D02*
G01*
X177215992Y-66952746D01*
X177198928Y-67126000D01*
X177198928Y-67626000D01*
X177215992Y-67799254D01*
X177266528Y-67965850D01*
X177348595Y-68119386D01*
X177459038Y-68253962D01*
X177546817Y-68326000D01*
X177460588Y-68396766D01*
X177339898Y-68346774D01*
X177139939Y-68307000D01*
X176940754Y-68307000D01*
X176944185Y-68304184D01*
X177023537Y-68207493D01*
X177082502Y-68097179D01*
X177118812Y-67977481D01*
X177131072Y-67852999D01*
X177128000Y-67638749D01*
X176969250Y-67479999D01*
X175895000Y-67479999D01*
X175895000Y-67499999D01*
X175641000Y-67499999D01*
X175641000Y-67479999D01*
X175621000Y-67479999D01*
X175621000Y-67225999D01*
X175641000Y-67225999D01*
X175641000Y-67205999D01*
X175895000Y-67205999D01*
X175895000Y-67225999D01*
X176969250Y-67225999D01*
X177128000Y-67067249D01*
X177131072Y-66852999D01*
X177118812Y-66728517D01*
X177111421Y-66704151D01*
X177163563Y-66676280D01*
X177241276Y-66676280D01*
X177335246Y-66657588D01*
X177266528Y-66786150D01*
G37*
%TD.AperFunction*%
D31*
X173870332Y-66675999D02*
X173890332Y-66675999D01*
X173890332Y-66929999D01*
X173870332Y-66929999D01*
X173870332Y-66949999D01*
X173616332Y-66949999D01*
X173616332Y-66929999D01*
X173596332Y-66929999D01*
X173596332Y-66675999D01*
X173616332Y-66675999D01*
X173616332Y-66655999D01*
X173870332Y-66655999D01*
X173870332Y-66675999D01*
%TA.AperFunction,Conductor*%
D32*
G36*
X173870332Y-66675999D02*
G01*
X173890332Y-66675999D01*
X173890332Y-66929999D01*
X173870332Y-66929999D01*
X173870332Y-66949999D01*
X173616332Y-66949999D01*
X173616332Y-66929999D01*
X173596332Y-66929999D01*
X173596332Y-66675999D01*
X173616332Y-66675999D01*
X173616332Y-66655999D01*
X173870332Y-66655999D01*
X173870332Y-66675999D01*
G37*
%TD.AperFunction*%
D31*
X176765000Y-63031801D02*
X176765000Y-63093939D01*
X176804774Y-63293898D01*
X176882795Y-63482256D01*
X176996063Y-63651774D01*
X177140226Y-63795937D01*
X177309744Y-63909205D01*
X177498102Y-63987226D01*
X177698061Y-64027000D01*
X177745928Y-64027000D01*
X177745928Y-64801807D01*
X177629593Y-64724075D01*
X177441235Y-64646054D01*
X177241276Y-64606280D01*
X177037398Y-64606280D01*
X176837439Y-64646054D01*
X176649081Y-64724075D01*
X176479563Y-64837343D01*
X176335400Y-64981506D01*
X176222132Y-65151024D01*
X176168178Y-65281279D01*
X175814264Y-65281279D01*
X175822072Y-65202000D01*
X175819000Y-64712750D01*
X175660250Y-64554000D01*
X174661000Y-64554000D01*
X174661000Y-64574000D01*
X174407000Y-64574000D01*
X174407000Y-64554000D01*
X174387000Y-64554000D01*
X174387000Y-64300000D01*
X174407000Y-64300000D01*
X174407000Y-64280000D01*
X174661000Y-64280000D01*
X174661000Y-64300000D01*
X175660250Y-64300000D01*
X175819000Y-64141250D01*
X175822072Y-63652000D01*
X175809812Y-63527518D01*
X175773502Y-63407820D01*
X175714537Y-63297506D01*
X175635185Y-63200815D01*
X175538494Y-63121463D01*
X175428180Y-63062498D01*
X175311152Y-63026998D01*
X176760197Y-63026998D01*
X176765000Y-63031801D01*
%TA.AperFunction,Conductor*%
D32*
G36*
X176765000Y-63031801D02*
G01*
X176765000Y-63093939D01*
X176804774Y-63293898D01*
X176882795Y-63482256D01*
X176996063Y-63651774D01*
X177140226Y-63795937D01*
X177309744Y-63909205D01*
X177498102Y-63987226D01*
X177698061Y-64027000D01*
X177745928Y-64027000D01*
X177745928Y-64801807D01*
X177629593Y-64724075D01*
X177441235Y-64646054D01*
X177241276Y-64606280D01*
X177037398Y-64606280D01*
X176837439Y-64646054D01*
X176649081Y-64724075D01*
X176479563Y-64837343D01*
X176335400Y-64981506D01*
X176222132Y-65151024D01*
X176168178Y-65281279D01*
X175814264Y-65281279D01*
X175822072Y-65202000D01*
X175819000Y-64712750D01*
X175660250Y-64554000D01*
X174661000Y-64554000D01*
X174661000Y-64574000D01*
X174407000Y-64574000D01*
X174407000Y-64554000D01*
X174387000Y-64554000D01*
X174387000Y-64300000D01*
X174407000Y-64300000D01*
X174407000Y-64280000D01*
X174661000Y-64280000D01*
X174661000Y-64300000D01*
X175660250Y-64300000D01*
X175819000Y-64141250D01*
X175822072Y-63652000D01*
X175809812Y-63527518D01*
X175773502Y-63407820D01*
X175714537Y-63297506D01*
X175635185Y-63200815D01*
X175538494Y-63121463D01*
X175428180Y-63062498D01*
X175311152Y-63026998D01*
X176760197Y-63026998D01*
X176765000Y-63031801D01*
G37*
%TD.AperFunction*%
D31*
X174661002Y-63175748D02*
X174661002Y-63026998D01*
X174809752Y-63026998D01*
X174661002Y-63175748D01*
%TA.AperFunction,Conductor*%
D32*
G36*
X174661002Y-63175748D02*
G01*
X174661002Y-63026998D01*
X174809752Y-63026998D01*
X174661002Y-63175748D01*
G37*
%TD.AperFunction*%
D31*
X171631999Y-44129675D02*
X171628323Y-44166998D01*
X171631999Y-44204320D01*
X171631999Y-44204330D01*
X171642996Y-44315983D01*
X171680453Y-44439463D01*
X171686453Y-44459244D01*
X171757025Y-44591274D01*
X171768588Y-44605363D01*
X171851998Y-44706999D01*
X171881002Y-44730802D01*
X172272523Y-45122324D01*
X172182519Y-45131188D01*
X172062821Y-45167498D01*
X171952507Y-45226463D01*
X171855816Y-45305815D01*
X171776464Y-45402506D01*
X171717499Y-45512820D01*
X171681189Y-45632518D01*
X171668929Y-45757000D01*
X171672001Y-46196250D01*
X171830751Y-46355000D01*
X172680001Y-46355000D01*
X172680001Y-46335000D01*
X172934001Y-46335000D01*
X172934001Y-46355000D01*
X172954001Y-46355000D01*
X172954001Y-46609000D01*
X172934001Y-46609000D01*
X172934001Y-48641000D01*
X172954001Y-48641000D01*
X172954001Y-48895000D01*
X172934001Y-48895000D01*
X172934001Y-50927000D01*
X172954001Y-50927000D01*
X172954001Y-51181000D01*
X172934001Y-51181000D01*
X172934001Y-52255250D01*
X173092751Y-52414000D01*
X173307001Y-52417072D01*
X173431483Y-52404812D01*
X173551181Y-52368502D01*
X173661495Y-52309537D01*
X173758186Y-52230185D01*
X173823659Y-52150406D01*
X173829039Y-52156962D01*
X173963615Y-52267405D01*
X174117151Y-52349472D01*
X174283747Y-52400008D01*
X174457001Y-52417072D01*
X174957001Y-52417072D01*
X175130255Y-52400008D01*
X175296851Y-52349472D01*
X175450387Y-52267405D01*
X175584963Y-52156962D01*
X175637703Y-52092698D01*
X175639000Y-52394250D01*
X175797750Y-52553000D01*
X176897000Y-52553000D01*
X176897000Y-52533000D01*
X177151000Y-52533000D01*
X177151000Y-52553000D01*
X177171000Y-52553000D01*
X177171000Y-52807000D01*
X177151000Y-52807000D01*
X177151000Y-54156250D01*
X177309750Y-54315000D01*
X177774000Y-54318072D01*
X177898482Y-54305812D01*
X178018180Y-54269502D01*
X178128494Y-54210537D01*
X178174000Y-54173191D01*
X178219506Y-54210537D01*
X178329820Y-54269502D01*
X178449518Y-54305812D01*
X178574000Y-54318072D01*
X179598269Y-54318072D01*
X180401198Y-55121002D01*
X180424997Y-55150001D01*
X180453995Y-55173799D01*
X180540722Y-55244974D01*
X180672751Y-55315546D01*
X180816012Y-55359003D01*
X180964998Y-55373677D01*
X181002331Y-55370000D01*
X182430289Y-55370000D01*
X182474226Y-55413937D01*
X182643744Y-55527205D01*
X182832102Y-55605226D01*
X182936541Y-55626000D01*
X182832102Y-55646774D01*
X182643744Y-55724795D01*
X182474226Y-55838063D01*
X182430289Y-55882000D01*
X182156323Y-55882000D01*
X182118998Y-55878324D01*
X182081673Y-55882000D01*
X182081665Y-55882000D01*
X181970012Y-55892997D01*
X181826751Y-55936454D01*
X181694722Y-56007026D01*
X181578997Y-56101999D01*
X181555199Y-56130997D01*
X180309823Y-57376374D01*
X180322072Y-57252000D01*
X180322072Y-55702000D01*
X180309812Y-55577518D01*
X180273502Y-55457820D01*
X180214537Y-55347506D01*
X180135185Y-55250815D01*
X180038494Y-55171463D01*
X179928180Y-55112498D01*
X179808482Y-55076188D01*
X179684000Y-55063928D01*
X178384000Y-55063928D01*
X178259518Y-55076188D01*
X178139820Y-55112498D01*
X178029506Y-55171463D01*
X177932815Y-55250815D01*
X177853463Y-55347506D01*
X177794498Y-55457820D01*
X177758188Y-55577518D01*
X177745928Y-55702000D01*
X177745928Y-55880491D01*
X177647939Y-55861000D01*
X177444061Y-55861000D01*
X177244102Y-55900774D01*
X177055744Y-55978795D01*
X176886226Y-56092063D01*
X176742063Y-56236226D01*
X176628795Y-56405744D01*
X176550774Y-56594102D01*
X176511000Y-56794061D01*
X176511000Y-56997939D01*
X176550774Y-57197898D01*
X176628795Y-57386256D01*
X176742063Y-57555774D01*
X176886226Y-57699937D01*
X177055744Y-57813205D01*
X177244102Y-57891226D01*
X177444061Y-57931000D01*
X177647939Y-57931000D01*
X177847898Y-57891226D01*
X178036256Y-57813205D01*
X178058755Y-57798171D01*
X178139820Y-57841502D01*
X178259518Y-57877812D01*
X178384000Y-57890072D01*
X179684000Y-57890072D01*
X179808374Y-57877823D01*
X178428695Y-59257502D01*
X173043371Y-59257502D01*
X173100744Y-59187593D01*
X173159708Y-59077279D01*
X173196017Y-58957580D01*
X173208278Y-58833099D01*
X173196017Y-58708618D01*
X173159708Y-58588919D01*
X173100744Y-58478605D01*
X173021391Y-58381914D01*
X172708622Y-58073490D01*
X172484116Y-58073490D01*
X171883605Y-58674000D01*
X171897748Y-58688142D01*
X171718142Y-58867748D01*
X171704000Y-58853605D01*
X171689858Y-58867748D01*
X171510252Y-58688142D01*
X171524395Y-58674000D01*
X171510253Y-58659858D01*
X171689858Y-58480253D01*
X171704000Y-58494395D01*
X172304510Y-57893884D01*
X172304510Y-57669378D01*
X171996086Y-57356609D01*
X171957574Y-57325002D01*
X172030576Y-57252000D01*
X173245928Y-57252000D01*
X173258188Y-57376482D01*
X173294498Y-57496180D01*
X173353463Y-57606494D01*
X173432815Y-57703185D01*
X173529506Y-57782537D01*
X173639820Y-57841502D01*
X173759518Y-57877812D01*
X173884000Y-57890072D01*
X174248250Y-57887000D01*
X174407000Y-57728250D01*
X174407000Y-56604000D01*
X174661000Y-56604000D01*
X174661000Y-57728250D01*
X174819750Y-57887000D01*
X175184000Y-57890072D01*
X175308482Y-57877812D01*
X175428180Y-57841502D01*
X175538494Y-57782537D01*
X175635185Y-57703185D01*
X175714537Y-57606494D01*
X175773502Y-57496180D01*
X175809812Y-57376482D01*
X175822072Y-57252000D01*
X175819000Y-56762750D01*
X175660250Y-56604000D01*
X174661000Y-56604000D01*
X174407000Y-56604000D01*
X173407750Y-56604000D01*
X173249000Y-56762750D01*
X173245928Y-57252000D01*
X172030576Y-57252000D01*
X172046684Y-57235892D01*
X172110433Y-57158214D01*
X172188105Y-57094470D01*
X172400237Y-56882338D01*
X172463981Y-56804666D01*
X172541659Y-56740917D01*
X172753791Y-56528785D01*
X172833143Y-56432094D01*
X172892108Y-56321780D01*
X172928418Y-56202082D01*
X172940678Y-56077600D01*
X172928418Y-55953118D01*
X172892108Y-55833420D01*
X172833143Y-55723106D01*
X172815822Y-55702000D01*
X173245928Y-55702000D01*
X173249000Y-56191250D01*
X173407750Y-56350000D01*
X174407000Y-56350000D01*
X174407000Y-55225750D01*
X174661000Y-55225750D01*
X174661000Y-56350000D01*
X175660250Y-56350000D01*
X175819000Y-56191250D01*
X175822072Y-55702000D01*
X175809812Y-55577518D01*
X175773502Y-55457820D01*
X175714537Y-55347506D01*
X175635185Y-55250815D01*
X175538494Y-55171463D01*
X175428180Y-55112498D01*
X175308482Y-55076188D01*
X175184000Y-55063928D01*
X174819750Y-55067000D01*
X174661000Y-55225750D01*
X174407000Y-55225750D01*
X174248250Y-55067000D01*
X173884000Y-55063928D01*
X173759518Y-55076188D01*
X173639820Y-55112498D01*
X173529506Y-55171463D01*
X173432815Y-55250815D01*
X173353463Y-55347506D01*
X173294498Y-55457820D01*
X173258188Y-55577518D01*
X173245928Y-55702000D01*
X172815822Y-55702000D01*
X172753791Y-55626415D01*
X171737376Y-54610000D01*
X172667376Y-53680000D01*
X175635928Y-53680000D01*
X175648188Y-53804482D01*
X175684498Y-53924180D01*
X175743463Y-54034494D01*
X175822815Y-54131185D01*
X175919506Y-54210537D01*
X176029820Y-54269502D01*
X176149518Y-54305812D01*
X176274000Y-54318072D01*
X176738250Y-54315000D01*
X176897000Y-54156250D01*
X176897000Y-52807000D01*
X175797750Y-52807000D01*
X175639000Y-52965750D01*
X175635928Y-53680000D01*
X172667376Y-53680000D01*
X172753791Y-53593585D01*
X172833143Y-53496894D01*
X172892108Y-53386580D01*
X172928418Y-53266882D01*
X172940678Y-53142400D01*
X172928418Y-53017918D01*
X172892108Y-52898220D01*
X172833143Y-52787906D01*
X172753791Y-52691215D01*
X172541659Y-52479083D01*
X172463981Y-52415334D01*
X172463565Y-52414827D01*
X172521251Y-52414000D01*
X172680001Y-52255250D01*
X172680001Y-51181000D01*
X172660001Y-51181000D01*
X172660001Y-50927000D01*
X172680001Y-50927000D01*
X172680001Y-48895000D01*
X172660001Y-48895000D01*
X172660001Y-48641000D01*
X172680001Y-48641000D01*
X172680001Y-46609000D01*
X171830751Y-46609000D01*
X171672001Y-46767750D01*
X171668929Y-47207000D01*
X171681189Y-47331482D01*
X171717499Y-47451180D01*
X171776464Y-47561494D01*
X171828582Y-47625000D01*
X171776464Y-47688506D01*
X171717499Y-47798820D01*
X171681189Y-47918518D01*
X171668929Y-48043000D01*
X171670681Y-48293468D01*
X171112542Y-47735329D01*
X171088739Y-47706326D01*
X170973014Y-47611353D01*
X170840985Y-47540781D01*
X170697724Y-47497324D01*
X170586071Y-47486327D01*
X170586060Y-47486327D01*
X170548738Y-47482651D01*
X170511416Y-47486327D01*
X169721950Y-47486327D01*
X168721991Y-46486369D01*
X168715984Y-46479050D01*
X168817988Y-46469003D01*
X168961249Y-46425546D01*
X169093278Y-46354974D01*
X169209003Y-46260001D01*
X169232806Y-46230997D01*
X171014004Y-44449800D01*
X171043002Y-44426002D01*
X171137975Y-44310277D01*
X171208547Y-44178248D01*
X171252004Y-44034987D01*
X171263001Y-43923334D01*
X171263001Y-43923325D01*
X171266677Y-43886002D01*
X171263001Y-43848679D01*
X171263001Y-41009820D01*
X171327386Y-40975405D01*
X171461962Y-40864962D01*
X171572405Y-40730386D01*
X171632000Y-40618892D01*
X171631999Y-44129675D01*
%TA.AperFunction,Conductor*%
D32*
G36*
X171631999Y-44129675D02*
G01*
X171628323Y-44166998D01*
X171631999Y-44204320D01*
X171631999Y-44204330D01*
X171642996Y-44315983D01*
X171680453Y-44439463D01*
X171686453Y-44459244D01*
X171757025Y-44591274D01*
X171768588Y-44605363D01*
X171851998Y-44706999D01*
X171881002Y-44730802D01*
X172272523Y-45122324D01*
X172182519Y-45131188D01*
X172062821Y-45167498D01*
X171952507Y-45226463D01*
X171855816Y-45305815D01*
X171776464Y-45402506D01*
X171717499Y-45512820D01*
X171681189Y-45632518D01*
X171668929Y-45757000D01*
X171672001Y-46196250D01*
X171830751Y-46355000D01*
X172680001Y-46355000D01*
X172680001Y-46335000D01*
X172934001Y-46335000D01*
X172934001Y-46355000D01*
X172954001Y-46355000D01*
X172954001Y-46609000D01*
X172934001Y-46609000D01*
X172934001Y-48641000D01*
X172954001Y-48641000D01*
X172954001Y-48895000D01*
X172934001Y-48895000D01*
X172934001Y-50927000D01*
X172954001Y-50927000D01*
X172954001Y-51181000D01*
X172934001Y-51181000D01*
X172934001Y-52255250D01*
X173092751Y-52414000D01*
X173307001Y-52417072D01*
X173431483Y-52404812D01*
X173551181Y-52368502D01*
X173661495Y-52309537D01*
X173758186Y-52230185D01*
X173823659Y-52150406D01*
X173829039Y-52156962D01*
X173963615Y-52267405D01*
X174117151Y-52349472D01*
X174283747Y-52400008D01*
X174457001Y-52417072D01*
X174957001Y-52417072D01*
X175130255Y-52400008D01*
X175296851Y-52349472D01*
X175450387Y-52267405D01*
X175584963Y-52156962D01*
X175637703Y-52092698D01*
X175639000Y-52394250D01*
X175797750Y-52553000D01*
X176897000Y-52553000D01*
X176897000Y-52533000D01*
X177151000Y-52533000D01*
X177151000Y-52553000D01*
X177171000Y-52553000D01*
X177171000Y-52807000D01*
X177151000Y-52807000D01*
X177151000Y-54156250D01*
X177309750Y-54315000D01*
X177774000Y-54318072D01*
X177898482Y-54305812D01*
X178018180Y-54269502D01*
X178128494Y-54210537D01*
X178174000Y-54173191D01*
X178219506Y-54210537D01*
X178329820Y-54269502D01*
X178449518Y-54305812D01*
X178574000Y-54318072D01*
X179598269Y-54318072D01*
X180401198Y-55121002D01*
X180424997Y-55150001D01*
X180453995Y-55173799D01*
X180540722Y-55244974D01*
X180672751Y-55315546D01*
X180816012Y-55359003D01*
X180964998Y-55373677D01*
X181002331Y-55370000D01*
X182430289Y-55370000D01*
X182474226Y-55413937D01*
X182643744Y-55527205D01*
X182832102Y-55605226D01*
X182936541Y-55626000D01*
X182832102Y-55646774D01*
X182643744Y-55724795D01*
X182474226Y-55838063D01*
X182430289Y-55882000D01*
X182156323Y-55882000D01*
X182118998Y-55878324D01*
X182081673Y-55882000D01*
X182081665Y-55882000D01*
X181970012Y-55892997D01*
X181826751Y-55936454D01*
X181694722Y-56007026D01*
X181578997Y-56101999D01*
X181555199Y-56130997D01*
X180309823Y-57376374D01*
X180322072Y-57252000D01*
X180322072Y-55702000D01*
X180309812Y-55577518D01*
X180273502Y-55457820D01*
X180214537Y-55347506D01*
X180135185Y-55250815D01*
X180038494Y-55171463D01*
X179928180Y-55112498D01*
X179808482Y-55076188D01*
X179684000Y-55063928D01*
X178384000Y-55063928D01*
X178259518Y-55076188D01*
X178139820Y-55112498D01*
X178029506Y-55171463D01*
X177932815Y-55250815D01*
X177853463Y-55347506D01*
X177794498Y-55457820D01*
X177758188Y-55577518D01*
X177745928Y-55702000D01*
X177745928Y-55880491D01*
X177647939Y-55861000D01*
X177444061Y-55861000D01*
X177244102Y-55900774D01*
X177055744Y-55978795D01*
X176886226Y-56092063D01*
X176742063Y-56236226D01*
X176628795Y-56405744D01*
X176550774Y-56594102D01*
X176511000Y-56794061D01*
X176511000Y-56997939D01*
X176550774Y-57197898D01*
X176628795Y-57386256D01*
X176742063Y-57555774D01*
X176886226Y-57699937D01*
X177055744Y-57813205D01*
X177244102Y-57891226D01*
X177444061Y-57931000D01*
X177647939Y-57931000D01*
X177847898Y-57891226D01*
X178036256Y-57813205D01*
X178058755Y-57798171D01*
X178139820Y-57841502D01*
X178259518Y-57877812D01*
X178384000Y-57890072D01*
X179684000Y-57890072D01*
X179808374Y-57877823D01*
X178428695Y-59257502D01*
X173043371Y-59257502D01*
X173100744Y-59187593D01*
X173159708Y-59077279D01*
X173196017Y-58957580D01*
X173208278Y-58833099D01*
X173196017Y-58708618D01*
X173159708Y-58588919D01*
X173100744Y-58478605D01*
X173021391Y-58381914D01*
X172708622Y-58073490D01*
X172484116Y-58073490D01*
X171883605Y-58674000D01*
X171897748Y-58688142D01*
X171718142Y-58867748D01*
X171704000Y-58853605D01*
X171689858Y-58867748D01*
X171510252Y-58688142D01*
X171524395Y-58674000D01*
X171510253Y-58659858D01*
X171689858Y-58480253D01*
X171704000Y-58494395D01*
X172304510Y-57893884D01*
X172304510Y-57669378D01*
X171996086Y-57356609D01*
X171957574Y-57325002D01*
X172030576Y-57252000D01*
X173245928Y-57252000D01*
X173258188Y-57376482D01*
X173294498Y-57496180D01*
X173353463Y-57606494D01*
X173432815Y-57703185D01*
X173529506Y-57782537D01*
X173639820Y-57841502D01*
X173759518Y-57877812D01*
X173884000Y-57890072D01*
X174248250Y-57887000D01*
X174407000Y-57728250D01*
X174407000Y-56604000D01*
X174661000Y-56604000D01*
X174661000Y-57728250D01*
X174819750Y-57887000D01*
X175184000Y-57890072D01*
X175308482Y-57877812D01*
X175428180Y-57841502D01*
X175538494Y-57782537D01*
X175635185Y-57703185D01*
X175714537Y-57606494D01*
X175773502Y-57496180D01*
X175809812Y-57376482D01*
X175822072Y-57252000D01*
X175819000Y-56762750D01*
X175660250Y-56604000D01*
X174661000Y-56604000D01*
X174407000Y-56604000D01*
X173407750Y-56604000D01*
X173249000Y-56762750D01*
X173245928Y-57252000D01*
X172030576Y-57252000D01*
X172046684Y-57235892D01*
X172110433Y-57158214D01*
X172188105Y-57094470D01*
X172400237Y-56882338D01*
X172463981Y-56804666D01*
X172541659Y-56740917D01*
X172753791Y-56528785D01*
X172833143Y-56432094D01*
X172892108Y-56321780D01*
X172928418Y-56202082D01*
X172940678Y-56077600D01*
X172928418Y-55953118D01*
X172892108Y-55833420D01*
X172833143Y-55723106D01*
X172815822Y-55702000D01*
X173245928Y-55702000D01*
X173249000Y-56191250D01*
X173407750Y-56350000D01*
X174407000Y-56350000D01*
X174407000Y-55225750D01*
X174661000Y-55225750D01*
X174661000Y-56350000D01*
X175660250Y-56350000D01*
X175819000Y-56191250D01*
X175822072Y-55702000D01*
X175809812Y-55577518D01*
X175773502Y-55457820D01*
X175714537Y-55347506D01*
X175635185Y-55250815D01*
X175538494Y-55171463D01*
X175428180Y-55112498D01*
X175308482Y-55076188D01*
X175184000Y-55063928D01*
X174819750Y-55067000D01*
X174661000Y-55225750D01*
X174407000Y-55225750D01*
X174248250Y-55067000D01*
X173884000Y-55063928D01*
X173759518Y-55076188D01*
X173639820Y-55112498D01*
X173529506Y-55171463D01*
X173432815Y-55250815D01*
X173353463Y-55347506D01*
X173294498Y-55457820D01*
X173258188Y-55577518D01*
X173245928Y-55702000D01*
X172815822Y-55702000D01*
X172753791Y-55626415D01*
X171737376Y-54610000D01*
X172667376Y-53680000D01*
X175635928Y-53680000D01*
X175648188Y-53804482D01*
X175684498Y-53924180D01*
X175743463Y-54034494D01*
X175822815Y-54131185D01*
X175919506Y-54210537D01*
X176029820Y-54269502D01*
X176149518Y-54305812D01*
X176274000Y-54318072D01*
X176738250Y-54315000D01*
X176897000Y-54156250D01*
X176897000Y-52807000D01*
X175797750Y-52807000D01*
X175639000Y-52965750D01*
X175635928Y-53680000D01*
X172667376Y-53680000D01*
X172753791Y-53593585D01*
X172833143Y-53496894D01*
X172892108Y-53386580D01*
X172928418Y-53266882D01*
X172940678Y-53142400D01*
X172928418Y-53017918D01*
X172892108Y-52898220D01*
X172833143Y-52787906D01*
X172753791Y-52691215D01*
X172541659Y-52479083D01*
X172463981Y-52415334D01*
X172463565Y-52414827D01*
X172521251Y-52414000D01*
X172680001Y-52255250D01*
X172680001Y-51181000D01*
X172660001Y-51181000D01*
X172660001Y-50927000D01*
X172680001Y-50927000D01*
X172680001Y-48895000D01*
X172660001Y-48895000D01*
X172660001Y-48641000D01*
X172680001Y-48641000D01*
X172680001Y-46609000D01*
X171830751Y-46609000D01*
X171672001Y-46767750D01*
X171668929Y-47207000D01*
X171681189Y-47331482D01*
X171717499Y-47451180D01*
X171776464Y-47561494D01*
X171828582Y-47625000D01*
X171776464Y-47688506D01*
X171717499Y-47798820D01*
X171681189Y-47918518D01*
X171668929Y-48043000D01*
X171670681Y-48293468D01*
X171112542Y-47735329D01*
X171088739Y-47706326D01*
X170973014Y-47611353D01*
X170840985Y-47540781D01*
X170697724Y-47497324D01*
X170586071Y-47486327D01*
X170586060Y-47486327D01*
X170548738Y-47482651D01*
X170511416Y-47486327D01*
X169721950Y-47486327D01*
X168721991Y-46486369D01*
X168715984Y-46479050D01*
X168817988Y-46469003D01*
X168961249Y-46425546D01*
X169093278Y-46354974D01*
X169209003Y-46260001D01*
X169232806Y-46230997D01*
X171014004Y-44449800D01*
X171043002Y-44426002D01*
X171137975Y-44310277D01*
X171208547Y-44178248D01*
X171252004Y-44034987D01*
X171263001Y-43923334D01*
X171263001Y-43923325D01*
X171266677Y-43886002D01*
X171263001Y-43848679D01*
X171263001Y-41009820D01*
X171327386Y-40975405D01*
X171461962Y-40864962D01*
X171572405Y-40730386D01*
X171632000Y-40618892D01*
X171631999Y-44129675D01*
G37*
%TD.AperFunction*%
D31*
X169889200Y-53717328D02*
X170101332Y-53929460D01*
X170179004Y-53993204D01*
X170242753Y-54070882D01*
X170454885Y-54283014D01*
X170532563Y-54346763D01*
X170596307Y-54424435D01*
X170781872Y-54610000D01*
X170596307Y-54795565D01*
X170532563Y-54873237D01*
X170454885Y-54936986D01*
X170242753Y-55149118D01*
X170179004Y-55226796D01*
X170101332Y-55290540D01*
X169889200Y-55502672D01*
X169825456Y-55580344D01*
X169747778Y-55644093D01*
X169535646Y-55856225D01*
X169471900Y-55933900D01*
X169394225Y-55997646D01*
X169182093Y-56209778D01*
X169116313Y-56289931D01*
X169065295Y-56330921D01*
X169065295Y-56376524D01*
X169043776Y-56416783D01*
X169008945Y-56531605D01*
X168894123Y-56566436D01*
X168853864Y-56587955D01*
X168808261Y-56587955D01*
X168767271Y-56638973D01*
X168687118Y-56704753D01*
X168474986Y-56916885D01*
X168411237Y-56994563D01*
X168333565Y-57058307D01*
X168148000Y-57243872D01*
X167962435Y-57058307D01*
X167884763Y-56994563D01*
X167821014Y-56916885D01*
X167608882Y-56704753D01*
X167531204Y-56641004D01*
X167467460Y-56563332D01*
X167423936Y-56519808D01*
X167472793Y-56487163D01*
X167616956Y-56343000D01*
X167730224Y-56173482D01*
X167808245Y-55985124D01*
X167848019Y-55785165D01*
X167848019Y-55587001D01*
X168712681Y-55587001D01*
X168750003Y-55590677D01*
X168787325Y-55587001D01*
X168787336Y-55587001D01*
X168898989Y-55576004D01*
X169042250Y-55532547D01*
X169174279Y-55461975D01*
X169290004Y-55367002D01*
X169313807Y-55337998D01*
X169637999Y-55013806D01*
X169667003Y-54990003D01*
X169761976Y-54874278D01*
X169832548Y-54742249D01*
X169876005Y-54598988D01*
X169887002Y-54487335D01*
X169887002Y-54487326D01*
X169890678Y-54450003D01*
X169887002Y-54412680D01*
X169887002Y-53714650D01*
X169889200Y-53717328D01*
%TA.AperFunction,Conductor*%
D32*
G36*
X169889200Y-53717328D02*
G01*
X170101332Y-53929460D01*
X170179004Y-53993204D01*
X170242753Y-54070882D01*
X170454885Y-54283014D01*
X170532563Y-54346763D01*
X170596307Y-54424435D01*
X170781872Y-54610000D01*
X170596307Y-54795565D01*
X170532563Y-54873237D01*
X170454885Y-54936986D01*
X170242753Y-55149118D01*
X170179004Y-55226796D01*
X170101332Y-55290540D01*
X169889200Y-55502672D01*
X169825456Y-55580344D01*
X169747778Y-55644093D01*
X169535646Y-55856225D01*
X169471900Y-55933900D01*
X169394225Y-55997646D01*
X169182093Y-56209778D01*
X169116313Y-56289931D01*
X169065295Y-56330921D01*
X169065295Y-56376524D01*
X169043776Y-56416783D01*
X169008945Y-56531605D01*
X168894123Y-56566436D01*
X168853864Y-56587955D01*
X168808261Y-56587955D01*
X168767271Y-56638973D01*
X168687118Y-56704753D01*
X168474986Y-56916885D01*
X168411237Y-56994563D01*
X168333565Y-57058307D01*
X168148000Y-57243872D01*
X167962435Y-57058307D01*
X167884763Y-56994563D01*
X167821014Y-56916885D01*
X167608882Y-56704753D01*
X167531204Y-56641004D01*
X167467460Y-56563332D01*
X167423936Y-56519808D01*
X167472793Y-56487163D01*
X167616956Y-56343000D01*
X167730224Y-56173482D01*
X167808245Y-55985124D01*
X167848019Y-55785165D01*
X167848019Y-55587001D01*
X168712681Y-55587001D01*
X168750003Y-55590677D01*
X168787325Y-55587001D01*
X168787336Y-55587001D01*
X168898989Y-55576004D01*
X169042250Y-55532547D01*
X169174279Y-55461975D01*
X169290004Y-55367002D01*
X169313807Y-55337998D01*
X169637999Y-55013806D01*
X169667003Y-54990003D01*
X169761976Y-54874278D01*
X169832548Y-54742249D01*
X169876005Y-54598988D01*
X169887002Y-54487335D01*
X169887002Y-54487326D01*
X169890678Y-54450003D01*
X169887002Y-54412680D01*
X169887002Y-53714650D01*
X169889200Y-53717328D01*
G37*
%TD.AperFunction*%
D31*
X161297000Y-55621000D02*
X161277000Y-55621000D01*
X161277000Y-55641000D01*
X161023000Y-55641000D01*
X161023000Y-55621000D01*
X161003000Y-55621000D01*
X161003000Y-55370000D01*
X161297000Y-55370000D01*
X161297000Y-55621000D01*
%TA.AperFunction,Conductor*%
D32*
G36*
X161297000Y-55621000D02*
G01*
X161277000Y-55621000D01*
X161277000Y-55641000D01*
X161023000Y-55641000D01*
X161023000Y-55621000D01*
X161003000Y-55621000D01*
X161003000Y-55370000D01*
X161297000Y-55370000D01*
X161297000Y-55621000D01*
G37*
%TD.AperFunction*%
D31*
X164531748Y-49769858D02*
X164517605Y-49784000D01*
X164531748Y-49798142D01*
X164352142Y-49977748D01*
X164338000Y-49963605D01*
X164323858Y-49977748D01*
X164144253Y-49798143D01*
X164158395Y-49784000D01*
X164144252Y-49769858D01*
X164323858Y-49590252D01*
X164338000Y-49604395D01*
X164352142Y-49590252D01*
X164531748Y-49769858D01*
%TA.AperFunction,Conductor*%
D32*
G36*
X164531748Y-49769858D02*
G01*
X164517605Y-49784000D01*
X164531748Y-49798142D01*
X164352142Y-49977748D01*
X164338000Y-49963605D01*
X164323858Y-49977748D01*
X164144253Y-49798143D01*
X164158395Y-49784000D01*
X164144252Y-49769858D01*
X164323858Y-49590252D01*
X164338000Y-49604395D01*
X164352142Y-49590252D01*
X164531748Y-49769858D01*
G37*
%TD.AperFunction*%
D31*
X173910748Y-42856858D02*
X173896605Y-42871000D01*
X174852413Y-43826808D01*
X175116814Y-43731044D01*
X175257704Y-43441429D01*
X175262063Y-43424805D01*
X175333831Y-43515092D01*
X175429273Y-43595943D01*
X175538654Y-43656621D01*
X175657771Y-43694794D01*
X175760250Y-43706000D01*
X175919000Y-43547250D01*
X175919000Y-43434678D01*
X175990815Y-43522185D01*
X176087506Y-43601537D01*
X176155782Y-43638032D01*
X176223750Y-43706000D01*
X176314936Y-43696029D01*
X176317518Y-43696812D01*
X176442000Y-43709072D01*
X176842000Y-43709072D01*
X176966482Y-43696812D01*
X176967000Y-43696655D01*
X176967518Y-43696812D01*
X177092000Y-43709072D01*
X177129126Y-43709072D01*
X175515866Y-45322332D01*
X175450387Y-45268595D01*
X175296851Y-45186528D01*
X175130255Y-45135992D01*
X174957001Y-45118928D01*
X174457001Y-45118928D01*
X174422162Y-45122359D01*
X173808550Y-44508747D01*
X174098675Y-44468961D01*
X174403088Y-44363795D01*
X174577044Y-44270814D01*
X174672808Y-44006413D01*
X173717000Y-43050605D01*
X173702858Y-43064748D01*
X173523253Y-42885143D01*
X173537395Y-42871000D01*
X173523253Y-42856858D01*
X173702858Y-42677253D01*
X173717000Y-42691395D01*
X173731143Y-42677253D01*
X173910748Y-42856858D01*
%TA.AperFunction,Conductor*%
D32*
G36*
X173910748Y-42856858D02*
G01*
X173896605Y-42871000D01*
X174852413Y-43826808D01*
X175116814Y-43731044D01*
X175257704Y-43441429D01*
X175262063Y-43424805D01*
X175333831Y-43515092D01*
X175429273Y-43595943D01*
X175538654Y-43656621D01*
X175657771Y-43694794D01*
X175760250Y-43706000D01*
X175919000Y-43547250D01*
X175919000Y-43434678D01*
X175990815Y-43522185D01*
X176087506Y-43601537D01*
X176155782Y-43638032D01*
X176223750Y-43706000D01*
X176314936Y-43696029D01*
X176317518Y-43696812D01*
X176442000Y-43709072D01*
X176842000Y-43709072D01*
X176966482Y-43696812D01*
X176967000Y-43696655D01*
X176967518Y-43696812D01*
X177092000Y-43709072D01*
X177129126Y-43709072D01*
X175515866Y-45322332D01*
X175450387Y-45268595D01*
X175296851Y-45186528D01*
X175130255Y-45135992D01*
X174957001Y-45118928D01*
X174457001Y-45118928D01*
X174422162Y-45122359D01*
X173808550Y-44508747D01*
X174098675Y-44468961D01*
X174403088Y-44363795D01*
X174577044Y-44270814D01*
X174672808Y-44006413D01*
X173717000Y-43050605D01*
X173702858Y-43064748D01*
X173523253Y-42885143D01*
X173537395Y-42871000D01*
X173523253Y-42856858D01*
X173702858Y-42677253D01*
X173717000Y-42691395D01*
X173731143Y-42677253D01*
X173910748Y-42856858D01*
G37*
%TD.AperFunction*%
D31*
X183744001Y-43161012D02*
X183743939Y-43161000D01*
X183540061Y-43161000D01*
X183340102Y-43200774D01*
X183151744Y-43278795D01*
X182982226Y-43392063D01*
X182938289Y-43436000D01*
X182409127Y-43436000D01*
X182489384Y-43129892D01*
X182508718Y-42808405D01*
X182464961Y-42489325D01*
X182359795Y-42184912D01*
X182266814Y-42010956D01*
X182002413Y-41915192D01*
X181046605Y-42871000D01*
X181060748Y-42885143D01*
X180881143Y-43064748D01*
X180867000Y-43050605D01*
X180852858Y-43064748D01*
X180673253Y-42885143D01*
X180687395Y-42871000D01*
X180673253Y-42856858D01*
X180852858Y-42677253D01*
X180867000Y-42691395D01*
X181822808Y-41735587D01*
X181727044Y-41471186D01*
X181437429Y-41330296D01*
X181125892Y-41248616D01*
X180804405Y-41229282D01*
X180485325Y-41273039D01*
X180232866Y-41360256D01*
X180215108Y-41270978D01*
X180142741Y-41096269D01*
X180037681Y-40939036D01*
X179903964Y-40805319D01*
X179746731Y-40700259D01*
X179572022Y-40627892D01*
X179386552Y-40591000D01*
X179197448Y-40591000D01*
X179011978Y-40627892D01*
X178837269Y-40700259D01*
X178680036Y-40805319D01*
X178546319Y-40939036D01*
X178483582Y-41032928D01*
X178392000Y-41032928D01*
X178267518Y-41045188D01*
X178267000Y-41045345D01*
X178266482Y-41045188D01*
X178142000Y-41032928D01*
X177742000Y-41032928D01*
X177617518Y-41045188D01*
X177617000Y-41045345D01*
X177616482Y-41045188D01*
X177492000Y-41032928D01*
X177092000Y-41032928D01*
X176967518Y-41045188D01*
X176967000Y-41045345D01*
X176966482Y-41045188D01*
X176842000Y-41032928D01*
X176442000Y-41032928D01*
X176317518Y-41045188D01*
X176314936Y-41045971D01*
X176223750Y-41036000D01*
X176155782Y-41103968D01*
X176147716Y-41108280D01*
X176142741Y-41096269D01*
X176119002Y-41060741D01*
X176119002Y-41036000D01*
X176102470Y-41036000D01*
X176037681Y-40939036D01*
X175903964Y-40805319D01*
X175746731Y-40700259D01*
X175572022Y-40627892D01*
X175386552Y-40591000D01*
X175197448Y-40591000D01*
X175011978Y-40627892D01*
X174837269Y-40700259D01*
X174680036Y-40805319D01*
X174546319Y-40939036D01*
X174441259Y-41096269D01*
X174368892Y-41270978D01*
X174350947Y-41361196D01*
X174287429Y-41330296D01*
X173975892Y-41248616D01*
X173654405Y-41229282D01*
X173335325Y-41273039D01*
X173151999Y-41336373D01*
X173151999Y-40963127D01*
X173458108Y-41043384D01*
X173779595Y-41062718D01*
X174098675Y-41018961D01*
X174403088Y-40913795D01*
X174577044Y-40820814D01*
X174672808Y-40556413D01*
X179911192Y-40556413D01*
X180006956Y-40820814D01*
X180296571Y-40961704D01*
X180608108Y-41043384D01*
X180929595Y-41062718D01*
X181248675Y-41018961D01*
X181553088Y-40913795D01*
X181727044Y-40820814D01*
X181822808Y-40556413D01*
X180867000Y-39600605D01*
X179911192Y-40556413D01*
X174672808Y-40556413D01*
X173717000Y-39600605D01*
X173702858Y-39614748D01*
X173523253Y-39435143D01*
X173537395Y-39421000D01*
X173896605Y-39421000D01*
X174852413Y-40376808D01*
X175116814Y-40281044D01*
X175257704Y-39991429D01*
X175339384Y-39679892D01*
X175351189Y-39483595D01*
X179225282Y-39483595D01*
X179269039Y-39802675D01*
X179374205Y-40107088D01*
X179467186Y-40281044D01*
X179731587Y-40376808D01*
X180687395Y-39421000D01*
X181046605Y-39421000D01*
X182002413Y-40376808D01*
X182266814Y-40281044D01*
X182407704Y-39991429D01*
X182489384Y-39679892D01*
X182508718Y-39358405D01*
X182464961Y-39039325D01*
X182359795Y-38734912D01*
X182266814Y-38560956D01*
X182002413Y-38465192D01*
X181046605Y-39421000D01*
X180687395Y-39421000D01*
X179731587Y-38465192D01*
X179467186Y-38560956D01*
X179326296Y-38850571D01*
X179244616Y-39162108D01*
X179225282Y-39483595D01*
X175351189Y-39483595D01*
X175358718Y-39358405D01*
X175314961Y-39039325D01*
X175209795Y-38734912D01*
X175116814Y-38560956D01*
X174852413Y-38465192D01*
X173896605Y-39421000D01*
X173537395Y-39421000D01*
X172581587Y-38465192D01*
X172317186Y-38560956D01*
X172269101Y-38659800D01*
X171894888Y-38285587D01*
X172761192Y-38285587D01*
X173717000Y-39241395D01*
X174672808Y-38285587D01*
X179911192Y-38285587D01*
X180867000Y-39241395D01*
X181822808Y-38285587D01*
X181727044Y-38021186D01*
X181437429Y-37880296D01*
X181125892Y-37798616D01*
X180804405Y-37779282D01*
X180485325Y-37823039D01*
X180180912Y-37928205D01*
X180006956Y-38021186D01*
X179911192Y-38285587D01*
X174672808Y-38285587D01*
X174577044Y-38021186D01*
X174287429Y-37880296D01*
X173975892Y-37798616D01*
X173654405Y-37779282D01*
X173335325Y-37823039D01*
X173030912Y-37928205D01*
X172856956Y-38021186D01*
X172761192Y-38285587D01*
X171894888Y-38285587D01*
X171722072Y-38112771D01*
X171722072Y-37487000D01*
X171705008Y-37313746D01*
X171681424Y-37236000D01*
X183744001Y-37236000D01*
X183744001Y-43161012D01*
%TA.AperFunction,Conductor*%
D32*
G36*
X183744001Y-43161012D02*
G01*
X183743939Y-43161000D01*
X183540061Y-43161000D01*
X183340102Y-43200774D01*
X183151744Y-43278795D01*
X182982226Y-43392063D01*
X182938289Y-43436000D01*
X182409127Y-43436000D01*
X182489384Y-43129892D01*
X182508718Y-42808405D01*
X182464961Y-42489325D01*
X182359795Y-42184912D01*
X182266814Y-42010956D01*
X182002413Y-41915192D01*
X181046605Y-42871000D01*
X181060748Y-42885143D01*
X180881143Y-43064748D01*
X180867000Y-43050605D01*
X180852858Y-43064748D01*
X180673253Y-42885143D01*
X180687395Y-42871000D01*
X180673253Y-42856858D01*
X180852858Y-42677253D01*
X180867000Y-42691395D01*
X181822808Y-41735587D01*
X181727044Y-41471186D01*
X181437429Y-41330296D01*
X181125892Y-41248616D01*
X180804405Y-41229282D01*
X180485325Y-41273039D01*
X180232866Y-41360256D01*
X180215108Y-41270978D01*
X180142741Y-41096269D01*
X180037681Y-40939036D01*
X179903964Y-40805319D01*
X179746731Y-40700259D01*
X179572022Y-40627892D01*
X179386552Y-40591000D01*
X179197448Y-40591000D01*
X179011978Y-40627892D01*
X178837269Y-40700259D01*
X178680036Y-40805319D01*
X178546319Y-40939036D01*
X178483582Y-41032928D01*
X178392000Y-41032928D01*
X178267518Y-41045188D01*
X178267000Y-41045345D01*
X178266482Y-41045188D01*
X178142000Y-41032928D01*
X177742000Y-41032928D01*
X177617518Y-41045188D01*
X177617000Y-41045345D01*
X177616482Y-41045188D01*
X177492000Y-41032928D01*
X177092000Y-41032928D01*
X176967518Y-41045188D01*
X176967000Y-41045345D01*
X176966482Y-41045188D01*
X176842000Y-41032928D01*
X176442000Y-41032928D01*
X176317518Y-41045188D01*
X176314936Y-41045971D01*
X176223750Y-41036000D01*
X176155782Y-41103968D01*
X176147716Y-41108280D01*
X176142741Y-41096269D01*
X176119002Y-41060741D01*
X176119002Y-41036000D01*
X176102470Y-41036000D01*
X176037681Y-40939036D01*
X175903964Y-40805319D01*
X175746731Y-40700259D01*
X175572022Y-40627892D01*
X175386552Y-40591000D01*
X175197448Y-40591000D01*
X175011978Y-40627892D01*
X174837269Y-40700259D01*
X174680036Y-40805319D01*
X174546319Y-40939036D01*
X174441259Y-41096269D01*
X174368892Y-41270978D01*
X174350947Y-41361196D01*
X174287429Y-41330296D01*
X173975892Y-41248616D01*
X173654405Y-41229282D01*
X173335325Y-41273039D01*
X173151999Y-41336373D01*
X173151999Y-40963127D01*
X173458108Y-41043384D01*
X173779595Y-41062718D01*
X174098675Y-41018961D01*
X174403088Y-40913795D01*
X174577044Y-40820814D01*
X174672808Y-40556413D01*
X179911192Y-40556413D01*
X180006956Y-40820814D01*
X180296571Y-40961704D01*
X180608108Y-41043384D01*
X180929595Y-41062718D01*
X181248675Y-41018961D01*
X181553088Y-40913795D01*
X181727044Y-40820814D01*
X181822808Y-40556413D01*
X180867000Y-39600605D01*
X179911192Y-40556413D01*
X174672808Y-40556413D01*
X173717000Y-39600605D01*
X173702858Y-39614748D01*
X173523253Y-39435143D01*
X173537395Y-39421000D01*
X173896605Y-39421000D01*
X174852413Y-40376808D01*
X175116814Y-40281044D01*
X175257704Y-39991429D01*
X175339384Y-39679892D01*
X175351189Y-39483595D01*
X179225282Y-39483595D01*
X179269039Y-39802675D01*
X179374205Y-40107088D01*
X179467186Y-40281044D01*
X179731587Y-40376808D01*
X180687395Y-39421000D01*
X181046605Y-39421000D01*
X182002413Y-40376808D01*
X182266814Y-40281044D01*
X182407704Y-39991429D01*
X182489384Y-39679892D01*
X182508718Y-39358405D01*
X182464961Y-39039325D01*
X182359795Y-38734912D01*
X182266814Y-38560956D01*
X182002413Y-38465192D01*
X181046605Y-39421000D01*
X180687395Y-39421000D01*
X179731587Y-38465192D01*
X179467186Y-38560956D01*
X179326296Y-38850571D01*
X179244616Y-39162108D01*
X179225282Y-39483595D01*
X175351189Y-39483595D01*
X175358718Y-39358405D01*
X175314961Y-39039325D01*
X175209795Y-38734912D01*
X175116814Y-38560956D01*
X174852413Y-38465192D01*
X173896605Y-39421000D01*
X173537395Y-39421000D01*
X172581587Y-38465192D01*
X172317186Y-38560956D01*
X172269101Y-38659800D01*
X171894888Y-38285587D01*
X172761192Y-38285587D01*
X173717000Y-39241395D01*
X174672808Y-38285587D01*
X179911192Y-38285587D01*
X180867000Y-39241395D01*
X181822808Y-38285587D01*
X181727044Y-38021186D01*
X181437429Y-37880296D01*
X181125892Y-37798616D01*
X180804405Y-37779282D01*
X180485325Y-37823039D01*
X180180912Y-37928205D01*
X180006956Y-38021186D01*
X179911192Y-38285587D01*
X174672808Y-38285587D01*
X174577044Y-38021186D01*
X174287429Y-37880296D01*
X173975892Y-37798616D01*
X173654405Y-37779282D01*
X173335325Y-37823039D01*
X173030912Y-37928205D01*
X172856956Y-38021186D01*
X172761192Y-38285587D01*
X171894888Y-38285587D01*
X171722072Y-38112771D01*
X171722072Y-37487000D01*
X171705008Y-37313746D01*
X171681424Y-37236000D01*
X183744001Y-37236000D01*
X183744001Y-43161012D01*
G37*
%TD.AperFunction*%
%TD*%
M02*
