M48
; DRILL file {KiCad (5.1.9-16-g1737927814)-1} date 07/07/21 14:31:41
; FORMAT={-:-/ absolute / inch / decimal}
; #@! TF.CreationDate,2021-07-07T14:31:41-05:00
; #@! TF.GenerationSoftware,Kicad,Pcbnew,(5.1.9-16-g1737927814)-1
; #@! TF.FileFunction,Plated,1,2,PTH
FMAT,2
INCH
T1C0.0157
T2C0.0354
T3C0.0374
T4C0.0394
T5C0.0523
T6C0.0866
T7C0.0906
%
G90
G05
T1
X6.183Y-3.0367
X6.19Y-2.86
X6.19Y-3.09
X6.1981Y-3.1519
X6.2Y-2.92
X6.2Y-2.99
X6.2627Y-2.8646
X6.27Y-3.11
X6.2729Y-3.16
X6.2875Y-2.15
X6.29Y-3.43
X6.3Y-3.59
X6.3947Y-2.6832
X6.4Y-2.45
X6.4Y-2.3777
X6.4046Y-1.9925
X6.4053Y-1.905
X6.41Y-2.16
X6.41Y-2.79
X6.41Y-3.43
X6.4285Y-1.8561
X6.4286Y-2.0852
X6.4286Y-2.2186
X6.44Y-3.17
X6.4631Y-3.0573
X6.4675Y-1.8503
X6.47Y-3.24
X6.49Y-3.32
X6.5094Y-2.3498
X6.51Y-1.93
X6.51Y-3.82
X6.5372Y-2.3776
X6.54Y-1.97
X6.54Y-3.04
X6.543Y-2.7117
X6.55Y-2.81
X6.5674Y-2.1923
X6.58Y-2.13
X6.5968Y-3.6598
X6.6Y-2.94
X6.6016Y-3.2289
X6.61Y-2.88
X6.6102Y-2.0698
X6.62Y-2.2
X6.64Y-3.47
X6.66Y-2.77
X6.66Y-2.94
X6.68Y-1.96
X6.69Y-3.42
X6.7094Y-1.9873
X6.7108Y-3.7263
X6.72Y-3.17
X6.74Y-3.05
X6.7478Y-3.1979
X6.75Y-2.81
X6.75Y-3.11
X6.7923Y-3.7363
X6.7936Y-3.0989
X6.821Y-2.9932
X6.822Y-2.7654
X6.831Y-3.159
X6.8595Y-3.212
X6.87Y-2.8
X6.88Y-2.48
X6.8828Y-2.6156
X6.89Y-3.06
X6.89Y-3.41
X6.8958Y-2.99
X6.9039Y-3.21
X6.9169Y-2.567
X6.92Y-3.11
X6.9273Y-3.0364
X6.97Y-2.73
X6.97Y-3.31
X6.974Y-2.5843
X6.9803Y-3.6615
X6.99Y-2.24
X7.0Y-2.48
X7.0Y-3.53
X7.01Y-3.26
X7.0181Y-3.7201
X7.0189Y-3.6105
X7.02Y-2.78
X7.03Y-3.42
X7.046Y-3.074
X7.0514Y-3.6991
X7.09Y-2.89
X7.11Y-3.09
X7.1114Y-3.1744
X7.12Y-3.13
X7.13Y-1.94
X7.1698Y-2.9898
X7.18Y-3.27
X7.1864Y-3.0615
X7.1917Y-3.0225
X7.21Y-2.15
X7.21Y-2.23
X7.2285Y-2.0832
X7.23Y-1.74
X7.2354Y-3.57
T2
X6.1828Y-3.6301
X6.2537Y-3.6301
X6.4663Y-3.6301
X6.5372Y-3.6301
X6.7828Y-3.6301
X6.8537Y-3.6301
X7.0663Y-3.6301
X7.1372Y-3.6301
T3
X6.2444Y-1.8
X6.3428Y-1.8
X6.4216Y-1.8
X6.52Y-1.8
T4
X7.17Y-2.32
X7.17Y-2.42
X7.17Y-2.52
X7.17Y-2.62
X7.17Y-2.72
X7.17Y-2.82
T5
X6.8393Y-1.552
X6.8393Y-1.6878
X7.1207Y-1.552
X7.1207Y-1.6878
T6
X6.36Y-3.7954
X6.96Y-3.7954
T7
X6.1235Y-1.6933
X6.6409Y-1.6933
T4
G00X6.108Y-3.7994
M15
G01X6.108Y-3.8466
M16
G05
G00X6.612Y-3.7994
M15
G01X6.612Y-3.8466
M16
G05
G00X6.708Y-3.7994
M15
G01X6.708Y-3.8466
M16
G05
G00X7.212Y-3.7994
M15
G01X7.212Y-3.8466
M16
G05
T0
M30
