%TF.GenerationSoftware,KiCad,Pcbnew,(5.1.9-16-g1737927814)-1*%
%TF.CreationDate,2021-08-21T21:41:48-05:00*%
%TF.ProjectId,adbuino,61646275-696e-46f2-9e6b-696361645f70,rev?*%
%TF.SameCoordinates,Original*%
%TF.FileFunction,Paste,Top*%
%TF.FilePolarity,Positive*%
%FSLAX46Y46*%
G04 Gerber Fmt 4.6, Leading zero omitted, Abs format (unit mm)*
G04 Created by KiCad (PCBNEW (5.1.9-16-g1737927814)-1) date 2021-08-21 21:41:48*
%MOMM*%
%LPD*%
G01*
G04 APERTURE LIST*
%ADD10C,0.100000*%
%ADD11R,0.800000X0.900000*%
%ADD12R,1.200000X1.400000*%
%ADD13R,1.400000X1.200000*%
%ADD14R,1.500000X2.000000*%
%ADD15R,3.800000X2.000000*%
G04 APERTURE END LIST*
D10*
%TO.C,IC1*%
G36*
X39707382Y-50111624D02*
G01*
X38664400Y-51154606D01*
X38452268Y-50942474D01*
X39495250Y-49899492D01*
X39707382Y-50111624D01*
G37*
G36*
X39353829Y-49758070D02*
G01*
X38310847Y-50801052D01*
X38098715Y-50588920D01*
X39141697Y-49545938D01*
X39353829Y-49758070D01*
G37*
G36*
X39000275Y-49404517D02*
G01*
X37957293Y-50447499D01*
X37745161Y-50235367D01*
X38788143Y-49192385D01*
X39000275Y-49404517D01*
G37*
G36*
X38646722Y-49050963D02*
G01*
X37603740Y-50093945D01*
X37391608Y-49881813D01*
X38434590Y-48838831D01*
X38646722Y-49050963D01*
G37*
G36*
X38293169Y-48697410D02*
G01*
X37250187Y-49740392D01*
X37038055Y-49528260D01*
X38081037Y-48485278D01*
X38293169Y-48697410D01*
G37*
G36*
X37939615Y-48343857D02*
G01*
X36896633Y-49386839D01*
X36684501Y-49174707D01*
X37727483Y-48131725D01*
X37939615Y-48343857D01*
G37*
G36*
X37586062Y-47990303D02*
G01*
X36543080Y-49033285D01*
X36330948Y-48821153D01*
X37373930Y-47778171D01*
X37586062Y-47990303D01*
G37*
G36*
X37232508Y-47636750D02*
G01*
X36189526Y-48679732D01*
X35977394Y-48467600D01*
X37020376Y-47424618D01*
X37232508Y-47636750D01*
G37*
G36*
X36189526Y-45320268D02*
G01*
X37232508Y-46363250D01*
X37020376Y-46575382D01*
X35977394Y-45532400D01*
X36189526Y-45320268D01*
G37*
G36*
X36543080Y-44966715D02*
G01*
X37586062Y-46009697D01*
X37373930Y-46221829D01*
X36330948Y-45178847D01*
X36543080Y-44966715D01*
G37*
G36*
X36896633Y-44613161D02*
G01*
X37939615Y-45656143D01*
X37727483Y-45868275D01*
X36684501Y-44825293D01*
X36896633Y-44613161D01*
G37*
G36*
X37250187Y-44259608D02*
G01*
X38293169Y-45302590D01*
X38081037Y-45514722D01*
X37038055Y-44471740D01*
X37250187Y-44259608D01*
G37*
G36*
X37603740Y-43906055D02*
G01*
X38646722Y-44949037D01*
X38434590Y-45161169D01*
X37391608Y-44118187D01*
X37603740Y-43906055D01*
G37*
G36*
X37957293Y-43552501D02*
G01*
X39000275Y-44595483D01*
X38788143Y-44807615D01*
X37745161Y-43764633D01*
X37957293Y-43552501D01*
G37*
G36*
X38310847Y-43198948D02*
G01*
X39353829Y-44241930D01*
X39141697Y-44454062D01*
X38098715Y-43411080D01*
X38310847Y-43198948D01*
G37*
G36*
X38664400Y-42845394D02*
G01*
X39707382Y-43888376D01*
X39495250Y-44100508D01*
X38452268Y-43057526D01*
X38664400Y-42845394D01*
G37*
G36*
X41811732Y-43057526D02*
G01*
X40768750Y-44100508D01*
X40556618Y-43888376D01*
X41599600Y-42845394D01*
X41811732Y-43057526D01*
G37*
G36*
X42165285Y-43411080D02*
G01*
X41122303Y-44454062D01*
X40910171Y-44241930D01*
X41953153Y-43198948D01*
X42165285Y-43411080D01*
G37*
G36*
X42518839Y-43764633D02*
G01*
X41475857Y-44807615D01*
X41263725Y-44595483D01*
X42306707Y-43552501D01*
X42518839Y-43764633D01*
G37*
G36*
X42872392Y-44118187D02*
G01*
X41829410Y-45161169D01*
X41617278Y-44949037D01*
X42660260Y-43906055D01*
X42872392Y-44118187D01*
G37*
G36*
X43225945Y-44471740D02*
G01*
X42182963Y-45514722D01*
X41970831Y-45302590D01*
X43013813Y-44259608D01*
X43225945Y-44471740D01*
G37*
G36*
X43579499Y-44825293D02*
G01*
X42536517Y-45868275D01*
X42324385Y-45656143D01*
X43367367Y-44613161D01*
X43579499Y-44825293D01*
G37*
G36*
X43933052Y-45178847D02*
G01*
X42890070Y-46221829D01*
X42677938Y-46009697D01*
X43720920Y-44966715D01*
X43933052Y-45178847D01*
G37*
G36*
X44286606Y-45532400D02*
G01*
X43243624Y-46575382D01*
X43031492Y-46363250D01*
X44074474Y-45320268D01*
X44286606Y-45532400D01*
G37*
G36*
X43243624Y-47424618D02*
G01*
X44286606Y-48467600D01*
X44074474Y-48679732D01*
X43031492Y-47636750D01*
X43243624Y-47424618D01*
G37*
G36*
X42890070Y-47778171D02*
G01*
X43933052Y-48821153D01*
X43720920Y-49033285D01*
X42677938Y-47990303D01*
X42890070Y-47778171D01*
G37*
G36*
X42536517Y-48131725D02*
G01*
X43579499Y-49174707D01*
X43367367Y-49386839D01*
X42324385Y-48343857D01*
X42536517Y-48131725D01*
G37*
G36*
X42182963Y-48485278D02*
G01*
X43225945Y-49528260D01*
X43013813Y-49740392D01*
X41970831Y-48697410D01*
X42182963Y-48485278D01*
G37*
G36*
X41829410Y-48838831D02*
G01*
X42872392Y-49881813D01*
X42660260Y-50093945D01*
X41617278Y-49050963D01*
X41829410Y-48838831D01*
G37*
G36*
X41475857Y-49192385D02*
G01*
X42518839Y-50235367D01*
X42306707Y-50447499D01*
X41263725Y-49404517D01*
X41475857Y-49192385D01*
G37*
G36*
X41122303Y-49545938D02*
G01*
X42165285Y-50588920D01*
X41953153Y-50801052D01*
X40910171Y-49758070D01*
X41122303Y-49545938D01*
G37*
G36*
X40768750Y-49899492D02*
G01*
X41811732Y-50942474D01*
X41599600Y-51154606D01*
X40556618Y-50111624D01*
X40768750Y-49899492D01*
G37*
%TD*%
%TO.C,R16*%
G36*
G01*
X45004520Y-43649109D02*
X44742891Y-43387480D01*
G75*
G02*
X44742891Y-43196562I95459J95459D01*
G01*
X44933810Y-43005643D01*
G75*
G02*
X45124728Y-43005643I95459J-95459D01*
G01*
X45386357Y-43267272D01*
G75*
G02*
X45386357Y-43458190I-95459J-95459D01*
G01*
X45195438Y-43649109D01*
G75*
G02*
X45004520Y-43649109I-95459J95459D01*
G01*
G37*
G36*
G01*
X44283272Y-44370357D02*
X44021643Y-44108728D01*
G75*
G02*
X44021643Y-43917810I95459J95459D01*
G01*
X44212562Y-43726891D01*
G75*
G02*
X44403480Y-43726891I95459J-95459D01*
G01*
X44665109Y-43988520D01*
G75*
G02*
X44665109Y-44179438I-95459J-95459D01*
G01*
X44474190Y-44370357D01*
G75*
G02*
X44283272Y-44370357I-95459J95459D01*
G01*
G37*
%TD*%
%TO.C,R14*%
G36*
G01*
X42718520Y-41363109D02*
X42456891Y-41101480D01*
G75*
G02*
X42456891Y-40910562I95459J95459D01*
G01*
X42647810Y-40719643D01*
G75*
G02*
X42838728Y-40719643I95459J-95459D01*
G01*
X43100357Y-40981272D01*
G75*
G02*
X43100357Y-41172190I-95459J-95459D01*
G01*
X42909438Y-41363109D01*
G75*
G02*
X42718520Y-41363109I-95459J95459D01*
G01*
G37*
G36*
G01*
X41997272Y-42084357D02*
X41735643Y-41822728D01*
G75*
G02*
X41735643Y-41631810I95459J95459D01*
G01*
X41926562Y-41440891D01*
G75*
G02*
X42117480Y-41440891I95459J-95459D01*
G01*
X42379109Y-41702520D01*
G75*
G02*
X42379109Y-41893438I-95459J-95459D01*
G01*
X42188190Y-42084357D01*
G75*
G02*
X41997272Y-42084357I-95459J95459D01*
G01*
G37*
%TD*%
%TO.C,R13*%
G36*
G01*
X44242520Y-42887109D02*
X43980891Y-42625480D01*
G75*
G02*
X43980891Y-42434562I95459J95459D01*
G01*
X44171810Y-42243643D01*
G75*
G02*
X44362728Y-42243643I95459J-95459D01*
G01*
X44624357Y-42505272D01*
G75*
G02*
X44624357Y-42696190I-95459J-95459D01*
G01*
X44433438Y-42887109D01*
G75*
G02*
X44242520Y-42887109I-95459J95459D01*
G01*
G37*
G36*
G01*
X43521272Y-43608357D02*
X43259643Y-43346728D01*
G75*
G02*
X43259643Y-43155810I95459J95459D01*
G01*
X43450562Y-42964891D01*
G75*
G02*
X43641480Y-42964891I95459J-95459D01*
G01*
X43903109Y-43226520D01*
G75*
G02*
X43903109Y-43417438I-95459J-95459D01*
G01*
X43712190Y-43608357D01*
G75*
G02*
X43521272Y-43608357I-95459J95459D01*
G01*
G37*
%TD*%
%TO.C,R15*%
G36*
G01*
X43480520Y-42125109D02*
X43218891Y-41863480D01*
G75*
G02*
X43218891Y-41672562I95459J95459D01*
G01*
X43409810Y-41481643D01*
G75*
G02*
X43600728Y-41481643I95459J-95459D01*
G01*
X43862357Y-41743272D01*
G75*
G02*
X43862357Y-41934190I-95459J-95459D01*
G01*
X43671438Y-42125109D01*
G75*
G02*
X43480520Y-42125109I-95459J95459D01*
G01*
G37*
G36*
G01*
X42759272Y-42846357D02*
X42497643Y-42584728D01*
G75*
G02*
X42497643Y-42393810I95459J95459D01*
G01*
X42688562Y-42202891D01*
G75*
G02*
X42879480Y-42202891I95459J-95459D01*
G01*
X43141109Y-42464520D01*
G75*
G02*
X43141109Y-42655438I-95459J-95459D01*
G01*
X42950190Y-42846357D01*
G75*
G02*
X42759272Y-42846357I-95459J95459D01*
G01*
G37*
%TD*%
D11*
%TO.C,Q1*%
X45974000Y-69866000D03*
X46924000Y-71866000D03*
X45024000Y-71866000D03*
%TD*%
%TO.C,C12*%
G36*
G01*
X35106000Y-42756000D02*
X35106000Y-43096000D01*
G75*
G02*
X34966000Y-43236000I-140000J0D01*
G01*
X34686000Y-43236000D01*
G75*
G02*
X34546000Y-43096000I0J140000D01*
G01*
X34546000Y-42756000D01*
G75*
G02*
X34686000Y-42616000I140000J0D01*
G01*
X34966000Y-42616000D01*
G75*
G02*
X35106000Y-42756000I0J-140000D01*
G01*
G37*
G36*
G01*
X36066000Y-42756000D02*
X36066000Y-43096000D01*
G75*
G02*
X35926000Y-43236000I-140000J0D01*
G01*
X35646000Y-43236000D01*
G75*
G02*
X35506000Y-43096000I0J140000D01*
G01*
X35506000Y-42756000D01*
G75*
G02*
X35646000Y-42616000I140000J0D01*
G01*
X35926000Y-42616000D01*
G75*
G02*
X36066000Y-42756000I0J-140000D01*
G01*
G37*
%TD*%
D12*
%TO.C,Y2*%
X32854000Y-45900000D03*
X32854000Y-48100000D03*
X31154000Y-48100000D03*
X31154000Y-45900000D03*
%TD*%
%TO.C,C13*%
G36*
G01*
X45890000Y-49838000D02*
X45550000Y-49838000D01*
G75*
G02*
X45410000Y-49698000I0J140000D01*
G01*
X45410000Y-49418000D01*
G75*
G02*
X45550000Y-49278000I140000J0D01*
G01*
X45890000Y-49278000D01*
G75*
G02*
X46030000Y-49418000I0J-140000D01*
G01*
X46030000Y-49698000D01*
G75*
G02*
X45890000Y-49838000I-140000J0D01*
G01*
G37*
G36*
G01*
X45890000Y-50798000D02*
X45550000Y-50798000D01*
G75*
G02*
X45410000Y-50658000I0J140000D01*
G01*
X45410000Y-50378000D01*
G75*
G02*
X45550000Y-50238000I140000J0D01*
G01*
X45890000Y-50238000D01*
G75*
G02*
X46030000Y-50378000I0J-140000D01*
G01*
X46030000Y-50658000D01*
G75*
G02*
X45890000Y-50798000I-140000J0D01*
G01*
G37*
%TD*%
%TO.C,R12*%
G36*
G01*
X26296200Y-53491160D02*
X25926200Y-53491160D01*
G75*
G02*
X25791200Y-53356160I0J135000D01*
G01*
X25791200Y-53086160D01*
G75*
G02*
X25926200Y-52951160I135000J0D01*
G01*
X26296200Y-52951160D01*
G75*
G02*
X26431200Y-53086160I0J-135000D01*
G01*
X26431200Y-53356160D01*
G75*
G02*
X26296200Y-53491160I-135000J0D01*
G01*
G37*
G36*
G01*
X26296200Y-54511160D02*
X25926200Y-54511160D01*
G75*
G02*
X25791200Y-54376160I0J135000D01*
G01*
X25791200Y-54106160D01*
G75*
G02*
X25926200Y-53971160I135000J0D01*
G01*
X26296200Y-53971160D01*
G75*
G02*
X26431200Y-54106160I0J-135000D01*
G01*
X26431200Y-54376160D01*
G75*
G02*
X26296200Y-54511160I-135000J0D01*
G01*
G37*
%TD*%
%TO.C,R11*%
G36*
G01*
X36137000Y-72122000D02*
X36507000Y-72122000D01*
G75*
G02*
X36642000Y-72257000I0J-135000D01*
G01*
X36642000Y-72527000D01*
G75*
G02*
X36507000Y-72662000I-135000J0D01*
G01*
X36137000Y-72662000D01*
G75*
G02*
X36002000Y-72527000I0J135000D01*
G01*
X36002000Y-72257000D01*
G75*
G02*
X36137000Y-72122000I135000J0D01*
G01*
G37*
G36*
G01*
X36137000Y-71102000D02*
X36507000Y-71102000D01*
G75*
G02*
X36642000Y-71237000I0J-135000D01*
G01*
X36642000Y-71507000D01*
G75*
G02*
X36507000Y-71642000I-135000J0D01*
G01*
X36137000Y-71642000D01*
G75*
G02*
X36002000Y-71507000I0J135000D01*
G01*
X36002000Y-71237000D01*
G75*
G02*
X36137000Y-71102000I135000J0D01*
G01*
G37*
%TD*%
%TO.C,R10*%
G36*
G01*
X36507000Y-73674000D02*
X36137000Y-73674000D01*
G75*
G02*
X36002000Y-73539000I0J135000D01*
G01*
X36002000Y-73269000D01*
G75*
G02*
X36137000Y-73134000I135000J0D01*
G01*
X36507000Y-73134000D01*
G75*
G02*
X36642000Y-73269000I0J-135000D01*
G01*
X36642000Y-73539000D01*
G75*
G02*
X36507000Y-73674000I-135000J0D01*
G01*
G37*
G36*
G01*
X36507000Y-74694000D02*
X36137000Y-74694000D01*
G75*
G02*
X36002000Y-74559000I0J135000D01*
G01*
X36002000Y-74289000D01*
G75*
G02*
X36137000Y-74154000I135000J0D01*
G01*
X36507000Y-74154000D01*
G75*
G02*
X36642000Y-74289000I0J-135000D01*
G01*
X36642000Y-74559000D01*
G75*
G02*
X36507000Y-74694000I-135000J0D01*
G01*
G37*
%TD*%
%TO.C,R9*%
G36*
G01*
X38423000Y-72122000D02*
X38793000Y-72122000D01*
G75*
G02*
X38928000Y-72257000I0J-135000D01*
G01*
X38928000Y-72527000D01*
G75*
G02*
X38793000Y-72662000I-135000J0D01*
G01*
X38423000Y-72662000D01*
G75*
G02*
X38288000Y-72527000I0J135000D01*
G01*
X38288000Y-72257000D01*
G75*
G02*
X38423000Y-72122000I135000J0D01*
G01*
G37*
G36*
G01*
X38423000Y-71102000D02*
X38793000Y-71102000D01*
G75*
G02*
X38928000Y-71237000I0J-135000D01*
G01*
X38928000Y-71507000D01*
G75*
G02*
X38793000Y-71642000I-135000J0D01*
G01*
X38423000Y-71642000D01*
G75*
G02*
X38288000Y-71507000I0J135000D01*
G01*
X38288000Y-71237000D01*
G75*
G02*
X38423000Y-71102000I135000J0D01*
G01*
G37*
%TD*%
%TO.C,R8*%
G36*
G01*
X38793000Y-73674000D02*
X38423000Y-73674000D01*
G75*
G02*
X38288000Y-73539000I0J135000D01*
G01*
X38288000Y-73269000D01*
G75*
G02*
X38423000Y-73134000I135000J0D01*
G01*
X38793000Y-73134000D01*
G75*
G02*
X38928000Y-73269000I0J-135000D01*
G01*
X38928000Y-73539000D01*
G75*
G02*
X38793000Y-73674000I-135000J0D01*
G01*
G37*
G36*
G01*
X38793000Y-74694000D02*
X38423000Y-74694000D01*
G75*
G02*
X38288000Y-74559000I0J135000D01*
G01*
X38288000Y-74289000D01*
G75*
G02*
X38423000Y-74154000I135000J0D01*
G01*
X38793000Y-74154000D01*
G75*
G02*
X38928000Y-74289000I0J-135000D01*
G01*
X38928000Y-74559000D01*
G75*
G02*
X38793000Y-74694000I-135000J0D01*
G01*
G37*
%TD*%
%TO.C,R7*%
G36*
G01*
X39638000Y-31819000D02*
X39638000Y-32189000D01*
G75*
G02*
X39503000Y-32324000I-135000J0D01*
G01*
X39233000Y-32324000D01*
G75*
G02*
X39098000Y-32189000I0J135000D01*
G01*
X39098000Y-31819000D01*
G75*
G02*
X39233000Y-31684000I135000J0D01*
G01*
X39503000Y-31684000D01*
G75*
G02*
X39638000Y-31819000I0J-135000D01*
G01*
G37*
G36*
G01*
X40658000Y-31819000D02*
X40658000Y-32189000D01*
G75*
G02*
X40523000Y-32324000I-135000J0D01*
G01*
X40253000Y-32324000D01*
G75*
G02*
X40118000Y-32189000I0J135000D01*
G01*
X40118000Y-31819000D01*
G75*
G02*
X40253000Y-31684000I135000J0D01*
G01*
X40523000Y-31684000D01*
G75*
G02*
X40658000Y-31819000I0J-135000D01*
G01*
G37*
%TD*%
%TO.C,R6*%
G36*
G01*
X40116000Y-34729000D02*
X40116000Y-34359000D01*
G75*
G02*
X40251000Y-34224000I135000J0D01*
G01*
X40521000Y-34224000D01*
G75*
G02*
X40656000Y-34359000I0J-135000D01*
G01*
X40656000Y-34729000D01*
G75*
G02*
X40521000Y-34864000I-135000J0D01*
G01*
X40251000Y-34864000D01*
G75*
G02*
X40116000Y-34729000I0J135000D01*
G01*
G37*
G36*
G01*
X39096000Y-34729000D02*
X39096000Y-34359000D01*
G75*
G02*
X39231000Y-34224000I135000J0D01*
G01*
X39501000Y-34224000D01*
G75*
G02*
X39636000Y-34359000I0J-135000D01*
G01*
X39636000Y-34729000D01*
G75*
G02*
X39501000Y-34864000I-135000J0D01*
G01*
X39231000Y-34864000D01*
G75*
G02*
X39096000Y-34729000I0J135000D01*
G01*
G37*
%TD*%
%TO.C,R5*%
G36*
G01*
X30024640Y-40983320D02*
X30024640Y-41353320D01*
G75*
G02*
X29889640Y-41488320I-135000J0D01*
G01*
X29619640Y-41488320D01*
G75*
G02*
X29484640Y-41353320I0J135000D01*
G01*
X29484640Y-40983320D01*
G75*
G02*
X29619640Y-40848320I135000J0D01*
G01*
X29889640Y-40848320D01*
G75*
G02*
X30024640Y-40983320I0J-135000D01*
G01*
G37*
G36*
G01*
X31044640Y-40983320D02*
X31044640Y-41353320D01*
G75*
G02*
X30909640Y-41488320I-135000J0D01*
G01*
X30639640Y-41488320D01*
G75*
G02*
X30504640Y-41353320I0J135000D01*
G01*
X30504640Y-40983320D01*
G75*
G02*
X30639640Y-40848320I135000J0D01*
G01*
X30909640Y-40848320D01*
G75*
G02*
X31044640Y-40983320I0J-135000D01*
G01*
G37*
%TD*%
%TO.C,R4*%
G36*
G01*
X30019560Y-41994240D02*
X30019560Y-42364240D01*
G75*
G02*
X29884560Y-42499240I-135000J0D01*
G01*
X29614560Y-42499240D01*
G75*
G02*
X29479560Y-42364240I0J135000D01*
G01*
X29479560Y-41994240D01*
G75*
G02*
X29614560Y-41859240I135000J0D01*
G01*
X29884560Y-41859240D01*
G75*
G02*
X30019560Y-41994240I0J-135000D01*
G01*
G37*
G36*
G01*
X31039560Y-41994240D02*
X31039560Y-42364240D01*
G75*
G02*
X30904560Y-42499240I-135000J0D01*
G01*
X30634560Y-42499240D01*
G75*
G02*
X30499560Y-42364240I0J135000D01*
G01*
X30499560Y-41994240D01*
G75*
G02*
X30634560Y-41859240I135000J0D01*
G01*
X30904560Y-41859240D01*
G75*
G02*
X31039560Y-41994240I0J-135000D01*
G01*
G37*
%TD*%
%TO.C,R3*%
G36*
G01*
X37407000Y-41896000D02*
X37777000Y-41896000D01*
G75*
G02*
X37912000Y-42031000I0J-135000D01*
G01*
X37912000Y-42301000D01*
G75*
G02*
X37777000Y-42436000I-135000J0D01*
G01*
X37407000Y-42436000D01*
G75*
G02*
X37272000Y-42301000I0J135000D01*
G01*
X37272000Y-42031000D01*
G75*
G02*
X37407000Y-41896000I135000J0D01*
G01*
G37*
G36*
G01*
X37407000Y-40876000D02*
X37777000Y-40876000D01*
G75*
G02*
X37912000Y-41011000I0J-135000D01*
G01*
X37912000Y-41281000D01*
G75*
G02*
X37777000Y-41416000I-135000J0D01*
G01*
X37407000Y-41416000D01*
G75*
G02*
X37272000Y-41281000I0J135000D01*
G01*
X37272000Y-41011000D01*
G75*
G02*
X37407000Y-40876000I135000J0D01*
G01*
G37*
%TD*%
%TO.C,R2*%
G36*
G01*
X42434000Y-68014000D02*
X42434000Y-68384000D01*
G75*
G02*
X42299000Y-68519000I-135000J0D01*
G01*
X42029000Y-68519000D01*
G75*
G02*
X41894000Y-68384000I0J135000D01*
G01*
X41894000Y-68014000D01*
G75*
G02*
X42029000Y-67879000I135000J0D01*
G01*
X42299000Y-67879000D01*
G75*
G02*
X42434000Y-68014000I0J-135000D01*
G01*
G37*
G36*
G01*
X43454000Y-68014000D02*
X43454000Y-68384000D01*
G75*
G02*
X43319000Y-68519000I-135000J0D01*
G01*
X43049000Y-68519000D01*
G75*
G02*
X42914000Y-68384000I0J135000D01*
G01*
X42914000Y-68014000D01*
G75*
G02*
X43049000Y-67879000I135000J0D01*
G01*
X43319000Y-67879000D01*
G75*
G02*
X43454000Y-68014000I0J-135000D01*
G01*
G37*
%TD*%
%TO.C,R1*%
G36*
G01*
X43446000Y-52901000D02*
X43446000Y-53271000D01*
G75*
G02*
X43311000Y-53406000I-135000J0D01*
G01*
X43041000Y-53406000D01*
G75*
G02*
X42906000Y-53271000I0J135000D01*
G01*
X42906000Y-52901000D01*
G75*
G02*
X43041000Y-52766000I135000J0D01*
G01*
X43311000Y-52766000D01*
G75*
G02*
X43446000Y-52901000I0J-135000D01*
G01*
G37*
G36*
G01*
X44466000Y-52901000D02*
X44466000Y-53271000D01*
G75*
G02*
X44331000Y-53406000I-135000J0D01*
G01*
X44061000Y-53406000D01*
G75*
G02*
X43926000Y-53271000I0J135000D01*
G01*
X43926000Y-52901000D01*
G75*
G02*
X44061000Y-52766000I135000J0D01*
G01*
X44331000Y-52766000D01*
G75*
G02*
X44466000Y-52901000I0J-135000D01*
G01*
G37*
%TD*%
%TO.C,C16*%
G36*
G01*
X31773800Y-67703002D02*
X32014216Y-67943418D01*
G75*
G02*
X32014216Y-68141408I-98995J-98995D01*
G01*
X31816226Y-68339398D01*
G75*
G02*
X31618236Y-68339398I-98995J98995D01*
G01*
X31377820Y-68098982D01*
G75*
G02*
X31377820Y-67900992I98995J98995D01*
G01*
X31575810Y-67703002D01*
G75*
G02*
X31773800Y-67703002I98995J-98995D01*
G01*
G37*
G36*
G01*
X32452622Y-67024180D02*
X32693038Y-67264596D01*
G75*
G02*
X32693038Y-67462586I-98995J-98995D01*
G01*
X32495048Y-67660576D01*
G75*
G02*
X32297058Y-67660576I-98995J98995D01*
G01*
X32056642Y-67420160D01*
G75*
G02*
X32056642Y-67222170I98995J98995D01*
G01*
X32254632Y-67024180D01*
G75*
G02*
X32452622Y-67024180I98995J-98995D01*
G01*
G37*
%TD*%
%TO.C,C15*%
G36*
G01*
X42439213Y-60713629D02*
X42679629Y-60473213D01*
G75*
G02*
X42877619Y-60473213I98995J-98995D01*
G01*
X43075609Y-60671203D01*
G75*
G02*
X43075609Y-60869193I-98995J-98995D01*
G01*
X42835193Y-61109609D01*
G75*
G02*
X42637203Y-61109609I-98995J98995D01*
G01*
X42439213Y-60911619D01*
G75*
G02*
X42439213Y-60713629I98995J98995D01*
G01*
G37*
G36*
G01*
X41760391Y-60034807D02*
X42000807Y-59794391D01*
G75*
G02*
X42198797Y-59794391I98995J-98995D01*
G01*
X42396787Y-59992381D01*
G75*
G02*
X42396787Y-60190371I-98995J-98995D01*
G01*
X42156371Y-60430787D01*
G75*
G02*
X41958381Y-60430787I-98995J98995D01*
G01*
X41760391Y-60232797D01*
G75*
G02*
X41760391Y-60034807I98995J98995D01*
G01*
G37*
%TD*%
%TO.C,C14*%
G36*
G01*
X40915213Y-59189629D02*
X41155629Y-58949213D01*
G75*
G02*
X41353619Y-58949213I98995J-98995D01*
G01*
X41551609Y-59147203D01*
G75*
G02*
X41551609Y-59345193I-98995J-98995D01*
G01*
X41311193Y-59585609D01*
G75*
G02*
X41113203Y-59585609I-98995J98995D01*
G01*
X40915213Y-59387619D01*
G75*
G02*
X40915213Y-59189629I98995J98995D01*
G01*
G37*
G36*
G01*
X40236391Y-58510807D02*
X40476807Y-58270391D01*
G75*
G02*
X40674797Y-58270391I98995J-98995D01*
G01*
X40872787Y-58468381D01*
G75*
G02*
X40872787Y-58666371I-98995J-98995D01*
G01*
X40632371Y-58906787D01*
G75*
G02*
X40434381Y-58906787I-98995J98995D01*
G01*
X40236391Y-58708797D01*
G75*
G02*
X40236391Y-58510807I98995J98995D01*
G01*
G37*
%TD*%
%TO.C,C11*%
G36*
G01*
X29548000Y-46682000D02*
X29888000Y-46682000D01*
G75*
G02*
X30028000Y-46822000I0J-140000D01*
G01*
X30028000Y-47102000D01*
G75*
G02*
X29888000Y-47242000I-140000J0D01*
G01*
X29548000Y-47242000D01*
G75*
G02*
X29408000Y-47102000I0J140000D01*
G01*
X29408000Y-46822000D01*
G75*
G02*
X29548000Y-46682000I140000J0D01*
G01*
G37*
G36*
G01*
X29548000Y-45722000D02*
X29888000Y-45722000D01*
G75*
G02*
X30028000Y-45862000I0J-140000D01*
G01*
X30028000Y-46142000D01*
G75*
G02*
X29888000Y-46282000I-140000J0D01*
G01*
X29548000Y-46282000D01*
G75*
G02*
X29408000Y-46142000I0J140000D01*
G01*
X29408000Y-45862000D01*
G75*
G02*
X29548000Y-45722000I140000J0D01*
G01*
G37*
%TD*%
%TO.C,C10*%
G36*
G01*
X35390000Y-50238000D02*
X35730000Y-50238000D01*
G75*
G02*
X35870000Y-50378000I0J-140000D01*
G01*
X35870000Y-50658000D01*
G75*
G02*
X35730000Y-50798000I-140000J0D01*
G01*
X35390000Y-50798000D01*
G75*
G02*
X35250000Y-50658000I0J140000D01*
G01*
X35250000Y-50378000D01*
G75*
G02*
X35390000Y-50238000I140000J0D01*
G01*
G37*
G36*
G01*
X35390000Y-49278000D02*
X35730000Y-49278000D01*
G75*
G02*
X35870000Y-49418000I0J-140000D01*
G01*
X35870000Y-49698000D01*
G75*
G02*
X35730000Y-49838000I-140000J0D01*
G01*
X35390000Y-49838000D01*
G75*
G02*
X35250000Y-49698000I0J140000D01*
G01*
X35250000Y-49418000D01*
G75*
G02*
X35390000Y-49278000I140000J0D01*
G01*
G37*
%TD*%
%TO.C,C9*%
G36*
G01*
X35106000Y-44280000D02*
X35106000Y-44620000D01*
G75*
G02*
X34966000Y-44760000I-140000J0D01*
G01*
X34686000Y-44760000D01*
G75*
G02*
X34546000Y-44620000I0J140000D01*
G01*
X34546000Y-44280000D01*
G75*
G02*
X34686000Y-44140000I140000J0D01*
G01*
X34966000Y-44140000D01*
G75*
G02*
X35106000Y-44280000I0J-140000D01*
G01*
G37*
G36*
G01*
X36066000Y-44280000D02*
X36066000Y-44620000D01*
G75*
G02*
X35926000Y-44760000I-140000J0D01*
G01*
X35646000Y-44760000D01*
G75*
G02*
X35506000Y-44620000I0J140000D01*
G01*
X35506000Y-44280000D01*
G75*
G02*
X35646000Y-44140000I140000J0D01*
G01*
X35926000Y-44140000D01*
G75*
G02*
X36066000Y-44280000I0J-140000D01*
G01*
G37*
%TD*%
%TO.C,C8*%
G36*
G01*
X43187629Y-51032787D02*
X42947213Y-50792371D01*
G75*
G02*
X42947213Y-50594381I98995J98995D01*
G01*
X43145203Y-50396391D01*
G75*
G02*
X43343193Y-50396391I98995J-98995D01*
G01*
X43583609Y-50636807D01*
G75*
G02*
X43583609Y-50834797I-98995J-98995D01*
G01*
X43385619Y-51032787D01*
G75*
G02*
X43187629Y-51032787I-98995J98995D01*
G01*
G37*
G36*
G01*
X42508807Y-51711609D02*
X42268391Y-51471193D01*
G75*
G02*
X42268391Y-51273203I98995J98995D01*
G01*
X42466381Y-51075213D01*
G75*
G02*
X42664371Y-51075213I98995J-98995D01*
G01*
X42904787Y-51315629D01*
G75*
G02*
X42904787Y-51513619I-98995J-98995D01*
G01*
X42706797Y-51711609D01*
G75*
G02*
X42508807Y-51711609I-98995J98995D01*
G01*
G37*
%TD*%
%TO.C,C7*%
G36*
G01*
X40302000Y-54410000D02*
X39962000Y-54410000D01*
G75*
G02*
X39822000Y-54270000I0J140000D01*
G01*
X39822000Y-53990000D01*
G75*
G02*
X39962000Y-53850000I140000J0D01*
G01*
X40302000Y-53850000D01*
G75*
G02*
X40442000Y-53990000I0J-140000D01*
G01*
X40442000Y-54270000D01*
G75*
G02*
X40302000Y-54410000I-140000J0D01*
G01*
G37*
G36*
G01*
X40302000Y-55370000D02*
X39962000Y-55370000D01*
G75*
G02*
X39822000Y-55230000I0J140000D01*
G01*
X39822000Y-54950000D01*
G75*
G02*
X39962000Y-54810000I140000J0D01*
G01*
X40302000Y-54810000D01*
G75*
G02*
X40442000Y-54950000I0J-140000D01*
G01*
X40442000Y-55230000D01*
G75*
G02*
X40302000Y-55370000I-140000J0D01*
G01*
G37*
%TD*%
%TO.C,C6*%
G36*
G01*
X45296000Y-54810000D02*
X45636000Y-54810000D01*
G75*
G02*
X45776000Y-54950000I0J-140000D01*
G01*
X45776000Y-55230000D01*
G75*
G02*
X45636000Y-55370000I-140000J0D01*
G01*
X45296000Y-55370000D01*
G75*
G02*
X45156000Y-55230000I0J140000D01*
G01*
X45156000Y-54950000D01*
G75*
G02*
X45296000Y-54810000I140000J0D01*
G01*
G37*
G36*
G01*
X45296000Y-53850000D02*
X45636000Y-53850000D01*
G75*
G02*
X45776000Y-53990000I0J-140000D01*
G01*
X45776000Y-54270000D01*
G75*
G02*
X45636000Y-54410000I-140000J0D01*
G01*
X45296000Y-54410000D01*
G75*
G02*
X45156000Y-54270000I0J140000D01*
G01*
X45156000Y-53990000D01*
G75*
G02*
X45296000Y-53850000I140000J0D01*
G01*
G37*
%TD*%
%TO.C,C5*%
G36*
G01*
X44299960Y-66376000D02*
X43959960Y-66376000D01*
G75*
G02*
X43819960Y-66236000I0J140000D01*
G01*
X43819960Y-65956000D01*
G75*
G02*
X43959960Y-65816000I140000J0D01*
G01*
X44299960Y-65816000D01*
G75*
G02*
X44439960Y-65956000I0J-140000D01*
G01*
X44439960Y-66236000D01*
G75*
G02*
X44299960Y-66376000I-140000J0D01*
G01*
G37*
G36*
G01*
X44299960Y-67336000D02*
X43959960Y-67336000D01*
G75*
G02*
X43819960Y-67196000I0J140000D01*
G01*
X43819960Y-66916000D01*
G75*
G02*
X43959960Y-66776000I140000J0D01*
G01*
X44299960Y-66776000D01*
G75*
G02*
X44439960Y-66916000I0J-140000D01*
G01*
X44439960Y-67196000D01*
G75*
G02*
X44299960Y-67336000I-140000J0D01*
G01*
G37*
%TD*%
%TO.C,C4*%
G36*
G01*
X31188000Y-39032000D02*
X31188000Y-38692000D01*
G75*
G02*
X31328000Y-38552000I140000J0D01*
G01*
X31608000Y-38552000D01*
G75*
G02*
X31748000Y-38692000I0J-140000D01*
G01*
X31748000Y-39032000D01*
G75*
G02*
X31608000Y-39172000I-140000J0D01*
G01*
X31328000Y-39172000D01*
G75*
G02*
X31188000Y-39032000I0J140000D01*
G01*
G37*
G36*
G01*
X30228000Y-39032000D02*
X30228000Y-38692000D01*
G75*
G02*
X30368000Y-38552000I140000J0D01*
G01*
X30648000Y-38552000D01*
G75*
G02*
X30788000Y-38692000I0J-140000D01*
G01*
X30788000Y-39032000D01*
G75*
G02*
X30648000Y-39172000I-140000J0D01*
G01*
X30368000Y-39172000D01*
G75*
G02*
X30228000Y-39032000I0J140000D01*
G01*
G37*
%TD*%
%TO.C,C3*%
G36*
G01*
X28756000Y-38692000D02*
X28756000Y-39032000D01*
G75*
G02*
X28616000Y-39172000I-140000J0D01*
G01*
X28336000Y-39172000D01*
G75*
G02*
X28196000Y-39032000I0J140000D01*
G01*
X28196000Y-38692000D01*
G75*
G02*
X28336000Y-38552000I140000J0D01*
G01*
X28616000Y-38552000D01*
G75*
G02*
X28756000Y-38692000I0J-140000D01*
G01*
G37*
G36*
G01*
X29716000Y-38692000D02*
X29716000Y-39032000D01*
G75*
G02*
X29576000Y-39172000I-140000J0D01*
G01*
X29296000Y-39172000D01*
G75*
G02*
X29156000Y-39032000I0J140000D01*
G01*
X29156000Y-38692000D01*
G75*
G02*
X29296000Y-38552000I140000J0D01*
G01*
X29576000Y-38552000D01*
G75*
G02*
X29716000Y-38692000I0J-140000D01*
G01*
G37*
%TD*%
%TO.C,C2*%
G36*
G01*
X32463731Y-68398013D02*
X32704147Y-68638429D01*
G75*
G02*
X32704147Y-68836419I-98995J-98995D01*
G01*
X32506157Y-69034409D01*
G75*
G02*
X32308167Y-69034409I-98995J98995D01*
G01*
X32067751Y-68793993D01*
G75*
G02*
X32067751Y-68596003I98995J98995D01*
G01*
X32265741Y-68398013D01*
G75*
G02*
X32463731Y-68398013I98995J-98995D01*
G01*
G37*
G36*
G01*
X33142553Y-67719191D02*
X33382969Y-67959607D01*
G75*
G02*
X33382969Y-68157597I-98995J-98995D01*
G01*
X33184979Y-68355587D01*
G75*
G02*
X32986989Y-68355587I-98995J98995D01*
G01*
X32746573Y-68115171D01*
G75*
G02*
X32746573Y-67917181I98995J98995D01*
G01*
X32944563Y-67719191D01*
G75*
G02*
X33142553Y-67719191I98995J-98995D01*
G01*
G37*
%TD*%
%TO.C,C1*%
G36*
G01*
X34120000Y-37284000D02*
X34460000Y-37284000D01*
G75*
G02*
X34600000Y-37424000I0J-140000D01*
G01*
X34600000Y-37704000D01*
G75*
G02*
X34460000Y-37844000I-140000J0D01*
G01*
X34120000Y-37844000D01*
G75*
G02*
X33980000Y-37704000I0J140000D01*
G01*
X33980000Y-37424000D01*
G75*
G02*
X34120000Y-37284000I140000J0D01*
G01*
G37*
G36*
G01*
X34120000Y-36324000D02*
X34460000Y-36324000D01*
G75*
G02*
X34600000Y-36464000I0J-140000D01*
G01*
X34600000Y-36744000D01*
G75*
G02*
X34460000Y-36884000I-140000J0D01*
G01*
X34120000Y-36884000D01*
G75*
G02*
X33980000Y-36744000I0J140000D01*
G01*
X33980000Y-36464000D01*
G75*
G02*
X34120000Y-36324000I140000J0D01*
G01*
G37*
%TD*%
%TO.C,D3*%
G36*
G01*
X25654950Y-51273100D02*
X26567450Y-51273100D01*
G75*
G02*
X26811200Y-51516850I0J-243750D01*
G01*
X26811200Y-52004350D01*
G75*
G02*
X26567450Y-52248100I-243750J0D01*
G01*
X25654950Y-52248100D01*
G75*
G02*
X25411200Y-52004350I0J243750D01*
G01*
X25411200Y-51516850D01*
G75*
G02*
X25654950Y-51273100I243750J0D01*
G01*
G37*
G36*
G01*
X25654950Y-49398100D02*
X26567450Y-49398100D01*
G75*
G02*
X26811200Y-49641850I0J-243750D01*
G01*
X26811200Y-50129350D01*
G75*
G02*
X26567450Y-50373100I-243750J0D01*
G01*
X25654950Y-50373100D01*
G75*
G02*
X25411200Y-50129350I0J243750D01*
G01*
X25411200Y-49641850D01*
G75*
G02*
X25654950Y-49398100I243750J0D01*
G01*
G37*
%TD*%
%TO.C,D2*%
G36*
G01*
X25654950Y-43630000D02*
X26567450Y-43630000D01*
G75*
G02*
X26811200Y-43873750I0J-243750D01*
G01*
X26811200Y-44361250D01*
G75*
G02*
X26567450Y-44605000I-243750J0D01*
G01*
X25654950Y-44605000D01*
G75*
G02*
X25411200Y-44361250I0J243750D01*
G01*
X25411200Y-43873750D01*
G75*
G02*
X25654950Y-43630000I243750J0D01*
G01*
G37*
G36*
G01*
X25654950Y-41755000D02*
X26567450Y-41755000D01*
G75*
G02*
X26811200Y-41998750I0J-243750D01*
G01*
X26811200Y-42486250D01*
G75*
G02*
X26567450Y-42730000I-243750J0D01*
G01*
X25654950Y-42730000D01*
G75*
G02*
X25411200Y-42486250I0J243750D01*
G01*
X25411200Y-41998750D01*
G75*
G02*
X25654950Y-41755000I243750J0D01*
G01*
G37*
%TD*%
%TO.C,D1*%
G36*
G01*
X25654950Y-47451550D02*
X26567450Y-47451550D01*
G75*
G02*
X26811200Y-47695300I0J-243750D01*
G01*
X26811200Y-48182800D01*
G75*
G02*
X26567450Y-48426550I-243750J0D01*
G01*
X25654950Y-48426550D01*
G75*
G02*
X25411200Y-48182800I0J243750D01*
G01*
X25411200Y-47695300D01*
G75*
G02*
X25654950Y-47451550I243750J0D01*
G01*
G37*
G36*
G01*
X25654950Y-45576550D02*
X26567450Y-45576550D01*
G75*
G02*
X26811200Y-45820300I0J-243750D01*
G01*
X26811200Y-46307800D01*
G75*
G02*
X26567450Y-46551550I-243750J0D01*
G01*
X25654950Y-46551550D01*
G75*
G02*
X25411200Y-46307800I0J243750D01*
G01*
X25411200Y-45820300D01*
G75*
G02*
X25654950Y-45576550I243750J0D01*
G01*
G37*
%TD*%
%TO.C,F1*%
G36*
G01*
X34397999Y-34082000D02*
X35198001Y-34082000D01*
G75*
G02*
X35448000Y-34331999I0J-249999D01*
G01*
X35448000Y-35157001D01*
G75*
G02*
X35198001Y-35407000I-249999J0D01*
G01*
X34397999Y-35407000D01*
G75*
G02*
X34148000Y-35157001I0J249999D01*
G01*
X34148000Y-34331999D01*
G75*
G02*
X34397999Y-34082000I249999J0D01*
G01*
G37*
G36*
G01*
X34397999Y-32157000D02*
X35198001Y-32157000D01*
G75*
G02*
X35448000Y-32406999I0J-249999D01*
G01*
X35448000Y-33232001D01*
G75*
G02*
X35198001Y-33482000I-249999J0D01*
G01*
X34397999Y-33482000D01*
G75*
G02*
X34148000Y-33232001I0J249999D01*
G01*
X34148000Y-32406999D01*
G75*
G02*
X34397999Y-32157000I249999J0D01*
G01*
G37*
%TD*%
D13*
%TO.C,Y1*%
X41742000Y-54434000D03*
X43942000Y-54434000D03*
X43942000Y-56134000D03*
X41742000Y-56134000D03*
%TD*%
D11*
%TO.C,Q2*%
X28956000Y-69866000D03*
X29906000Y-71866000D03*
X28006000Y-71866000D03*
%TD*%
D14*
%TO.C,U1*%
X27672000Y-36884000D03*
X32272000Y-36884000D03*
X29972000Y-36884000D03*
D15*
X29972000Y-30584000D03*
%TD*%
D10*
%TO.C,U2*%
G36*
X41724963Y-64654074D02*
G01*
X42113872Y-64265165D01*
X43245243Y-65396536D01*
X42856334Y-65785445D01*
X41724963Y-64654074D01*
G37*
G36*
X41159277Y-65219759D02*
G01*
X41548186Y-64830850D01*
X42679557Y-65962221D01*
X42290648Y-66351130D01*
X41159277Y-65219759D01*
G37*
G36*
X40593592Y-65785445D02*
G01*
X40982501Y-65396536D01*
X42113872Y-66527907D01*
X41724963Y-66916816D01*
X40593592Y-65785445D01*
G37*
G36*
X40027907Y-66351130D02*
G01*
X40416816Y-65962221D01*
X41548187Y-67093592D01*
X41159278Y-67482501D01*
X40027907Y-66351130D01*
G37*
G36*
X39462221Y-66916816D02*
G01*
X39851130Y-66527907D01*
X40982501Y-67659278D01*
X40593592Y-68048187D01*
X39462221Y-66916816D01*
G37*
G36*
X38896536Y-67482501D02*
G01*
X39285445Y-67093592D01*
X40416816Y-68224963D01*
X40027907Y-68613872D01*
X38896536Y-67482501D01*
G37*
G36*
X38330850Y-68048186D02*
G01*
X38719759Y-67659277D01*
X39851130Y-68790648D01*
X39462221Y-69179557D01*
X38330850Y-68048186D01*
G37*
G36*
X37765165Y-68613872D02*
G01*
X38154074Y-68224963D01*
X39285445Y-69356334D01*
X38896536Y-69745243D01*
X37765165Y-68613872D01*
G37*
G36*
X36845926Y-68224963D02*
G01*
X37234835Y-68613872D01*
X36103464Y-69745243D01*
X35714555Y-69356334D01*
X36845926Y-68224963D01*
G37*
G36*
X36280241Y-67659277D02*
G01*
X36669150Y-68048186D01*
X35537779Y-69179557D01*
X35148870Y-68790648D01*
X36280241Y-67659277D01*
G37*
G36*
X35714555Y-67093592D02*
G01*
X36103464Y-67482501D01*
X34972093Y-68613872D01*
X34583184Y-68224963D01*
X35714555Y-67093592D01*
G37*
G36*
X35148870Y-66527907D02*
G01*
X35537779Y-66916816D01*
X34406408Y-68048187D01*
X34017499Y-67659278D01*
X35148870Y-66527907D01*
G37*
G36*
X34583184Y-65962221D02*
G01*
X34972093Y-66351130D01*
X33840722Y-67482501D01*
X33451813Y-67093592D01*
X34583184Y-65962221D01*
G37*
G36*
X34017499Y-65396536D02*
G01*
X34406408Y-65785445D01*
X33275037Y-66916816D01*
X32886128Y-66527907D01*
X34017499Y-65396536D01*
G37*
G36*
X33451814Y-64830850D02*
G01*
X33840723Y-65219759D01*
X32709352Y-66351130D01*
X32320443Y-65962221D01*
X33451814Y-64830850D01*
G37*
G36*
X32886128Y-64265165D02*
G01*
X33275037Y-64654074D01*
X32143666Y-65785445D01*
X31754757Y-65396536D01*
X32886128Y-64265165D01*
G37*
G36*
X31754757Y-62603464D02*
G01*
X32143666Y-62214555D01*
X33275037Y-63345926D01*
X32886128Y-63734835D01*
X31754757Y-62603464D01*
G37*
G36*
X32320443Y-62037779D02*
G01*
X32709352Y-61648870D01*
X33840723Y-62780241D01*
X33451814Y-63169150D01*
X32320443Y-62037779D01*
G37*
G36*
X32886128Y-61472093D02*
G01*
X33275037Y-61083184D01*
X34406408Y-62214555D01*
X34017499Y-62603464D01*
X32886128Y-61472093D01*
G37*
G36*
X33451813Y-60906408D02*
G01*
X33840722Y-60517499D01*
X34972093Y-61648870D01*
X34583184Y-62037779D01*
X33451813Y-60906408D01*
G37*
G36*
X34017499Y-60340722D02*
G01*
X34406408Y-59951813D01*
X35537779Y-61083184D01*
X35148870Y-61472093D01*
X34017499Y-60340722D01*
G37*
G36*
X34583184Y-59775037D02*
G01*
X34972093Y-59386128D01*
X36103464Y-60517499D01*
X35714555Y-60906408D01*
X34583184Y-59775037D01*
G37*
G36*
X35148870Y-59209352D02*
G01*
X35537779Y-58820443D01*
X36669150Y-59951814D01*
X36280241Y-60340723D01*
X35148870Y-59209352D01*
G37*
G36*
X35714555Y-58643666D02*
G01*
X36103464Y-58254757D01*
X37234835Y-59386128D01*
X36845926Y-59775037D01*
X35714555Y-58643666D01*
G37*
G36*
X38896536Y-58254757D02*
G01*
X39285445Y-58643666D01*
X38154074Y-59775037D01*
X37765165Y-59386128D01*
X38896536Y-58254757D01*
G37*
G36*
X39462221Y-58820443D02*
G01*
X39851130Y-59209352D01*
X38719759Y-60340723D01*
X38330850Y-59951814D01*
X39462221Y-58820443D01*
G37*
G36*
X40027907Y-59386128D02*
G01*
X40416816Y-59775037D01*
X39285445Y-60906408D01*
X38896536Y-60517499D01*
X40027907Y-59386128D01*
G37*
G36*
X40593592Y-59951813D02*
G01*
X40982501Y-60340722D01*
X39851130Y-61472093D01*
X39462221Y-61083184D01*
X40593592Y-59951813D01*
G37*
G36*
X41159278Y-60517499D02*
G01*
X41548187Y-60906408D01*
X40416816Y-62037779D01*
X40027907Y-61648870D01*
X41159278Y-60517499D01*
G37*
G36*
X41724963Y-61083184D02*
G01*
X42113872Y-61472093D01*
X40982501Y-62603464D01*
X40593592Y-62214555D01*
X41724963Y-61083184D01*
G37*
G36*
X42290648Y-61648870D02*
G01*
X42679557Y-62037779D01*
X41548186Y-63169150D01*
X41159277Y-62780241D01*
X42290648Y-61648870D01*
G37*
G36*
X42856334Y-62214555D02*
G01*
X43245243Y-62603464D01*
X42113872Y-63734835D01*
X41724963Y-63345926D01*
X42856334Y-62214555D01*
G37*
%TD*%
M02*
