M48
INCH,TZ
T1C0.0157
T2C0.0197
T3C0.0374
T4C0.0394
T5C0.0523
T6C0.0906
%
G90
G05
T1
X10280Y-21780
X10300Y-22900
X10800Y-20900
X11000Y-27500
X11200Y-17700
X11300Y-15800
X11700Y-18900
X11700Y-29281
X11800Y-23000
X11866Y-24719
X11929Y-26397
X11948Y-12764
X12002Y-25898
X12008Y-27866
X12200Y-26900
X12300Y-17300
X12323Y-24182
X12486Y-26214
X12515Y-16565
X12516Y-13750
X12700Y-15300
X13131Y-28700
X13150Y-13412
X13295Y-23005
X13300Y-21600
X13400Y-27150
X13600Y-18800
X13908Y-29045
X13998Y-26017
X14004Y-21600
X14008Y-24368
X14036Y-25309
X14212Y-17287
X14379Y-27966
X14394Y-20658
X14400Y-24400
X14400Y-26400
X14626Y-16850
X14715Y-23696
X14744Y-25743
X14800Y-21600
X14800Y-29281
X14852Y-27373
X14860Y-24694
X15100Y-16000
X15165Y-16465
X15200Y-24900
X15294Y-27971
X15342Y-18135
X15344Y-25471
X15344Y-26053
X15383Y-24502
X15500Y-22200
X15600Y-18900
X15612Y-12962
X15652Y-17854
X15700Y-18300
X15700Y-20300
X15952Y-13160
X16000Y-25142
X16152Y-27150
X16369Y-28700
X16400Y-27800
X16858Y-26319
X17100Y-15900
X17400Y-16200
X17400Y-27200
X17549Y-25579
X17565Y-24096
X17700Y-16500
X17700Y-27800
X17700Y-29281
X18000Y-16800
X18046Y-20630
X18071Y-25380
X18500Y-12600
X18600Y-25600
X18900Y-28300
X19035Y-12775
X19244Y-13168
X19439Y-20400
T2
X18400Y-16400
X18800Y-15700
X19200Y-16400
T3
X14700Y-11844
X14700Y-12828
X14700Y-13616
X14700Y-14600
T4
X12000Y-20100
X12000Y-21100
X12000Y-22100
X13000Y-20100
X13000Y-21100
X13000Y-22100
X18898Y-17717
X18898Y-18717
X18898Y-19717
X18898Y-20717
X18898Y-21717
X18898Y-22717
T5
X17222Y-11293
X17222Y-14107
X18580Y-11293
X18580Y-14107
T6
X11046Y-26500
X13633Y-10635
X13633Y-15809
X18454Y-26500
T4
G00X11006Y-23980
M15
G01X10534Y-23980
M16
G05
G00X11006Y-29020
M15
G01X10534Y-29020
M16
G05
G00X18494Y-23980
M15
G01X18966Y-23980
M16
G05
G00X18494Y-29020
M15
G01X18966Y-29020
M16
G05
T0
M30
